  0
SECTION
  2
HEADER
  9
$ACADVER
  1
AC1014
  9
$ACADMAINTVER
 70
     9
  9
$DWGCODEPAGE
  3
ANSI_1252
  9
$INSBASE
 10
0.0
 20
0.0
 30
0.0
  9
$EXTMIN
 10
1.000000000000000E+20
 20
1.000000000000000E+20
 30
1.000000000000000E+20
  9
$EXTMAX
 10
-1.000000000000000E+20
 20
-1.000000000000000E+20
 30
-1.000000000000000E+20
  9
$LIMMIN
 10
0.0
 20
0.0
  9
$LIMMAX
 10
420.0
 20
297.0
  9
$ORTHOMODE
 70
     0
  9
$REGENMODE
 70
     1
  9
$FILLMODE
 70
     1
  9
$QTEXTMODE
 70
     0
  9
$MIRRTEXT
 70
     1
  9
$DRAGMODE
 70
     2
  9
$LTSCALE
 40
12.7
  9
$OSMODE
 70
    23
  9
$ATTMODE
 70
     1
  9
$TEXTSIZE
 40
3.5
  9
$TRACEWID
 40
1.0
  9
$TEXTSTYLE
  7
ONSHAPE-STANDARD
  9
$CLAYER
  8
0
  9
$CELTYPE
  6
BYLAYER
  9
$CECOLOR
 62
   256
  9
$CELTSCALE
 40
1.0
  9
$DELOBJ
 70
     1
  9
$DISPSILH
 70
     0
  9
$DIMSCALE
 40
1.0
  9
$DIMASZ
 40
2.5
  9
$DIMEXO
 40
0.625
  9
$DIMDLI
 40
3.75
  9
$DIMRND
 40
0.0
  9
$DIMDLE
 40
0.0
  9
$DIMEXE
 40
1.25
  9
$DIMTP
 40
0.0
  9
$DIMTM
 40
0.0
  9
$DIMTXT
 40
3.5
  9
$DIMCEN
 40
2.5
  9
$DIMTSZ
 40
0.0
  9
$DIMTOL
 70
     0
  9
$DIMLIM
 70
     0
  9
$DIMTIH
 70
     0
  9
$DIMTOH
 70
     0
  9
$DIMSE1
 70
     0
  9
$DIMSE2
 70
     0
  9
$DIMTAD
 70
     1
  9
$DIMZIN
 70
     8
  9
$DIMBLK
  1

  9
$DIMASO
 70
     1
  9
$DIMSHO
 70
     1
  9
$DIMPOST
  1

  9
$DIMAPOST
  1

  9
$DIMALT
 70
     0
  9
$DIMALTD
 70
     3
  9
$DIMALTF
 40
0.03937
  9
$DIMLFAC
 40
1.0
  9
$DIMTOFL
 70
     1
  9
$DIMTVP
 40
0.0
  9
$DIMTIX
 70
     0
  9
$DIMSOXD
 70
     0
  9
$DIMSAH
 70
     0
  9
$DIMBLK1
  1

  9
$DIMBLK2
  1

  9
$DIMSTYLE
  2
ONSHAPE-ISO-25
  9
$DIMCLRD
 70
     7
  9
$DIMCLRE
 70
     7
  9
$DIMCLRT
 70
     7
  9
$DIMTFAC
 40
1.0
  9
$DIMGAP
 40
0.625
  9
$DIMJUST
 70
     0
  9
$DIMSD1
 70
     0
  9
$DIMSD2
 70
     0
  9
$DIMTOLJ
 70
     0
  9
$DIMTZIN
 70
     8
  9
$DIMALTZ
 70
     8
  9
$DIMALTTZ
 70
     0
  9
$DIMFIT
 70
     3
  9
$DIMUPT
 70
     1
  9
$DIMUNIT
 70
     2
  9
$DIMDEC
 70
     2
  9
$DIMTDEC
 70
     2
  9
$DIMALTU
 70
     2
  9
$DIMALTTD
 70
     3
  9
$DIMTXSTY
  7
ONSHAPE-STANDARD-DIMENSION
  9
$DIMAUNIT
 70
     0
  9
$LUNITS
 70
     2
  9
$LUPREC
 70
     4
  9
$SKETCHINC
 40
1.0
  9
$FILLETRAD
 40
10.0
  9
$AUNITS
 70
     0
  9
$AUPREC
 70
     0
  9
$MENU
  1
.
  9
$ELEVATION
 40
0.0
  9
$PELEVATION
 40
0.0
  9
$THICKNESS
 40
0.0
  9
$LIMCHECK
 70
     0
  9
$CHAMFERA
 40
0.0
  9
$CHAMFERB
 40
0.0
  9
$CHAMFERC
 40
0.0
  9
$CHAMFERD
 40
0.0
  9
$SKPOLY
 70
     0
  9
$TDCREATE
 40
2458541.929224537
  9
$TDUPDATE
 40
2458541.929224537
  9
$TDINDWG
 40
0.0
  9
$TDUSRTIMER
 40
0.0
  9
$USRTIMER
 70
     1
  9
$ANGBASE
 50
0.0
  9
$ANGDIR
 70
     0
  9
$PDMODE
 70
     0
  9
$PDSIZE
 40
0.0
  9
$PLINEWID
 40
0.0
  9
$COORDS
 70
     1
  9
$SPLFRAME
 70
     0
  9
$SPLINETYPE
 70
     6
  9
$SPLINESEGS
 70
     8
  9
$ATTDIA
 70
     0
  9
$ATTREQ
 70
     1
  9
$HANDLING
 70
     1
  9
$HANDSEED
  5
3BF
  9
$SURFTAB1
 70
     6
  9
$SURFTAB2
 70
     6
  9
$SURFTYPE
 70
     6
  9
$SURFU
 70
     6
  9
$SURFV
 70
     6
  9
$UCSNAME
  2

  9
$UCSORG
 10
0.0
 20
0.0
 30
0.0
  9
$UCSXDIR
 10
1.0
 20
0.0
 30
0.0
  9
$UCSYDIR
 10
0.0
 20
1.0
 30
0.0
  9
$PUCSNAME
  2

  9
$PUCSORG
 10
0.0
 20
0.0
 30
0.0
  9
$PUCSXDIR
 10
1.0
 20
0.0
 30
0.0
  9
$PUCSYDIR
 10
0.0
 20
1.0
 30
0.0
  9
$USERI1
 70
     0
  9
$USERI2
 70
     0
  9
$USERI3
 70
     0
  9
$USERI4
 70
     0
  9
$USERI5
 70
     0
  9
$USERR1
 40
0.0
  9
$USERR2
 40
0.0
  9
$USERR3
 40
0.0
  9
$USERR4
 40
0.0
  9
$USERR5
 40
0.0
  9
$WORLDVIEW
 70
     1
  9
$SHADEDGE
 70
     3
  9
$SHADEDIF
 70
    70
  9
$TILEMODE
 70
     1
  9
$MAXACTVP
 70
    64
  9
$PINSBASE
 10
0.0
 20
0.0
 30
0.0
  9
$PLIMCHECK
 70
     0
  9
$PEXTMIN
 10
1.000000000000000E+20
 20
1.000000000000000E+20
 30
1.000000000000000E+20
  9
$PEXTMAX
 10
-1.000000000000000E+20
 20
-1.000000000000000E+20
 30
-1.000000000000000E+20
  9
$PLIMMIN
 10
0.0
 20
0.0
  9
$PLIMMAX
 10
420.0
 20
297.0
  9
$UNITMODE
 70
     0
  9
$VISRETAIN
 70
     1
  9
$PLINEGEN
 70
     0
  9
$PSLTSCALE
 70
     1
  9
$TREEDEPTH
 70
  3020
  9
$PICKSTYLE
 70
     1
  9
$CMLSTYLE
  2
STANDARD
  9
$CMLJUST
 70
     0
  9
$CMLSCALE
 40
20.0
  9
$PROXYGRAPHICS
 70
     1
  9
$MEASUREMENT
 70
     1
  0
ENDSEC
  0
SECTION
  2
CLASSES
  0
CLASS
  1
ACDBDICTIONARYWDFLT
  2
AcDbDictionaryWithDefault
  3
ObjectDBX Classes
 90
        0
280
     0
281
     0
  0
CLASS
  1
VISUALSTYLE
  2
AcDbVisualStyle
  3
ObjectDBX Classes
 90
     4095
280
     0
281
     0
  0
CLASS
  1
MATERIAL
  2
AcDbMaterial
  3
ObjectDBX Classes
 90
     1153
280
     0
281
     0
  0
CLASS
  1
SCALE
  2
AcDbScale
  3
ObjectDBX Classes
 90
     1153
280
     0
281
     0
  0
CLASS
  1
SUN
  2
AcDbSun
  3
SCENEOE
 90
     1153
280
     0
281
     0
  0
CLASS
  1
TABLESTYLE
  2
AcDbTableStyle
  3
ObjectDBX Classes
 90
     4095
280
     0
281
     0
  0
CLASS
  1
DICTIONARYVAR
  2
AcDbDictionaryVar
  3
ObjectDBX Classes
 90
        0
280
     0
281
     0
  0
CLASS
  1
FIELD
  2
AcDbField
  3
ObjectDBX Classes
 90
     1152
280
     0
281
     0
  0
CLASS
  1
DIMASSOC
  2
AcDbDimAssoc
  3
"AcDbDimAssoc|Product Desc:     AcDim ARX App For Dimension|Company:          Autodesk, Inc.|WEB Address:      www.autodesk.com"
 90
        0
280
     0
281
     0
  0
CLASS
  1
FIELDLIST
  2
AcDbFieldList
  3
ObjectDBX Classes
 90
     1152
280
     0
281
     0
  0
CLASS
  1
XRECORD
  2
AcDbXrecord
  3
ObjectDBX Classes
 90
        0
280
     0
281
     0
  0
CLASS
  1
LWPOLYLINE
  2
AcDbPolyline
  3
ObjectDBX Classes
 90
        0
280
     0
281
     1
  0
CLASS
  1
HATCH
  2
AcDbHatch
  3
ObjectDBX Classes
 90
        0
280
     0
281
     1
  0
CLASS
  1
ACDBPLACEHOLDER
  2
AcDbPlaceHolder
  3
ObjectDBX Classes
 90
        0
280
     0
281
     0
  0
CLASS
  1
LAYOUT
  2
AcDbLayout
  3
ObjectDBX Classes
 90
        0
280
     0
281
     0
  0
ENDSEC
  0
SECTION
  2
TABLES
  0
TABLE
  2
VPORT
  5
8
330
0
100
AcDbSymbolTable
 70
     1
  0
VPORT
  5
29
330
8
100
AcDbSymbolTableRecord
100
AcDbViewportTableRecord
  2
*ACTIVE
 70
     0
 10
0.0
 20
0.0
 11
1.0
 21
1.0
 12
159.194944
 22
105.0
 13
0.0
 23
0.0
 14
10.0
 24
10.0
 15
10.0
 25
10.0
 16
0.0
 26
0.0
 36
1.0
 17
0.0
 27
0.0
 37
0.0
 40
193.8
 41
1.465209936842105
 42
50.0
 43
0.0
 44
0.0
 50
0.0
 51
0.0
 71
     0
 72
   100
 73
     1
 74
     3
 75
     0
 76
     0
 77
     0
 78
     0
  0
ENDTAB
  0
TABLE
  2
LTYPE
  5
5
330
0
100
AcDbSymbolTable
 70
     2
  0
LTYPE
  5
14
330
5
100
AcDbSymbolTableRecord
100
AcDbLinetypeTableRecord
  2
BYBLOCK
 70
     0
  3

 72
    65
 73
     0
 40
0.0
  0
LTYPE
  5
15
330
5
100
AcDbSymbolTableRecord
100
AcDbLinetypeTableRecord
  2
BYLAYER
 70
     0
  3

 72
    65
 73
     0
 40
0.0
  0
LTYPE
  5
16
330
5
100
AcDbSymbolTableRecord
100
AcDbLinetypeTableRecord
  2
CONTINUOUS
 70
     0
  3
Solid line
 72
    65
 73
     0
 40
0.0
  0
LTYPE
  5
324
330
5
100
AcDbSymbolTableRecord
100
AcDbLinetypeTableRecord
  2
CENTER
 70
     0
  3
Center line ____ _ ____ _ ____ _
 72
    65
 73
     4
 40
0.7874015748031495
 49
0.4921259842519685
 74
     0
 49
-0.0984251968503937
 74
     0
 49
0.0984251968503937
 74
     0
 49
-0.0984251968503937
 74
     0
  0
ENDTAB
  0
TABLE
  2
LAYER
  5
2
330
0
100
AcDbSymbolTable
 70
     9
  0
LAYER
  5
10
330
2
100
AcDbSymbolTableRecord
100
AcDbLayerTableRecord
  2
0
 70
     0
 62
     7
  6
CONTINUOUS
  0
LAYER
  5
6E
330
2
100
AcDbSymbolTableRecord
100
AcDbLayerTableRecord
  2
DEFPOINTS
 70
     0
 62
     7
  6
CONTINUOUS
  0
LAYER
  5
73
330
2
100
AcDbSymbolTableRecord
100
AcDbLayerTableRecord
  2
BORDER_FRAME
 70
     0
 62
     7
  6
CONTINUOUS
  0
LAYER
  5
79
330
2
100
AcDbSymbolTableRecord
100
AcDbLayerTableRecord
  2
TITLE_BLOCK
 70
     0
 62
     7
  6
CONTINUOUS
  0
LAYER
  5
F4
330
2
100
AcDbSymbolTableRecord
100
AcDbLayerTableRecord
  2
ANNOTATION_TEXT
 70
     0
 62
     7
  6
CONTINUOUS
  0
LAYER
  5
322
330
2
100
AcDbSymbolTableRecord
100
AcDbLayerTableRecord
  2
ANNOTATION_LINES
 70
     0
 62
     7
  6
CONTINUOUS
  0
LAYER
  5
323
330
2
100
AcDbSymbolTableRecord
100
AcDbLayerTableRecord
  2
SHEETMETAL_BEND_LINES_UP
 70
     0
 62
     7
  6
CENTER
  0
LAYER
  5
329
330
2
100
AcDbSymbolTableRecord
100
AcDbLayerTableRecord
  2
VISIBLE
 70
     0
 62
     7
  6
CONTINUOUS
  0
LAYER
  5
35B
330
2
100
AcDbSymbolTableRecord
100
AcDbLayerTableRecord
  2
SKETCHED_GEOMETRY
 70
     0
 62
     7
  6
CENTER
  0
ENDTAB
  0
TABLE
  2
STYLE
  5
3
330
0
100
AcDbSymbolTable
 70
    19
  0
STYLE
  5
11
330
3
100
AcDbSymbolTableRecord
100
AcDbTextStyleTableRecord
  2
STANDARD
 70
     0
 40
0.0
 41
1.0
 50
0.0
 71
     0
 42
3.5
  3
txt
  4

  0
STYLE
  5
6F
330
3
100
AcDbSymbolTableRecord
100
AcDbTextStyleTableRecord
  2
ONSHAPE-STANDARD
 70
     0
 40
0.0
 41
1.0
 50
0.0
 71
     0
 42
3.5
  3
NotoSans-Regular.ttf
  4

1001
ACAD
1000
Noto Sans
1071
        0
  0
STYLE
  5
71
330
3
100
AcDbSymbolTableRecord
100
AcDbTextStyleTableRecord
  2
ONSHAPE-STANDARD-DIMENSION
 70
     0
 40
0.0
 41
1.0
 50
0.0
 71
     0
 42
3.5
  3

  4

1001
ACAD
1000
Noto Sans
1071
        0
  0
STYLE
  5
A9
330
3
100
AcDbSymbolTableRecord
100
AcDbTextStyleTableRecord
  2
ONSHAPE-STANDARD-FIELDS
 70
     0
 40
0.0
 41
1.0
 50
0.0
 71
     0
 42
3.5
  3

  4

1001
ACAD
1000
Noto Sans
1071
        0
  0
STYLE
  5
F5
330
3
100
AcDbSymbolTableRecord
100
AcDbTextStyleTableRecord
  2
ONSHAPE-STANDARD-VIEW-LABE
 70
     0
 40
3.5
 41
1.0
 50
0.0
 71
     0
 42
3.5
  3
NotoSans-Regular.ttf
  4

1001
ACAD
1000
Noto Sans
1071
        0
  0
STYLE
  5
360
330
3
100
AcDbSymbolTableRecord
100
AcDbTextStyleTableRecord
  2
ONSHAPE-STANDARD-BOLD
 70
     0
 40
0.0
 41
1.0
 50
0.0
 71
     0
 42
3.5
  3
NotoSans-Bold.ttf
  4

1001
ACAD
1000
Noto Sans
1071
 33554432
  0
STYLE
  5
361
330
3
100
AcDbSymbolTableRecord
100
AcDbTextStyleTableRecord
  2
ONSHAPE-STANDARD-TCFIELDS
 70
     0
 40
0.0
 41
1.0
 50
0.0
 71
     0
 42
3.5
  3
NotoSansTC-Regular.otf
  4

1001
ACAD
1000
Noto Sans TC
1071
        0
  0
STYLE
  5
362
330
3
100
AcDbSymbolTableRecord
100
AcDbTextStyleTableRecord
  2
ONSHAPE-STANDARD-SCFIELDS
 70
     0
 40
0.0
 41
1.0
 50
0.0
 71
     0
 42
3.5
  3
NotoSansSC-Regular.otf
  4

1001
ACAD
1000
Noto Sans SC
1071
        0
  0
STYLE
  5
363
330
3
100
AcDbSymbolTableRecord
100
AcDbTextStyleTableRecord
  2
ONSHAPE-STANDARD-KOREANFIE
 70
     0
 40
0.0
 41
1.0
 50
0.0
 71
     0
 42
3.5
  3
NotoSansKR-Regular.otf
  4

1001
ACAD
1000
Noto Sans KR
1071
        0
  0
STYLE
  5
364
330
3
100
AcDbSymbolTableRecord
100
AcDbTextStyleTableRecord
  2
TTFSTYLE
 70
     0
 40
0.0
 41
1.0
 50
0.0
 71
     0
 42
3.5
  3
Verdana.ttf
  4

1001
ACAD
1000
Verdana
1071
       34
  0
STYLE
  5
365
330
3
100
AcDbSymbolTableRecord
100
AcDbTextStyleTableRecord
  2
ONSHAPE-STANDARD-GTOLERANC
 70
     0
 40
0.0
 41
1.0
 50
0.0
 71
     0
 42
3.5
  3

  4

1001
ACAD
1000
Noto Sans
1071
        0
  0
STYLE
  5
366
330
3
100
AcDbSymbolTableRecord
100
AcDbTextStyleTableRecord
  2
ONSHAPE-STANDARD-TABLE-DAT
 70
     0
 40
0.0
 41
1.0
 50
0.0
 71
     0
 42
3.5
  3
NotoSans-Regular.ttf
  4

1001
ACAD
1000
Noto Sans
1071
        0
  0
STYLE
  5
367
330
3
100
AcDbSymbolTableRecord
100
AcDbTextStyleTableRecord
  2
ONSHAPE-STANDARD-TABLE-TIT
 70
     0
 40
0.0
 41
1.0
 50
0.0
 71
     0
 42
3.5
  3
NotoSans-Bold.ttf
  4

1001
ACAD
1000
Noto Sans
1071
 33554432
  0
STYLE
  5
368
330
3
100
AcDbSymbolTableRecord
100
AcDbTextStyleTableRecord
  2
ONSHAPE-STANDARD-TABLE-HEA
 70
     0
 40
0.0
 41
1.0
 50
0.0
 71
     0
 42
3.5
  3
NotoSans-Bold.ttf
  4

1001
ACAD
1000
Noto Sans
1071
 33554432
  0
STYLE
  5
369
330
3
100
AcDbSymbolTableRecord
100
AcDbTextStyleTableRecord
  2
ONSHAPE-STANDARD-BOMTABLE-
 70
     0
 40
0.0
 41
1.0
 50
0.0
 71
     0
 42
3.5
  3
NotoSans-Regular.ttf
  4

1001
ACAD
1000
Noto Sans
1071
        0
  0
STYLE
  5
36A
330
3
100
AcDbSymbolTableRecord
100
AcDbTextStyleTableRecord
  2
ONSHAPE-STANDARD-BOMTABLE0
 70
     0
 40
0.0
 41
1.0
 50
0.0
 71
     0
 42
3.5
  3
NotoSans-Bold.ttf
  4

1001
ACAD
1000
Noto Sans
1071
 33554432
  0
STYLE
  5
36B
330
3
100
AcDbSymbolTableRecord
100
AcDbTextStyleTableRecord
  2
ONSHAPE-STANDARD-BOMTABLE1
 70
     0
 40
0.0
 41
1.0
 50
0.0
 71
     0
 42
3.5
  3
NotoSans-Bold.ttf
  4

1001
ACAD
1000
Noto Sans
1071
 33554432
  0
STYLE
  5
36C
330
3
100
AcDbSymbolTableRecord
100
AcDbTextStyleTableRecord
  2
ONSHAPE-STANDARD-NOTESTYLE
 70
     0
 40
3.5
 41
1.0
 50
0.0
 71
     0
 42
3.5
  3
Noto Sans
  4

1001
ACAD
1000
Noto Sans
1071
        0
  0
STYLE
  5
36D
330
3
100
AcDbSymbolTableRecord
100
AcDbTextStyleTableRecord
  2
ONSHAPE-STANDARD-HOLE-CALL
 70
     0
 40
3.5
 41
1.0
 50
0.0
 71
     0
 42
3.5
  3
Noto Sans
  4

1001
ACAD
1000
Noto Sans
1071
        0
  0
ENDTAB
  0
TABLE
  2
VIEW
  5
6
330
0
100
AcDbSymbolTable
 70
     0
  0
ENDTAB
  0
TABLE
  2
UCS
  5
7
330
0
100
AcDbSymbolTable
 70
     0
  0
ENDTAB
  0
TABLE
  2
APPID
  5
9
330
0
100
AcDbSymbolTable
 70
     5
  0
APPID
  5
12
330
9
100
AcDbSymbolTableRecord
100
AcDbRegAppTableRecord
  2
ACAD
 70
     0
  0
APPID
  5
10A
330
9
100
AcDbSymbolTableRecord
100
AcDbRegAppTableRecord
  2
ACAD_DIMASSOC_CALC_DIMLFAC
 70
     0
  0
APPID
  5
10B
330
9
100
AcDbSymbolTableRecord
100
AcDbRegAppTableRecord
  2
ACAD_DIMASSOC_DIMLFAC
 70
     0
  0
APPID
  5
10C
330
9
100
AcDbSymbolTableRecord
100
AcDbRegAppTableRecord
  2
ACAD_DIMASSOC_OVERRIDDEN_D
 70
     0
  0
APPID
  5
150
330
9
100
AcDbSymbolTableRecord
100
AcDbRegAppTableRecord
  2
ACAD_DSTYLE_DIMRADIAL_EXTE
 70
     0
  0
ENDTAB
  0
TABLE
  2
DIMSTYLE
  5
A
330
0
100
AcDbSymbolTable
 70
    16
  0
DIMSTYLE
105
27
330
A
100
AcDbSymbolTableRecord
100
AcDbDimStyleTableRecord
  2
ISO-25
 70
     0
  3

  4

  5

  6

  7

 40
1.0
 41
2.5
 42
0.625
 43
3.75
 44
1.25
 45
0.0
 46
0.0
 47
0.0
 48
0.0
140
2.5
141
2.5
142
0.0
143
0.03937007874016
144
1.0
145
0.0
146
1.0
147
0.625
 71
     0
 72
     0
 73
     0
 74
     0
 75
     0
 76
     0
 77
     1
 78
     8
170
     0
171
     3
172
     1
173
     0
174
     0
175
     0
176
     0
177
     0
178
     0
270
     2
271
     2
272
     2
273
     2
274
     3
340
11
275
     0
280
     0
281
     0
282
     0
283
     0
284
     8
285
     0
286
     0
287
     3
288
     0
  0
DIMSTYLE
105
70
330
A
100
AcDbSymbolTableRecord
100
AcDbDimStyleTableRecord
  2
ONSHAPE-ISO-25
 70
     0
  3

  4

  5

  6

  7

 40
1.0
 41
2.5
 42
0.625
 43
3.75
 44
1.25
 45
0.0
 46
0.0
 47
0.0
 48
0.0
140
3.5
141
2.5
142
0.0
143
0.03937
144
1.0
145
0.0
146
1.0
147
0.625
 71
     0
 72
     0
 73
     0
 74
     0
 75
     0
 76
     0
 77
     1
 78
     8
170
     0
171
     3
172
     1
173
     0
174
     0
175
     0
176
     7
177
     7
178
     7
179
     1
270
     2
271
     2
272
     2
273
     2
274
     3
340
71
275
     0
280
     0
281
     0
282
     0
283
     0
284
     8
285
     8
286
     0
287
     3
288
     1
  0
DIMSTYLE
105
FC
102
{ACAD_REACTORS
330
F6
330
10D
330
11E
330
12F
330
15F
330
173
330
184
330
1A4
330
1B5
330
1C8
330
1E8
330
1FB
330
20F
330
220
330
231
330
242
330
253
330
267
330
278
330
28C
330
29D
330
2AE
330
2BE
330
2CE
330
2DE
330
2EE
330
2FE
330
310
102
}
330
A
100
AcDbSymbolTableRecord
100
AcDbDimStyleTableRecord
  2
ONSHAPE-ISO-25$0
 70
     0
  3

  4

  5

  6

  7

 40
1.0
 41
2.5
 42
0.625
 43
3.75
 44
1.25
 45
0.0
 46
0.0
 47
0.0
 48
0.0
140
3.5
141
2.5
142
0.0
143
0.03937
144
1.0
145
0.0
146
1.0
147
0.625
 71
     0
 72
     0
 73
     0
 74
     0
 75
     0
 76
     0
 77
     1
 78
     8
170
     0
171
     3
172
     1
173
     0
174
     0
175
     0
176
     7
177
     7
178
     7
179
     1
270
     2
271
     2
272
     2
273
     2
274
     3
340
71
275
     0
280
     0
281
     0
282
     0
283
     0
284
     8
285
     8
286
     0
287
     3
288
     1
  0
DIMSTYLE
105
144
102
{ACAD_REACTORS
330
140
330
195
102
}
330
A
100
AcDbSymbolTableRecord
100
AcDbDimStyleTableRecord
  2
ONSHAPE-ISO-25$3
 70
     0
  3

  4

  5

  6

  7

 40
1.0
 41
2.5
 42
0.625
 43
3.75
 44
1.25
 45
0.0
 46
0.0
 47
0.0
 48
0.0
140
3.5
141
0.0
142
0.0
143
0.03937
144
1.0
145
0.0
146
1.0
147
0.625
 71
     0
 72
     0
 73
     0
 74
     0
 75
     0
 76
     0
 77
     1
 78
     8
170
     0
171
     3
172
     1
173
     0
174
     0
175
     0
176
     7
177
     7
178
     7
179
     1
270
     2
271
     2
272
     2
273
     2
274
     3
340
71
275
     0
280
     0
281
     0
282
     0
283
     0
284
     8
285
     8
286
     0
287
     3
288
     1
  0
DIMSTYLE
105
155
102
{ACAD_REACTORS
330
151
330
1DC
102
}
330
A
100
AcDbSymbolTableRecord
100
AcDbDimStyleTableRecord
  2
ONSHAPE-ISO-25$4
 70
     0
  3

  4

  5

  6

  7

 40
1.0
 41
2.5
 42
0.625
 43
3.75
 44
1.25
 45
0.0
 46
0.0
 47
0.0
 48
0.0
140
3.5
141
0.0
142
0.0
143
0.03937
144
1.0
145
0.0
146
1.0
147
0.625
 71
     0
 72
     0
 73
     0
 74
     0
 75
     0
 76
     0
 77
     1
 78
     8
170
     0
171
     3
172
     1
173
     0
174
     0
175
     0
176
     7
177
     7
178
     7
179
     1
270
     2
271
     2
272
     2
273
     2
274
     3
340
71
275
     0
280
     0
281
     0
282
     0
283
     0
284
     8
285
     8
286
     0
287
     3
288
     1
  0
DIMSTYLE
105
325
102
{ACAD_REACTORS
330
328
102
}
330
A
100
AcDbSymbolTableRecord
100
AcDbDimStyleTableRecord
  2
ONSHAPE-ISO-25$7
 70
     0
  3

  4

  5

  6

  7

 40
1.0
 41
2.5
 42
0.625
 43
3.75
 44
1.25
 45
0.0
 46
0.0
 47
0.0
 48
0.0
140
3.5
141
2.5
142
0.0
143
0.03937
144
1.0
145
0.0
146
1.0
147
0.625
 71
     0
 72
     0
 73
     0
 74
     0
 75
     0
 76
     0
 77
     1
 78
     8
170
     0
171
     3
172
     1
173
     0
174
     0
175
     0
176
     7
177
     7
178
     7
179
     1
270
     2
271
     2
272
     2
273
     2
274
     3
340
71
275
     0
280
     0
281
     0
282
     0
283
     0
284
     8
285
     8
286
     0
287
     3
288
     1
  0
DIMSTYLE
105
370
330
A
100
AcDbSymbolTableRecord
100
AcDbDimStyleTableRecord
  2
ISO
 70
     0
  3

  4
"
  5

  6

  7

 40
1.0
 41
3.5
 42
1.0
 43
10.0
 44
1.0
 45
0.0
 46
0.0
 47
0.1
 48
0.1
140
3.5
141
0.0
142
0.0
143
0.03937
144
1.0
145
0.0
146
0.71
147
1.5
 71
     0
 72
     0
 73
     0
 74
     0
 75
     0
 76
     0
 77
     1
 78
     8
170
     0
171
     3
172
     1
173
     0
174
     0
175
     0
176
     7
177
     7
178
     7
270
     2
271
     2
272
     3
273
     2
274
     3
340
11
275
     0
280
     0
281
     0
282
     0
283
     0
284
     8
285
     8
286
     0
287
     3
288
     1
  0
DIMSTYLE
105
371
330
A
100
AcDbSymbolTableRecord
100
AcDbDimStyleTableRecord
  2
ISO$3
 70
     0
  3

  4
"
  5

  6

  7

 40
1.0
 41
3.5
 42
1.0
 43
10.0
 44
1.0
 45
0.0
 46
0.0
 47
0.1
 48
0.1
140
3.5
141
0.0
142
0.0
143
0.03937
144
1.0
145
0.0
146
0.71
147
1.5
 71
     0
 72
     0
 73
     0
 74
     1
 75
     0
 76
     0
 77
     1
 78
     8
170
     0
171
     3
172
     0
173
     0
174
     0
175
     0
176
     7
177
     7
178
     7
270
     2
271
     2
272
     3
273
     2
274
     3
340
11
275
     0
280
     0
281
     0
282
     0
283
     0
284
     8
285
     8
286
     0
288
     1
  0
DIMSTYLE
105
372
330
A
100
AcDbSymbolTableRecord
100
AcDbDimStyleTableRecord
  2
ISO$4
 70
     0
  3

  4
"
  5

  6

  7

 40
1.0
 41
3.5
 42
1.0
 43
10.0
 44
1.0
 45
0.0
 46
0.0
 47
0.1
 48
0.1
140
3.5
141
0.0
142
0.0
143
0.03937
144
1.0
145
0.0
146
0.71
147
1.5
 71
     0
 72
     0
 73
     0
 74
     0
 75
     0
 76
     0
 77
     1
 78
     8
170
     0
171
     3
172
     1
173
     0
174
     0
175
     0
176
     7
177
     7
178
     7
270
     2
271
     2
272
     3
273
     2
274
     3
340
11
275
     0
280
     0
281
     0
282
     0
283
     0
284
     8
285
     8
286
     0
287
     3
288
     1
  0
DIMSTYLE
105
373
330
A
100
AcDbSymbolTableRecord
100
AcDbDimStyleTableRecord
  2
ISO$6
 70
     0
  3

  4
"
  5

  6

  7

 40
1.0
 41
0.5
 42
1.0
 43
10.0
 44
1.0
 45
0.0
 46
0.0
 47
0.1
 48
0.1
140
3.5
141
0.0
142
0.0
143
0.03937
144
1.0
145
0.0
146
0.71
147
1.5
 71
     0
 72
     0
 73
     0
 74
     0
 75
     0
 76
     0
 77
     0
 78
     8
170
     0
171
     3
172
     1
173
     0
174
     0
175
     0
176
     7
177
     7
178
     7
270
     2
271
     2
272
     3
273
     2
274
     3
340
11
275
     0
280
     0
281
     0
282
     0
283
     0
284
     8
285
     8
286
     0
287
     3
288
     1
  0
DIMSTYLE
105
374
330
A
100
AcDbSymbolTableRecord
100
AcDbDimStyleTableRecord
  2
ISO$7
 70
     0
  3

  4
"
  5

  6

  7

 40
1.0
 41
3.5
 42
1.0
 43
10.0
 44
1.0
 45
0.0
 46
0.0
 47
0.1
 48
0.1
140
3.5
141
0.0
142
0.0
143
0.03937
144
1.0
145
0.0
146
0.71
147
1.5
 71
     0
 72
     0
 73
     0
 74
     0
 75
     0
 76
     0
 77
     1
 78
     8
170
     0
171
     3
172
     1
173
     0
174
     0
175
     0
176
     7
177
     7
178
     7
270
     2
271
     2
272
     3
273
     2
274
     3
340
11
275
     0
280
     0
281
     0
282
     0
283
     0
284
     8
285
     8
286
     0
287
     3
288
     1
  0
DIMSTYLE
105
375
330
A
100
AcDbSymbolTableRecord
100
AcDbDimStyleTableRecord
  2
ISO$SF
 70
     0
  3

  4
"
  5

  6

  7

 40
1.0
 41
3.5
 42
1.0
 43
10.0
 44
1.0
 45
0.0
 46
0.0
 47
0.1
 48
0.1
140
3.5
141
0.0
142
0.0
143
0.03937
144
1.0
145
0.0
146
0.71
147
1.5
 71
     0
 72
     0
 73
     0
 74
     0
 75
     1
 76
     1
 77
     1
 78
     8
170
     0
171
     3
172
     1
173
     0
174
     0
175
     0
176
     7
177
     7
178
     7
270
     2
271
     2
272
     3
273
     2
274
     3
340
11
275
     0
280
     0
281
     0
282
     0
283
     0
284
     8
285
     8
286
     0
287
     3
288
     1
  0
DIMSTYLE
105
376
330
A
100
AcDbSymbolTableRecord
100
AcDbDimStyleTableRecord
  2
ISO$SH
 70
     0
  3

  4
"
  5

  6

  7

 40
1.0
 41
3.5
 42
1.0
 43
10.0
 44
1.0
 45
0.0
 46
0.0
 47
0.1
 48
0.1
140
3.5
141
0.0
142
0.0
143
0.03937
144
2.0
145
0.0
146
0.71
147
1.5
 71
     0
 72
     0
 73
     0
 74
     0
 75
     1
 76
     1
 77
     1
 78
     8
170
     0
171
     3
172
     1
173
     1
174
     0
175
     0
176
     7
177
     7
178
     7
270
     2
271
     2
272
     3
273
     2
274
     3
340
11
275
     0
280
     0
281
     0
282
     0
283
     0
284
     8
285
     8
286
     0
287
     3
288
     1
  0
DIMSTYLE
105
378
330
A
100
AcDbSymbolTableRecord
100
AcDbDimStyleTableRecord
  2
ONSHAPE-ISO-25$2
 70
     0
  3

  4

  5

  6

  7

 40
1.0
 41
2.5
 42
0.625
 43
3.75
 44
1.25
 45
0.0
 46
0.0
 47
0.0
 48
0.0
140
3.5
141
2.5
142
0.0
143
0.03937
144
1.0
145
0.0
146
1.0
147
0.625
 71
     0
 72
     0
 73
     0
 74
     0
 75
     0
 76
     0
 77
     1
 78
     8
170
     0
171
     3
172
     1
173
     0
174
     0
175
     0
176
     7
177
     7
178
     7
179
     1
270
     2
271
     2
272
     2
273
     2
274
     3
340
71
275
     0
280
     0
281
     0
282
     0
283
     0
284
     8
285
     8
286
     0
287
     3
288
     1
  0
DIMSTYLE
105
379
330
A
100
AcDbSymbolTableRecord
100
AcDbDimStyleTableRecord
  2
ONSHAPE-ISO-25$6
 70
     0
  3

  4

  5

  6

  7

 40
1.0
 41
0.5
 42
0.625
 43
3.75
 44
1.25
 45
0.0
 46
0.0
 47
0.0
 48
0.0
140
3.5
141
2.5
142
0.0
143
0.03937
144
1.0
145
0.0
146
1.0
147
0.625
 71
     0
 72
     0
 73
     0
 74
     0
 75
     0
 76
     0
 77
     1
 78
     8
170
     0
171
     3
172
     1
173
     0
174
     0
175
     0
176
     7
177
     7
178
     7
179
     1
270
     2
271
     2
272
     2
273
     2
274
     3
340
71
275
     0
280
     0
281
     0
282
     0
283
     0
284
     8
285
     8
286
     0
287
     3
288
     1
  0
DIMSTYLE
105
37B
330
A
100
AcDbSymbolTableRecord
100
AcDbDimStyleTableRecord
  2
ONSHAPE-STANDARD-GTOLERANC
 70
     0
  3

  4

  5

  6

  7

 40
1.0
 41
2.5
 42
0.625
 43
3.75
 44
1.25
 45
0.0
 46
0.0
 47
0.0
 48
0.0
140
3.5
141
2.5
142
0.0
143
0.03937
144
1.0
145
0.0
146
1.0
147
0.625
 71
     0
 72
     0
 73
     0
 74
     0
 75
     0
 76
     0
 77
     1
 78
     8
170
     0
171
     3
172
     1
173
     0
174
     0
175
     0
176
     7
177
     7
178
     7
179
     1
270
     2
271
     2
272
     2
273
     2
274
     3
340
365
275
     0
280
     0
281
     0
282
     0
283
     0
284
     8
285
     8
286
     0
287
     3
288
     1
  0
ENDTAB
  0
TABLE
  2
BLOCK_RECORD
  5
1
330
0
100
AcDbSymbolTable
 70
    33
  0
BLOCK_RECORD
  5
1F
330
1
100
AcDbSymbolTableRecord
100
AcDbBlockTableRecord
  2
*MODEL_SPACE
  0
BLOCK_RECORD
  5
1B
330
1
100
AcDbSymbolTableRecord
100
AcDbBlockTableRecord
  2
*PAPER_SPACE
  0
BLOCK_RECORD
  5
FE
330
1
100
AcDbSymbolTableRecord
100
AcDbBlockTableRecord
  2
*D1
  0
BLOCK_RECORD
  5
112
330
1
100
AcDbSymbolTableRecord
100
AcDbBlockTableRecord
  2
*D2
  0
BLOCK_RECORD
  5
123
330
1
100
AcDbSymbolTableRecord
100
AcDbBlockTableRecord
  2
*D3
  0
BLOCK_RECORD
  5
134
330
1
100
AcDbSymbolTableRecord
100
AcDbBlockTableRecord
  2
*D4
  0
BLOCK_RECORD
  5
145
330
1
100
AcDbSymbolTableRecord
100
AcDbBlockTableRecord
  2
*D5
  0
BLOCK_RECORD
  5
156
330
1
100
AcDbSymbolTableRecord
100
AcDbBlockTableRecord
  2
*D6
  0
BLOCK_RECORD
  5
164
330
1
100
AcDbSymbolTableRecord
100
AcDbBlockTableRecord
  2
*D7
  0
BLOCK_RECORD
  5
178
330
1
100
AcDbSymbolTableRecord
100
AcDbBlockTableRecord
  2
*D8
  0
BLOCK_RECORD
  5
189
330
1
100
AcDbSymbolTableRecord
100
AcDbBlockTableRecord
  2
*D9
  0
BLOCK_RECORD
  5
199
330
1
100
AcDbSymbolTableRecord
100
AcDbBlockTableRecord
  2
*D10
  0
BLOCK_RECORD
  5
1A9
330
1
100
AcDbSymbolTableRecord
100
AcDbBlockTableRecord
  2
*D11
  0
BLOCK_RECORD
  5
1BA
330
1
100
AcDbSymbolTableRecord
100
AcDbBlockTableRecord
  2
*D12
  0
BLOCK_RECORD
  5
1CD
330
1
100
AcDbSymbolTableRecord
100
AcDbBlockTableRecord
  2
*D13
  0
BLOCK_RECORD
  5
1E0
330
1
100
AcDbSymbolTableRecord
100
AcDbBlockTableRecord
  2
*D14
  0
BLOCK_RECORD
  5
1ED
330
1
100
AcDbSymbolTableRecord
100
AcDbBlockTableRecord
  2
*D15
  0
BLOCK_RECORD
  5
200
330
1
100
AcDbSymbolTableRecord
100
AcDbBlockTableRecord
  2
*D16
  0
BLOCK_RECORD
  5
214
330
1
100
AcDbSymbolTableRecord
100
AcDbBlockTableRecord
  2
*D17
  0
BLOCK_RECORD
  5
225
330
1
100
AcDbSymbolTableRecord
100
AcDbBlockTableRecord
  2
*D18
  0
BLOCK_RECORD
  5
236
330
1
100
AcDbSymbolTableRecord
100
AcDbBlockTableRecord
  2
*D19
  0
BLOCK_RECORD
  5
247
330
1
100
AcDbSymbolTableRecord
100
AcDbBlockTableRecord
  2
*D20
  0
BLOCK_RECORD
  5
258
330
1
100
AcDbSymbolTableRecord
100
AcDbBlockTableRecord
  2
*D21
  0
BLOCK_RECORD
  5
26C
330
1
100
AcDbSymbolTableRecord
100
AcDbBlockTableRecord
  2
*D22
  0
BLOCK_RECORD
  5
27D
330
1
100
AcDbSymbolTableRecord
100
AcDbBlockTableRecord
  2
*D23
  0
BLOCK_RECORD
  5
291
330
1
100
AcDbSymbolTableRecord
100
AcDbBlockTableRecord
  2
*D24
  0
BLOCK_RECORD
  5
2A2
330
1
100
AcDbSymbolTableRecord
100
AcDbBlockTableRecord
  2
*D25
  0
BLOCK_RECORD
  5
2B2
330
1
100
AcDbSymbolTableRecord
100
AcDbBlockTableRecord
  2
*D26
  0
BLOCK_RECORD
  5
2C2
330
1
100
AcDbSymbolTableRecord
100
AcDbBlockTableRecord
  2
*D27
  0
BLOCK_RECORD
  5
2D2
330
1
100
AcDbSymbolTableRecord
100
AcDbBlockTableRecord
  2
*D28
  0
BLOCK_RECORD
  5
2E2
330
1
100
AcDbSymbolTableRecord
100
AcDbBlockTableRecord
  2
*D29
  0
BLOCK_RECORD
  5
2F2
330
1
100
AcDbSymbolTableRecord
100
AcDbBlockTableRecord
  2
*D30
  0
BLOCK_RECORD
  5
302
330
1
100
AcDbSymbolTableRecord
100
AcDbBlockTableRecord
  2
*D31
  0
BLOCK_RECORD
  5
314
330
1
100
AcDbSymbolTableRecord
100
AcDbBlockTableRecord
  2
*D32
  0
ENDTAB
  0
ENDSEC
  0
SECTION
  2
BLOCKS
  0
BLOCK
  5
20
330
1F
100
AcDbEntity
  8
0
100
AcDbBlockBegin
  2
*MODEL_SPACE
 70
     0
 10
0.0
 20
0.0
 30
0.0
  3
*MODEL_SPACE
  1

  0
ENDBLK
  5
21
330
1F
100
AcDbEntity
  8
0
100
AcDbBlockEnd
  0
BLOCK
  5
1C
330
1B
100
AcDbEntity
 67
     1
  8
0
100
AcDbBlockBegin
  2
*PAPER_SPACE
 70
     0
 10
0.0
 20
0.0
 30
0.0
  3
*PAPER_SPACE
  1

  0
ENDBLK
  5
1D
330
1B
100
AcDbEntity
 67
     1
  8
0
100
AcDbBlockEnd
  0
BLOCK
  5
FF
330
FE
100
AcDbEntity
  8
0
100
AcDbBlockBegin
  2
*D1
 70
     1
 10
0.0
 20
0.0
 30
0.0
  3
*D1
  1
*D1
  0
LINE
  5
100
330
FE
100
AcDbEntity
  8
ANNOTATION_TEXT
 62
     7
100
AcDbLine
 10
169.0869242451974
 20
107.7018923924992
 30
0.0
 11
169.0869242451974
 21
84.3659147929171
 31
0.0
  0
LINE
  5
101
330
FE
100
AcDbEntity
  8
ANNOTATION_TEXT
 62
     7
100
AcDbLine
 10
178.6847714833804
 20
107.7018923924992
 30
0.0
 11
178.6847714833804
 21
84.3659147929171
 31
0.0
  0
LINE
  5
102
330
FE
100
AcDbEntity
  8
ANNOTATION_TEXT
 62
     7
100
AcDbLine
 10
171.5869242451974
 20
85.6159147929171
 30
0.0
 11
176.1847714833804
 21
85.6159147929171
 31
0.0
  0
SOLID
  5
103
330
FE
100
AcDbEntity
  8
ANNOTATION_TEXT
 62
     7
100
AcDbTrace
 10
171.5869242451974
 20
86.03258145958377
 30
0.0
 11
171.5869242451974
 21
85.19924812625042
 31
0.0
 12
169.0869242451974
 22
85.6159147929171
 32
0.0
 13
169.0869242451974
 23
85.6159147929171
 33
0.0
  0
SOLID
  5
104
330
FE
100
AcDbEntity
  8
ANNOTATION_TEXT
 62
     7
100
AcDbTrace
 10
176.1847714833804
 20
85.19924812625042
 30
0.0
 11
176.1847714833804
 21
86.03258145958377
 31
0.0
 12
178.6847714833804
 22
85.6159147929171
 32
0.0
 13
178.6847714833804
 23
85.6159147929171
 33
0.0
  0
MTEXT
  5
105
330
FE
100
AcDbEntity
  8
ANNOTATION_TEXT
 62
     7
100
AcDbMText
 10
175.6144251755726
 20
88.32351016076451
 30
0.0
 40
3.5
 41
0.0
 71
     5
 72
     1
  1
9,6
  7
ONSHAPE-STANDARD-DIMENSION
  0
POINT
  5
106
330
FE
100
AcDbEntity
  8
DEFPOINTS
 62
     0
100
AcDbPoint
 10
169.0869242451974
 20
108.3268923924992
 30
0.0
  0
POINT
  5
107
330
FE
100
AcDbEntity
  8
DEFPOINTS
 62
     0
100
AcDbPoint
 10
178.6847714833804
 20
108.3268923924992
 30
0.0
  0
POINT
  5
108
330
FE
100
AcDbEntity
  8
DEFPOINTS
 62
     0
100
AcDbPoint
 10
178.6847714833804
 20
85.6159147929171
 30
0.0
  0
ENDBLK
  5
109
330
FE
100
AcDbEntity
  8
0
100
AcDbBlockEnd
  0
BLOCK
  5
113
330
112
100
AcDbEntity
  8
0
100
AcDbBlockBegin
  2
*D2
 70
     1
 10
0.0
 20
0.0
 30
0.0
  3
*D2
  1
*D2
  0
LINE
  5
114
330
112
100
AcDbEntity
  8
ANNOTATION_TEXT
 62
     7
100
AcDbLine
 10
159.7128756843397
 20
128.289334835274
 30
0.0
 11
159.7128756843397
 21
69.79329077317955
 31
0.0
  0
LINE
  5
115
330
112
100
AcDbEntity
  8
ANNOTATION_TEXT
 62
     7
100
AcDbLine
 10
184.1672067098209
 20
128.289334835274
 30
0.0
 11
184.1672067098209
 21
69.79329077317955
 31
0.0
  0
LINE
  5
116
330
112
100
AcDbEntity
  8
ANNOTATION_TEXT
 62
     7
100
AcDbLine
 10
162.2128756843397
 20
71.04329077317955
 30
0.0
 11
181.6672067098209
 21
71.04329077317955
 31
0.0
  0
SOLID
  5
117
330
112
100
AcDbEntity
  8
ANNOTATION_TEXT
 62
     7
100
AcDbTrace
 10
162.2128756843397
 20
71.45995743984622
 30
0.0
 11
162.2128756843397
 21
70.62662410651288
 31
0.0
 12
159.7128756843397
 22
71.04329077317955
 32
0.0
 13
159.7128756843397
 23
71.04329077317955
 33
0.0
  0
SOLID
  5
118
330
112
100
AcDbEntity
  8
ANNOTATION_TEXT
 62
     7
100
AcDbTrace
 10
181.6672067098209
 20
70.62662410651288
 30
0.0
 11
181.6672067098209
 21
71.45995743984622
 31
0.0
 12
184.1672067098209
 22
71.04329077317955
 32
0.0
 13
184.1672067098209
 23
71.04329077317955
 33
0.0
  0
MTEXT
  5
119
330
112
100
AcDbEntity
  8
ANNOTATION_TEXT
 62
     7
100
AcDbMText
 10
171.9400411970803
 20
73.75088614102697
 30
0.0
 40
3.5
 41
0.0
 71
     5
 72
     1
  1
24,45
  7
ONSHAPE-STANDARD-DIMENSION
  0
POINT
  5
11A
330
112
100
AcDbEntity
  8
DEFPOINTS
 62
     0
100
AcDbPoint
 10
159.7128756843397
 20
128.914334835274
 30
0.0
  0
POINT
  5
11B
330
112
100
AcDbEntity
  8
DEFPOINTS
 62
     0
100
AcDbPoint
 10
184.1672067098209
 20
128.914334835274
 30
0.0
  0
POINT
  5
11C
330
112
100
AcDbEntity
  8
DEFPOINTS
 62
     0
100
AcDbPoint
 10
184.1672067098209
 20
71.04329077317955
 30
0.0
  0
ENDBLK
  5
11D
330
112
100
AcDbEntity
  8
0
100
AcDbBlockEnd
  0
BLOCK
  5
124
330
123
100
AcDbEntity
  8
0
100
AcDbBlockBegin
  2
*D3
 70
     1
 10
0.0
 20
0.0
 30
0.0
  3
*D3
  1
*D3
  0
LINE
  5
125
330
123
100
AcDbEntity
  8
ANNOTATION_TEXT
 62
     7
100
AcDbLine
 10
147.4249539464602
 20
127.5628035755584
 30
0.0
 11
147.4249539464602
 21
84.3659147929171
 31
0.0
  0
LINE
  5
126
330
123
100
AcDbEntity
  8
ANNOTATION_TEXT
 62
     7
100
AcDbLine
 10
155.3945098571369
 20
127.5628035755584
 30
0.0
 11
155.3945098571369
 21
84.3659147929171
 31
0.0
  0
LINE
  5
127
330
123
100
AcDbEntity
  8
ANNOTATION_TEXT
 62
     7
100
AcDbLine
 10
149.9249539464602
 20
85.6159147929171
 30
0.0
 11
152.8945098571369
 21
85.6159147929171
 31
0.0
  0
SOLID
  5
128
330
123
100
AcDbEntity
  8
ANNOTATION_TEXT
 62
     7
100
AcDbTrace
 10
149.9249539464602
 20
86.03258145958377
 30
0.0
 11
149.9249539464602
 21
85.19924812625042
 31
0.0
 12
147.4249539464602
 22
85.6159147929171
 32
0.0
 13
147.4249539464602
 23
85.6159147929171
 33
0.0
  0
SOLID
  5
129
330
123
100
AcDbEntity
  8
ANNOTATION_TEXT
 62
     7
100
AcDbTrace
 10
152.8945098571369
 20
85.19924812625042
 30
0.0
 11
152.8945098571369
 21
86.03258145958377
 31
0.0
 12
155.3945098571369
 22
85.6159147929171
 32
0.0
 13
155.3945098571369
 23
85.6159147929171
 33
0.0
  0
MTEXT
  5
12A
330
123
100
AcDbEntity
  8
ANNOTATION_TEXT
 62
     7
100
AcDbMText
 10
151.7815772760476
 20
88.32351016076451
 30
0.0
 40
3.5
 41
0.0
 71
     5
 72
     1
  1
7,97
  7
ONSHAPE-STANDARD-DIMENSION
  0
POINT
  5
12B
330
123
100
AcDbEntity
  8
DEFPOINTS
 62
     0
100
AcDbPoint
 10
147.4249539464602
 20
128.1878035755584
 30
0.0
  0
POINT
  5
12C
330
123
100
AcDbEntity
  8
DEFPOINTS
 62
     0
100
AcDbPoint
 10
155.3945098571369
 20
128.1878035755584
 30
0.0
  0
POINT
  5
12D
330
123
100
AcDbEntity
  8
DEFPOINTS
 62
     0
100
AcDbPoint
 10
155.3945098571369
 20
85.6159147929171
 30
0.0
  0
ENDBLK
  5
12E
330
123
100
AcDbEntity
  8
0
100
AcDbBlockEnd
  0
BLOCK
  5
135
330
134
100
AcDbEntity
  8
0
100
AcDbBlockBegin
  2
*D4
 70
     1
 10
0.0
 20
0.0
 30
0.0
  3
*D4
  1
*D4
  0
LINE
  5
136
330
134
100
AcDbEntity
  8
ANNOTATION_TEXT
 62
     7
100
AcDbLine
 10
197.4102111755725
 20
103.303820409095
 30
0.0
 11
197.4102111755725
 21
64.56939131813385
 31
0.0
  0
LINE
  5
137
330
134
100
AcDbEntity
  8
ANNOTATION_TEXT
 62
     7
100
AcDbLine
 10
111.6102111755725
 20
103.303820409095
 30
0.0
 11
111.6102111755725
 21
64.56939131813385
 31
0.0
  0
LINE
  5
138
330
134
100
AcDbEntity
  8
ANNOTATION_TEXT
 62
     7
100
AcDbLine
 10
194.9102111755725
 20
65.81939131813385
 30
0.0
 11
114.1102111755725
 21
65.81939131813385
 31
0.0
  0
SOLID
  5
139
330
134
100
AcDbEntity
  8
ANNOTATION_TEXT
 62
     7
100
AcDbTrace
 10
194.9102111755725
 20
65.40272465146718
 30
0.0
 11
194.9102111755725
 21
66.23605798480052
 31
0.0
 12
197.4102111755725
 22
65.81939131813385
 32
0.0
 13
197.4102111755725
 23
65.81939131813385
 33
0.0
  0
SOLID
  5
13A
330
134
100
AcDbEntity
  8
ANNOTATION_TEXT
 62
     7
100
AcDbTrace
 10
114.1102111755725
 20
66.23605798480052
 30
0.0
 11
114.1102111755725
 21
65.40272465146718
 31
0.0
 12
111.6102111755725
 22
65.81939131813385
 32
0.0
 13
111.6102111755725
 23
65.81939131813385
 33
0.0
  0
MTEXT
  5
13B
330
134
100
AcDbEntity
  8
ANNOTATION_TEXT
 62
     7
100
AcDbMText
 10
154.5102111755725
 20
68.52698668598127
 30
0.0
 40
3.5
 41
0.0
 71
     5
 72
     1
  1
85,8
  7
ONSHAPE-STANDARD-DIMENSION
  0
POINT
  5
13C
330
134
100
AcDbEntity
  8
DEFPOINTS
 62
     0
100
AcDbPoint
 10
197.4102111755725
 20
103.928820409095
 30
0.0
  0
POINT
  5
13D
330
134
100
AcDbEntity
  8
DEFPOINTS
 62
     0
100
AcDbPoint
 10
111.6102111755725
 20
103.928820409095
 30
0.0
  0
POINT
  5
13E
330
134
100
AcDbEntity
  8
DEFPOINTS
 62
     0
100
AcDbPoint
 10
111.6102111755725
 20
65.81939131813385
 30
0.0
  0
ENDBLK
  5
13F
330
134
100
AcDbEntity
  8
0
100
AcDbBlockEnd
  0
BLOCK
  5
146
330
145
100
AcDbEntity
  8
0
100
AcDbBlockBegin
  2
*D5
 70
     1
 10
0.0
 20
0.0
 30
0.0
  3
*D5
  1
*D5
  0
LINE
  5
147
330
145
100
AcDbEntity
  8
ANNOTATION_TEXT
 62
     7
100
AcDbLine
 10
197.1682848194542
 20
105.9058018547158
 30
0.0
 11
213.6851257742081
 21
120.054597348328
 31
0.0
  0
LINE
  5
148
330
145
100
AcDbEntity
  8
ANNOTATION_TEXT
 62
     7
100
AcDbLine
 10
191.8521375316908
 20
101.3518389634743
 30
0.0
 11
189.9535135003467
 21
99.72542364517373
 31
0.0
  0
MTEXT
  5
149
330
145
100
AcDbEntity
  8
ANNOTATION_TEXT
 62
     7
100
AcDbMText
 10
206.9520590969318
 20
122.2262625194739
 30
0.0
 40
3.5
 41
0.0
 71
     5
 72
     1
  1
8X\P%%c2
  7
ONSHAPE-STANDARD-DIMENSION
 11
0.7594496125376431
 21
0.6505661273202162
 31
0.0
  0
LINE
  5
14A
330
145
100
AcDbEntity
  8
ANNOTATION_TEXT
 62
     7
100
AcDbLine
 10
193.7507615630349
 20
102.9782542817748
 30
0.0
 11
195.2696607881101
 21
104.2793865364152
 31
0.0
  0
SOLID
  5
14B
330
145
100
AcDbEntity
  8
ANNOTATION_TEXT
 62
     7
100
AcDbTrace
 10
192.1232067514075
 20
101.0354016249169
 30
0.0
 11
191.581068311974
 21
101.6682763020316
 31
0.0
 12
193.7507615630349
 22
102.9782542817748
 32
0.0
 13
193.7507615630349
 23
102.9782542817748
 33
0.0
  0
SOLID
  5
14C
330
145
100
AcDbEntity
  8
ANNOTATION_TEXT
 62
     7
100
AcDbTrace
 10
196.8972155997375
 20
106.2222391932731
 30
0.0
 11
197.439354039171
 21
105.5893645161584
 31
0.0
 12
195.2696607881101
 22
104.2793865364152
 32
0.0
 13
195.2696607881101
 23
104.2793865364152
 33
0.0
  0
POINT
  5
14D
330
145
100
AcDbEntity
  8
DEFPOINTS
 62
     0
100
AcDbPoint
 10
195.2696607881101
 20
104.2793865364152
 30
0.0
  0
POINT
  5
14E
330
145
100
AcDbEntity
  8
DEFPOINTS
 62
     0
100
AcDbPoint
 10
193.7507615630349
 20
102.9782542817748
 30
0.0
  0
ENDBLK
  5
14F
330
145
100
AcDbEntity
  8
0
100
AcDbBlockEnd
  0
BLOCK
  5
157
330
156
100
AcDbEntity
  8
0
100
AcDbBlockBegin
  2
*D6
 70
     1
 10
0.0
 20
0.0
 30
0.0
  3
*D6
  1
*D6
  0
LINE
  5
158
330
156
100
AcDbEntity
  8
ANNOTATION_TEXT
 62
     7
100
AcDbLine
 10
199.90656767057
 20
104.1098681097003
 30
0.0
 11
215.839485721292
 21
104.7514138101414
 31
0.0
  0
MTEXT
  5
159
330
156
100
AcDbEntity
  8
ANNOTATION_TEXT
 62
     7
100
AcDbMText
 10
212.3206052337938
 20
109.9414711482337
 30
0.0
 40
3.5
 41
0.0
 71
     5
 72
     1
  1
6X\PR2
  7
ONSHAPE-STANDARD-DIMENSION
 11
0.99919033222165
 21
0.04023282235673485
 31
0.0
  0
SOLID
  5
15A
330
156
100
AcDbEntity
  8
ANNOTATION_TEXT
 62
     7
100
AcDbTrace
 10
199.889803994588
 20
104.5261974147927
 30
0.0
 11
199.9233313465519
 21
103.693538804608
 31
0.0
 12
197.4085918400158
 22
104.0092860538085
 32
0.0
 13
197.4085918400158
 23
104.0092860538085
 33
0.0
  0
ARC
  5
15B
330
156
100
AcDbEntity
  8
ANNOTATION_TEXT
 62
     7
100
AcDbCircle
 10
195.4102111755725
 20
103.928820409095
 30
0.0
 40
2.000000000000017
100
AcDbArc
 50
0.0
 51
17.34894138135757
  0
POINT
  5
15C
330
156
100
AcDbEntity
  8
DEFPOINTS
 62
     0
100
AcDbPoint
 10
197.4085918400158
 20
104.0092860538085
 30
0.0
  0
POINT
  5
15D
330
156
100
AcDbEntity
  8
DEFPOINTS
 62
     0
100
AcDbPoint
 10
195.4102111755725
 20
103.928820409095
 30
0.0
  0
ENDBLK
  5
15E
330
156
100
AcDbEntity
  8
0
100
AcDbBlockEnd
  0
BLOCK
  5
165
330
164
100
AcDbEntity
  8
0
100
AcDbBlockBegin
  2
*D7
 70
     1
 10
0.0
 20
0.0
 30
0.0
  3
*D7
  1
*D7
  0
LINE
  5
166
330
164
100
AcDbEntity
  8
ANNOTATION_TEXT
 62
     7
100
AcDbLine
 10
146.7999539464602
 20
128.1878035755584
 30
0.0
 11
103.7825296025527
 21
128.1878035755584
 31
0.0
  0
LINE
  5
167
330
164
100
AcDbEntity
  8
ANNOTATION_TEXT
 62
     7
100
AcDbLine
 10
146.7999539464602
 20
131.5678879858682
 30
0.0
 11
103.7825296025527
 21
131.5678879858682
 31
0.0
  0
LINE
  5
168
330
164
100
AcDbEntity
  8
ANNOTATION_TEXT
 62
     7
100
AcDbLine
 10
105.0325296025527
 20
131.5678879858682
 30
0.0
 11
105.0325296025527
 21
149.5027510180724
 31
0.0
  0
LINE
  5
169
330
164
100
AcDbEntity
  8
ANNOTATION_TEXT
 62
     7
100
AcDbLine
 10
105.0325296025527
 20
128.1878035755584
 30
0.0
 11
105.0325296025527
 21
131.5678879858682
 31
0.0
  0
LINE
  5
16A
330
164
100
AcDbEntity
  8
ANNOTATION_TEXT
 62
     7
100
AcDbLine
 10
105.0325296025527
 20
125.6878035755584
 30
0.0
 11
105.0325296025527
 21
123.1878035755584
 31
0.0
  0
LINE
  5
16B
330
164
100
AcDbEntity
  8
ANNOTATION_TEXT
 62
     7
100
AcDbLine
 10
105.0325296025527
 20
134.0678879858682
 30
0.0
 11
105.0325296025527
 21
136.5678879858682
 31
0.0
  0
SOLID
  5
16C
330
164
100
AcDbEntity
  8
ANNOTATION_TEXT
 62
     7
100
AcDbTrace
 10
105.4491962692194
 20
125.6878035755584
 30
0.0
 11
104.615862935886
 21
125.6878035755584
 31
0.0
 12
105.0325296025527
 22
128.1878035755584
 32
0.0
 13
105.0325296025527
 23
128.1878035755584
 33
0.0
  0
SOLID
  5
16D
330
164
100
AcDbEntity
  8
ANNOTATION_TEXT
 62
     7
100
AcDbTrace
 10
104.615862935886
 20
134.0678879858682
 30
0.0
 11
105.4491962692194
 21
134.0678879858682
 31
0.0
 12
105.0325296025527
 22
131.5678879858682
 32
0.0
 13
105.0325296025527
 23
131.5678879858682
 33
0.0
  0
MTEXT
  5
16E
330
164
100
AcDbEntity
  8
ANNOTATION_TEXT
 62
     7
100
AcDbMText
 10
102.3249342347053
 20
144.2667155957291
 30
0.0
 40
3.5
 41
0.0
 71
     5
 72
     1
  1
3,38
  7
ONSHAPE-STANDARD-DIMENSION
 11
0.0
 21
1.0
 31
0.0
  0
POINT
  5
16F
330
164
100
AcDbEntity
  8
DEFPOINTS
 62
     0
100
AcDbPoint
 10
147.4249539464602
 20
128.1878035755584
 30
0.0
  0
POINT
  5
170
330
164
100
AcDbEntity
  8
DEFPOINTS
 62
     0
100
AcDbPoint
 10
147.4249539464602
 20
131.5678879858682
 30
0.0
  0
POINT
  5
171
330
164
100
AcDbEntity
  8
DEFPOINTS
 62
     0
100
AcDbPoint
 10
105.0325296025527
 20
131.5678879858682
 30
0.0
  0
ENDBLK
  5
172
330
164
100
AcDbEntity
  8
0
100
AcDbBlockEnd
  0
BLOCK
  5
179
330
178
100
AcDbEntity
  8
0
100
AcDbBlockBegin
  2
*D8
 70
     1
 10
0.0
 20
0.0
 30
0.0
  3
*D8
  1
*D8
  0
LINE
  5
17A
330
178
100
AcDbEntity
  8
ANNOTATION_TEXT
 62
     7
100
AcDbLine
 10
112.9852111755725
 20
137.299070409095
 30
0.0
 11
71.92085101505977
 21
137.299070409095
 31
0.0
  0
LINE
  5
17B
330
178
100
AcDbEntity
  8
ANNOTATION_TEXT
 62
     7
100
AcDbLine
 10
112.9852111755725
 20
101.928820409095
 30
0.0
 11
71.92085101505977
 21
101.928820409095
 31
0.0
  0
LINE
  5
17C
330
178
100
AcDbEntity
  8
ANNOTATION_TEXT
 62
     7
100
AcDbLine
 10
73.17085101505977
 20
134.799070409095
 30
0.0
 11
73.17085101505977
 21
104.428820409095
 31
0.0
  0
SOLID
  5
17D
330
178
100
AcDbEntity
  8
ANNOTATION_TEXT
 62
     7
100
AcDbTrace
 10
73.58751768172644
 20
134.799070409095
 30
0.0
 11
72.7541843483931
 21
134.799070409095
 31
0.0
 12
73.17085101505977
 22
137.299070409095
 32
0.0
 13
73.17085101505977
 23
137.299070409095
 33
0.0
  0
SOLID
  5
17E
330
178
100
AcDbEntity
  8
ANNOTATION_TEXT
 62
     7
100
AcDbTrace
 10
72.7541843483931
 20
104.428820409095
 30
0.0
 11
73.58751768172644
 21
104.428820409095
 31
0.0
 12
73.17085101505977
 22
101.928820409095
 32
0.0
 13
73.17085101505977
 23
101.928820409095
 33
0.0
  0
MTEXT
  5
17F
330
178
100
AcDbEntity
  8
ANNOTATION_TEXT
 62
     7
100
AcDbMText
 10
70.46325564721235
 20
118.775855050218
 30
0.0
 40
3.5
 41
0.0
 71
     5
 72
     1
  1
35,37
  7
ONSHAPE-STANDARD-DIMENSION
 11
0.0
 21
1.0
 31
0.0
  0
POINT
  5
180
330
178
100
AcDbEntity
  8
DEFPOINTS
 62
     0
100
AcDbPoint
 10
113.6102111755725
 20
137.299070409095
 30
0.0
  0
POINT
  5
181
330
178
100
AcDbEntity
  8
DEFPOINTS
 62
     0
100
AcDbPoint
 10
113.6102111755725
 20
101.928820409095
 30
0.0
  0
POINT
  5
182
330
178
100
AcDbEntity
  8
DEFPOINTS
 62
     0
100
AcDbPoint
 10
73.17085101505977
 20
101.928820409095
 30
0.0
  0
ENDBLK
  5
183
330
178
100
AcDbEntity
  8
0
100
AcDbBlockEnd
  0
BLOCK
  5
18A
330
189
100
AcDbEntity
  8
0
100
AcDbBlockBegin
  2
*D9
 70
     1
 10
0.0
 20
0.0
 30
0.0
  3
*D9
  1
*D9
  0
LINE
  5
18B
330
189
100
AcDbEntity
  8
ANNOTATION_TEXT
 62
     7
100
AcDbLine
 10
187.6839011755725
 20
149.6259505832714
 30
0.0
 11
187.6839011755725
 21
165.2521182602543
 31
0.0
  0
LINE
  5
18C
330
189
100
AcDbEntity
  8
ANNOTATION_TEXT
 62
     7
100
AcDbLine
 10
121.3365211755725
 20
149.6259505832714
 30
0.0
 11
121.3365211755725
 21
165.2521182602543
 31
0.0
  0
LINE
  5
18D
330
189
100
AcDbEntity
  8
ANNOTATION_TEXT
 62
     7
100
AcDbLine
 10
185.1839011755725
 20
164.0021182602543
 30
0.0
 11
123.8365211755725
 21
164.0021182602543
 31
0.0
  0
SOLID
  5
18E
330
189
100
AcDbEntity
  8
ANNOTATION_TEXT
 62
     7
100
AcDbTrace
 10
185.1839011755725
 20
163.5854515935876
 30
0.0
 11
185.1839011755725
 21
164.4187849269209
 31
0.0
 12
187.6839011755725
 22
164.0021182602543
 32
0.0
 13
187.6839011755725
 23
164.0021182602543
 33
0.0
  0
SOLID
  5
18F
330
189
100
AcDbEntity
  8
ANNOTATION_TEXT
 62
     7
100
AcDbTrace
 10
123.8365211755725
 20
164.4187849269209
 30
0.0
 11
123.8365211755725
 21
163.5854515935876
 31
0.0
 12
121.3365211755725
 22
164.0021182602543
 32
0.0
 13
121.3365211755725
 23
164.0021182602543
 33
0.0
  0
MTEXT
  5
190
330
189
100
AcDbEntity
  8
ANNOTATION_TEXT
 62
     7
100
AcDbMText
 10
154.5102111755725
 20
166.7097136281017
 30
0.0
 40
3.5
 41
0.0
 71
     5
 72
     1
  1
66,35
  7
ONSHAPE-STANDARD-DIMENSION
  0
POINT
  5
191
330
189
100
AcDbEntity
  8
DEFPOINTS
 62
     0
100
AcDbPoint
 10
187.6839011755725
 20
149.0009505832714
 30
0.0
  0
POINT
  5
192
330
189
100
AcDbEntity
  8
DEFPOINTS
 62
     0
100
AcDbPoint
 10
121.3365211755725
 20
149.0009505832714
 30
0.0
  0
POINT
  5
193
330
189
100
AcDbEntity
  8
DEFPOINTS
 62
     0
100
AcDbPoint
 10
121.3365211755725
 20
164.0021182602543
 30
0.0
  0
ENDBLK
  5
194
330
189
100
AcDbEntity
  8
0
100
AcDbBlockEnd
  0
BLOCK
  5
19A
330
199
100
AcDbEntity
  8
0
100
AcDbBlockBegin
  2
*D10
 70
     1
 10
0.0
 20
0.0
 30
0.0
  3
*D10
  1
*D10
  0
LINE
  5
19B
330
199
100
AcDbEntity
  8
ANNOTATION_TEXT
 62
     7
100
AcDbLine
 10
129.1640388860051
 20
145.5501710749968
 30
0.0
 11
96.20485374325159
 21
163.4146640043975
 31
0.0
  0
LINE
  5
19C
330
199
100
AcDbEntity
  8
ANNOTATION_TEXT
 62
     7
100
AcDbLine
 10
137.64795546514
 20
140.9517300915459
 30
0.0
 11
139.8458613146568
 21
139.760424137284
 31
0.0
  0
MTEXT
  5
19D
330
199
100
AcDbEntity
  8
ANNOTATION_TEXT
 62
     7
100
AcDbMText
 10
105.3435617848033
 20
165.3020050721559
 30
0.0
 40
3.5
 41
0.0
 71
     5
 72
     1
  1
4x\P%%c4,65
  7
ONSHAPE-STANDARD-DIMENSION
 11
0.8791623398067239
 21
-0.4765223817047493
 31
0.0
  0
LINE
  5
19E
330
199
100
AcDbEntity
  8
ANNOTATION_TEXT
 62
     7
100
AcDbLine
 10
135.4500496156232
 20
142.1430360458078
 30
0.0
 11
131.3619447355219
 21
144.3588651207349
 31
0.0
  0
SOLID
  5
19F
330
199
100
AcDbEntity
  8
ANNOTATION_TEXT
 62
     7
100
AcDbTrace
 10
137.8465064575169
 20
141.3180477331321
 30
0.0
 11
137.449404472763
 21
140.5854124499598
 31
0.0
 12
135.4500496156232
 22
142.1430360458078
 32
0.0
 13
135.4500496156232
 23
142.1430360458078
 33
0.0
  0
SOLID
  5
1A0
330
199
100
AcDbEntity
  8
ANNOTATION_TEXT
 62
     7
100
AcDbTrace
 10
128.9654878936281
 20
145.1838534334106
 30
0.0
 11
129.362589878382
 21
145.9164887165829
 31
0.0
 12
131.3619447355219
 22
144.3588651207349
 32
0.0
 13
131.3619447355219
 23
144.3588651207349
 33
0.0
  0
POINT
  5
1A1
330
199
100
AcDbEntity
  8
DEFPOINTS
 62
     0
100
AcDbPoint
 10
131.3619447355219
 20
144.3588651207349
 30
0.0
  0
POINT
  5
1A2
330
199
100
AcDbEntity
  8
DEFPOINTS
 62
     0
100
AcDbPoint
 10
135.4500496156232
 20
142.1430360458078
 30
0.0
  0
ENDBLK
  5
1A3
330
199
100
AcDbEntity
  8
0
100
AcDbBlockEnd
  0
BLOCK
  5
1AA
330
1A9
100
AcDbEntity
  8
0
100
AcDbBlockBegin
  2
*D11
 70
     1
 10
0.0
 20
0.0
 30
0.0
  3
*D11
  1
*D11
  0
LINE
  5
1AB
330
1A9
100
AcDbEntity
  8
ANNOTATION_TEXT
 62
     7
100
AcDbLine
 10
188.3089011755725
 20
149.0009505832714
 30
0.0
 11
237.2422800542404
 21
149.0009505832714
 31
0.0
  0
LINE
  5
1AC
330
1A9
100
AcDbEntity
  8
ANNOTATION_TEXT
 62
     7
100
AcDbLine
 10
190.3089011755725
 20
137.4000104961832
 30
0.0
 11
237.2422800542404
 21
137.4000104961832
 31
0.0
  0
LINE
  5
1AD
330
1A9
100
AcDbEntity
  8
ANNOTATION_TEXT
 62
     7
100
AcDbLine
 10
235.9922800542404
 20
146.5009505832714
 30
0.0
 11
235.9922800542404
 21
139.9000104961832
 31
0.0
  0
SOLID
  5
1AE
330
1A9
100
AcDbEntity
  8
ANNOTATION_TEXT
 62
     7
100
AcDbTrace
 10
236.408946720907
 20
146.5009505832714
 30
0.0
 11
235.5756133875737
 21
146.5009505832714
 31
0.0
 12
235.9922800542404
 22
149.0009505832714
 32
0.0
 13
235.9922800542404
 23
149.0009505832714
 33
0.0
  0
SOLID
  5
1AF
330
1A9
100
AcDbEntity
  8
ANNOTATION_TEXT
 62
     7
100
AcDbTrace
 10
235.5756133875737
 20
139.9000104961832
 30
0.0
 11
236.408946720907
 21
139.9000104961832
 31
0.0
 12
235.9922800542404
 22
137.4000104961832
 32
0.0
 13
235.9922800542404
 23
137.4000104961832
 33
0.0
  0
MTEXT
  5
1B0
330
1A9
100
AcDbEntity
  8
ANNOTATION_TEXT
 62
     7
100
AcDbMText
 10
233.2846846863929
 20
143.2004805397272
 30
0.0
 40
3.5
 41
0.0
 71
     5
 72
     1
  1
11,6
  7
ONSHAPE-STANDARD-DIMENSION
 11
0.0
 21
1.0
 31
0.0
  0
POINT
  5
1B1
330
1A9
100
AcDbEntity
  8
DEFPOINTS
 62
     0
100
AcDbPoint
 10
187.6839011755725
 20
149.0009505832714
 30
0.0
  0
POINT
  5
1B2
330
1A9
100
AcDbEntity
  8
DEFPOINTS
 62
     0
100
AcDbPoint
 10
189.6839011755725
 20
137.4000104961832
 30
0.0
  0
POINT
  5
1B3
330
1A9
100
AcDbEntity
  8
DEFPOINTS
 62
     0
100
AcDbPoint
 10
235.9922800542404
 20
137.4000104961832
 30
0.0
  0
ENDBLK
  5
1B4
330
1A9
100
AcDbEntity
  8
0
100
AcDbBlockEnd
  0
BLOCK
  5
1BB
330
1BA
100
AcDbEntity
  8
0
100
AcDbBlockBegin
  2
*D12
 70
     1
 10
0.0
 20
0.0
 30
0.0
  3
*D12
  1
*D12
  0
LINE
  5
1BC
330
1BA
100
AcDbEntity
  8
ANNOTATION_TEXT
 62
     7
100
AcDbLine
 10
168.4619242451974
 20
112.8413779901097
 30
0.0
 11
101.2277189596825
 21
112.8413779901097
 31
0.0
  0
LINE
  5
1BD
330
1BA
100
AcDbEntity
  8
ANNOTATION_TEXT
 62
     7
100
AcDbLine
 10
168.4619242451974
 20
108.3268923924992
 30
0.0
 11
101.2277189596825
 21
108.3268923924992
 31
0.0
  0
LINE
  5
1BE
330
1BA
100
AcDbEntity
  8
ANNOTATION_TEXT
 62
     7
100
AcDbLine
 10
102.4777189596825
 20
112.8413779901097
 30
0.0
 11
102.4777189596825
 21
108.3268923924992
 31
0.0
  0
LINE
  5
1BF
330
1BA
100
AcDbEntity
  8
ANNOTATION_TEXT
 62
     7
100
AcDbLine
 10
102.4777189596825
 20
115.3413779901097
 30
0.0
 11
102.4777189596825
 21
117.8413779901097
 31
0.0
  0
LINE
  5
1C0
330
1BA
100
AcDbEntity
  8
ANNOTATION_TEXT
 62
     7
100
AcDbLine
 10
102.4777189596825
 20
105.8268923924992
 30
0.0
 11
102.4777189596825
 21
103.3268923924992
 31
0.0
  0
SOLID
  5
1C1
330
1BA
100
AcDbEntity
  8
ANNOTATION_TEXT
 62
     7
100
AcDbTrace
 10
102.0610522930158
 20
115.3413779901097
 30
0.0
 11
102.8943856263492
 21
115.3413779901097
 31
0.0
 12
102.4777189596825
 22
112.8413779901097
 32
0.0
 13
102.4777189596825
 23
112.8413779901097
 33
0.0
  0
SOLID
  5
1C2
330
1BA
100
AcDbEntity
  8
ANNOTATION_TEXT
 62
     7
100
AcDbTrace
 10
102.8943856263492
 20
105.8268923924992
 30
0.0
 11
102.0610522930158
 21
105.8268923924992
 31
0.0
 12
102.4777189596825
 22
108.3268923924992
 32
0.0
 13
102.4777189596825
 23
108.3268923924992
 33
0.0
  0
MTEXT
  5
1C3
330
1BA
100
AcDbEntity
  8
ANNOTATION_TEXT
 62
     7
100
AcDbMText
 10
99.78562086703946
 20
110.8116130609345
 30
0.0
 40
3.5
 41
0.0
 71
     5
 72
     1
  1
4,51
  7
ONSHAPE-STANDARD-DIMENSION
 11
0.0
 21
1.0
 31
0.0
  0
POINT
  5
1C4
330
1BA
100
AcDbEntity
  8
DEFPOINTS
 62
     0
100
AcDbPoint
 10
169.0869242451974
 20
112.8413779901097
 30
0.0
  0
POINT
  5
1C5
330
1BA
100
AcDbEntity
  8
DEFPOINTS
 62
     0
100
AcDbPoint
 10
169.0869242451974
 20
108.3268923924992
 30
0.0
  0
POINT
  5
1C6
330
1BA
100
AcDbEntity
  8
DEFPOINTS
 62
     0
100
AcDbPoint
 10
102.4777189596825
 20
108.3268923924992
 30
0.0
  0
ENDBLK
  5
1C7
330
1BA
100
AcDbEntity
  8
0
100
AcDbBlockEnd
  0
BLOCK
  5
1CE
330
1CD
100
AcDbEntity
  8
0
100
AcDbBlockBegin
  2
*D13
 70
     1
 10
0.0
 20
0.0
 30
0.0
  3
*D13
  1
*D13
  0
LINE
  5
1CF
330
1CD
100
AcDbEntity
  8
ANNOTATION_TEXT
 62
     7
100
AcDbLine
 10
191.9026511755725
 20
133.299070409095
 30
0.0
 11
219.1593087237832
 21
133.299070409095
 31
0.0
  0
LINE
  5
1D0
330
1CD
100
AcDbEntity
  8
ANNOTATION_TEXT
 62
     7
100
AcDbLine
 10
191.9026511755725
 20
137.299070409095
 30
0.0
 11
219.1593087237832
 21
137.299070409095
 31
0.0
  0
LINE
  5
1D1
330
1CD
100
AcDbEntity
  8
ANNOTATION_TEXT
 62
     7
100
AcDbLine
 10
217.9093087237832
 20
133.299070409095
 30
0.0
 11
217.9093087237832
 21
124.457449155689
 31
0.0
  0
LINE
  5
1D2
330
1CD
100
AcDbEntity
  8
ANNOTATION_TEXT
 62
     7
100
AcDbLine
 10
217.9093087237832
 20
133.299070409095
 30
0.0
 11
217.9093087237832
 21
137.299070409095
 31
0.0
  0
LINE
  5
1D3
330
1CD
100
AcDbEntity
  8
ANNOTATION_TEXT
 62
     7
100
AcDbLine
 10
217.9093087237832
 20
130.799070409095
 30
0.0
 11
217.9093087237832
 21
128.299070409095
 31
0.0
  0
LINE
  5
1D4
330
1CD
100
AcDbEntity
  8
ANNOTATION_TEXT
 62
     7
100
AcDbLine
 10
217.9093087237832
 20
139.799070409095
 30
0.0
 11
217.9093087237832
 21
142.299070409095
 31
0.0
  0
SOLID
  5
1D5
330
1CD
100
AcDbEntity
  8
ANNOTATION_TEXT
 62
     7
100
AcDbTrace
 10
218.3259753904499
 20
130.799070409095
 30
0.0
 11
217.4926420571166
 21
130.799070409095
 31
0.0
 12
217.9093087237832
 22
133.299070409095
 32
0.0
 13
217.9093087237832
 23
133.299070409095
 33
0.0
  0
SOLID
  5
1D6
330
1CD
100
AcDbEntity
  8
ANNOTATION_TEXT
 62
     7
100
AcDbTrace
 10
217.4926420571166
 20
139.799070409095
 30
0.0
 11
218.3259753904499
 21
139.799070409095
 31
0.0
 12
217.9093087237832
 22
137.299070409095
 32
0.0
 13
217.9093087237832
 23
137.299070409095
 33
0.0
  0
MTEXT
  5
1D7
330
1CD
100
AcDbEntity
  8
ANNOTATION_TEXT
 62
     7
100
AcDbMText
 10
215.5319245275979
 20
126.378259782392
 30
0.0
 40
3.5
 41
0.0
 71
     5
 72
     1
  1
4
  7
ONSHAPE-STANDARD-DIMENSION
 11
0.0
 21
1.0
 31
0.0
  0
POINT
  5
1D8
330
1CD
100
AcDbEntity
  8
DEFPOINTS
 62
     0
100
AcDbPoint
 10
191.2776511755725
 20
133.299070409095
 30
0.0
  0
POINT
  5
1D9
330
1CD
100
AcDbEntity
  8
DEFPOINTS
 62
     0
100
AcDbPoint
 10
191.2776511755725
 20
137.299070409095
 30
0.0
  0
POINT
  5
1DA
330
1CD
100
AcDbEntity
  8
DEFPOINTS
 62
     0
100
AcDbPoint
 10
217.9093087237832
 20
137.299070409095
 30
0.0
  0
ENDBLK
  5
1DB
330
1CD
100
AcDbEntity
  8
0
100
AcDbBlockEnd
  0
BLOCK
  5
1E1
330
1E0
100
AcDbEntity
  8
0
100
AcDbBlockBegin
  2
*D14
 70
     1
 10
0.0
 20
0.0
 30
0.0
  3
*D14
  1
*D14
  0
LINE
  5
1E2
330
1E0
100
AcDbEntity
  8
ANNOTATION_TEXT
 62
     7
100
AcDbLine
 10
189.8556407528366
 20
132.8048887938302
 30
0.0
 11
207.1098169705481
 21
146.4446480575357
 31
0.0
  0
MTEXT
  5
1E3
330
1E0
100
AcDbEntity
  8
ANNOTATION_TEXT
 62
     7
100
AcDbMText
 10
199.50552251602
 20
147.6285203341619
 30
0.0
 40
3.5
 41
0.0
 71
     5
 72
     1
  1
2x\PR0,8
  7
ONSHAPE-STANDARD-DIMENSION
 11
0.7844836677470509
 21
0.6201494779794099
 31
0.0
  0
SOLID
  5
1E4
330
1E0
100
AcDbEntity
  8
ANNOTATION_TEXT
 62
     7
100
AcDbTrace
 10
191.5584543063795
 20
134.6821306836733
 30
0.0
 11
192.075245538029
 21
134.0283942938841
 31
0.0
 12
189.8556407528366
 22
132.8048887938302
 32
0.0
 13
189.8556407528366
 23
132.8048887938302
 33
0.0
  0
POINT
  5
1E5
330
1E0
100
AcDbEntity
  8
DEFPOINTS
 62
     0
100
AcDbPoint
 10
189.8556407528366
 20
132.8048887938302
 30
0.0
  0
POINT
  5
1E6
330
1E0
100
AcDbEntity
  8
DEFPOINTS
 62
     0
100
AcDbPoint
 10
190.4807761755725
 20
133.299070409095
 30
0.0
  0
ENDBLK
  5
1E7
330
1E0
100
AcDbEntity
  8
0
100
AcDbBlockEnd
  0
BLOCK
  5
1EE
330
1ED
100
AcDbEntity
  8
0
100
AcDbBlockBegin
  2
*D15
 70
     1
 10
0.0
 20
0.0
 30
0.0
  3
*D15
  1
*D15
  0
LINE
  5
1EF
330
1ED
100
AcDbEntity
  8
ANNOTATION_TEXT
 62
     7
100
AcDbLine
 10
117.7427711755725
 20
137.924070409095
 30
0.0
 11
117.7427711755725
 21
145.5167155957292
 31
0.0
  0
LINE
  5
1F0
330
1ED
100
AcDbEntity
  8
ANNOTATION_TEXT
 62
     7
100
AcDbLine
 10
113.6102111755725
 20
135.924070409095
 30
0.0
 11
113.6102111755725
 21
145.5167155957292
 31
0.0
  0
LINE
  5
1F1
330
1ED
100
AcDbEntity
  8
ANNOTATION_TEXT
 62
     7
100
AcDbLine
 10
117.7427711755725
 20
144.2667155957292
 30
0.0
 11
113.6102111755725
 21
144.2667155957292
 31
0.0
  0
LINE
  5
1F2
330
1ED
100
AcDbEntity
  8
ANNOTATION_TEXT
 62
     7
100
AcDbLine
 10
120.2427711755725
 20
144.2667155957292
 30
0.0
 11
122.7427711755725
 21
144.2667155957292
 31
0.0
  0
LINE
  5
1F3
330
1ED
100
AcDbEntity
  8
ANNOTATION_TEXT
 62
     7
100
AcDbLine
 10
111.1102111755725
 20
144.2667155957292
 30
0.0
 11
108.6102111755725
 21
144.2667155957292
 31
0.0
  0
SOLID
  5
1F4
330
1ED
100
AcDbEntity
  8
ANNOTATION_TEXT
 62
     7
100
AcDbTrace
 10
120.2427711755725
 20
144.6833822623958
 30
0.0
 11
120.2427711755725
 21
143.8500489290625
 31
0.0
 12
117.7427711755725
 22
144.2667155957292
 32
0.0
 13
117.7427711755725
 23
144.2667155957292
 33
0.0
  0
SOLID
  5
1F5
330
1ED
100
AcDbEntity
  8
ANNOTATION_TEXT
 62
     7
100
AcDbTrace
 10
111.1102111755725
 20
143.8500489290625
 30
0.0
 11
111.1102111755725
 21
144.6833822623958
 31
0.0
 12
113.6102111755725
 22
144.2667155957292
 32
0.0
 13
113.6102111755725
 23
144.2667155957292
 33
0.0
  0
MTEXT
  5
1F6
330
1ED
100
AcDbEntity
  8
ANNOTATION_TEXT
 62
     7
100
AcDbMText
 10
115.6764911755725
 20
146.9743109635766
 30
0.0
 40
3.5
 41
0.0
 71
     5
 72
     1
  1
4,13
  7
ONSHAPE-STANDARD-DIMENSION
  0
POINT
  5
1F7
330
1ED
100
AcDbEntity
  8
DEFPOINTS
 62
     0
100
AcDbPoint
 10
117.7427711755725
 20
137.299070409095
 30
0.0
  0
POINT
  5
1F8
330
1ED
100
AcDbEntity
  8
DEFPOINTS
 62
     0
100
AcDbPoint
 10
113.6102111755725
 20
135.299070409095
 30
0.0
  0
POINT
  5
1F9
330
1ED
100
AcDbEntity
  8
DEFPOINTS
 62
     0
100
AcDbPoint
 10
113.6102111755725
 20
144.2667155957292
 30
0.0
  0
ENDBLK
  5
1FA
330
1ED
100
AcDbEntity
  8
0
100
AcDbBlockEnd
  0
BLOCK
  5
201
330
200
100
AcDbEntity
  8
0
100
AcDbBlockBegin
  2
*D16
 70
     1
 10
0.0
 20
0.0
 30
0.0
  3
*D16
  1
*D16
  0
LINE
  5
202
330
200
100
AcDbEntity
  8
ANNOTATION_TEXT
 62
     7
100
AcDbLine
 10
176.2394251755725
 20
143.2509505832714
 30
0.0
 11
227.1263033473449
 21
143.2509505832714
 31
0.0
  0
LINE
  5
203
330
200
100
AcDbEntity
  8
ANNOTATION_TEXT
 62
     7
100
AcDbLine
 10
190.3089011755725
 20
137.4000104961832
 30
0.0
 11
227.1263033473449
 21
137.4000104961832
 31
0.0
  0
LINE
  5
204
330
200
100
AcDbEntity
  8
ANNOTATION_TEXT
 62
     7
100
AcDbLine
 10
225.8763033473449
 20
137.4000104961832
 30
0.0
 11
225.8763033473449
 21
115.3393523632155
 31
0.0
  0
LINE
  5
205
330
200
100
AcDbEntity
  8
ANNOTATION_TEXT
 62
     7
100
AcDbLine
 10
225.8763033473449
 20
143.2509505832714
 30
0.0
 11
225.8763033473449
 21
137.4000104961832
 31
0.0
  0
LINE
  5
206
330
200
100
AcDbEntity
  8
ANNOTATION_TEXT
 62
     7
100
AcDbLine
 10
225.8763033473449
 20
145.7509505832714
 30
0.0
 11
225.8763033473449
 21
148.2509505832714
 31
0.0
  0
LINE
  5
207
330
200
100
AcDbEntity
  8
ANNOTATION_TEXT
 62
     7
100
AcDbLine
 10
225.8763033473449
 20
134.9000104961832
 30
0.0
 11
225.8763033473449
 21
132.4000104961832
 31
0.0
  0
SOLID
  5
208
330
200
100
AcDbEntity
  8
ANNOTATION_TEXT
 62
     7
100
AcDbTrace
 10
225.4596366806782
 20
145.7509505832714
 30
0.0
 11
226.2929700140116
 21
145.7509505832714
 31
0.0
 12
225.8763033473449
 22
143.2509505832714
 32
0.0
 13
225.8763033473449
 23
143.2509505832714
 33
0.0
  0
SOLID
  5
209
330
200
100
AcDbEntity
  8
ANNOTATION_TEXT
 62
     7
100
AcDbTrace
 10
226.2929700140116
 20
134.9000104961832
 30
0.0
 11
225.4596366806782
 21
134.9000104961832
 31
0.0
 12
225.8763033473449
 22
137.4000104961832
 32
0.0
 13
225.8763033473449
 23
137.4000104961832
 33
0.0
  0
MTEXT
  5
20A
330
200
100
AcDbEntity
  8
ANNOTATION_TEXT
 62
     7
100
AcDbMText
 10
223.1687079794975
 20
120.514590782834
 30
0.0
 40
3.5
 41
0.0
 71
     5
 72
     1
  1
5,85
  7
ONSHAPE-STANDARD-DIMENSION
 11
0.0
 21
1.0
 31
0.0
  0
POINT
  5
20B
330
200
100
AcDbEntity
  8
DEFPOINTS
 62
     0
100
AcDbPoint
 10
175.6144251755725
 20
143.2509505832714
 30
0.0
  0
POINT
  5
20C
330
200
100
AcDbEntity
  8
DEFPOINTS
 62
     0
100
AcDbPoint
 10
189.6839011755725
 20
137.4000104961832
 30
0.0
  0
POINT
  5
20D
330
200
100
AcDbEntity
  8
DEFPOINTS
 62
     0
100
AcDbPoint
 10
225.8763033473449
 20
137.4000104961832
 30
0.0
  0
ENDBLK
  5
20E
330
200
100
AcDbEntity
  8
0
100
AcDbBlockEnd
  0
BLOCK
  5
215
330
214
100
AcDbEntity
  8
0
100
AcDbBlockBegin
  2
*D17
 70
     1
 10
0.0
 20
0.0
 30
0.0
  3
*D17
  1
*D17
  0
LINE
  5
216
330
214
100
AcDbEntity
  8
ANNOTATION_TEXT
 62
     7
100
AcDbLine
 10
168.4619242451974
 20
108.3268923924992
 30
0.0
 11
149.6097057285369
 21
108.3268923924992
 31
0.0
  0
LINE
  5
217
330
214
100
AcDbEntity
  8
ANNOTATION_TEXT
 62
     7
100
AcDbLine
 10
194.7852111755725
 20
101.928820409095
 30
0.0
 11
149.6097057285369
 21
101.928820409095
 31
0.0
  0
LINE
  5
218
330
214
100
AcDbEntity
  8
ANNOTATION_TEXT
 62
     7
100
AcDbLine
 10
150.8597057285369
 20
105.8268923924992
 30
0.0
 11
150.8597057285369
 21
104.428820409095
 31
0.0
  0
SOLID
  5
219
330
214
100
AcDbEntity
  8
ANNOTATION_TEXT
 62
     7
100
AcDbTrace
 10
151.2763723952035
 20
105.8268923924992
 30
0.0
 11
150.4430390618702
 21
105.8268923924992
 31
0.0
 12
150.8597057285369
 22
108.3268923924992
 32
0.0
 13
150.8597057285369
 23
108.3268923924992
 33
0.0
  0
SOLID
  5
21A
330
214
100
AcDbEntity
  8
ANNOTATION_TEXT
 62
     7
100
AcDbTrace
 10
150.4430390618702
 20
104.428820409095
 30
0.0
 11
151.2763723952035
 21
104.428820409095
 31
0.0
 12
150.8597057285369
 22
101.928820409095
 32
0.0
 13
150.8597057285369
 23
101.928820409095
 33
0.0
  0
MTEXT
  5
21B
330
214
100
AcDbEntity
  8
ANNOTATION_TEXT
 62
     7
100
AcDbMText
 10
148.1521103606894
 20
106.212370434032
 30
0.0
 40
3.5
 41
0.0
 71
     5
 72
     1
  1
6,4
  7
ONSHAPE-STANDARD-DIMENSION
 11
0.0
 21
1.0
 31
0.0
  0
POINT
  5
21C
330
214
100
AcDbEntity
  8
DEFPOINTS
 62
     0
100
AcDbPoint
 10
169.0869242451974
 20
108.3268923924992
 30
0.0
  0
POINT
  5
21D
330
214
100
AcDbEntity
  8
DEFPOINTS
 62
     0
100
AcDbPoint
 10
195.4102111755725
 20
101.928820409095
 30
0.0
  0
POINT
  5
21E
330
214
100
AcDbEntity
  8
DEFPOINTS
 62
     0
100
AcDbPoint
 10
150.8597057285369
 20
101.928820409095
 30
0.0
  0
ENDBLK
  5
21F
330
214
100
AcDbEntity
  8
0
100
AcDbBlockEnd
  0
BLOCK
  5
226
330
225
100
AcDbEntity
  8
0
100
AcDbBlockBegin
  2
*D18
 70
     1
 10
0.0
 20
0.0
 30
0.0
  3
*D18
  1
*D18
  0
LINE
  5
227
330
225
100
AcDbEntity
  8
ANNOTATION_TEXT
 62
     7
100
AcDbLine
 10
146.7999539464602
 20
128.1878035755584
 30
0.0
 11
88.5903148795365
 21
128.1878035755584
 31
0.0
  0
LINE
  5
228
330
225
100
AcDbEntity
  8
ANNOTATION_TEXT
 62
     7
100
AcDbLine
 10
168.4619242451974
 20
112.8413779901097
 30
0.0
 11
88.5903148795365
 21
112.8413779901097
 31
0.0
  0
LINE
  5
229
330
225
100
AcDbEntity
  8
ANNOTATION_TEXT
 62
     7
100
AcDbLine
 10
89.8403148795365
 20
125.6878035755584
 30
0.0
 11
89.8403148795365
 21
115.3413779901097
 31
0.0
  0
SOLID
  5
22A
330
225
100
AcDbEntity
  8
ANNOTATION_TEXT
 62
     7
100
AcDbTrace
 10
90.25698154620318
 20
125.6878035755584
 30
0.0
 11
89.42364821286984
 21
125.6878035755584
 31
0.0
 12
89.8403148795365
 22
128.1878035755584
 32
0.0
 13
89.8403148795365
 23
128.1878035755584
 33
0.0
  0
SOLID
  5
22B
330
225
100
AcDbEntity
  8
ANNOTATION_TEXT
 62
     7
100
AcDbTrace
 10
89.42364821286984
 20
115.3413779901097
 30
0.0
 11
90.25698154620318
 21
115.3413779901097
 31
0.0
 12
89.8403148795365
 22
112.8413779901097
 32
0.0
 13
89.8403148795365
 23
112.8413779901097
 33
0.0
  0
MTEXT
  5
22C
330
225
100
AcDbEntity
  8
ANNOTATION_TEXT
 62
     7
100
AcDbMText
 10
87.13271951168909
 20
120.514590782834
 30
0.0
 40
3.5
 41
0.0
 71
     5
 72
     1
  1
15,35
  7
ONSHAPE-STANDARD-DIMENSION
 11
0.0
 21
1.0
 31
0.0
  0
POINT
  5
22D
330
225
100
AcDbEntity
  8
DEFPOINTS
 62
     0
100
AcDbPoint
 10
147.4249539464602
 20
128.1878035755584
 30
0.0
  0
POINT
  5
22E
330
225
100
AcDbEntity
  8
DEFPOINTS
 62
     0
100
AcDbPoint
 10
169.0869242451974
 20
112.8413779901097
 30
0.0
  0
POINT
  5
22F
330
225
100
AcDbEntity
  8
DEFPOINTS
 62
     0
100
AcDbPoint
 10
89.8403148795365
 20
112.8413779901097
 30
0.0
  0
ENDBLK
  5
230
330
225
100
AcDbEntity
  8
0
100
AcDbBlockEnd
  0
BLOCK
  5
237
330
236
100
AcDbEntity
  8
0
100
AcDbBlockBegin
  2
*D19
 70
     1
 10
0.0
 20
0.0
 30
0.0
  3
*D19
  1
*D19
  0
LINE
  5
238
330
236
100
AcDbEntity
  8
ANNOTATION_TEXT
 62
     7
100
AcDbLine
 10
184.7922067098209
 20
128.914334835274
 30
0.0
 11
238.7833770687679
 21
128.914334835274
 31
0.0
  0
LINE
  5
239
330
236
100
AcDbEntity
  8
ANNOTATION_TEXT
 62
     7
100
AcDbLine
 10
196.0352111755725
 20
101.928820409095
 30
0.0
 11
238.7833770687679
 21
101.928820409095
 31
0.0
  0
LINE
  5
23A
330
236
100
AcDbEntity
  8
ANNOTATION_TEXT
 62
     7
100
AcDbLine
 10
237.5333770687679
 20
126.414334835274
 30
0.0
 11
237.5333770687679
 21
104.428820409095
 31
0.0
  0
SOLID
  5
23B
330
236
100
AcDbEntity
  8
ANNOTATION_TEXT
 62
     7
100
AcDbTrace
 10
237.9500437354345
 20
126.414334835274
 30
0.0
 11
237.1167104021012
 21
126.414334835274
 31
0.0
 12
237.5333770687679
 22
128.914334835274
 32
0.0
 13
237.5333770687679
 23
128.914334835274
 33
0.0
  0
SOLID
  5
23C
330
236
100
AcDbEntity
  8
ANNOTATION_TEXT
 62
     7
100
AcDbTrace
 10
237.1167104021012
 20
104.428820409095
 30
0.0
 11
237.9500437354345
 21
104.428820409095
 31
0.0
 12
237.5333770687679
 22
101.928820409095
 32
0.0
 13
237.5333770687679
 23
101.928820409095
 33
0.0
  0
MTEXT
  5
23D
330
236
100
AcDbEntity
  8
ANNOTATION_TEXT
 62
     7
100
AcDbMText
 10
234.8257817009205
 20
115.4215776221845
 30
0.0
 40
3.5
 41
0.0
 71
     5
 72
     1
  1
26,99
  7
ONSHAPE-STANDARD-DIMENSION
 11
0.0
 21
1.0
 31
0.0
  0
POINT
  5
23E
330
236
100
AcDbEntity
  8
DEFPOINTS
 62
     0
100
AcDbPoint
 10
184.1672067098209
 20
128.914334835274
 30
0.0
  0
POINT
  5
23F
330
236
100
AcDbEntity
  8
DEFPOINTS
 62
     0
100
AcDbPoint
 10
195.4102111755725
 20
101.928820409095
 30
0.0
  0
POINT
  5
240
330
236
100
AcDbEntity
  8
DEFPOINTS
 62
     0
100
AcDbPoint
 10
237.5333770687679
 20
101.928820409095
 30
0.0
  0
ENDBLK
  5
241
330
236
100
AcDbEntity
  8
0
100
AcDbBlockEnd
  0
BLOCK
  5
248
330
247
100
AcDbEntity
  8
0
100
AcDbBlockBegin
  2
*D20
 70
     1
 10
0.0
 20
0.0
 30
0.0
  3
*D20
  1
*D20
  0
LINE
  5
249
330
247
100
AcDbEntity
  8
ANNOTATION_TEXT
 62
     7
100
AcDbLine
 10
184.7922067098209
 20
131.4476114006469
 30
0.0
 11
248.1896842614281
 21
131.4476114006469
 31
0.0
  0
LINE
  5
24A
330
247
100
AcDbEntity
  8
ANNOTATION_TEXT
 62
     7
100
AcDbLine
 10
196.0352111755725
 20
101.928820409095
 30
0.0
 11
248.1896842614281
 21
101.928820409095
 31
0.0
  0
LINE
  5
24B
330
247
100
AcDbEntity
  8
ANNOTATION_TEXT
 62
     7
100
AcDbLine
 10
246.9396842614281
 20
128.9476114006469
 30
0.0
 11
246.9396842614281
 21
104.428820409095
 31
0.0
  0
SOLID
  5
24C
330
247
100
AcDbEntity
  8
ANNOTATION_TEXT
 62
     7
100
AcDbTrace
 10
247.3563509280947
 20
128.9476114006469
 30
0.0
 11
246.5230175947614
 21
128.9476114006469
 31
0.0
 12
246.9396842614281
 22
131.4476114006469
 32
0.0
 13
246.9396842614281
 23
131.4476114006469
 33
0.0
  0
SOLID
  5
24D
330
247
100
AcDbEntity
  8
ANNOTATION_TEXT
 62
     7
100
AcDbTrace
 10
246.5230175947614
 20
104.428820409095
 30
0.0
 11
247.3563509280947
 21
104.428820409095
 31
0.0
 12
246.9396842614281
 22
101.928820409095
 32
0.0
 13
246.9396842614281
 23
101.928820409095
 33
0.0
  0
MTEXT
  5
24E
330
247
100
AcDbEntity
  8
ANNOTATION_TEXT
 62
     7
100
AcDbMText
 10
244.2320888935807
 20
116.688215904871
 30
0.0
 40
3.5
 41
0.0
 71
     5
 72
     1
  1
29,52
  7
ONSHAPE-STANDARD-DIMENSION
 11
0.0
 21
1.0
 31
0.0
  0
POINT
  5
24F
330
247
100
AcDbEntity
  8
DEFPOINTS
 62
     0
100
AcDbPoint
 10
184.1672067098209
 20
131.4476114006469
 30
0.0
  0
POINT
  5
250
330
247
100
AcDbEntity
  8
DEFPOINTS
 62
     0
100
AcDbPoint
 10
195.4102111755725
 20
101.928820409095
 30
0.0
  0
POINT
  5
251
330
247
100
AcDbEntity
  8
DEFPOINTS
 62
     0
100
AcDbPoint
 10
246.9396842614281
 20
101.928820409095
 30
0.0
  0
ENDBLK
  5
252
330
247
100
AcDbEntity
  8
0
100
AcDbBlockEnd
  0
BLOCK
  5
259
330
258
100
AcDbEntity
  8
0
100
AcDbBlockBegin
  2
*D21
 70
     1
 10
0.0
 20
0.0
 30
0.0
  3
*D21
  1
*D21
  0
LINE
  5
25A
330
258
100
AcDbEntity
  8
ANNOTATION_TEXT
 62
     7
100
AcDbLine
 10
191.9026511755725
 20
133.299070409095
 30
0.0
 11
213.7849427628886
 21
133.299070409095
 31
0.0
  0
LINE
  5
25B
330
258
100
AcDbEntity
  8
ANNOTATION_TEXT
 62
     7
100
AcDbLine
 10
184.7922067098209
 20
131.4476114006469
 30
0.0
 11
213.7849427628886
 21
131.4476114006469
 31
0.0
  0
LINE
  5
25C
330
258
100
AcDbEntity
  8
ANNOTATION_TEXT
 62
     7
100
AcDbLine
 10
212.5349427628886
 20
133.299070409095
 30
0.0
 11
212.5349427628886
 21
148.5231848505119
 31
0.0
  0
LINE
  5
25D
330
258
100
AcDbEntity
  8
ANNOTATION_TEXT
 62
     7
100
AcDbLine
 10
212.5349427628886
 20
133.299070409095
 30
0.0
 11
212.5349427628886
 21
131.4476114006469
 31
0.0
  0
LINE
  5
25E
330
258
100
AcDbEntity
  8
ANNOTATION_TEXT
 62
     7
100
AcDbLine
 10
212.5349427628886
 20
135.799070409095
 30
0.0
 11
212.5349427628886
 21
138.299070409095
 31
0.0
  0
LINE
  5
25F
330
258
100
AcDbEntity
  8
ANNOTATION_TEXT
 62
     7
100
AcDbLine
 10
212.5349427628886
 20
128.9476114006469
 30
0.0
 11
212.5349427628886
 21
126.4476114006469
 31
0.0
  0
SOLID
  5
260
330
258
100
AcDbEntity
  8
ANNOTATION_TEXT
 62
     7
100
AcDbTrace
 10
212.118276096222
 20
135.799070409095
 30
0.0
 11
212.9516094295553
 21
135.799070409095
 31
0.0
 12
212.5349427628886
 22
133.299070409095
 32
0.0
 13
212.5349427628886
 23
133.299070409095
 33
0.0
  0
SOLID
  5
261
330
258
100
AcDbEntity
  8
ANNOTATION_TEXT
 62
     7
100
AcDbTrace
 10
212.9516094295553
 20
128.9476114006469
 30
0.0
 11
212.118276096222
 21
128.9476114006469
 31
0.0
 12
212.5349427628886
 22
131.4476114006469
 32
0.0
 13
212.5349427628886
 23
131.4476114006469
 33
0.0
  0
MTEXT
  5
262
330
258
100
AcDbEntity
  8
ANNOTATION_TEXT
 62
     7
100
AcDbMText
 10
209.8273473950412
 20
143.4111276298035
 30
0.0
 40
3.5
 41
0.0
 71
     5
 72
     1
  1
1,85
  7
ONSHAPE-STANDARD-DIMENSION
 11
0.0
 21
1.0
 31
0.0
  0
POINT
  5
263
330
258
100
AcDbEntity
  8
DEFPOINTS
 62
     0
100
AcDbPoint
 10
191.2776511755725
 20
133.299070409095
 30
0.0
  0
POINT
  5
264
330
258
100
AcDbEntity
  8
DEFPOINTS
 62
     0
100
AcDbPoint
 10
184.1672067098209
 20
131.4476114006469
 30
0.0
  0
POINT
  5
265
330
258
100
AcDbEntity
  8
DEFPOINTS
 62
     0
100
AcDbPoint
 10
212.5349427628886
 20
131.4476114006469
 30
0.0
  0
ENDBLK
  5
266
330
258
100
AcDbEntity
  8
0
100
AcDbBlockEnd
  0
BLOCK
  5
26D
330
26C
100
AcDbEntity
  8
0
100
AcDbBlockBegin
  2
*D22
 70
     1
 10
0.0
 20
0.0
 30
0.0
  3
*D22
  1
*D22
  0
LINE
  5
26E
330
26C
100
AcDbEntity
  8
ANNOTATION_TEXT
 62
     7
100
AcDbLine
 10
119.3365211755725
 20
133.924070409095
 30
0.0
 11
119.3365211755725
 21
152.8303878391144
 31
0.0
  0
LINE
  5
26F
330
26C
100
AcDbEntity
  8
ANNOTATION_TEXT
 62
     7
100
AcDbLine
 10
147.4249539464602
 20
132.1928879858682
 30
0.0
 11
147.4249539464602
 21
152.8303878391144
 31
0.0
  0
LINE
  5
270
330
26C
100
AcDbEntity
  8
ANNOTATION_TEXT
 62
     7
100
AcDbLine
 10
121.8365211755725
 20
151.5803878391144
 30
0.0
 11
144.9249539464602
 21
151.5803878391144
 31
0.0
  0
SOLID
  5
271
330
26C
100
AcDbEntity
  8
ANNOTATION_TEXT
 62
     7
100
AcDbTrace
 10
121.8365211755725
 20
151.9970545057811
 30
0.0
 11
121.8365211755725
 21
151.1637211724477
 31
0.0
 12
119.3365211755725
 22
151.5803878391144
 32
0.0
 13
119.3365211755725
 23
151.5803878391144
 33
0.0
  0
SOLID
  5
272
330
26C
100
AcDbEntity
  8
ANNOTATION_TEXT
 62
     7
100
AcDbTrace
 10
144.9249539464602
 20
151.1637211724477
 30
0.0
 11
144.9249539464602
 21
151.9970545057811
 31
0.0
 12
147.4249539464602
 22
151.5803878391144
 32
0.0
 13
147.4249539464602
 23
151.5803878391144
 33
0.0
  0
MTEXT
  5
273
330
26C
100
AcDbEntity
  8
ANNOTATION_TEXT
 62
     7
100
AcDbMText
 10
135.6163348204936
 20
154.2903674031471
 30
0.0
 40
3.5
 41
0.0
 71
     5
 72
     1
  1
28,09
  7
ONSHAPE-STANDARD-DIMENSION
  0
POINT
  5
274
330
26C
100
AcDbEntity
  8
DEFPOINTS
 62
     0
100
AcDbPoint
 10
119.3365211755725
 20
133.299070409095
 30
0.0
  0
POINT
  5
275
330
26C
100
AcDbEntity
  8
DEFPOINTS
 62
     0
100
AcDbPoint
 10
147.4249539464602
 20
131.5678879858682
 30
0.0
  0
POINT
  5
276
330
26C
100
AcDbEntity
  8
DEFPOINTS
 62
     0
100
AcDbPoint
 10
147.4249539464602
 20
151.5803878391144
 30
0.0
  0
ENDBLK
  5
277
330
26C
100
AcDbEntity
  8
0
100
AcDbBlockEnd
  0
BLOCK
  5
27E
330
27D
100
AcDbEntity
  8
0
100
AcDbBlockBegin
  2
*D23
 70
     1
 10
0.0
 20
0.0
 30
0.0
  3
*D23
  1
*D23
  0
LINE
  5
27F
330
27D
100
AcDbEntity
  8
ANNOTATION_TEXT
 62
     7
100
AcDbLine
 10
146.7999539464602
 20
131.5678879858682
 30
0.0
 11
107.4238642982661
 21
131.5678879858682
 31
0.0
  0
LINE
  5
280
330
27D
100
AcDbEntity
  8
ANNOTATION_TEXT
 62
     7
100
AcDbLine
 10
118.7115211755725
 20
133.299070409095
 30
0.0
 11
107.4238642982661
 21
133.299070409095
 31
0.0
  0
LINE
  5
281
330
27D
100
AcDbEntity
  8
ANNOTATION_TEXT
 62
     7
100
AcDbLine
 10
108.6738642982661
 20
131.5678879858682
 30
0.0
 11
108.6738642982661
 21
115.4025335621256
 31
0.0
  0
LINE
  5
282
330
27D
100
AcDbEntity
  8
ANNOTATION_TEXT
 62
     7
100
AcDbLine
 10
108.6738642982661
 20
131.5678879858682
 30
0.0
 11
108.6738642982661
 21
133.299070409095
 31
0.0
  0
LINE
  5
283
330
27D
100
AcDbEntity
  8
ANNOTATION_TEXT
 62
     7
100
AcDbLine
 10
108.6738642982661
 20
129.0678879858682
 30
0.0
 11
108.6738642982661
 21
126.5678879858682
 31
0.0
  0
LINE
  5
284
330
27D
100
AcDbEntity
  8
ANNOTATION_TEXT
 62
     7
100
AcDbLine
 10
108.6738642982661
 20
135.799070409095
 30
0.0
 11
108.6738642982661
 21
138.299070409095
 31
0.0
  0
SOLID
  5
285
330
27D
100
AcDbEntity
  8
ANNOTATION_TEXT
 62
     7
100
AcDbTrace
 10
109.0905309649328
 20
129.0678879858682
 30
0.0
 11
108.2571976315995
 21
129.0678879858682
 31
0.0
 12
108.6738642982661
 22
131.5678879858682
 32
0.0
 13
108.6738642982661
 23
131.5678879858682
 33
0.0
  0
SOLID
  5
286
330
27D
100
AcDbEntity
  8
ANNOTATION_TEXT
 62
     7
100
AcDbTrace
 10
108.2571976315995
 20
135.799070409095
 30
0.0
 11
109.0905309649328
 21
135.799070409095
 31
0.0
 12
108.6738642982661
 22
133.299070409095
 32
0.0
 13
108.6738642982661
 23
133.299070409095
 33
0.0
  0
MTEXT
  5
287
330
27D
100
AcDbEntity
  8
ANNOTATION_TEXT
 62
     7
100
AcDbMText
 10
105.9662689304187
 20
120.514590782834
 30
0.0
 40
3.5
 41
0.0
 71
     5
 72
     1
  1
1,73
  7
ONSHAPE-STANDARD-DIMENSION
 11
0.0
 21
1.0
 31
0.0
  0
POINT
  5
288
330
27D
100
AcDbEntity
  8
DEFPOINTS
 62
     0
100
AcDbPoint
 10
147.4249539464602
 20
131.5678879858682
 30
0.0
  0
POINT
  5
289
330
27D
100
AcDbEntity
  8
DEFPOINTS
 62
     0
100
AcDbPoint
 10
119.3365211755725
 20
133.299070409095
 30
0.0
  0
POINT
  5
28A
330
27D
100
AcDbEntity
  8
DEFPOINTS
 62
     0
100
AcDbPoint
 10
108.6738642982661
 20
133.299070409095
 30
0.0
  0
ENDBLK
  5
28B
330
27D
100
AcDbEntity
  8
0
100
AcDbBlockEnd
  0
BLOCK
  5
292
330
291
100
AcDbEntity
  8
0
100
AcDbBlockBegin
  2
*D24
 70
     1
 10
0.0
 20
0.0
 30
0.0
  3
*D24
  1
*D24
  0
LINE
  5
293
330
291
100
AcDbEntity
  8
ANNOTATION_TEXT
 62
     7
100
AcDbLine
 10
161.5449491755725
 20
143.8759505832714
 30
0.0
 11
161.5449491755725
 21
155.5255891689333
 31
0.0
  0
LINE
  5
294
330
291
100
AcDbEntity
  8
ANNOTATION_TEXT
 62
     7
100
AcDbLine
 10
175.6144251755725
 20
143.8759505832714
 30
0.0
 11
175.6144251755725
 21
155.5255891689333
 31
0.0
  0
LINE
  5
295
330
291
100
AcDbEntity
  8
ANNOTATION_TEXT
 62
     7
100
AcDbLine
 10
164.0449491755725
 20
154.2755891689333
 30
0.0
 11
173.1144251755725
 21
154.2755891689333
 31
0.0
  0
SOLID
  5
296
330
291
100
AcDbEntity
  8
ANNOTATION_TEXT
 62
     7
100
AcDbTrace
 10
164.0449491755725
 20
154.6922558356
 30
0.0
 11
164.0449491755725
 21
153.8589225022666
 31
0.0
 12
161.5449491755725
 22
154.2755891689333
 32
0.0
 13
161.5449491755725
 23
154.2755891689333
 33
0.0
  0
SOLID
  5
297
330
291
100
AcDbEntity
  8
ANNOTATION_TEXT
 62
     7
100
AcDbTrace
 10
173.1144251755725
 20
153.8589225022666
 30
0.0
 11
173.1144251755725
 21
154.6922558356
 31
0.0
 12
175.6144251755725
 22
154.2755891689333
 32
0.0
 13
175.6144251755725
 23
154.2755891689333
 33
0.0
  0
MTEXT
  5
298
330
291
100
AcDbEntity
  8
ANNOTATION_TEXT
 62
     7
100
AcDbMText
 10
168.5796871755725
 20
156.985568732966
 30
0.0
 40
3.5
 41
0.0
 71
     5
 72
     1
  1
3x14,07
  7
ONSHAPE-STANDARD-DIMENSION
  0
POINT
  5
299
330
291
100
AcDbEntity
  8
DEFPOINTS
 62
     0
100
AcDbPoint
 10
161.5449491755725
 20
143.2509505832714
 30
0.0
  0
POINT
  5
29A
330
291
100
AcDbEntity
  8
DEFPOINTS
 62
     0
100
AcDbPoint
 10
175.6144251755725
 20
143.2509505832714
 30
0.0
  0
POINT
  5
29B
330
291
100
AcDbEntity
  8
DEFPOINTS
 62
     0
100
AcDbPoint
 10
175.6144251755725
 20
154.2755891689333
 30
0.0
  0
ENDBLK
  5
29C
330
291
100
AcDbEntity
  8
0
100
AcDbBlockEnd
  0
BLOCK
  5
2A3
330
2A2
100
AcDbEntity
  8
0
100
AcDbBlockBegin
  2
*D25
 70
     1
 10
0.0
 20
0.0
 30
0.0
  3
*D25
  1
*D25
  0
LINE
  5
2A4
330
2A2
100
AcDbEntity
  8
ANNOTATION_TEXT
 62
     7
100
AcDbLine
 10
184.1672067098209
 20
128.289334835274
 30
0.0
 11
184.1672067098209
 21
105.1326363081759
 31
0.0
  0
LINE
  5
2A5
330
2A2
100
AcDbEntity
  8
ANNOTATION_TEXT
 62
     7
100
AcDbLine
 10
197.4102111755725
 20
134.674070409095
 30
0.0
 11
197.4102111755725
 21
105.1326363081759
 31
0.0
  0
LINE
  5
2A6
330
2A2
100
AcDbEntity
  8
ANNOTATION_TEXT
 62
     7
100
AcDbLine
 10
186.6672067098209
 20
106.3826363081759
 30
0.0
 11
194.9102111755725
 21
106.3826363081759
 31
0.0
  0
SOLID
  5
2A7
330
2A2
100
AcDbEntity
  8
ANNOTATION_TEXT
 62
     7
100
AcDbTrace
 10
186.6672067098209
 20
106.7993029748425
 30
0.0
 11
186.6672067098209
 21
105.9659696415092
 31
0.0
 12
184.1672067098209
 22
106.3826363081759
 32
0.0
 13
184.1672067098209
 23
106.3826363081759
 33
0.0
  0
SOLID
  5
2A8
330
2A2
100
AcDbEntity
  8
ANNOTATION_TEXT
 62
     7
100
AcDbTrace
 10
194.9102111755725
 20
105.9659696415092
 30
0.0
 11
194.9102111755725
 21
106.7993029748425
 31
0.0
 12
197.4102111755725
 22
106.3826363081759
 32
0.0
 13
197.4102111755725
 23
106.3826363081759
 33
0.0
  0
MTEXT
  5
2A9
330
2A2
100
AcDbEntity
  8
ANNOTATION_TEXT
 62
     7
100
AcDbMText
 10
193.8810961779615
 20
109.0902316760233
 30
0.0
 40
3.5
 41
0.0
 71
     5
 72
     1
  1
13,24
  7
ONSHAPE-STANDARD-DIMENSION
  0
POINT
  5
2AA
330
2A2
100
AcDbEntity
  8
DEFPOINTS
 62
     0
100
AcDbPoint
 10
184.1672067098209
 20
128.914334835274
 30
0.0
  0
POINT
  5
2AB
330
2A2
100
AcDbEntity
  8
DEFPOINTS
 62
     0
100
AcDbPoint
 10
197.4102111755725
 20
135.299070409095
 30
0.0
  0
POINT
  5
2AC
330
2A2
100
AcDbEntity
  8
DEFPOINTS
 62
     0
100
AcDbPoint
 10
197.4102111755725
 20
106.3826363081759
 30
0.0
  0
ENDBLK
  5
2AD
330
2A2
100
AcDbEntity
  8
0
100
AcDbBlockEnd
  0
BLOCK
  5
2B3
330
2B2
100
AcDbEntity
  8
0
100
AcDbBlockBegin
  2
*D26
 70
     1
 10
0.0
 20
0.0
 30
0.0
  3
*D26
  1
*D26
  0
LINE
  5
2B4
330
2B2
100
AcDbEntity
  8
ANNOTATION_TEXT
 62
     7
100
AcDbLine
 10
168.4619242451974
 20
112.8413779901097
 30
0.0
 11
143.2051489647961
 21
112.8413779901097
 31
0.0
  0
LINE
  5
2B5
330
2B2
100
AcDbEntity
  8
ANNOTATION_TEXT
 62
     7
100
AcDbLine
 10
136.0714988477638
 20
126.7468016834686
 30
0.0
 11
145.7051489647961
 21
126.7468016834686
 31
0.0
  0
LINE
  5
2B6
330
2B2
100
AcDbEntity
  8
ANNOTATION_TEXT
 62
     7
100
AcDbLine
 10
144.4551489647961
 20
115.3413779901097
 30
0.0
 11
144.4551489647961
 21
124.2468016834686
 31
0.0
  0
SOLID
  5
2B7
330
2B2
100
AcDbEntity
  8
ANNOTATION_TEXT
 62
     7
100
AcDbTrace
 10
144.0384822981294
 20
115.3413779901097
 30
0.0
 11
144.8718156314627
 21
115.3413779901097
 31
0.0
 12
144.4551489647961
 22
112.8413779901097
 32
0.0
 13
144.4551489647961
 23
112.8413779901097
 33
0.0
  0
SOLID
  5
2B8
330
2B2
100
AcDbEntity
  8
ANNOTATION_TEXT
 62
     7
100
AcDbTrace
 10
144.8718156314627
 20
124.2468016834686
 30
0.0
 11
144.0384822981294
 21
124.2468016834686
 31
0.0
 12
144.4551489647961
 22
126.7468016834686
 32
0.0
 13
144.4551489647961
 23
126.7468016834686
 33
0.0
  0
MTEXT
  5
2B9
330
2B2
100
AcDbEntity
  8
ANNOTATION_TEXT
 62
     7
100
AcDbMText
 10
138.8130054588923
 20
118.775855050218
 30
0.0
 40
3.5
 41
0.0
 71
     5
 72
     1
  1
2x\P13,91
  7
ONSHAPE-STANDARD-DIMENSION
 11
0.0
 21
1.0
 31
0.0
  0
POINT
  5
2BA
330
2B2
100
AcDbEntity
  8
DEFPOINTS
 62
     0
100
AcDbPoint
 10
169.0869242451974
 20
112.8413779901097
 30
0.0
  0
POINT
  5
2BB
330
2B2
100
AcDbEntity
  8
DEFPOINTS
 62
     0
100
AcDbPoint
 10
135.4464988477638
 20
126.7468016834686
 30
0.0
  0
POINT
  5
2BC
330
2B2
100
AcDbEntity
  8
DEFPOINTS
 62
     0
100
AcDbPoint
 10
144.4551489647961
 20
126.7468016834686
 30
0.0
  0
ENDBLK
  5
2BD
330
2B2
100
AcDbEntity
  8
0
100
AcDbBlockEnd
  0
BLOCK
  5
2C3
330
2C2
100
AcDbEntity
  8
0
100
AcDbBlockBegin
  2
*D27
 70
     1
 10
0.0
 20
0.0
 30
0.0
  3
*D27
  1
*D27
  0
LINE
  5
2C4
330
2C2
100
AcDbEntity
  8
ANNOTATION_TEXT
 62
     7
100
AcDbLine
 10
120.2861309694494
 20
128.9387227390049
 30
0.0
 11
126.1329749753362
 21
128.9387227390049
 31
0.0
  0
LINE
  5
2C5
330
2C2
100
AcDbEntity
  8
ANNOTATION_TEXT
 62
     7
100
AcDbLine
 10
168.4619242451974
 20
112.8413779901097
 30
0.0
 11
123.6329749753362
 21
112.8413779901097
 31
0.0
  0
LINE
  5
2C6
330
2C2
100
AcDbEntity
  8
ANNOTATION_TEXT
 62
     7
100
AcDbLine
 10
124.8829749753362
 20
126.4387227390049
 30
0.0
 11
124.8829749753362
 21
115.3413779901097
 31
0.0
  0
SOLID
  5
2C7
330
2C2
100
AcDbEntity
  8
ANNOTATION_TEXT
 62
     7
100
AcDbTrace
 10
125.2996416420029
 20
126.4387227390049
 30
0.0
 11
124.4663083086696
 21
126.4387227390049
 31
0.0
 12
124.8829749753362
 22
128.9387227390049
 32
0.0
 13
124.8829749753362
 23
128.9387227390049
 33
0.0
  0
SOLID
  5
2C8
330
2C2
100
AcDbEntity
  8
ANNOTATION_TEXT
 62
     7
100
AcDbTrace
 10
124.4663083086696
 20
115.3413779901097
 30
0.0
 11
125.2996416420029
 21
115.3413779901097
 31
0.0
 12
124.8829749753362
 22
112.8413779901097
 32
0.0
 13
124.8829749753362
 23
112.8413779901097
 33
0.0
  0
MTEXT
  5
2C9
330
2C2
100
AcDbEntity
  8
ANNOTATION_TEXT
 62
     7
100
AcDbMText
 10
119.2408314694325
 20
119.5951553567535
 30
0.0
 40
3.5
 41
0.0
 71
     5
 72
     1
  1
2x\P16,1
  7
ONSHAPE-STANDARD-DIMENSION
 11
0.0
 21
1.0
 31
0.0
  0
POINT
  5
2CA
330
2C2
100
AcDbEntity
  8
DEFPOINTS
 62
     0
100
AcDbPoint
 10
119.6611309694494
 20
128.9387227390049
 30
0.0
  0
POINT
  5
2CB
330
2C2
100
AcDbEntity
  8
DEFPOINTS
 62
     0
100
AcDbPoint
 10
169.0869242451974
 20
112.8413779901097
 30
0.0
  0
POINT
  5
2CC
330
2C2
100
AcDbEntity
  8
DEFPOINTS
 62
     0
100
AcDbPoint
 10
124.8829749753362
 20
112.8413779901097
 30
0.0
  0
ENDBLK
  5
2CD
330
2C2
100
AcDbEntity
  8
0
100
AcDbBlockEnd
  0
BLOCK
  5
2D3
330
2D2
100
AcDbEntity
  8
0
100
AcDbBlockBegin
  2
*D28
 70
     1
 10
0.0
 20
0.0
 30
0.0
  3
*D28
  1
*D28
  0
LINE
  5
2D4
330
2D2
100
AcDbEntity
  8
ANNOTATION_TEXT
 62
     7
100
AcDbLine
 10
135.4464988477638
 20
126.1218016834686
 30
0.0
 11
135.4464988477638
 21
84.3659147929171
 31
0.0
  0
LINE
  5
2D5
330
2D2
100
AcDbEntity
  8
ANNOTATION_TEXT
 62
     7
100
AcDbLine
 10
127.5386798008945
 20
126.1218016834686
 30
0.0
 11
127.5386798008945
 21
84.3659147929171
 31
0.0
  0
LINE
  5
2D6
330
2D2
100
AcDbEntity
  8
ANNOTATION_TEXT
 62
     7
100
AcDbLine
 10
132.9464988477638
 20
85.6159147929171
 30
0.0
 11
130.0386798008945
 21
85.6159147929171
 31
0.0
  0
SOLID
  5
2D7
330
2D2
100
AcDbEntity
  8
ANNOTATION_TEXT
 62
     7
100
AcDbTrace
 10
132.9464988477638
 20
85.19924812625042
 30
0.0
 11
132.9464988477638
 21
86.03258145958377
 31
0.0
 12
135.4464988477638
 22
85.6159147929171
 32
0.0
 13
135.4464988477638
 23
85.6159147929171
 33
0.0
  0
SOLID
  5
2D8
330
2D2
100
AcDbEntity
  8
ANNOTATION_TEXT
 62
     7
100
AcDbTrace
 10
130.0386798008945
 20
86.03258145958377
 30
0.0
 11
130.0386798008945
 21
85.19924812625042
 31
0.0
 12
127.5386798008945
 22
85.6159147929171
 32
0.0
 13
127.5386798008945
 23
85.6159147929171
 33
0.0
  0
MTEXT
  5
2D9
330
2D2
100
AcDbEntity
  8
ANNOTATION_TEXT
 62
     7
100
AcDbMText
 10
130.1949286064183
 20
88.32351016076451
 30
0.0
 40
3.5
 41
0.0
 71
     5
 72
     1
  1
7,91
  7
ONSHAPE-STANDARD-DIMENSION
  0
POINT
  5
2DA
330
2D2
100
AcDbEntity
  8
DEFPOINTS
 62
     0
100
AcDbPoint
 10
135.4464988477638
 20
126.7468016834686
 30
0.0
  0
POINT
  5
2DB
330
2D2
100
AcDbEntity
  8
DEFPOINTS
 62
     0
100
AcDbPoint
 10
127.5386798008945
 20
126.7468016834686
 30
0.0
  0
POINT
  5
2DC
330
2D2
100
AcDbEntity
  8
DEFPOINTS
 62
     0
100
AcDbPoint
 10
127.5386798008945
 20
85.6159147929171
 30
0.0
  0
ENDBLK
  5
2DD
330
2D2
100
AcDbEntity
  8
0
100
AcDbBlockEnd
  0
BLOCK
  5
2E3
330
2E2
100
AcDbEntity
  8
0
100
AcDbBlockBegin
  2
*D29
 70
     1
 10
0.0
 20
0.0
 30
0.0
  3
*D29
  1
*D29
  0
LINE
  5
2E4
330
2E2
100
AcDbEntity
  8
ANNOTATION_TEXT
 62
     7
100
AcDbLine
 10
119.6611309694494
 20
128.3137227390049
 30
0.0
 11
119.6611309694494
 21
74.10866561142818
 31
0.0
  0
LINE
  5
2E5
330
2E2
100
AcDbEntity
  8
ANNOTATION_TEXT
 62
     7
100
AcDbLine
 10
143.0165819711054
 20
128.3137227390049
 30
0.0
 11
143.0165819711054
 21
74.10866561142818
 31
0.0
  0
LINE
  5
2E6
330
2E2
100
AcDbEntity
  8
ANNOTATION_TEXT
 62
     7
100
AcDbLine
 10
122.1611309694494
 20
75.35866561142818
 30
0.0
 11
140.5165819711054
 21
75.35866561142818
 31
0.0
  0
SOLID
  5
2E7
330
2E2
100
AcDbEntity
  8
ANNOTATION_TEXT
 62
     7
100
AcDbTrace
 10
122.1611309694494
 20
75.77533227809485
 30
0.0
 11
122.1611309694494
 21
74.94199894476151
 31
0.0
 12
119.6611309694494
 22
75.35866561142818
 32
0.0
 13
119.6611309694494
 23
75.35866561142818
 33
0.0
  0
SOLID
  5
2E8
330
2E2
100
AcDbEntity
  8
ANNOTATION_TEXT
 62
     7
100
AcDbTrace
 10
140.5165819711054
 20
74.94199894476151
 30
0.0
 11
140.5165819711054
 21
75.77533227809485
 31
0.0
 12
143.0165819711054
 22
75.35866561142818
 32
0.0
 13
143.0165819711054
 23
75.35866561142818
 33
0.0
  0
MTEXT
  5
2E9
330
2E2
100
AcDbEntity
  8
ANNOTATION_TEXT
 62
     7
100
AcDbMText
 10
132.8367883486609
 20
78.0662609792756
 30
0.0
 40
3.5
 41
0.0
 71
     5
 72
     1
  1
23,36
  7
ONSHAPE-STANDARD-DIMENSION
  0
POINT
  5
2EA
330
2E2
100
AcDbEntity
  8
DEFPOINTS
 62
     0
100
AcDbPoint
 10
119.6611309694494
 20
128.9387227390049
 30
0.0
  0
POINT
  5
2EB
330
2E2
100
AcDbEntity
  8
DEFPOINTS
 62
     0
100
AcDbPoint
 10
143.0165819711054
 20
128.9387227390049
 30
0.0
  0
POINT
  5
2EC
330
2E2
100
AcDbEntity
  8
DEFPOINTS
 62
     0
100
AcDbPoint
 10
143.0165819711054
 20
75.35866561142818
 30
0.0
  0
ENDBLK
  5
2ED
330
2E2
100
AcDbEntity
  8
0
100
AcDbBlockEnd
  0
BLOCK
  5
2F3
330
2F2
100
AcDbEntity
  8
0
100
AcDbBlockBegin
  2
*D30
 70
     1
 10
0.0
 20
0.0
 30
0.0
  3
*D30
  1
*D30
  0
LINE
  5
2F4
330
2F2
100
AcDbEntity
  8
ANNOTATION_TEXT
 62
     7
100
AcDbLine
 10
127.5386798008945
 20
126.1218016834686
 30
0.0
 11
127.5386798008945
 21
90.51840396773524
 31
0.0
  0
LINE
  5
2F5
330
2F2
100
AcDbEntity
  8
ANNOTATION_TEXT
 62
     7
100
AcDbLine
 10
119.6611309694494
 20
128.3137227390049
 30
0.0
 11
119.6611309694494
 21
90.51840396773524
 31
0.0
  0
LINE
  5
2F6
330
2F2
100
AcDbEntity
  8
ANNOTATION_TEXT
 62
     7
100
AcDbLine
 10
125.0386798008945
 20
91.76840396773524
 30
0.0
 11
122.1611309694494
 21
91.76840396773524
 31
0.0
  0
SOLID
  5
2F7
330
2F2
100
AcDbEntity
  8
ANNOTATION_TEXT
 62
     7
100
AcDbTrace
 10
125.0386798008945
 20
91.35173730106857
 30
0.0
 11
125.0386798008945
 21
92.18507063440191
 31
0.0
 12
127.5386798008945
 22
91.76840396773524
 32
0.0
 13
127.5386798008945
 23
91.76840396773524
 33
0.0
  0
SOLID
  5
2F8
330
2F2
100
AcDbEntity
  8
ANNOTATION_TEXT
 62
     7
100
AcDbTrace
 10
122.1611309694494
 20
92.18507063440191
 30
0.0
 11
122.1611309694494
 21
91.35173730106857
 31
0.0
 12
119.6611309694494
 22
91.76840396773524
 32
0.0
 13
119.6611309694494
 23
91.76840396773524
 33
0.0
  0
MTEXT
  5
2F9
330
2F2
100
AcDbEntity
  8
ANNOTATION_TEXT
 62
     7
100
AcDbMText
 10
123.038167603528
 20
94.47599933558266
 30
0.0
 40
3.5
 41
0.0
 71
     5
 72
     1
  1
7,88
  7
ONSHAPE-STANDARD-DIMENSION
  0
POINT
  5
2FA
330
2F2
100
AcDbEntity
  8
DEFPOINTS
 62
     0
100
AcDbPoint
 10
127.5386798008945
 20
126.7468016834686
 30
0.0
  0
POINT
  5
2FB
330
2F2
100
AcDbEntity
  8
DEFPOINTS
 62
     0
100
AcDbPoint
 10
119.6611309694494
 20
128.9387227390049
 30
0.0
  0
POINT
  5
2FC
330
2F2
100
AcDbEntity
  8
DEFPOINTS
 62
     0
100
AcDbPoint
 10
119.6611309694494
 20
91.76840396773524
 30
0.0
  0
ENDBLK
  5
2FD
330
2F2
100
AcDbEntity
  8
0
100
AcDbBlockEnd
  0
BLOCK
  5
303
330
302
100
AcDbEntity
  8
0
100
AcDbBlockBegin
  2
*D31
 70
     1
 10
0.0
 20
0.0
 30
0.0
  3
*D31
  1
*D31
  0
LINE
  5
304
330
302
100
AcDbEntity
  8
ANNOTATION_TEXT
 62
     7
100
AcDbLine
 10
155.3945098571369
 20
127.5628035755584
 30
0.0
 11
155.3945098571369
 21
93.45672713674405
 31
0.0
  0
LINE
  5
305
330
302
100
AcDbEntity
  8
ANNOTATION_TEXT
 62
     7
100
AcDbLine
 10
159.7128756843397
 20
128.289334835274
 30
0.0
 11
159.7128756843397
 21
93.45672713674405
 31
0.0
  0
LINE
  5
306
330
302
100
AcDbEntity
  8
ANNOTATION_TEXT
 62
     7
100
AcDbLine
 10
155.3945098571369
 20
94.70672713674405
 30
0.0
 11
159.7128756843397
 21
94.70672713674405
 31
0.0
  0
LINE
  5
307
330
302
100
AcDbEntity
  8
ANNOTATION_TEXT
 62
     7
100
AcDbLine
 10
152.8945098571369
 20
94.70672713674405
 30
0.0
 11
150.3945098571369
 21
94.70672713674405
 31
0.0
  0
LINE
  5
308
330
302
100
AcDbEntity
  8
ANNOTATION_TEXT
 62
     7
100
AcDbLine
 10
162.2128756843397
 20
94.70672713674405
 30
0.0
 11
164.7128756843397
 21
94.70672713674405
 31
0.0
  0
SOLID
  5
309
330
302
100
AcDbEntity
  8
ANNOTATION_TEXT
 62
     7
100
AcDbTrace
 10
152.8945098571369
 20
94.29006047007738
 30
0.0
 11
152.8945098571369
 21
95.12339380341072
 31
0.0
 12
155.3945098571369
 22
94.70672713674405
 32
0.0
 13
155.3945098571369
 23
94.70672713674405
 33
0.0
  0
SOLID
  5
30A
330
302
100
AcDbEntity
  8
ANNOTATION_TEXT
 62
     7
100
AcDbTrace
 10
162.2128756843397
 20
95.12339380341072
 30
0.0
 11
162.2128756843397
 21
94.29006047007738
 31
0.0
 12
159.7128756843397
 22
94.70672713674405
 32
0.0
 13
159.7128756843397
 23
94.70672713674405
 33
0.0
  0
MTEXT
  5
30B
330
302
100
AcDbEntity
  8
ANNOTATION_TEXT
 62
     7
100
AcDbMText
 10
157.1591955607939
 20
97.41432250459147
 30
0.0
 40
3.5
 41
0.0
 71
     5
 72
     1
  1
4,32
  7
ONSHAPE-STANDARD-DIMENSION
  0
POINT
  5
30C
330
302
100
AcDbEntity
  8
DEFPOINTS
 62
     0
100
AcDbPoint
 10
155.3945098571369
 20
128.1878035755584
 30
0.0
  0
POINT
  5
30D
330
302
100
AcDbEntity
  8
DEFPOINTS
 62
     0
100
AcDbPoint
 10
159.7128756843397
 20
128.914334835274
 30
0.0
  0
POINT
  5
30E
330
302
100
AcDbEntity
  8
DEFPOINTS
 62
     0
100
AcDbPoint
 10
159.7128756843397
 20
94.70672713674405
 30
0.0
  0
ENDBLK
  5
30F
330
302
100
AcDbEntity
  8
0
100
AcDbBlockEnd
  0
BLOCK
  5
315
330
314
100
AcDbEntity
  8
0
100
AcDbBlockBegin
  2
*D32
 70
     1
 10
0.0
 20
0.0
 30
0.0
  3
*D32
  1
*D32
  0
LINE
  5
316
330
314
100
AcDbEntity
  8
ANNOTATION_TEXT
 62
     7
100
AcDbLine
 10
119.6611309694494
 20
128.3137227390049
 30
0.0
 11
119.6611309694494
 21
80.14712188199692
 31
0.0
  0
LINE
  5
317
330
314
100
AcDbEntity
  8
ANNOTATION_TEXT
 62
     7
100
AcDbLine
 10
111.6102111755725
 20
134.674070409095
 30
0.0
 11
111.6102111755725
 21
80.14712188199692
 31
0.0
  0
LINE
  5
318
330
314
100
AcDbEntity
  8
ANNOTATION_TEXT
 62
     7
100
AcDbLine
 10
117.1611309694494
 20
81.39712188199692
 30
0.0
 11
114.1102111755725
 21
81.39712188199692
 31
0.0
  0
SOLID
  5
319
330
314
100
AcDbEntity
  8
ANNOTATION_TEXT
 62
     7
100
AcDbTrace
 10
117.1611309694494
 20
80.98045521533025
 30
0.0
 11
117.1611309694494
 21
81.8137885486636
 31
0.0
 12
119.6611309694494
 22
81.39712188199692
 32
0.0
 13
119.6611309694494
 23
81.39712188199692
 33
0.0
  0
SOLID
  5
31A
330
314
100
AcDbEntity
  8
ANNOTATION_TEXT
 62
     7
100
AcDbTrace
 10
114.1102111755725
 20
81.8137885486636
 30
0.0
 11
114.1102111755725
 21
80.98045521533025
 31
0.0
 12
111.6102111755725
 22
81.39712188199692
 32
0.0
 13
111.6102111755725
 23
81.39712188199692
 33
0.0
  0
MTEXT
  5
31B
330
314
100
AcDbEntity
  8
ANNOTATION_TEXT
 62
     7
100
AcDbMText
 10
115.6764911755725
 20
84.10710144602962
 30
0.0
 40
3.5
 41
0.0
 71
     5
 72
     1
  1
8,05
  7
ONSHAPE-STANDARD-DIMENSION
  0
POINT
  5
31C
330
314
100
AcDbEntity
  8
DEFPOINTS
 62
     0
100
AcDbPoint
 10
119.6611309694494
 20
128.9387227390049
 30
0.0
  0
POINT
  5
31D
330
314
100
AcDbEntity
  8
DEFPOINTS
 62
     0
100
AcDbPoint
 10
111.6102111755725
 20
135.299070409095
 30
0.0
  0
POINT
  5
31E
330
314
100
AcDbEntity
  8
DEFPOINTS
 62
     0
100
AcDbPoint
 10
111.6102111755725
 20
81.39712188199692
 30
0.0
  0
ENDBLK
  5
31F
330
314
100
AcDbEntity
  8
0
100
AcDbBlockEnd
  0
ENDSEC
  0
SECTION
  2
ENTITIES
  0
LINE
  5
72
330
1F
100
AcDbEntity
  8
BORDER_FRAME
100
AcDbLine
 10
20.0
 20
10.0
 30
0.0
 11
20.0
 21
200.0
 31
0.0
  0
LINE
  5
75
330
1F
100
AcDbEntity
  8
BORDER_FRAME
100
AcDbLine
 10
20.0
 20
200.0
 30
0.0
 11
297.0
 21
200.0
 31
0.0
  0
LINE
  5
76
330
1F
100
AcDbEntity
  8
BORDER_FRAME
100
AcDbLine
 10
297.0
 20
200.0
 30
0.0
 11
297.0
 21
10.0
 31
0.0
  0
LINE
  5
77
330
1F
100
AcDbEntity
  8
BORDER_FRAME
100
AcDbLine
 10
297.0
 20
10.0
 30
0.0
 11
20.0
 21
10.0
 31
0.0
  0
LINE
  5
78
330
1F
100
AcDbEntity
  8
TITLE_BLOCK
100
AcDbLine
 10
135.075
 20
10.0
 30
0.0
 11
135.075
 21
48.09999999999999
 31
0.0
  0
LINE
  5
7A
330
1F
100
AcDbEntity
  8
TITLE_BLOCK
100
AcDbLine
 10
135.075
 20
10.0
 30
0.0
 11
165.555
 21
10.0
 31
0.0
  0
LINE
  5
7B
330
1F
100
AcDbEntity
  8
TITLE_BLOCK
100
AcDbLine
 10
135.075
 20
17.62
 30
0.0
 11
165.555
 21
17.62
 31
0.0
  0
LINE
  5
7C
330
1F
100
AcDbEntity
  8
TITLE_BLOCK
100
AcDbLine
 10
135.075
 20
20.668
 30
0.0
 11
165.555
 21
20.668
 31
0.0
  0
LINE
  5
7D
330
1F
100
AcDbEntity
  8
TITLE_BLOCK
100
AcDbLine
 10
135.075
 20
25.8496
 30
0.0
 11
165.555
 21
25.8496
 31
0.0
  0
LINE
  5
7E
330
1F
100
AcDbEntity
  8
TITLE_BLOCK
100
AcDbLine
 10
135.075
 20
30.2692
 30
0.0
 11
165.555
 21
30.2692
 31
0.0
  0
LINE
  5
7F
330
1F
100
AcDbEntity
  8
TITLE_BLOCK
100
AcDbLine
 10
135.075
 20
48.09999999999999
 30
0.0
 11
165.555
 21
48.09999999999999
 31
0.0
  0
MTEXT
  5
80
330
1F
100
AcDbEntity
  8
TITLE_BLOCK
100
AcDbMText
 10
135.74556
 20
47.00272
 30
0.0
 40
1.2192
 41
30.47999999999999
 71
     1
 72
     1
  1
UNLESS OTHERWISE SPECIFIED, DIMENSIONS ARE IN MILLIMETERS
  7
ONSHAPE-STANDARD
  0
MTEXT
  5
82
330
1F
100
AcDbEntity
  8
TITLE_BLOCK
100
AcDbMText
 10
150.315
 20
24.75232
 30
0.0
 40
1.2192
 41
30.47999999999999
 71
     2
 72
     1
  1
BREAK ALL SHARP EDGES AND REMOVE BURRS
  7
ONSHAPE-STANDARD
  0
CIRCLE
  5
83
330
1F
100
AcDbEntity
  8
TITLE_BLOCK
100
AcDbCircle
 10
153.744
 20
13.77952
 30
0.0
 40
1.3716
  0
CIRCLE
  5
84
330
1F
100
AcDbEntity
  8
TITLE_BLOCK
100
AcDbCircle
 10
153.744
 20
13.77952
 30
0.0
 40
2.743199999999999
  0
LINE
  5
85
330
1F
100
AcDbEntity
  8
TITLE_BLOCK
100
AcDbLine
 10
154.4298
 20
13.77952
 30
0.0
 11
153.0582
 21
13.77952
 31
0.0
  0
LINE
  5
86
330
1F
100
AcDbEntity
  8
TITLE_BLOCK
100
AcDbLine
 10
153.744
 20
14.46532
 30
0.0
 11
153.744
 21
13.09372
 31
0.0
  0
LINE
  5
87
330
1F
100
AcDbEntity
  8
TITLE_BLOCK
100
AcDbLine
 10
155.1156
 20
13.77952
 30
0.0
 11
157.173
 21
13.77952
 31
0.0
  0
LINE
  5
88
330
1F
100
AcDbEntity
  8
TITLE_BLOCK
100
AcDbLine
 10
153.744
 20
15.15112
 30
0.0
 11
153.744
 21
17.20852
 31
0.0
  0
LINE
  5
89
330
1F
100
AcDbEntity
  8
TITLE_BLOCK
100
AcDbLine
 10
152.3724
 20
13.77952
 30
0.0
 11
150.315
 21
13.77952
 31
0.0
  0
LINE
  5
8A
330
1F
100
AcDbEntity
  8
TITLE_BLOCK
100
AcDbLine
 10
153.744
 20
12.40792
 30
0.0
 11
153.744
 21
10.35052
 31
0.0
  0
LINE
  5
8B
330
1F
100
AcDbEntity
  8
TITLE_BLOCK
100
AcDbLine
 10
149.6292
 20
11.03632
 30
0.0
 11
149.6292
 21
16.52272
 31
0.0
  0
LINE
  5
8C
330
1F
100
AcDbEntity
  8
TITLE_BLOCK
100
AcDbLine
 10
149.6292
 20
16.52272
 30
0.0
 11
144.1428
 21
15.15112
 31
0.0
  0
LINE
  5
8D
330
1F
100
AcDbEntity
  8
TITLE_BLOCK
100
AcDbLine
 10
144.1428
 20
15.15112
 30
0.0
 11
144.1428
 21
12.40792
 31
0.0
  0
LINE
  5
8E
330
1F
100
AcDbEntity
  8
TITLE_BLOCK
100
AcDbLine
 10
144.1428
 20
12.40792
 30
0.0
 11
149.6292
 21
11.03632
 31
0.0
  0
LINE
  5
8F
330
1F
100
AcDbEntity
  8
TITLE_BLOCK
100
AcDbLine
 10
147.5718
 20
13.77952
 30
0.0
 11
149.9721
 21
13.77952
 31
0.0
  0
LINE
  5
90
330
1F
100
AcDbEntity
  8
TITLE_BLOCK
100
AcDbLine
 10
147.16032
 20
13.77952
 30
0.0
 11
146.61168
 21
13.77952
 31
0.0
  0
LINE
  5
91
330
1F
100
AcDbEntity
  8
TITLE_BLOCK
100
AcDbLine
 10
146.2002
 20
13.77952
 30
0.0
 11
143.7999
 21
13.77952
 31
0.0
  0
MTEXT
  5
92
330
1F
100
AcDbEntity
  8
TITLE_BLOCK
100
AcDbMText
 10
150.315
 20
19.57072
 30
0.0
 40
1.2192
 41
30.47999999999999
 71
     2
 72
     1
  1
FIRST ANGLE PROJECTION
  7
ONSHAPE-STANDARD
  0
LINE
  5
93
330
1F
100
AcDbEntity
  8
TITLE_BLOCK
100
AcDbLine
 10
165.555
 20
10.0
 30
0.0
 11
165.555
 21
48.09999999999999
 31
0.0
  0
LINE
  5
94
330
1F
100
AcDbEntity
  8
TITLE_BLOCK
100
AcDbLine
 10
178.89
 20
20.668
 30
0.0
 11
178.89
 21
48.09999999999999
 31
0.0
  0
LINE
  5
95
330
1F
100
AcDbEntity
  8
TITLE_BLOCK
100
AcDbLine
 10
194.13
 20
20.668
 30
0.0
 11
194.13
 21
48.09999999999999
 31
0.0
  0
LINE
  5
96
330
1F
100
AcDbEntity
  8
TITLE_BLOCK
100
AcDbLine
 10
192.225
 20
10.0
 30
0.0
 11
192.225
 21
20.668
 31
0.0
  0
MTEXT
  5
97
330
1F
100
AcDbEntity
  8
TITLE_BLOCK
100
AcDbMText
 10
201.75
 20
47.00272
 30
0.0
 40
1.2192
 41
15.24000000000001
 71
     2
 72
     1
  1
SIGNATURE
  7
ONSHAPE-STANDARD
  0
LINE
  5
98
330
1F
100
AcDbEntity
  8
TITLE_BLOCK
100
AcDbLine
 10
209.37
 20
20.668
 30
0.0
 11
209.37
 21
48.09999999999999
 31
0.0
  0
LINE
  5
99
330
1F
100
AcDbEntity
  8
TITLE_BLOCK
100
AcDbLine
 10
165.555
 20
48.09999999999999
 30
0.0
 11
218.895
 21
48.09999999999999
 31
0.0
  0
LINE
  5
9A
330
1F
100
AcDbEntity
  8
TITLE_BLOCK
100
AcDbLine
 10
165.555
 20
43.528
 30
0.0
 11
218.895
 21
43.528
 31
0.0
  0
LINE
  5
9B
330
1F
100
AcDbEntity
  8
TITLE_BLOCK
100
AcDbLine
 10
165.555
 20
38.956
 30
0.0
 11
218.895
 21
38.956
 31
0.0
  0
LINE
  5
9C
330
1F
100
AcDbEntity
  8
TITLE_BLOCK
100
AcDbLine
 10
165.555
 20
34.384
 30
0.0
 11
218.895
 21
34.384
 31
0.0
  0
LINE
  5
9D
330
1F
100
AcDbEntity
  8
TITLE_BLOCK
100
AcDbLine
 10
165.555
 20
29.812
 30
0.0
 11
218.895
 21
29.812
 31
0.0
  0
LINE
  5
9E
330
1F
100
AcDbEntity
  8
TITLE_BLOCK
100
AcDbLine
 10
165.555
 20
25.24
 30
0.0
 11
218.895
 21
25.24
 31
0.0
  0
LINE
  5
9F
330
1F
100
AcDbEntity
  8
TITLE_BLOCK
100
AcDbLine
 10
165.555
 20
20.668
 30
0.0
 11
218.895
 21
20.668
 31
0.0
  0
MTEXT
  5
A0
330
1F
100
AcDbEntity
  8
TITLE_BLOCK
100
AcDbMText
 10
179.56056
 20
47.00272
 30
0.0
 40
1.2192
 41
15.23999999999998
 71
     1
 72
     1
  1
NAME
  7
ONSHAPE-STANDARD
  0
MTEXT
  5
A1
330
1F
100
AcDbEntity
  8
TITLE_BLOCK
100
AcDbMText
 10
214.1325
 20
47.00272
 30
0.0
 40
1.2192
 41
9.525000000000006
 71
     2
 72
     1
  1
DATE
  7
ONSHAPE-STANDARD
  0
MTEXT
  5
A2
330
1F
100
AcDbEntity
  8
TITLE_BLOCK
100
AcDbMText
 10
166.22556
 20
42.43072
 30
0.0
 40
1.2192
 41
13.33500000000001
 71
     1
 72
     1
  1
DRAWN
  7
ONSHAPE-STANDARD
  0
MTEXT
  5
A3
102
{ACAD_XDICTIONARY
360
A4
102
}
330
1F
100
AcDbEntity
  8
TITLE_BLOCK
100
AcDbMText
 10
186.51
 20
41.242
 30
0.0
 40
1.024128
 41
15.23999999999998
 71
     5
 72
     1
  1
ALOIS MBUTURA
  7
ONSHAPE-STANDARD-FIELDS
1001
ACAD
1000
ACAD_MTEXT_DEFINED_HEIGHT_BEGIN
1070
    46
1040
4.572000000000003
1000
ACAD_MTEXT_DEFINED_HEIGHT_END
  0
MTEXT
  5
AA
102
{ACAD_XDICTIONARY
360
AB
102
}
330
1F
100
AcDbEntity
  8
TITLE_BLOCK
100
AcDbMText
 10
214.1325
 20
41.242
 30
0.0
 40
1.024128
 41
9.525000000000006
 71
     5
 72
     1
  1
2019-02-26
  7
ONSHAPE-STANDARD-FIELDS
1001
ACAD
1000
ACAD_MTEXT_DEFINED_HEIGHT_BEGIN
1070
    46
1040
4.572000000000003
1000
ACAD_MTEXT_DEFINED_HEIGHT_END
  0
MTEXT
  5
B0
330
1F
100
AcDbEntity
  8
TITLE_BLOCK
100
AcDbMText
 10
166.22556
 20
37.85872
 30
0.0
 40
1.2192
 41
13.33500000000001
 71
     1
 72
     1
  1
CHECKED
  7
ONSHAPE-STANDARD
  0
MTEXT
  5
B1
330
1F
100
AcDbEntity
  8
TITLE_BLOCK
100
AcDbMText
 10
186.51
 20
36.67
 30
0.0
 40
1.024128
 41
15.23999999999998
 71
     5
 72
     1
  1
 
  7
ONSHAPE-STANDARD-FIELDS
1001
ACAD
1000
ACAD_MTEXT_DEFINED_HEIGHT_BEGIN
1070
    46
1040
4.571999999999996
1000
ACAD_MTEXT_DEFINED_HEIGHT_END
  0
MTEXT
  5
B2
330
1F
100
AcDbEntity
  8
TITLE_BLOCK
100
AcDbMText
 10
214.1325
 20
36.67
 30
0.0
 40
1.024128
 41
9.525000000000006
 71
     5
 72
     1
  1
 
  7
ONSHAPE-STANDARD-FIELDS
1001
ACAD
1000
ACAD_MTEXT_DEFINED_HEIGHT_BEGIN
1070
    46
1040
4.571999999999996
1000
ACAD_MTEXT_DEFINED_HEIGHT_END
  0
MTEXT
  5
B3
330
1F
100
AcDbEntity
  8
TITLE_BLOCK
100
AcDbMText
 10
166.22556
 20
33.28672
 30
0.0
 40
1.2192
 41
13.33500000000001
 71
     1
 72
     1
  1
APPROVED
  7
ONSHAPE-STANDARD
  0
MTEXT
  5
B4
102
{ACAD_XDICTIONARY
360
B5
102
}
330
1F
100
AcDbEntity
  8
TITLE_BLOCK
100
AcDbMText
 10
186.51
 20
32.098
 30
0.0
 40
1.024128
 41
15.24000000000001
 71
     5
 72
     1
  1
Alois Mbutura}
  7
ONSHAPE-STANDARD-FIELDS
1001
ACAD
1000
ACAD_MTEXT_DEFINED_HEIGHT_BEGIN
1070
    46
1040
1.038080697547684
1000
ACAD_MTEXT_DEFINED_HEIGHT_END
  0
MTEXT
  5
B6
102
{ACAD_XDICTIONARY
360
B7
102
}
330
1F
100
AcDbEntity
  8
TITLE_BLOCK
100
AcDbMText
 10
214.1325
 20
32.098
 30
0.0
 40
1.024128
 41
9.524999999999977
 71
     5
 72
     1
  1
2019-02-27}
  7
ONSHAPE-STANDARD-FIELDS
1001
ACAD
1000
ACAD_MTEXT_DEFINED_HEIGHT_BEGIN
1070
    46
1040
1.038080697547684
1000
ACAD_MTEXT_DEFINED_HEIGHT_END
  0
MTEXT
  5
B8
330
1F
100
AcDbEntity
  8
TITLE_BLOCK
100
AcDbMText
 10
172.2225
 20
27.526
 30
0.0
 40
1.8288
 41
13.33500000000001
 71
     5
 72
     1
  1
 
  7
ONSHAPE-STANDARD-FIELDS
1001
ACAD
1000
ACAD_MTEXT_DEFINED_HEIGHT_BEGIN
1070
    46
1040
4.571999999999999
1000
ACAD_MTEXT_DEFINED_HEIGHT_END
  0
MTEXT
  5
B9
330
1F
100
AcDbEntity
  8
TITLE_BLOCK
100
AcDbMText
 10
186.51
 20
27.526
 30
0.0
 40
1.024128
 41
15.23999999999998
 71
     5
 72
     1
  1
 
  7
ONSHAPE-STANDARD-FIELDS
1001
ACAD
1000
ACAD_MTEXT_DEFINED_HEIGHT_BEGIN
1070
    46
1040
4.571999999999999
1000
ACAD_MTEXT_DEFINED_HEIGHT_END
  0
MTEXT
  5
BA
330
1F
100
AcDbEntity
  8
TITLE_BLOCK
100
AcDbMText
 10
214.1325
 20
27.526
 30
0.0
 40
1.024128
 41
9.525000000000006
 71
     5
 72
     1
  1
 
  7
ONSHAPE-STANDARD-FIELDS
1001
ACAD
1000
ACAD_MTEXT_DEFINED_HEIGHT_BEGIN
1070
    46
1040
4.571999999999999
1000
ACAD_MTEXT_DEFINED_HEIGHT_END
  0
MTEXT
  5
BB
330
1F
100
AcDbEntity
  8
TITLE_BLOCK
100
AcDbMText
 10
172.2225
 20
22.954
 30
0.0
 40
1.8288
 41
13.33500000000001
 71
     5
 72
     1
  1
 
  7
ONSHAPE-STANDARD-FIELDS
1001
ACAD
1000
ACAD_MTEXT_DEFINED_HEIGHT_BEGIN
1070
    46
1040
4.571999999999999
1000
ACAD_MTEXT_DEFINED_HEIGHT_END
  0
MTEXT
  5
BC
330
1F
100
AcDbEntity
  8
TITLE_BLOCK
100
AcDbMText
 10
186.51
 20
22.954
 30
0.0
 40
1.024128
 41
15.23999999999998
 71
     5
 72
     1
  1
 
  7
ONSHAPE-STANDARD-FIELDS
1001
ACAD
1000
ACAD_MTEXT_DEFINED_HEIGHT_BEGIN
1070
    46
1040
4.571999999999999
1000
ACAD_MTEXT_DEFINED_HEIGHT_END
  0
MTEXT
  5
BD
330
1F
100
AcDbEntity
  8
TITLE_BLOCK
100
AcDbMText
 10
214.1325
 20
22.954
 30
0.0
 40
1.024128
 41
9.525000000000006
 71
     5
 72
     1
  1
 
  7
ONSHAPE-STANDARD-FIELDS
1001
ACAD
1000
ACAD_MTEXT_DEFINED_HEIGHT_BEGIN
1070
    46
1040
4.571999999999999
1000
ACAD_MTEXT_DEFINED_HEIGHT_END
  0
MTEXT
  5
BE
330
1F
100
AcDbEntity
  8
TITLE_BLOCK
100
AcDbMText
 10
166.22556
 20
19.57072
 30
0.0
 40
1.2192
 41
26.67000000000002
 71
     1
 72
     1
  1
MATERIAL
  7
ONSHAPE-STANDARD
  0
MTEXT
  5
BF
102
{ACAD_XDICTIONARY
360
3B1
102
}
330
1F
100
AcDbEntity
  8
TITLE_BLOCK
100
AcDbMText
 10
178.89
 20
15.334
 30
0.0
 40
1.8288
 41
26.67000000000002
 71
     5
 72
     1
  1
Aluminum }
  7
ONSHAPE-STANDARD-FIELDS
1001
ACAD
1000
ACAD_MTEXT_DEFINED_HEIGHT_BEGIN
1070
    46
1040
1.85371553133515
1000
ACAD_MTEXT_DEFINED_HEIGHT_END
  0
MTEXT
  5
C0
330
1F
100
AcDbEntity
  8
TITLE_BLOCK
100
AcDbMText
 10
192.89556
 20
19.57072
 30
0.0
 40
1.2192
 41
26.66999999999999
 71
     1
 72
     1
  1
FINISH
  7
ONSHAPE-STANDARD
  0
MTEXT
  5
C1
330
1F
100
AcDbEntity
  8
TITLE_BLOCK
100
AcDbMText
 10
205.56
 20
15.334
 30
0.0
 40
1.8288
 41
26.66999999999999
 71
     5
 72
     1
  1
 
  7
ONSHAPE-STANDARD-FIELDS
1001
ACAD
1000
ACAD_MTEXT_DEFINED_HEIGHT_BEGIN
1070
    46
1040
10.668
1000
ACAD_MTEXT_DEFINED_HEIGHT_END
  0
LINE
  5
C2
330
1F
100
AcDbEntity
  8
TITLE_BLOCK
100
AcDbLine
 10
218.895
 20
10.0
 30
0.0
 11
218.895
 21
48.09999999999999
 31
0.0
  0
LINE
  5
C3
330
1F
100
AcDbEntity
  8
TITLE_BLOCK
100
AcDbLine
 10
228.42
 20
14.953
 30
0.0
 11
228.42
 21
22.573
 31
0.0
  0
LINE
  5
C4
330
1F
100
AcDbEntity
  8
TITLE_BLOCK
100
AcDbLine
 10
235.659
 20
10.0
 30
0.0
 11
235.659
 21
14.953
 31
0.0
  0
LINE
  5
C5
330
1F
100
AcDbEntity
  8
TITLE_BLOCK
100
AcDbLine
 10
270.33
 20
10.0
 30
0.0
 11
270.33
 21
14.953
 31
0.0
  0
LINE
  5
C6
330
1F
100
AcDbEntity
  8
TITLE_BLOCK
100
AcDbLine
 10
289.38
 20
14.953
 30
0.0
 11
289.38
 21
22.573
 31
0.0
  0
LINE
  5
C7
330
1F
100
AcDbEntity
  8
TITLE_BLOCK
100
AcDbLine
 10
218.895
 20
14.953
 30
0.0
 11
297.0
 21
14.953
 31
0.0
  0
LINE
  5
C8
330
1F
100
AcDbEntity
  8
TITLE_BLOCK
100
AcDbLine
 10
218.895
 20
22.573
 30
0.0
 11
297.0
 21
22.573
 31
0.0
  0
LINE
  5
C9
330
1F
100
AcDbEntity
  8
TITLE_BLOCK
100
AcDbLine
 10
218.895
 20
38.575
 30
0.0
 11
297.0
 21
38.575
 31
0.0
  0
LINE
  5
CA
330
1F
100
AcDbEntity
  8
TITLE_BLOCK
100
AcDbLine
 10
218.895
 20
48.09999999999999
 30
0.0
 11
297.0
 21
48.09999999999999
 31
0.0
  0
MTEXT
  5
CB
330
1F
100
AcDbEntity
  8
TITLE_BLOCK
100
AcDbMText
 10
219.56556
 20
37.47772
 30
0.0
 40
1.2192
 41
9.525000000000006
 71
     1
 72
     1
  1
TITLE
  7
ONSHAPE-STANDARD
  0
MTEXT
  5
CC
102
{ACAD_XDICTIONARY
360
CD
102
}
330
1F
100
AcDbEntity
  8
TITLE_BLOCK
100
AcDbMText
 10
257.9475
 20
35.52699999999999
 30
0.0
 40
2.92608
 41
70.48500000000001
 71
     5
 72
     1
  1
Kaiote AQ}
  7
ONSHAPE-STANDARD-FIELDS
1001
ACAD
1000
ACAD_MTEXT_DEFINED_HEIGHT_BEGIN
1070
    46
1040
3.619728392370572
1000
ACAD_MTEXT_DEFINED_HEIGHT_END
  0
MTEXT
  5
CE
102
{ACAD_XDICTIONARY
360
CF
102
}
330
1F
100
AcDbEntity
  8
TITLE_BLOCK
100
AcDbMText
 10
257.9475
 20
30.7264
 30
0.0
 40
2.92608
 41
70.48500000000001
 71
     5
 72
     1
  1
Enclosure frontplate}
  7
ONSHAPE-STANDARD-FIELDS
1001
ACAD
1000
ACAD_MTEXT_DEFINED_HEIGHT_BEGIN
1070
    46
1040
2.96594485013624
1000
ACAD_MTEXT_DEFINED_HEIGHT_END
  0
MTEXT
  5
D0
102
{ACAD_XDICTIONARY
360
D1
102
}
330
1F
100
AcDbEntity
  8
TITLE_BLOCK
100
AcDbMText
 10
257.9475
 20
25.9258
 30
0.0
 40
2.92608
 41
70.48499999999999
 71
     5
 72
     1
  1
----
  7
ONSHAPE-STANDARD-FIELDS
1001
ACAD
1000
ACAD_MTEXT_DEFINED_HEIGHT_BEGIN
1070
    46
1040
4.800599999999998
1000
ACAD_MTEXT_DEFINED_HEIGHT_END
  0
MTEXT
  5
D6
330
1F
100
AcDbEntity
  8
TITLE_BLOCK
100
AcDbMText
 10
219.431448
 20
21.695176
 30
0.0
 40
0.9753599999999999
 41
9.525000000000006
 71
     1
 72
     1
  1
SIZE
  7
ONSHAPE-STANDARD
  0
MTEXT
  5
D7
102
{ACAD_XDICTIONARY
360
D8
102
}
330
1F
100
AcDbEntity
  8
TITLE_BLOCK
100
AcDbMText
 10
223.6575
 20
18.763
 30
0.0
 40
3.6576
 41
9.525000000000006
 71
     5
 72
     1
  1
A4
  7
ONSHAPE-STANDARD-FIELDS
1001
ACAD
1000
ACAD_MTEXT_DEFINED_HEIGHT_BEGIN
1070
    46
1040
7.620000000000001
1000
ACAD_MTEXT_DEFINED_HEIGHT_END
  0
MTEXT
  5
DD
330
1F
100
AcDbEntity
  8
TITLE_BLOCK
100
AcDbMText
 10
228.956448
 20
21.695176
 30
0.0
 40
0.9753599999999999
 41
60.95999999999998
 71
     1
 72
     1
  1
DWG NO.
  7
ONSHAPE-STANDARD
  0
MTEXT
  5
DE
102
{ACAD_XDICTIONARY
360
DF
102
}
330
1F
100
AcDbEntity
  8
TITLE_BLOCK
100
AcDbMText
 10
258.9
 20
18.763
 30
0.0
 40
3.6576
 41
60.95999999999998
 71
     5
 72
     1
  1
1}
  7
ONSHAPE-STANDARD-FIELDS
1001
ACAD
1000
ACAD_MTEXT_DEFINED_HEIGHT_BEGIN
1070
    46
1040
3.6576
1000
ACAD_MTEXT_DEFINED_HEIGHT_END
  0
MTEXT
  5
E0
330
1F
100
AcDbEntity
  8
TITLE_BLOCK
100
AcDbMText
 10
289.916448
 20
21.695176
 30
0.0
 40
0.9753599999999999
 41
7.620000000000005
 71
     1
 72
     1
  1
REV.
  7
ONSHAPE-STANDARD
  0
MTEXT
  5
E1
102
{ACAD_XDICTIONARY
360
E2
102
}
330
1F
100
AcDbEntity
  8
TITLE_BLOCK
100
AcDbMText
 10
293.571
 20
18.763
 30
0.0
 40
3.6576
 41
6.857999999999947
 71
     5
 72
     1
  1
1}
  7
ONSHAPE-STANDARD-FIELDS
1001
ACAD
1000
ACAD_MTEXT_DEFINED_HEIGHT_BEGIN
1070
    46
1040
3.6576
1000
ACAD_MTEXT_DEFINED_HEIGHT_END
  0
MTEXT
  5
E3
330
1F
100
AcDbEntity
  8
TITLE_BLOCK
100
AcDbMText
 10
219.431448
 20
14.075176
 30
0.0
 40
0.9753599999999999
 41
16.76399999999998
 71
     1
 72
     1
  1
SCALE
  7
ONSHAPE-STANDARD
  0
MTEXT
  5
E4
102
{ACAD_XDICTIONARY
360
E5
102
}
330
1F
100
AcDbEntity
  8
TITLE_BLOCK
100
AcDbMText
 10
228.039
 20
12.4765
 30
0.0
 40
2.19456
 41
15.23999999999998
 71
     5
 72
     1
  1
1:1
  7
ONSHAPE-STANDARD-FIELDS
1001
ACAD
1000
ACAD_MTEXT_DEFINED_HEIGHT_BEGIN
1070
    46
1040
4.952999999999999
1000
ACAD_MTEXT_DEFINED_HEIGHT_END
  0
MTEXT
  5
EA
330
1F
100
AcDbEntity
  8
TITLE_BLOCK
100
AcDbMText
 10
236.195448
 20
14.075176
 30
0.0
 40
0.9753599999999999
 41
34.67099999999999
 71
     1
 72
     1
  1
WEIGHT
  7
ONSHAPE-STANDARD
  0
MTEXT
  5
EB
330
1F
100
AcDbEntity
  8
TITLE_BLOCK
100
AcDbMText
 10
252.9945
 20
12.4765
 30
0.0
 40
2.19456
 41
34.67099999999999
 71
     5
 72
     1
  1
 
  7
ONSHAPE-STANDARD-FIELDS
1001
ACAD
1000
ACAD_MTEXT_DEFINED_HEIGHT_BEGIN
1070
    46
1040
4.952999999999999
1000
ACAD_MTEXT_DEFINED_HEIGHT_END
  0
MTEXT
  5
EC
330
1F
100
AcDbEntity
  8
TITLE_BLOCK
100
AcDbMText
 10
270.866448
 20
14.075176
 30
0.0
 40
0.9753599999999999
 41
26.67000000000002
 71
     1
 72
     1
  1
SHEET
  7
ONSHAPE-STANDARD
  0
MTEXT
  5
ED
102
{ACAD_XDICTIONARY
360
EE
102
}
330
1F
100
AcDbEntity
  8
TITLE_BLOCK
100
AcDbMText
 10
284.427
 20
12.4765
 30
0.0
 40
2.19456
 41
25.14600000000002
 71
     5
 72
     1
  1
1 of 1
  7
ONSHAPE-STANDARD-FIELDS
1001
ACAD
1000
ACAD_MTEXT_DEFINED_HEIGHT_BEGIN
1070
    46
1040
4.952999999999999
1000
ACAD_MTEXT_DEFINED_HEIGHT_END
  0
MTEXT
  5
F3
330
1F
100
AcDbEntity
  8
ANNOTATION_TEXT
 62
     7
 60
     1
100
AcDbMText
 10
154.5102111755725
 20
95.88882040909502
 30
0.0
 40
3.5
 41
0.0
 71
     2
 72
     1
  1

  7
ONSHAPE-STANDARD-VIEW-LABE
1001
ACAD
1000
ACAD_MTEXT_DEFINED_HEIGHT_BEGIN
1070
    46
1040
3.5
1000
ACAD_MTEXT_DEFINED_HEIGHT_END
  0
DIMENSION
  5
F6
102
{ACAD_REACTORS
102
}
102
{ACAD_XDICTIONARY
360
F7
102
}
330
1F
100
AcDbEntity
  8
ANNOTATION_TEXT
100
AcDbDimension
  2
*D1
 10
178.6847714833804
 20
85.6159147929171
 30
0.0
 11
175.6144251755726
 21
85.6159147929171
 31
0.0
 70
   160
  3
ONSHAPE-ISO-25$0
100
AcDbAlignedDimension
 13
169.0869242451974
 23
108.3268923924992
 33
-0.0000000000000069
 14
178.6847714833804
 24
108.3268923924992
 34
-0.0000000000000069
100
AcDbRotatedDimension
1001
ACAD
1000
DSTYLE
1002
{
1070
     4
1000
<>
1070
   144
1040
1.0
1070
     3
1000

1070
   288
1070
     1
1002
}
1001
ACAD_DIMASSOC_CALC_DIMLFAC
1040
-1.0
1001
ACAD_DIMASSOC_DIMLFAC
1040
-1.0
1001
ACAD_DIMASSOC_OVERRIDDEN_D
1040
0.0
  0
DIMENSION
  5
10D
102
{ACAD_REACTORS
102
}
102
{ACAD_XDICTIONARY
360
10E
102
}
330
1F
100
AcDbEntity
  8
ANNOTATION_TEXT
100
AcDbDimension
  2
*D2
 10
184.1672067098209
 20
71.04329077317955
 30
0.0
 11
171.9400411970803
 21
71.04329077317955
 31
0.0
 70
   160
  3
ONSHAPE-ISO-25$0
100
AcDbAlignedDimension
 13
159.7128756843397
 23
128.914334835274
 33
-0.0000000000000069
 14
184.1672067098209
 24
128.914334835274
 34
-0.0000000000000069
100
AcDbRotatedDimension
1001
ACAD
1000
DSTYLE
1002
{
1070
     4
1000
<>
1070
   144
1040
1.0
1070
     3
1000

1070
   288
1070
     1
1002
}
1001
ACAD_DIMASSOC_CALC_DIMLFAC
1040
-1.0
1001
ACAD_DIMASSOC_DIMLFAC
1040
-1.0
1001
ACAD_DIMASSOC_OVERRIDDEN_D
1040
0.0
  0
DIMENSION
  5
11E
102
{ACAD_REACTORS
102
}
102
{ACAD_XDICTIONARY
360
11F
102
}
330
1F
100
AcDbEntity
  8
ANNOTATION_TEXT
100
AcDbDimension
  2
*D3
 10
155.3945098571369
 20
85.6159147929171
 30
0.0
 11
151.7815772760476
 21
85.6159147929171
 31
0.0
 70
   160
  3
ONSHAPE-ISO-25$0
100
AcDbAlignedDimension
 13
147.4249539464602
 23
128.1878035755584
 33
-0.0000000000000069
 14
155.3945098571369
 24
128.1878035755584
 34
-0.0000000000000069
100
AcDbRotatedDimension
1001
ACAD
1000
DSTYLE
1002
{
1070
     4
1000
<>
1070
   144
1040
1.0
1070
     3
1000

1070
   288
1070
     1
1002
}
1001
ACAD_DIMASSOC_CALC_DIMLFAC
1040
-1.0
1001
ACAD_DIMASSOC_DIMLFAC
1040
-1.0
1001
ACAD_DIMASSOC_OVERRIDDEN_D
1040
0.0
  0
DIMENSION
  5
12F
102
{ACAD_REACTORS
102
}
102
{ACAD_XDICTIONARY
360
130
102
}
330
1F
100
AcDbEntity
  8
ANNOTATION_TEXT
100
AcDbDimension
  2
*D4
 10
111.6102111755725
 20
65.81939131813385
 30
0.0
 11
154.5102111755725
 21
65.81939131813385
 31
0.0
 70
   160
  3
ONSHAPE-ISO-25$0
100
AcDbAlignedDimension
 13
197.4102111755725
 23
103.928820409095
 33
-0.0000000000000069
 14
111.6102111755725
 24
103.928820409095
 34
-0.0000000000000069
100
AcDbRotatedDimension
1001
ACAD
1000
DSTYLE
1002
{
1070
     4
1000
<>
1070
   144
1040
1.0
1070
     3
1000

1070
   288
1070
     1
1002
}
1001
ACAD_DIMASSOC_CALC_DIMLFAC
1040
-1.0
1001
ACAD_DIMASSOC_DIMLFAC
1040
-1.0
1001
ACAD_DIMASSOC_OVERRIDDEN_D
1040
0.0
  0
DIMENSION
  5
140
102
{ACAD_REACTORS
102
}
102
{ACAD_XDICTIONARY
360
141
102
}
330
1F
100
AcDbEntity
  8
ANNOTATION_TEXT
100
AcDbDimension
  2
*D5
 10
193.7507615630349
 20
102.9782542817748
 30
-0.0000000000000069
 11
210.8746966051954
 21
117.6471038288001
 31
-0.0000000000000069
 70
   163
  1
8X\P<>
  3
ONSHAPE-ISO-25$3
100
AcDbDiametricDimension
 15
195.2696607881101
 25
104.2793865364152
 35
-0.0000000000000069
 40
0.0
1001
ACAD
1000
DSTYLE
1002
{
1070
     4
1000
<>
1070
   144
1040
1.0
1070
    44
1040
0.261799
1070
     3
1000
%%c<>
1070
   288
1070
     1
1002
}
1001
ACAD_DSTYLE_DIMRADIAL_EXTE
1070
   387
1070
     1
1070
   388
1040
0.0
1070
   390
1040
6.283185307179586
1001
ACAD_DIMASSOC_CALC_DIMLFAC
1040
-1.0
1001
ACAD_DIMASSOC_DIMLFAC
1040
-1.0
1001
ACAD_DIMASSOC_OVERRIDDEN_D
1040
0.0
  0
DIMENSION
  5
151
102
{ACAD_REACTORS
102
}
102
{ACAD_XDICTIONARY
360
152
102
}
330
1F
100
AcDbEntity
  8
ANNOTATION_TEXT
100
AcDbDimension
  2
*D6
 10
195.4102111755725
 20
103.928820409095
 30
-0.0000000000000069
 11
212.5349427628886
 21
104.618354986884
 31
-0.0000000000000069
 70
   164
  1
6X\P<>
  3
ONSHAPE-ISO-25$4
100
AcDbRadialDimension
 15
197.4085918400158
 25
104.0092860538085
 35
-0.0000000000000069
 40
0.0
1001
ACAD
1000
DSTYLE
1002
{
1070
   287
1070
     0
1070
     4
1000
<>
1070
   144
1040
1.0
1070
    44
1040
0.523598
1070
   172
1070
     0
1070
   289
1070
     0
1070
     3
1000
R<>
1070
   288
1070
     1
1002
}
1001
ACAD_DSTYLE_DIMRADIAL_EXTE
1070
   387
1070
     1
1070
   388
1040
4.71238898038469
1070
   390
1040
0.0
1001
ACAD_DIMASSOC_CALC_DIMLFAC
1040
-1.0
1001
ACAD_DIMASSOC_DIMLFAC
1040
-1.0
1001
ACAD_DIMASSOC_OVERRIDDEN_D
1040
0.0
  0
DIMENSION
  5
15F
102
{ACAD_REACTORS
102
}
102
{ACAD_XDICTIONARY
360
160
102
}
330
1F
100
AcDbEntity
  8
ANNOTATION_TEXT
100
AcDbDimension
  2
*D7
 10
105.0325296025527
 20
131.5678879858682
 30
0.0
 11
105.0325296025527
 21
144.2667155957291
 31
0.0
 70
   161
  3
ONSHAPE-ISO-25$0
100
AcDbAlignedDimension
 13
147.4249539464602
 23
128.1878035755584
 33
-0.0000000000000069
 14
147.4249539464602
 24
131.5678879858682
 34
-0.0000000000000069
1001
ACAD
1000
DSTYLE
1002
{
1070
     4
1000
<>
1070
   144
1040
1.0
1070
     3
1000

1070
   288
1070
     1
1002
}
1001
ACAD_DIMASSOC_CALC_DIMLFAC
1040
-1.0
1001
ACAD_DIMASSOC_DIMLFAC
1040
-1.0
1001
ACAD_DIMASSOC_OVERRIDDEN_D
1040
0.0
  0
DIMENSION
  5
173
102
{ACAD_REACTORS
102
}
102
{ACAD_XDICTIONARY
360
174
102
}
330
1F
100
AcDbEntity
  8
ANNOTATION_TEXT
100
AcDbDimension
  2
*D8
 10
73.17085101505977
 20
101.928820409095
 30
0.0
 11
73.17085101505977
 21
118.775855050218
 31
0.0
 70
   160
  3
ONSHAPE-ISO-25$0
100
AcDbAlignedDimension
 13
113.6102111755725
 23
137.299070409095
 33
-0.0000000000000069
 14
113.6102111755725
 24
101.928820409095
 34
-0.0000000000000069
 50
90.0
100
AcDbRotatedDimension
1001
ACAD
1000
DSTYLE
1002
{
1070
     4
1000
<>
1070
   144
1040
1.0
1070
     3
1000

1070
   288
1070
     1
1002
}
1001
ACAD_DIMASSOC_CALC_DIMLFAC
1040
-1.0
1001
ACAD_DIMASSOC_DIMLFAC
1040
-1.0
1001
ACAD_DIMASSOC_OVERRIDDEN_D
1040
0.0
  0
DIMENSION
  5
184
102
{ACAD_REACTORS
102
}
102
{ACAD_XDICTIONARY
360
185
102
}
330
1F
100
AcDbEntity
  8
ANNOTATION_TEXT
100
AcDbDimension
  2
*D9
 10
121.3365211755725
 20
164.0021182602543
 30
0.0
 11
154.5102111755725
 21
164.0021182602543
 31
0.0
 70
   161
  3
ONSHAPE-ISO-25$0
100
AcDbAlignedDimension
 13
187.6839011755725
 23
149.0009505832714
 33
0.0000000000000026
 14
121.3365211755725
 24
149.0009505832714
 34
0.0000000000000026
1001
ACAD
1000
DSTYLE
1002
{
1070
     4
1000
<>
1070
   144
1040
1.0
1070
     3
1000

1070
   288
1070
     1
1002
}
1001
ACAD_DIMASSOC_CALC_DIMLFAC
1040
-1.0
1001
ACAD_DIMASSOC_DIMLFAC
1040
-1.0
1001
ACAD_DIMASSOC_OVERRIDDEN_D
1040
0.0
  0
DIMENSION
  5
195
102
{ACAD_REACTORS
102
}
102
{ACAD_XDICTIONARY
360
196
102
}
330
1F
100
AcDbEntity
  8
ANNOTATION_TEXT
100
AcDbDimension
  2
*D10
 10
135.4500496156232
 20
142.1430360458078
 30
0.0000000000000026
 11
102.4777189596825
 21
160.0146540884773
 31
0.0000000000000026
 70
   163
  1
4x\P<>
  3
ONSHAPE-ISO-25$3
100
AcDbDiametricDimension
 15
131.3619447355219
 25
144.3588651207349
 35
0.0000000000000026
 40
0.0
1001
ACAD
1000
DSTYLE
1002
{
1070
     4
1000
<>
1070
   144
1040
1.0
1070
     3
1000
%%c<>
1070
   288
1070
     1
1002
}
1001
ACAD_DSTYLE_DIMRADIAL_EXTE
1070
   387
1070
     1
1070
   388
1040
0.0
1070
   390
1040
6.283185307179586
1001
ACAD_DIMASSOC_CALC_DIMLFAC
1040
-1.0
1001
ACAD_DIMASSOC_DIMLFAC
1040
-1.0
1001
ACAD_DIMASSOC_OVERRIDDEN_D
1040
0.0
  0
DIMENSION
  5
1A4
102
{ACAD_REACTORS
102
}
102
{ACAD_XDICTIONARY
360
1A5
102
}
330
1F
100
AcDbEntity
  8
ANNOTATION_TEXT
100
AcDbDimension
  2
*D11
 10
235.9922800542404
 20
137.4000104961832
 30
0.0
 11
235.9922800542404
 21
143.2004805397272
 31
0.0
 70
   160
  3
ONSHAPE-ISO-25$0
100
AcDbAlignedDimension
 13
187.6839011755725
 23
149.0009505832714
 33
0.0000000000000026
 14
189.6839011755725
 24
137.4000104961832
 34
0.0000000000000069
 50
90.0
100
AcDbRotatedDimension
1001
ACAD
1000
DSTYLE
1002
{
1070
     4
1000
<>
1070
   144
1040
1.0
1070
     3
1000

1070
   288
1070
     1
1002
}
1001
ACAD_DIMASSOC_CALC_DIMLFAC
1040
-1.0
1001
ACAD_DIMASSOC_DIMLFAC
1040
-1.0
1001
ACAD_DIMASSOC_OVERRIDDEN_D
1040
0.0
  0
DIMENSION
  5
1B5
102
{ACAD_REACTORS
102
}
102
{ACAD_XDICTIONARY
360
1B6
102
}
330
1F
100
AcDbEntity
  8
ANNOTATION_TEXT
100
AcDbDimension
  2
*D12
 10
102.4777189596825
 20
108.3268923924992
 30
0.0000000000000026
 11
102.4777189596825
 21
110.8116130609345
 31
0.0000000000000026
 70
   161
  3
ONSHAPE-ISO-25$0
100
AcDbAlignedDimension
 13
169.0869242451974
 23
112.8413779901097
 33
-0.0000000000000069
 14
169.0869242451974
 24
108.3268923924992
 34
-0.0000000000000069
1001
ACAD
1000
DSTYLE
1002
{
1070
     4
1000
<>
1070
   144
1040
1.0
1070
     3
1000

1070
   288
1070
     1
1002
}
1001
ACAD_DIMASSOC_CALC_DIMLFAC
1040
-1.0
1001
ACAD_DIMASSOC_DIMLFAC
1040
-1.0
1001
ACAD_DIMASSOC_OVERRIDDEN_D
1040
0.0
  0
DIMENSION
  5
1C8
102
{ACAD_REACTORS
102
}
102
{ACAD_XDICTIONARY
360
1C9
102
}
330
1F
100
AcDbEntity
  8
ANNOTATION_TEXT
100
AcDbDimension
  2
*D13
 10
217.9093087237832
 20
137.299070409095
 30
0.0
 11
217.9093087237832
 21
126.378259782392
 31
0.0
 70
   161
  3
ONSHAPE-ISO-25$0
100
AcDbAlignedDimension
 13
191.2776511755725
 23
133.299070409095
 33
-0.0000000000000069
 14
191.2776511755725
 24
137.299070409095
 34
-0.0000000000000069
1001
ACAD
1000
DSTYLE
1002
{
1070
     4
1000
<>
1070
   144
1040
1.0
1070
     3
1000

1070
   288
1070
     1
1002
}
1001
ACAD_DIMASSOC_CALC_DIMLFAC
1040
-1.0
1001
ACAD_DIMASSOC_DIMLFAC
1040
-1.0
1001
ACAD_DIMASSOC_OVERRIDDEN_D
1040
0.0
  0
DIMENSION
  5
1DC
102
{ACAD_REACTORS
102
}
102
{ACAD_XDICTIONARY
360
1DD
102
}
330
1F
100
AcDbEntity
  8
ANNOTATION_TEXT
100
AcDbDimension
  2
*D14
 10
190.4807761755725
 20
133.299070409095
 30
-0.0000000000000069
 11
203.0059734239108
 21
143.2004805397272
 31
0.0
 70
   164
  1
2x\P<>
  3
ONSHAPE-ISO-25$4
100
AcDbRadialDimension
 15
189.8556407528366
 25
132.8048887938302
 35
-0.0000000000000069
 40
0.0
1001
ACAD
1000
DSTYLE
1002
{
1070
   287
1070
     0
1070
     4
1000
<>
1070
    44
1040
0.208621078125
1070
   172
1070
     0
1070
   289
1070
     0
1070
   144
1040
1.0
1070
     3
1000
R<>
1070
   288
1070
     1
1002
}
1001
ACAD_DSTYLE_DIMRADIAL_EXTE
1070
   387
1070
     0
1070
   388
1040
3.141592653589793
1070
   390
1040
0.0
1001
ACAD_DIMASSOC_CALC_DIMLFAC
1040
-1.0
1001
ACAD_DIMASSOC_DIMLFAC
1040
-1.0
1001
ACAD_DIMASSOC_OVERRIDDEN_D
1040
0.0
  0
DIMENSION
  5
1E8
102
{ACAD_REACTORS
102
}
102
{ACAD_XDICTIONARY
360
1E9
102
}
330
1F
100
AcDbEntity
  8
ANNOTATION_TEXT
100
AcDbDimension
  2
*D15
 10
113.6102111755725
 20
144.2667155957292
 30
0.0
 11
115.6764911755725
 21
144.2667155957292
 31
0.0
 70
   160
  3
ONSHAPE-ISO-25$0
100
AcDbAlignedDimension
 13
117.7427711755725
 23
137.299070409095
 33
-0.0000000000000069
 14
113.6102111755725
 24
135.299070409095
 34
-0.0000000000000069
100
AcDbRotatedDimension
1001
ACAD
1000
DSTYLE
1002
{
1070
     4
1000
<>
1070
   144
1040
1.0
1070
     3
1000

1070
   288
1070
     1
1002
}
1001
ACAD_DIMASSOC_CALC_DIMLFAC
1040
-1.0
1001
ACAD_DIMASSOC_DIMLFAC
1040
-1.0
1001
ACAD_DIMASSOC_OVERRIDDEN_D
1040
0.0
  0
DIMENSION
  5
1FB
102
{ACAD_REACTORS
102
}
102
{ACAD_XDICTIONARY
360
1FC
102
}
330
1F
100
AcDbEntity
  8
ANNOTATION_TEXT
100
AcDbDimension
  2
*D16
 10
225.8763033473449
 20
137.4000104961832
 30
0.0
 11
225.8763033473449
 21
120.514590782834
 31
0.0
 70
   160
  3
ONSHAPE-ISO-25$0
100
AcDbAlignedDimension
 13
175.6144251755725
 23
143.2509505832714
 33
0.0000000000000026
 14
189.6839011755725
 24
137.4000104961832
 34
0.0000000000000069
 50
90.0
100
AcDbRotatedDimension
1001
ACAD
1000
DSTYLE
1002
{
1070
     4
1000
<>
1070
   144
1040
1.0
1070
     3
1000

1070
   288
1070
     1
1002
}
1001
ACAD_DIMASSOC_CALC_DIMLFAC
1040
-1.0
1001
ACAD_DIMASSOC_DIMLFAC
1040
-1.0
1001
ACAD_DIMASSOC_OVERRIDDEN_D
1040
0.0
  0
DIMENSION
  5
20F
102
{ACAD_REACTORS
102
}
102
{ACAD_XDICTIONARY
360
210
102
}
330
1F
100
AcDbEntity
  8
ANNOTATION_TEXT
100
AcDbDimension
  2
*D17
 10
150.8597057285369
 20
101.928820409095
 30
0.0
 11
150.8597057285369
 21
106.212370434032
 31
0.0
 70
   160
  3
ONSHAPE-ISO-25$0
100
AcDbAlignedDimension
 13
169.0869242451974
 23
108.3268923924992
 33
-0.0000000000000069
 14
195.4102111755725
 24
101.928820409095
 34
-0.0000000000000069
 50
90.0
100
AcDbRotatedDimension
1001
ACAD
1000
DSTYLE
1002
{
1070
     4
1000
<>
1070
   144
1040
1.0
1070
     3
1000

1070
   288
1070
     1
1002
}
1001
ACAD_DIMASSOC_CALC_DIMLFAC
1040
-1.0
1001
ACAD_DIMASSOC_DIMLFAC
1040
-1.0
1001
ACAD_DIMASSOC_OVERRIDDEN_D
1040
0.0
  0
DIMENSION
  5
220
102
{ACAD_REACTORS
102
}
102
{ACAD_XDICTIONARY
360
221
102
}
330
1F
100
AcDbEntity
  8
ANNOTATION_TEXT
100
AcDbDimension
  2
*D18
 10
89.8403148795365
 20
112.8413779901097
 30
0.0
 11
89.8403148795365
 21
120.514590782834
 31
0.0
 70
   160
  3
ONSHAPE-ISO-25$0
100
AcDbAlignedDimension
 13
147.4249539464602
 23
128.1878035755584
 33
-0.0000000000000069
 14
169.0869242451974
 24
112.8413779901097
 34
-0.0000000000000069
 50
90.0
100
AcDbRotatedDimension
1001
ACAD
1000
DSTYLE
1002
{
1070
     4
1000
<>
1070
   144
1040
1.0
1070
     3
1000

1070
   288
1070
     1
1002
}
1001
ACAD_DIMASSOC_CALC_DIMLFAC
1040
-1.0
1001
ACAD_DIMASSOC_DIMLFAC
1040
-1.0
1001
ACAD_DIMASSOC_OVERRIDDEN_D
1040
0.0
  0
DIMENSION
  5
231
102
{ACAD_REACTORS
102
}
102
{ACAD_XDICTIONARY
360
232
102
}
330
1F
100
AcDbEntity
  8
ANNOTATION_TEXT
100
AcDbDimension
  2
*D19
 10
237.5333770687679
 20
101.928820409095
 30
0.0
 11
237.5333770687679
 21
115.4215776221845
 31
0.0
 70
   160
  3
ONSHAPE-ISO-25$0
100
AcDbAlignedDimension
 13
184.1672067098209
 23
128.914334835274
 33
-0.0000000000000069
 14
195.4102111755725
 24
101.928820409095
 34
-0.0000000000000069
 50
90.0
100
AcDbRotatedDimension
1001
ACAD
1000
DSTYLE
1002
{
1070
     4
1000
<>
1070
   144
1040
1.0
1070
     3
1000

1070
   288
1070
     1
1002
}
1001
ACAD_DIMASSOC_CALC_DIMLFAC
1040
-1.0
1001
ACAD_DIMASSOC_DIMLFAC
1040
-1.0
1001
ACAD_DIMASSOC_OVERRIDDEN_D
1040
0.0
  0
DIMENSION
  5
242
102
{ACAD_REACTORS
102
}
102
{ACAD_XDICTIONARY
360
243
102
}
330
1F
100
AcDbEntity
  8
ANNOTATION_TEXT
100
AcDbDimension
  2
*D20
 10
246.9396842614281
 20
101.928820409095
 30
-0.0000000000000069
 11
246.9396842614281
 21
116.688215904871
 31
-0.0000000000000069
 70
   160
  3
ONSHAPE-ISO-25$0
100
AcDbAlignedDimension
 13
184.1672067098209
 23
131.4476114006469
 33
-0.0000000000000069
 14
195.4102111755725
 24
101.928820409095
 34
-0.0000000000000069
 50
90.0
100
AcDbRotatedDimension
1001
ACAD
1000
DSTYLE
1002
{
1070
     4
1000
<>
1070
   144
1040
1.0
1070
     3
1000

1070
   288
1070
     1
1002
}
1001
ACAD_DIMASSOC_CALC_DIMLFAC
1040
-1.0
1001
ACAD_DIMASSOC_DIMLFAC
1040
-1.0
1001
ACAD_DIMASSOC_OVERRIDDEN_D
1040
0.0
  0
DIMENSION
  5
253
102
{ACAD_REACTORS
102
}
102
{ACAD_XDICTIONARY
360
254
102
}
330
1F
100
AcDbEntity
  8
ANNOTATION_TEXT
100
AcDbDimension
  2
*D21
 10
212.5349427628886
 20
131.4476114006469
 30
0.0
 11
212.5349427628886
 21
143.4111276298035
 31
0.0
 70
   160
  3
ONSHAPE-ISO-25$0
100
AcDbAlignedDimension
 13
191.2776511755725
 23
133.299070409095
 33
-0.0000000000000069
 14
184.1672067098209
 24
131.4476114006469
 34
-0.0000000000000069
 50
90.0
100
AcDbRotatedDimension
1001
ACAD
1000
DSTYLE
1002
{
1070
     4
1000
<>
1070
   144
1040
1.0
1070
     3
1000

1070
   288
1070
     1
1002
}
1001
ACAD_DIMASSOC_CALC_DIMLFAC
1040
-1.0
1001
ACAD_DIMASSOC_DIMLFAC
1040
-1.0
1001
ACAD_DIMASSOC_OVERRIDDEN_D
1040
0.0
  0
DIMENSION
  5
267
102
{ACAD_REACTORS
102
}
102
{ACAD_XDICTIONARY
360
268
102
}
330
1F
100
AcDbEntity
  8
ANNOTATION_TEXT
100
AcDbDimension
  2
*D22
 10
147.4249539464602
 20
151.5803878391144
 30
-0.0000000000000069
 11
135.6163348204936
 21
151.5803878391144
 31
-0.0000000000000069
 70
   160
  3
ONSHAPE-ISO-25$0
100
AcDbAlignedDimension
 13
119.3365211755725
 23
133.299070409095
 33
-0.0000000000000069
 14
147.4249539464602
 24
131.5678879858682
 34
-0.0000000000000069
100
AcDbRotatedDimension
1001
ACAD
1000
DSTYLE
1002
{
1070
     4
1000
<>
1070
   144
1040
1.0
1070
     3
1000

1070
   288
1070
     1
1002
}
1001
ACAD_DIMASSOC_CALC_DIMLFAC
1040
-1.0
1001
ACAD_DIMASSOC_DIMLFAC
1040
-1.0
1001
ACAD_DIMASSOC_OVERRIDDEN_D
1040
0.0
  0
DIMENSION
  5
278
102
{ACAD_REACTORS
102
}
102
{ACAD_XDICTIONARY
360
279
102
}
330
1F
100
AcDbEntity
  8
ANNOTATION_TEXT
100
AcDbDimension
  2
*D23
 10
108.6738642982661
 20
133.299070409095
 30
0.0
 11
108.6738642982661
 21
120.514590782834
 31
0.0
 70
   160
  3
ONSHAPE-ISO-25$0
100
AcDbAlignedDimension
 13
147.4249539464602
 23
131.5678879858682
 33
-0.0000000000000069
 14
119.3365211755725
 24
133.299070409095
 34
-0.0000000000000069
 50
90.0
100
AcDbRotatedDimension
1001
ACAD
1000
DSTYLE
1002
{
1070
     4
1000
<>
1070
   144
1040
1.0
1070
     3
1000

1070
   288
1070
     1
1002
}
1001
ACAD_DIMASSOC_CALC_DIMLFAC
1040
-1.0
1001
ACAD_DIMASSOC_DIMLFAC
1040
-1.0
1001
ACAD_DIMASSOC_OVERRIDDEN_D
1040
0.0
  0
DIMENSION
  5
28C
102
{ACAD_REACTORS
102
}
102
{ACAD_XDICTIONARY
360
28D
102
}
330
1F
100
AcDbEntity
  8
ANNOTATION_TEXT
100
AcDbDimension
  2
*D24
 10
175.6144251755725
 20
154.2755891689333
 30
0.0
 11
168.5796871755725
 21
154.2755891689333
 31
0.0
 70
   160
  3
ONSHAPE-ISO-25$0
100
AcDbAlignedDimension
 13
161.5449491755725
 23
143.2509505832714
 33
0.0000000000000026
 14
175.6144251755725
 24
143.2509505832714
 34
0.0000000000000026
100
AcDbRotatedDimension
1001
ACAD
1000
DSTYLE
1002
{
1070
     4
1000
<>
1070
   144
1040
1.0
1070
     3
1000
3x<>
1070
   288
1070
     1
1002
}
1001
ACAD_DIMASSOC_CALC_DIMLFAC
1040
-1.0
1001
ACAD_DIMASSOC_DIMLFAC
1040
-1.0
1001
ACAD_DIMASSOC_OVERRIDDEN_D
1040
0.0
  0
DIMENSION
  5
29D
102
{ACAD_REACTORS
102
}
102
{ACAD_XDICTIONARY
360
29E
102
}
330
1F
100
AcDbEntity
  8
ANNOTATION_TEXT
100
AcDbDimension
  2
*D25
 10
197.4102111755725
 20
106.3826363081759
 30
0.0
 11
193.8810961779615
 21
106.3826363081759
 31
0.0
 70
   160
  3
ONSHAPE-ISO-25$0
100
AcDbAlignedDimension
 13
184.1672067098209
 23
128.914334835274
 33
-0.0000000000000069
 14
197.4102111755725
 24
135.299070409095
 34
-0.0000000000000069
100
AcDbRotatedDimension
1001
ACAD
1000
DSTYLE
1002
{
1070
     4
1000
<>
1070
   144
1040
1.0
1070
     3
1000

1070
   288
1070
     1
1002
}
1001
ACAD_DIMASSOC_CALC_DIMLFAC
1040
-1.0
1001
ACAD_DIMASSOC_DIMLFAC
1040
-1.0
1001
ACAD_DIMASSOC_OVERRIDDEN_D
1040
0.0
  0
DIMENSION
  5
2AE
102
{ACAD_REACTORS
102
}
102
{ACAD_XDICTIONARY
360
2AF
102
}
330
1F
100
AcDbEntity
  8
ANNOTATION_TEXT
100
AcDbDimension
  2
*D26
 10
144.4551489647961
 20
126.7468016834686
 30
0.0
 11
144.4551489647961
 21
118.775855050218
 31
0.0
 70
   160
  1
2x\P<>
  3
ONSHAPE-ISO-25$0
100
AcDbAlignedDimension
 13
169.0869242451974
 23
112.8413779901097
 33
-0.0000000000000069
 14
135.4464988477638
 24
126.7468016834686
 34
-0.0000000000000069
 50
90.0
100
AcDbRotatedDimension
1001
ACAD
1000
DSTYLE
1002
{
1070
     4
1000
<>
1070
   144
1040
1.0
1070
     3
1000

1070
   288
1070
     1
1002
}
1001
ACAD_DIMASSOC_CALC_DIMLFAC
1040
-1.0
1001
ACAD_DIMASSOC_DIMLFAC
1040
-1.0
1001
ACAD_DIMASSOC_OVERRIDDEN_D
1040
0.0
  0
DIMENSION
  5
2BE
102
{ACAD_REACTORS
102
}
102
{ACAD_XDICTIONARY
360
2BF
102
}
330
1F
100
AcDbEntity
  8
ANNOTATION_TEXT
100
AcDbDimension
  2
*D27
 10
124.8829749753362
 20
112.8413779901097
 30
0.0
 11
124.8829749753362
 21
119.5951553567535
 31
0.0
 70
   160
  1
2x\P<>
  3
ONSHAPE-ISO-25$0
100
AcDbAlignedDimension
 13
119.6611309694494
 23
128.9387227390049
 33
-0.0000000000000069
 14
169.0869242451974
 24
112.8413779901097
 34
-0.0000000000000069
 50
90.0
100
AcDbRotatedDimension
1001
ACAD
1000
DSTYLE
1002
{
1070
     4
1000
<>
1070
   144
1040
1.0
1070
     3
1000

1070
   288
1070
     1
1002
}
1001
ACAD_DIMASSOC_CALC_DIMLFAC
1040
-1.0
1001
ACAD_DIMASSOC_DIMLFAC
1040
-1.0
1001
ACAD_DIMASSOC_OVERRIDDEN_D
1040
0.0
  0
DIMENSION
  5
2CE
102
{ACAD_REACTORS
102
}
102
{ACAD_XDICTIONARY
360
2CF
102
}
330
1F
100
AcDbEntity
  8
ANNOTATION_TEXT
100
AcDbDimension
  2
*D28
 10
127.5386798008945
 20
85.6159147929171
 30
0.0
 11
130.1949286064183
 21
85.6159147929171
 31
0.0
 70
   160
  3
ONSHAPE-ISO-25$0
100
AcDbAlignedDimension
 13
135.4464988477638
 23
126.7468016834686
 33
-0.0000000000000069
 14
127.5386798008945
 24
126.7468016834686
 34
-0.0000000000000069
100
AcDbRotatedDimension
1001
ACAD
1000
DSTYLE
1002
{
1070
     4
1000
<>
1070
   144
1040
1.0
1070
     3
1000

1070
   288
1070
     1
1002
}
1001
ACAD_DIMASSOC_CALC_DIMLFAC
1040
-1.0
1001
ACAD_DIMASSOC_DIMLFAC
1040
-1.0
1001
ACAD_DIMASSOC_OVERRIDDEN_D
1040
0.0
  0
DIMENSION
  5
2DE
102
{ACAD_REACTORS
102
}
102
{ACAD_XDICTIONARY
360
2DF
102
}
330
1F
100
AcDbEntity
  8
ANNOTATION_TEXT
100
AcDbDimension
  2
*D29
 10
143.0165819711054
 20
75.35866561142818
 30
0.0
 11
132.8367883486609
 21
75.35866561142818
 31
0.0
 70
   160
  3
ONSHAPE-ISO-25$0
100
AcDbAlignedDimension
 13
119.6611309694494
 23
128.9387227390049
 33
-0.0000000000000069
 14
143.0165819711054
 24
128.9387227390049
 34
-0.0000000000000069
100
AcDbRotatedDimension
1001
ACAD
1000
DSTYLE
1002
{
1070
     4
1000
<>
1070
   144
1040
1.0
1070
     3
1000

1070
   288
1070
     1
1002
}
1001
ACAD_DIMASSOC_CALC_DIMLFAC
1040
-1.0
1001
ACAD_DIMASSOC_DIMLFAC
1040
-1.0
1001
ACAD_DIMASSOC_OVERRIDDEN_D
1040
0.0
  0
DIMENSION
  5
2EE
102
{ACAD_REACTORS
102
}
102
{ACAD_XDICTIONARY
360
2EF
102
}
330
1F
100
AcDbEntity
  8
ANNOTATION_TEXT
100
AcDbDimension
  2
*D30
 10
119.6611309694494
 20
91.76840396773524
 30
0.0
 11
123.038167603528
 21
91.76840396773524
 31
0.0
 70
   160
  3
ONSHAPE-ISO-25$0
100
AcDbAlignedDimension
 13
127.5386798008945
 23
126.7468016834686
 33
-0.0000000000000069
 14
119.6611309694494
 24
128.9387227390049
 34
-0.0000000000000069
100
AcDbRotatedDimension
1001
ACAD
1000
DSTYLE
1002
{
1070
     4
1000
<>
1070
   144
1040
1.0
1070
     3
1000

1070
   288
1070
     1
1002
}
1001
ACAD_DIMASSOC_CALC_DIMLFAC
1040
-1.0
1001
ACAD_DIMASSOC_DIMLFAC
1040
-1.0
1001
ACAD_DIMASSOC_OVERRIDDEN_D
1040
0.0
  0
DIMENSION
  5
2FE
102
{ACAD_REACTORS
102
}
102
{ACAD_XDICTIONARY
360
2FF
102
}
330
1F
100
AcDbEntity
  8
ANNOTATION_TEXT
100
AcDbDimension
  2
*D31
 10
159.7128756843397
 20
94.70672713674405
 30
0.0
 11
157.1591955607939
 21
94.70672713674405
 31
0.0
 70
   160
  3
ONSHAPE-ISO-25$0
100
AcDbAlignedDimension
 13
155.3945098571369
 23
128.1878035755584
 33
-0.0000000000000069
 14
159.7128756843397
 24
128.914334835274
 34
-0.0000000000000069
100
AcDbRotatedDimension
1001
ACAD
1000
DSTYLE
1002
{
1070
     4
1000
<>
1070
   144
1040
1.0
1070
     3
1000

1070
   288
1070
     1
1002
}
1001
ACAD_DIMASSOC_CALC_DIMLFAC
1040
-1.0
1001
ACAD_DIMASSOC_DIMLFAC
1040
-1.0
1001
ACAD_DIMASSOC_OVERRIDDEN_D
1040
0.0
  0
DIMENSION
  5
310
102
{ACAD_REACTORS
102
}
102
{ACAD_XDICTIONARY
360
311
102
}
330
1F
100
AcDbEntity
  8
ANNOTATION_TEXT
100
AcDbDimension
  2
*D32
 10
111.6102111755725
 20
81.39712188199692
 30
0.0
 11
115.6764911755725
 21
81.39712188199692
 31
0.0
 70
   160
  3
ONSHAPE-ISO-25$0
100
AcDbAlignedDimension
 13
119.6611309694494
 23
128.9387227390049
 33
-0.0000000000000069
 14
111.6102111755725
 24
135.299070409095
 34
-0.0000000000000069
100
AcDbRotatedDimension
1001
ACAD
1000
DSTYLE
1002
{
1070
     4
1000
<>
1070
   144
1040
1.0
1070
     3
1000

1070
   288
1070
     1
1002
}
1001
ACAD_DIMASSOC_CALC_DIMLFAC
1040
-1.0
1001
ACAD_DIMASSOC_DIMLFAC
1040
-1.0
1001
ACAD_DIMASSOC_OVERRIDDEN_D
1040
0.0
  0
LINE
  5
326
330
1F
100
AcDbEntity
  8
SHEETMETAL_BEND_LINES_UP
  6
CONTINUOUS
 62
     7
100
AcDbLine
 10
191.7997887436468
 20
164.6271182602543
 30
0.0
 11
217.7732219861537
 21
164.6271182602543
 31
0.0
  0
MTEXT
  5
327
330
1F
100
AcDbEntity
  8
ANNOTATION_TEXT
 62
     7
100
AcDbMText
 10
204.7865053649003
 20
168.1271182602543
 30
0.0
 40
3.5
 41
0.0
 71
     2
 72
     1
  1
{\fNoto Sans;UP 90,0 R2}
  7
ONSHAPE-STANDARD-DIMENSION
1001
ACAD
1000
ACAD_MTEXT_DEFINED_HEIGHT_BEGIN
1070
    46
1040
4.125
1000
ACAD_MTEXT_DEFINED_HEIGHT_END
  0
LEADER
  5
328
330
1F
100
AcDbEntity
  8
ANNOTATION_LINES
 62
     7
100
AcDbLeader
  3
ONSHAPE-ISO-25$7
 76
     2
 10
154.5102111755725
 20
137.4000104961832
 30
0.0
 10
191.7997887436468
 20
164.6271182602543
 30
0.0
1001
ACAD
1000
DSTYLE
1002
{
1070
     5
1000

1070
   341
1005
0
1070
    41
1040
2.5
1070
   176
1070
     0
1002
}
  0
LINE
  5
32C
330
1F
100
AcDbEntity
  8
SHEETMETAL_BEND_LINES_UP
100
AcDbLine
 10
189.6839011755725
 20
137.4000104961832
 30
0.0
 11
119.3365211755725
 21
137.4000104961832
 31
0.0
  0
CIRCLE
  5
32D
330
1F
100
AcDbEntity
  8
VISIBLE
100
AcDbCircle
 10
175.6144251755725
 20
143.2509505832714
 30
0.0
 40
2.325
  0
CIRCLE
  5
32E
330
1F
100
AcDbEntity
  8
VISIBLE
100
AcDbCircle
 10
133.4059971755725
 20
143.2509505832714
 30
0.0
 40
2.325
  0
CIRCLE
  5
32F
330
1F
100
AcDbEntity
  8
VISIBLE
100
AcDbCircle
 10
161.5449491755725
 20
143.2509505832714
 30
0.0
 40
2.325
  0
CIRCLE
  5
330
330
1F
100
AcDbEntity
  8
VISIBLE
100
AcDbCircle
 10
147.4754731755725
 20
143.2509505832714
 30
0.0
 40
2.325
  0
CIRCLE
  5
331
330
1F
100
AcDbEntity
  8
VISIBLE
100
AcDbCircle
 10
119.6611309694494
 20
128.9387227390049
 30
0.0
 40
1.0
  0
CIRCLE
  5
332
330
1F
100
AcDbEntity
  8
VISIBLE
100
AcDbCircle
 10
143.0165819711054
 20
128.9387227390049
 30
0.0
 40
1.0
  0
CIRCLE
  5
333
330
1F
100
AcDbEntity
  8
VISIBLE
100
AcDbCircle
 10
194.5102111755725
 20
103.628820409095
 30
0.0
 40
1.0
  0
CIRCLE
  5
334
330
1F
100
AcDbEntity
  8
VISIBLE
100
AcDbCircle
 10
114.5233181755725
 20
135.599070409095
 30
0.0
 40
1.0
  0
CIRCLE
  5
335
330
1F
100
AcDbEntity
  8
VISIBLE
100
AcDbCircle
 10
194.5233181755725
 20
135.599070409095
 30
0.0
 40
1.0
  0
CIRCLE
  5
336
330
1F
100
AcDbEntity
  8
VISIBLE
100
AcDbCircle
 10
114.5102111755725
 20
103.628820409095
 30
0.0
 40
1.0
  0
CIRCLE
  5
337
330
1F
100
AcDbEntity
  8
VISIBLE
100
AcDbCircle
 10
135.4464988477638
 20
126.7468016834686
 30
0.0
 40
1.0
  0
CIRCLE
  5
338
330
1F
100
AcDbEntity
  8
VISIBLE
100
AcDbCircle
 10
127.5386798008945
 20
126.7468016834686
 30
0.0
 40
1.0
  0
LINE
  5
339
330
1F
100
AcDbEntity
  8
VISIBLE
100
AcDbLine
 10
184.1672067098209
 20
128.914334835274
 30
0.0
 11
159.7128756843397
 21
128.914334835274
 31
0.0
  0
LINE
  5
33A
330
1F
100
AcDbEntity
  8
VISIBLE
100
AcDbLine
 10
155.3945098571369
 20
128.1878035755584
 30
0.0
 11
147.4249539464602
 21
128.1878035755584
 31
0.0
  0
LINE
  5
33B
330
1F
100
AcDbEntity
  8
VISIBLE
100
AcDbLine
 10
159.7128756843397
 20
128.914334835274
 30
0.0
 11
159.7128756843397
 21
131.4476114006469
 31
0.0
  0
LINE
  5
33C
330
1F
100
AcDbEntity
  8
VISIBLE
100
AcDbLine
 10
184.1672067098209
 20
128.914334835274
 30
0.0
 11
184.1672067098209
 21
131.4476114006469
 31
0.0
  0
LINE
  5
33D
330
1F
100
AcDbEntity
  8
VISIBLE
100
AcDbLine
 10
178.6847714833804
 20
112.8413779901097
 30
0.0
 11
178.6847714833804
 21
108.3268923924992
 31
0.0
  0
LINE
  5
33E
330
1F
100
AcDbEntity
  8
VISIBLE
100
AcDbLine
 10
178.6847714833804
 20
108.3268923924992
 30
0.0
 11
169.0869242451974
 21
108.3268923924992
 31
0.0
  0
LINE
  5
33F
330
1F
100
AcDbEntity
  8
VISIBLE
100
AcDbLine
 10
169.0869242451974
 20
112.8413779901097
 30
0.0
 11
169.0869242451974
 21
108.3268923924992
 31
0.0
  0
LINE
  5
340
330
1F
100
AcDbEntity
  8
VISIBLE
100
AcDbLine
 10
178.6847714833804
 20
112.8413779901097
 30
0.0
 11
169.0869242451974
 21
112.8413779901097
 31
0.0
  0
LINE
  5
341
330
1F
100
AcDbEntity
  8
VISIBLE
100
AcDbLine
 10
155.3945098571369
 20
131.5678879858682
 30
0.0
 11
147.4249539464602
 21
131.5678879858682
 31
0.0
  0
LINE
  5
342
330
1F
100
AcDbEntity
  8
VISIBLE
100
AcDbLine
 10
155.3945098571369
 20
128.1878035755584
 30
0.0
 11
155.3945098571369
 21
131.5678879858682
 31
0.0
  0
LINE
  5
343
330
1F
100
AcDbEntity
  8
VISIBLE
100
AcDbLine
 10
119.3365211755725
 20
135.299070409095
 30
0.0
 11
119.3365211755725
 21
139.5009505832714
 31
0.0
  0
LINE
  5
344
330
1F
100
AcDbEntity
  8
VISIBLE
100
AcDbLine
 10
187.6839011755725
 20
149.0009505832714
 30
0.0
 11
121.3365211755725
 21
149.0009505832714
 31
0.0
  0
LINE
  5
345
330
1F
100
AcDbEntity
  8
VISIBLE
100
AcDbLine
 10
119.3365211755725
 20
135.299070409095
 30
0.0
 11
119.3365211755725
 21
133.299070409095
 31
0.0
  0
LINE
  5
346
330
1F
100
AcDbEntity
  8
VISIBLE
100
AcDbLine
 10
189.6839011755725
 20
139.5009505832714
 30
0.0
 11
189.6839011755725
 21
147.0009505832714
 31
0.0
  0
LINE
  5
347
330
1F
100
AcDbEntity
  8
VISIBLE
100
AcDbLine
 10
191.2776511755725
 20
133.299070409095
 30
0.0
 11
191.2776511755725
 21
137.299070409095
 31
0.0
  0
LINE
  5
348
330
1F
100
AcDbEntity
  8
VISIBLE
100
AcDbLine
 10
119.3365211755725
 20
147.0009505832714
 30
0.0
 11
119.3365211755725
 21
139.5009505832714
 31
0.0
  0
LINE
  5
349
330
1F
100
AcDbEntity
  8
VISIBLE
100
AcDbLine
 10
189.6839011755725
 20
139.5009505832714
 30
0.0
 11
189.6839011755725
 21
135.299070409095
 31
0.0
  0
LINE
  5
34A
330
1F
100
AcDbEntity
  8
VISIBLE
100
AcDbLine
 10
189.6839011755725
 20
135.299070409095
 30
0.0
 11
189.6839011755725
 21
133.299070409095
 31
0.0
  0
LINE
  5
34B
330
1F
100
AcDbEntity
  8
VISIBLE
100
AcDbLine
 10
191.2776511755725
 20
137.299070409095
 30
0.0
 11
195.4102111755725
 21
137.299070409095
 31
0.0
  0
LINE
  5
34C
330
1F
100
AcDbEntity
  8
VISIBLE
100
AcDbLine
 10
184.1672067098209
 20
131.4476114006469
 30
0.0
 11
159.7128756843397
 21
131.4476114006469
 31
0.0
  0
LINE
  5
34D
330
1F
100
AcDbEntity
  8
VISIBLE
100
AcDbLine
 10
197.4102111755725
 20
135.299070409095
 30
0.0
 11
197.4102111755725
 21
103.928820409095
 31
0.0
  0
LINE
  5
34E
330
1F
100
AcDbEntity
  8
VISIBLE
100
AcDbLine
 10
195.4102111755725
 20
101.928820409095
 30
0.0
 11
113.6102111755725
 21
101.928820409095
 31
0.0
  0
LINE
  5
34F
330
1F
100
AcDbEntity
  8
VISIBLE
100
AcDbLine
 10
147.4249539464602
 20
128.1878035755584
 30
0.0
 11
147.4249539464602
 21
131.5678879858682
 31
0.0
  0
LINE
  5
350
330
1F
100
AcDbEntity
  8
VISIBLE
100
AcDbLine
 10
111.6102111755725
 20
103.928820409095
 30
0.0
 11
111.6102111755725
 21
135.299070409095
 31
0.0
  0
LINE
  5
351
330
1F
100
AcDbEntity
  8
VISIBLE
100
AcDbLine
 10
113.6102111755725
 20
137.299070409095
 30
0.0
 11
117.7427711755725
 21
137.299070409095
 31
0.0
  0
LINE
  5
352
330
1F
100
AcDbEntity
  8
VISIBLE
100
AcDbLine
 10
117.7427711755725
 20
133.299070409095
 30
0.0
 11
117.7427711755725
 21
137.299070409095
 31
0.0
  0
ARC
  5
353
330
1F
100
AcDbEntity
  8
VISIBLE
100
AcDbCircle
 10
-118.5396461755725
 20
133.299070409095
 30
0.0
 40
0.796875
210
0.0
220
0.0
230
-1.0
100
AcDbArc
 50
180.0
 51
0.0
  0
ARC
  5
354
330
1F
100
AcDbEntity
  8
VISIBLE
100
AcDbCircle
 10
195.4102111755725
 20
103.928820409095
 30
0.0
 40
2.0
100
AcDbArc
 50
270.0
 51
0.0
  0
ARC
  5
355
330
1F
100
AcDbEntity
  8
VISIBLE
100
AcDbCircle
 10
113.6102111755725
 20
135.299070409095
 30
0.0
 40
2.0
100
AcDbArc
 50
90.0
 51
180.0
  0
ARC
  5
356
330
1F
100
AcDbEntity
  8
VISIBLE
100
AcDbCircle
 10
113.6102111755725
 20
103.928820409095
 30
0.0
 40
2.0
100
AcDbArc
 50
180.0
 51
270.0
  0
ARC
  5
357
330
1F
100
AcDbEntity
  8
VISIBLE
100
AcDbCircle
 10
121.3365211755725
 20
147.0009505832714
 30
0.0
 40
2.0
100
AcDbArc
 50
90.0
 51
179.9999999999992
  0
ARC
  5
358
330
1F
100
AcDbEntity
  8
VISIBLE
100
AcDbCircle
 10
187.6839011755725
 20
147.0009505832714
 30
0.0
 40
2.0
100
AcDbArc
 50
0.0
 51
90.0
  0
ARC
  5
359
330
1F
100
AcDbEntity
  8
VISIBLE
100
AcDbCircle
 10
-190.4807761755725
 20
133.299070409095
 30
0.0
 40
0.796875
210
0.0
220
0.0
230
-1.0
100
AcDbArc
 50
180.0
 51
0.0
  0
ARC
  5
35A
330
1F
100
AcDbEntity
  8
VISIBLE
100
AcDbCircle
 10
195.4102111755725
 20
135.299070409095
 30
0.0
 40
2.0
100
AcDbArc
 50
0.0
 51
90.0
  0
ENDSEC
  0
SECTION
  2
OBJECTS
  0
DICTIONARY
  5
C
330
0
100
AcDbDictionary
  3
ACAD_FIELDLIST
350
320
  3
ACAD_GROUP
350
D
  3
ACAD_LAYOUT
350
1A
  3
ACAD_MATERIAL
350
43
  3
ACAD_MLEADERSTYLE
350
3A8
  3
ACAD_MLINESTYLE
350
17
  3
ACAD_PLOTSETTINGS
350
19
  3
ACAD_SCALELIST
350
47
  3
ACAD_VISUALSTYLE
350
2A
  3
ACDBHEADERROUNDTRIPXREC
350
387
  3
ACDBVARIABLEDICTIONARY
350
6C
  3
ONSHAPE_DATA
350
321
  0
DICTIONARY
  5
A4
330
A3
100
AcDbDictionary
280
     1
  0
DICTIONARY
  5
AB
330
AA
100
AcDbDictionary
280
     1
  0
DICTIONARY
  5
B5
330
B4
100
AcDbDictionary
280
     1
  3
ACAD_MTEXT_RT
360
3AF
  0
DICTIONARY
  5
B7
330
B6
100
AcDbDictionary
280
     1
  3
ACAD_MTEXT_RT
360
3B0
  0
DICTIONARY
  5
3B1
330
BF
100
AcDbDictionary
280
     1
  3
ACAD_MTEXT_RT
360
3B2
  0
DICTIONARY
  5
CD
330
CC
100
AcDbDictionary
280
     1
  3
ACAD_MTEXT_RT
360
3B3
  0
DICTIONARY
  5
CF
330
CE
100
AcDbDictionary
280
     1
  3
ACAD_MTEXT_RT
360
3B4
  0
DICTIONARY
  5
D1
330
D0
100
AcDbDictionary
280
     1
  0
DICTIONARY
  5
D8
330
D7
100
AcDbDictionary
280
     1
  0
DICTIONARY
  5
DF
330
DE
100
AcDbDictionary
280
     1
  3
ACAD_MTEXT_RT
360
3B5
  0
DICTIONARY
  5
E2
330
E1
100
AcDbDictionary
280
     1
  3
ACAD_MTEXT_RT
360
3B6
  0
DICTIONARY
  5
E5
330
E4
100
AcDbDictionary
280
     1
  0
DICTIONARY
  5
EE
330
ED
100
AcDbDictionary
280
     1
  0
DICTIONARY
  5
F7
330
F6
100
AcDbDictionary
280
     1
  3
OS_DIM_DISPLAY_FLAG_DATA
360
FA
  0
DICTIONARY
  5
10E
330
10D
100
AcDbDictionary
280
     1
  3
OS_DIM_DISPLAY_FLAG_DATA
360
111
  0
DICTIONARY
  5
11F
330
11E
100
AcDbDictionary
280
     1
  3
OS_DIM_DISPLAY_FLAG_DATA
360
122
  0
DICTIONARY
  5
130
330
12F
100
AcDbDictionary
280
     1
  3
OS_DIM_DISPLAY_FLAG_DATA
360
133
  0
DICTIONARY
  5
141
330
140
100
AcDbDictionary
280
     1
  3
OS_DIM_DISPLAY_FLAG_DATA
360
143
  0
DICTIONARY
  5
152
330
151
100
AcDbDictionary
280
     1
  3
OS_DIM_DISPLAY_FLAG_DATA
360
154
  0
DICTIONARY
  5
160
330
15F
100
AcDbDictionary
280
     1
  3
OS_DIM_DISPLAY_FLAG_DATA
360
163
  0
DICTIONARY
  5
174
330
173
100
AcDbDictionary
280
     1
  3
OS_DIM_DISPLAY_FLAG_DATA
360
177
  0
DICTIONARY
  5
185
330
184
100
AcDbDictionary
280
     1
  3
OS_DIM_DISPLAY_FLAG_DATA
360
188
  0
DICTIONARY
  5
196
330
195
100
AcDbDictionary
280
     1
  3
OS_DIM_DISPLAY_FLAG_DATA
360
198
  0
DICTIONARY
  5
1A5
330
1A4
100
AcDbDictionary
280
     1
  3
OS_DIM_DISPLAY_FLAG_DATA
360
1A8
  0
DICTIONARY
  5
1B6
330
1B5
100
AcDbDictionary
280
     1
  3
OS_DIM_DISPLAY_FLAG_DATA
360
1B9
  0
DICTIONARY
  5
1C9
330
1C8
100
AcDbDictionary
280
     1
  3
OS_DIM_DISPLAY_FLAG_DATA
360
1CC
  0
DICTIONARY
  5
1DD
330
1DC
100
AcDbDictionary
280
     1
  3
OS_DIM_DISPLAY_FLAG_DATA
360
1DF
  0
DICTIONARY
  5
1E9
330
1E8
100
AcDbDictionary
280
     1
  3
OS_DIM_DISPLAY_FLAG_DATA
360
1EC
  0
DICTIONARY
  5
1FC
330
1FB
100
AcDbDictionary
280
     1
  3
OS_DIM_DISPLAY_FLAG_DATA
360
1FF
  0
DICTIONARY
  5
210
330
20F
100
AcDbDictionary
280
     1
  3
OS_DIM_DISPLAY_FLAG_DATA
360
213
  0
DICTIONARY
  5
221
330
220
100
AcDbDictionary
280
     1
  3
OS_DIM_DISPLAY_FLAG_DATA
360
224
  0
DICTIONARY
  5
232
330
231
100
AcDbDictionary
280
     1
  3
OS_DIM_DISPLAY_FLAG_DATA
360
235
  0
DICTIONARY
  5
243
330
242
100
AcDbDictionary
280
     1
  3
OS_DIM_DISPLAY_FLAG_DATA
360
246
  0
DICTIONARY
  5
254
330
253
100
AcDbDictionary
280
     1
  3
OS_DIM_DISPLAY_FLAG_DATA
360
257
  0
DICTIONARY
  5
268
330
267
100
AcDbDictionary
280
     1
  3
OS_DIM_DISPLAY_FLAG_DATA
360
26B
  0
DICTIONARY
  5
279
330
278
100
AcDbDictionary
280
     1
  3
OS_DIM_DISPLAY_FLAG_DATA
360
27C
  0
DICTIONARY
  5
28D
330
28C
100
AcDbDictionary
280
     1
  3
OS_DIM_DISPLAY_FLAG_DATA
360
290
  0
DICTIONARY
  5
29E
330
29D
100
AcDbDictionary
280
     1
  3
OS_DIM_DISPLAY_FLAG_DATA
360
2A1
  0
DICTIONARY
  5
2AF
330
2AE
100
AcDbDictionary
280
     1
  3
OS_DIM_DISPLAY_FLAG_DATA
360
2B1
  0
DICTIONARY
  5
2BF
330
2BE
100
AcDbDictionary
280
     1
  3
OS_DIM_DISPLAY_FLAG_DATA
360
2C1
  0
DICTIONARY
  5
2CF
330
2CE
100
AcDbDictionary
280
     1
  3
OS_DIM_DISPLAY_FLAG_DATA
360
2D1
  0
DICTIONARY
  5
2DF
330
2DE
100
AcDbDictionary
280
     1
  3
OS_DIM_DISPLAY_FLAG_DATA
360
2E1
  0
DICTIONARY
  5
2EF
330
2EE
100
AcDbDictionary
280
     1
  3
OS_DIM_DISPLAY_FLAG_DATA
360
2F1
  0
DICTIONARY
  5
2FF
330
2FE
100
AcDbDictionary
280
     1
  3
OS_DIM_DISPLAY_FLAG_DATA
360
301
  0
DICTIONARY
  5
311
330
310
100
AcDbDictionary
280
     1
  3
OS_DIM_DISPLAY_FLAG_DATA
360
313
  0
ACAD_PROXY_OBJECT
  5
320
102
{ACAD_REACTORS
330
C
102
}
330
C
100
AcDbProxyObject
 90
      499
 91
      509
 93
        3
310
80
  0
DICTIONARY
  5
D
102
{ACAD_REACTORS
330
C
102
}
330
C
100
AcDbDictionary
  0
DICTIONARY
  5
1A
102
{ACAD_REACTORS
330
C
102
}
330
C
100
AcDbDictionary
  0
DICTIONARY
  5
43
102
{ACAD_REACTORS
330
C
102
}
330
C
100
AcDbDictionary
  3
BYBLOCK
350
45
  3
BYLAYER
350
44
  3
GLOBAL
350
46
  0
DICTIONARY
  5
3A8
102
{ACAD_REACTORS
330
C
102
}
330
C
100
AcDbDictionary
  0
DICTIONARY
  5
17
102
{ACAD_REACTORS
330
C
102
}
330
C
100
AcDbDictionary
  3
STANDARD
350
18
  0
DICTIONARY
  5
19
102
{ACAD_REACTORS
330
C
102
}
330
C
100
AcDbDictionary
  0
DICTIONARY
  5
47
102
{ACAD_REACTORS
330
C
102
}
330
C
100
AcDbDictionary
  3
A0
350
48
  3
A1
350
49
  3
A2
350
4A
  3
A3
350
4B
  3
A4
350
4C
  3
A5
350
4D
  3
A6
350
4E
  3
A7
350
4F
  3
A8
350
50
  3
A9
350
51
  3
B0
350
52
  3
B1
350
53
  3
B2
350
54
  3
B3
350
55
  3
B4
350
56
  3
B5
350
57
  3
B6
350
58
  3
B7
350
59
  3
B8
350
5A
  3
B9
350
5B
  3
C0
350
5C
  3
C1
350
5D
  3
C2
350
5E
  3
C3
350
5F
  3
C4
350
60
  3
C5
350
61
  3
C6
350
62
  3
C7
350
63
  3
C8
350
64
  3
C9
350
65
  3
D0
350
66
  3
D1
350
67
  3
D2
350
68
  0
DICTIONARY
  5
2A
102
{ACAD_REACTORS
330
C
102
}
330
C
100
AcDbDictionary
  3
2DWIREFRAME
350
2F
  3
BASIC
350
32
  3
BRIGHTEN
350
36
  3
COLORCHANGE
350
3A
  3
CONCEPTUAL
350
34
  3
DIM
350
35
  3
EDGECOLOROFF
350
3D
  3
FACEPATTERN
350
39
  3
FLAT
350
2B
  3
FLATWITHEDGES
350
2C
  3
GOURAUD
350
2D
  3
GOURAUDWITHEDGES
350
2E
  3
HIDDEN
350
31
  3
JITTEROFF
350
3B
  3
LINEPATTERN
350
38
  3
OVERHANGOFF
350
3C
  3
REALISTIC
350
33
  3
SHADED
350
42
  3
SHADED_WITH_EDGES
350
41
  3
SHADES_OF_GRAY
350
3E
  3
SKETCHY
350
3F
  3
THICKEN
350
37
  3
WIREFRAME
350
30
  3
X-RAY
350
40
  0
DICTIONARY
  5
387
102
{ACAD_REACTORS
330
C
102
}
330
C
100
AcDbDictionary
  3
CEPSNTYPE
350
390
  3
DIMSTYLEDATA
350
3A6
  3
FINGERPRINTGUID
350
391
  3
HYPERLINKBASE
350
38A
  3
INSUNITS
350
38F
  3
LAYOUTDICT
350
38C
  3
LWETCUNION
350
38E
  3
PLOTSETDICT
350
38D
  3
PSVPSCALE
350
393
  3
PUCSBASE
350
396
  3
PUCSORGBACK
350
39C
  3
PUCSORGBOTTOM
350
398
  3
PUCSORGFRONT
350
39B
  3
PUCSORGLEFT
350
399
  3
PUCSORGRIGHT
350
39A
  3
PUCSORGTOP
350
397
  3
PUCSORTHOREF
350
394
  3
PUCSORTHOVIEW
350
395
  3
STYLESHEET
350
38B
  3
TSTACKALIGN
350
388
  3
TSTACKSIZE
350
389
  3
UCSBASE
350
39F
  3
UCSORGBACK
350
3A5
  3
UCSORGBOTTOM
350
3A1
  3
UCSORGFRONT
350
3A4
  3
UCSORGLEFT
350
3A2
  3
UCSORGRIGHT
350
3A3
  3
UCSORGTOP
350
3A0
  3
UCSORTHOREF
350
39D
  3
UCSORTHOVIEW
350
39E
  3
VERSIONGUID
350
392
  0
DICTIONARY
  5
6C
102
{ACAD_REACTORS
330
C
102
}
330
C
100
AcDbDictionary
  3
CANNOSCALE
350
3B7
  3
CTABLESTYLE
350
3A7
  3
DIMASSOC
350
3AD
  3
HIDETEXT
350
3AE
  3
MSLTSCALE
350
3B8
  3
OLEFRAME
350
6D
  3
PSOLHEIGHT
350
3AA
  3
PSOLWIDTH
350
3A9
  0
DICTIONARY
  5
321
102
{ACAD_REACTORS
330
C
102
}
330
C
100
AcDbDictionary
280
     1
  3
DIM_UNITS
360
35C
  3
ONSHAPE_VSHARP_EXTENSION
360
35E
  3
ONSHAPE_WELD_STANDARD
360
35D
  0
XRECORD
  5
3AF
102
{ACAD_REACTORS
330
B5
102
}
330
B5
100
AcDbXrecord
 40
11003.0
  1
{\pxqc;Alois Mbutura}
  0
XRECORD
  5
3B0
102
{ACAD_REACTORS
330
B7
102
}
330
B7
100
AcDbXrecord
 40
4119.0
  1
{\pxqc;2019-02-27}
  0
XRECORD
  5
3B2
102
{ACAD_REACTORS
330
3B1
102
}
330
3B1
100
AcDbXrecord
 40
5482.0
  1
{\pxqc;Aluminum }
  0
XRECORD
  5
3B3
102
{ACAD_REACTORS
330
CD
102
}
330
CD
100
AcDbXrecord
 40
4937.0
  1
{\pxqc;Kaiote AQ}
  0
XRECORD
  5
3B4
102
{ACAD_REACTORS
330
CF
102
}
330
CF
100
AcDbXrecord
 40
24659.0
  1
{\pxqc;Enclosure frontplate}
  0
XRECORD
  5
3B5
102
{ACAD_REACTORS
330
DF
102
}
330
DF
100
AcDbXrecord
 40
299.0
  1
{\pxqc;1}
  0
XRECORD
  5
3B6
102
{ACAD_REACTORS
330
E2
102
}
330
E2
100
AcDbXrecord
 40
299.0
  1
{\pxqc;1}
  0
XRECORD
  5
FA
102
{ACAD_REACTORS
330
F7
102
}
330
F7
100
AcDbXrecord
 90
        1
 90
        0
  0
XRECORD
  5
111
102
{ACAD_REACTORS
330
10E
102
}
330
10E
100
AcDbXrecord
 90
        1
 90
        0
  0
XRECORD
  5
122
102
{ACAD_REACTORS
330
11F
102
}
330
11F
100
AcDbXrecord
 90
        1
 90
        0
  0
XRECORD
  5
133
102
{ACAD_REACTORS
330
130
102
}
330
130
100
AcDbXrecord
 90
        1
 90
        0
  0
XRECORD
  5
143
102
{ACAD_REACTORS
330
141
102
}
330
141
100
AcDbXrecord
 90
        1
 90
        0
  0
XRECORD
  5
154
102
{ACAD_REACTORS
330
152
102
}
330
152
100
AcDbXrecord
 90
        1
 90
        0
  0
XRECORD
  5
163
102
{ACAD_REACTORS
330
160
102
}
330
160
100
AcDbXrecord
 90
        1
 90
        0
  0
XRECORD
  5
177
102
{ACAD_REACTORS
330
174
102
}
330
174
100
AcDbXrecord
 90
        1
 90
        0
  0
XRECORD
  5
188
102
{ACAD_REACTORS
330
185
102
}
330
185
100
AcDbXrecord
 90
        1
 90
        0
  0
XRECORD
  5
198
102
{ACAD_REACTORS
330
196
102
}
330
196
100
AcDbXrecord
 90
        1
 90
        0
  0
XRECORD
  5
1A8
102
{ACAD_REACTORS
330
1A5
102
}
330
1A5
100
AcDbXrecord
 90
        1
 90
        0
  0
XRECORD
  5
1B9
102
{ACAD_REACTORS
330
1B6
102
}
330
1B6
100
AcDbXrecord
 90
        1
 90
        0
  0
XRECORD
  5
1CC
102
{ACAD_REACTORS
330
1C9
102
}
330
1C9
100
AcDbXrecord
 90
        1
 90
        0
  0
XRECORD
  5
1DF
102
{ACAD_REACTORS
330
1DD
102
}
330
1DD
100
AcDbXrecord
 90
        1
 90
        0
  0
XRECORD
  5
1EC
102
{ACAD_REACTORS
330
1E9
102
}
330
1E9
100
AcDbXrecord
 90
        1
 90
        0
  0
XRECORD
  5
1FF
102
{ACAD_REACTORS
330
1FC
102
}
330
1FC
100
AcDbXrecord
 90
        1
 90
        0
  0
XRECORD
  5
213
102
{ACAD_REACTORS
330
210
102
}
330
210
100
AcDbXrecord
 90
        1
 90
        0
  0
XRECORD
  5
224
102
{ACAD_REACTORS
330
221
102
}
330
221
100
AcDbXrecord
 90
        1
 90
        0
  0
XRECORD
  5
235
102
{ACAD_REACTORS
330
232
102
}
330
232
100
AcDbXrecord
 90
        1
 90
        0
  0
XRECORD
  5
246
102
{ACAD_REACTORS
330
243
102
}
330
243
100
AcDbXrecord
 90
        1
 90
        0
  0
XRECORD
  5
257
102
{ACAD_REACTORS
330
254
102
}
330
254
100
AcDbXrecord
 90
        1
 90
        0
  0
XRECORD
  5
26B
102
{ACAD_REACTORS
330
268
102
}
330
268
100
AcDbXrecord
 90
        1
 90
        0
  0
XRECORD
  5
27C
102
{ACAD_REACTORS
330
279
102
}
330
279
100
AcDbXrecord
 90
        1
 90
        0
  0
XRECORD
  5
290
102
{ACAD_REACTORS
330
28D
102
}
330
28D
100
AcDbXrecord
 90
        1
 90
        0
  0
XRECORD
  5
2A1
102
{ACAD_REACTORS
330
29E
102
}
330
29E
100
AcDbXrecord
 90
        1
 90
        0
  0
XRECORD
  5
2B1
102
{ACAD_REACTORS
330
2AF
102
}
330
2AF
100
AcDbXrecord
 90
        1
 90
        0
  0
XRECORD
  5
2C1
102
{ACAD_REACTORS
330
2BF
102
}
330
2BF
100
AcDbXrecord
 90
        1
 90
        0
  0
XRECORD
  5
2D1
102
{ACAD_REACTORS
330
2CF
102
}
330
2CF
100
AcDbXrecord
 90
        1
 90
        0
  0
XRECORD
  5
2E1
102
{ACAD_REACTORS
330
2DF
102
}
330
2DF
100
AcDbXrecord
 90
        1
 90
        0
  0
XRECORD
  5
2F1
102
{ACAD_REACTORS
330
2EF
102
}
330
2EF
100
AcDbXrecord
 90
        1
 90
        0
  0
XRECORD
  5
301
102
{ACAD_REACTORS
330
2FF
102
}
330
2FF
100
AcDbXrecord
 90
        1
 90
        0
  0
XRECORD
  5
313
102
{ACAD_REACTORS
330
311
102
}
330
311
100
AcDbXrecord
 90
        1
 90
        0
  0
MATERIAL
  5
45
102
{ACAD_REACTORS
330
43
102
}
102
{ACAD_XDICTIONARY
360
3BB
102
}
330
43
100
AcDbMaterial
  1
BYBLOCK
  0
MATERIAL
  5
44
102
{ACAD_REACTORS
330
43
102
}
102
{ACAD_XDICTIONARY
360
3B9
102
}
330
43
100
AcDbMaterial
  1
BYLAYER
  0
MATERIAL
  5
46
102
{ACAD_REACTORS
330
43
102
}
102
{ACAD_XDICTIONARY
360
3BD
102
}
330
43
100
AcDbMaterial
  1
GLOBAL
  0
MLINESTYLE
  5
18
102
{ACAD_REACTORS
330
17
102
}
330
17
100
AcDbMlineStyle
  2
Standard
 70
     0
  3

 62
   256
 51
90.0
 52
90.0
 71
     2
 49
0.5
 62
   256
  6
BYLAYER
 49
-0.5
 62
   256
  6
BYLAYER
  0
ACAD_PROXY_OBJECT
  5
48
102
{ACAD_REACTORS
330
47
102
}
330
47
100
AcDbProxyObject
 90
      499
 91
      503
 93
       41
310
903313A31580
  0
ACAD_PROXY_OBJECT
  5
49
102
{ACAD_REACTORS
330
47
102
}
330
47
100
AcDbProxyObject
 90
      499
 91
      503
 93
      105
310
903313A324000000000000004000
  0
ACAD_PROXY_OBJECT
  5
4A
102
{ACAD_REACTORS
330
47
102
}
330
47
100
AcDbProxyObject
 90
      499
 91
      503
 93
      105
310
903313A344000000000000104000
  0
ACAD_PROXY_OBJECT
  5
4B
102
{ACAD_REACTORS
330
47
102
}
330
47
100
AcDbProxyObject
 90
      499
 91
      503
 93
      105
310
903313A354000000000000144000
  0
ACAD_PROXY_OBJECT
  5
4C
102
{ACAD_REACTORS
330
47
102
}
330
47
100
AcDbProxyObject
 90
      499
 91
      503
 93
      105
310
903313A384000000000000204000
  0
ACAD_PROXY_OBJECT
  5
4D
102
{ACAD_REACTORS
330
47
102
}
330
47
100
AcDbProxyObject
 90
      499
 91
      503
 93
      113
310
904313A31304000000000000244000
  0
ACAD_PROXY_OBJECT
  5
4E
102
{ACAD_REACTORS
330
47
102
}
330
47
100
AcDbProxyObject
 90
      499
 91
      503
 93
      113
310
904313A31364000000000000304000
  0
ACAD_PROXY_OBJECT
  5
4F
102
{ACAD_REACTORS
330
47
102
}
330
47
100
AcDbProxyObject
 90
      499
 91
      503
 93
      113
310
904313A32304000000000000344000
  0
ACAD_PROXY_OBJECT
  5
50
102
{ACAD_REACTORS
330
47
102
}
330
47
100
AcDbProxyObject
 90
      499
 91
      503
 93
      113
310
904313A333040000000000003E4000
  0
ACAD_PROXY_OBJECT
  5
51
102
{ACAD_REACTORS
330
47
102
}
330
47
100
AcDbProxyObject
 90
      499
 91
      503
 93
      113
310
904313A34304000000000000444000
  0
ACAD_PROXY_OBJECT
  5
52
102
{ACAD_REACTORS
330
47
102
}
330
47
100
AcDbProxyObject
 90
      499
 91
      503
 93
      113
310
904313A35304000000000000494000
  0
ACAD_PROXY_OBJECT
  5
53
102
{ACAD_REACTORS
330
47
102
}
330
47
100
AcDbProxyObject
 90
      499
 91
      503
 93
      121
310
905313A3130304000000000000594000
  0
ACAD_PROXY_OBJECT
  5
54
102
{ACAD_REACTORS
330
47
102
}
330
47
100
AcDbProxyObject
 90
      499
 91
      503
 93
      105
310
903323A310000000000000010100
  0
ACAD_PROXY_OBJECT
  5
55
102
{ACAD_REACTORS
330
47
102
}
330
47
100
AcDbProxyObject
 90
      499
 91
      503
 93
      105
310
903343A310000000000000410100
  0
ACAD_PROXY_OBJECT
  5
56
102
{ACAD_REACTORS
330
47
102
}
330
47
100
AcDbProxyObject
 90
      499
 91
      503
 93
      105
310
903383A310000000000000810100
  0
ACAD_PROXY_OBJECT
  5
57
102
{ACAD_REACTORS
330
47
102
}
330
47
100
AcDbProxyObject
 90
      499
 91
      503
 93
      113
310
90431303A310000000000000910100
  0
ACAD_PROXY_OBJECT
  5
58
102
{ACAD_REACTORS
330
47
102
}
330
47
100
AcDbProxyObject
 90
      499
 91
      503
 93
      121
310
9053130303A310000000000001650100
  0
ACAD_PROXY_OBJECT
  5
59
102
{ACAD_REACTORS
330
47
102
}
330
47
100
AcDbProxyObject
 90
      499
 91
      503
 93
      257
310
90E312F31323822203D2031272D3022000000000000200FC000000000000284000
  0
ACAD_PROXY_OBJECT
  5
5A
102
{ACAD_REACTORS
330
47
102
}
330
47
100
AcDbProxyObject
 90
      499
 91
      503
 93
      249
310
90D312F363422203D2031272D3022000000000000240FC000000000000284000
  0
ACAD_PROXY_OBJECT
  5
5B
102
{ACAD_REACTORS
330
47
102
}
330
47
100
AcDbProxyObject
 90
      499
 91
      503
 93
      249
310
90D312F333222203D2031272D3022000000000000280FC000000000000284000
  0
ACAD_PROXY_OBJECT
  5
5C
102
{ACAD_REACTORS
330
47
102
}
330
47
100
AcDbProxyObject
 90
      499
 91
      503
 93
      249
310
90D312F313622203D2031272D30220000000000002C0FC000000000000284000
  0
ACAD_PROXY_OBJECT
  5
5D
102
{ACAD_REACTORS
330
47
102
}
330
47
100
AcDbProxyObject
 90
      499
 91
      503
 93
      249
310
90D332F333222203D2031272D30220000000000002E0FC000000000000284000
  0
ACAD_PROXY_OBJECT
  5
5E
102
{ACAD_REACTORS
330
47
102
}
330
47
100
AcDbProxyObject
 90
      499
 91
      503
 93
      241
310
90C312F3822203D2031272D3022000000000000300FC000000000000284000
  0
ACAD_PROXY_OBJECT
  5
5F
102
{ACAD_REACTORS
330
47
102
}
330
47
100
AcDbProxyObject
 90
      499
 91
      503
 93
      249
310
90D332F313622203D2031272D3022000000000000320FC000000000000284000
  0
ACAD_PROXY_OBJECT
  5
60
102
{ACAD_REACTORS
330
47
102
}
330
47
100
AcDbProxyObject
 90
      499
 91
      503
 93
      241
310
90C312F3422203D2031272D3022000000000000340FC000000000000284000
  0
ACAD_PROXY_OBJECT
  5
61
102
{ACAD_REACTORS
330
47
102
}
330
47
100
AcDbProxyObject
 90
      499
 91
      503
 93
      241
310
90C332F3822203D2031272D3022000000000000360FC000000000000284000
  0
ACAD_PROXY_OBJECT
  5
62
102
{ACAD_REACTORS
330
47
102
}
330
47
100
AcDbProxyObject
 90
      499
 91
      503
 93
      241
310
90C312F3222203D2031272D3022000000000000380FC000000000000284000
  0
ACAD_PROXY_OBJECT
  5
63
102
{ACAD_REACTORS
330
47
102
}
330
47
100
AcDbProxyObject
 90
      499
 91
      503
 93
      241
310
90C332F3422203D2031272D30220000000000003A0FC000000000000284000
  0
ACAD_PROXY_OBJECT
  5
64
102
{ACAD_REACTORS
330
47
102
}
330
47
100
AcDbProxyObject
 90
      499
 91
      503
 93
      161
310
90A3122203D2031272D30224000000000000284000
  0
ACAD_PROXY_OBJECT
  5
65
102
{ACAD_REACTORS
330
47
102
}
330
47
100
AcDbProxyObject
 90
      499
 91
      503
 93
      257
310
90E312D312F3222203D2031272D30220000000000003E0FC000000000000284000
  0
ACAD_PROXY_OBJECT
  5
66
102
{ACAD_REACTORS
330
47
102
}
330
47
100
AcDbProxyObject
 90
      499
 91
      503
 93
      225
310
90A3322203D2031272D302200000000000002100000000000000284000
  0
ACAD_PROXY_OBJECT
  5
67
102
{ACAD_REACTORS
330
47
102
}
330
47
100
AcDbProxyObject
 90
      499
 91
      503
 93
      225
310
90A3622203D2031272D302200000000000006100000000000000284000
  0
ACAD_PROXY_OBJECT
  5
68
102
{ACAD_REACTORS
330
47
102
}
330
47
100
AcDbProxyObject
 90
      499
 91
      503
 93
      249
310
90D31272D3022203D2031272D30220000000000000A100000000000000284000
  0
ACAD_PROXY_OBJECT
  5
2F
102
{ACAD_REACTORS
330
2A
102
}
330
2A
100
AcDbProxyObject
 90
      499
 91
      501
 93
      436
310
42CC9915DA5C99599C985B595049028333333333333E33F0000000000000F90107901411070040501600405405064090741402480A0340
1001
ACAD
1000
AcDbSavedByObjectVersion
1070
     0
  0
ACAD_PROXY_OBJECT
  5
32
102
{ACAD_REACTORS
330
2A
102
}
330
2A
100
AcDbProxyObject
 90
      499
 91
      501
 93
      388
310
4150985CDA58D07406404333333333333E33F0000000000000F90107A41107004050150841D405064090741402480A0350
1001
ACAD
1000
AcDbSavedByObjectVersion
1070
     0
  0
ACAD_PROXY_OBJECT
  5
36
102
{ACAD_REACTORS
330
2A
102
}
330
2A
100
AcDbProxyObject
 90
      499
 91
      501
 93
      428
310
42109C9A59DA1D195B90C409028333333333333E33F0000000000000F9010790141107004050150841D405064090741402480A029950
1001
ACAD
1000
AcDbSavedByObjectVersion
1070
     0
  0
ACAD_PROXY_OBJECT
  5
3A
102
{ACAD_REACTORS
330
2A
102
}
330
2A
100
AcDbProxyObject
 90
      499
 91
      501
 93
      452
310
42D0DBDB1BDC90DA185B99D95104090240C333333333333E33F0000000000000F90108901411070040501508421405064090741402480A0350
1001
ACAD
1000
AcDbSavedByObjectVersion
1070
     0
  0
ACAD_PROXY_OBJECT
  5
34
102
{ACAD_REACTORS
330
2A
102
}
330
2A
100
AcDbProxyObject
 90
      499
 91
      501
 93
      500
310
4290DBDB98D95C1D1D585B10940D028333333333333E33F0000000000000F90107902409070040501000000000018199010841D405064090740C02480A0340
1001
ACAD
1000
AcDbSavedByObjectVersion
1070
     0
  0
ACAD_PROXY_OBJECT
  5
35
102
{ACAD_REACTORS
330
2A
102
}
330
2A
100
AcDbProxyObject
 90
      499
 91
      501
 93
      412
310
40D11A5B50B409028333333333333E33F0000000000000F9010790141107004050150841D405064090741402480A02677FFFFFD0
1001
ACAD
1000
AcDbSavedByObjectVersion
1070
     0
  0
ACAD_PROXY_OBJECT
  5
3D
102
{ACAD_REACTORS
330
2A
102
}
330
2A
100
AcDbProxyObject
 90
      499
 91
      501
 93
      452
310
43115919D950DBDB1BDC93D999916409028333333333333E33F0000000000000F9010790141107004050150841D405064090741402480A0350
1001
ACAD
1000
AcDbSavedByObjectVersion
1070
     0
  0
ACAD_PROXY_OBJECT
  5
39
102
{ACAD_REACTORS
330
2A
102
}
330
2A
100
AcDbProxyObject
 90
      499
 91
      501
 93
      444
310
42D19858D95C185D1D195C9B90F409028333333333333E33F0000000000000F9010790141107004050150841D405064090741402480A0350
1001
ACAD
1000
AcDbSavedByObjectVersion
1070
     0
  0
ACAD_PROXY_OBJECT
  5
2B
102
{ACAD_REACTORS
330
2A
102
}
330
2A
100
AcDbProxyObject
 90
      499
 91
      501
 93
      380
310
41119B185D240901404333333333333E33F0000000000000F9010740A907004050150841D405064090741402480A1B50
1001
ACAD
1000
AcDbSavedByObjectVersion
1070
     0
  0
ACAD_PROXY_OBJECT
  5
2C
102
{ACAD_REACTORS
330
2A
102
}
330
2A
100
AcDbProxyObject
 90
      499
 91
      501
 93
      468
310
43519B185D15DA5D1A115919D95CD0140901404333333333333E33F0000000000000F90107409019070040501600405405064090741402480A1B50
1001
ACAD
1000
AcDbSavedByObjectVersion
1070
     0
  0
ACAD_PROXY_OBJECT
  5
2D
102
{ACAD_REACTORS
330
2A
102
}
330
2A
100
AcDbProxyObject
 90
      499
 91
      501
 93
      404
310
41D1DBDD5C985D5910240902404333333333333E33F0000000000000F9010740A9070040501641D405064090741402480A1B50
1001
ACAD
1000
AcDbSavedByObjectVersion
1070
     0
  0
ACAD_PROXY_OBJECT
  5
2E
102
{ACAD_REACTORS
330
2A
102
}
330
2A
100
AcDbProxyObject
 90
      499
 91
      501
 93
      492
310
4411DBDD5C985D5915DA5D1A115919D95CD0340902404333333333333E33F0000000000000F90107409019070040501600405405064090741402480A1B50
1001
ACAD
1000
AcDbSavedByObjectVersion
1070
     0
  0
ACAD_PROXY_OBJECT
  5
31
102
{ACAD_REACTORS
330
2A
102
}
330
2A
100
AcDbProxyObject
 90
      499
 91
      501
 93
      476
310
41921A5919195B90640502408333333333333E33F0000000000000F901079024090700405020000000000001110200405405064090740C02480A0340
1001
ACAD
1000
AcDbSavedByObjectVersion
1070
     0
  0
ACAD_PROXY_OBJECT
  5
3B
102
{ACAD_REACTORS
330
2A
102
}
330
2A
100
AcDbProxyObject
 90
      499
 91
      501
 93
      428
310
42529A5D1D195C93D999914409028333333333333E33F0000000000000F9010790141107004050150A41D405064090741402480A0350
1001
ACAD
1000
AcDbSavedByObjectVersion
1070
     0
  0
ACAD_PROXY_OBJECT
  5
38
102
{ACAD_REACTORS
330
2A
102
}
330
2A
100
AcDbProxyObject
 90
      499
 91
      501
 93
      444
310
42D31A5B995C185D1D195C9B90E409028333333333333E33F0000000000000F9010790141107004050750841D405064090741402483A0350
1001
ACAD
1000
AcDbSavedByObjectVersion
1070
     0
  0
ACAD_PROXY_OBJECT
  5
3C
102
{ACAD_REACTORS
330
2A
102
}
330
2A
100
AcDbProxyObject
 90
      499
 91
      501
 93
      444
310
42D3DD995C9A185B99D3D999915409028333333333333E33F0000000000000F9010790141107004050150941D405064090741402480A0350
1001
ACAD
1000
AcDbSavedByObjectVersion
1070
     0
  0
ACAD_PROXY_OBJECT
  5
33
102
{ACAD_REACTORS
330
2A
102
}
330
2A
100
AcDbProxyObject
 90
      499
 91
      501
 93
      428
310
425499585B1A5CDD1A58D08409038333333333333E33F0000000000000F9010740A907004050150800405405064090740C02480A1B40
1001
ACAD
1000
AcDbSavedByObjectVersion
1070
     0
  0
ACAD_PROXY_OBJECT
  5
42
102
{ACAD_REACTORS
330
2A
102
}
330
2A
100
AcDbProxyObject
 90
      499
 91
      501
 93
      420
310
4194DA1859195911B40902404333333333333E33F0000000000000F9010740A41107004050150800405405064090840C02480A0B40
1001
ACAD
1000
AcDbSavedByObjectVersion
1070
     0
  0
ACAD_PROXY_OBJECT
  5
41
102
{ACAD_REACTORS
330
2A
102
}
330
2A
100
AcDbProxyObject
 90
      499
 91
      501
 93
      516
310
4454DA18591959081DDA5D1A08195919D95CD1A40902404333333333333E33F0000000000000F901074090142907004050250800405405064090740C02480A0B40
1001
ACAD
1000
AcDbSavedByObjectVersion
1070
     0
  0
ACAD_PROXY_OBJECT
  5
3E
102
{ACAD_REACTORS
330
2A
102
}
330
2A
100
AcDbProxyObject
 90
      499
 91
      501
 93
      532
310
4394DA1859195CC81BD98811DC985E5174090240C333333333333E33F0000000000000F901079024090741D01000000000000111010841D405064090740C02480A0340
1001
ACAD
1000
AcDbSavedByObjectVersion
1070
     0
  0
ACAD_PROXY_OBJECT
  5
3F
102
{ACAD_REACTORS
330
2A
102
}
330
2A
100
AcDbProxyObject
 90
      499
 91
      501
 93
      476
310
41D4DAD95D18DA1E51840502408333333333333E33F0000000000000F901079024090741D01000000000000111010B41D405064090741802480A0340
1001
ACAD
1000
AcDbSavedByObjectVersion
1070
     0
  0
ACAD_PROXY_OBJECT
  5
37
102
{ACAD_REACTORS
330
2A
102
}
330
2A
100
AcDbProxyObject
 90
      499
 91
      501
 93
      412
310
41D51A1A58DAD95B90D409028333333333333E33F0000000000000F9010790141107004050150C41D405064090741402480A0350
1001
ACAD
1000
AcDbSavedByObjectVersion
1070
     0
  0
ACAD_PROXY_OBJECT
  5
30
102
{ACAD_REACTORS
330
2A
102
}
330
2A
100
AcDbProxyObject
 90
      499
 91
      501
 93
      420
310
4255DA5C99599C985B595059028333333333333E33F0000000000000F90107901411070040501600405405064090740C02480A0340
1001
ACAD
1000
AcDbSavedByObjectVersion
1070
     0
  0
ACAD_PROXY_OBJECT
  5
40
102
{ACAD_REACTORS
330
2A
102
}
330
2A
100
AcDbProxyObject
 90
      499
 91
      501
 93
      404
310
41560B54985E51940902404000000000000E03F0000000000000F9010740501907004050150841D405064090740C02480A1B40
1001
ACAD
1000
AcDbSavedByObjectVersion
1070
     0
  0
XRECORD
  5
390
102
{ACAD_REACTORS
330
387
102
}
330
387
100
AcDbXrecord
 90
        0
  0
XRECORD
  5
3A6
102
{ACAD_REACTORS
330
387
102
}
330
387
100
AcDbXrecord
1000
DSTYLE
1002
{
1070
   179
 70
     1
1070
   143
 40
0.03937
1070
   285
 70
     8
1070
   176
 70
     7
1070
   177
 70
     7
1070
   178
 70
     7
1070
   371
 70
    13
1070
   372
 70
    13
1070
   340
340
71
1070
   140
 40
3.5
1070
   288
 70
     1
1002
}
  0
XRECORD
  5
391
102
{ACAD_REACTORS
330
387
102
}
330
387
100
AcDbXrecord
  1
{0AC33DA7-D30A-4013-B62D-A76A9DA1B000}
  0
XRECORD
  5
38A
102
{ACAD_REACTORS
330
387
102
}
330
387
100
AcDbXrecord
  1

  0
XRECORD
  5
38F
102
{ACAD_REACTORS
330
387
102
}
330
387
100
AcDbXrecord
 90
        4
  0
XRECORD
  5
38C
102
{ACAD_REACTORS
330
387
102
}
330
387
100
AcDbXrecord
340
1A
  0
XRECORD
  5
38E
102
{ACAD_REACTORS
330
387
102
}
330
387
100
AcDbXrecord
 90
    10269
  0
XRECORD
  5
38D
102
{ACAD_REACTORS
330
387
102
}
330
387
100
AcDbXrecord
340
19
  0
XRECORD
  5
393
102
{ACAD_REACTORS
330
387
102
}
330
387
100
AcDbXrecord
 40
0.0
  0
XRECORD
  5
396
102
{ACAD_REACTORS
330
387
102
}
330
387
100
AcDbXrecord
340
0
  0
XRECORD
  5
39C
102
{ACAD_REACTORS
330
387
102
}
330
387
100
AcDbXrecord
 10
0.0
 20
0.0
 30
0.0
  0
XRECORD
  5
398
102
{ACAD_REACTORS
330
387
102
}
330
387
100
AcDbXrecord
 10
0.0
 20
0.0
 30
0.0
  0
XRECORD
  5
39B
102
{ACAD_REACTORS
330
387
102
}
330
387
100
AcDbXrecord
 10
0.0
 20
0.0
 30
0.0
  0
XRECORD
  5
399
102
{ACAD_REACTORS
330
387
102
}
330
387
100
AcDbXrecord
 10
0.0
 20
0.0
 30
0.0
  0
XRECORD
  5
39A
102
{ACAD_REACTORS
330
387
102
}
330
387
100
AcDbXrecord
 10
0.0
 20
0.0
 30
0.0
  0
XRECORD
  5
397
102
{ACAD_REACTORS
330
387
102
}
330
387
100
AcDbXrecord
 10
0.0
 20
0.0
 30
0.0
  0
XRECORD
  5
394
102
{ACAD_REACTORS
330
387
102
}
330
387
100
AcDbXrecord
340
0
  0
XRECORD
  5
395
102
{ACAD_REACTORS
330
387
102
}
330
387
100
AcDbXrecord
 70
     0
  0
XRECORD
  5
38B
102
{ACAD_REACTORS
330
387
102
}
330
387
100
AcDbXrecord
  1

  0
XRECORD
  5
388
102
{ACAD_REACTORS
330
387
102
}
330
387
100
AcDbXrecord
 90
        1
  0
XRECORD
  5
389
102
{ACAD_REACTORS
330
387
102
}
330
387
100
AcDbXrecord
 90
       70
  0
XRECORD
  5
39F
102
{ACAD_REACTORS
330
387
102
}
330
387
100
AcDbXrecord
340
0
  0
XRECORD
  5
3A5
102
{ACAD_REACTORS
330
387
102
}
330
387
100
AcDbXrecord
 10
0.0
 20
0.0
 30
0.0
  0
XRECORD
  5
3A1
102
{ACAD_REACTORS
330
387
102
}
330
387
100
AcDbXrecord
 10
0.0
 20
0.0
 30
0.0
  0
XRECORD
  5
3A4
102
{ACAD_REACTORS
330
387
102
}
330
387
100
AcDbXrecord
 10
0.0
 20
0.0
 30
0.0
  0
XRECORD
  5
3A2
102
{ACAD_REACTORS
330
387
102
}
330
387
100
AcDbXrecord
 10
0.0
 20
0.0
 30
0.0
  0
XRECORD
  5
3A3
102
{ACAD_REACTORS
330
387
102
}
330
387
100
AcDbXrecord
 10
0.0
 20
0.0
 30
0.0
  0
XRECORD
  5
3A0
102
{ACAD_REACTORS
330
387
102
}
330
387
100
AcDbXrecord
 10
0.0
 20
0.0
 30
0.0
  0
XRECORD
  5
39D
102
{ACAD_REACTORS
330
387
102
}
330
387
100
AcDbXrecord
340
0
  0
XRECORD
  5
39E
102
{ACAD_REACTORS
330
387
102
}
330
387
100
AcDbXrecord
 70
     0
  0
XRECORD
  5
392
102
{ACAD_REACTORS
330
387
102
}
330
387
100
AcDbXrecord
  1
{FAEB1C32-E019-11D5-929B-00C0DF256EC4}
  0
DICTIONARYVAR
  5
3B7
102
{ACAD_REACTORS
330
6C
102
}
330
6C
100
DictionaryVariables
280
     0
  1
1:1
  0
DICTIONARYVAR
  5
3A7
102
{ACAD_REACTORS
330
6C
102
}
330
6C
100
DictionaryVariables
280
     0
  1
Onshape-Standard
  0
DICTIONARYVAR
  5
3AD
102
{ACAD_REACTORS
330
6C
102
}
330
6C
100
DictionaryVariables
280
     0
  1
2
  0
DICTIONARYVAR
  5
3AE
102
{ACAD_REACTORS
330
6C
102
}
330
6C
100
DictionaryVariables
280
     0
  1
1
  0
DICTIONARYVAR
  5
3B8
102
{ACAD_REACTORS
330
6C
102
}
330
6C
100
DictionaryVariables
280
     0
  1
1
  0
DICTIONARYVAR
  5
6D
102
{ACAD_REACTORS
330
6C
102
}
330
6C
100
DictionaryVariables
280
     0
  1
0
  0
DICTIONARYVAR
  5
3AA
102
{ACAD_REACTORS
330
6C
102
}
330
6C
100
DictionaryVariables
280
     0
  1
80.000000
  0
DICTIONARYVAR
  5
3A9
102
{ACAD_REACTORS
330
6C
102
}
330
6C
100
DictionaryVariables
280
     0
  1
5.000000
  0
XRECORD
  5
35C
102
{ACAD_REACTORS
330
321
102
}
330
321
100
AcDbXrecord
 70
     4
  0
XRECORD
  5
35E
102
{ACAD_REACTORS
330
321
102
}
330
321
100
AcDbXrecord
 90
        0
  0
XRECORD
  5
35D
102
{ACAD_REACTORS
330
321
102
}
330
321
100
AcDbXrecord
 90
        1
  0
DICTIONARY
  5
3BB
330
45
100
AcDbDictionary
280
     1
  3
ACAD_XREC_ROUNDTRIP
360
3BC
  0
DICTIONARY
  5
3B9
330
44
100
AcDbDictionary
280
     1
  3
ACAD_XREC_ROUNDTRIP
360
3BA
  0
DICTIONARY
  5
3BD
330
46
100
AcDbDictionary
280
     1
  3
ACAD_XREC_ROUNDTRIP
360
3BE
  0
XRECORD
  5
3BC
102
{ACAD_REACTORS
330
3BB
102
}
330
3BB
100
AcDbXrecord
102
MATERIAL
148
0.0
149
0.0
149
0.0
 93
        0
 94
      127
282
     0
 72
     1
 77
     1
171
     1
175
     1
179
     1
273
     0
  0
XRECORD
  5
3BA
102
{ACAD_REACTORS
330
3B9
102
}
330
3B9
100
AcDbXrecord
102
MATERIAL
148
0.0
149
0.0
149
0.0
 93
        0
 94
      127
282
     0
 72
     1
 77
     1
171
     1
175
     1
179
     1
273
     0
  0
XRECORD
  5
3BE
102
{ACAD_REACTORS
330
3BD
102
}
330
3BD
100
AcDbXrecord
102
MATERIAL
148
0.0
149
0.0
149
0.0
 93
        0
 94
      127
282
     0
 72
     1
 77
     1
171
     1
175
     1
179
     1
273
     0
  0
ENDSEC
  0
EOF
