G04 #@! TF.GenerationSoftware,KiCad,Pcbnew,5.0.2-bee76a0~70~ubuntu18.04.1*
G04 #@! TF.CreationDate,2019-02-28T13:46:31+03:00*
G04 #@! TF.ProjectId,sensor-node,73656e73-6f72-42d6-9e6f-64652e6b6963,1*
G04 #@! TF.SameCoordinates,Original*
G04 #@! TF.FileFunction,Soldermask,Bot*
G04 #@! TF.FilePolarity,Negative*
%FSLAX46Y46*%
G04 Gerber Fmt 4.6, Leading zero omitted, Abs format (unit mm)*
G04 Created by KiCad (PCBNEW 5.0.2-bee76a0~70~ubuntu18.04.1) date Thu 28 Feb 2019 13:46:31 EAT*
%MOMM*%
%LPD*%
G01*
G04 APERTURE LIST*
%ADD10C,0.100000*%
G04 APERTURE END LIST*
D10*
G36*
X158657221Y-137869094D02*
X160138794Y-138163797D01*
X161765952Y-138837788D01*
X163098500Y-139728169D01*
X163230358Y-139816274D01*
X164475726Y-141061642D01*
X164475728Y-141061645D01*
X165454212Y-142526048D01*
X166128203Y-144153206D01*
X166471800Y-145880588D01*
X166471800Y-147641812D01*
X166128203Y-149369194D01*
X165454212Y-150996352D01*
X164582703Y-152300656D01*
X164475726Y-152460758D01*
X163230358Y-153706126D01*
X163230355Y-153706128D01*
X161765952Y-154684612D01*
X160138794Y-155358603D01*
X158657221Y-155653306D01*
X158411413Y-155702200D01*
X156650187Y-155702200D01*
X156404379Y-155653306D01*
X154922806Y-155358603D01*
X153295648Y-154684612D01*
X151831245Y-153706128D01*
X151831242Y-153706126D01*
X150585874Y-152460758D01*
X150478897Y-152300656D01*
X149607388Y-150996352D01*
X148933397Y-149369194D01*
X148589800Y-147641812D01*
X148589800Y-145880588D01*
X148933397Y-144153206D01*
X149607388Y-142526048D01*
X150585872Y-141061645D01*
X150585874Y-141061642D01*
X151831242Y-139816274D01*
X151963100Y-139728169D01*
X153295648Y-138837788D01*
X154922806Y-138163797D01*
X156404379Y-137869094D01*
X156650187Y-137820200D01*
X158411413Y-137820200D01*
X158657221Y-137869094D01*
X158657221Y-137869094D01*
G37*
G36*
X96414350Y-150996350D02*
X96666301Y-151046466D01*
X96835910Y-151116720D01*
X97075774Y-151216075D01*
X97094188Y-151228379D01*
X97444292Y-151462311D01*
X97757689Y-151775708D01*
X97921846Y-152021386D01*
X98003925Y-152144226D01*
X98103280Y-152384090D01*
X98173534Y-152553699D01*
X98188910Y-152631000D01*
X98240023Y-152887960D01*
X98260000Y-152988394D01*
X98260000Y-153431606D01*
X98173534Y-153866301D01*
X98161495Y-153895365D01*
X98003925Y-154275774D01*
X98003924Y-154275775D01*
X97757689Y-154644292D01*
X97444292Y-154957689D01*
X97292669Y-155059000D01*
X97075774Y-155203925D01*
X96835910Y-155303280D01*
X96666301Y-155373534D01*
X96231607Y-155460000D01*
X95788393Y-155460000D01*
X95353699Y-155373534D01*
X95184090Y-155303280D01*
X94944226Y-155203925D01*
X94727331Y-155059000D01*
X94575708Y-154957689D01*
X94262311Y-154644292D01*
X94016076Y-154275775D01*
X94016075Y-154275774D01*
X93858505Y-153895365D01*
X93846466Y-153866301D01*
X93760000Y-153431606D01*
X93760000Y-152988394D01*
X93779978Y-152887960D01*
X93831090Y-152631000D01*
X93846466Y-152553699D01*
X93916720Y-152384090D01*
X94016075Y-152144226D01*
X94098154Y-152021386D01*
X94262311Y-151775708D01*
X94575708Y-151462311D01*
X94925812Y-151228379D01*
X94944226Y-151216075D01*
X95184090Y-151116720D01*
X95353699Y-151046466D01*
X95605650Y-150996350D01*
X95788393Y-150960000D01*
X96231607Y-150960000D01*
X96414350Y-150996350D01*
X96414350Y-150996350D01*
G37*
G36*
X145047000Y-155436200D02*
X143945000Y-155436200D01*
X143945000Y-153834200D01*
X145047000Y-153834200D01*
X145047000Y-155436200D01*
X145047000Y-155436200D01*
G37*
G36*
X147647000Y-155436200D02*
X146545000Y-155436200D01*
X146545000Y-153834200D01*
X147647000Y-153834200D01*
X147647000Y-155436200D01*
X147647000Y-155436200D01*
G37*
G36*
X168415000Y-155436200D02*
X167313000Y-155436200D01*
X167313000Y-153834200D01*
X168415000Y-153834200D01*
X168415000Y-155436200D01*
X168415000Y-155436200D01*
G37*
G36*
X171015000Y-155436200D02*
X169913000Y-155436200D01*
X169913000Y-153834200D01*
X171015000Y-153834200D01*
X171015000Y-155436200D01*
X171015000Y-155436200D01*
G37*
G36*
X140665000Y-152932000D02*
X140667402Y-152956386D01*
X140674515Y-152979835D01*
X140686066Y-153001446D01*
X140701612Y-153020388D01*
X140720554Y-153035934D01*
X140742165Y-153047485D01*
X140765614Y-153054598D01*
X140790000Y-153057000D01*
X141562500Y-153057000D01*
X141562500Y-155059000D01*
X137615500Y-155059000D01*
X137615500Y-153057000D01*
X138963000Y-153057000D01*
X138987386Y-153054598D01*
X139010835Y-153047485D01*
X139032446Y-153035934D01*
X139051388Y-153020388D01*
X139066934Y-153001446D01*
X139078485Y-152979835D01*
X139085598Y-152956386D01*
X139088000Y-152932000D01*
X139088000Y-152264000D01*
X139085598Y-152239614D01*
X139078485Y-152216165D01*
X139066934Y-152194554D01*
X139051388Y-152175612D01*
X139032446Y-152160066D01*
X139010835Y-152148515D01*
X138987386Y-152141402D01*
X138963000Y-152139000D01*
X135865000Y-152139000D01*
X135840614Y-152141402D01*
X135817165Y-152148515D01*
X135795554Y-152160066D01*
X135776612Y-152175612D01*
X135761066Y-152194554D01*
X135749515Y-152216165D01*
X135742402Y-152239614D01*
X135740000Y-152264000D01*
X135740000Y-152932000D01*
X135742402Y-152956386D01*
X135749515Y-152979835D01*
X135761066Y-153001446D01*
X135776612Y-153020388D01*
X135795554Y-153035934D01*
X135817165Y-153047485D01*
X135840614Y-153054598D01*
X135865000Y-153057000D01*
X137212500Y-153057000D01*
X137212500Y-155059000D01*
X133265500Y-155059000D01*
X133265500Y-153057000D01*
X134038000Y-153057000D01*
X134062386Y-153054598D01*
X134085835Y-153047485D01*
X134107446Y-153035934D01*
X134126388Y-153020388D01*
X134141934Y-153001446D01*
X134153485Y-152979835D01*
X134160598Y-152956386D01*
X134163000Y-152932000D01*
X134163000Y-150657000D01*
X140665000Y-150657000D01*
X140665000Y-152932000D01*
X140665000Y-152932000D01*
G37*
G36*
X103991000Y-154986000D02*
X102389000Y-154986000D01*
X102389000Y-152084000D01*
X103991000Y-152084000D01*
X103991000Y-154986000D01*
X103991000Y-154986000D01*
G37*
G36*
X131291000Y-154986000D02*
X129689000Y-154986000D01*
X129689000Y-152084000D01*
X131291000Y-152084000D01*
X131291000Y-154986000D01*
X131291000Y-154986000D01*
G37*
G36*
X101044734Y-152675232D02*
X101254202Y-152761996D01*
X101442723Y-152887962D01*
X101603038Y-153048277D01*
X101729004Y-153236798D01*
X101815768Y-153446266D01*
X101860000Y-153668635D01*
X101860000Y-153895365D01*
X101815768Y-154117734D01*
X101729004Y-154327202D01*
X101603038Y-154515723D01*
X101442723Y-154676038D01*
X101254202Y-154802004D01*
X101044734Y-154888768D01*
X100822365Y-154933000D01*
X100595635Y-154933000D01*
X100373266Y-154888768D01*
X100163798Y-154802004D01*
X99975277Y-154676038D01*
X99814962Y-154515723D01*
X99688996Y-154327202D01*
X99602232Y-154117734D01*
X99558000Y-153895365D01*
X99558000Y-153668635D01*
X99602232Y-153446266D01*
X99688996Y-153236798D01*
X99814962Y-153048277D01*
X99975277Y-152887962D01*
X100163798Y-152761996D01*
X100373266Y-152675232D01*
X100595635Y-152631000D01*
X100822365Y-152631000D01*
X101044734Y-152675232D01*
X101044734Y-152675232D01*
G37*
G36*
X169990433Y-150526893D02*
X170080657Y-150544839D01*
X170186267Y-150588585D01*
X170335621Y-150650449D01*
X170565089Y-150803774D01*
X170760226Y-150998911D01*
X170913551Y-151228379D01*
X171019161Y-151483344D01*
X171073000Y-151754012D01*
X171073000Y-152029988D01*
X171019161Y-152300656D01*
X170913551Y-152555621D01*
X170760226Y-152785089D01*
X170565089Y-152980226D01*
X170335621Y-153133551D01*
X170186267Y-153195415D01*
X170080657Y-153239161D01*
X169990433Y-153257107D01*
X169809988Y-153293000D01*
X169534012Y-153293000D01*
X169353567Y-153257107D01*
X169263343Y-153239161D01*
X169157733Y-153195415D01*
X169008379Y-153133551D01*
X168778911Y-152980226D01*
X168583774Y-152785089D01*
X168430449Y-152555621D01*
X168324839Y-152300656D01*
X168271000Y-152029988D01*
X168271000Y-151754012D01*
X168324839Y-151483344D01*
X168430449Y-151228379D01*
X168583774Y-150998911D01*
X168778911Y-150803774D01*
X169008379Y-150650449D01*
X169157733Y-150588585D01*
X169263343Y-150544839D01*
X169353567Y-150526893D01*
X169534012Y-150491000D01*
X169809988Y-150491000D01*
X169990433Y-150526893D01*
X169990433Y-150526893D01*
G37*
G36*
X147421800Y-149352200D02*
X144779800Y-149352200D01*
X144779800Y-144170200D01*
X147421800Y-144170200D01*
X147421800Y-149352200D01*
X147421800Y-149352200D01*
G37*
G36*
X170281800Y-149352200D02*
X167639800Y-149352200D01*
X167639800Y-144170200D01*
X170281800Y-144170200D01*
X170281800Y-149352200D01*
X170281800Y-149352200D01*
G37*
G36*
X140445000Y-148271000D02*
X136843000Y-148271000D01*
X136843000Y-146369000D01*
X140445000Y-146369000D01*
X140445000Y-148271000D01*
X140445000Y-148271000D01*
G37*
G36*
X135445000Y-148271000D02*
X131843000Y-148271000D01*
X131843000Y-146369000D01*
X135445000Y-146369000D01*
X135445000Y-148271000D01*
X135445000Y-148271000D01*
G37*
G36*
X140597400Y-144562600D02*
X136995400Y-144562600D01*
X136995400Y-142660600D01*
X140597400Y-142660600D01*
X140597400Y-144562600D01*
X140597400Y-144562600D01*
G37*
G36*
X135597400Y-144562600D02*
X131995400Y-144562600D01*
X131995400Y-142660600D01*
X135597400Y-142660600D01*
X135597400Y-144562600D01*
X135597400Y-144562600D01*
G37*
G36*
X140435000Y-141311400D02*
X136933000Y-141311400D01*
X136933000Y-139409400D01*
X140435000Y-139409400D01*
X140435000Y-141311400D01*
X140435000Y-141311400D01*
G37*
G36*
X133717999Y-139610937D02*
X133727611Y-139613853D01*
X133736469Y-139618588D01*
X133744237Y-139624963D01*
X133754446Y-139637402D01*
X133761372Y-139647768D01*
X133778698Y-139665095D01*
X133799073Y-139678710D01*
X133821711Y-139688088D01*
X133845745Y-139692869D01*
X133870249Y-139692869D01*
X133894283Y-139688089D01*
X133916922Y-139678713D01*
X133937297Y-139665099D01*
X133954624Y-139647773D01*
X133961552Y-139637404D01*
X133971763Y-139624963D01*
X133979531Y-139618588D01*
X133988389Y-139613853D01*
X133998001Y-139610937D01*
X134014140Y-139609348D01*
X134501860Y-139609348D01*
X134520198Y-139611154D01*
X134532450Y-139611756D01*
X134550869Y-139611756D01*
X134573149Y-139613950D01*
X134657236Y-139630676D01*
X134678655Y-139637174D01*
X134757871Y-139669985D01*
X134777607Y-139680535D01*
X134848897Y-139728169D01*
X134866208Y-139742376D01*
X134926824Y-139802992D01*
X134941031Y-139820303D01*
X134988665Y-139891593D01*
X134999215Y-139911329D01*
X135032026Y-139990545D01*
X135038524Y-140011964D01*
X135055250Y-140096051D01*
X135057444Y-140118331D01*
X135057444Y-140136750D01*
X135058046Y-140149002D01*
X135059852Y-140167340D01*
X135059852Y-140655061D01*
X135058046Y-140673398D01*
X135057444Y-140685650D01*
X135057444Y-140704069D01*
X135055250Y-140726349D01*
X135038524Y-140810436D01*
X135032026Y-140831855D01*
X134999215Y-140911071D01*
X134988665Y-140930807D01*
X134941031Y-141002097D01*
X134926824Y-141019408D01*
X134866208Y-141080024D01*
X134848897Y-141094231D01*
X134777607Y-141141865D01*
X134757871Y-141152415D01*
X134678655Y-141185226D01*
X134657236Y-141191724D01*
X134573149Y-141208450D01*
X134550869Y-141210644D01*
X134532450Y-141210644D01*
X134520198Y-141211246D01*
X134501861Y-141213052D01*
X134014140Y-141213052D01*
X133998001Y-141211463D01*
X133988389Y-141208547D01*
X133979531Y-141203812D01*
X133971763Y-141197437D01*
X133961554Y-141184998D01*
X133954628Y-141174632D01*
X133937302Y-141157305D01*
X133916927Y-141143690D01*
X133894289Y-141134312D01*
X133870255Y-141129531D01*
X133845751Y-141129531D01*
X133821717Y-141134311D01*
X133799078Y-141143687D01*
X133778703Y-141157301D01*
X133761376Y-141174627D01*
X133754448Y-141184996D01*
X133744237Y-141197437D01*
X133736469Y-141203812D01*
X133727611Y-141208547D01*
X133717999Y-141211463D01*
X133701860Y-141213052D01*
X133214139Y-141213052D01*
X133195802Y-141211246D01*
X133183550Y-141210644D01*
X133165131Y-141210644D01*
X133142851Y-141208450D01*
X133058764Y-141191724D01*
X133037345Y-141185226D01*
X132958129Y-141152415D01*
X132938393Y-141141865D01*
X132867103Y-141094231D01*
X132849792Y-141080024D01*
X132789176Y-141019408D01*
X132774969Y-141002097D01*
X132727335Y-140930807D01*
X132716785Y-140911071D01*
X132683974Y-140831855D01*
X132677476Y-140810436D01*
X132660750Y-140726349D01*
X132658556Y-140704069D01*
X132658556Y-140685650D01*
X132657954Y-140673398D01*
X132656148Y-140655061D01*
X132656148Y-140167340D01*
X132657954Y-140149002D01*
X132658556Y-140136750D01*
X132658556Y-140118331D01*
X132660750Y-140096051D01*
X132677476Y-140011964D01*
X132683974Y-139990545D01*
X132716785Y-139911329D01*
X132727335Y-139891593D01*
X132774969Y-139820303D01*
X132789176Y-139802992D01*
X132849792Y-139742376D01*
X132867103Y-139728169D01*
X132938393Y-139680535D01*
X132958129Y-139669985D01*
X133037345Y-139637174D01*
X133058764Y-139630676D01*
X133142851Y-139613950D01*
X133165131Y-139611756D01*
X133183550Y-139611756D01*
X133195802Y-139611154D01*
X133214140Y-139609348D01*
X133701860Y-139609348D01*
X133717999Y-139610937D01*
X133717999Y-139610937D01*
G37*
G36*
X140188200Y-137243400D02*
X137586200Y-137243400D01*
X137586200Y-134841400D01*
X140188200Y-134841400D01*
X140188200Y-137243400D01*
X140188200Y-137243400D01*
G37*
G36*
X144488200Y-137243400D02*
X141886200Y-137243400D01*
X141886200Y-134841400D01*
X144488200Y-134841400D01*
X144488200Y-137243400D01*
X144488200Y-137243400D01*
G37*
G36*
X134250200Y-136828200D02*
X132348200Y-136828200D01*
X132348200Y-133326200D01*
X134250200Y-133326200D01*
X134250200Y-136828200D01*
X134250200Y-136828200D01*
G37*
G36*
X161056800Y-136413400D02*
X160354800Y-136413400D01*
X160354800Y-134811400D01*
X161056800Y-134811400D01*
X161056800Y-136413400D01*
X161056800Y-136413400D01*
G37*
G36*
X154706800Y-136413400D02*
X154004800Y-136413400D01*
X154004800Y-134811400D01*
X154706800Y-134811400D01*
X154706800Y-136413400D01*
X154706800Y-136413400D01*
G37*
G36*
X155976800Y-136413400D02*
X155274800Y-136413400D01*
X155274800Y-134811400D01*
X155976800Y-134811400D01*
X155976800Y-136413400D01*
X155976800Y-136413400D01*
G37*
G36*
X157246800Y-136413400D02*
X156544800Y-136413400D01*
X156544800Y-134811400D01*
X157246800Y-134811400D01*
X157246800Y-136413400D01*
X157246800Y-136413400D01*
G37*
G36*
X159786800Y-136413400D02*
X159084800Y-136413400D01*
X159084800Y-134811400D01*
X159786800Y-134811400D01*
X159786800Y-136413400D01*
X159786800Y-136413400D01*
G37*
G36*
X163596800Y-136413400D02*
X162894800Y-136413400D01*
X162894800Y-134811400D01*
X163596800Y-134811400D01*
X163596800Y-136413400D01*
X163596800Y-136413400D01*
G37*
G36*
X162326800Y-136413400D02*
X161624800Y-136413400D01*
X161624800Y-134811400D01*
X162326800Y-134811400D01*
X162326800Y-136413400D01*
X162326800Y-136413400D01*
G37*
G36*
X158516800Y-136413400D02*
X157814800Y-136413400D01*
X157814800Y-134811400D01*
X158516800Y-134811400D01*
X158516800Y-136413400D01*
X158516800Y-136413400D01*
G37*
G36*
X169020443Y-132252319D02*
X169086627Y-132258837D01*
X169159207Y-132280854D01*
X169256467Y-132310357D01*
X169375505Y-132373985D01*
X169412991Y-132394022D01*
X169448729Y-132423352D01*
X169550186Y-132506614D01*
X169633448Y-132608071D01*
X169662778Y-132643809D01*
X169662779Y-132643811D01*
X169746443Y-132800333D01*
X169746443Y-132800334D01*
X169797963Y-132970173D01*
X169815359Y-133146800D01*
X169797963Y-133323427D01*
X169776333Y-133394731D01*
X169746443Y-133493267D01*
X169701429Y-133577481D01*
X169662778Y-133649791D01*
X169633448Y-133685529D01*
X169550186Y-133786986D01*
X169448729Y-133870248D01*
X169412991Y-133899578D01*
X169412989Y-133899579D01*
X169256467Y-133983243D01*
X169199853Y-134000416D01*
X169086627Y-134034763D01*
X169020442Y-134041282D01*
X168954260Y-134047800D01*
X168865740Y-134047800D01*
X168799558Y-134041282D01*
X168733373Y-134034763D01*
X168620147Y-134000416D01*
X168563533Y-133983243D01*
X168407011Y-133899579D01*
X168407009Y-133899578D01*
X168371271Y-133870248D01*
X168269814Y-133786986D01*
X168186552Y-133685529D01*
X168157222Y-133649791D01*
X168118571Y-133577481D01*
X168073557Y-133493267D01*
X168043667Y-133394731D01*
X168022037Y-133323427D01*
X168004641Y-133146800D01*
X168022037Y-132970173D01*
X168073557Y-132800334D01*
X168073557Y-132800333D01*
X168157221Y-132643811D01*
X168157222Y-132643809D01*
X168186552Y-132608071D01*
X168269814Y-132506614D01*
X168371271Y-132423352D01*
X168407009Y-132394022D01*
X168444495Y-132373985D01*
X168563533Y-132310357D01*
X168660793Y-132280854D01*
X168733373Y-132258837D01*
X168799557Y-132252319D01*
X168865740Y-132245800D01*
X168954260Y-132245800D01*
X169020443Y-132252319D01*
X169020443Y-132252319D01*
G37*
G36*
X166480443Y-132252319D02*
X166546627Y-132258837D01*
X166619207Y-132280854D01*
X166716467Y-132310357D01*
X166835505Y-132373985D01*
X166872991Y-132394022D01*
X166908729Y-132423352D01*
X167010186Y-132506614D01*
X167093448Y-132608071D01*
X167122778Y-132643809D01*
X167122779Y-132643811D01*
X167206443Y-132800333D01*
X167206443Y-132800334D01*
X167257963Y-132970173D01*
X167275359Y-133146800D01*
X167257963Y-133323427D01*
X167236333Y-133394731D01*
X167206443Y-133493267D01*
X167161429Y-133577481D01*
X167122778Y-133649791D01*
X167093448Y-133685529D01*
X167010186Y-133786986D01*
X166908729Y-133870248D01*
X166872991Y-133899578D01*
X166872989Y-133899579D01*
X166716467Y-133983243D01*
X166659853Y-134000416D01*
X166546627Y-134034763D01*
X166480442Y-134041282D01*
X166414260Y-134047800D01*
X166325740Y-134047800D01*
X166259558Y-134041282D01*
X166193373Y-134034763D01*
X166080147Y-134000416D01*
X166023533Y-133983243D01*
X165867011Y-133899579D01*
X165867009Y-133899578D01*
X165831271Y-133870248D01*
X165729814Y-133786986D01*
X165646552Y-133685529D01*
X165617222Y-133649791D01*
X165578571Y-133577481D01*
X165533557Y-133493267D01*
X165503667Y-133394731D01*
X165482037Y-133323427D01*
X165464641Y-133146800D01*
X165482037Y-132970173D01*
X165533557Y-132800334D01*
X165533557Y-132800333D01*
X165617221Y-132643811D01*
X165617222Y-132643809D01*
X165646552Y-132608071D01*
X165729814Y-132506614D01*
X165831271Y-132423352D01*
X165867009Y-132394022D01*
X165904495Y-132373985D01*
X166023533Y-132310357D01*
X166120793Y-132280854D01*
X166193373Y-132258837D01*
X166259557Y-132252319D01*
X166325740Y-132245800D01*
X166414260Y-132245800D01*
X166480443Y-132252319D01*
X166480443Y-132252319D01*
G37*
G36*
X107588228Y-132216703D02*
X107743100Y-132280853D01*
X107882481Y-132373985D01*
X108001015Y-132492519D01*
X108094147Y-132631900D01*
X108158297Y-132786772D01*
X108191000Y-132951184D01*
X108191000Y-133118816D01*
X108158297Y-133283228D01*
X108094147Y-133438100D01*
X108001015Y-133577481D01*
X107882481Y-133696015D01*
X107743100Y-133789147D01*
X107588228Y-133853297D01*
X107423816Y-133886000D01*
X107256184Y-133886000D01*
X107091772Y-133853297D01*
X106936900Y-133789147D01*
X106797519Y-133696015D01*
X106678985Y-133577481D01*
X106585853Y-133438100D01*
X106521703Y-133283228D01*
X106489000Y-133118816D01*
X106489000Y-132951184D01*
X106521703Y-132786772D01*
X106585853Y-132631900D01*
X106678985Y-132492519D01*
X106797519Y-132373985D01*
X106936900Y-132280853D01*
X107091772Y-132216703D01*
X107256184Y-132184000D01*
X107423816Y-132184000D01*
X107588228Y-132216703D01*
X107588228Y-132216703D01*
G37*
G36*
X128515305Y-132457096D02*
X128624680Y-132502400D01*
X128723118Y-132568175D01*
X128806825Y-132651882D01*
X128872600Y-132750320D01*
X128917904Y-132859695D01*
X128941000Y-132975806D01*
X128941000Y-133094194D01*
X128917904Y-133210305D01*
X128872600Y-133319680D01*
X128806825Y-133418118D01*
X128723118Y-133501825D01*
X128624680Y-133567600D01*
X128515305Y-133612904D01*
X128399194Y-133636000D01*
X128280806Y-133636000D01*
X128164695Y-133612904D01*
X128055320Y-133567600D01*
X127956882Y-133501825D01*
X127873175Y-133418118D01*
X127807400Y-133319680D01*
X127762096Y-133210305D01*
X127739000Y-133094194D01*
X127739000Y-132975806D01*
X127762096Y-132859695D01*
X127807400Y-132750320D01*
X127873175Y-132651882D01*
X127956882Y-132568175D01*
X128055320Y-132502400D01*
X128164695Y-132457096D01*
X128280806Y-132434000D01*
X128399194Y-132434000D01*
X128515305Y-132457096D01*
X128515305Y-132457096D01*
G37*
G36*
X129496000Y-130459000D02*
X129498402Y-130483386D01*
X129505515Y-130506835D01*
X129517066Y-130528446D01*
X129532612Y-130547388D01*
X129551554Y-130562934D01*
X129573165Y-130574485D01*
X129596614Y-130581598D01*
X129621000Y-130584000D01*
X131291000Y-130584000D01*
X131291000Y-133486000D01*
X129689000Y-133486000D01*
X129689000Y-131161000D01*
X129686598Y-131136614D01*
X129679485Y-131113165D01*
X129667934Y-131091554D01*
X129652388Y-131072612D01*
X129633446Y-131057066D01*
X129611835Y-131045515D01*
X129588386Y-131038402D01*
X129564000Y-131036000D01*
X128694000Y-131036000D01*
X128694000Y-129434000D01*
X129496000Y-129434000D01*
X129496000Y-130459000D01*
X129496000Y-130459000D01*
G37*
G36*
X106191000Y-133486000D02*
X104589000Y-133486000D01*
X104589000Y-130584000D01*
X106191000Y-130584000D01*
X106191000Y-133486000D01*
X106191000Y-133486000D01*
G37*
G36*
X141018277Y-131943065D02*
X141055964Y-131954498D01*
X141090703Y-131973066D01*
X141121148Y-131998052D01*
X141146134Y-132028497D01*
X141164702Y-132063236D01*
X141176135Y-132100923D01*
X141180600Y-132146261D01*
X141180600Y-133232939D01*
X141176135Y-133278277D01*
X141164702Y-133315964D01*
X141146134Y-133350703D01*
X141121148Y-133381148D01*
X141090703Y-133406134D01*
X141055964Y-133424702D01*
X141018277Y-133436135D01*
X140972939Y-133440600D01*
X140136261Y-133440600D01*
X140090923Y-133436135D01*
X140053236Y-133424702D01*
X140018497Y-133406134D01*
X139988052Y-133381148D01*
X139963066Y-133350703D01*
X139944498Y-133315964D01*
X139933065Y-133278277D01*
X139928600Y-133232939D01*
X139928600Y-132146261D01*
X139933065Y-132100923D01*
X139944498Y-132063236D01*
X139963066Y-132028497D01*
X139988052Y-131998052D01*
X140018497Y-131973066D01*
X140053236Y-131954498D01*
X140090923Y-131943065D01*
X140136261Y-131938600D01*
X140972939Y-131938600D01*
X141018277Y-131943065D01*
X141018277Y-131943065D01*
G37*
G36*
X143068277Y-131943065D02*
X143105964Y-131954498D01*
X143140703Y-131973066D01*
X143171148Y-131998052D01*
X143196134Y-132028497D01*
X143214702Y-132063236D01*
X143226135Y-132100923D01*
X143230600Y-132146261D01*
X143230600Y-133232939D01*
X143226135Y-133278277D01*
X143214702Y-133315964D01*
X143196134Y-133350703D01*
X143171148Y-133381148D01*
X143140703Y-133406134D01*
X143105964Y-133424702D01*
X143068277Y-133436135D01*
X143022939Y-133440600D01*
X142186261Y-133440600D01*
X142140923Y-133436135D01*
X142103236Y-133424702D01*
X142068497Y-133406134D01*
X142038052Y-133381148D01*
X142013066Y-133350703D01*
X141994498Y-133315964D01*
X141983065Y-133278277D01*
X141978600Y-133232939D01*
X141978600Y-132146261D01*
X141983065Y-132100923D01*
X141994498Y-132063236D01*
X142013066Y-132028497D01*
X142038052Y-131998052D01*
X142068497Y-131973066D01*
X142103236Y-131954498D01*
X142140923Y-131943065D01*
X142186261Y-131938600D01*
X143022939Y-131938600D01*
X143068277Y-131943065D01*
X143068277Y-131943065D01*
G37*
G36*
X169020442Y-129712318D02*
X169086627Y-129718837D01*
X169180127Y-129747200D01*
X169256467Y-129770357D01*
X169395087Y-129844452D01*
X169412991Y-129854022D01*
X169448729Y-129883352D01*
X169550186Y-129966614D01*
X169633448Y-130068071D01*
X169662778Y-130103809D01*
X169662779Y-130103811D01*
X169746443Y-130260333D01*
X169755463Y-130290069D01*
X169797963Y-130430173D01*
X169815359Y-130606800D01*
X169797963Y-130783427D01*
X169793223Y-130799052D01*
X169746443Y-130953267D01*
X169701095Y-131038105D01*
X169662778Y-131109791D01*
X169640765Y-131136614D01*
X169550186Y-131246986D01*
X169448729Y-131330248D01*
X169412991Y-131359578D01*
X169412989Y-131359579D01*
X169256467Y-131443243D01*
X169199853Y-131460416D01*
X169086627Y-131494763D01*
X169020443Y-131501281D01*
X168954260Y-131507800D01*
X168865740Y-131507800D01*
X168799557Y-131501281D01*
X168733373Y-131494763D01*
X168620147Y-131460416D01*
X168563533Y-131443243D01*
X168407011Y-131359579D01*
X168407009Y-131359578D01*
X168371271Y-131330248D01*
X168269814Y-131246986D01*
X168179235Y-131136614D01*
X168157222Y-131109791D01*
X168118905Y-131038105D01*
X168073557Y-130953267D01*
X168026777Y-130799052D01*
X168022037Y-130783427D01*
X168004641Y-130606800D01*
X168022037Y-130430173D01*
X168064537Y-130290069D01*
X168073557Y-130260333D01*
X168157221Y-130103811D01*
X168157222Y-130103809D01*
X168186552Y-130068071D01*
X168269814Y-129966614D01*
X168371271Y-129883352D01*
X168407009Y-129854022D01*
X168424913Y-129844452D01*
X168563533Y-129770357D01*
X168639873Y-129747200D01*
X168733373Y-129718837D01*
X168799558Y-129712318D01*
X168865740Y-129705800D01*
X168954260Y-129705800D01*
X169020442Y-129712318D01*
X169020442Y-129712318D01*
G37*
G36*
X166480442Y-129712318D02*
X166546627Y-129718837D01*
X166640127Y-129747200D01*
X166716467Y-129770357D01*
X166855087Y-129844452D01*
X166872991Y-129854022D01*
X166908729Y-129883352D01*
X167010186Y-129966614D01*
X167093448Y-130068071D01*
X167122778Y-130103809D01*
X167122779Y-130103811D01*
X167206443Y-130260333D01*
X167215463Y-130290069D01*
X167257963Y-130430173D01*
X167275359Y-130606800D01*
X167257963Y-130783427D01*
X167253223Y-130799052D01*
X167206443Y-130953267D01*
X167161095Y-131038105D01*
X167122778Y-131109791D01*
X167100765Y-131136614D01*
X167010186Y-131246986D01*
X166908729Y-131330248D01*
X166872991Y-131359578D01*
X166872989Y-131359579D01*
X166716467Y-131443243D01*
X166659853Y-131460416D01*
X166546627Y-131494763D01*
X166480443Y-131501281D01*
X166414260Y-131507800D01*
X166325740Y-131507800D01*
X166259557Y-131501281D01*
X166193373Y-131494763D01*
X166080147Y-131460416D01*
X166023533Y-131443243D01*
X165867011Y-131359579D01*
X165867009Y-131359578D01*
X165831271Y-131330248D01*
X165729814Y-131246986D01*
X165639235Y-131136614D01*
X165617222Y-131109791D01*
X165578905Y-131038105D01*
X165533557Y-130953267D01*
X165486777Y-130799052D01*
X165482037Y-130783427D01*
X165464641Y-130606800D01*
X165482037Y-130430173D01*
X165524537Y-130290069D01*
X165533557Y-130260333D01*
X165617221Y-130103811D01*
X165617222Y-130103809D01*
X165646552Y-130068071D01*
X165729814Y-129966614D01*
X165831271Y-129883352D01*
X165867009Y-129854022D01*
X165884913Y-129844452D01*
X166023533Y-129770357D01*
X166099873Y-129747200D01*
X166193373Y-129718837D01*
X166259558Y-129712318D01*
X166325740Y-129705800D01*
X166414260Y-129705800D01*
X166480442Y-129712318D01*
X166480442Y-129712318D01*
G37*
G36*
X151749018Y-125893173D02*
X152059437Y-125954919D01*
X152560087Y-126162295D01*
X152937241Y-126414302D01*
X153010663Y-126463361D01*
X153393839Y-126846537D01*
X153393841Y-126846540D01*
X153694905Y-127297113D01*
X153902281Y-127797763D01*
X153902281Y-127797764D01*
X154008000Y-128329249D01*
X154008000Y-128871151D01*
X153972186Y-129051200D01*
X153902281Y-129402637D01*
X153694905Y-129903287D01*
X153404636Y-130337704D01*
X153393839Y-130353863D01*
X153010663Y-130737039D01*
X153010660Y-130737041D01*
X152560087Y-131038105D01*
X152059437Y-131245481D01*
X151793694Y-131298340D01*
X151527951Y-131351200D01*
X150986049Y-131351200D01*
X150720306Y-131298340D01*
X150454563Y-131245481D01*
X149953913Y-131038105D01*
X149503340Y-130737041D01*
X149503337Y-130737039D01*
X149120161Y-130353863D01*
X149109364Y-130337704D01*
X148819095Y-129903287D01*
X148611719Y-129402637D01*
X148541814Y-129051200D01*
X148506000Y-128871151D01*
X148506000Y-128329249D01*
X148611719Y-127797764D01*
X148611719Y-127797763D01*
X148819095Y-127297113D01*
X149120159Y-126846540D01*
X149120161Y-126846537D01*
X149503337Y-126463361D01*
X149576759Y-126414302D01*
X149953913Y-126162295D01*
X150454563Y-125954919D01*
X150764982Y-125893173D01*
X150986049Y-125849200D01*
X151527951Y-125849200D01*
X151749018Y-125893173D01*
X151749018Y-125893173D01*
G37*
G36*
X142980600Y-131142600D02*
X142078600Y-131142600D01*
X142078600Y-130140600D01*
X142980600Y-130140600D01*
X142980600Y-131142600D01*
X142980600Y-131142600D01*
G37*
G36*
X141080600Y-131142600D02*
X140178600Y-131142600D01*
X140178600Y-130140600D01*
X141080600Y-130140600D01*
X141080600Y-131142600D01*
X141080600Y-131142600D01*
G37*
G36*
X137945800Y-131100600D02*
X134443800Y-131100600D01*
X134443800Y-129198600D01*
X137945800Y-129198600D01*
X137945800Y-131100600D01*
X137945800Y-131100600D01*
G37*
G36*
X125446000Y-131036000D02*
X124344000Y-131036000D01*
X124344000Y-129434000D01*
X125446000Y-129434000D01*
X125446000Y-131036000D01*
X125446000Y-131036000D01*
G37*
G36*
X110516000Y-131036000D02*
X109414000Y-131036000D01*
X109414000Y-129434000D01*
X110516000Y-129434000D01*
X110516000Y-131036000D01*
X110516000Y-131036000D01*
G37*
G36*
X123016000Y-131036000D02*
X121914000Y-131036000D01*
X121914000Y-129434000D01*
X123016000Y-129434000D01*
X123016000Y-131036000D01*
X123016000Y-131036000D01*
G37*
G36*
X115516000Y-131036000D02*
X114414000Y-131036000D01*
X114414000Y-129434000D01*
X115516000Y-129434000D01*
X115516000Y-131036000D01*
X115516000Y-131036000D01*
G37*
G36*
X113016000Y-131036000D02*
X111914000Y-131036000D01*
X111914000Y-129434000D01*
X113016000Y-129434000D01*
X113016000Y-131036000D01*
X113016000Y-131036000D01*
G37*
G36*
X128296000Y-131036000D02*
X127494000Y-131036000D01*
X127494000Y-129434000D01*
X128296000Y-129434000D01*
X128296000Y-131036000D01*
X128296000Y-131036000D01*
G37*
G36*
X120516000Y-131036000D02*
X119414000Y-131036000D01*
X119414000Y-129434000D01*
X120516000Y-129434000D01*
X120516000Y-131036000D01*
X120516000Y-131036000D01*
G37*
G36*
X118016000Y-131036000D02*
X116914000Y-131036000D01*
X116914000Y-129434000D01*
X118016000Y-129434000D01*
X118016000Y-131036000D01*
X118016000Y-131036000D01*
G37*
G36*
X108016000Y-131036000D02*
X106914000Y-131036000D01*
X106914000Y-129434000D01*
X108016000Y-129434000D01*
X108016000Y-131036000D01*
X108016000Y-131036000D01*
G37*
G36*
X127146000Y-131036000D02*
X126044000Y-131036000D01*
X126044000Y-129434000D01*
X127146000Y-129434000D01*
X127146000Y-131036000D01*
X127146000Y-131036000D01*
G37*
G36*
X146316399Y-129196937D02*
X146326011Y-129199853D01*
X146334869Y-129204588D01*
X146342637Y-129210963D01*
X146352846Y-129223402D01*
X146359772Y-129233768D01*
X146377098Y-129251095D01*
X146397473Y-129264710D01*
X146420111Y-129274088D01*
X146444145Y-129278869D01*
X146468649Y-129278869D01*
X146492683Y-129274089D01*
X146515322Y-129264713D01*
X146535697Y-129251099D01*
X146553024Y-129233773D01*
X146559952Y-129223404D01*
X146570163Y-129210963D01*
X146577931Y-129204588D01*
X146586789Y-129199853D01*
X146596401Y-129196937D01*
X146612540Y-129195348D01*
X147100260Y-129195348D01*
X147118598Y-129197154D01*
X147130850Y-129197756D01*
X147149269Y-129197756D01*
X147171549Y-129199950D01*
X147255636Y-129216676D01*
X147277055Y-129223174D01*
X147356271Y-129255985D01*
X147376007Y-129266535D01*
X147447297Y-129314169D01*
X147464608Y-129328376D01*
X147525224Y-129388992D01*
X147539431Y-129406303D01*
X147587065Y-129477593D01*
X147597615Y-129497329D01*
X147630426Y-129576545D01*
X147636924Y-129597964D01*
X147653650Y-129682051D01*
X147655844Y-129704331D01*
X147655844Y-129722750D01*
X147656446Y-129735002D01*
X147658252Y-129753340D01*
X147658252Y-130241061D01*
X147656446Y-130259398D01*
X147655844Y-130271650D01*
X147655844Y-130290069D01*
X147653650Y-130312349D01*
X147636924Y-130396436D01*
X147630426Y-130417855D01*
X147597615Y-130497071D01*
X147587065Y-130516807D01*
X147539431Y-130588097D01*
X147525224Y-130605408D01*
X147464608Y-130666024D01*
X147447297Y-130680231D01*
X147376007Y-130727865D01*
X147356271Y-130738415D01*
X147277055Y-130771226D01*
X147255636Y-130777724D01*
X147171549Y-130794450D01*
X147149269Y-130796644D01*
X147130850Y-130796644D01*
X147118598Y-130797246D01*
X147100261Y-130799052D01*
X146612540Y-130799052D01*
X146596401Y-130797463D01*
X146586789Y-130794547D01*
X146577931Y-130789812D01*
X146570163Y-130783437D01*
X146559954Y-130770998D01*
X146553028Y-130760632D01*
X146535702Y-130743305D01*
X146515327Y-130729690D01*
X146492689Y-130720312D01*
X146468655Y-130715531D01*
X146444151Y-130715531D01*
X146420117Y-130720311D01*
X146397478Y-130729687D01*
X146377103Y-130743301D01*
X146359776Y-130760627D01*
X146352848Y-130770996D01*
X146342637Y-130783437D01*
X146334869Y-130789812D01*
X146326011Y-130794547D01*
X146316399Y-130797463D01*
X146300260Y-130799052D01*
X145812539Y-130799052D01*
X145794202Y-130797246D01*
X145781950Y-130796644D01*
X145763531Y-130796644D01*
X145741251Y-130794450D01*
X145657164Y-130777724D01*
X145635745Y-130771226D01*
X145556529Y-130738415D01*
X145536793Y-130727865D01*
X145465503Y-130680231D01*
X145448192Y-130666024D01*
X145387576Y-130605408D01*
X145373369Y-130588097D01*
X145325735Y-130516807D01*
X145315185Y-130497071D01*
X145282374Y-130417855D01*
X145275876Y-130396436D01*
X145259150Y-130312349D01*
X145256956Y-130290069D01*
X145256956Y-130271650D01*
X145256354Y-130259398D01*
X145254548Y-130241061D01*
X145254548Y-129753340D01*
X145256354Y-129735002D01*
X145256956Y-129722750D01*
X145256956Y-129704331D01*
X145259150Y-129682051D01*
X145275876Y-129597964D01*
X145282374Y-129576545D01*
X145315185Y-129497329D01*
X145325735Y-129477593D01*
X145373369Y-129406303D01*
X145387576Y-129388992D01*
X145448192Y-129328376D01*
X145465503Y-129314169D01*
X145536793Y-129266535D01*
X145556529Y-129255985D01*
X145635745Y-129223174D01*
X145657164Y-129216676D01*
X145741251Y-129199950D01*
X145763531Y-129197756D01*
X145781950Y-129197756D01*
X145794202Y-129197154D01*
X145812540Y-129195348D01*
X146300260Y-129195348D01*
X146316399Y-129196937D01*
X146316399Y-129196937D01*
G37*
G36*
X142030600Y-129142600D02*
X141128600Y-129142600D01*
X141128600Y-128140600D01*
X142030600Y-128140600D01*
X142030600Y-129142600D01*
X142030600Y-129142600D01*
G37*
G36*
X169020443Y-127172319D02*
X169086627Y-127178837D01*
X169198354Y-127212729D01*
X169256467Y-127230357D01*
X169381357Y-127297113D01*
X169412991Y-127314022D01*
X169448729Y-127343352D01*
X169550186Y-127426614D01*
X169621049Y-127512962D01*
X169662778Y-127563809D01*
X169662779Y-127563811D01*
X169746443Y-127720333D01*
X169746443Y-127720334D01*
X169797963Y-127890173D01*
X169815359Y-128066800D01*
X169797963Y-128243427D01*
X169776948Y-128312704D01*
X169746443Y-128413267D01*
X169672348Y-128551887D01*
X169662778Y-128569791D01*
X169633448Y-128605529D01*
X169550186Y-128706986D01*
X169474177Y-128769364D01*
X169412991Y-128819578D01*
X169412989Y-128819579D01*
X169256467Y-128903243D01*
X169199853Y-128920416D01*
X169086627Y-128954763D01*
X169020443Y-128961281D01*
X168954260Y-128967800D01*
X168865740Y-128967800D01*
X168799557Y-128961281D01*
X168733373Y-128954763D01*
X168620147Y-128920416D01*
X168563533Y-128903243D01*
X168407011Y-128819579D01*
X168407009Y-128819578D01*
X168345823Y-128769364D01*
X168269814Y-128706986D01*
X168186552Y-128605529D01*
X168157222Y-128569791D01*
X168147652Y-128551887D01*
X168073557Y-128413267D01*
X168043052Y-128312704D01*
X168022037Y-128243427D01*
X168004641Y-128066800D01*
X168022037Y-127890173D01*
X168073557Y-127720334D01*
X168073557Y-127720333D01*
X168157221Y-127563811D01*
X168157222Y-127563809D01*
X168198951Y-127512962D01*
X168269814Y-127426614D01*
X168371271Y-127343352D01*
X168407009Y-127314022D01*
X168438643Y-127297113D01*
X168563533Y-127230357D01*
X168621646Y-127212729D01*
X168733373Y-127178837D01*
X168799557Y-127172319D01*
X168865740Y-127165800D01*
X168954260Y-127165800D01*
X169020443Y-127172319D01*
X169020443Y-127172319D01*
G37*
G36*
X167271000Y-128967800D02*
X165469000Y-128967800D01*
X165469000Y-127165800D01*
X167271000Y-127165800D01*
X167271000Y-128967800D01*
X167271000Y-128967800D01*
G37*
G36*
X115516677Y-127396465D02*
X115554364Y-127407898D01*
X115589103Y-127426466D01*
X115619548Y-127451452D01*
X115644534Y-127481897D01*
X115663102Y-127516636D01*
X115674535Y-127554323D01*
X115679000Y-127599661D01*
X115679000Y-128686339D01*
X115674535Y-128731677D01*
X115663102Y-128769364D01*
X115644534Y-128804103D01*
X115619548Y-128834548D01*
X115589103Y-128859534D01*
X115554364Y-128878102D01*
X115516677Y-128889535D01*
X115471339Y-128894000D01*
X114634661Y-128894000D01*
X114589323Y-128889535D01*
X114551636Y-128878102D01*
X114516897Y-128859534D01*
X114486452Y-128834548D01*
X114461466Y-128804103D01*
X114442898Y-128769364D01*
X114431465Y-128731677D01*
X114427000Y-128686339D01*
X114427000Y-127599661D01*
X114431465Y-127554323D01*
X114442898Y-127516636D01*
X114461466Y-127481897D01*
X114486452Y-127451452D01*
X114516897Y-127426466D01*
X114551636Y-127407898D01*
X114589323Y-127396465D01*
X114634661Y-127392000D01*
X115471339Y-127392000D01*
X115516677Y-127396465D01*
X115516677Y-127396465D01*
G37*
G36*
X117566677Y-127396465D02*
X117604364Y-127407898D01*
X117639103Y-127426466D01*
X117669548Y-127451452D01*
X117694534Y-127481897D01*
X117713102Y-127516636D01*
X117724535Y-127554323D01*
X117729000Y-127599661D01*
X117729000Y-128686339D01*
X117724535Y-128731677D01*
X117713102Y-128769364D01*
X117694534Y-128804103D01*
X117669548Y-128834548D01*
X117639103Y-128859534D01*
X117604364Y-128878102D01*
X117566677Y-128889535D01*
X117521339Y-128894000D01*
X116684661Y-128894000D01*
X116639323Y-128889535D01*
X116601636Y-128878102D01*
X116566897Y-128859534D01*
X116536452Y-128834548D01*
X116511466Y-128804103D01*
X116492898Y-128769364D01*
X116481465Y-128731677D01*
X116477000Y-128686339D01*
X116477000Y-127599661D01*
X116481465Y-127554323D01*
X116492898Y-127516636D01*
X116511466Y-127481897D01*
X116536452Y-127451452D01*
X116566897Y-127426466D01*
X116601636Y-127407898D01*
X116639323Y-127396465D01*
X116684661Y-127392000D01*
X117521339Y-127392000D01*
X117566677Y-127396465D01*
X117566677Y-127396465D01*
G37*
G36*
X138510200Y-128196200D02*
X137608200Y-128196200D01*
X137608200Y-127194200D01*
X138510200Y-127194200D01*
X138510200Y-128196200D01*
X138510200Y-128196200D01*
G37*
G36*
X136610200Y-128196200D02*
X135708200Y-128196200D01*
X135708200Y-127194200D01*
X136610200Y-127194200D01*
X136610200Y-128196200D01*
X136610200Y-128196200D01*
G37*
G36*
X146044734Y-125235232D02*
X146254202Y-125321996D01*
X146442723Y-125447962D01*
X146603038Y-125608277D01*
X146729004Y-125796798D01*
X146815768Y-126006266D01*
X146860000Y-126228635D01*
X146860000Y-126455365D01*
X146815768Y-126677734D01*
X146729004Y-126887202D01*
X146603038Y-127075723D01*
X146442723Y-127236038D01*
X146254202Y-127362004D01*
X146044734Y-127448768D01*
X145822365Y-127493000D01*
X145595635Y-127493000D01*
X145373266Y-127448768D01*
X145163798Y-127362004D01*
X144975277Y-127236038D01*
X144814962Y-127075723D01*
X144688996Y-126887202D01*
X144602232Y-126677734D01*
X144558000Y-126455365D01*
X144558000Y-126228635D01*
X144602232Y-126006266D01*
X144688996Y-125796798D01*
X144814962Y-125608277D01*
X144975277Y-125447962D01*
X145163798Y-125321996D01*
X145373266Y-125235232D01*
X145595635Y-125191000D01*
X145822365Y-125191000D01*
X146044734Y-125235232D01*
X146044734Y-125235232D01*
G37*
G36*
X162326800Y-127113400D02*
X161624800Y-127113400D01*
X161624800Y-125511400D01*
X162326800Y-125511400D01*
X162326800Y-127113400D01*
X162326800Y-127113400D01*
G37*
G36*
X161056800Y-127113400D02*
X160354800Y-127113400D01*
X160354800Y-125511400D01*
X161056800Y-125511400D01*
X161056800Y-127113400D01*
X161056800Y-127113400D01*
G37*
G36*
X159786800Y-127113400D02*
X159084800Y-127113400D01*
X159084800Y-125511400D01*
X159786800Y-125511400D01*
X159786800Y-127113400D01*
X159786800Y-127113400D01*
G37*
G36*
X158516800Y-127113400D02*
X157814800Y-127113400D01*
X157814800Y-125511400D01*
X158516800Y-125511400D01*
X158516800Y-127113400D01*
X158516800Y-127113400D01*
G37*
G36*
X155976800Y-127113400D02*
X155274800Y-127113400D01*
X155274800Y-125511400D01*
X155976800Y-125511400D01*
X155976800Y-127113400D01*
X155976800Y-127113400D01*
G37*
G36*
X163596800Y-127113400D02*
X162894800Y-127113400D01*
X162894800Y-125511400D01*
X163596800Y-125511400D01*
X163596800Y-127113400D01*
X163596800Y-127113400D01*
G37*
G36*
X154706800Y-127113400D02*
X154004800Y-127113400D01*
X154004800Y-125511400D01*
X154706800Y-125511400D01*
X154706800Y-127113400D01*
X154706800Y-127113400D01*
G37*
G36*
X157246800Y-127113400D02*
X156544800Y-127113400D01*
X156544800Y-125511400D01*
X157246800Y-125511400D01*
X157246800Y-127113400D01*
X157246800Y-127113400D01*
G37*
G36*
X118317677Y-125752465D02*
X118355364Y-125763898D01*
X118390103Y-125782466D01*
X118420548Y-125807452D01*
X118445534Y-125837897D01*
X118464102Y-125872636D01*
X118475535Y-125910323D01*
X118480000Y-125955661D01*
X118480000Y-126792339D01*
X118475535Y-126837677D01*
X118464102Y-126875364D01*
X118445534Y-126910103D01*
X118420548Y-126940548D01*
X118390103Y-126965534D01*
X118355364Y-126984102D01*
X118317677Y-126995535D01*
X118272339Y-127000000D01*
X117185661Y-127000000D01*
X117140323Y-126995535D01*
X117102636Y-126984102D01*
X117067897Y-126965534D01*
X117037452Y-126940548D01*
X117012466Y-126910103D01*
X116993898Y-126875364D01*
X116982465Y-126837677D01*
X116978000Y-126792339D01*
X116978000Y-125955661D01*
X116982465Y-125910323D01*
X116993898Y-125872636D01*
X117012466Y-125837897D01*
X117037452Y-125807452D01*
X117067897Y-125782466D01*
X117102636Y-125763898D01*
X117140323Y-125752465D01*
X117185661Y-125748000D01*
X118272339Y-125748000D01*
X118317677Y-125752465D01*
X118317677Y-125752465D01*
G37*
G36*
X120349677Y-125752465D02*
X120387364Y-125763898D01*
X120422103Y-125782466D01*
X120452548Y-125807452D01*
X120477534Y-125837897D01*
X120496102Y-125872636D01*
X120507535Y-125910323D01*
X120512000Y-125955661D01*
X120512000Y-126792339D01*
X120507535Y-126837677D01*
X120496102Y-126875364D01*
X120477534Y-126910103D01*
X120452548Y-126940548D01*
X120422103Y-126965534D01*
X120387364Y-126984102D01*
X120349677Y-126995535D01*
X120304339Y-127000000D01*
X119217661Y-127000000D01*
X119172323Y-126995535D01*
X119134636Y-126984102D01*
X119099897Y-126965534D01*
X119069452Y-126940548D01*
X119044466Y-126910103D01*
X119025898Y-126875364D01*
X119014465Y-126837677D01*
X119010000Y-126792339D01*
X119010000Y-125955661D01*
X119014465Y-125910323D01*
X119025898Y-125872636D01*
X119044466Y-125837897D01*
X119069452Y-125807452D01*
X119099897Y-125782466D01*
X119134636Y-125763898D01*
X119172323Y-125752465D01*
X119217661Y-125748000D01*
X120304339Y-125748000D01*
X120349677Y-125752465D01*
X120349677Y-125752465D01*
G37*
G36*
X114309000Y-126977000D02*
X113407000Y-126977000D01*
X113407000Y-125975000D01*
X114309000Y-125975000D01*
X114309000Y-126977000D01*
X114309000Y-126977000D01*
G37*
G36*
X116209000Y-126977000D02*
X115307000Y-126977000D01*
X115307000Y-125975000D01*
X116209000Y-125975000D01*
X116209000Y-126977000D01*
X116209000Y-126977000D01*
G37*
G36*
X103585677Y-125625465D02*
X103623364Y-125636898D01*
X103658103Y-125655466D01*
X103688548Y-125680452D01*
X103713534Y-125710897D01*
X103732102Y-125745636D01*
X103743535Y-125783323D01*
X103748000Y-125828661D01*
X103748000Y-126665339D01*
X103743535Y-126710677D01*
X103732102Y-126748364D01*
X103713534Y-126783103D01*
X103688548Y-126813548D01*
X103658103Y-126838534D01*
X103623364Y-126857102D01*
X103585677Y-126868535D01*
X103540339Y-126873000D01*
X102453661Y-126873000D01*
X102408323Y-126868535D01*
X102370636Y-126857102D01*
X102335897Y-126838534D01*
X102305452Y-126813548D01*
X102280466Y-126783103D01*
X102261898Y-126748364D01*
X102250465Y-126710677D01*
X102246000Y-126665339D01*
X102246000Y-125828661D01*
X102250465Y-125783323D01*
X102261898Y-125745636D01*
X102280466Y-125710897D01*
X102305452Y-125680452D01*
X102335897Y-125655466D01*
X102370636Y-125636898D01*
X102408323Y-125625465D01*
X102453661Y-125621000D01*
X103540339Y-125621000D01*
X103585677Y-125625465D01*
X103585677Y-125625465D01*
G37*
G36*
X112602677Y-125625465D02*
X112640364Y-125636898D01*
X112675103Y-125655466D01*
X112705548Y-125680452D01*
X112730534Y-125710897D01*
X112749102Y-125745636D01*
X112760535Y-125783323D01*
X112765000Y-125828661D01*
X112765000Y-126665339D01*
X112760535Y-126710677D01*
X112749102Y-126748364D01*
X112730534Y-126783103D01*
X112705548Y-126813548D01*
X112675103Y-126838534D01*
X112640364Y-126857102D01*
X112602677Y-126868535D01*
X112557339Y-126873000D01*
X111470661Y-126873000D01*
X111425323Y-126868535D01*
X111387636Y-126857102D01*
X111352897Y-126838534D01*
X111322452Y-126813548D01*
X111297466Y-126783103D01*
X111278898Y-126748364D01*
X111267465Y-126710677D01*
X111263000Y-126665339D01*
X111263000Y-125828661D01*
X111267465Y-125783323D01*
X111278898Y-125745636D01*
X111297466Y-125710897D01*
X111322452Y-125680452D01*
X111352897Y-125655466D01*
X111387636Y-125636898D01*
X111425323Y-125625465D01*
X111470661Y-125621000D01*
X112557339Y-125621000D01*
X112602677Y-125625465D01*
X112602677Y-125625465D01*
G37*
G36*
X109173677Y-125498465D02*
X109211364Y-125509898D01*
X109246103Y-125528466D01*
X109276548Y-125553452D01*
X109301534Y-125583897D01*
X109320102Y-125618636D01*
X109331535Y-125656323D01*
X109336000Y-125701661D01*
X109336000Y-126538339D01*
X109331535Y-126583677D01*
X109320102Y-126621364D01*
X109301534Y-126656103D01*
X109276548Y-126686548D01*
X109246103Y-126711534D01*
X109211364Y-126730102D01*
X109173677Y-126741535D01*
X109128339Y-126746000D01*
X108041661Y-126746000D01*
X107996323Y-126741535D01*
X107958636Y-126730102D01*
X107923897Y-126711534D01*
X107893452Y-126686548D01*
X107868466Y-126656103D01*
X107849898Y-126621364D01*
X107838465Y-126583677D01*
X107834000Y-126538339D01*
X107834000Y-125701661D01*
X107838465Y-125656323D01*
X107849898Y-125618636D01*
X107868466Y-125583897D01*
X107893452Y-125553452D01*
X107923897Y-125528466D01*
X107958636Y-125509898D01*
X107996323Y-125498465D01*
X108041661Y-125494000D01*
X109128339Y-125494000D01*
X109173677Y-125498465D01*
X109173677Y-125498465D01*
G37*
G36*
X127969677Y-125498465D02*
X128007364Y-125509898D01*
X128042103Y-125528466D01*
X128072548Y-125553452D01*
X128097534Y-125583897D01*
X128116102Y-125618636D01*
X128127535Y-125656323D01*
X128132000Y-125701661D01*
X128132000Y-126538339D01*
X128127535Y-126583677D01*
X128116102Y-126621364D01*
X128097534Y-126656103D01*
X128072548Y-126686548D01*
X128042103Y-126711534D01*
X128007364Y-126730102D01*
X127969677Y-126741535D01*
X127924339Y-126746000D01*
X126837661Y-126746000D01*
X126792323Y-126741535D01*
X126754636Y-126730102D01*
X126719897Y-126711534D01*
X126689452Y-126686548D01*
X126664466Y-126656103D01*
X126645898Y-126621364D01*
X126634465Y-126583677D01*
X126630000Y-126538339D01*
X126630000Y-125701661D01*
X126634465Y-125656323D01*
X126645898Y-125618636D01*
X126664466Y-125583897D01*
X126689452Y-125553452D01*
X126719897Y-125528466D01*
X126754636Y-125509898D01*
X126792323Y-125498465D01*
X126837661Y-125494000D01*
X127924339Y-125494000D01*
X127969677Y-125498465D01*
X127969677Y-125498465D01*
G37*
G36*
X125937677Y-125498465D02*
X125975364Y-125509898D01*
X126010103Y-125528466D01*
X126040548Y-125553452D01*
X126065534Y-125583897D01*
X126084102Y-125618636D01*
X126095535Y-125656323D01*
X126100000Y-125701661D01*
X126100000Y-126538339D01*
X126095535Y-126583677D01*
X126084102Y-126621364D01*
X126065534Y-126656103D01*
X126040548Y-126686548D01*
X126010103Y-126711534D01*
X125975364Y-126730102D01*
X125937677Y-126741535D01*
X125892339Y-126746000D01*
X124805661Y-126746000D01*
X124760323Y-126741535D01*
X124722636Y-126730102D01*
X124687897Y-126711534D01*
X124657452Y-126686548D01*
X124632466Y-126656103D01*
X124613898Y-126621364D01*
X124602465Y-126583677D01*
X124598000Y-126538339D01*
X124598000Y-125701661D01*
X124602465Y-125656323D01*
X124613898Y-125618636D01*
X124632466Y-125583897D01*
X124657452Y-125553452D01*
X124687897Y-125528466D01*
X124722636Y-125509898D01*
X124760323Y-125498465D01*
X124805661Y-125494000D01*
X125892339Y-125494000D01*
X125937677Y-125498465D01*
X125937677Y-125498465D01*
G37*
G36*
X123956000Y-126723000D02*
X123054000Y-126723000D01*
X123054000Y-125721000D01*
X123956000Y-125721000D01*
X123956000Y-126723000D01*
X123956000Y-126723000D01*
G37*
G36*
X122056000Y-126723000D02*
X121154000Y-126723000D01*
X121154000Y-125721000D01*
X122056000Y-125721000D01*
X122056000Y-126723000D01*
X122056000Y-126723000D01*
G37*
G36*
X107192000Y-126723000D02*
X106290000Y-126723000D01*
X106290000Y-125721000D01*
X107192000Y-125721000D01*
X107192000Y-126723000D01*
X107192000Y-126723000D01*
G37*
G36*
X105292000Y-126723000D02*
X104390000Y-126723000D01*
X104390000Y-125721000D01*
X105292000Y-125721000D01*
X105292000Y-126723000D01*
X105292000Y-126723000D01*
G37*
G36*
X131576000Y-126469000D02*
X130674000Y-126469000D01*
X130674000Y-125467000D01*
X131576000Y-125467000D01*
X131576000Y-126469000D01*
X131576000Y-126469000D01*
G37*
G36*
X129676000Y-126469000D02*
X128774000Y-126469000D01*
X128774000Y-125467000D01*
X129676000Y-125467000D01*
X129676000Y-126469000D01*
X129676000Y-126469000D01*
G37*
G36*
X141627877Y-124932665D02*
X141665564Y-124944098D01*
X141700303Y-124962666D01*
X141730748Y-124987652D01*
X141755734Y-125018097D01*
X141774302Y-125052836D01*
X141785735Y-125090523D01*
X141790200Y-125135861D01*
X141790200Y-126222539D01*
X141785735Y-126267877D01*
X141774302Y-126305564D01*
X141755734Y-126340303D01*
X141730748Y-126370748D01*
X141700303Y-126395734D01*
X141665564Y-126414302D01*
X141627877Y-126425735D01*
X141582539Y-126430200D01*
X140745861Y-126430200D01*
X140700523Y-126425735D01*
X140662836Y-126414302D01*
X140628097Y-126395734D01*
X140597652Y-126370748D01*
X140572666Y-126340303D01*
X140554098Y-126305564D01*
X140542665Y-126267877D01*
X140538200Y-126222539D01*
X140538200Y-125135861D01*
X140542665Y-125090523D01*
X140554098Y-125052836D01*
X140572666Y-125018097D01*
X140597652Y-124987652D01*
X140628097Y-124962666D01*
X140662836Y-124944098D01*
X140700523Y-124932665D01*
X140745861Y-124928200D01*
X141582539Y-124928200D01*
X141627877Y-124932665D01*
X141627877Y-124932665D01*
G37*
G36*
X143677877Y-124932665D02*
X143715564Y-124944098D01*
X143750303Y-124962666D01*
X143780748Y-124987652D01*
X143805734Y-125018097D01*
X143824302Y-125052836D01*
X143835735Y-125090523D01*
X143840200Y-125135861D01*
X143840200Y-126222539D01*
X143835735Y-126267877D01*
X143824302Y-126305564D01*
X143805734Y-126340303D01*
X143780748Y-126370748D01*
X143750303Y-126395734D01*
X143715564Y-126414302D01*
X143677877Y-126425735D01*
X143632539Y-126430200D01*
X142795861Y-126430200D01*
X142750523Y-126425735D01*
X142712836Y-126414302D01*
X142678097Y-126395734D01*
X142647652Y-126370748D01*
X142622666Y-126340303D01*
X142604098Y-126305564D01*
X142592665Y-126267877D01*
X142588200Y-126222539D01*
X142588200Y-125135861D01*
X142592665Y-125090523D01*
X142604098Y-125052836D01*
X142622666Y-125018097D01*
X142647652Y-124987652D01*
X142678097Y-124962666D01*
X142712836Y-124944098D01*
X142750523Y-124932665D01*
X142795861Y-124928200D01*
X143632539Y-124928200D01*
X143677877Y-124932665D01*
X143677877Y-124932665D01*
G37*
G36*
X133557677Y-125117465D02*
X133595364Y-125128898D01*
X133630103Y-125147466D01*
X133660548Y-125172452D01*
X133685534Y-125202897D01*
X133704102Y-125237636D01*
X133715535Y-125275323D01*
X133720000Y-125320661D01*
X133720000Y-126157339D01*
X133715535Y-126202677D01*
X133704102Y-126240364D01*
X133685534Y-126275103D01*
X133660548Y-126305548D01*
X133630103Y-126330534D01*
X133595364Y-126349102D01*
X133557677Y-126360535D01*
X133512339Y-126365000D01*
X132425661Y-126365000D01*
X132380323Y-126360535D01*
X132342636Y-126349102D01*
X132307897Y-126330534D01*
X132277452Y-126305548D01*
X132252466Y-126275103D01*
X132233898Y-126240364D01*
X132222465Y-126202677D01*
X132218000Y-126157339D01*
X132218000Y-125320661D01*
X132222465Y-125275323D01*
X132233898Y-125237636D01*
X132252466Y-125202897D01*
X132277452Y-125172452D01*
X132307897Y-125147466D01*
X132342636Y-125128898D01*
X132380323Y-125117465D01*
X132425661Y-125113000D01*
X133512339Y-125113000D01*
X133557677Y-125117465D01*
X133557677Y-125117465D01*
G37*
G36*
X137560200Y-126196200D02*
X136658200Y-126196200D01*
X136658200Y-125194200D01*
X137560200Y-125194200D01*
X137560200Y-126196200D01*
X137560200Y-126196200D01*
G37*
G36*
X115259000Y-124977000D02*
X114357000Y-124977000D01*
X114357000Y-123975000D01*
X115259000Y-123975000D01*
X115259000Y-124977000D01*
X115259000Y-124977000D01*
G37*
G36*
X118317677Y-123702465D02*
X118355364Y-123713898D01*
X118390103Y-123732466D01*
X118420548Y-123757452D01*
X118445534Y-123787897D01*
X118464102Y-123822636D01*
X118475535Y-123860323D01*
X118480000Y-123905661D01*
X118480000Y-124742339D01*
X118475535Y-124787677D01*
X118464102Y-124825364D01*
X118445534Y-124860103D01*
X118420548Y-124890548D01*
X118390103Y-124915534D01*
X118355364Y-124934102D01*
X118317677Y-124945535D01*
X118272339Y-124950000D01*
X117185661Y-124950000D01*
X117140323Y-124945535D01*
X117102636Y-124934102D01*
X117067897Y-124915534D01*
X117037452Y-124890548D01*
X117012466Y-124860103D01*
X116993898Y-124825364D01*
X116982465Y-124787677D01*
X116978000Y-124742339D01*
X116978000Y-123905661D01*
X116982465Y-123860323D01*
X116993898Y-123822636D01*
X117012466Y-123787897D01*
X117037452Y-123757452D01*
X117067897Y-123732466D01*
X117102636Y-123713898D01*
X117140323Y-123702465D01*
X117185661Y-123698000D01*
X118272339Y-123698000D01*
X118317677Y-123702465D01*
X118317677Y-123702465D01*
G37*
G36*
X120349677Y-123702465D02*
X120387364Y-123713898D01*
X120422103Y-123732466D01*
X120452548Y-123757452D01*
X120477534Y-123787897D01*
X120496102Y-123822636D01*
X120507535Y-123860323D01*
X120512000Y-123905661D01*
X120512000Y-124742339D01*
X120507535Y-124787677D01*
X120496102Y-124825364D01*
X120477534Y-124860103D01*
X120452548Y-124890548D01*
X120422103Y-124915534D01*
X120387364Y-124934102D01*
X120349677Y-124945535D01*
X120304339Y-124950000D01*
X119217661Y-124950000D01*
X119172323Y-124945535D01*
X119134636Y-124934102D01*
X119099897Y-124915534D01*
X119069452Y-124890548D01*
X119044466Y-124860103D01*
X119025898Y-124825364D01*
X119014465Y-124787677D01*
X119010000Y-124742339D01*
X119010000Y-123905661D01*
X119014465Y-123860323D01*
X119025898Y-123822636D01*
X119044466Y-123787897D01*
X119069452Y-123757452D01*
X119099897Y-123732466D01*
X119134636Y-123713898D01*
X119172323Y-123702465D01*
X119217661Y-123698000D01*
X120304339Y-123698000D01*
X120349677Y-123702465D01*
X120349677Y-123702465D01*
G37*
G36*
X157393877Y-123408665D02*
X157431564Y-123420098D01*
X157466303Y-123438666D01*
X157496748Y-123463652D01*
X157521734Y-123494097D01*
X157540302Y-123528836D01*
X157551735Y-123566523D01*
X157556200Y-123611861D01*
X157556200Y-124698539D01*
X157551735Y-124743877D01*
X157540302Y-124781564D01*
X157521734Y-124816303D01*
X157496748Y-124846748D01*
X157466303Y-124871734D01*
X157431564Y-124890302D01*
X157393877Y-124901735D01*
X157348539Y-124906200D01*
X156511861Y-124906200D01*
X156466523Y-124901735D01*
X156428836Y-124890302D01*
X156394097Y-124871734D01*
X156363652Y-124846748D01*
X156338666Y-124816303D01*
X156320098Y-124781564D01*
X156308665Y-124743877D01*
X156304200Y-124698539D01*
X156304200Y-123611861D01*
X156308665Y-123566523D01*
X156320098Y-123528836D01*
X156338666Y-123494097D01*
X156363652Y-123463652D01*
X156394097Y-123438666D01*
X156428836Y-123420098D01*
X156466523Y-123408665D01*
X156511861Y-123404200D01*
X157348539Y-123404200D01*
X157393877Y-123408665D01*
X157393877Y-123408665D01*
G37*
G36*
X151584677Y-123408665D02*
X151622364Y-123420098D01*
X151657103Y-123438666D01*
X151687548Y-123463652D01*
X151712534Y-123494097D01*
X151731102Y-123528836D01*
X151742535Y-123566523D01*
X151747000Y-123611861D01*
X151747000Y-124698539D01*
X151742535Y-124743877D01*
X151731102Y-124781564D01*
X151712534Y-124816303D01*
X151687548Y-124846748D01*
X151657103Y-124871734D01*
X151622364Y-124890302D01*
X151584677Y-124901735D01*
X151539339Y-124906200D01*
X150702661Y-124906200D01*
X150657323Y-124901735D01*
X150619636Y-124890302D01*
X150584897Y-124871734D01*
X150554452Y-124846748D01*
X150529466Y-124816303D01*
X150510898Y-124781564D01*
X150499465Y-124743877D01*
X150495000Y-124698539D01*
X150495000Y-123611861D01*
X150499465Y-123566523D01*
X150510898Y-123528836D01*
X150529466Y-123494097D01*
X150554452Y-123463652D01*
X150584897Y-123438666D01*
X150619636Y-123420098D01*
X150657323Y-123408665D01*
X150702661Y-123404200D01*
X151539339Y-123404200D01*
X151584677Y-123408665D01*
X151584677Y-123408665D01*
G37*
G36*
X153634677Y-123408665D02*
X153672364Y-123420098D01*
X153707103Y-123438666D01*
X153737548Y-123463652D01*
X153762534Y-123494097D01*
X153781102Y-123528836D01*
X153792535Y-123566523D01*
X153797000Y-123611861D01*
X153797000Y-124698539D01*
X153792535Y-124743877D01*
X153781102Y-124781564D01*
X153762534Y-124816303D01*
X153737548Y-124846748D01*
X153707103Y-124871734D01*
X153672364Y-124890302D01*
X153634677Y-124901735D01*
X153589339Y-124906200D01*
X152752661Y-124906200D01*
X152707323Y-124901735D01*
X152669636Y-124890302D01*
X152634897Y-124871734D01*
X152604452Y-124846748D01*
X152579466Y-124816303D01*
X152560898Y-124781564D01*
X152549465Y-124743877D01*
X152545000Y-124698539D01*
X152545000Y-123611861D01*
X152549465Y-123566523D01*
X152560898Y-123528836D01*
X152579466Y-123494097D01*
X152604452Y-123463652D01*
X152634897Y-123438666D01*
X152669636Y-123420098D01*
X152707323Y-123408665D01*
X152752661Y-123404200D01*
X153589339Y-123404200D01*
X153634677Y-123408665D01*
X153634677Y-123408665D01*
G37*
G36*
X155343877Y-123408665D02*
X155381564Y-123420098D01*
X155416303Y-123438666D01*
X155446748Y-123463652D01*
X155471734Y-123494097D01*
X155490302Y-123528836D01*
X155501735Y-123566523D01*
X155506200Y-123611861D01*
X155506200Y-124698539D01*
X155501735Y-124743877D01*
X155490302Y-124781564D01*
X155471734Y-124816303D01*
X155446748Y-124846748D01*
X155416303Y-124871734D01*
X155381564Y-124890302D01*
X155343877Y-124901735D01*
X155298539Y-124906200D01*
X154461861Y-124906200D01*
X154416523Y-124901735D01*
X154378836Y-124890302D01*
X154344097Y-124871734D01*
X154313652Y-124846748D01*
X154288666Y-124816303D01*
X154270098Y-124781564D01*
X154258665Y-124743877D01*
X154254200Y-124698539D01*
X154254200Y-123611861D01*
X154258665Y-123566523D01*
X154270098Y-123528836D01*
X154288666Y-123494097D01*
X154313652Y-123463652D01*
X154344097Y-123438666D01*
X154378836Y-123420098D01*
X154416523Y-123408665D01*
X154461861Y-123404200D01*
X155298539Y-123404200D01*
X155343877Y-123408665D01*
X155343877Y-123408665D01*
G37*
G36*
X112602677Y-123575465D02*
X112640364Y-123586898D01*
X112675103Y-123605466D01*
X112705548Y-123630452D01*
X112730534Y-123660897D01*
X112749102Y-123695636D01*
X112760535Y-123733323D01*
X112765000Y-123778661D01*
X112765000Y-124615339D01*
X112760535Y-124660677D01*
X112749102Y-124698364D01*
X112730534Y-124733103D01*
X112705548Y-124763548D01*
X112675103Y-124788534D01*
X112640364Y-124807102D01*
X112602677Y-124818535D01*
X112557339Y-124823000D01*
X111470661Y-124823000D01*
X111425323Y-124818535D01*
X111387636Y-124807102D01*
X111352897Y-124788534D01*
X111322452Y-124763548D01*
X111297466Y-124733103D01*
X111278898Y-124698364D01*
X111267465Y-124660677D01*
X111263000Y-124615339D01*
X111263000Y-123778661D01*
X111267465Y-123733323D01*
X111278898Y-123695636D01*
X111297466Y-123660897D01*
X111322452Y-123630452D01*
X111352897Y-123605466D01*
X111387636Y-123586898D01*
X111425323Y-123575465D01*
X111470661Y-123571000D01*
X112557339Y-123571000D01*
X112602677Y-123575465D01*
X112602677Y-123575465D01*
G37*
G36*
X103585677Y-123575465D02*
X103623364Y-123586898D01*
X103658103Y-123605466D01*
X103688548Y-123630452D01*
X103713534Y-123660897D01*
X103732102Y-123695636D01*
X103743535Y-123733323D01*
X103748000Y-123778661D01*
X103748000Y-124615339D01*
X103743535Y-124660677D01*
X103732102Y-124698364D01*
X103713534Y-124733103D01*
X103688548Y-124763548D01*
X103658103Y-124788534D01*
X103623364Y-124807102D01*
X103585677Y-124818535D01*
X103540339Y-124823000D01*
X102453661Y-124823000D01*
X102408323Y-124818535D01*
X102370636Y-124807102D01*
X102335897Y-124788534D01*
X102305452Y-124763548D01*
X102280466Y-124733103D01*
X102261898Y-124698364D01*
X102250465Y-124660677D01*
X102246000Y-124615339D01*
X102246000Y-123778661D01*
X102250465Y-123733323D01*
X102261898Y-123695636D01*
X102280466Y-123660897D01*
X102305452Y-123630452D01*
X102335897Y-123605466D01*
X102370636Y-123586898D01*
X102408323Y-123575465D01*
X102453661Y-123571000D01*
X103540339Y-123571000D01*
X103585677Y-123575465D01*
X103585677Y-123575465D01*
G37*
G36*
X123006000Y-124723000D02*
X122104000Y-124723000D01*
X122104000Y-123721000D01*
X123006000Y-123721000D01*
X123006000Y-124723000D01*
X123006000Y-124723000D01*
G37*
G36*
X106242000Y-124723000D02*
X105340000Y-124723000D01*
X105340000Y-123721000D01*
X106242000Y-123721000D01*
X106242000Y-124723000D01*
X106242000Y-124723000D01*
G37*
G36*
X125937677Y-123448465D02*
X125975364Y-123459898D01*
X126010103Y-123478466D01*
X126040548Y-123503452D01*
X126065534Y-123533897D01*
X126084102Y-123568636D01*
X126095535Y-123606323D01*
X126100000Y-123651661D01*
X126100000Y-124488339D01*
X126095535Y-124533677D01*
X126084102Y-124571364D01*
X126065534Y-124606103D01*
X126040548Y-124636548D01*
X126010103Y-124661534D01*
X125975364Y-124680102D01*
X125937677Y-124691535D01*
X125892339Y-124696000D01*
X124805661Y-124696000D01*
X124760323Y-124691535D01*
X124722636Y-124680102D01*
X124687897Y-124661534D01*
X124657452Y-124636548D01*
X124632466Y-124606103D01*
X124613898Y-124571364D01*
X124602465Y-124533677D01*
X124598000Y-124488339D01*
X124598000Y-123651661D01*
X124602465Y-123606323D01*
X124613898Y-123568636D01*
X124632466Y-123533897D01*
X124657452Y-123503452D01*
X124687897Y-123478466D01*
X124722636Y-123459898D01*
X124760323Y-123448465D01*
X124805661Y-123444000D01*
X125892339Y-123444000D01*
X125937677Y-123448465D01*
X125937677Y-123448465D01*
G37*
G36*
X127969677Y-123448465D02*
X128007364Y-123459898D01*
X128042103Y-123478466D01*
X128072548Y-123503452D01*
X128097534Y-123533897D01*
X128116102Y-123568636D01*
X128127535Y-123606323D01*
X128132000Y-123651661D01*
X128132000Y-124488339D01*
X128127535Y-124533677D01*
X128116102Y-124571364D01*
X128097534Y-124606103D01*
X128072548Y-124636548D01*
X128042103Y-124661534D01*
X128007364Y-124680102D01*
X127969677Y-124691535D01*
X127924339Y-124696000D01*
X126837661Y-124696000D01*
X126792323Y-124691535D01*
X126754636Y-124680102D01*
X126719897Y-124661534D01*
X126689452Y-124636548D01*
X126664466Y-124606103D01*
X126645898Y-124571364D01*
X126634465Y-124533677D01*
X126630000Y-124488339D01*
X126630000Y-123651661D01*
X126634465Y-123606323D01*
X126645898Y-123568636D01*
X126664466Y-123533897D01*
X126689452Y-123503452D01*
X126719897Y-123478466D01*
X126754636Y-123459898D01*
X126792323Y-123448465D01*
X126837661Y-123444000D01*
X127924339Y-123444000D01*
X127969677Y-123448465D01*
X127969677Y-123448465D01*
G37*
G36*
X109173677Y-123448465D02*
X109211364Y-123459898D01*
X109246103Y-123478466D01*
X109276548Y-123503452D01*
X109301534Y-123533897D01*
X109320102Y-123568636D01*
X109331535Y-123606323D01*
X109336000Y-123651661D01*
X109336000Y-124488339D01*
X109331535Y-124533677D01*
X109320102Y-124571364D01*
X109301534Y-124606103D01*
X109276548Y-124636548D01*
X109246103Y-124661534D01*
X109211364Y-124680102D01*
X109173677Y-124691535D01*
X109128339Y-124696000D01*
X108041661Y-124696000D01*
X107996323Y-124691535D01*
X107958636Y-124680102D01*
X107923897Y-124661534D01*
X107893452Y-124636548D01*
X107868466Y-124606103D01*
X107849898Y-124571364D01*
X107838465Y-124533677D01*
X107834000Y-124488339D01*
X107834000Y-123651661D01*
X107838465Y-123606323D01*
X107849898Y-123568636D01*
X107868466Y-123533897D01*
X107893452Y-123503452D01*
X107923897Y-123478466D01*
X107958636Y-123459898D01*
X107996323Y-123448465D01*
X108041661Y-123444000D01*
X109128339Y-123444000D01*
X109173677Y-123448465D01*
X109173677Y-123448465D01*
G37*
G36*
X130626000Y-124469000D02*
X129724000Y-124469000D01*
X129724000Y-123467000D01*
X130626000Y-123467000D01*
X130626000Y-124469000D01*
X130626000Y-124469000D01*
G37*
G36*
X133557677Y-123067465D02*
X133595364Y-123078898D01*
X133630103Y-123097466D01*
X133660548Y-123122452D01*
X133685534Y-123152897D01*
X133704102Y-123187636D01*
X133715535Y-123225323D01*
X133720000Y-123270661D01*
X133720000Y-124107339D01*
X133715535Y-124152677D01*
X133704102Y-124190364D01*
X133685534Y-124225103D01*
X133660548Y-124255548D01*
X133630103Y-124280534D01*
X133595364Y-124299102D01*
X133557677Y-124310535D01*
X133512339Y-124315000D01*
X132425661Y-124315000D01*
X132380323Y-124310535D01*
X132342636Y-124299102D01*
X132307897Y-124280534D01*
X132277452Y-124255548D01*
X132252466Y-124225103D01*
X132233898Y-124190364D01*
X132222465Y-124152677D01*
X132218000Y-124107339D01*
X132218000Y-123270661D01*
X132222465Y-123225323D01*
X132233898Y-123187636D01*
X132252466Y-123152897D01*
X132277452Y-123122452D01*
X132307897Y-123097466D01*
X132342636Y-123078898D01*
X132380323Y-123067465D01*
X132425661Y-123063000D01*
X133512339Y-123063000D01*
X133557677Y-123067465D01*
X133557677Y-123067465D01*
G37*
G36*
X137915243Y-121002922D02*
X137949590Y-121013341D01*
X137981235Y-121030256D01*
X138008977Y-121053023D01*
X138031744Y-121080765D01*
X138048659Y-121112410D01*
X138059078Y-121146757D01*
X138063200Y-121188607D01*
X138063200Y-123260993D01*
X138059078Y-123302843D01*
X138048659Y-123337190D01*
X138031744Y-123368835D01*
X138008977Y-123396577D01*
X137981235Y-123419344D01*
X137949590Y-123436259D01*
X137915243Y-123446678D01*
X137873393Y-123450800D01*
X136651007Y-123450800D01*
X136609157Y-123446678D01*
X136574810Y-123436259D01*
X136543165Y-123419344D01*
X136515423Y-123396577D01*
X136492656Y-123368835D01*
X136475741Y-123337190D01*
X136465322Y-123302843D01*
X136461200Y-123260993D01*
X136461200Y-121188607D01*
X136465322Y-121146757D01*
X136475741Y-121112410D01*
X136492656Y-121080765D01*
X136515423Y-121053023D01*
X136543165Y-121030256D01*
X136574810Y-121013341D01*
X136609157Y-121002922D01*
X136651007Y-120998800D01*
X137873393Y-120998800D01*
X137915243Y-121002922D01*
X137915243Y-121002922D01*
G37*
G36*
X141165243Y-121002922D02*
X141199590Y-121013341D01*
X141231235Y-121030256D01*
X141258977Y-121053023D01*
X141281744Y-121080765D01*
X141298659Y-121112410D01*
X141309078Y-121146757D01*
X141313200Y-121188607D01*
X141313200Y-123260993D01*
X141309078Y-123302843D01*
X141298659Y-123337190D01*
X141281744Y-123368835D01*
X141258977Y-123396577D01*
X141231235Y-123419344D01*
X141199590Y-123436259D01*
X141165243Y-123446678D01*
X141123393Y-123450800D01*
X139901007Y-123450800D01*
X139859157Y-123446678D01*
X139824810Y-123436259D01*
X139793165Y-123419344D01*
X139765423Y-123396577D01*
X139742656Y-123368835D01*
X139725741Y-123337190D01*
X139715322Y-123302843D01*
X139711200Y-123260993D01*
X139711200Y-121188607D01*
X139715322Y-121146757D01*
X139725741Y-121112410D01*
X139742656Y-121080765D01*
X139765423Y-121053023D01*
X139793165Y-121030256D01*
X139824810Y-121013341D01*
X139859157Y-121002922D01*
X139901007Y-120998800D01*
X141123393Y-120998800D01*
X141165243Y-121002922D01*
X141165243Y-121002922D01*
G37*
G36*
X169959942Y-119980242D02*
X170107902Y-120041530D01*
X170241058Y-120130502D01*
X170354298Y-120243742D01*
X170443270Y-120376898D01*
X170504558Y-120524858D01*
X170535800Y-120681925D01*
X170535800Y-120842075D01*
X170504558Y-120999142D01*
X170443270Y-121147102D01*
X170354298Y-121280258D01*
X170241058Y-121393498D01*
X170107902Y-121482470D01*
X169959942Y-121543758D01*
X169802875Y-121575000D01*
X169642725Y-121575000D01*
X169485658Y-121543758D01*
X169337698Y-121482470D01*
X169204542Y-121393498D01*
X169091302Y-121280258D01*
X169002330Y-121147102D01*
X168941042Y-120999142D01*
X168909800Y-120842075D01*
X168909800Y-120681925D01*
X168941042Y-120524858D01*
X169002330Y-120376898D01*
X169091302Y-120243742D01*
X169204542Y-120130502D01*
X169337698Y-120041530D01*
X169485658Y-119980242D01*
X169642725Y-119949000D01*
X169802875Y-119949000D01*
X169959942Y-119980242D01*
X169959942Y-119980242D01*
G37*
G36*
X147099942Y-119980242D02*
X147247902Y-120041530D01*
X147381058Y-120130502D01*
X147494298Y-120243742D01*
X147583270Y-120376898D01*
X147644558Y-120524858D01*
X147675800Y-120681925D01*
X147675800Y-120842075D01*
X147644558Y-120999142D01*
X147583270Y-121147102D01*
X147494298Y-121280258D01*
X147381058Y-121393498D01*
X147247902Y-121482470D01*
X147099942Y-121543758D01*
X146942875Y-121575000D01*
X146782725Y-121575000D01*
X146625658Y-121543758D01*
X146477698Y-121482470D01*
X146344542Y-121393498D01*
X146231302Y-121280258D01*
X146142330Y-121147102D01*
X146081042Y-120999142D01*
X146049800Y-120842075D01*
X146049800Y-120681925D01*
X146081042Y-120524858D01*
X146142330Y-120376898D01*
X146231302Y-120243742D01*
X146344542Y-120130502D01*
X146477698Y-120041530D01*
X146625658Y-119980242D01*
X146782725Y-119949000D01*
X146942875Y-119949000D01*
X147099942Y-119980242D01*
X147099942Y-119980242D01*
G37*
G36*
X115047800Y-120978600D02*
X113145800Y-120978600D01*
X113145800Y-117476600D01*
X115047800Y-117476600D01*
X115047800Y-120978600D01*
X115047800Y-120978600D01*
G37*
G36*
X109663000Y-120978600D02*
X107761000Y-120978600D01*
X107761000Y-117476600D01*
X109663000Y-117476600D01*
X109663000Y-120978600D01*
X109663000Y-120978600D01*
G37*
G36*
X120432600Y-120978600D02*
X118530600Y-120978600D01*
X118530600Y-117476600D01*
X120432600Y-117476600D01*
X120432600Y-120978600D01*
X120432600Y-120978600D01*
G37*
G36*
X123125000Y-120978600D02*
X121223000Y-120978600D01*
X121223000Y-117476600D01*
X123125000Y-117476600D01*
X123125000Y-120978600D01*
X123125000Y-120978600D01*
G37*
G36*
X112355400Y-120978600D02*
X110453400Y-120978600D01*
X110453400Y-117476600D01*
X112355400Y-117476600D01*
X112355400Y-120978600D01*
X112355400Y-120978600D01*
G37*
G36*
X117740200Y-120978600D02*
X115838200Y-120978600D01*
X115838200Y-117476600D01*
X117740200Y-117476600D01*
X117740200Y-120978600D01*
X117740200Y-120978600D01*
G37*
G36*
X147506342Y-117440242D02*
X147654302Y-117501530D01*
X147787458Y-117590502D01*
X147900698Y-117703742D01*
X147989670Y-117836898D01*
X148050958Y-117984858D01*
X148082200Y-118141925D01*
X148082200Y-118302075D01*
X148050958Y-118459142D01*
X147989670Y-118607102D01*
X147900698Y-118740258D01*
X147787458Y-118853498D01*
X147654302Y-118942470D01*
X147506342Y-119003758D01*
X147349275Y-119035000D01*
X147189125Y-119035000D01*
X147032058Y-119003758D01*
X146884098Y-118942470D01*
X146750942Y-118853498D01*
X146637702Y-118740258D01*
X146548730Y-118607102D01*
X146487442Y-118459142D01*
X146456200Y-118302075D01*
X146456200Y-118141925D01*
X146487442Y-117984858D01*
X146548730Y-117836898D01*
X146637702Y-117703742D01*
X146750942Y-117590502D01*
X146884098Y-117501530D01*
X147032058Y-117440242D01*
X147189125Y-117409000D01*
X147349275Y-117409000D01*
X147506342Y-117440242D01*
X147506342Y-117440242D01*
G37*
G36*
X170366342Y-117440242D02*
X170514302Y-117501530D01*
X170647458Y-117590502D01*
X170760698Y-117703742D01*
X170849670Y-117836898D01*
X170910958Y-117984858D01*
X170942200Y-118141925D01*
X170942200Y-118302075D01*
X170910958Y-118459142D01*
X170849670Y-118607102D01*
X170760698Y-118740258D01*
X170647458Y-118853498D01*
X170514302Y-118942470D01*
X170366342Y-119003758D01*
X170209275Y-119035000D01*
X170049125Y-119035000D01*
X169892058Y-119003758D01*
X169744098Y-118942470D01*
X169610942Y-118853498D01*
X169497702Y-118740258D01*
X169408730Y-118607102D01*
X169347442Y-118459142D01*
X169316200Y-118302075D01*
X169316200Y-118141925D01*
X169347442Y-117984858D01*
X169408730Y-117836898D01*
X169497702Y-117703742D01*
X169610942Y-117590502D01*
X169744098Y-117501530D01*
X169892058Y-117440242D01*
X170049125Y-117409000D01*
X170209275Y-117409000D01*
X170366342Y-117440242D01*
X170366342Y-117440242D01*
G37*
G36*
X104958000Y-117801800D02*
X102306000Y-117801800D01*
X102306000Y-116139800D01*
X104958000Y-116139800D01*
X104958000Y-117801800D01*
X104958000Y-117801800D01*
G37*
G36*
X130368277Y-115941065D02*
X130405964Y-115952498D01*
X130440703Y-115971066D01*
X130471148Y-115996052D01*
X130496134Y-116026497D01*
X130514702Y-116061236D01*
X130526135Y-116098923D01*
X130530600Y-116144261D01*
X130530600Y-117230939D01*
X130526135Y-117276277D01*
X130514702Y-117313964D01*
X130496134Y-117348703D01*
X130471148Y-117379148D01*
X130440703Y-117404134D01*
X130405964Y-117422702D01*
X130368277Y-117434135D01*
X130322939Y-117438600D01*
X129486261Y-117438600D01*
X129440923Y-117434135D01*
X129403236Y-117422702D01*
X129368497Y-117404134D01*
X129338052Y-117379148D01*
X129313066Y-117348703D01*
X129294498Y-117313964D01*
X129283065Y-117276277D01*
X129278600Y-117230939D01*
X129278600Y-116144261D01*
X129283065Y-116098923D01*
X129294498Y-116061236D01*
X129313066Y-116026497D01*
X129338052Y-115996052D01*
X129368497Y-115971066D01*
X129403236Y-115952498D01*
X129440923Y-115941065D01*
X129486261Y-115936600D01*
X130322939Y-115936600D01*
X130368277Y-115941065D01*
X130368277Y-115941065D01*
G37*
G36*
X128318277Y-115941065D02*
X128355964Y-115952498D01*
X128390703Y-115971066D01*
X128421148Y-115996052D01*
X128446134Y-116026497D01*
X128464702Y-116061236D01*
X128476135Y-116098923D01*
X128480600Y-116144261D01*
X128480600Y-117230939D01*
X128476135Y-117276277D01*
X128464702Y-117313964D01*
X128446134Y-117348703D01*
X128421148Y-117379148D01*
X128390703Y-117404134D01*
X128355964Y-117422702D01*
X128318277Y-117434135D01*
X128272939Y-117438600D01*
X127436261Y-117438600D01*
X127390923Y-117434135D01*
X127353236Y-117422702D01*
X127318497Y-117404134D01*
X127288052Y-117379148D01*
X127263066Y-117348703D01*
X127244498Y-117313964D01*
X127233065Y-117276277D01*
X127228600Y-117230939D01*
X127228600Y-116144261D01*
X127233065Y-116098923D01*
X127244498Y-116061236D01*
X127263066Y-116026497D01*
X127288052Y-115996052D01*
X127318497Y-115971066D01*
X127353236Y-115952498D01*
X127390923Y-115941065D01*
X127436261Y-115936600D01*
X128272939Y-115936600D01*
X128318277Y-115941065D01*
X128318277Y-115941065D01*
G37*
G36*
X169959942Y-114900242D02*
X170107902Y-114961530D01*
X170241058Y-115050502D01*
X170354298Y-115163742D01*
X170443270Y-115296898D01*
X170504558Y-115444858D01*
X170535800Y-115601925D01*
X170535800Y-115762075D01*
X170504558Y-115919142D01*
X170472700Y-115996052D01*
X170443271Y-116067100D01*
X170384088Y-116155675D01*
X170354298Y-116200258D01*
X170241058Y-116313498D01*
X170107902Y-116402470D01*
X169959942Y-116463758D01*
X169802875Y-116495000D01*
X169642725Y-116495000D01*
X169485658Y-116463758D01*
X169337698Y-116402470D01*
X169204542Y-116313498D01*
X169091302Y-116200258D01*
X169061513Y-116155675D01*
X169002329Y-116067100D01*
X168972900Y-115996052D01*
X168941042Y-115919142D01*
X168909800Y-115762075D01*
X168909800Y-115601925D01*
X168941042Y-115444858D01*
X169002330Y-115296898D01*
X169091302Y-115163742D01*
X169204542Y-115050502D01*
X169337698Y-114961530D01*
X169485658Y-114900242D01*
X169642725Y-114869000D01*
X169802875Y-114869000D01*
X169959942Y-114900242D01*
X169959942Y-114900242D01*
G37*
G36*
X147099942Y-114900242D02*
X147247902Y-114961530D01*
X147381058Y-115050502D01*
X147494298Y-115163742D01*
X147583270Y-115296898D01*
X147644558Y-115444858D01*
X147675800Y-115601925D01*
X147675800Y-115762075D01*
X147644558Y-115919142D01*
X147612700Y-115996052D01*
X147583271Y-116067100D01*
X147524088Y-116155675D01*
X147494298Y-116200258D01*
X147381058Y-116313498D01*
X147247902Y-116402470D01*
X147099942Y-116463758D01*
X146942875Y-116495000D01*
X146782725Y-116495000D01*
X146625658Y-116463758D01*
X146477698Y-116402470D01*
X146344542Y-116313498D01*
X146231302Y-116200258D01*
X146201513Y-116155675D01*
X146142329Y-116067100D01*
X146112900Y-115996052D01*
X146081042Y-115919142D01*
X146049800Y-115762075D01*
X146049800Y-115601925D01*
X146081042Y-115444858D01*
X146142330Y-115296898D01*
X146231302Y-115163742D01*
X146344542Y-115050502D01*
X146477698Y-114961530D01*
X146625658Y-114900242D01*
X146782725Y-114869000D01*
X146942875Y-114869000D01*
X147099942Y-114900242D01*
X147099942Y-114900242D01*
G37*
G36*
X130964600Y-115249800D02*
X129362600Y-115249800D01*
X129362600Y-113147800D01*
X130964600Y-113147800D01*
X130964600Y-115249800D01*
X130964600Y-115249800D01*
G37*
G36*
X126364600Y-115249800D02*
X124762600Y-115249800D01*
X124762600Y-113147800D01*
X126364600Y-113147800D01*
X126364600Y-115249800D01*
X126364600Y-115249800D01*
G37*
G36*
X128664600Y-115249800D02*
X127062600Y-115249800D01*
X127062600Y-113147800D01*
X128664600Y-113147800D01*
X128664600Y-115249800D01*
X128664600Y-115249800D01*
G37*
G36*
X104958000Y-115101800D02*
X102306000Y-115101800D01*
X102306000Y-113439800D01*
X104958000Y-113439800D01*
X104958000Y-115101800D01*
X104958000Y-115101800D01*
G37*
G36*
X123880277Y-113738265D02*
X123917964Y-113749698D01*
X123952703Y-113768266D01*
X123983148Y-113793252D01*
X124008134Y-113823697D01*
X124026702Y-113858436D01*
X124038135Y-113896123D01*
X124042600Y-113941461D01*
X124042600Y-114778139D01*
X124038135Y-114823477D01*
X124026702Y-114861164D01*
X124008134Y-114895903D01*
X123983148Y-114926348D01*
X123952703Y-114951334D01*
X123917964Y-114969902D01*
X123880277Y-114981335D01*
X123834939Y-114985800D01*
X122748261Y-114985800D01*
X122702923Y-114981335D01*
X122665236Y-114969902D01*
X122630497Y-114951334D01*
X122600052Y-114926348D01*
X122575066Y-114895903D01*
X122556498Y-114861164D01*
X122545065Y-114823477D01*
X122540600Y-114778139D01*
X122540600Y-113941461D01*
X122545065Y-113896123D01*
X122556498Y-113858436D01*
X122575066Y-113823697D01*
X122600052Y-113793252D01*
X122630497Y-113768266D01*
X122665236Y-113749698D01*
X122702923Y-113738265D01*
X122748261Y-113733800D01*
X123834939Y-113733800D01*
X123880277Y-113738265D01*
X123880277Y-113738265D01*
G37*
G36*
X107522677Y-113687465D02*
X107560364Y-113698898D01*
X107595103Y-113717466D01*
X107625548Y-113742452D01*
X107650534Y-113772897D01*
X107669102Y-113807636D01*
X107680535Y-113845323D01*
X107685000Y-113890661D01*
X107685000Y-114727339D01*
X107680535Y-114772677D01*
X107669102Y-114810364D01*
X107650534Y-114845103D01*
X107625548Y-114875548D01*
X107595103Y-114900534D01*
X107560364Y-114919102D01*
X107522677Y-114930535D01*
X107477339Y-114935000D01*
X106390661Y-114935000D01*
X106345323Y-114930535D01*
X106307636Y-114919102D01*
X106272897Y-114900534D01*
X106242452Y-114875548D01*
X106217466Y-114845103D01*
X106198898Y-114810364D01*
X106187465Y-114772677D01*
X106183000Y-114727339D01*
X106183000Y-113890661D01*
X106187465Y-113845323D01*
X106198898Y-113807636D01*
X106217466Y-113772897D01*
X106242452Y-113742452D01*
X106272897Y-113717466D01*
X106307636Y-113698898D01*
X106345323Y-113687465D01*
X106390661Y-113683000D01*
X107477339Y-113683000D01*
X107522677Y-113687465D01*
X107522677Y-113687465D01*
G37*
G36*
X135507400Y-114743000D02*
X132005400Y-114743000D01*
X132005400Y-112841000D01*
X135507400Y-112841000D01*
X135507400Y-114743000D01*
X135507400Y-114743000D01*
G37*
G36*
X170366342Y-112360242D02*
X170514302Y-112421530D01*
X170647458Y-112510502D01*
X170760698Y-112623742D01*
X170849670Y-112756898D01*
X170910958Y-112904858D01*
X170942200Y-113061925D01*
X170942200Y-113222075D01*
X170910958Y-113379142D01*
X170885832Y-113439800D01*
X170849671Y-113527100D01*
X170760699Y-113660257D01*
X170647457Y-113773499D01*
X170596367Y-113807636D01*
X170514302Y-113862470D01*
X170366342Y-113923758D01*
X170209275Y-113955000D01*
X170049125Y-113955000D01*
X169892058Y-113923758D01*
X169744098Y-113862470D01*
X169662033Y-113807636D01*
X169610943Y-113773499D01*
X169497701Y-113660257D01*
X169408729Y-113527100D01*
X169372568Y-113439800D01*
X169347442Y-113379142D01*
X169316200Y-113222075D01*
X169316200Y-113061925D01*
X169347442Y-112904858D01*
X169408730Y-112756898D01*
X169497702Y-112623742D01*
X169610942Y-112510502D01*
X169744098Y-112421530D01*
X169892058Y-112360242D01*
X170049125Y-112329000D01*
X170209275Y-112329000D01*
X170366342Y-112360242D01*
X170366342Y-112360242D01*
G37*
G36*
X147506342Y-112360242D02*
X147654302Y-112421530D01*
X147787458Y-112510502D01*
X147900698Y-112623742D01*
X147989670Y-112756898D01*
X148050958Y-112904858D01*
X148082200Y-113061925D01*
X148082200Y-113222075D01*
X148050958Y-113379142D01*
X148025832Y-113439800D01*
X147989671Y-113527100D01*
X147900699Y-113660257D01*
X147787457Y-113773499D01*
X147736367Y-113807636D01*
X147654302Y-113862470D01*
X147506342Y-113923758D01*
X147349275Y-113955000D01*
X147189125Y-113955000D01*
X147032058Y-113923758D01*
X146884098Y-113862470D01*
X146802033Y-113807636D01*
X146750943Y-113773499D01*
X146637701Y-113660257D01*
X146548729Y-113527100D01*
X146512568Y-113439800D01*
X146487442Y-113379142D01*
X146456200Y-113222075D01*
X146456200Y-113061925D01*
X146487442Y-112904858D01*
X146548730Y-112756898D01*
X146637702Y-112623742D01*
X146750942Y-112510502D01*
X146884098Y-112421530D01*
X147032058Y-112360242D01*
X147189125Y-112329000D01*
X147349275Y-112329000D01*
X147506342Y-112360242D01*
X147506342Y-112360242D01*
G37*
G36*
X104296877Y-111858665D02*
X104334564Y-111870098D01*
X104369303Y-111888666D01*
X104399748Y-111913652D01*
X104424734Y-111944097D01*
X104443302Y-111978836D01*
X104454735Y-112016523D01*
X104459200Y-112061861D01*
X104459200Y-112898539D01*
X104454735Y-112943877D01*
X104443302Y-112981564D01*
X104424734Y-113016303D01*
X104399748Y-113046748D01*
X104369303Y-113071734D01*
X104334564Y-113090302D01*
X104296877Y-113101735D01*
X104251539Y-113106200D01*
X103164861Y-113106200D01*
X103119523Y-113101735D01*
X103081836Y-113090302D01*
X103047097Y-113071734D01*
X103016652Y-113046748D01*
X102991666Y-113016303D01*
X102973098Y-112981564D01*
X102961665Y-112943877D01*
X102957200Y-112898539D01*
X102957200Y-112061861D01*
X102961665Y-112016523D01*
X102973098Y-111978836D01*
X102991666Y-111944097D01*
X103016652Y-111913652D01*
X103047097Y-111888666D01*
X103081836Y-111870098D01*
X103119523Y-111858665D01*
X103164861Y-111854200D01*
X104251539Y-111854200D01*
X104296877Y-111858665D01*
X104296877Y-111858665D01*
G37*
G36*
X123880277Y-111688265D02*
X123917964Y-111699698D01*
X123952703Y-111718266D01*
X123983148Y-111743252D01*
X124008134Y-111773697D01*
X124026702Y-111808436D01*
X124038135Y-111846123D01*
X124042600Y-111891461D01*
X124042600Y-112728139D01*
X124038135Y-112773477D01*
X124026702Y-112811164D01*
X124008134Y-112845903D01*
X123983148Y-112876348D01*
X123952703Y-112901334D01*
X123917964Y-112919902D01*
X123880277Y-112931335D01*
X123834939Y-112935800D01*
X122748261Y-112935800D01*
X122702923Y-112931335D01*
X122665236Y-112919902D01*
X122630497Y-112901334D01*
X122600052Y-112876348D01*
X122575066Y-112845903D01*
X122556498Y-112811164D01*
X122545065Y-112773477D01*
X122540600Y-112728139D01*
X122540600Y-111891461D01*
X122545065Y-111846123D01*
X122556498Y-111808436D01*
X122575066Y-111773697D01*
X122600052Y-111743252D01*
X122630497Y-111718266D01*
X122665236Y-111699698D01*
X122702923Y-111688265D01*
X122748261Y-111683800D01*
X123834939Y-111683800D01*
X123880277Y-111688265D01*
X123880277Y-111688265D01*
G37*
G36*
X107522677Y-111637465D02*
X107560364Y-111648898D01*
X107595103Y-111667466D01*
X107625548Y-111692452D01*
X107650534Y-111722897D01*
X107669102Y-111757636D01*
X107680535Y-111795323D01*
X107685000Y-111840661D01*
X107685000Y-112677339D01*
X107680535Y-112722677D01*
X107669102Y-112760364D01*
X107650534Y-112795103D01*
X107625548Y-112825548D01*
X107595103Y-112850534D01*
X107560364Y-112869102D01*
X107522677Y-112880535D01*
X107477339Y-112885000D01*
X106390661Y-112885000D01*
X106345323Y-112880535D01*
X106307636Y-112869102D01*
X106272897Y-112850534D01*
X106242452Y-112825548D01*
X106217466Y-112795103D01*
X106198898Y-112760364D01*
X106187465Y-112722677D01*
X106183000Y-112677339D01*
X106183000Y-111840661D01*
X106187465Y-111795323D01*
X106198898Y-111757636D01*
X106217466Y-111722897D01*
X106242452Y-111692452D01*
X106272897Y-111667466D01*
X106307636Y-111648898D01*
X106345323Y-111637465D01*
X106390661Y-111633000D01*
X107477339Y-111633000D01*
X107522677Y-111637465D01*
X107522677Y-111637465D01*
G37*
G36*
X97819877Y-110639465D02*
X97857564Y-110650898D01*
X97892303Y-110669466D01*
X97922748Y-110694452D01*
X97947734Y-110724897D01*
X97966302Y-110759636D01*
X97977735Y-110797323D01*
X97982200Y-110842661D01*
X97982200Y-111679339D01*
X97977735Y-111724677D01*
X97966302Y-111762364D01*
X97947734Y-111797103D01*
X97922748Y-111827548D01*
X97892303Y-111852534D01*
X97857564Y-111871102D01*
X97819877Y-111882535D01*
X97774539Y-111887000D01*
X96687861Y-111887000D01*
X96642523Y-111882535D01*
X96604836Y-111871102D01*
X96570097Y-111852534D01*
X96539652Y-111827548D01*
X96514666Y-111797103D01*
X96496098Y-111762364D01*
X96484665Y-111724677D01*
X96480200Y-111679339D01*
X96480200Y-110842661D01*
X96484665Y-110797323D01*
X96496098Y-110759636D01*
X96514666Y-110724897D01*
X96539652Y-110694452D01*
X96570097Y-110669466D01*
X96604836Y-110650898D01*
X96642523Y-110639465D01*
X96687861Y-110635000D01*
X97774539Y-110635000D01*
X97819877Y-110639465D01*
X97819877Y-110639465D01*
G37*
G36*
X117356198Y-109035954D02*
X117368450Y-109036556D01*
X117386869Y-109036556D01*
X117409149Y-109038750D01*
X117493236Y-109055476D01*
X117514655Y-109061974D01*
X117593871Y-109094785D01*
X117613607Y-109105335D01*
X117684897Y-109152969D01*
X117702208Y-109167176D01*
X117762824Y-109227792D01*
X117777031Y-109245103D01*
X117824665Y-109316393D01*
X117835215Y-109336129D01*
X117868026Y-109415345D01*
X117874524Y-109436764D01*
X117891250Y-109520851D01*
X117893444Y-109543131D01*
X117893444Y-109561550D01*
X117894046Y-109573802D01*
X117895852Y-109592140D01*
X117895852Y-110079860D01*
X117894263Y-110095999D01*
X117891347Y-110105611D01*
X117886612Y-110114469D01*
X117880237Y-110122237D01*
X117867798Y-110132446D01*
X117857432Y-110139372D01*
X117840105Y-110156698D01*
X117826490Y-110177073D01*
X117817112Y-110199711D01*
X117812331Y-110223745D01*
X117812331Y-110248249D01*
X117817111Y-110272283D01*
X117826487Y-110294922D01*
X117840101Y-110315297D01*
X117857427Y-110332624D01*
X117867796Y-110339552D01*
X117880237Y-110349763D01*
X117886612Y-110357531D01*
X117891347Y-110366389D01*
X117894263Y-110376001D01*
X117895852Y-110392140D01*
X117895852Y-110879861D01*
X117894046Y-110898198D01*
X117893444Y-110910450D01*
X117893444Y-110928869D01*
X117891250Y-110951149D01*
X117874524Y-111035236D01*
X117868026Y-111056655D01*
X117835215Y-111135871D01*
X117824665Y-111155607D01*
X117777031Y-111226897D01*
X117762824Y-111244208D01*
X117702208Y-111304824D01*
X117684897Y-111319031D01*
X117613607Y-111366665D01*
X117593871Y-111377215D01*
X117514655Y-111410026D01*
X117493236Y-111416524D01*
X117409149Y-111433250D01*
X117386869Y-111435444D01*
X117368450Y-111435444D01*
X117356198Y-111436046D01*
X117337861Y-111437852D01*
X116850139Y-111437852D01*
X116831802Y-111436046D01*
X116819550Y-111435444D01*
X116801131Y-111435444D01*
X116778851Y-111433250D01*
X116694764Y-111416524D01*
X116673345Y-111410026D01*
X116594129Y-111377215D01*
X116574393Y-111366665D01*
X116503103Y-111319031D01*
X116485792Y-111304824D01*
X116425176Y-111244208D01*
X116410969Y-111226897D01*
X116363335Y-111155607D01*
X116352785Y-111135871D01*
X116319974Y-111056655D01*
X116313476Y-111035236D01*
X116296750Y-110951149D01*
X116294556Y-110928869D01*
X116294556Y-110910450D01*
X116293954Y-110898198D01*
X116292148Y-110879861D01*
X116292148Y-110392140D01*
X116293737Y-110376001D01*
X116296653Y-110366389D01*
X116301388Y-110357531D01*
X116307763Y-110349763D01*
X116320202Y-110339554D01*
X116330568Y-110332628D01*
X116347895Y-110315302D01*
X116361510Y-110294927D01*
X116370888Y-110272289D01*
X116375669Y-110248255D01*
X116375669Y-110223751D01*
X116370889Y-110199717D01*
X116361513Y-110177078D01*
X116347899Y-110156703D01*
X116330573Y-110139376D01*
X116320204Y-110132448D01*
X116307763Y-110122237D01*
X116301388Y-110114469D01*
X116296653Y-110105611D01*
X116293737Y-110095999D01*
X116292148Y-110079860D01*
X116292148Y-109592140D01*
X116293954Y-109573802D01*
X116294556Y-109561550D01*
X116294556Y-109543131D01*
X116296750Y-109520851D01*
X116313476Y-109436764D01*
X116319974Y-109415345D01*
X116352785Y-109336129D01*
X116363335Y-109316393D01*
X116410969Y-109245103D01*
X116425176Y-109227792D01*
X116485792Y-109167176D01*
X116503103Y-109152969D01*
X116574393Y-109105335D01*
X116594129Y-109094785D01*
X116673345Y-109061974D01*
X116694764Y-109055476D01*
X116778851Y-109038750D01*
X116801131Y-109036556D01*
X116819550Y-109036556D01*
X116831802Y-109035954D01*
X116850140Y-109034148D01*
X117337860Y-109034148D01*
X117356198Y-109035954D01*
X117356198Y-109035954D01*
G37*
G36*
X147099942Y-109820242D02*
X147247902Y-109881530D01*
X147313202Y-109925162D01*
X147381057Y-109970501D01*
X147494299Y-110083743D01*
X147538483Y-110149870D01*
X147583270Y-110216898D01*
X147644558Y-110364858D01*
X147675800Y-110521925D01*
X147675800Y-110682075D01*
X147644558Y-110839142D01*
X147583270Y-110987102D01*
X147547723Y-111040302D01*
X147494299Y-111120257D01*
X147381057Y-111233499D01*
X147314930Y-111277683D01*
X147247902Y-111322470D01*
X147099942Y-111383758D01*
X146942875Y-111415000D01*
X146782725Y-111415000D01*
X146625658Y-111383758D01*
X146477698Y-111322470D01*
X146410670Y-111277683D01*
X146344543Y-111233499D01*
X146231301Y-111120257D01*
X146177877Y-111040302D01*
X146142330Y-110987102D01*
X146081042Y-110839142D01*
X146049800Y-110682075D01*
X146049800Y-110521925D01*
X146081042Y-110364858D01*
X146142330Y-110216898D01*
X146187117Y-110149870D01*
X146231301Y-110083743D01*
X146344543Y-109970501D01*
X146412398Y-109925162D01*
X146477698Y-109881530D01*
X146625658Y-109820242D01*
X146782725Y-109789000D01*
X146942875Y-109789000D01*
X147099942Y-109820242D01*
X147099942Y-109820242D01*
G37*
G36*
X169959942Y-109820242D02*
X170107902Y-109881530D01*
X170173202Y-109925162D01*
X170241057Y-109970501D01*
X170354299Y-110083743D01*
X170398483Y-110149870D01*
X170443270Y-110216898D01*
X170504558Y-110364858D01*
X170535800Y-110521925D01*
X170535800Y-110682075D01*
X170504558Y-110839142D01*
X170443270Y-110987102D01*
X170407723Y-111040302D01*
X170354299Y-111120257D01*
X170241057Y-111233499D01*
X170174930Y-111277683D01*
X170107902Y-111322470D01*
X169959942Y-111383758D01*
X169802875Y-111415000D01*
X169642725Y-111415000D01*
X169485658Y-111383758D01*
X169337698Y-111322470D01*
X169270670Y-111277683D01*
X169204543Y-111233499D01*
X169091301Y-111120257D01*
X169037877Y-111040302D01*
X169002330Y-110987102D01*
X168941042Y-110839142D01*
X168909800Y-110682075D01*
X168909800Y-110521925D01*
X168941042Y-110364858D01*
X169002330Y-110216898D01*
X169047117Y-110149870D01*
X169091301Y-110083743D01*
X169204543Y-109970501D01*
X169272398Y-109925162D01*
X169337698Y-109881530D01*
X169485658Y-109820242D01*
X169642725Y-109789000D01*
X169802875Y-109789000D01*
X169959942Y-109820242D01*
X169959942Y-109820242D01*
G37*
G36*
X104296877Y-109808665D02*
X104334564Y-109820098D01*
X104369303Y-109838666D01*
X104399748Y-109863652D01*
X104424734Y-109894097D01*
X104443302Y-109928836D01*
X104454735Y-109966523D01*
X104459200Y-110011861D01*
X104459200Y-110848539D01*
X104454735Y-110893877D01*
X104443302Y-110931564D01*
X104424734Y-110966303D01*
X104399748Y-110996748D01*
X104369303Y-111021734D01*
X104334564Y-111040302D01*
X104296877Y-111051735D01*
X104251539Y-111056200D01*
X103164861Y-111056200D01*
X103119523Y-111051735D01*
X103081836Y-111040302D01*
X103047097Y-111021734D01*
X103016652Y-110996748D01*
X102991666Y-110966303D01*
X102973098Y-110931564D01*
X102961665Y-110893877D01*
X102957200Y-110848539D01*
X102957200Y-110011861D01*
X102961665Y-109966523D01*
X102973098Y-109928836D01*
X102991666Y-109894097D01*
X103016652Y-109863652D01*
X103047097Y-109838666D01*
X103081836Y-109820098D01*
X103119523Y-109808665D01*
X103164861Y-109804200D01*
X104251539Y-109804200D01*
X104296877Y-109808665D01*
X104296877Y-109808665D01*
G37*
G36*
X97819877Y-108589465D02*
X97857564Y-108600898D01*
X97892303Y-108619466D01*
X97922748Y-108644452D01*
X97947734Y-108674897D01*
X97966302Y-108709636D01*
X97977735Y-108747323D01*
X97982200Y-108792661D01*
X97982200Y-109629339D01*
X97977735Y-109674677D01*
X97966302Y-109712364D01*
X97947734Y-109747103D01*
X97922748Y-109777548D01*
X97892303Y-109802534D01*
X97857564Y-109821102D01*
X97819877Y-109832535D01*
X97774539Y-109837000D01*
X96687861Y-109837000D01*
X96642523Y-109832535D01*
X96604836Y-109821102D01*
X96570097Y-109802534D01*
X96539652Y-109777548D01*
X96514666Y-109747103D01*
X96496098Y-109712364D01*
X96484665Y-109674677D01*
X96480200Y-109629339D01*
X96480200Y-108792661D01*
X96484665Y-108747323D01*
X96496098Y-108709636D01*
X96514666Y-108674897D01*
X96539652Y-108644452D01*
X96570097Y-108619466D01*
X96604836Y-108600898D01*
X96642523Y-108589465D01*
X96687861Y-108585000D01*
X97774539Y-108585000D01*
X97819877Y-108589465D01*
X97819877Y-108589465D01*
G37*
G36*
X105637000Y-109104200D02*
X102135000Y-109104200D01*
X102135000Y-107202200D01*
X105637000Y-107202200D01*
X105637000Y-109104200D01*
X105637000Y-109104200D01*
G37*
G36*
X129814600Y-108949800D02*
X125912600Y-108949800D01*
X125912600Y-106847800D01*
X129814600Y-106847800D01*
X129814600Y-108949800D01*
X129814600Y-108949800D01*
G37*
G36*
X147506342Y-107280242D02*
X147654302Y-107341530D01*
X147787458Y-107430502D01*
X147900698Y-107543742D01*
X147989670Y-107676898D01*
X148050958Y-107824858D01*
X148082200Y-107981925D01*
X148082200Y-108142075D01*
X148050958Y-108299142D01*
X148003554Y-108413583D01*
X147989671Y-108447100D01*
X147900699Y-108580257D01*
X147787457Y-108693499D01*
X147763306Y-108709636D01*
X147654302Y-108782470D01*
X147506342Y-108843758D01*
X147349275Y-108875000D01*
X147189125Y-108875000D01*
X147032058Y-108843758D01*
X146884098Y-108782470D01*
X146775094Y-108709636D01*
X146750943Y-108693499D01*
X146637701Y-108580257D01*
X146548729Y-108447100D01*
X146534846Y-108413583D01*
X146487442Y-108299142D01*
X146456200Y-108142075D01*
X146456200Y-107981925D01*
X146487442Y-107824858D01*
X146548730Y-107676898D01*
X146637702Y-107543742D01*
X146750942Y-107430502D01*
X146884098Y-107341530D01*
X147032058Y-107280242D01*
X147189125Y-107249000D01*
X147349275Y-107249000D01*
X147506342Y-107280242D01*
X147506342Y-107280242D01*
G37*
G36*
X170366342Y-107280242D02*
X170514302Y-107341530D01*
X170647458Y-107430502D01*
X170760698Y-107543742D01*
X170849670Y-107676898D01*
X170910958Y-107824858D01*
X170942200Y-107981925D01*
X170942200Y-108142075D01*
X170910958Y-108299142D01*
X170863554Y-108413583D01*
X170849671Y-108447100D01*
X170760699Y-108580257D01*
X170647457Y-108693499D01*
X170623306Y-108709636D01*
X170514302Y-108782470D01*
X170366342Y-108843758D01*
X170209275Y-108875000D01*
X170049125Y-108875000D01*
X169892058Y-108843758D01*
X169744098Y-108782470D01*
X169635094Y-108709636D01*
X169610943Y-108693499D01*
X169497701Y-108580257D01*
X169408729Y-108447100D01*
X169394846Y-108413583D01*
X169347442Y-108299142D01*
X169316200Y-108142075D01*
X169316200Y-107981925D01*
X169347442Y-107824858D01*
X169408730Y-107676898D01*
X169497702Y-107543742D01*
X169610942Y-107430502D01*
X169744098Y-107341530D01*
X169892058Y-107280242D01*
X170049125Y-107249000D01*
X170209275Y-107249000D01*
X170366342Y-107280242D01*
X170366342Y-107280242D01*
G37*
G36*
X97769077Y-106677065D02*
X97806764Y-106688498D01*
X97841503Y-106707066D01*
X97871948Y-106732052D01*
X97896934Y-106762497D01*
X97915502Y-106797236D01*
X97926935Y-106834923D01*
X97931400Y-106880261D01*
X97931400Y-107716939D01*
X97926935Y-107762277D01*
X97915502Y-107799964D01*
X97896934Y-107834703D01*
X97871948Y-107865148D01*
X97841503Y-107890134D01*
X97806764Y-107908702D01*
X97769077Y-107920135D01*
X97723739Y-107924600D01*
X96637061Y-107924600D01*
X96591723Y-107920135D01*
X96554036Y-107908702D01*
X96519297Y-107890134D01*
X96488852Y-107865148D01*
X96463866Y-107834703D01*
X96445298Y-107799964D01*
X96433865Y-107762277D01*
X96429400Y-107716939D01*
X96429400Y-106880261D01*
X96433865Y-106834923D01*
X96445298Y-106797236D01*
X96463866Y-106762497D01*
X96488852Y-106732052D01*
X96519297Y-106707066D01*
X96554036Y-106688498D01*
X96591723Y-106677065D01*
X96637061Y-106672600D01*
X97723739Y-106672600D01*
X97769077Y-106677065D01*
X97769077Y-106677065D01*
G37*
G36*
X132877000Y-107223000D02*
X130775000Y-107223000D01*
X130775000Y-105121000D01*
X132877000Y-105121000D01*
X132877000Y-107223000D01*
X132877000Y-107223000D01*
G37*
G36*
X138632565Y-105161389D02*
X138823834Y-105240615D01*
X138995976Y-105355637D01*
X139142363Y-105502024D01*
X139257385Y-105674166D01*
X139336611Y-105865435D01*
X139377000Y-106068484D01*
X139377000Y-106275516D01*
X139336611Y-106478565D01*
X139257385Y-106669834D01*
X139142363Y-106841976D01*
X138995976Y-106988363D01*
X138823834Y-107103385D01*
X138632565Y-107182611D01*
X138429516Y-107223000D01*
X138222484Y-107223000D01*
X138019435Y-107182611D01*
X137828166Y-107103385D01*
X137656024Y-106988363D01*
X137509637Y-106841976D01*
X137394615Y-106669834D01*
X137315389Y-106478565D01*
X137275000Y-106275516D01*
X137275000Y-106068484D01*
X137315389Y-105865435D01*
X137394615Y-105674166D01*
X137509637Y-105502024D01*
X137656024Y-105355637D01*
X137828166Y-105240615D01*
X138019435Y-105161389D01*
X138222484Y-105121000D01*
X138429516Y-105121000D01*
X138632565Y-105161389D01*
X138632565Y-105161389D01*
G37*
G36*
X169959942Y-104740242D02*
X170107902Y-104801530D01*
X170241058Y-104890502D01*
X170354298Y-105003742D01*
X170443270Y-105136898D01*
X170504558Y-105284858D01*
X170535800Y-105441925D01*
X170535800Y-105602075D01*
X170504558Y-105759142D01*
X170443270Y-105907102D01*
X170354298Y-106040258D01*
X170241058Y-106153498D01*
X170107902Y-106242470D01*
X169959942Y-106303758D01*
X169802875Y-106335000D01*
X169642725Y-106335000D01*
X169485658Y-106303758D01*
X169337698Y-106242470D01*
X169204542Y-106153498D01*
X169091302Y-106040258D01*
X169002330Y-105907102D01*
X168941042Y-105759142D01*
X168909800Y-105602075D01*
X168909800Y-105441925D01*
X168941042Y-105284858D01*
X169002330Y-105136898D01*
X169091302Y-105003742D01*
X169204542Y-104890502D01*
X169337698Y-104801530D01*
X169485658Y-104740242D01*
X169642725Y-104709000D01*
X169802875Y-104709000D01*
X169959942Y-104740242D01*
X169959942Y-104740242D01*
G37*
G36*
X147099942Y-104740242D02*
X147247902Y-104801530D01*
X147381058Y-104890502D01*
X147494298Y-105003742D01*
X147583270Y-105136898D01*
X147644558Y-105284858D01*
X147675800Y-105441925D01*
X147675800Y-105602075D01*
X147644558Y-105759142D01*
X147583270Y-105907102D01*
X147494298Y-106040258D01*
X147381058Y-106153498D01*
X147247902Y-106242470D01*
X147099942Y-106303758D01*
X146942875Y-106335000D01*
X146782725Y-106335000D01*
X146625658Y-106303758D01*
X146477698Y-106242470D01*
X146344542Y-106153498D01*
X146231302Y-106040258D01*
X146142330Y-105907102D01*
X146081042Y-105759142D01*
X146049800Y-105602075D01*
X146049800Y-105441925D01*
X146081042Y-105284858D01*
X146142330Y-105136898D01*
X146231302Y-105003742D01*
X146344542Y-104890502D01*
X146477698Y-104801530D01*
X146625658Y-104740242D01*
X146782725Y-104709000D01*
X146942875Y-104709000D01*
X147099942Y-104740242D01*
X147099942Y-104740242D01*
G37*
G36*
X97769077Y-104627065D02*
X97806764Y-104638498D01*
X97841503Y-104657066D01*
X97871948Y-104682052D01*
X97896934Y-104712497D01*
X97915502Y-104747236D01*
X97926935Y-104784923D01*
X97931400Y-104830261D01*
X97931400Y-105666939D01*
X97926935Y-105712277D01*
X97915502Y-105749964D01*
X97896934Y-105784703D01*
X97871948Y-105815148D01*
X97841503Y-105840134D01*
X97806764Y-105858702D01*
X97769077Y-105870135D01*
X97723739Y-105874600D01*
X96637061Y-105874600D01*
X96591723Y-105870135D01*
X96554036Y-105858702D01*
X96519297Y-105840134D01*
X96488852Y-105815148D01*
X96463866Y-105784703D01*
X96445298Y-105749964D01*
X96433865Y-105712277D01*
X96429400Y-105666939D01*
X96429400Y-104830261D01*
X96433865Y-104784923D01*
X96445298Y-104747236D01*
X96463866Y-104712497D01*
X96488852Y-104682052D01*
X96519297Y-104657066D01*
X96554036Y-104638498D01*
X96591723Y-104627065D01*
X96637061Y-104622600D01*
X97723739Y-104622600D01*
X97769077Y-104627065D01*
X97769077Y-104627065D01*
G37*
G36*
X170183462Y-102200242D02*
X170331422Y-102261530D01*
X170464578Y-102350502D01*
X170577818Y-102463742D01*
X170666790Y-102596898D01*
X170728078Y-102744858D01*
X170759320Y-102901925D01*
X170759320Y-103062075D01*
X170728078Y-103219142D01*
X170666790Y-103367102D01*
X170577818Y-103500258D01*
X170464578Y-103613498D01*
X170331422Y-103702470D01*
X170183462Y-103763758D01*
X170026395Y-103795000D01*
X169866245Y-103795000D01*
X169709178Y-103763758D01*
X169561218Y-103702470D01*
X169428062Y-103613498D01*
X169314822Y-103500258D01*
X169225850Y-103367102D01*
X169164562Y-103219142D01*
X169133320Y-103062075D01*
X169133320Y-102901925D01*
X169164562Y-102744858D01*
X169225850Y-102596898D01*
X169314822Y-102463742D01*
X169428062Y-102350502D01*
X169561218Y-102261530D01*
X169709178Y-102200242D01*
X169866245Y-102169000D01*
X170026395Y-102169000D01*
X170183462Y-102200242D01*
X170183462Y-102200242D01*
G37*
G36*
X147506342Y-102200242D02*
X147654302Y-102261530D01*
X147787458Y-102350502D01*
X147900698Y-102463742D01*
X147989670Y-102596898D01*
X148050958Y-102744858D01*
X148082200Y-102901925D01*
X148082200Y-103062075D01*
X148050958Y-103219142D01*
X147989670Y-103367102D01*
X147900698Y-103500258D01*
X147787458Y-103613498D01*
X147654302Y-103702470D01*
X147506342Y-103763758D01*
X147349275Y-103795000D01*
X147189125Y-103795000D01*
X147032058Y-103763758D01*
X146884098Y-103702470D01*
X146750942Y-103613498D01*
X146637702Y-103500258D01*
X146548730Y-103367102D01*
X146487442Y-103219142D01*
X146456200Y-103062075D01*
X146456200Y-102901925D01*
X146487442Y-102744858D01*
X146548730Y-102596898D01*
X146637702Y-102463742D01*
X146750942Y-102350502D01*
X146884098Y-102261530D01*
X147032058Y-102200242D01*
X147189125Y-102169000D01*
X147349275Y-102169000D01*
X147506342Y-102200242D01*
X147506342Y-102200242D01*
G37*
G36*
X118499400Y-81316600D02*
X114897400Y-81316600D01*
X114897400Y-79414600D01*
X118499400Y-79414600D01*
X118499400Y-81316600D01*
X118499400Y-81316600D01*
G37*
G36*
X113499400Y-81316600D02*
X109897400Y-81316600D01*
X109897400Y-79414600D01*
X113499400Y-79414600D01*
X113499400Y-81316600D01*
X113499400Y-81316600D01*
G37*
G36*
X127705000Y-81155400D02*
X126803000Y-81155400D01*
X126803000Y-80153400D01*
X127705000Y-80153400D01*
X127705000Y-81155400D01*
X127705000Y-81155400D01*
G37*
G36*
X122625000Y-81155400D02*
X121723000Y-81155400D01*
X121723000Y-80153400D01*
X122625000Y-80153400D01*
X122625000Y-81155400D01*
X122625000Y-81155400D01*
G37*
G36*
X126755000Y-79155400D02*
X125853000Y-79155400D01*
X125853000Y-78153400D01*
X126755000Y-78153400D01*
X126755000Y-79155400D01*
X126755000Y-79155400D01*
G37*
G36*
X128655000Y-79155400D02*
X127753000Y-79155400D01*
X127753000Y-78153400D01*
X128655000Y-78153400D01*
X128655000Y-79155400D01*
X128655000Y-79155400D01*
G37*
G36*
X123575000Y-79155400D02*
X122673000Y-79155400D01*
X122673000Y-78153400D01*
X123575000Y-78153400D01*
X123575000Y-79155400D01*
X123575000Y-79155400D01*
G37*
G36*
X121675000Y-79155400D02*
X120773000Y-79155400D01*
X120773000Y-78153400D01*
X121675000Y-78153400D01*
X121675000Y-79155400D01*
X121675000Y-79155400D01*
G37*
G36*
X143940200Y-79081400D02*
X140438200Y-79081400D01*
X140438200Y-77179400D01*
X143940200Y-77179400D01*
X143940200Y-79081400D01*
X143940200Y-79081400D01*
G37*
G36*
X121014442Y-75325518D02*
X121080627Y-75332037D01*
X121175324Y-75360763D01*
X121250467Y-75383557D01*
X121389087Y-75457652D01*
X121406991Y-75467222D01*
X121442729Y-75496552D01*
X121544186Y-75579814D01*
X121627448Y-75681271D01*
X121656778Y-75717009D01*
X121656779Y-75717011D01*
X121740443Y-75873533D01*
X121740443Y-75873534D01*
X121791963Y-76043373D01*
X121809359Y-76220000D01*
X121791963Y-76396627D01*
X121757616Y-76509853D01*
X121740443Y-76566467D01*
X121666348Y-76705087D01*
X121656778Y-76722991D01*
X121627448Y-76758729D01*
X121544186Y-76860186D01*
X121442729Y-76943448D01*
X121406991Y-76972778D01*
X121406989Y-76972779D01*
X121250467Y-77056443D01*
X121193853Y-77073616D01*
X121080627Y-77107963D01*
X121014442Y-77114482D01*
X120948260Y-77121000D01*
X120859740Y-77121000D01*
X120793558Y-77114482D01*
X120727373Y-77107963D01*
X120614147Y-77073616D01*
X120557533Y-77056443D01*
X120401011Y-76972779D01*
X120401009Y-76972778D01*
X120365271Y-76943448D01*
X120263814Y-76860186D01*
X120180552Y-76758729D01*
X120151222Y-76722991D01*
X120141652Y-76705087D01*
X120067557Y-76566467D01*
X120050384Y-76509853D01*
X120016037Y-76396627D01*
X119998641Y-76220000D01*
X120016037Y-76043373D01*
X120067557Y-75873534D01*
X120067557Y-75873533D01*
X120151221Y-75717011D01*
X120151222Y-75717009D01*
X120180552Y-75681271D01*
X120263814Y-75579814D01*
X120365271Y-75496552D01*
X120401009Y-75467222D01*
X120418913Y-75457652D01*
X120557533Y-75383557D01*
X120632676Y-75360763D01*
X120727373Y-75332037D01*
X120793558Y-75325518D01*
X120859740Y-75319000D01*
X120948260Y-75319000D01*
X121014442Y-75325518D01*
X121014442Y-75325518D01*
G37*
G36*
X118474442Y-75325518D02*
X118540627Y-75332037D01*
X118635324Y-75360763D01*
X118710467Y-75383557D01*
X118849087Y-75457652D01*
X118866991Y-75467222D01*
X118902729Y-75496552D01*
X119004186Y-75579814D01*
X119087448Y-75681271D01*
X119116778Y-75717009D01*
X119116779Y-75717011D01*
X119200443Y-75873533D01*
X119200443Y-75873534D01*
X119251963Y-76043373D01*
X119269359Y-76220000D01*
X119251963Y-76396627D01*
X119217616Y-76509853D01*
X119200443Y-76566467D01*
X119126348Y-76705087D01*
X119116778Y-76722991D01*
X119087448Y-76758729D01*
X119004186Y-76860186D01*
X118902729Y-76943448D01*
X118866991Y-76972778D01*
X118866989Y-76972779D01*
X118710467Y-77056443D01*
X118653853Y-77073616D01*
X118540627Y-77107963D01*
X118474442Y-77114482D01*
X118408260Y-77121000D01*
X118319740Y-77121000D01*
X118253558Y-77114482D01*
X118187373Y-77107963D01*
X118074147Y-77073616D01*
X118017533Y-77056443D01*
X117861011Y-76972779D01*
X117861009Y-76972778D01*
X117825271Y-76943448D01*
X117723814Y-76860186D01*
X117640552Y-76758729D01*
X117611222Y-76722991D01*
X117601652Y-76705087D01*
X117527557Y-76566467D01*
X117510384Y-76509853D01*
X117476037Y-76396627D01*
X117458641Y-76220000D01*
X117476037Y-76043373D01*
X117527557Y-75873534D01*
X117527557Y-75873533D01*
X117611221Y-75717011D01*
X117611222Y-75717009D01*
X117640552Y-75681271D01*
X117723814Y-75579814D01*
X117825271Y-75496552D01*
X117861009Y-75467222D01*
X117878913Y-75457652D01*
X118017533Y-75383557D01*
X118092676Y-75360763D01*
X118187373Y-75332037D01*
X118253558Y-75325518D01*
X118319740Y-75319000D01*
X118408260Y-75319000D01*
X118474442Y-75325518D01*
X118474442Y-75325518D01*
G37*
G36*
X123554442Y-75325518D02*
X123620627Y-75332037D01*
X123715324Y-75360763D01*
X123790467Y-75383557D01*
X123929087Y-75457652D01*
X123946991Y-75467222D01*
X123982729Y-75496552D01*
X124084186Y-75579814D01*
X124167448Y-75681271D01*
X124196778Y-75717009D01*
X124196779Y-75717011D01*
X124280443Y-75873533D01*
X124280443Y-75873534D01*
X124331963Y-76043373D01*
X124349359Y-76220000D01*
X124331963Y-76396627D01*
X124297616Y-76509853D01*
X124280443Y-76566467D01*
X124206348Y-76705087D01*
X124196778Y-76722991D01*
X124167448Y-76758729D01*
X124084186Y-76860186D01*
X123982729Y-76943448D01*
X123946991Y-76972778D01*
X123946989Y-76972779D01*
X123790467Y-77056443D01*
X123733853Y-77073616D01*
X123620627Y-77107963D01*
X123554442Y-77114482D01*
X123488260Y-77121000D01*
X123399740Y-77121000D01*
X123333558Y-77114482D01*
X123267373Y-77107963D01*
X123154147Y-77073616D01*
X123097533Y-77056443D01*
X122941011Y-76972779D01*
X122941009Y-76972778D01*
X122905271Y-76943448D01*
X122803814Y-76860186D01*
X122720552Y-76758729D01*
X122691222Y-76722991D01*
X122681652Y-76705087D01*
X122607557Y-76566467D01*
X122590384Y-76509853D01*
X122556037Y-76396627D01*
X122538641Y-76220000D01*
X122556037Y-76043373D01*
X122607557Y-75873534D01*
X122607557Y-75873533D01*
X122691221Y-75717011D01*
X122691222Y-75717009D01*
X122720552Y-75681271D01*
X122803814Y-75579814D01*
X122905271Y-75496552D01*
X122941009Y-75467222D01*
X122958913Y-75457652D01*
X123097533Y-75383557D01*
X123172676Y-75360763D01*
X123267373Y-75332037D01*
X123333558Y-75325518D01*
X123399740Y-75319000D01*
X123488260Y-75319000D01*
X123554442Y-75325518D01*
X123554442Y-75325518D01*
G37*
G36*
X126094442Y-75325518D02*
X126160627Y-75332037D01*
X126255324Y-75360763D01*
X126330467Y-75383557D01*
X126469087Y-75457652D01*
X126486991Y-75467222D01*
X126522729Y-75496552D01*
X126624186Y-75579814D01*
X126707448Y-75681271D01*
X126736778Y-75717009D01*
X126736779Y-75717011D01*
X126820443Y-75873533D01*
X126820443Y-75873534D01*
X126871963Y-76043373D01*
X126889359Y-76220000D01*
X126871963Y-76396627D01*
X126837616Y-76509853D01*
X126820443Y-76566467D01*
X126746348Y-76705087D01*
X126736778Y-76722991D01*
X126707448Y-76758729D01*
X126624186Y-76860186D01*
X126522729Y-76943448D01*
X126486991Y-76972778D01*
X126486989Y-76972779D01*
X126330467Y-77056443D01*
X126273853Y-77073616D01*
X126160627Y-77107963D01*
X126094442Y-77114482D01*
X126028260Y-77121000D01*
X125939740Y-77121000D01*
X125873558Y-77114482D01*
X125807373Y-77107963D01*
X125694147Y-77073616D01*
X125637533Y-77056443D01*
X125481011Y-76972779D01*
X125481009Y-76972778D01*
X125445271Y-76943448D01*
X125343814Y-76860186D01*
X125260552Y-76758729D01*
X125231222Y-76722991D01*
X125221652Y-76705087D01*
X125147557Y-76566467D01*
X125130384Y-76509853D01*
X125096037Y-76396627D01*
X125078641Y-76220000D01*
X125096037Y-76043373D01*
X125147557Y-75873534D01*
X125147557Y-75873533D01*
X125231221Y-75717011D01*
X125231222Y-75717009D01*
X125260552Y-75681271D01*
X125343814Y-75579814D01*
X125445271Y-75496552D01*
X125481009Y-75467222D01*
X125498913Y-75457652D01*
X125637533Y-75383557D01*
X125712676Y-75360763D01*
X125807373Y-75332037D01*
X125873558Y-75325518D01*
X125939740Y-75319000D01*
X126028260Y-75319000D01*
X126094442Y-75325518D01*
X126094442Y-75325518D01*
G37*
G36*
X115934442Y-75325518D02*
X116000627Y-75332037D01*
X116095324Y-75360763D01*
X116170467Y-75383557D01*
X116309087Y-75457652D01*
X116326991Y-75467222D01*
X116362729Y-75496552D01*
X116464186Y-75579814D01*
X116547448Y-75681271D01*
X116576778Y-75717009D01*
X116576779Y-75717011D01*
X116660443Y-75873533D01*
X116660443Y-75873534D01*
X116711963Y-76043373D01*
X116729359Y-76220000D01*
X116711963Y-76396627D01*
X116677616Y-76509853D01*
X116660443Y-76566467D01*
X116586348Y-76705087D01*
X116576778Y-76722991D01*
X116547448Y-76758729D01*
X116464186Y-76860186D01*
X116362729Y-76943448D01*
X116326991Y-76972778D01*
X116326989Y-76972779D01*
X116170467Y-77056443D01*
X116113853Y-77073616D01*
X116000627Y-77107963D01*
X115934442Y-77114482D01*
X115868260Y-77121000D01*
X115779740Y-77121000D01*
X115713558Y-77114482D01*
X115647373Y-77107963D01*
X115534147Y-77073616D01*
X115477533Y-77056443D01*
X115321011Y-76972779D01*
X115321009Y-76972778D01*
X115285271Y-76943448D01*
X115183814Y-76860186D01*
X115100552Y-76758729D01*
X115071222Y-76722991D01*
X115061652Y-76705087D01*
X114987557Y-76566467D01*
X114970384Y-76509853D01*
X114936037Y-76396627D01*
X114918641Y-76220000D01*
X114936037Y-76043373D01*
X114987557Y-75873534D01*
X114987557Y-75873533D01*
X115071221Y-75717011D01*
X115071222Y-75717009D01*
X115100552Y-75681271D01*
X115183814Y-75579814D01*
X115285271Y-75496552D01*
X115321009Y-75467222D01*
X115338913Y-75457652D01*
X115477533Y-75383557D01*
X115552676Y-75360763D01*
X115647373Y-75332037D01*
X115713558Y-75325518D01*
X115779740Y-75319000D01*
X115868260Y-75319000D01*
X115934442Y-75325518D01*
X115934442Y-75325518D01*
G37*
G36*
X129425000Y-77121000D02*
X127623000Y-77121000D01*
X127623000Y-75319000D01*
X129425000Y-75319000D01*
X129425000Y-77121000D01*
X129425000Y-77121000D01*
G37*
G36*
X113394442Y-75325518D02*
X113460627Y-75332037D01*
X113555324Y-75360763D01*
X113630467Y-75383557D01*
X113769087Y-75457652D01*
X113786991Y-75467222D01*
X113822729Y-75496552D01*
X113924186Y-75579814D01*
X114007448Y-75681271D01*
X114036778Y-75717009D01*
X114036779Y-75717011D01*
X114120443Y-75873533D01*
X114120443Y-75873534D01*
X114171963Y-76043373D01*
X114189359Y-76220000D01*
X114171963Y-76396627D01*
X114137616Y-76509853D01*
X114120443Y-76566467D01*
X114046348Y-76705087D01*
X114036778Y-76722991D01*
X114007448Y-76758729D01*
X113924186Y-76860186D01*
X113822729Y-76943448D01*
X113786991Y-76972778D01*
X113786989Y-76972779D01*
X113630467Y-77056443D01*
X113573853Y-77073616D01*
X113460627Y-77107963D01*
X113394442Y-77114482D01*
X113328260Y-77121000D01*
X113239740Y-77121000D01*
X113173558Y-77114482D01*
X113107373Y-77107963D01*
X112994147Y-77073616D01*
X112937533Y-77056443D01*
X112781011Y-76972779D01*
X112781009Y-76972778D01*
X112745271Y-76943448D01*
X112643814Y-76860186D01*
X112560552Y-76758729D01*
X112531222Y-76722991D01*
X112521652Y-76705087D01*
X112447557Y-76566467D01*
X112430384Y-76509853D01*
X112396037Y-76396627D01*
X112378641Y-76220000D01*
X112396037Y-76043373D01*
X112447557Y-75873534D01*
X112447557Y-75873533D01*
X112531221Y-75717011D01*
X112531222Y-75717009D01*
X112560552Y-75681271D01*
X112643814Y-75579814D01*
X112745271Y-75496552D01*
X112781009Y-75467222D01*
X112798913Y-75457652D01*
X112937533Y-75383557D01*
X113012676Y-75360763D01*
X113107373Y-75332037D01*
X113173558Y-75325518D01*
X113239740Y-75319000D01*
X113328260Y-75319000D01*
X113394442Y-75325518D01*
X113394442Y-75325518D01*
G37*
G36*
X142299642Y-73578318D02*
X142365827Y-73584837D01*
X142479053Y-73619184D01*
X142535667Y-73636357D01*
X142674287Y-73710452D01*
X142692191Y-73720022D01*
X142727929Y-73749352D01*
X142829386Y-73832614D01*
X142912648Y-73934071D01*
X142941978Y-73969809D01*
X142941979Y-73969811D01*
X143025643Y-74126333D01*
X143025643Y-74126334D01*
X143077163Y-74296173D01*
X143094559Y-74472800D01*
X143077163Y-74649427D01*
X143042816Y-74762653D01*
X143025643Y-74819267D01*
X142951548Y-74957887D01*
X142941978Y-74975791D01*
X142912648Y-75011529D01*
X142829386Y-75112986D01*
X142727929Y-75196248D01*
X142692191Y-75225578D01*
X142692189Y-75225579D01*
X142535667Y-75309243D01*
X142479053Y-75326416D01*
X142365827Y-75360763D01*
X142299643Y-75367281D01*
X142233460Y-75373800D01*
X142144940Y-75373800D01*
X142078757Y-75367281D01*
X142012573Y-75360763D01*
X141899347Y-75326416D01*
X141842733Y-75309243D01*
X141686211Y-75225579D01*
X141686209Y-75225578D01*
X141650471Y-75196248D01*
X141549014Y-75112986D01*
X141465752Y-75011529D01*
X141436422Y-74975791D01*
X141426852Y-74957887D01*
X141352757Y-74819267D01*
X141335584Y-74762653D01*
X141301237Y-74649427D01*
X141283841Y-74472800D01*
X141301237Y-74296173D01*
X141352757Y-74126334D01*
X141352757Y-74126333D01*
X141436421Y-73969811D01*
X141436422Y-73969809D01*
X141465752Y-73934071D01*
X141549014Y-73832614D01*
X141650471Y-73749352D01*
X141686209Y-73720022D01*
X141704113Y-73710452D01*
X141842733Y-73636357D01*
X141899347Y-73619184D01*
X142012573Y-73584837D01*
X142078758Y-73578318D01*
X142144940Y-73571800D01*
X142233460Y-73571800D01*
X142299642Y-73578318D01*
X142299642Y-73578318D01*
G37*
G36*
X142299643Y-71038319D02*
X142365827Y-71044837D01*
X142479053Y-71079184D01*
X142535667Y-71096357D01*
X142674287Y-71170452D01*
X142692191Y-71180022D01*
X142721315Y-71203924D01*
X142829386Y-71292614D01*
X142895794Y-71373534D01*
X142941978Y-71429809D01*
X142941979Y-71429811D01*
X143025643Y-71586333D01*
X143025643Y-71586334D01*
X143077163Y-71756173D01*
X143094559Y-71932800D01*
X143077163Y-72109427D01*
X143042816Y-72222653D01*
X143025643Y-72279267D01*
X142958777Y-72404363D01*
X142941978Y-72435791D01*
X142912648Y-72471529D01*
X142829386Y-72572986D01*
X142727929Y-72656248D01*
X142692191Y-72685578D01*
X142692189Y-72685579D01*
X142535667Y-72769243D01*
X142479053Y-72786416D01*
X142365827Y-72820763D01*
X142299643Y-72827281D01*
X142233460Y-72833800D01*
X142144940Y-72833800D01*
X142078757Y-72827281D01*
X142012573Y-72820763D01*
X141899347Y-72786416D01*
X141842733Y-72769243D01*
X141686211Y-72685579D01*
X141686209Y-72685578D01*
X141650471Y-72656248D01*
X141549014Y-72572986D01*
X141465752Y-72471529D01*
X141436422Y-72435791D01*
X141419623Y-72404363D01*
X141352757Y-72279267D01*
X141335584Y-72222653D01*
X141301237Y-72109427D01*
X141283841Y-71932800D01*
X141301237Y-71756173D01*
X141352757Y-71586334D01*
X141352757Y-71586333D01*
X141436421Y-71429811D01*
X141436422Y-71429809D01*
X141482606Y-71373534D01*
X141549014Y-71292614D01*
X141657085Y-71203924D01*
X141686209Y-71180022D01*
X141704113Y-71170452D01*
X141842733Y-71096357D01*
X141899347Y-71079184D01*
X142012573Y-71044837D01*
X142078757Y-71038319D01*
X142144940Y-71031800D01*
X142233460Y-71031800D01*
X142299643Y-71038319D01*
X142299643Y-71038319D01*
G37*
G36*
X107692565Y-70577389D02*
X107883834Y-70656615D01*
X108055976Y-70771637D01*
X108202363Y-70918024D01*
X108317385Y-71090166D01*
X108396611Y-71281435D01*
X108437000Y-71484484D01*
X108437000Y-71691516D01*
X108396611Y-71894565D01*
X108317385Y-72085834D01*
X108202363Y-72257976D01*
X108055976Y-72404363D01*
X107883834Y-72519385D01*
X107692565Y-72598611D01*
X107489516Y-72639000D01*
X107282484Y-72639000D01*
X107079435Y-72598611D01*
X106888166Y-72519385D01*
X106716024Y-72404363D01*
X106569637Y-72257976D01*
X106454615Y-72085834D01*
X106375389Y-71894565D01*
X106335000Y-71691516D01*
X106335000Y-71484484D01*
X106375389Y-71281435D01*
X106454615Y-71090166D01*
X106569637Y-70918024D01*
X106716024Y-70771637D01*
X106888166Y-70656615D01*
X107079435Y-70577389D01*
X107282484Y-70537000D01*
X107489516Y-70537000D01*
X107692565Y-70577389D01*
X107692565Y-70577389D01*
G37*
G36*
X100692565Y-70577389D02*
X100883834Y-70656615D01*
X101055976Y-70771637D01*
X101202363Y-70918024D01*
X101317385Y-71090166D01*
X101396611Y-71281435D01*
X101437000Y-71484484D01*
X101437000Y-71691516D01*
X101396611Y-71894565D01*
X101317385Y-72085834D01*
X101202363Y-72257976D01*
X101055976Y-72404363D01*
X100883834Y-72519385D01*
X100692565Y-72598611D01*
X100489516Y-72639000D01*
X100282484Y-72639000D01*
X100079435Y-72598611D01*
X99888166Y-72519385D01*
X99716024Y-72404363D01*
X99569637Y-72257976D01*
X99454615Y-72085834D01*
X99375389Y-71894565D01*
X99335000Y-71691516D01*
X99335000Y-71484484D01*
X99375389Y-71281435D01*
X99454615Y-71090166D01*
X99569637Y-70918024D01*
X99716024Y-70771637D01*
X99888166Y-70656615D01*
X100079435Y-70577389D01*
X100282484Y-70537000D01*
X100489516Y-70537000D01*
X100692565Y-70577389D01*
X100692565Y-70577389D01*
G37*
G36*
X96666301Y-67046466D02*
X96835910Y-67116720D01*
X97075774Y-67216075D01*
X97075775Y-67216076D01*
X97444292Y-67462311D01*
X97757689Y-67775708D01*
X97921846Y-68021386D01*
X98003925Y-68144226D01*
X98064117Y-68289544D01*
X98173534Y-68553699D01*
X98260000Y-68988394D01*
X98260000Y-69431606D01*
X98173534Y-69866301D01*
X98137052Y-69954375D01*
X98003925Y-70275774D01*
X98003924Y-70275775D01*
X97757689Y-70644292D01*
X97444292Y-70957689D01*
X97198614Y-71121846D01*
X97075774Y-71203925D01*
X96835910Y-71303280D01*
X96666301Y-71373534D01*
X96448953Y-71416767D01*
X96231607Y-71460000D01*
X95788393Y-71460000D01*
X95571047Y-71416767D01*
X95353699Y-71373534D01*
X95184090Y-71303280D01*
X94944226Y-71203925D01*
X94821386Y-71121846D01*
X94575708Y-70957689D01*
X94262311Y-70644292D01*
X94016076Y-70275775D01*
X94016075Y-70275774D01*
X93882948Y-69954375D01*
X93846466Y-69866301D01*
X93760000Y-69431606D01*
X93760000Y-68988394D01*
X93846466Y-68553699D01*
X93955883Y-68289544D01*
X94016075Y-68144226D01*
X94098154Y-68021386D01*
X94262311Y-67775708D01*
X94575708Y-67462311D01*
X94944225Y-67216076D01*
X94944226Y-67216075D01*
X95184090Y-67116720D01*
X95353699Y-67046466D01*
X95788393Y-66960000D01*
X96231607Y-66960000D01*
X96666301Y-67046466D01*
X96666301Y-67046466D01*
G37*
G36*
X171866301Y-67046466D02*
X172035910Y-67116720D01*
X172275774Y-67216075D01*
X172275775Y-67216076D01*
X172644292Y-67462311D01*
X172957689Y-67775708D01*
X173121846Y-68021386D01*
X173203925Y-68144226D01*
X173264117Y-68289544D01*
X173373534Y-68553699D01*
X173460000Y-68988394D01*
X173460000Y-69431606D01*
X173373534Y-69866301D01*
X173337052Y-69954375D01*
X173203925Y-70275774D01*
X173203924Y-70275775D01*
X172957689Y-70644292D01*
X172644292Y-70957689D01*
X172398614Y-71121846D01*
X172275774Y-71203925D01*
X172035910Y-71303280D01*
X171866301Y-71373534D01*
X171648953Y-71416767D01*
X171431607Y-71460000D01*
X170988393Y-71460000D01*
X170771047Y-71416767D01*
X170553699Y-71373534D01*
X170384090Y-71303280D01*
X170144226Y-71203925D01*
X170021386Y-71121846D01*
X169775708Y-70957689D01*
X169462311Y-70644292D01*
X169216076Y-70275775D01*
X169216075Y-70275774D01*
X169082948Y-69954375D01*
X169046466Y-69866301D01*
X168960000Y-69431606D01*
X168960000Y-68988394D01*
X169046466Y-68553699D01*
X169155883Y-68289544D01*
X169216075Y-68144226D01*
X169298154Y-68021386D01*
X169462311Y-67775708D01*
X169775708Y-67462311D01*
X170144225Y-67216076D01*
X170144226Y-67216075D01*
X170384090Y-67116720D01*
X170553699Y-67046466D01*
X170988393Y-66960000D01*
X171431607Y-66960000D01*
X171866301Y-67046466D01*
X171866301Y-67046466D01*
G37*
G36*
X143090200Y-70293800D02*
X141288200Y-70293800D01*
X141288200Y-68491800D01*
X143090200Y-68491800D01*
X143090200Y-70293800D01*
X143090200Y-70293800D01*
G37*
G36*
X101898812Y-68221624D02*
X102062784Y-68289544D01*
X102210354Y-68388147D01*
X102335853Y-68513646D01*
X102434456Y-68661216D01*
X102502376Y-68825188D01*
X102537000Y-68999259D01*
X102537000Y-69176741D01*
X102502376Y-69350812D01*
X102434456Y-69514784D01*
X102335853Y-69662354D01*
X102210354Y-69787853D01*
X102062784Y-69886456D01*
X101898812Y-69954376D01*
X101724741Y-69989000D01*
X101547259Y-69989000D01*
X101373188Y-69954376D01*
X101209216Y-69886456D01*
X101061646Y-69787853D01*
X100936147Y-69662354D01*
X100837544Y-69514784D01*
X100769624Y-69350812D01*
X100735000Y-69176741D01*
X100735000Y-68999259D01*
X100769624Y-68825188D01*
X100837544Y-68661216D01*
X100936147Y-68513646D01*
X101061646Y-68388147D01*
X101209216Y-68289544D01*
X101373188Y-68221624D01*
X101547259Y-68187000D01*
X101724741Y-68187000D01*
X101898812Y-68221624D01*
X101898812Y-68221624D01*
G37*
G36*
X106398812Y-68221624D02*
X106562784Y-68289544D01*
X106710354Y-68388147D01*
X106835853Y-68513646D01*
X106934456Y-68661216D01*
X107002376Y-68825188D01*
X107037000Y-68999259D01*
X107037000Y-69176741D01*
X107002376Y-69350812D01*
X106934456Y-69514784D01*
X106835853Y-69662354D01*
X106710354Y-69787853D01*
X106562784Y-69886456D01*
X106398812Y-69954376D01*
X106224741Y-69989000D01*
X106047259Y-69989000D01*
X105873188Y-69954376D01*
X105709216Y-69886456D01*
X105561646Y-69787853D01*
X105436147Y-69662354D01*
X105337544Y-69514784D01*
X105269624Y-69350812D01*
X105235000Y-69176741D01*
X105235000Y-68999259D01*
X105269624Y-68825188D01*
X105337544Y-68661216D01*
X105436147Y-68513646D01*
X105561646Y-68388147D01*
X105709216Y-68289544D01*
X105873188Y-68221624D01*
X106047259Y-68187000D01*
X106224741Y-68187000D01*
X106398812Y-68221624D01*
X106398812Y-68221624D01*
G37*
M02*
