G04 #@! TF.GenerationSoftware,KiCad,Pcbnew,5.0.2-bee76a0~70~ubuntu18.04.1*
G04 #@! TF.CreationDate,2019-02-28T13:46:31+03:00*
G04 #@! TF.ProjectId,sensor-node,73656e73-6f72-42d6-9e6f-64652e6b6963,1*
G04 #@! TF.SameCoordinates,Original*
G04 #@! TF.FileFunction,Legend,Bot*
G04 #@! TF.FilePolarity,Positive*
%FSLAX46Y46*%
G04 Gerber Fmt 4.6, Leading zero omitted, Abs format (unit mm)*
G04 Created by KiCad (PCBNEW 5.0.2-bee76a0~70~ubuntu18.04.1) date Thu 28 Feb 2019 13:46:31 EAT*
%MOMM*%
%LPD*%
G01*
G04 APERTURE LIST*
%ADD10C,0.200000*%
%ADD11C,0.010000*%
%ADD12C,0.120000*%
%ADD13C,0.150000*%
G04 APERTURE END LIST*
D10*
X171633202Y-153377900D02*
G75*
G03X171633202Y-153377900I-361002J0D01*
G01*
X148528269Y-153035000D02*
G75*
G03X148528269Y-153035000I-547869J0D01*
G01*
X145986501Y-137414000D02*
G75*
G03X145986501Y-137414000I-568671J0D01*
G01*
X119654434Y-80187800D02*
G75*
G03X119654434Y-80187800I-452234J0D01*
G01*
X131442360Y-143522700D02*
G75*
G03X131442360Y-143522700I-518060J0D01*
G01*
X141863852Y-147142200D02*
G75*
G03X141863852Y-147142200I-550952J0D01*
G01*
D11*
G04 #@! TO.C,LOGO2*
G36*
X160224661Y-75491164D02*
X160169153Y-75117963D01*
X160065364Y-74790747D01*
X159899703Y-74430805D01*
X159831964Y-74296949D01*
X159353318Y-73549226D01*
X158770701Y-73022250D01*
X158029327Y-72677820D01*
X157260841Y-72504243D01*
X156436052Y-72439408D01*
X155557909Y-72473555D01*
X154743480Y-72597176D01*
X154224567Y-72750866D01*
X154051704Y-72771165D01*
X153984702Y-72602147D01*
X153977622Y-72410741D01*
X153966359Y-72177674D01*
X153901093Y-72040510D01*
X153734614Y-71995062D01*
X153419710Y-72037147D01*
X152909170Y-72162578D01*
X152481857Y-72278134D01*
X151338870Y-72590168D01*
X151247910Y-75001260D01*
X151216123Y-76003124D01*
X151211040Y-76775982D01*
X151239744Y-77372369D01*
X151309320Y-77844818D01*
X151426853Y-78245863D01*
X151599427Y-78628039D01*
X151780945Y-78953907D01*
X152314519Y-79603262D01*
X153081564Y-80161087D01*
X154043040Y-80609245D01*
X155159906Y-80929597D01*
X156269873Y-81086573D01*
X156269873Y-78215349D01*
X155556240Y-78134224D01*
X155408254Y-78089113D01*
X154629618Y-77753293D01*
X154110983Y-77357128D01*
X153860142Y-76907464D01*
X153836511Y-76707984D01*
X153910246Y-76287079D01*
X154083456Y-75949066D01*
X154418788Y-75700395D01*
X154932836Y-75471833D01*
X155522548Y-75299535D01*
X156084873Y-75219656D01*
X156167550Y-75217866D01*
X156712933Y-75342570D01*
X157160308Y-75672456D01*
X157476794Y-76141186D01*
X157629512Y-76682421D01*
X157585581Y-77229824D01*
X157371632Y-77647172D01*
X156885560Y-78050622D01*
X156269873Y-78215349D01*
X156269873Y-81086573D01*
X156393120Y-81104004D01*
X156411789Y-81105379D01*
X157505400Y-81184861D01*
X157502301Y-82681641D01*
X157464176Y-83664797D01*
X157345319Y-84421726D01*
X157132099Y-85000328D01*
X156810886Y-85448506D01*
X156678663Y-85576126D01*
X156376511Y-85844941D01*
X156376511Y-85188070D01*
X156387726Y-84789032D01*
X156453748Y-84596783D01*
X156623147Y-84535961D01*
X156799845Y-84531200D01*
X157223178Y-84531200D01*
X157223178Y-81567866D01*
X151296511Y-81567866D01*
X151296511Y-84531200D01*
X153695400Y-84531200D01*
X153695400Y-86397053D01*
X153166234Y-86299011D01*
X152717279Y-86173897D01*
X152190991Y-85970303D01*
X151967066Y-85865936D01*
X151297065Y-85530902D01*
X150586634Y-86583715D01*
X150259476Y-87078286D01*
X149991679Y-87501175D01*
X149824878Y-87785885D01*
X149795036Y-87848048D01*
X149832039Y-88007376D01*
X150077462Y-88201655D01*
X150560869Y-88453680D01*
X150611023Y-88477167D01*
X151932915Y-88975472D01*
X153257967Y-89255848D01*
X154554697Y-89325526D01*
X155791624Y-89191734D01*
X156937266Y-88861703D01*
X157960141Y-88342663D01*
X158828768Y-87641843D01*
X159511665Y-86766473D01*
X159717738Y-86385803D01*
X159873807Y-86039837D01*
X159983745Y-85716012D01*
X160057749Y-85350176D01*
X160106016Y-84878173D01*
X160138745Y-84235851D01*
X160159068Y-83609260D01*
X160216315Y-81628986D01*
X159037246Y-81337171D01*
X158474630Y-81195196D01*
X158152060Y-81098865D01*
X158035326Y-81027252D01*
X158090218Y-80959429D01*
X158281511Y-80874876D01*
X158879755Y-80510349D01*
X159431804Y-79955355D01*
X159857129Y-79299554D01*
X159995537Y-78966593D01*
X160143237Y-78312843D01*
X160225423Y-77425414D01*
X160245188Y-76690372D01*
X160245476Y-75989063D01*
X160224661Y-75491164D01*
X160224661Y-75491164D01*
G37*
X160224661Y-75491164D02*
X160169153Y-75117963D01*
X160065364Y-74790747D01*
X159899703Y-74430805D01*
X159831964Y-74296949D01*
X159353318Y-73549226D01*
X158770701Y-73022250D01*
X158029327Y-72677820D01*
X157260841Y-72504243D01*
X156436052Y-72439408D01*
X155557909Y-72473555D01*
X154743480Y-72597176D01*
X154224567Y-72750866D01*
X154051704Y-72771165D01*
X153984702Y-72602147D01*
X153977622Y-72410741D01*
X153966359Y-72177674D01*
X153901093Y-72040510D01*
X153734614Y-71995062D01*
X153419710Y-72037147D01*
X152909170Y-72162578D01*
X152481857Y-72278134D01*
X151338870Y-72590168D01*
X151247910Y-75001260D01*
X151216123Y-76003124D01*
X151211040Y-76775982D01*
X151239744Y-77372369D01*
X151309320Y-77844818D01*
X151426853Y-78245863D01*
X151599427Y-78628039D01*
X151780945Y-78953907D01*
X152314519Y-79603262D01*
X153081564Y-80161087D01*
X154043040Y-80609245D01*
X155159906Y-80929597D01*
X156269873Y-81086573D01*
X156269873Y-78215349D01*
X155556240Y-78134224D01*
X155408254Y-78089113D01*
X154629618Y-77753293D01*
X154110983Y-77357128D01*
X153860142Y-76907464D01*
X153836511Y-76707984D01*
X153910246Y-76287079D01*
X154083456Y-75949066D01*
X154418788Y-75700395D01*
X154932836Y-75471833D01*
X155522548Y-75299535D01*
X156084873Y-75219656D01*
X156167550Y-75217866D01*
X156712933Y-75342570D01*
X157160308Y-75672456D01*
X157476794Y-76141186D01*
X157629512Y-76682421D01*
X157585581Y-77229824D01*
X157371632Y-77647172D01*
X156885560Y-78050622D01*
X156269873Y-78215349D01*
X156269873Y-81086573D01*
X156393120Y-81104004D01*
X156411789Y-81105379D01*
X157505400Y-81184861D01*
X157502301Y-82681641D01*
X157464176Y-83664797D01*
X157345319Y-84421726D01*
X157132099Y-85000328D01*
X156810886Y-85448506D01*
X156678663Y-85576126D01*
X156376511Y-85844941D01*
X156376511Y-85188070D01*
X156387726Y-84789032D01*
X156453748Y-84596783D01*
X156623147Y-84535961D01*
X156799845Y-84531200D01*
X157223178Y-84531200D01*
X157223178Y-81567866D01*
X151296511Y-81567866D01*
X151296511Y-84531200D01*
X153695400Y-84531200D01*
X153695400Y-86397053D01*
X153166234Y-86299011D01*
X152717279Y-86173897D01*
X152190991Y-85970303D01*
X151967066Y-85865936D01*
X151297065Y-85530902D01*
X150586634Y-86583715D01*
X150259476Y-87078286D01*
X149991679Y-87501175D01*
X149824878Y-87785885D01*
X149795036Y-87848048D01*
X149832039Y-88007376D01*
X150077462Y-88201655D01*
X150560869Y-88453680D01*
X150611023Y-88477167D01*
X151932915Y-88975472D01*
X153257967Y-89255848D01*
X154554697Y-89325526D01*
X155791624Y-89191734D01*
X156937266Y-88861703D01*
X157960141Y-88342663D01*
X158828768Y-87641843D01*
X159511665Y-86766473D01*
X159717738Y-86385803D01*
X159873807Y-86039837D01*
X159983745Y-85716012D01*
X160057749Y-85350176D01*
X160106016Y-84878173D01*
X160138745Y-84235851D01*
X160159068Y-83609260D01*
X160216315Y-81628986D01*
X159037246Y-81337171D01*
X158474630Y-81195196D01*
X158152060Y-81098865D01*
X158035326Y-81027252D01*
X158090218Y-80959429D01*
X158281511Y-80874876D01*
X158879755Y-80510349D01*
X159431804Y-79955355D01*
X159857129Y-79299554D01*
X159995537Y-78966593D01*
X160143237Y-78312843D01*
X160225423Y-77425414D01*
X160245188Y-76690372D01*
X160245476Y-75989063D01*
X160224661Y-75491164D01*
G04 #@! TO.C,LOGO1*
G36*
X168174738Y-99923391D02*
X167991655Y-99639599D01*
X167794167Y-99444125D01*
X167524697Y-99168165D01*
X167402239Y-98862670D01*
X167373156Y-98446801D01*
X167305723Y-97943310D01*
X167135962Y-97530279D01*
X166901361Y-97268081D01*
X166639407Y-97217090D01*
X166614711Y-97225328D01*
X166423385Y-97378417D01*
X166503718Y-97586919D01*
X166753184Y-97787087D01*
X166776317Y-97810588D01*
X166776317Y-97545387D01*
X166693802Y-97526335D01*
X166683785Y-97452855D01*
X166734569Y-97338609D01*
X166776317Y-97360324D01*
X166792928Y-97525044D01*
X166776317Y-97545387D01*
X166776317Y-97810588D01*
X166965570Y-98002854D01*
X167090514Y-98265280D01*
X167100493Y-98482443D01*
X166985575Y-98563238D01*
X166729010Y-98440106D01*
X166489429Y-98128901D01*
X166318986Y-97716907D01*
X166267391Y-97361323D01*
X166186488Y-96840198D01*
X165989796Y-96550670D01*
X165853262Y-96437530D01*
X165770962Y-96431628D01*
X165729170Y-96576512D01*
X165714158Y-96915730D01*
X165712200Y-97431344D01*
X165712200Y-98563238D01*
X164636517Y-98568109D01*
X163560834Y-98572979D01*
X162590284Y-99470294D01*
X162120713Y-99893917D01*
X161785934Y-100157427D01*
X161523922Y-100296476D01*
X161272654Y-100346717D01*
X161063508Y-100347913D01*
X160507282Y-100328217D01*
X160999600Y-100243815D01*
X161415807Y-100120154D01*
X161800329Y-99921121D01*
X161918393Y-99827029D01*
X161918393Y-99627355D01*
X161835878Y-99608302D01*
X161825861Y-99534823D01*
X161876645Y-99420576D01*
X161918393Y-99442291D01*
X161935005Y-99607011D01*
X161918393Y-99627355D01*
X161918393Y-99827029D01*
X162085208Y-99694083D01*
X162202485Y-99486407D01*
X162185827Y-99417013D01*
X161967836Y-99265457D01*
X161710596Y-99340542D01*
X161548266Y-99534823D01*
X161280491Y-99765568D01*
X161031622Y-99812418D01*
X160663543Y-99812418D01*
X161062473Y-99396025D01*
X161421340Y-99100427D01*
X161817237Y-98988227D01*
X162032266Y-98979631D01*
X162496796Y-98922345D01*
X162821289Y-98771493D01*
X162936475Y-98570178D01*
X162808931Y-98534221D01*
X162470537Y-98507375D01*
X161988004Y-98494373D01*
X161860792Y-98493839D01*
X160784878Y-98493839D01*
X160829522Y-97452855D01*
X160874166Y-96411872D01*
X159892637Y-95444010D01*
X159435624Y-94982499D01*
X159146326Y-94651163D01*
X158987454Y-94393004D01*
X158921720Y-94151026D01*
X158911107Y-93943742D01*
X158939270Y-93626349D01*
X159009541Y-93484921D01*
X159036875Y-93489065D01*
X159110332Y-93669155D01*
X159093230Y-93832228D01*
X159127826Y-94108714D01*
X159297016Y-94452336D01*
X159534429Y-94763269D01*
X159773695Y-94941690D01*
X159836426Y-94953916D01*
X159836426Y-94769431D01*
X159753911Y-94750378D01*
X159743894Y-94676899D01*
X159794678Y-94562653D01*
X159836426Y-94584367D01*
X159853037Y-94749088D01*
X159836426Y-94769431D01*
X159836426Y-94953916D01*
X159839395Y-94954495D01*
X159996951Y-94859854D01*
X160002655Y-94642094D01*
X159870828Y-94400459D01*
X159743894Y-94292717D01*
X159574913Y-94104735D01*
X159470205Y-93850662D01*
X159459318Y-93636960D01*
X159542355Y-93566517D01*
X159751851Y-93684984D01*
X159982025Y-93979682D01*
X160178611Y-94359555D01*
X160287340Y-94733545D01*
X160294699Y-94828884D01*
X160397455Y-95328410D01*
X160576681Y-95579085D01*
X160713215Y-95692225D01*
X160795515Y-95698127D01*
X160837307Y-95553243D01*
X160852319Y-95214024D01*
X160854277Y-94698411D01*
X160854277Y-93566517D01*
X163013662Y-93566517D01*
X163907829Y-92664331D01*
X164345376Y-92233452D01*
X164656514Y-91967997D01*
X164903723Y-91829964D01*
X165149483Y-91781357D01*
X165361196Y-91780417D01*
X165693934Y-91795526D01*
X165767359Y-91819103D01*
X165599713Y-91864446D01*
X165504003Y-91884515D01*
X165125394Y-92010735D01*
X164744455Y-92209774D01*
X164448383Y-92427624D01*
X164324375Y-92610278D01*
X164324222Y-92615251D01*
X164422942Y-92792784D01*
X164647738Y-92819956D01*
X164671217Y-92808127D01*
X164671217Y-92733730D01*
X164601818Y-92664331D01*
X164671217Y-92594932D01*
X164740616Y-92664331D01*
X164671217Y-92733730D01*
X164671217Y-92808127D01*
X164891560Y-92697112D01*
X164965534Y-92613178D01*
X165286380Y-92368149D01*
X165541330Y-92317336D01*
X165909911Y-92317336D01*
X165429362Y-92728089D01*
X164916384Y-93053457D01*
X164445315Y-93144482D01*
X164061813Y-93202639D01*
X163788867Y-93337434D01*
X163769031Y-93358320D01*
X163713248Y-93463687D01*
X163791845Y-93526454D01*
X164049623Y-93557158D01*
X164531384Y-93566336D01*
X164654222Y-93566517D01*
X165712200Y-93566517D01*
X165715138Y-95717883D01*
X166685686Y-96758866D01*
X167124198Y-97236085D01*
X167403980Y-97572618D01*
X167558507Y-97828071D01*
X167621255Y-98062050D01*
X167625699Y-98334160D01*
X167621102Y-98424440D01*
X167621508Y-98828060D01*
X167692762Y-99015866D01*
X167794167Y-99049030D01*
X167794167Y-98840834D01*
X167679921Y-98790050D01*
X167701636Y-98748302D01*
X167866356Y-98731690D01*
X167886699Y-98748302D01*
X167867647Y-98830817D01*
X167794167Y-98840834D01*
X167794167Y-99049030D01*
X167914028Y-98992308D01*
X167964336Y-98783914D01*
X167957057Y-98366508D01*
X167952320Y-98291100D01*
X167913031Y-97904831D01*
X167828065Y-97601986D01*
X167656864Y-97304786D01*
X167358872Y-96935449D01*
X167084834Y-96627453D01*
X166691081Y-96181958D01*
X166449602Y-95863717D01*
X166323258Y-95597046D01*
X166274911Y-95306266D01*
X166267391Y-94961639D01*
X166267391Y-94201542D01*
X166961381Y-94885096D01*
X167307487Y-95255405D01*
X167554536Y-95575943D01*
X167650376Y-95778818D01*
X167650378Y-95782064D01*
X167581314Y-95850045D01*
X167383509Y-95672849D01*
X167318760Y-95596090D01*
X167070327Y-95360287D01*
X166868478Y-95281659D01*
X166837959Y-95291986D01*
X166699680Y-95451005D01*
X166763410Y-95664667D01*
X166891982Y-95804800D01*
X166891982Y-95648484D01*
X166822583Y-95579085D01*
X166891982Y-95509686D01*
X166961381Y-95579085D01*
X166891982Y-95648484D01*
X166891982Y-95804800D01*
X167045095Y-95971681D01*
X167160798Y-96075788D01*
X167462629Y-96397410D01*
X167654109Y-96707737D01*
X167681290Y-96800236D01*
X167795872Y-97041002D01*
X167863566Y-97073028D01*
X167863566Y-96897664D01*
X167794167Y-96828265D01*
X167863566Y-96758866D01*
X167932965Y-96828265D01*
X167863566Y-96897664D01*
X167863566Y-97073028D01*
X167932965Y-97105861D01*
X168048886Y-97052094D01*
X168101624Y-96853454D01*
X168101917Y-96453931D01*
X168092605Y-96273074D01*
X168042166Y-95794324D01*
X167961783Y-95415330D01*
X167891499Y-95254002D01*
X167817684Y-95015146D01*
X167777794Y-94550470D01*
X167775827Y-93910130D01*
X167778090Y-93831393D01*
X167792443Y-93217159D01*
X167769144Y-92825698D01*
X167679299Y-92602322D01*
X167494013Y-92492347D01*
X167184392Y-92441088D01*
X167035713Y-92426359D01*
X166711681Y-92448266D01*
X166577362Y-92616453D01*
X166574443Y-92629631D01*
X166600869Y-92803973D01*
X166776317Y-92856079D01*
X166776317Y-92687464D01*
X166693802Y-92668411D01*
X166683785Y-92594932D01*
X166734569Y-92480686D01*
X166776317Y-92502400D01*
X166792928Y-92667121D01*
X166776317Y-92687464D01*
X166776317Y-92856079D01*
X166818823Y-92868703D01*
X166951203Y-92872528D01*
X167377774Y-92872528D01*
X167377774Y-94733237D01*
X166822583Y-94191107D01*
X166514029Y-93847459D01*
X166312448Y-93541705D01*
X166267391Y-93399550D01*
X166177346Y-93205984D01*
X165885697Y-93148951D01*
X165722593Y-93136002D01*
X165674545Y-93075256D01*
X165763560Y-92931904D01*
X165989796Y-92694101D01*
X165989796Y-91623347D01*
X165875550Y-91572563D01*
X165897264Y-91530815D01*
X166061985Y-91514204D01*
X166082328Y-91530815D01*
X166063275Y-91613331D01*
X165989796Y-91623347D01*
X165989796Y-92694101D01*
X166011643Y-92671136D01*
X166440802Y-92258139D01*
X166460916Y-92239034D01*
X166925943Y-91779450D01*
X167192710Y-91467299D01*
X167192710Y-91438283D01*
X167110195Y-91419231D01*
X167100178Y-91345752D01*
X167150962Y-91231505D01*
X167192710Y-91253220D01*
X167209322Y-91417940D01*
X167192710Y-91438283D01*
X167192710Y-91467299D01*
X167195379Y-91464175D01*
X167290730Y-91264522D01*
X167260306Y-91172765D01*
X167103449Y-91126303D01*
X166877727Y-91279913D01*
X166707406Y-91458092D01*
X166418906Y-91732926D01*
X166173579Y-91886795D01*
X166116213Y-91898817D01*
X165990602Y-91875194D01*
X166112049Y-91775340D01*
X166114119Y-91774028D01*
X166243078Y-91563937D01*
X166229959Y-91448405D01*
X166109059Y-91329301D01*
X165830343Y-91289186D01*
X165411647Y-91310681D01*
X165043783Y-91356129D01*
X164754934Y-91444123D01*
X164473729Y-91616097D01*
X164128792Y-91913486D01*
X163757565Y-92270941D01*
X163322803Y-92691000D01*
X163017807Y-92951828D01*
X162774773Y-93089197D01*
X162525900Y-93138880D01*
X162203384Y-93136649D01*
X162123442Y-93133092D01*
X161727376Y-93100660D01*
X161482627Y-93052609D01*
X161440919Y-93018389D01*
X161588935Y-92833681D01*
X161878227Y-92553721D01*
X162240785Y-92235858D01*
X162608595Y-91937440D01*
X162913647Y-91715815D01*
X163087929Y-91628331D01*
X163089436Y-91628339D01*
X163125153Y-91703904D01*
X162963409Y-91891421D01*
X162881510Y-91961823D01*
X162603096Y-92259496D01*
X162566741Y-92514969D01*
X162573909Y-92535607D01*
X162652848Y-92651044D01*
X162728047Y-92634992D01*
X162728047Y-92456134D01*
X162658648Y-92386735D01*
X162728047Y-92317336D01*
X162797446Y-92386735D01*
X162728047Y-92456134D01*
X162728047Y-92634992D01*
X162786612Y-92622489D01*
X163027261Y-92426131D01*
X163223582Y-92238424D01*
X163572489Y-91936841D01*
X163877944Y-91739172D01*
X164016976Y-91694347D01*
X164046626Y-91677233D01*
X164046626Y-91484549D01*
X163932380Y-91433765D01*
X163954095Y-91392018D01*
X164118815Y-91375406D01*
X164139158Y-91392018D01*
X164120106Y-91474533D01*
X164046626Y-91484549D01*
X164046626Y-91677233D01*
X164216962Y-91578910D01*
X164254823Y-91415151D01*
X164226485Y-91257399D01*
X164097295Y-91182259D01*
X163800990Y-91169809D01*
X163491435Y-91185642D01*
X163022851Y-91246854D01*
X162647620Y-91351750D01*
X162508921Y-91428538D01*
X162279266Y-91532973D01*
X161852107Y-91596051D01*
X161193098Y-91622100D01*
X160962631Y-91623347D01*
X159635467Y-91623347D01*
X159578100Y-92114733D01*
X159580859Y-92478404D01*
X159663306Y-92721448D01*
X159679784Y-92738119D01*
X159813293Y-92781995D01*
X159813293Y-92594932D01*
X159743894Y-92525533D01*
X159813293Y-92456134D01*
X159882692Y-92525533D01*
X159813293Y-92594932D01*
X159813293Y-92781995D01*
X159878165Y-92803315D01*
X159993550Y-92610599D01*
X160021490Y-92290524D01*
X160021490Y-91893584D01*
X160922577Y-91931963D01*
X161381965Y-91964634D01*
X161706972Y-92012759D01*
X161824762Y-92063625D01*
X161720373Y-92234727D01*
X161458877Y-92480454D01*
X161121792Y-92740020D01*
X160790638Y-92952640D01*
X160546933Y-93057530D01*
X160493546Y-93056247D01*
X160345628Y-93087017D01*
X160299102Y-93354512D01*
X160299085Y-93362303D01*
X160286333Y-93525916D01*
X160224914Y-93571799D01*
X160080088Y-93477763D01*
X159817116Y-93221617D01*
X159418956Y-92800138D01*
X158974076Y-92351747D01*
X158627682Y-92059581D01*
X158412290Y-91949984D01*
X158377973Y-91956710D01*
X158227506Y-92142467D01*
X158339762Y-92363365D01*
X158564113Y-92537611D01*
X158564113Y-92317336D01*
X158494714Y-92247937D01*
X158564113Y-92178539D01*
X158633512Y-92247937D01*
X158564113Y-92317336D01*
X158564113Y-92537611D01*
X158569749Y-92541989D01*
X158883930Y-92811327D01*
X159078265Y-93065681D01*
X159171757Y-93263738D01*
X159106756Y-93250227D01*
X159009310Y-93172874D01*
X158755616Y-93050444D01*
X158589362Y-93179937D01*
X158506375Y-93567174D01*
X158494714Y-93891013D01*
X158503532Y-94241901D01*
X158555425Y-94506212D01*
X158688550Y-94752408D01*
X158702911Y-94769272D01*
X158702911Y-93427719D01*
X158633512Y-93358320D01*
X158702911Y-93288921D01*
X158772310Y-93358320D01*
X158702911Y-93427719D01*
X158702911Y-94769272D01*
X158941066Y-95048952D01*
X159351130Y-95464304D01*
X159396900Y-95509686D01*
X159822728Y-95938629D01*
X160087757Y-96242631D01*
X160230088Y-96490395D01*
X160287819Y-96750626D01*
X160299053Y-97092028D01*
X160299085Y-97136551D01*
X160281365Y-97541665D01*
X160235808Y-97801127D01*
X160194987Y-97854277D01*
X160031790Y-97746451D01*
X159772222Y-97492922D01*
X159469314Y-97156611D01*
X159176097Y-96800442D01*
X158945603Y-96487337D01*
X158830864Y-96280220D01*
X158832149Y-96237242D01*
X158974419Y-96266970D01*
X159199448Y-96468520D01*
X159266453Y-96547820D01*
X159507532Y-96806593D01*
X159605096Y-96834514D01*
X159605096Y-96620069D01*
X159490850Y-96569285D01*
X159512565Y-96527537D01*
X159677285Y-96510925D01*
X159697628Y-96527537D01*
X159678576Y-96610052D01*
X159605096Y-96620069D01*
X159605096Y-96834514D01*
X159674039Y-96854245D01*
X159767771Y-96790509D01*
X159827513Y-96647750D01*
X159730958Y-96442069D01*
X159451006Y-96120787D01*
X159391768Y-96059622D01*
X159088853Y-95709670D01*
X158889566Y-95403298D01*
X158843309Y-95261741D01*
X158742717Y-95059310D01*
X158633512Y-95023894D01*
X158513610Y-95084525D01*
X158454425Y-95302585D01*
X158443387Y-95732319D01*
X158445517Y-95835243D01*
X158481286Y-96301030D01*
X158552668Y-96659745D01*
X158564113Y-96683920D01*
X158564113Y-95370888D01*
X158494714Y-95301489D01*
X158564113Y-95232090D01*
X158633512Y-95301489D01*
X158564113Y-95370888D01*
X158564113Y-96683920D01*
X158619014Y-96799888D01*
X158691605Y-97010865D01*
X158743732Y-97446958D01*
X158770123Y-98056101D01*
X158772310Y-98313402D01*
X158770473Y-98940995D01*
X158787760Y-99343155D01*
X158858364Y-99571638D01*
X159016477Y-99678197D01*
X159296293Y-99714587D01*
X159697628Y-99730980D01*
X159697628Y-99627355D01*
X159615113Y-99608302D01*
X159605096Y-99534823D01*
X159655880Y-99420576D01*
X159697628Y-99442291D01*
X159714240Y-99607011D01*
X159697628Y-99627355D01*
X159697628Y-99730980D01*
X159709195Y-99731453D01*
X159913903Y-99644721D01*
X159952091Y-99534823D01*
X159831191Y-99366875D01*
X159605096Y-99324453D01*
X159423031Y-99307426D01*
X159316193Y-99218787D01*
X159260857Y-98997919D01*
X159233295Y-98584206D01*
X159224792Y-98352868D01*
X159191482Y-97383457D01*
X159744908Y-98008047D01*
X160041102Y-98369372D01*
X160242084Y-98666292D01*
X160298710Y-98806134D01*
X160416551Y-98943252D01*
X160611381Y-98984247D01*
X160728637Y-99014069D01*
X160713330Y-99119312D01*
X160543568Y-99331457D01*
X160197460Y-99681986D01*
X159981156Y-99890571D01*
X159485529Y-100393804D01*
X159210396Y-100748169D01*
X159149770Y-100965310D01*
X159297663Y-101056872D01*
X159378989Y-101061599D01*
X159420033Y-101039404D01*
X159420033Y-100876535D01*
X159337518Y-100857482D01*
X159327501Y-100784003D01*
X159378285Y-100669757D01*
X159420033Y-100691471D01*
X159436644Y-100856192D01*
X159420033Y-100876535D01*
X159420033Y-101039404D01*
X159569087Y-100958800D01*
X159814379Y-100705447D01*
X159860745Y-100645205D01*
X160099529Y-100372611D01*
X160294287Y-100233432D01*
X160320236Y-100228812D01*
X160399640Y-100287015D01*
X160319383Y-100412551D01*
X160236661Y-100630848D01*
X160402505Y-100765892D01*
X160507282Y-100777286D01*
X160507282Y-100645205D01*
X160437883Y-100575806D01*
X160507282Y-100506407D01*
X160576681Y-100575806D01*
X160507282Y-100645205D01*
X160507282Y-100777286D01*
X160798066Y-100808911D01*
X161126437Y-100788122D01*
X161515260Y-100723322D01*
X161847501Y-100593477D01*
X162205893Y-100354134D01*
X162673170Y-99960841D01*
X162684062Y-99951216D01*
X163145182Y-99560153D01*
X163494483Y-99321566D01*
X163816253Y-99191463D01*
X164194785Y-99125850D01*
X164282851Y-99116775D01*
X164690992Y-99090252D01*
X164958008Y-99097669D01*
X165018211Y-99121993D01*
X164919604Y-99282409D01*
X164668760Y-99551704D01*
X164333149Y-99869085D01*
X163980238Y-100173758D01*
X163677498Y-100404929D01*
X163492396Y-100501803D01*
X163486668Y-100502021D01*
X163426187Y-100428416D01*
X163598098Y-100222327D01*
X163664932Y-100161684D01*
X163769031Y-100051419D01*
X163769031Y-99812418D01*
X163654784Y-99761634D01*
X163676499Y-99719886D01*
X163841219Y-99703275D01*
X163861563Y-99719886D01*
X163842510Y-99802402D01*
X163769031Y-99812418D01*
X163769031Y-100051419D01*
X163968207Y-99840443D01*
X164030385Y-99609028D01*
X163898428Y-99459614D01*
X163734687Y-99505179D01*
X163469153Y-99719244D01*
X163256129Y-99945269D01*
X162952531Y-100252925D01*
X162695088Y-100432626D01*
X162581688Y-100453313D01*
X162365066Y-100467411D01*
X162211012Y-100614360D01*
X162196025Y-100795104D01*
X162262861Y-100866137D01*
X162450452Y-100912261D01*
X162450452Y-100784003D01*
X162381053Y-100714604D01*
X162450452Y-100645205D01*
X162519850Y-100714604D01*
X162450452Y-100784003D01*
X162450452Y-100912261D01*
X162548140Y-100936281D01*
X162986443Y-100942361D01*
X163463679Y-100894410D01*
X163865754Y-100802458D01*
X164051362Y-100708874D01*
X164336689Y-100593628D01*
X164892875Y-100514979D01*
X165578138Y-100477313D01*
X166753184Y-100441266D01*
X166753184Y-99673620D01*
X166683785Y-99604222D01*
X166753184Y-99534823D01*
X166822583Y-99604222D01*
X166753184Y-99673620D01*
X166753184Y-100441266D01*
X166891982Y-100437008D01*
X166937032Y-100043590D01*
X166937294Y-99590664D01*
X166818138Y-99354101D01*
X166616881Y-99344875D01*
X166453747Y-99544577D01*
X166438129Y-99791601D01*
X166445399Y-99989944D01*
X166374469Y-100098938D01*
X166164089Y-100145590D01*
X165753006Y-100156906D01*
X165608509Y-100157387D01*
X165159063Y-100147232D01*
X164845532Y-100118742D01*
X164741022Y-100082542D01*
X164842565Y-99911048D01*
X165094524Y-99654001D01*
X165416214Y-99379641D01*
X165726950Y-99156205D01*
X165946048Y-99051931D01*
X165961118Y-99050666D01*
X166154979Y-98940205D01*
X166178715Y-98806134D01*
X166193647Y-98620554D01*
X166296213Y-98596550D01*
X166510831Y-98748994D01*
X166861919Y-99092756D01*
X167147302Y-99396025D01*
X167521785Y-99782381D01*
X167835913Y-100073490D01*
X168025497Y-100212818D01*
X168025497Y-100043748D01*
X167942982Y-100024695D01*
X167932965Y-99951216D01*
X167983749Y-99836970D01*
X168025497Y-99858684D01*
X168042109Y-100023405D01*
X168025497Y-100043748D01*
X168025497Y-100212818D01*
X168035620Y-100220258D01*
X168064438Y-100228812D01*
X168206499Y-100141569D01*
X168174738Y-99923391D01*
X168174738Y-99923391D01*
G37*
X168174738Y-99923391D02*
X167991655Y-99639599D01*
X167794167Y-99444125D01*
X167524697Y-99168165D01*
X167402239Y-98862670D01*
X167373156Y-98446801D01*
X167305723Y-97943310D01*
X167135962Y-97530279D01*
X166901361Y-97268081D01*
X166639407Y-97217090D01*
X166614711Y-97225328D01*
X166423385Y-97378417D01*
X166503718Y-97586919D01*
X166753184Y-97787087D01*
X166776317Y-97810588D01*
X166776317Y-97545387D01*
X166693802Y-97526335D01*
X166683785Y-97452855D01*
X166734569Y-97338609D01*
X166776317Y-97360324D01*
X166792928Y-97525044D01*
X166776317Y-97545387D01*
X166776317Y-97810588D01*
X166965570Y-98002854D01*
X167090514Y-98265280D01*
X167100493Y-98482443D01*
X166985575Y-98563238D01*
X166729010Y-98440106D01*
X166489429Y-98128901D01*
X166318986Y-97716907D01*
X166267391Y-97361323D01*
X166186488Y-96840198D01*
X165989796Y-96550670D01*
X165853262Y-96437530D01*
X165770962Y-96431628D01*
X165729170Y-96576512D01*
X165714158Y-96915730D01*
X165712200Y-97431344D01*
X165712200Y-98563238D01*
X164636517Y-98568109D01*
X163560834Y-98572979D01*
X162590284Y-99470294D01*
X162120713Y-99893917D01*
X161785934Y-100157427D01*
X161523922Y-100296476D01*
X161272654Y-100346717D01*
X161063508Y-100347913D01*
X160507282Y-100328217D01*
X160999600Y-100243815D01*
X161415807Y-100120154D01*
X161800329Y-99921121D01*
X161918393Y-99827029D01*
X161918393Y-99627355D01*
X161835878Y-99608302D01*
X161825861Y-99534823D01*
X161876645Y-99420576D01*
X161918393Y-99442291D01*
X161935005Y-99607011D01*
X161918393Y-99627355D01*
X161918393Y-99827029D01*
X162085208Y-99694083D01*
X162202485Y-99486407D01*
X162185827Y-99417013D01*
X161967836Y-99265457D01*
X161710596Y-99340542D01*
X161548266Y-99534823D01*
X161280491Y-99765568D01*
X161031622Y-99812418D01*
X160663543Y-99812418D01*
X161062473Y-99396025D01*
X161421340Y-99100427D01*
X161817237Y-98988227D01*
X162032266Y-98979631D01*
X162496796Y-98922345D01*
X162821289Y-98771493D01*
X162936475Y-98570178D01*
X162808931Y-98534221D01*
X162470537Y-98507375D01*
X161988004Y-98494373D01*
X161860792Y-98493839D01*
X160784878Y-98493839D01*
X160829522Y-97452855D01*
X160874166Y-96411872D01*
X159892637Y-95444010D01*
X159435624Y-94982499D01*
X159146326Y-94651163D01*
X158987454Y-94393004D01*
X158921720Y-94151026D01*
X158911107Y-93943742D01*
X158939270Y-93626349D01*
X159009541Y-93484921D01*
X159036875Y-93489065D01*
X159110332Y-93669155D01*
X159093230Y-93832228D01*
X159127826Y-94108714D01*
X159297016Y-94452336D01*
X159534429Y-94763269D01*
X159773695Y-94941690D01*
X159836426Y-94953916D01*
X159836426Y-94769431D01*
X159753911Y-94750378D01*
X159743894Y-94676899D01*
X159794678Y-94562653D01*
X159836426Y-94584367D01*
X159853037Y-94749088D01*
X159836426Y-94769431D01*
X159836426Y-94953916D01*
X159839395Y-94954495D01*
X159996951Y-94859854D01*
X160002655Y-94642094D01*
X159870828Y-94400459D01*
X159743894Y-94292717D01*
X159574913Y-94104735D01*
X159470205Y-93850662D01*
X159459318Y-93636960D01*
X159542355Y-93566517D01*
X159751851Y-93684984D01*
X159982025Y-93979682D01*
X160178611Y-94359555D01*
X160287340Y-94733545D01*
X160294699Y-94828884D01*
X160397455Y-95328410D01*
X160576681Y-95579085D01*
X160713215Y-95692225D01*
X160795515Y-95698127D01*
X160837307Y-95553243D01*
X160852319Y-95214024D01*
X160854277Y-94698411D01*
X160854277Y-93566517D01*
X163013662Y-93566517D01*
X163907829Y-92664331D01*
X164345376Y-92233452D01*
X164656514Y-91967997D01*
X164903723Y-91829964D01*
X165149483Y-91781357D01*
X165361196Y-91780417D01*
X165693934Y-91795526D01*
X165767359Y-91819103D01*
X165599713Y-91864446D01*
X165504003Y-91884515D01*
X165125394Y-92010735D01*
X164744455Y-92209774D01*
X164448383Y-92427624D01*
X164324375Y-92610278D01*
X164324222Y-92615251D01*
X164422942Y-92792784D01*
X164647738Y-92819956D01*
X164671217Y-92808127D01*
X164671217Y-92733730D01*
X164601818Y-92664331D01*
X164671217Y-92594932D01*
X164740616Y-92664331D01*
X164671217Y-92733730D01*
X164671217Y-92808127D01*
X164891560Y-92697112D01*
X164965534Y-92613178D01*
X165286380Y-92368149D01*
X165541330Y-92317336D01*
X165909911Y-92317336D01*
X165429362Y-92728089D01*
X164916384Y-93053457D01*
X164445315Y-93144482D01*
X164061813Y-93202639D01*
X163788867Y-93337434D01*
X163769031Y-93358320D01*
X163713248Y-93463687D01*
X163791845Y-93526454D01*
X164049623Y-93557158D01*
X164531384Y-93566336D01*
X164654222Y-93566517D01*
X165712200Y-93566517D01*
X165715138Y-95717883D01*
X166685686Y-96758866D01*
X167124198Y-97236085D01*
X167403980Y-97572618D01*
X167558507Y-97828071D01*
X167621255Y-98062050D01*
X167625699Y-98334160D01*
X167621102Y-98424440D01*
X167621508Y-98828060D01*
X167692762Y-99015866D01*
X167794167Y-99049030D01*
X167794167Y-98840834D01*
X167679921Y-98790050D01*
X167701636Y-98748302D01*
X167866356Y-98731690D01*
X167886699Y-98748302D01*
X167867647Y-98830817D01*
X167794167Y-98840834D01*
X167794167Y-99049030D01*
X167914028Y-98992308D01*
X167964336Y-98783914D01*
X167957057Y-98366508D01*
X167952320Y-98291100D01*
X167913031Y-97904831D01*
X167828065Y-97601986D01*
X167656864Y-97304786D01*
X167358872Y-96935449D01*
X167084834Y-96627453D01*
X166691081Y-96181958D01*
X166449602Y-95863717D01*
X166323258Y-95597046D01*
X166274911Y-95306266D01*
X166267391Y-94961639D01*
X166267391Y-94201542D01*
X166961381Y-94885096D01*
X167307487Y-95255405D01*
X167554536Y-95575943D01*
X167650376Y-95778818D01*
X167650378Y-95782064D01*
X167581314Y-95850045D01*
X167383509Y-95672849D01*
X167318760Y-95596090D01*
X167070327Y-95360287D01*
X166868478Y-95281659D01*
X166837959Y-95291986D01*
X166699680Y-95451005D01*
X166763410Y-95664667D01*
X166891982Y-95804800D01*
X166891982Y-95648484D01*
X166822583Y-95579085D01*
X166891982Y-95509686D01*
X166961381Y-95579085D01*
X166891982Y-95648484D01*
X166891982Y-95804800D01*
X167045095Y-95971681D01*
X167160798Y-96075788D01*
X167462629Y-96397410D01*
X167654109Y-96707737D01*
X167681290Y-96800236D01*
X167795872Y-97041002D01*
X167863566Y-97073028D01*
X167863566Y-96897664D01*
X167794167Y-96828265D01*
X167863566Y-96758866D01*
X167932965Y-96828265D01*
X167863566Y-96897664D01*
X167863566Y-97073028D01*
X167932965Y-97105861D01*
X168048886Y-97052094D01*
X168101624Y-96853454D01*
X168101917Y-96453931D01*
X168092605Y-96273074D01*
X168042166Y-95794324D01*
X167961783Y-95415330D01*
X167891499Y-95254002D01*
X167817684Y-95015146D01*
X167777794Y-94550470D01*
X167775827Y-93910130D01*
X167778090Y-93831393D01*
X167792443Y-93217159D01*
X167769144Y-92825698D01*
X167679299Y-92602322D01*
X167494013Y-92492347D01*
X167184392Y-92441088D01*
X167035713Y-92426359D01*
X166711681Y-92448266D01*
X166577362Y-92616453D01*
X166574443Y-92629631D01*
X166600869Y-92803973D01*
X166776317Y-92856079D01*
X166776317Y-92687464D01*
X166693802Y-92668411D01*
X166683785Y-92594932D01*
X166734569Y-92480686D01*
X166776317Y-92502400D01*
X166792928Y-92667121D01*
X166776317Y-92687464D01*
X166776317Y-92856079D01*
X166818823Y-92868703D01*
X166951203Y-92872528D01*
X167377774Y-92872528D01*
X167377774Y-94733237D01*
X166822583Y-94191107D01*
X166514029Y-93847459D01*
X166312448Y-93541705D01*
X166267391Y-93399550D01*
X166177346Y-93205984D01*
X165885697Y-93148951D01*
X165722593Y-93136002D01*
X165674545Y-93075256D01*
X165763560Y-92931904D01*
X165989796Y-92694101D01*
X165989796Y-91623347D01*
X165875550Y-91572563D01*
X165897264Y-91530815D01*
X166061985Y-91514204D01*
X166082328Y-91530815D01*
X166063275Y-91613331D01*
X165989796Y-91623347D01*
X165989796Y-92694101D01*
X166011643Y-92671136D01*
X166440802Y-92258139D01*
X166460916Y-92239034D01*
X166925943Y-91779450D01*
X167192710Y-91467299D01*
X167192710Y-91438283D01*
X167110195Y-91419231D01*
X167100178Y-91345752D01*
X167150962Y-91231505D01*
X167192710Y-91253220D01*
X167209322Y-91417940D01*
X167192710Y-91438283D01*
X167192710Y-91467299D01*
X167195379Y-91464175D01*
X167290730Y-91264522D01*
X167260306Y-91172765D01*
X167103449Y-91126303D01*
X166877727Y-91279913D01*
X166707406Y-91458092D01*
X166418906Y-91732926D01*
X166173579Y-91886795D01*
X166116213Y-91898817D01*
X165990602Y-91875194D01*
X166112049Y-91775340D01*
X166114119Y-91774028D01*
X166243078Y-91563937D01*
X166229959Y-91448405D01*
X166109059Y-91329301D01*
X165830343Y-91289186D01*
X165411647Y-91310681D01*
X165043783Y-91356129D01*
X164754934Y-91444123D01*
X164473729Y-91616097D01*
X164128792Y-91913486D01*
X163757565Y-92270941D01*
X163322803Y-92691000D01*
X163017807Y-92951828D01*
X162774773Y-93089197D01*
X162525900Y-93138880D01*
X162203384Y-93136649D01*
X162123442Y-93133092D01*
X161727376Y-93100660D01*
X161482627Y-93052609D01*
X161440919Y-93018389D01*
X161588935Y-92833681D01*
X161878227Y-92553721D01*
X162240785Y-92235858D01*
X162608595Y-91937440D01*
X162913647Y-91715815D01*
X163087929Y-91628331D01*
X163089436Y-91628339D01*
X163125153Y-91703904D01*
X162963409Y-91891421D01*
X162881510Y-91961823D01*
X162603096Y-92259496D01*
X162566741Y-92514969D01*
X162573909Y-92535607D01*
X162652848Y-92651044D01*
X162728047Y-92634992D01*
X162728047Y-92456134D01*
X162658648Y-92386735D01*
X162728047Y-92317336D01*
X162797446Y-92386735D01*
X162728047Y-92456134D01*
X162728047Y-92634992D01*
X162786612Y-92622489D01*
X163027261Y-92426131D01*
X163223582Y-92238424D01*
X163572489Y-91936841D01*
X163877944Y-91739172D01*
X164016976Y-91694347D01*
X164046626Y-91677233D01*
X164046626Y-91484549D01*
X163932380Y-91433765D01*
X163954095Y-91392018D01*
X164118815Y-91375406D01*
X164139158Y-91392018D01*
X164120106Y-91474533D01*
X164046626Y-91484549D01*
X164046626Y-91677233D01*
X164216962Y-91578910D01*
X164254823Y-91415151D01*
X164226485Y-91257399D01*
X164097295Y-91182259D01*
X163800990Y-91169809D01*
X163491435Y-91185642D01*
X163022851Y-91246854D01*
X162647620Y-91351750D01*
X162508921Y-91428538D01*
X162279266Y-91532973D01*
X161852107Y-91596051D01*
X161193098Y-91622100D01*
X160962631Y-91623347D01*
X159635467Y-91623347D01*
X159578100Y-92114733D01*
X159580859Y-92478404D01*
X159663306Y-92721448D01*
X159679784Y-92738119D01*
X159813293Y-92781995D01*
X159813293Y-92594932D01*
X159743894Y-92525533D01*
X159813293Y-92456134D01*
X159882692Y-92525533D01*
X159813293Y-92594932D01*
X159813293Y-92781995D01*
X159878165Y-92803315D01*
X159993550Y-92610599D01*
X160021490Y-92290524D01*
X160021490Y-91893584D01*
X160922577Y-91931963D01*
X161381965Y-91964634D01*
X161706972Y-92012759D01*
X161824762Y-92063625D01*
X161720373Y-92234727D01*
X161458877Y-92480454D01*
X161121792Y-92740020D01*
X160790638Y-92952640D01*
X160546933Y-93057530D01*
X160493546Y-93056247D01*
X160345628Y-93087017D01*
X160299102Y-93354512D01*
X160299085Y-93362303D01*
X160286333Y-93525916D01*
X160224914Y-93571799D01*
X160080088Y-93477763D01*
X159817116Y-93221617D01*
X159418956Y-92800138D01*
X158974076Y-92351747D01*
X158627682Y-92059581D01*
X158412290Y-91949984D01*
X158377973Y-91956710D01*
X158227506Y-92142467D01*
X158339762Y-92363365D01*
X158564113Y-92537611D01*
X158564113Y-92317336D01*
X158494714Y-92247937D01*
X158564113Y-92178539D01*
X158633512Y-92247937D01*
X158564113Y-92317336D01*
X158564113Y-92537611D01*
X158569749Y-92541989D01*
X158883930Y-92811327D01*
X159078265Y-93065681D01*
X159171757Y-93263738D01*
X159106756Y-93250227D01*
X159009310Y-93172874D01*
X158755616Y-93050444D01*
X158589362Y-93179937D01*
X158506375Y-93567174D01*
X158494714Y-93891013D01*
X158503532Y-94241901D01*
X158555425Y-94506212D01*
X158688550Y-94752408D01*
X158702911Y-94769272D01*
X158702911Y-93427719D01*
X158633512Y-93358320D01*
X158702911Y-93288921D01*
X158772310Y-93358320D01*
X158702911Y-93427719D01*
X158702911Y-94769272D01*
X158941066Y-95048952D01*
X159351130Y-95464304D01*
X159396900Y-95509686D01*
X159822728Y-95938629D01*
X160087757Y-96242631D01*
X160230088Y-96490395D01*
X160287819Y-96750626D01*
X160299053Y-97092028D01*
X160299085Y-97136551D01*
X160281365Y-97541665D01*
X160235808Y-97801127D01*
X160194987Y-97854277D01*
X160031790Y-97746451D01*
X159772222Y-97492922D01*
X159469314Y-97156611D01*
X159176097Y-96800442D01*
X158945603Y-96487337D01*
X158830864Y-96280220D01*
X158832149Y-96237242D01*
X158974419Y-96266970D01*
X159199448Y-96468520D01*
X159266453Y-96547820D01*
X159507532Y-96806593D01*
X159605096Y-96834514D01*
X159605096Y-96620069D01*
X159490850Y-96569285D01*
X159512565Y-96527537D01*
X159677285Y-96510925D01*
X159697628Y-96527537D01*
X159678576Y-96610052D01*
X159605096Y-96620069D01*
X159605096Y-96834514D01*
X159674039Y-96854245D01*
X159767771Y-96790509D01*
X159827513Y-96647750D01*
X159730958Y-96442069D01*
X159451006Y-96120787D01*
X159391768Y-96059622D01*
X159088853Y-95709670D01*
X158889566Y-95403298D01*
X158843309Y-95261741D01*
X158742717Y-95059310D01*
X158633512Y-95023894D01*
X158513610Y-95084525D01*
X158454425Y-95302585D01*
X158443387Y-95732319D01*
X158445517Y-95835243D01*
X158481286Y-96301030D01*
X158552668Y-96659745D01*
X158564113Y-96683920D01*
X158564113Y-95370888D01*
X158494714Y-95301489D01*
X158564113Y-95232090D01*
X158633512Y-95301489D01*
X158564113Y-95370888D01*
X158564113Y-96683920D01*
X158619014Y-96799888D01*
X158691605Y-97010865D01*
X158743732Y-97446958D01*
X158770123Y-98056101D01*
X158772310Y-98313402D01*
X158770473Y-98940995D01*
X158787760Y-99343155D01*
X158858364Y-99571638D01*
X159016477Y-99678197D01*
X159296293Y-99714587D01*
X159697628Y-99730980D01*
X159697628Y-99627355D01*
X159615113Y-99608302D01*
X159605096Y-99534823D01*
X159655880Y-99420576D01*
X159697628Y-99442291D01*
X159714240Y-99607011D01*
X159697628Y-99627355D01*
X159697628Y-99730980D01*
X159709195Y-99731453D01*
X159913903Y-99644721D01*
X159952091Y-99534823D01*
X159831191Y-99366875D01*
X159605096Y-99324453D01*
X159423031Y-99307426D01*
X159316193Y-99218787D01*
X159260857Y-98997919D01*
X159233295Y-98584206D01*
X159224792Y-98352868D01*
X159191482Y-97383457D01*
X159744908Y-98008047D01*
X160041102Y-98369372D01*
X160242084Y-98666292D01*
X160298710Y-98806134D01*
X160416551Y-98943252D01*
X160611381Y-98984247D01*
X160728637Y-99014069D01*
X160713330Y-99119312D01*
X160543568Y-99331457D01*
X160197460Y-99681986D01*
X159981156Y-99890571D01*
X159485529Y-100393804D01*
X159210396Y-100748169D01*
X159149770Y-100965310D01*
X159297663Y-101056872D01*
X159378989Y-101061599D01*
X159420033Y-101039404D01*
X159420033Y-100876535D01*
X159337518Y-100857482D01*
X159327501Y-100784003D01*
X159378285Y-100669757D01*
X159420033Y-100691471D01*
X159436644Y-100856192D01*
X159420033Y-100876535D01*
X159420033Y-101039404D01*
X159569087Y-100958800D01*
X159814379Y-100705447D01*
X159860745Y-100645205D01*
X160099529Y-100372611D01*
X160294287Y-100233432D01*
X160320236Y-100228812D01*
X160399640Y-100287015D01*
X160319383Y-100412551D01*
X160236661Y-100630848D01*
X160402505Y-100765892D01*
X160507282Y-100777286D01*
X160507282Y-100645205D01*
X160437883Y-100575806D01*
X160507282Y-100506407D01*
X160576681Y-100575806D01*
X160507282Y-100645205D01*
X160507282Y-100777286D01*
X160798066Y-100808911D01*
X161126437Y-100788122D01*
X161515260Y-100723322D01*
X161847501Y-100593477D01*
X162205893Y-100354134D01*
X162673170Y-99960841D01*
X162684062Y-99951216D01*
X163145182Y-99560153D01*
X163494483Y-99321566D01*
X163816253Y-99191463D01*
X164194785Y-99125850D01*
X164282851Y-99116775D01*
X164690992Y-99090252D01*
X164958008Y-99097669D01*
X165018211Y-99121993D01*
X164919604Y-99282409D01*
X164668760Y-99551704D01*
X164333149Y-99869085D01*
X163980238Y-100173758D01*
X163677498Y-100404929D01*
X163492396Y-100501803D01*
X163486668Y-100502021D01*
X163426187Y-100428416D01*
X163598098Y-100222327D01*
X163664932Y-100161684D01*
X163769031Y-100051419D01*
X163769031Y-99812418D01*
X163654784Y-99761634D01*
X163676499Y-99719886D01*
X163841219Y-99703275D01*
X163861563Y-99719886D01*
X163842510Y-99802402D01*
X163769031Y-99812418D01*
X163769031Y-100051419D01*
X163968207Y-99840443D01*
X164030385Y-99609028D01*
X163898428Y-99459614D01*
X163734687Y-99505179D01*
X163469153Y-99719244D01*
X163256129Y-99945269D01*
X162952531Y-100252925D01*
X162695088Y-100432626D01*
X162581688Y-100453313D01*
X162365066Y-100467411D01*
X162211012Y-100614360D01*
X162196025Y-100795104D01*
X162262861Y-100866137D01*
X162450452Y-100912261D01*
X162450452Y-100784003D01*
X162381053Y-100714604D01*
X162450452Y-100645205D01*
X162519850Y-100714604D01*
X162450452Y-100784003D01*
X162450452Y-100912261D01*
X162548140Y-100936281D01*
X162986443Y-100942361D01*
X163463679Y-100894410D01*
X163865754Y-100802458D01*
X164051362Y-100708874D01*
X164336689Y-100593628D01*
X164892875Y-100514979D01*
X165578138Y-100477313D01*
X166753184Y-100441266D01*
X166753184Y-99673620D01*
X166683785Y-99604222D01*
X166753184Y-99534823D01*
X166822583Y-99604222D01*
X166753184Y-99673620D01*
X166753184Y-100441266D01*
X166891982Y-100437008D01*
X166937032Y-100043590D01*
X166937294Y-99590664D01*
X166818138Y-99354101D01*
X166616881Y-99344875D01*
X166453747Y-99544577D01*
X166438129Y-99791601D01*
X166445399Y-99989944D01*
X166374469Y-100098938D01*
X166164089Y-100145590D01*
X165753006Y-100156906D01*
X165608509Y-100157387D01*
X165159063Y-100147232D01*
X164845532Y-100118742D01*
X164741022Y-100082542D01*
X164842565Y-99911048D01*
X165094524Y-99654001D01*
X165416214Y-99379641D01*
X165726950Y-99156205D01*
X165946048Y-99051931D01*
X165961118Y-99050666D01*
X166154979Y-98940205D01*
X166178715Y-98806134D01*
X166193647Y-98620554D01*
X166296213Y-98596550D01*
X166510831Y-98748994D01*
X166861919Y-99092756D01*
X167147302Y-99396025D01*
X167521785Y-99782381D01*
X167835913Y-100073490D01*
X168025497Y-100212818D01*
X168025497Y-100043748D01*
X167942982Y-100024695D01*
X167932965Y-99951216D01*
X167983749Y-99836970D01*
X168025497Y-99858684D01*
X168042109Y-100023405D01*
X168025497Y-100043748D01*
X168025497Y-100212818D01*
X168035620Y-100220258D01*
X168064438Y-100228812D01*
X168206499Y-100141569D01*
X168174738Y-99923391D01*
G36*
X164853933Y-88743293D02*
X164804136Y-88518497D01*
X164672283Y-88393568D01*
X164384959Y-88325990D01*
X164074945Y-88292200D01*
X163339876Y-88222801D01*
X164109645Y-87464154D01*
X164548992Y-86997055D01*
X164794442Y-86641936D01*
X164878602Y-86350295D01*
X164879413Y-86319072D01*
X164828300Y-86038223D01*
X164712483Y-85921572D01*
X164588247Y-86020972D01*
X164578685Y-86042030D01*
X164458739Y-86186498D01*
X164192086Y-86454345D01*
X163879134Y-86748161D01*
X163225850Y-87344899D01*
X162282959Y-86577591D01*
X161340069Y-85810282D01*
X161294129Y-86251262D01*
X161297156Y-86516201D01*
X161398853Y-86751990D01*
X161643407Y-87029489D01*
X161959763Y-87318723D01*
X162329524Y-87651851D01*
X162515360Y-87856197D01*
X162544734Y-87982909D01*
X162445108Y-88083138D01*
X162389281Y-88118702D01*
X162039551Y-88247863D01*
X161688947Y-88292200D01*
X161393133Y-88326201D01*
X161283733Y-88486925D01*
X161270670Y-88708593D01*
X161270670Y-89124987D01*
X164897852Y-89124987D01*
X164853933Y-88743293D01*
X164853933Y-88743293D01*
G37*
X164853933Y-88743293D02*
X164804136Y-88518497D01*
X164672283Y-88393568D01*
X164384959Y-88325990D01*
X164074945Y-88292200D01*
X163339876Y-88222801D01*
X164109645Y-87464154D01*
X164548992Y-86997055D01*
X164794442Y-86641936D01*
X164878602Y-86350295D01*
X164879413Y-86319072D01*
X164828300Y-86038223D01*
X164712483Y-85921572D01*
X164588247Y-86020972D01*
X164578685Y-86042030D01*
X164458739Y-86186498D01*
X164192086Y-86454345D01*
X163879134Y-86748161D01*
X163225850Y-87344899D01*
X162282959Y-86577591D01*
X161340069Y-85810282D01*
X161294129Y-86251262D01*
X161297156Y-86516201D01*
X161398853Y-86751990D01*
X161643407Y-87029489D01*
X161959763Y-87318723D01*
X162329524Y-87651851D01*
X162515360Y-87856197D01*
X162544734Y-87982909D01*
X162445108Y-88083138D01*
X162389281Y-88118702D01*
X162039551Y-88247863D01*
X161688947Y-88292200D01*
X161393133Y-88326201D01*
X161283733Y-88486925D01*
X161270670Y-88708593D01*
X161270670Y-89124987D01*
X164897852Y-89124987D01*
X164853933Y-88743293D01*
G36*
X164003895Y-84231163D02*
X163884858Y-83745869D01*
X163652455Y-83425416D01*
X163261453Y-83241045D01*
X162666619Y-83164000D01*
X162313769Y-83156681D01*
X161305654Y-83156681D01*
X161293472Y-84202974D01*
X161299776Y-84775447D01*
X161344686Y-85145379D01*
X161442801Y-85386783D01*
X161553576Y-85521553D01*
X161929103Y-85759531D01*
X162151442Y-85749556D01*
X162151442Y-84930574D01*
X161956705Y-84886737D01*
X161845434Y-84679859D01*
X161866370Y-84377567D01*
X161992094Y-84111556D01*
X162138156Y-84015176D01*
X162314108Y-84046462D01*
X162378023Y-84272100D01*
X162381053Y-84387492D01*
X162318681Y-84763573D01*
X162151442Y-84930574D01*
X162151442Y-85749556D01*
X162287533Y-85743449D01*
X162594668Y-85496317D01*
X162816311Y-85041144D01*
X162901914Y-84614341D01*
X162986204Y-84195368D01*
X163094298Y-84036221D01*
X163196041Y-84124428D01*
X163261279Y-84447516D01*
X163270051Y-84766621D01*
X163309312Y-85296285D01*
X163457380Y-85584640D01*
X163648093Y-85652916D01*
X163788979Y-85532186D01*
X163911933Y-85221379D01*
X163995060Y-84807984D01*
X164016465Y-84379493D01*
X164003895Y-84231163D01*
X164003895Y-84231163D01*
G37*
X164003895Y-84231163D02*
X163884858Y-83745869D01*
X163652455Y-83425416D01*
X163261453Y-83241045D01*
X162666619Y-83164000D01*
X162313769Y-83156681D01*
X161305654Y-83156681D01*
X161293472Y-84202974D01*
X161299776Y-84775447D01*
X161344686Y-85145379D01*
X161442801Y-85386783D01*
X161553576Y-85521553D01*
X161929103Y-85759531D01*
X162151442Y-85749556D01*
X162151442Y-84930574D01*
X161956705Y-84886737D01*
X161845434Y-84679859D01*
X161866370Y-84377567D01*
X161992094Y-84111556D01*
X162138156Y-84015176D01*
X162314108Y-84046462D01*
X162378023Y-84272100D01*
X162381053Y-84387492D01*
X162318681Y-84763573D01*
X162151442Y-84930574D01*
X162151442Y-85749556D01*
X162287533Y-85743449D01*
X162594668Y-85496317D01*
X162816311Y-85041144D01*
X162901914Y-84614341D01*
X162986204Y-84195368D01*
X163094298Y-84036221D01*
X163196041Y-84124428D01*
X163261279Y-84447516D01*
X163270051Y-84766621D01*
X163309312Y-85296285D01*
X163457380Y-85584640D01*
X163648093Y-85652916D01*
X163788979Y-85532186D01*
X163911933Y-85221379D01*
X163995060Y-84807984D01*
X164016465Y-84379493D01*
X164003895Y-84231163D01*
G36*
X164021146Y-82080998D02*
X163977228Y-81699304D01*
X161270670Y-81619852D01*
X161270670Y-82462692D01*
X164065065Y-82462692D01*
X164021146Y-82080998D01*
X164021146Y-82080998D01*
G37*
X164021146Y-82080998D02*
X163977228Y-81699304D01*
X161270670Y-81619852D01*
X161270670Y-82462692D01*
X164065065Y-82462692D01*
X164021146Y-82080998D01*
G36*
X163895396Y-79082989D02*
X163604999Y-78647233D01*
X163196056Y-78333825D01*
X162703023Y-78193221D01*
X162160356Y-78275874D01*
X162120740Y-78291598D01*
X161682835Y-78611260D01*
X161396454Y-79099447D01*
X161283635Y-79679142D01*
X161366415Y-80273325D01*
X161478817Y-80535060D01*
X161838745Y-80941954D01*
X162320069Y-81143707D01*
X162598374Y-81140590D01*
X162598374Y-80380724D01*
X162345838Y-80284894D01*
X162065045Y-80061930D01*
X161863741Y-79808628D01*
X161825861Y-79686735D01*
X161915450Y-79495255D01*
X162103457Y-79270342D01*
X162480985Y-79037371D01*
X162862842Y-79023015D01*
X163174590Y-79202461D01*
X163341790Y-79550896D01*
X163352637Y-79686735D01*
X163233205Y-80084853D01*
X162909802Y-80328211D01*
X162598374Y-80380724D01*
X162598374Y-81140590D01*
X162854353Y-81137722D01*
X163373163Y-80921399D01*
X163710740Y-80619806D01*
X163982723Y-80119730D01*
X164032790Y-79590640D01*
X163895396Y-79082989D01*
X163895396Y-79082989D01*
G37*
X163895396Y-79082989D02*
X163604999Y-78647233D01*
X163196056Y-78333825D01*
X162703023Y-78193221D01*
X162160356Y-78275874D01*
X162120740Y-78291598D01*
X161682835Y-78611260D01*
X161396454Y-79099447D01*
X161283635Y-79679142D01*
X161366415Y-80273325D01*
X161478817Y-80535060D01*
X161838745Y-80941954D01*
X162320069Y-81143707D01*
X162598374Y-81140590D01*
X162598374Y-80380724D01*
X162345838Y-80284894D01*
X162065045Y-80061930D01*
X161863741Y-79808628D01*
X161825861Y-79686735D01*
X161915450Y-79495255D01*
X162103457Y-79270342D01*
X162480985Y-79037371D01*
X162862842Y-79023015D01*
X163174590Y-79202461D01*
X163341790Y-79550896D01*
X163352637Y-79686735D01*
X163233205Y-80084853D01*
X162909802Y-80328211D01*
X162598374Y-80380724D01*
X162598374Y-81140590D01*
X162854353Y-81137722D01*
X163373163Y-80921399D01*
X163710740Y-80619806D01*
X163982723Y-80119730D01*
X164032790Y-79590640D01*
X163895396Y-79082989D01*
G36*
X164564471Y-76890790D02*
X164405717Y-76781925D01*
X164254823Y-76771981D01*
X163990689Y-76714654D01*
X163909294Y-76488932D01*
X163907829Y-76424987D01*
X163842768Y-76152886D01*
X163630233Y-76077992D01*
X163412553Y-76159318D01*
X163352637Y-76424987D01*
X163330137Y-76630924D01*
X163215309Y-76733662D01*
X162937162Y-76768694D01*
X162658648Y-76771981D01*
X162220676Y-76750074D01*
X161999999Y-76656462D01*
X161937928Y-76449306D01*
X161950672Y-76267282D01*
X161857402Y-76094618D01*
X161626155Y-75989974D01*
X161396943Y-76016334D01*
X161315835Y-76193197D01*
X161272778Y-76534141D01*
X161270670Y-76633504D01*
X161327775Y-77071124D01*
X161525891Y-77348525D01*
X161579149Y-77388701D01*
X161941873Y-77531291D01*
X162467586Y-77601282D01*
X162620133Y-77604768D01*
X163069941Y-77624927D01*
X163296519Y-77695278D01*
X163352637Y-77812965D01*
X163468352Y-77982519D01*
X163630233Y-78021161D01*
X163856306Y-77934375D01*
X163907829Y-77812965D01*
X164028486Y-77645517D01*
X164254823Y-77604768D01*
X164502810Y-77559953D01*
X164593531Y-77369448D01*
X164601818Y-77188375D01*
X164564471Y-76890790D01*
X164564471Y-76890790D01*
G37*
X164564471Y-76890790D02*
X164405717Y-76781925D01*
X164254823Y-76771981D01*
X163990689Y-76714654D01*
X163909294Y-76488932D01*
X163907829Y-76424987D01*
X163842768Y-76152886D01*
X163630233Y-76077992D01*
X163412553Y-76159318D01*
X163352637Y-76424987D01*
X163330137Y-76630924D01*
X163215309Y-76733662D01*
X162937162Y-76768694D01*
X162658648Y-76771981D01*
X162220676Y-76750074D01*
X161999999Y-76656462D01*
X161937928Y-76449306D01*
X161950672Y-76267282D01*
X161857402Y-76094618D01*
X161626155Y-75989974D01*
X161396943Y-76016334D01*
X161315835Y-76193197D01*
X161272778Y-76534141D01*
X161270670Y-76633504D01*
X161327775Y-77071124D01*
X161525891Y-77348525D01*
X161579149Y-77388701D01*
X161941873Y-77531291D01*
X162467586Y-77601282D01*
X162620133Y-77604768D01*
X163069941Y-77624927D01*
X163296519Y-77695278D01*
X163352637Y-77812965D01*
X163468352Y-77982519D01*
X163630233Y-78021161D01*
X163856306Y-77934375D01*
X163907829Y-77812965D01*
X164028486Y-77645517D01*
X164254823Y-77604768D01*
X164502810Y-77559953D01*
X164593531Y-77369448D01*
X164601818Y-77188375D01*
X164564471Y-76890790D01*
G36*
X163924260Y-73673671D02*
X163609561Y-73248852D01*
X163176383Y-72962541D01*
X162808123Y-72885642D01*
X162381053Y-72885642D01*
X162381053Y-73868794D01*
X162366959Y-74408347D01*
X162320312Y-74706396D01*
X162234567Y-74797811D01*
X162207555Y-74792916D01*
X162094306Y-74616912D01*
X162036520Y-74213361D01*
X162031341Y-74022184D01*
X161991142Y-73479077D01*
X161882086Y-73172312D01*
X161713954Y-73114673D01*
X161496530Y-73318943D01*
X161494930Y-73321223D01*
X161303328Y-73802562D01*
X161279731Y-74372525D01*
X161418319Y-74908793D01*
X161582965Y-75170512D01*
X162063961Y-75549241D01*
X162587743Y-75689700D01*
X163100678Y-75613933D01*
X163170836Y-75571701D01*
X163170836Y-74791908D01*
X163031496Y-74775956D01*
X162951236Y-74503378D01*
X162936244Y-74204222D01*
X162949404Y-73831584D01*
X162982697Y-73608178D01*
X163002443Y-73579631D01*
X163117216Y-73682391D01*
X163289903Y-73917318D01*
X163431746Y-74233446D01*
X163370744Y-74516635D01*
X163357619Y-74541909D01*
X163170836Y-74791908D01*
X163170836Y-75571701D01*
X163549131Y-75343981D01*
X163879468Y-74901887D01*
X164038053Y-74309694D01*
X164044580Y-74158845D01*
X163924260Y-73673671D01*
X163924260Y-73673671D01*
G37*
X163924260Y-73673671D02*
X163609561Y-73248852D01*
X163176383Y-72962541D01*
X162808123Y-72885642D01*
X162381053Y-72885642D01*
X162381053Y-73868794D01*
X162366959Y-74408347D01*
X162320312Y-74706396D01*
X162234567Y-74797811D01*
X162207555Y-74792916D01*
X162094306Y-74616912D01*
X162036520Y-74213361D01*
X162031341Y-74022184D01*
X161991142Y-73479077D01*
X161882086Y-73172312D01*
X161713954Y-73114673D01*
X161496530Y-73318943D01*
X161494930Y-73321223D01*
X161303328Y-73802562D01*
X161279731Y-74372525D01*
X161418319Y-74908793D01*
X161582965Y-75170512D01*
X162063961Y-75549241D01*
X162587743Y-75689700D01*
X163100678Y-75613933D01*
X163170836Y-75571701D01*
X163170836Y-74791908D01*
X163031496Y-74775956D01*
X162951236Y-74503378D01*
X162936244Y-74204222D01*
X162949404Y-73831584D01*
X162982697Y-73608178D01*
X163002443Y-73579631D01*
X163117216Y-73682391D01*
X163289903Y-73917318D01*
X163431746Y-74233446D01*
X163370744Y-74516635D01*
X163357619Y-74541909D01*
X163170836Y-74791908D01*
X163170836Y-75571701D01*
X163549131Y-75343981D01*
X163879468Y-74901887D01*
X164038053Y-74309694D01*
X164044580Y-74158845D01*
X163924260Y-73673671D01*
G36*
X164753451Y-97235045D02*
X164426428Y-97175139D01*
X163974637Y-97141906D01*
X163474374Y-97142915D01*
X163274442Y-97154866D01*
X163100770Y-97136293D01*
X163017835Y-96998785D01*
X162995868Y-96674293D01*
X162996846Y-96520322D01*
X162990200Y-96142431D01*
X162918462Y-95905576D01*
X162723120Y-95721039D01*
X162345664Y-95500100D01*
X162311654Y-95481388D01*
X161848804Y-95235872D01*
X161576086Y-95122737D01*
X161446114Y-95130687D01*
X161411498Y-95248425D01*
X161411468Y-95266790D01*
X161525189Y-95423709D01*
X161816582Y-95647029D01*
X162101882Y-95819945D01*
X162521874Y-96083995D01*
X162705232Y-96290374D01*
X162707345Y-96415772D01*
X162591823Y-96547068D01*
X162339106Y-96576822D01*
X162016930Y-96540846D01*
X161409468Y-96449751D01*
X161409468Y-97452855D01*
X161818922Y-97452855D01*
X161818922Y-97154440D01*
X161700512Y-97110782D01*
X161707883Y-97043402D01*
X161824661Y-96894469D01*
X161864031Y-96887254D01*
X161972090Y-96977803D01*
X161893865Y-97116627D01*
X161818922Y-97154440D01*
X161818922Y-97452855D01*
X162462018Y-97452855D01*
X162462018Y-97025504D01*
X162281995Y-96999985D01*
X162279846Y-96952605D01*
X162465612Y-96919472D01*
X162545875Y-96941647D01*
X162598449Y-97003278D01*
X162462018Y-97025504D01*
X162462018Y-97452855D01*
X163144441Y-97452855D01*
X163896038Y-97442165D01*
X164454970Y-97411701D01*
X164791120Y-97363872D01*
X164879413Y-97314058D01*
X164753451Y-97235045D01*
X164753451Y-97235045D01*
G37*
X164753451Y-97235045D02*
X164426428Y-97175139D01*
X163974637Y-97141906D01*
X163474374Y-97142915D01*
X163274442Y-97154866D01*
X163100770Y-97136293D01*
X163017835Y-96998785D01*
X162995868Y-96674293D01*
X162996846Y-96520322D01*
X162990200Y-96142431D01*
X162918462Y-95905576D01*
X162723120Y-95721039D01*
X162345664Y-95500100D01*
X162311654Y-95481388D01*
X161848804Y-95235872D01*
X161576086Y-95122737D01*
X161446114Y-95130687D01*
X161411498Y-95248425D01*
X161411468Y-95266790D01*
X161525189Y-95423709D01*
X161816582Y-95647029D01*
X162101882Y-95819945D01*
X162521874Y-96083995D01*
X162705232Y-96290374D01*
X162707345Y-96415772D01*
X162591823Y-96547068D01*
X162339106Y-96576822D01*
X162016930Y-96540846D01*
X161409468Y-96449751D01*
X161409468Y-97452855D01*
X161818922Y-97452855D01*
X161818922Y-97154440D01*
X161700512Y-97110782D01*
X161707883Y-97043402D01*
X161824661Y-96894469D01*
X161864031Y-96887254D01*
X161972090Y-96977803D01*
X161893865Y-97116627D01*
X161818922Y-97154440D01*
X161818922Y-97452855D01*
X162462018Y-97452855D01*
X162462018Y-97025504D01*
X162281995Y-96999985D01*
X162279846Y-96952605D01*
X162465612Y-96919472D01*
X162545875Y-96941647D01*
X162598449Y-97003278D01*
X162462018Y-97025504D01*
X162462018Y-97452855D01*
X163144441Y-97452855D01*
X163896038Y-97442165D01*
X164454970Y-97411701D01*
X164791120Y-97363872D01*
X164879413Y-97314058D01*
X164753451Y-97235045D01*
G36*
X164868517Y-94612862D02*
X164801547Y-94560738D01*
X164627085Y-94606673D01*
X164293711Y-94761027D01*
X163927725Y-94944451D01*
X163122750Y-95350801D01*
X162548915Y-95024857D01*
X162140847Y-94807808D01*
X161789423Y-94645293D01*
X161692274Y-94609154D01*
X161458601Y-94600558D01*
X161426953Y-94736802D01*
X161582965Y-94920703D01*
X161897659Y-95124585D01*
X162321566Y-95342926D01*
X162752661Y-95529133D01*
X163088922Y-95636614D01*
X163173611Y-95647128D01*
X163488507Y-95584335D01*
X163895242Y-95426785D01*
X164313179Y-95216762D01*
X164661682Y-94996546D01*
X164860114Y-94808421D01*
X164879413Y-94752683D01*
X164868517Y-94612862D01*
X164868517Y-94612862D01*
G37*
X164868517Y-94612862D02*
X164801547Y-94560738D01*
X164627085Y-94606673D01*
X164293711Y-94761027D01*
X163927725Y-94944451D01*
X163122750Y-95350801D01*
X162548915Y-95024857D01*
X162140847Y-94807808D01*
X161789423Y-94645293D01*
X161692274Y-94609154D01*
X161458601Y-94600558D01*
X161426953Y-94736802D01*
X161582965Y-94920703D01*
X161897659Y-95124585D01*
X162321566Y-95342926D01*
X162752661Y-95529133D01*
X163088922Y-95636614D01*
X163173611Y-95647128D01*
X163488507Y-95584335D01*
X163895242Y-95426785D01*
X164313179Y-95216762D01*
X164661682Y-94996546D01*
X164860114Y-94808421D01*
X164879413Y-94752683D01*
X164868517Y-94612862D01*
G36*
X164833177Y-95203349D02*
X164662183Y-95223990D01*
X164318008Y-95373191D01*
X164150725Y-95456152D01*
X163667394Y-95716384D01*
X163386373Y-95929984D01*
X163254018Y-96157774D01*
X163216684Y-96460575D01*
X163215965Y-96515970D01*
X163228514Y-96727294D01*
X163312641Y-96841365D01*
X163533562Y-96888149D01*
X163956488Y-96897611D01*
X164046626Y-96897664D01*
X164490217Y-96876593D01*
X164790955Y-96821549D01*
X164879413Y-96758866D01*
X164755357Y-96676091D01*
X164441482Y-96626437D01*
X164254823Y-96620069D01*
X163859724Y-96599427D01*
X163673780Y-96519753D01*
X163630233Y-96370131D01*
X163761335Y-96136281D01*
X164133565Y-95878748D01*
X164254823Y-95816743D01*
X164615470Y-95602289D01*
X164841095Y-95392625D01*
X164879413Y-95300955D01*
X164833177Y-95203349D01*
X164833177Y-95203349D01*
G37*
X164833177Y-95203349D02*
X164662183Y-95223990D01*
X164318008Y-95373191D01*
X164150725Y-95456152D01*
X163667394Y-95716384D01*
X163386373Y-95929984D01*
X163254018Y-96157774D01*
X163216684Y-96460575D01*
X163215965Y-96515970D01*
X163228514Y-96727294D01*
X163312641Y-96841365D01*
X163533562Y-96888149D01*
X163956488Y-96897611D01*
X164046626Y-96897664D01*
X164490217Y-96876593D01*
X164790955Y-96821549D01*
X164879413Y-96758866D01*
X164755357Y-96676091D01*
X164441482Y-96626437D01*
X164254823Y-96620069D01*
X163859724Y-96599427D01*
X163673780Y-96519753D01*
X163630233Y-96370131D01*
X163761335Y-96136281D01*
X164133565Y-95878748D01*
X164254823Y-95816743D01*
X164615470Y-95602289D01*
X164841095Y-95392625D01*
X164879413Y-95300955D01*
X164833177Y-95203349D01*
G36*
X165228522Y-81914161D02*
X165038112Y-81679900D01*
X164745401Y-81648614D01*
X164490779Y-81796462D01*
X164349347Y-81979527D01*
X164372482Y-82168430D01*
X164474137Y-82358593D01*
X164702836Y-82560695D01*
X164961541Y-82552836D01*
X165172439Y-82380860D01*
X165257716Y-82090609D01*
X165228522Y-81914161D01*
X165228522Y-81914161D01*
G37*
X165228522Y-81914161D02*
X165038112Y-81679900D01*
X164745401Y-81648614D01*
X164490779Y-81796462D01*
X164349347Y-81979527D01*
X164372482Y-82168430D01*
X164474137Y-82358593D01*
X164702836Y-82560695D01*
X164961541Y-82552836D01*
X165172439Y-82380860D01*
X165257716Y-82090609D01*
X165228522Y-81914161D01*
D12*
G04 #@! TO.C,C19*
X104418200Y-111716452D02*
X104418200Y-111193948D01*
X102998200Y-111716452D02*
X102998200Y-111193948D01*
G04 #@! TO.C,U7*
X102022000Y-116520800D02*
X102022000Y-114720800D01*
X105242000Y-114720800D02*
X105242000Y-117670800D01*
G04 #@! TO.C,R29*
X107644000Y-113545252D02*
X107644000Y-113022748D01*
X106224000Y-113545252D02*
X106224000Y-113022748D01*
G04 #@! TO.C,D9*
X144587200Y-133892400D02*
X144587200Y-138192400D01*
X144587200Y-138192400D02*
X138887200Y-138192400D01*
X144587200Y-133892400D02*
X138887200Y-133892400D01*
G04 #@! TO.C,C12*
X152407252Y-123445200D02*
X151884748Y-123445200D01*
X152407252Y-124865200D02*
X151884748Y-124865200D01*
G04 #@! TO.C,C7*
X116339252Y-128853000D02*
X115816748Y-128853000D01*
X116339252Y-127433000D02*
X115816748Y-127433000D01*
G04 #@! TO.C,C9*
X124001600Y-113596052D02*
X124001600Y-113073548D01*
X122581600Y-113596052D02*
X122581600Y-113073548D01*
G04 #@! TO.C,C10*
X128618348Y-115977600D02*
X129140852Y-115977600D01*
X128618348Y-117397600D02*
X129140852Y-117397600D01*
G04 #@! TO.C,C8*
X137137200Y-120714800D02*
X141522200Y-120714800D01*
X141522200Y-120714800D02*
X141522200Y-123734800D01*
X141522200Y-123734800D02*
X137137200Y-123734800D01*
G04 #@! TO.C,J2*
X109140000Y-130515000D02*
X108340000Y-130515000D01*
X111640000Y-130515000D02*
X110840000Y-130515000D01*
X114040000Y-130515000D02*
X113340000Y-130515000D01*
X116640000Y-130515000D02*
X115840000Y-130515000D01*
X106640000Y-130515000D02*
X106440000Y-130515000D01*
X119140000Y-130515000D02*
X118340000Y-130515000D01*
X121640000Y-130515000D02*
X120840000Y-130515000D01*
X124040000Y-130515000D02*
X123340000Y-130515000D01*
X105670000Y-133835000D02*
X105670000Y-136135000D01*
X105670000Y-136135000D02*
X103370000Y-138435000D01*
X103370000Y-138435000D02*
X103370000Y-151735000D01*
X130210000Y-133835000D02*
X130210000Y-151735000D01*
X130210000Y-155335000D02*
X130210000Y-155755000D01*
X130210000Y-155755000D02*
X103370000Y-155755000D01*
X103370000Y-155755000D02*
X103370000Y-155335000D01*
G04 #@! TO.C,J1*
X133604000Y-151148000D02*
X133984000Y-151148000D01*
X133604000Y-155198000D02*
X133604000Y-155458000D01*
X133604000Y-151148000D02*
X133604000Y-152918000D01*
X141224000Y-151148000D02*
X140844000Y-151148000D01*
X141224000Y-152918000D02*
X141224000Y-151148000D01*
X141224000Y-155458000D02*
X141224000Y-155198000D01*
G04 #@! TO.C,D19*
X118598400Y-78715600D02*
X111698400Y-78715600D01*
X118598400Y-82015600D02*
X111698400Y-82015600D01*
X118598400Y-78715600D02*
X118598400Y-82015600D01*
G04 #@! TO.C,D2*
X131896400Y-145261600D02*
X138796400Y-145261600D01*
X131896400Y-141961600D02*
X138796400Y-141961600D01*
X131896400Y-145261600D02*
X131896400Y-141961600D01*
G04 #@! TO.C,D1*
X140544000Y-145670000D02*
X140544000Y-148970000D01*
X140544000Y-148970000D02*
X133644000Y-148970000D01*
X140544000Y-145670000D02*
X133644000Y-145670000D01*
G04 #@! TO.C,JP19*
X133158000Y-139411200D02*
G75*
G03X132458000Y-140111200I0J-700000D01*
G01*
X132458000Y-140711200D02*
G75*
G03X133158000Y-141411200I700000J0D01*
G01*
X134558000Y-141411200D02*
G75*
G03X135258000Y-140711200I0J700000D01*
G01*
X135258000Y-140111200D02*
G75*
G03X134558000Y-139411200I-700000J0D01*
G01*
X135258000Y-140711200D02*
X135258000Y-140111200D01*
X133158000Y-141411200D02*
X134558000Y-141411200D01*
X132458000Y-140111200D02*
X132458000Y-140711200D01*
X134558000Y-139411200D02*
X133158000Y-139411200D01*
G04 #@! TO.C,JP11*
X147156400Y-128997200D02*
X145756400Y-128997200D01*
X145056400Y-129697200D02*
X145056400Y-130297200D01*
X145756400Y-130997200D02*
X147156400Y-130997200D01*
X147856400Y-130297200D02*
X147856400Y-129697200D01*
X147856400Y-129697200D02*
G75*
G03X147156400Y-128997200I-700000J0D01*
G01*
X147156400Y-130997200D02*
G75*
G03X147856400Y-130297200I0J700000D01*
G01*
X145056400Y-130297200D02*
G75*
G03X145756400Y-130997200I700000J0D01*
G01*
X145756400Y-128997200D02*
G75*
G03X145056400Y-129697200I0J-700000D01*
G01*
G04 #@! TO.C,JP8*
X118094000Y-109536000D02*
G75*
G03X117394000Y-108836000I-700000J0D01*
G01*
X116794000Y-108836000D02*
G75*
G03X116094000Y-109536000I0J-700000D01*
G01*
X116094000Y-110936000D02*
G75*
G03X116794000Y-111636000I700000J0D01*
G01*
X117394000Y-111636000D02*
G75*
G03X118094000Y-110936000I0J700000D01*
G01*
X116794000Y-111636000D02*
X117394000Y-111636000D01*
X116094000Y-109536000D02*
X116094000Y-110936000D01*
X117394000Y-108836000D02*
X116794000Y-108836000D01*
X118094000Y-110936000D02*
X118094000Y-109536000D01*
D13*
G04 #@! TO.C,U1*
X153475800Y-127087400D02*
X153750800Y-127087400D01*
X153475800Y-134837400D02*
X153830800Y-134837400D01*
X164125800Y-134837400D02*
X163770800Y-134837400D01*
X164125800Y-127087400D02*
X163770800Y-127087400D01*
X153475800Y-127087400D02*
X153475800Y-134837400D01*
X164125800Y-127087400D02*
X164125800Y-134837400D01*
X153750800Y-127087400D02*
X153750800Y-125562400D01*
D12*
G04 #@! TO.C,U5*
X124453600Y-109138800D02*
X125713600Y-109138800D01*
X131273600Y-109138800D02*
X130013600Y-109138800D01*
X124453600Y-112898800D02*
X124453600Y-109138800D01*
X131273600Y-115148800D02*
X131273600Y-109138800D01*
G04 #@! TO.C,D8*
X128834000Y-80414400D02*
X127904000Y-80414400D01*
X125674000Y-80414400D02*
X126604000Y-80414400D01*
X125674000Y-80414400D02*
X125674000Y-78254400D01*
X128834000Y-80414400D02*
X128834000Y-78954400D01*
G04 #@! TO.C,D4*
X113228000Y-124716000D02*
X113228000Y-126176000D01*
X116388000Y-124716000D02*
X116388000Y-126876000D01*
X116388000Y-124716000D02*
X115458000Y-124716000D01*
X113228000Y-124716000D02*
X114158000Y-124716000D01*
G04 #@! TO.C,Q3*
X135529200Y-125935200D02*
X135529200Y-127395200D01*
X138689200Y-125935200D02*
X138689200Y-128095200D01*
X138689200Y-125935200D02*
X137759200Y-125935200D01*
X135529200Y-125935200D02*
X136459200Y-125935200D01*
G04 #@! TO.C,Q4*
X139999600Y-128881600D02*
X140929600Y-128881600D01*
X143159600Y-128881600D02*
X142229600Y-128881600D01*
X143159600Y-128881600D02*
X143159600Y-131041600D01*
X139999600Y-128881600D02*
X139999600Y-130341600D01*
G04 #@! TO.C,D3*
X128595000Y-124208000D02*
X128595000Y-125668000D01*
X131755000Y-124208000D02*
X131755000Y-126368000D01*
X131755000Y-124208000D02*
X130825000Y-124208000D01*
X128595000Y-124208000D02*
X129525000Y-124208000D01*
G04 #@! TO.C,D5*
X104211000Y-124462000D02*
X104211000Y-125922000D01*
X107371000Y-124462000D02*
X107371000Y-126622000D01*
X107371000Y-124462000D02*
X106441000Y-124462000D01*
X104211000Y-124462000D02*
X105141000Y-124462000D01*
G04 #@! TO.C,D7*
X120975000Y-124462000D02*
X120975000Y-125922000D01*
X124135000Y-124462000D02*
X124135000Y-126622000D01*
X124135000Y-124462000D02*
X123205000Y-124462000D01*
X120975000Y-124462000D02*
X121905000Y-124462000D01*
G04 #@! TO.C,D6*
X123754000Y-80414400D02*
X122824000Y-80414400D01*
X120594000Y-80414400D02*
X121524000Y-80414400D01*
X120594000Y-80414400D02*
X120594000Y-78254400D01*
X123754000Y-80414400D02*
X123754000Y-78954400D01*
G04 #@! TO.C,R10*
X102287000Y-124960748D02*
X102287000Y-125483252D01*
X103707000Y-124960748D02*
X103707000Y-125483252D01*
G04 #@! TO.C,R18*
X141927948Y-126389200D02*
X142450452Y-126389200D01*
X141927948Y-124969200D02*
X142450452Y-124969200D01*
G04 #@! TO.C,R17*
X141318348Y-131979600D02*
X141840852Y-131979600D01*
X141318348Y-133399600D02*
X141840852Y-133399600D01*
G04 #@! TO.C,R16*
X97890400Y-106534852D02*
X97890400Y-106012348D01*
X96470400Y-106534852D02*
X96470400Y-106012348D01*
G04 #@! TO.C,R15*
X96521200Y-110497252D02*
X96521200Y-109974748D01*
X97941200Y-110497252D02*
X97941200Y-109974748D01*
G04 #@! TO.C,R14*
X120471000Y-125087748D02*
X120471000Y-125610252D01*
X119051000Y-125087748D02*
X119051000Y-125610252D01*
G04 #@! TO.C,R11*
X124639000Y-124833748D02*
X124639000Y-125356252D01*
X126059000Y-124833748D02*
X126059000Y-125356252D01*
G04 #@! TO.C,R7*
X111304000Y-124960748D02*
X111304000Y-125483252D01*
X112724000Y-124960748D02*
X112724000Y-125483252D01*
G04 #@! TO.C,R6*
X118439000Y-125087748D02*
X118439000Y-125610252D01*
X117019000Y-125087748D02*
X117019000Y-125610252D01*
G04 #@! TO.C,R5*
X126671000Y-124833748D02*
X126671000Y-125356252D01*
X128091000Y-124833748D02*
X128091000Y-125356252D01*
G04 #@! TO.C,R4*
X133679000Y-124452748D02*
X133679000Y-124975252D01*
X132259000Y-124452748D02*
X132259000Y-124975252D01*
G04 #@! TO.C,R1*
X155643948Y-124865200D02*
X156166452Y-124865200D01*
X155643948Y-123445200D02*
X156166452Y-123445200D01*
G04 #@! TO.C,R8*
X109295000Y-124833748D02*
X109295000Y-125356252D01*
X107875000Y-124833748D02*
X107875000Y-125356252D01*
D13*
G04 #@! TO.C,TP2*
X134399200Y-133177200D02*
X132199200Y-133177200D01*
X134399200Y-136977200D02*
X134399200Y-133177200D01*
X132199200Y-136977200D02*
X134399200Y-136977200D01*
X132199200Y-133177200D02*
X132199200Y-136977200D01*
G04 #@! TO.C,TP1*
X136784000Y-141460400D02*
X140584000Y-141460400D01*
X140584000Y-141460400D02*
X140584000Y-139260400D01*
X140584000Y-139260400D02*
X136784000Y-139260400D01*
X136784000Y-139260400D02*
X136784000Y-141460400D01*
G04 #@! TO.C,TP3*
X101986000Y-107053200D02*
X101986000Y-109253200D01*
X105786000Y-107053200D02*
X101986000Y-107053200D01*
X105786000Y-109253200D02*
X105786000Y-107053200D01*
X101986000Y-109253200D02*
X105786000Y-109253200D01*
G04 #@! TO.C,TP4*
X131856400Y-114892000D02*
X135656400Y-114892000D01*
X135656400Y-114892000D02*
X135656400Y-112692000D01*
X135656400Y-112692000D02*
X131856400Y-112692000D01*
X131856400Y-112692000D02*
X131856400Y-114892000D01*
G04 #@! TO.C,TP7*
X109812000Y-117327600D02*
X107612000Y-117327600D01*
X109812000Y-121127600D02*
X109812000Y-117327600D01*
X107612000Y-121127600D02*
X109812000Y-121127600D01*
X107612000Y-117327600D02*
X107612000Y-121127600D01*
G04 #@! TO.C,TP10*
X115689200Y-117327600D02*
X115689200Y-121127600D01*
X115689200Y-121127600D02*
X117889200Y-121127600D01*
X117889200Y-121127600D02*
X117889200Y-117327600D01*
X117889200Y-117327600D02*
X115689200Y-117327600D01*
G04 #@! TO.C,TP11*
X120581600Y-117327600D02*
X118381600Y-117327600D01*
X120581600Y-121127600D02*
X120581600Y-117327600D01*
X118381600Y-121127600D02*
X120581600Y-121127600D01*
X118381600Y-117327600D02*
X118381600Y-121127600D01*
G04 #@! TO.C,TP12*
X123274000Y-121127600D02*
X123274000Y-117327600D01*
X123274000Y-117327600D02*
X121074000Y-117327600D01*
X121074000Y-117327600D02*
X121074000Y-121127600D01*
X121074000Y-121127600D02*
X123274000Y-121127600D01*
G04 #@! TO.C,TP8*
X110304400Y-121127600D02*
X112504400Y-121127600D01*
X110304400Y-117327600D02*
X110304400Y-121127600D01*
X112504400Y-117327600D02*
X110304400Y-117327600D01*
X112504400Y-121127600D02*
X112504400Y-117327600D01*
G04 #@! TO.C,TP9*
X112996800Y-117327600D02*
X112996800Y-121127600D01*
X112996800Y-121127600D02*
X115196800Y-121127600D01*
X115196800Y-121127600D02*
X115196800Y-117327600D01*
X115196800Y-117327600D02*
X112996800Y-117327600D01*
G04 #@! TO.C,TP13*
X134294800Y-129049600D02*
X134294800Y-131249600D01*
X138094800Y-129049600D02*
X134294800Y-129049600D01*
X138094800Y-131249600D02*
X138094800Y-129049600D01*
X134294800Y-131249600D02*
X138094800Y-131249600D01*
G04 #@! TO.C,TP14*
X140289200Y-79230400D02*
X144089200Y-79230400D01*
X144089200Y-79230400D02*
X144089200Y-77030400D01*
X144089200Y-77030400D02*
X140289200Y-77030400D01*
X140289200Y-77030400D02*
X140289200Y-79230400D01*
G04 #@! TO.C,D11*
X148209000Y-155524200D02*
X147828000Y-155524200D01*
X148209000Y-153746200D02*
X148209000Y-155524200D01*
X147828000Y-153746200D02*
X148209000Y-153746200D01*
X143764000Y-153746200D02*
X143891000Y-153746200D01*
X143764000Y-155524200D02*
X143764000Y-153746200D01*
X143891000Y-155524200D02*
X143764000Y-155524200D01*
X147828000Y-155524200D02*
X143891000Y-155524200D01*
X147828000Y-153746200D02*
X147828000Y-155524200D01*
X143891000Y-153746200D02*
X147828000Y-153746200D01*
G04 #@! TO.C,D14*
X171577000Y-155524200D02*
X171196000Y-155524200D01*
X171577000Y-153746200D02*
X171577000Y-155524200D01*
X171196000Y-153746200D02*
X171577000Y-153746200D01*
X167132000Y-153746200D02*
X167259000Y-153746200D01*
X167132000Y-155524200D02*
X167132000Y-153746200D01*
X167259000Y-155524200D02*
X167132000Y-155524200D01*
X171196000Y-155524200D02*
X167259000Y-155524200D01*
X171196000Y-153746200D02*
X171196000Y-155524200D01*
X167259000Y-153746200D02*
X171196000Y-153746200D01*
G04 #@! TO.C,C19*
X105715342Y-110812342D02*
X105762961Y-110764723D01*
X105810580Y-110621866D01*
X105810580Y-110526628D01*
X105762961Y-110383771D01*
X105667723Y-110288533D01*
X105572485Y-110240914D01*
X105382009Y-110193295D01*
X105239152Y-110193295D01*
X105048676Y-110240914D01*
X104953438Y-110288533D01*
X104858200Y-110383771D01*
X104810580Y-110526628D01*
X104810580Y-110621866D01*
X104858200Y-110764723D01*
X104905819Y-110812342D01*
X105810580Y-111764723D02*
X105810580Y-111193295D01*
X105810580Y-111479009D02*
X104810580Y-111479009D01*
X104953438Y-111383771D01*
X105048676Y-111288533D01*
X105096295Y-111193295D01*
X105810580Y-112240914D02*
X105810580Y-112431390D01*
X105762961Y-112526628D01*
X105715342Y-112574247D01*
X105572485Y-112669485D01*
X105382009Y-112717104D01*
X105001057Y-112717104D01*
X104905819Y-112669485D01*
X104858200Y-112621866D01*
X104810580Y-112526628D01*
X104810580Y-112336152D01*
X104858200Y-112240914D01*
X104905819Y-112193295D01*
X105001057Y-112145676D01*
X105239152Y-112145676D01*
X105334390Y-112193295D01*
X105382009Y-112240914D01*
X105429628Y-112336152D01*
X105429628Y-112526628D01*
X105382009Y-112621866D01*
X105334390Y-112669485D01*
X105239152Y-112717104D01*
G04 #@! TO.C,BT1*
X171115028Y-147610414D02*
X171067409Y-147467557D01*
X171019790Y-147419938D01*
X170924552Y-147372319D01*
X170781695Y-147372319D01*
X170686457Y-147419938D01*
X170638838Y-147467557D01*
X170591219Y-147562795D01*
X170591219Y-147943747D01*
X171591219Y-147943747D01*
X171591219Y-147610414D01*
X171543600Y-147515176D01*
X171495980Y-147467557D01*
X171400742Y-147419938D01*
X171305504Y-147419938D01*
X171210266Y-147467557D01*
X171162647Y-147515176D01*
X171115028Y-147610414D01*
X171115028Y-147943747D01*
X171591219Y-147086604D02*
X171591219Y-146515176D01*
X170591219Y-146800890D02*
X171591219Y-146800890D01*
X170591219Y-145658033D02*
X170591219Y-146229461D01*
X170591219Y-145943747D02*
X171591219Y-145943747D01*
X171448361Y-146038985D01*
X171353123Y-146134223D01*
X171305504Y-146229461D01*
G04 #@! TO.C,FD4*
X170565771Y-72928266D02*
X170565771Y-72594933D01*
X171089580Y-72594933D02*
X170089580Y-72594933D01*
X170089580Y-73071123D01*
X171089580Y-73452076D02*
X170089580Y-73452076D01*
X170089580Y-73690171D01*
X170137200Y-73833028D01*
X170232438Y-73928266D01*
X170327676Y-73975885D01*
X170518152Y-74023504D01*
X170661009Y-74023504D01*
X170851485Y-73975885D01*
X170946723Y-73928266D01*
X171041961Y-73833028D01*
X171089580Y-73690171D01*
X171089580Y-73452076D01*
X170422914Y-74880647D02*
X171089580Y-74880647D01*
X170041961Y-74642552D02*
X170756247Y-74404457D01*
X170756247Y-75023504D01*
G04 #@! TO.C,FD6*
X96702571Y-148213866D02*
X96702571Y-147880533D01*
X97226380Y-147880533D02*
X96226380Y-147880533D01*
X96226380Y-148356723D01*
X97226380Y-148737676D02*
X96226380Y-148737676D01*
X96226380Y-148975771D01*
X96274000Y-149118628D01*
X96369238Y-149213866D01*
X96464476Y-149261485D01*
X96654952Y-149309104D01*
X96797809Y-149309104D01*
X96988285Y-149261485D01*
X97083523Y-149213866D01*
X97178761Y-149118628D01*
X97226380Y-148975771D01*
X97226380Y-148737676D01*
X96226380Y-150166247D02*
X96226380Y-149975771D01*
X96274000Y-149880533D01*
X96321619Y-149832914D01*
X96464476Y-149737676D01*
X96654952Y-149690057D01*
X97035904Y-149690057D01*
X97131142Y-149737676D01*
X97178761Y-149785295D01*
X97226380Y-149880533D01*
X97226380Y-150071009D01*
X97178761Y-150166247D01*
X97131142Y-150213866D01*
X97035904Y-150261485D01*
X96797809Y-150261485D01*
X96702571Y-150213866D01*
X96654952Y-150166247D01*
X96607333Y-150071009D01*
X96607333Y-149880533D01*
X96654952Y-149785295D01*
X96702571Y-149737676D01*
X96797809Y-149690057D01*
G04 #@! TO.C,FD5*
X96600971Y-72623466D02*
X96600971Y-72290133D01*
X97124780Y-72290133D02*
X96124780Y-72290133D01*
X96124780Y-72766323D01*
X97124780Y-73147276D02*
X96124780Y-73147276D01*
X96124780Y-73385371D01*
X96172400Y-73528228D01*
X96267638Y-73623466D01*
X96362876Y-73671085D01*
X96553352Y-73718704D01*
X96696209Y-73718704D01*
X96886685Y-73671085D01*
X96981923Y-73623466D01*
X97077161Y-73528228D01*
X97124780Y-73385371D01*
X97124780Y-73147276D01*
X96124780Y-74623466D02*
X96124780Y-74147276D01*
X96600971Y-74099657D01*
X96553352Y-74147276D01*
X96505733Y-74242514D01*
X96505733Y-74480609D01*
X96553352Y-74575847D01*
X96600971Y-74623466D01*
X96696209Y-74671085D01*
X96934304Y-74671085D01*
X97029542Y-74623466D01*
X97077161Y-74575847D01*
X97124780Y-74480609D01*
X97124780Y-74242514D01*
X97077161Y-74147276D01*
X97029542Y-74099657D01*
G04 #@! TO.C,U7*
X105984380Y-114858895D02*
X106793904Y-114858895D01*
X106889142Y-114906514D01*
X106936761Y-114954133D01*
X106984380Y-115049371D01*
X106984380Y-115239847D01*
X106936761Y-115335085D01*
X106889142Y-115382704D01*
X106793904Y-115430323D01*
X105984380Y-115430323D01*
X105984380Y-115811276D02*
X105984380Y-116477942D01*
X106984380Y-116049371D01*
G04 #@! TO.C,R29*
X109036380Y-112641142D02*
X108560190Y-112307809D01*
X109036380Y-112069714D02*
X108036380Y-112069714D01*
X108036380Y-112450666D01*
X108084000Y-112545904D01*
X108131619Y-112593523D01*
X108226857Y-112641142D01*
X108369714Y-112641142D01*
X108464952Y-112593523D01*
X108512571Y-112545904D01*
X108560190Y-112450666D01*
X108560190Y-112069714D01*
X108131619Y-113022095D02*
X108084000Y-113069714D01*
X108036380Y-113164952D01*
X108036380Y-113403047D01*
X108084000Y-113498285D01*
X108131619Y-113545904D01*
X108226857Y-113593523D01*
X108322095Y-113593523D01*
X108464952Y-113545904D01*
X109036380Y-112974476D01*
X109036380Y-113593523D01*
X109036380Y-114069714D02*
X109036380Y-114260190D01*
X108988761Y-114355428D01*
X108941142Y-114403047D01*
X108798285Y-114498285D01*
X108607809Y-114545904D01*
X108226857Y-114545904D01*
X108131619Y-114498285D01*
X108084000Y-114450666D01*
X108036380Y-114355428D01*
X108036380Y-114164952D01*
X108084000Y-114069714D01*
X108131619Y-114022095D01*
X108226857Y-113974476D01*
X108464952Y-113974476D01*
X108560190Y-114022095D01*
X108607809Y-114069714D01*
X108655428Y-114164952D01*
X108655428Y-114355428D01*
X108607809Y-114450666D01*
X108560190Y-114498285D01*
X108464952Y-114545904D01*
G04 #@! TO.C,D9*
X146499695Y-136139180D02*
X146499695Y-135139180D01*
X146261600Y-135139180D01*
X146118742Y-135186800D01*
X146023504Y-135282038D01*
X145975885Y-135377276D01*
X145928266Y-135567752D01*
X145928266Y-135710609D01*
X145975885Y-135901085D01*
X146023504Y-135996323D01*
X146118742Y-136091561D01*
X146261600Y-136139180D01*
X146499695Y-136139180D01*
X145452076Y-136139180D02*
X145261600Y-136139180D01*
X145166361Y-136091561D01*
X145118742Y-136043942D01*
X145023504Y-135901085D01*
X144975885Y-135710609D01*
X144975885Y-135329657D01*
X145023504Y-135234419D01*
X145071123Y-135186800D01*
X145166361Y-135139180D01*
X145356838Y-135139180D01*
X145452076Y-135186800D01*
X145499695Y-135234419D01*
X145547314Y-135329657D01*
X145547314Y-135567752D01*
X145499695Y-135662990D01*
X145452076Y-135710609D01*
X145356838Y-135758228D01*
X145166361Y-135758228D01*
X145071123Y-135710609D01*
X145023504Y-135662990D01*
X144975885Y-135567752D01*
G04 #@! TO.C,C12*
X152788857Y-122862342D02*
X152836476Y-122909961D01*
X152979333Y-122957580D01*
X153074571Y-122957580D01*
X153217428Y-122909961D01*
X153312666Y-122814723D01*
X153360285Y-122719485D01*
X153407904Y-122529009D01*
X153407904Y-122386152D01*
X153360285Y-122195676D01*
X153312666Y-122100438D01*
X153217428Y-122005200D01*
X153074571Y-121957580D01*
X152979333Y-121957580D01*
X152836476Y-122005200D01*
X152788857Y-122052819D01*
X151836476Y-122957580D02*
X152407904Y-122957580D01*
X152122190Y-122957580D02*
X152122190Y-121957580D01*
X152217428Y-122100438D01*
X152312666Y-122195676D01*
X152407904Y-122243295D01*
X151455523Y-122052819D02*
X151407904Y-122005200D01*
X151312666Y-121957580D01*
X151074571Y-121957580D01*
X150979333Y-122005200D01*
X150931714Y-122052819D01*
X150884095Y-122148057D01*
X150884095Y-122243295D01*
X150931714Y-122386152D01*
X151503142Y-122957580D01*
X150884095Y-122957580D01*
G04 #@! TO.C,C7*
X119165666Y-128627142D02*
X119213285Y-128674761D01*
X119356142Y-128722380D01*
X119451380Y-128722380D01*
X119594238Y-128674761D01*
X119689476Y-128579523D01*
X119737095Y-128484285D01*
X119784714Y-128293809D01*
X119784714Y-128150952D01*
X119737095Y-127960476D01*
X119689476Y-127865238D01*
X119594238Y-127770000D01*
X119451380Y-127722380D01*
X119356142Y-127722380D01*
X119213285Y-127770000D01*
X119165666Y-127817619D01*
X118832333Y-127722380D02*
X118165666Y-127722380D01*
X118594238Y-128722380D01*
G04 #@! TO.C,C9*
X121629466Y-112980742D02*
X121677085Y-113028361D01*
X121819942Y-113075980D01*
X121915180Y-113075980D01*
X122058038Y-113028361D01*
X122153276Y-112933123D01*
X122200895Y-112837885D01*
X122248514Y-112647409D01*
X122248514Y-112504552D01*
X122200895Y-112314076D01*
X122153276Y-112218838D01*
X122058038Y-112123600D01*
X121915180Y-112075980D01*
X121819942Y-112075980D01*
X121677085Y-112123600D01*
X121629466Y-112171219D01*
X121153276Y-113075980D02*
X120962800Y-113075980D01*
X120867561Y-113028361D01*
X120819942Y-112980742D01*
X120724704Y-112837885D01*
X120677085Y-112647409D01*
X120677085Y-112266457D01*
X120724704Y-112171219D01*
X120772323Y-112123600D01*
X120867561Y-112075980D01*
X121058038Y-112075980D01*
X121153276Y-112123600D01*
X121200895Y-112171219D01*
X121248514Y-112266457D01*
X121248514Y-112504552D01*
X121200895Y-112599790D01*
X121153276Y-112647409D01*
X121058038Y-112695028D01*
X120867561Y-112695028D01*
X120772323Y-112647409D01*
X120724704Y-112599790D01*
X120677085Y-112504552D01*
G04 #@! TO.C,C10*
X132875257Y-117247942D02*
X132922876Y-117295561D01*
X133065733Y-117343180D01*
X133160971Y-117343180D01*
X133303828Y-117295561D01*
X133399066Y-117200323D01*
X133446685Y-117105085D01*
X133494304Y-116914609D01*
X133494304Y-116771752D01*
X133446685Y-116581276D01*
X133399066Y-116486038D01*
X133303828Y-116390800D01*
X133160971Y-116343180D01*
X133065733Y-116343180D01*
X132922876Y-116390800D01*
X132875257Y-116438419D01*
X131922876Y-117343180D02*
X132494304Y-117343180D01*
X132208590Y-117343180D02*
X132208590Y-116343180D01*
X132303828Y-116486038D01*
X132399066Y-116581276D01*
X132494304Y-116628895D01*
X131303828Y-116343180D02*
X131208590Y-116343180D01*
X131113352Y-116390800D01*
X131065733Y-116438419D01*
X131018114Y-116533657D01*
X130970495Y-116724133D01*
X130970495Y-116962228D01*
X131018114Y-117152704D01*
X131065733Y-117247942D01*
X131113352Y-117295561D01*
X131208590Y-117343180D01*
X131303828Y-117343180D01*
X131399066Y-117295561D01*
X131446685Y-117247942D01*
X131494304Y-117152704D01*
X131541923Y-116962228D01*
X131541923Y-116724133D01*
X131494304Y-116533657D01*
X131446685Y-116438419D01*
X131399066Y-116390800D01*
X131303828Y-116343180D01*
G04 #@! TO.C,C8*
X139053866Y-120231942D02*
X139101485Y-120279561D01*
X139244342Y-120327180D01*
X139339580Y-120327180D01*
X139482438Y-120279561D01*
X139577676Y-120184323D01*
X139625295Y-120089085D01*
X139672914Y-119898609D01*
X139672914Y-119755752D01*
X139625295Y-119565276D01*
X139577676Y-119470038D01*
X139482438Y-119374800D01*
X139339580Y-119327180D01*
X139244342Y-119327180D01*
X139101485Y-119374800D01*
X139053866Y-119422419D01*
X138482438Y-119755752D02*
X138577676Y-119708133D01*
X138625295Y-119660514D01*
X138672914Y-119565276D01*
X138672914Y-119517657D01*
X138625295Y-119422419D01*
X138577676Y-119374800D01*
X138482438Y-119327180D01*
X138291961Y-119327180D01*
X138196723Y-119374800D01*
X138149104Y-119422419D01*
X138101485Y-119517657D01*
X138101485Y-119565276D01*
X138149104Y-119660514D01*
X138196723Y-119708133D01*
X138291961Y-119755752D01*
X138482438Y-119755752D01*
X138577676Y-119803371D01*
X138625295Y-119850990D01*
X138672914Y-119946228D01*
X138672914Y-120136704D01*
X138625295Y-120231942D01*
X138577676Y-120279561D01*
X138482438Y-120327180D01*
X138291961Y-120327180D01*
X138196723Y-120279561D01*
X138149104Y-120231942D01*
X138101485Y-120136704D01*
X138101485Y-119946228D01*
X138149104Y-119850990D01*
X138196723Y-119803371D01*
X138291961Y-119755752D01*
G04 #@! TO.C,J2*
X103203333Y-127819380D02*
X103203333Y-128533666D01*
X103250952Y-128676523D01*
X103346190Y-128771761D01*
X103489047Y-128819380D01*
X103584285Y-128819380D01*
X102774761Y-127914619D02*
X102727142Y-127867000D01*
X102631904Y-127819380D01*
X102393809Y-127819380D01*
X102298571Y-127867000D01*
X102250952Y-127914619D01*
X102203333Y-128009857D01*
X102203333Y-128105095D01*
X102250952Y-128247952D01*
X102822380Y-128819380D01*
X102203333Y-128819380D01*
G04 #@! TO.C,J1*
X143081333Y-152361180D02*
X143081333Y-153075466D01*
X143128952Y-153218323D01*
X143224190Y-153313561D01*
X143367047Y-153361180D01*
X143462285Y-153361180D01*
X142081333Y-153361180D02*
X142652761Y-153361180D01*
X142367047Y-153361180D02*
X142367047Y-152361180D01*
X142462285Y-152504038D01*
X142557523Y-152599276D01*
X142652761Y-152646895D01*
G04 #@! TO.C,D19*
X115412685Y-78317980D02*
X115412685Y-77317980D01*
X115174590Y-77317980D01*
X115031733Y-77365600D01*
X114936495Y-77460838D01*
X114888876Y-77556076D01*
X114841257Y-77746552D01*
X114841257Y-77889409D01*
X114888876Y-78079885D01*
X114936495Y-78175123D01*
X115031733Y-78270361D01*
X115174590Y-78317980D01*
X115412685Y-78317980D01*
X113888876Y-78317980D02*
X114460304Y-78317980D01*
X114174590Y-78317980D02*
X114174590Y-77317980D01*
X114269828Y-77460838D01*
X114365066Y-77556076D01*
X114460304Y-77603695D01*
X113412685Y-78317980D02*
X113222209Y-78317980D01*
X113126971Y-78270361D01*
X113079352Y-78222742D01*
X112984114Y-78079885D01*
X112936495Y-77889409D01*
X112936495Y-77508457D01*
X112984114Y-77413219D01*
X113031733Y-77365600D01*
X113126971Y-77317980D01*
X113317447Y-77317980D01*
X113412685Y-77365600D01*
X113460304Y-77413219D01*
X113507923Y-77508457D01*
X113507923Y-77746552D01*
X113460304Y-77841790D01*
X113412685Y-77889409D01*
X113317447Y-77937028D01*
X113126971Y-77937028D01*
X113031733Y-77889409D01*
X112984114Y-77841790D01*
X112936495Y-77746552D01*
G04 #@! TO.C,D2*
X142520895Y-144152880D02*
X142520895Y-143152880D01*
X142282800Y-143152880D01*
X142139942Y-143200500D01*
X142044704Y-143295738D01*
X141997085Y-143390976D01*
X141949466Y-143581452D01*
X141949466Y-143724309D01*
X141997085Y-143914785D01*
X142044704Y-144010023D01*
X142139942Y-144105261D01*
X142282800Y-144152880D01*
X142520895Y-144152880D01*
X141568514Y-143248119D02*
X141520895Y-143200500D01*
X141425657Y-143152880D01*
X141187561Y-143152880D01*
X141092323Y-143200500D01*
X141044704Y-143248119D01*
X140997085Y-143343357D01*
X140997085Y-143438595D01*
X141044704Y-143581452D01*
X141616133Y-144152880D01*
X140997085Y-144152880D01*
G04 #@! TO.C,D1*
X131446495Y-147873980D02*
X131446495Y-146873980D01*
X131208400Y-146873980D01*
X131065542Y-146921600D01*
X130970304Y-147016838D01*
X130922685Y-147112076D01*
X130875066Y-147302552D01*
X130875066Y-147445409D01*
X130922685Y-147635885D01*
X130970304Y-147731123D01*
X131065542Y-147826361D01*
X131208400Y-147873980D01*
X131446495Y-147873980D01*
X129922685Y-147873980D02*
X130494114Y-147873980D01*
X130208400Y-147873980D02*
X130208400Y-146873980D01*
X130303638Y-147016838D01*
X130398876Y-147112076D01*
X130494114Y-147159695D01*
G04 #@! TO.C,JP19*
X134964323Y-137729980D02*
X134964323Y-138444266D01*
X135011942Y-138587123D01*
X135107180Y-138682361D01*
X135250038Y-138729980D01*
X135345276Y-138729980D01*
X134488133Y-138729980D02*
X134488133Y-137729980D01*
X134107180Y-137729980D01*
X134011942Y-137777600D01*
X133964323Y-137825219D01*
X133916704Y-137920457D01*
X133916704Y-138063314D01*
X133964323Y-138158552D01*
X134011942Y-138206171D01*
X134107180Y-138253790D01*
X134488133Y-138253790D01*
X132964323Y-138729980D02*
X133535752Y-138729980D01*
X133250038Y-138729980D02*
X133250038Y-137729980D01*
X133345276Y-137872838D01*
X133440514Y-137968076D01*
X133535752Y-138015695D01*
X132488133Y-138729980D02*
X132297657Y-138729980D01*
X132202419Y-138682361D01*
X132154800Y-138634742D01*
X132059561Y-138491885D01*
X132011942Y-138301409D01*
X132011942Y-137920457D01*
X132059561Y-137825219D01*
X132107180Y-137777600D01*
X132202419Y-137729980D01*
X132392895Y-137729980D01*
X132488133Y-137777600D01*
X132535752Y-137825219D01*
X132583371Y-137920457D01*
X132583371Y-138158552D01*
X132535752Y-138253790D01*
X132488133Y-138301409D01*
X132392895Y-138349028D01*
X132202419Y-138349028D01*
X132107180Y-138301409D01*
X132059561Y-138253790D01*
X132011942Y-138158552D01*
G04 #@! TO.C,JP11*
X147715123Y-131583180D02*
X147715123Y-132297466D01*
X147762742Y-132440323D01*
X147857980Y-132535561D01*
X148000838Y-132583180D01*
X148096076Y-132583180D01*
X147238933Y-132583180D02*
X147238933Y-131583180D01*
X146857980Y-131583180D01*
X146762742Y-131630800D01*
X146715123Y-131678419D01*
X146667504Y-131773657D01*
X146667504Y-131916514D01*
X146715123Y-132011752D01*
X146762742Y-132059371D01*
X146857980Y-132106990D01*
X147238933Y-132106990D01*
X145715123Y-132583180D02*
X146286552Y-132583180D01*
X146000838Y-132583180D02*
X146000838Y-131583180D01*
X146096076Y-131726038D01*
X146191314Y-131821276D01*
X146286552Y-131868895D01*
X144762742Y-132583180D02*
X145334171Y-132583180D01*
X145048457Y-132583180D02*
X145048457Y-131583180D01*
X145143695Y-131726038D01*
X145238933Y-131821276D01*
X145334171Y-131868895D01*
G04 #@! TO.C,JP8*
X120213333Y-109739180D02*
X120213333Y-110453466D01*
X120260952Y-110596323D01*
X120356190Y-110691561D01*
X120499047Y-110739180D01*
X120594285Y-110739180D01*
X119737142Y-110739180D02*
X119737142Y-109739180D01*
X119356190Y-109739180D01*
X119260952Y-109786800D01*
X119213333Y-109834419D01*
X119165714Y-109929657D01*
X119165714Y-110072514D01*
X119213333Y-110167752D01*
X119260952Y-110215371D01*
X119356190Y-110262990D01*
X119737142Y-110262990D01*
X118594285Y-110167752D02*
X118689523Y-110120133D01*
X118737142Y-110072514D01*
X118784761Y-109977276D01*
X118784761Y-109929657D01*
X118737142Y-109834419D01*
X118689523Y-109786800D01*
X118594285Y-109739180D01*
X118403809Y-109739180D01*
X118308571Y-109786800D01*
X118260952Y-109834419D01*
X118213333Y-109929657D01*
X118213333Y-109977276D01*
X118260952Y-110072514D01*
X118308571Y-110120133D01*
X118403809Y-110167752D01*
X118594285Y-110167752D01*
X118689523Y-110215371D01*
X118737142Y-110262990D01*
X118784761Y-110358228D01*
X118784761Y-110548704D01*
X118737142Y-110643942D01*
X118689523Y-110691561D01*
X118594285Y-110739180D01*
X118403809Y-110739180D01*
X118308571Y-110691561D01*
X118260952Y-110643942D01*
X118213333Y-110548704D01*
X118213333Y-110358228D01*
X118260952Y-110262990D01*
X118308571Y-110215371D01*
X118403809Y-110167752D01*
G04 #@! TO.C,U1*
X152003180Y-130200495D02*
X152812704Y-130200495D01*
X152907942Y-130248114D01*
X152955561Y-130295733D01*
X153003180Y-130390971D01*
X153003180Y-130581447D01*
X152955561Y-130676685D01*
X152907942Y-130724304D01*
X152812704Y-130771923D01*
X152003180Y-130771923D01*
X153003180Y-131771923D02*
X153003180Y-131200495D01*
X153003180Y-131486209D02*
X152003180Y-131486209D01*
X152146038Y-131390971D01*
X152241276Y-131295733D01*
X152288895Y-131200495D01*
G04 #@! TO.C,U5*
X131815980Y-110286895D02*
X132625504Y-110286895D01*
X132720742Y-110334514D01*
X132768361Y-110382133D01*
X132815980Y-110477371D01*
X132815980Y-110667847D01*
X132768361Y-110763085D01*
X132720742Y-110810704D01*
X132625504Y-110858323D01*
X131815980Y-110858323D01*
X131815980Y-111810704D02*
X131815980Y-111334514D01*
X132292171Y-111286895D01*
X132244552Y-111334514D01*
X132196933Y-111429752D01*
X132196933Y-111667847D01*
X132244552Y-111763085D01*
X132292171Y-111810704D01*
X132387409Y-111858323D01*
X132625504Y-111858323D01*
X132720742Y-111810704D01*
X132768361Y-111763085D01*
X132815980Y-111667847D01*
X132815980Y-111429752D01*
X132768361Y-111334514D01*
X132720742Y-111286895D01*
G04 #@! TO.C,D8*
X130633695Y-79649580D02*
X130633695Y-78649580D01*
X130395600Y-78649580D01*
X130252742Y-78697200D01*
X130157504Y-78792438D01*
X130109885Y-78887676D01*
X130062266Y-79078152D01*
X130062266Y-79221009D01*
X130109885Y-79411485D01*
X130157504Y-79506723D01*
X130252742Y-79601961D01*
X130395600Y-79649580D01*
X130633695Y-79649580D01*
X129490838Y-79078152D02*
X129586076Y-79030533D01*
X129633695Y-78982914D01*
X129681314Y-78887676D01*
X129681314Y-78840057D01*
X129633695Y-78744819D01*
X129586076Y-78697200D01*
X129490838Y-78649580D01*
X129300361Y-78649580D01*
X129205123Y-78697200D01*
X129157504Y-78744819D01*
X129109885Y-78840057D01*
X129109885Y-78887676D01*
X129157504Y-78982914D01*
X129205123Y-79030533D01*
X129300361Y-79078152D01*
X129490838Y-79078152D01*
X129586076Y-79125771D01*
X129633695Y-79173390D01*
X129681314Y-79268628D01*
X129681314Y-79459104D01*
X129633695Y-79554342D01*
X129586076Y-79601961D01*
X129490838Y-79649580D01*
X129300361Y-79649580D01*
X129205123Y-79601961D01*
X129157504Y-79554342D01*
X129109885Y-79459104D01*
X129109885Y-79268628D01*
X129157504Y-79173390D01*
X129205123Y-79125771D01*
X129300361Y-79078152D01*
G04 #@! TO.C,D4*
X115260380Y-122070904D02*
X114260380Y-122070904D01*
X114260380Y-122309000D01*
X114308000Y-122451857D01*
X114403238Y-122547095D01*
X114498476Y-122594714D01*
X114688952Y-122642333D01*
X114831809Y-122642333D01*
X115022285Y-122594714D01*
X115117523Y-122547095D01*
X115212761Y-122451857D01*
X115260380Y-122309000D01*
X115260380Y-122070904D01*
X114593714Y-123499476D02*
X115260380Y-123499476D01*
X114212761Y-123261380D02*
X114927047Y-123023285D01*
X114927047Y-123642333D01*
G04 #@! TO.C,Q3*
X140156819Y-126599961D02*
X140109200Y-126504723D01*
X140013961Y-126409485D01*
X139871104Y-126266628D01*
X139823485Y-126171390D01*
X139823485Y-126076152D01*
X140061580Y-126123771D02*
X140013961Y-126028533D01*
X139918723Y-125933295D01*
X139728247Y-125885676D01*
X139394914Y-125885676D01*
X139204438Y-125933295D01*
X139109200Y-126028533D01*
X139061580Y-126123771D01*
X139061580Y-126314247D01*
X139109200Y-126409485D01*
X139204438Y-126504723D01*
X139394914Y-126552342D01*
X139728247Y-126552342D01*
X139918723Y-126504723D01*
X140013961Y-126409485D01*
X140061580Y-126314247D01*
X140061580Y-126123771D01*
X139061580Y-126885676D02*
X139061580Y-127504723D01*
X139442533Y-127171390D01*
X139442533Y-127314247D01*
X139490152Y-127409485D01*
X139537771Y-127457104D01*
X139633009Y-127504723D01*
X139871104Y-127504723D01*
X139966342Y-127457104D01*
X140013961Y-127409485D01*
X140061580Y-127314247D01*
X140061580Y-127028533D01*
X140013961Y-126933295D01*
X139966342Y-126885676D01*
G04 #@! TO.C,Q4*
X144627219Y-129546361D02*
X144579600Y-129451123D01*
X144484361Y-129355885D01*
X144341504Y-129213028D01*
X144293885Y-129117790D01*
X144293885Y-129022552D01*
X144531980Y-129070171D02*
X144484361Y-128974933D01*
X144389123Y-128879695D01*
X144198647Y-128832076D01*
X143865314Y-128832076D01*
X143674838Y-128879695D01*
X143579600Y-128974933D01*
X143531980Y-129070171D01*
X143531980Y-129260647D01*
X143579600Y-129355885D01*
X143674838Y-129451123D01*
X143865314Y-129498742D01*
X144198647Y-129498742D01*
X144389123Y-129451123D01*
X144484361Y-129355885D01*
X144531980Y-129260647D01*
X144531980Y-129070171D01*
X143865314Y-130355885D02*
X144531980Y-130355885D01*
X143484361Y-130117790D02*
X144198647Y-129879695D01*
X144198647Y-130498742D01*
G04 #@! TO.C,D3*
X130627380Y-121435904D02*
X129627380Y-121435904D01*
X129627380Y-121674000D01*
X129675000Y-121816857D01*
X129770238Y-121912095D01*
X129865476Y-121959714D01*
X130055952Y-122007333D01*
X130198809Y-122007333D01*
X130389285Y-121959714D01*
X130484523Y-121912095D01*
X130579761Y-121816857D01*
X130627380Y-121674000D01*
X130627380Y-121435904D01*
X129627380Y-122340666D02*
X129627380Y-122959714D01*
X130008333Y-122626380D01*
X130008333Y-122769238D01*
X130055952Y-122864476D01*
X130103571Y-122912095D01*
X130198809Y-122959714D01*
X130436904Y-122959714D01*
X130532142Y-122912095D01*
X130579761Y-122864476D01*
X130627380Y-122769238D01*
X130627380Y-122483523D01*
X130579761Y-122388285D01*
X130532142Y-122340666D01*
G04 #@! TO.C,D5*
X106370380Y-121816904D02*
X105370380Y-121816904D01*
X105370380Y-122055000D01*
X105418000Y-122197857D01*
X105513238Y-122293095D01*
X105608476Y-122340714D01*
X105798952Y-122388333D01*
X105941809Y-122388333D01*
X106132285Y-122340714D01*
X106227523Y-122293095D01*
X106322761Y-122197857D01*
X106370380Y-122055000D01*
X106370380Y-121816904D01*
X105370380Y-123293095D02*
X105370380Y-122816904D01*
X105846571Y-122769285D01*
X105798952Y-122816904D01*
X105751333Y-122912142D01*
X105751333Y-123150238D01*
X105798952Y-123245476D01*
X105846571Y-123293095D01*
X105941809Y-123340714D01*
X106179904Y-123340714D01*
X106275142Y-123293095D01*
X106322761Y-123245476D01*
X106370380Y-123150238D01*
X106370380Y-122912142D01*
X106322761Y-122816904D01*
X106275142Y-122769285D01*
G04 #@! TO.C,D7*
X123134380Y-121689904D02*
X122134380Y-121689904D01*
X122134380Y-121928000D01*
X122182000Y-122070857D01*
X122277238Y-122166095D01*
X122372476Y-122213714D01*
X122562952Y-122261333D01*
X122705809Y-122261333D01*
X122896285Y-122213714D01*
X122991523Y-122166095D01*
X123086761Y-122070857D01*
X123134380Y-121928000D01*
X123134380Y-121689904D01*
X122134380Y-122594666D02*
X122134380Y-123261333D01*
X123134380Y-122832761D01*
G04 #@! TO.C,D6*
X120321295Y-79598780D02*
X120321295Y-78598780D01*
X120083200Y-78598780D01*
X119940342Y-78646400D01*
X119845104Y-78741638D01*
X119797485Y-78836876D01*
X119749866Y-79027352D01*
X119749866Y-79170209D01*
X119797485Y-79360685D01*
X119845104Y-79455923D01*
X119940342Y-79551161D01*
X120083200Y-79598780D01*
X120321295Y-79598780D01*
X118892723Y-78598780D02*
X119083200Y-78598780D01*
X119178438Y-78646400D01*
X119226057Y-78694019D01*
X119321295Y-78836876D01*
X119368914Y-79027352D01*
X119368914Y-79408304D01*
X119321295Y-79503542D01*
X119273676Y-79551161D01*
X119178438Y-79598780D01*
X118987961Y-79598780D01*
X118892723Y-79551161D01*
X118845104Y-79503542D01*
X118797485Y-79408304D01*
X118797485Y-79170209D01*
X118845104Y-79074971D01*
X118892723Y-79027352D01*
X118987961Y-78979733D01*
X119178438Y-78979733D01*
X119273676Y-79027352D01*
X119321295Y-79074971D01*
X119368914Y-79170209D01*
G04 #@! TO.C,R10*
X103601780Y-121200942D02*
X103125590Y-120867609D01*
X103601780Y-120629514D02*
X102601780Y-120629514D01*
X102601780Y-121010466D01*
X102649400Y-121105704D01*
X102697019Y-121153323D01*
X102792257Y-121200942D01*
X102935114Y-121200942D01*
X103030352Y-121153323D01*
X103077971Y-121105704D01*
X103125590Y-121010466D01*
X103125590Y-120629514D01*
X103601780Y-122153323D02*
X103601780Y-121581895D01*
X103601780Y-121867609D02*
X102601780Y-121867609D01*
X102744638Y-121772371D01*
X102839876Y-121677133D01*
X102887495Y-121581895D01*
X102601780Y-122772371D02*
X102601780Y-122867609D01*
X102649400Y-122962847D01*
X102697019Y-123010466D01*
X102792257Y-123058085D01*
X102982733Y-123105704D01*
X103220828Y-123105704D01*
X103411304Y-123058085D01*
X103506542Y-123010466D01*
X103554161Y-122962847D01*
X103601780Y-122867609D01*
X103601780Y-122772371D01*
X103554161Y-122677133D01*
X103506542Y-122629514D01*
X103411304Y-122581895D01*
X103220828Y-122534276D01*
X102982733Y-122534276D01*
X102792257Y-122581895D01*
X102697019Y-122629514D01*
X102649400Y-122677133D01*
X102601780Y-122772371D01*
G04 #@! TO.C,R18*
X142832057Y-127781580D02*
X143165390Y-127305390D01*
X143403485Y-127781580D02*
X143403485Y-126781580D01*
X143022533Y-126781580D01*
X142927295Y-126829200D01*
X142879676Y-126876819D01*
X142832057Y-126972057D01*
X142832057Y-127114914D01*
X142879676Y-127210152D01*
X142927295Y-127257771D01*
X143022533Y-127305390D01*
X143403485Y-127305390D01*
X141879676Y-127781580D02*
X142451104Y-127781580D01*
X142165390Y-127781580D02*
X142165390Y-126781580D01*
X142260628Y-126924438D01*
X142355866Y-127019676D01*
X142451104Y-127067295D01*
X141308247Y-127210152D02*
X141403485Y-127162533D01*
X141451104Y-127114914D01*
X141498723Y-127019676D01*
X141498723Y-126972057D01*
X141451104Y-126876819D01*
X141403485Y-126829200D01*
X141308247Y-126781580D01*
X141117771Y-126781580D01*
X141022533Y-126829200D01*
X140974914Y-126876819D01*
X140927295Y-126972057D01*
X140927295Y-127019676D01*
X140974914Y-127114914D01*
X141022533Y-127162533D01*
X141117771Y-127210152D01*
X141308247Y-127210152D01*
X141403485Y-127257771D01*
X141451104Y-127305390D01*
X141498723Y-127400628D01*
X141498723Y-127591104D01*
X141451104Y-127686342D01*
X141403485Y-127733961D01*
X141308247Y-127781580D01*
X141117771Y-127781580D01*
X141022533Y-127733961D01*
X140974914Y-127686342D01*
X140927295Y-127591104D01*
X140927295Y-127400628D01*
X140974914Y-127305390D01*
X141022533Y-127257771D01*
X141117771Y-127210152D01*
G04 #@! TO.C,R17*
X145626057Y-133345180D02*
X145959390Y-132868990D01*
X146197485Y-133345180D02*
X146197485Y-132345180D01*
X145816533Y-132345180D01*
X145721295Y-132392800D01*
X145673676Y-132440419D01*
X145626057Y-132535657D01*
X145626057Y-132678514D01*
X145673676Y-132773752D01*
X145721295Y-132821371D01*
X145816533Y-132868990D01*
X146197485Y-132868990D01*
X144673676Y-133345180D02*
X145245104Y-133345180D01*
X144959390Y-133345180D02*
X144959390Y-132345180D01*
X145054628Y-132488038D01*
X145149866Y-132583276D01*
X145245104Y-132630895D01*
X144340342Y-132345180D02*
X143673676Y-132345180D01*
X144102247Y-133345180D01*
G04 #@! TO.C,R16*
X99359980Y-105529142D02*
X98883790Y-105195809D01*
X99359980Y-104957714D02*
X98359980Y-104957714D01*
X98359980Y-105338666D01*
X98407600Y-105433904D01*
X98455219Y-105481523D01*
X98550457Y-105529142D01*
X98693314Y-105529142D01*
X98788552Y-105481523D01*
X98836171Y-105433904D01*
X98883790Y-105338666D01*
X98883790Y-104957714D01*
X99359980Y-106481523D02*
X99359980Y-105910095D01*
X99359980Y-106195809D02*
X98359980Y-106195809D01*
X98502838Y-106100571D01*
X98598076Y-106005333D01*
X98645695Y-105910095D01*
X98359980Y-107338666D02*
X98359980Y-107148190D01*
X98407600Y-107052952D01*
X98455219Y-107005333D01*
X98598076Y-106910095D01*
X98788552Y-106862476D01*
X99169504Y-106862476D01*
X99264742Y-106910095D01*
X99312361Y-106957714D01*
X99359980Y-107052952D01*
X99359980Y-107243428D01*
X99312361Y-107338666D01*
X99264742Y-107386285D01*
X99169504Y-107433904D01*
X98931409Y-107433904D01*
X98836171Y-107386285D01*
X98788552Y-107338666D01*
X98740933Y-107243428D01*
X98740933Y-107052952D01*
X98788552Y-106957714D01*
X98836171Y-106910095D01*
X98931409Y-106862476D01*
G04 #@! TO.C,R15*
X99512380Y-109542342D02*
X99036190Y-109209009D01*
X99512380Y-108970914D02*
X98512380Y-108970914D01*
X98512380Y-109351866D01*
X98560000Y-109447104D01*
X98607619Y-109494723D01*
X98702857Y-109542342D01*
X98845714Y-109542342D01*
X98940952Y-109494723D01*
X98988571Y-109447104D01*
X99036190Y-109351866D01*
X99036190Y-108970914D01*
X99512380Y-110494723D02*
X99512380Y-109923295D01*
X99512380Y-110209009D02*
X98512380Y-110209009D01*
X98655238Y-110113771D01*
X98750476Y-110018533D01*
X98798095Y-109923295D01*
X98512380Y-111399485D02*
X98512380Y-110923295D01*
X98988571Y-110875676D01*
X98940952Y-110923295D01*
X98893333Y-111018533D01*
X98893333Y-111256628D01*
X98940952Y-111351866D01*
X98988571Y-111399485D01*
X99083809Y-111447104D01*
X99321904Y-111447104D01*
X99417142Y-111399485D01*
X99464761Y-111351866D01*
X99512380Y-111256628D01*
X99512380Y-111018533D01*
X99464761Y-110923295D01*
X99417142Y-110875676D01*
G04 #@! TO.C,R14*
X120213380Y-121413142D02*
X119737190Y-121079809D01*
X120213380Y-120841714D02*
X119213380Y-120841714D01*
X119213380Y-121222666D01*
X119261000Y-121317904D01*
X119308619Y-121365523D01*
X119403857Y-121413142D01*
X119546714Y-121413142D01*
X119641952Y-121365523D01*
X119689571Y-121317904D01*
X119737190Y-121222666D01*
X119737190Y-120841714D01*
X120213380Y-122365523D02*
X120213380Y-121794095D01*
X120213380Y-122079809D02*
X119213380Y-122079809D01*
X119356238Y-121984571D01*
X119451476Y-121889333D01*
X119499095Y-121794095D01*
X119546714Y-123222666D02*
X120213380Y-123222666D01*
X119165761Y-122984571D02*
X119880047Y-122746476D01*
X119880047Y-123365523D01*
G04 #@! TO.C,R11*
X125725180Y-121124742D02*
X125248990Y-120791409D01*
X125725180Y-120553314D02*
X124725180Y-120553314D01*
X124725180Y-120934266D01*
X124772800Y-121029504D01*
X124820419Y-121077123D01*
X124915657Y-121124742D01*
X125058514Y-121124742D01*
X125153752Y-121077123D01*
X125201371Y-121029504D01*
X125248990Y-120934266D01*
X125248990Y-120553314D01*
X125725180Y-122077123D02*
X125725180Y-121505695D01*
X125725180Y-121791409D02*
X124725180Y-121791409D01*
X124868038Y-121696171D01*
X124963276Y-121600933D01*
X125010895Y-121505695D01*
X125725180Y-123029504D02*
X125725180Y-122458076D01*
X125725180Y-122743790D02*
X124725180Y-122743790D01*
X124868038Y-122648552D01*
X124963276Y-122553314D01*
X125010895Y-122458076D01*
G04 #@! TO.C,R7*
X112466380Y-122134333D02*
X111990190Y-121801000D01*
X112466380Y-121562904D02*
X111466380Y-121562904D01*
X111466380Y-121943857D01*
X111514000Y-122039095D01*
X111561619Y-122086714D01*
X111656857Y-122134333D01*
X111799714Y-122134333D01*
X111894952Y-122086714D01*
X111942571Y-122039095D01*
X111990190Y-121943857D01*
X111990190Y-121562904D01*
X111466380Y-122467666D02*
X111466380Y-123134333D01*
X112466380Y-122705761D01*
G04 #@! TO.C,R6*
X118028980Y-122439133D02*
X117552790Y-122105800D01*
X118028980Y-121867704D02*
X117028980Y-121867704D01*
X117028980Y-122248657D01*
X117076600Y-122343895D01*
X117124219Y-122391514D01*
X117219457Y-122439133D01*
X117362314Y-122439133D01*
X117457552Y-122391514D01*
X117505171Y-122343895D01*
X117552790Y-122248657D01*
X117552790Y-121867704D01*
X117028980Y-123296276D02*
X117028980Y-123105800D01*
X117076600Y-123010561D01*
X117124219Y-122962942D01*
X117267076Y-122867704D01*
X117457552Y-122820085D01*
X117838504Y-122820085D01*
X117933742Y-122867704D01*
X117981361Y-122915323D01*
X118028980Y-123010561D01*
X118028980Y-123201038D01*
X117981361Y-123296276D01*
X117933742Y-123343895D01*
X117838504Y-123391514D01*
X117600409Y-123391514D01*
X117505171Y-123343895D01*
X117457552Y-123296276D01*
X117409933Y-123201038D01*
X117409933Y-123010561D01*
X117457552Y-122915323D01*
X117505171Y-122867704D01*
X117600409Y-122820085D01*
G04 #@! TO.C,R5*
X127680980Y-121981933D02*
X127204790Y-121648600D01*
X127680980Y-121410504D02*
X126680980Y-121410504D01*
X126680980Y-121791457D01*
X126728600Y-121886695D01*
X126776219Y-121934314D01*
X126871457Y-121981933D01*
X127014314Y-121981933D01*
X127109552Y-121934314D01*
X127157171Y-121886695D01*
X127204790Y-121791457D01*
X127204790Y-121410504D01*
X126680980Y-122886695D02*
X126680980Y-122410504D01*
X127157171Y-122362885D01*
X127109552Y-122410504D01*
X127061933Y-122505742D01*
X127061933Y-122743838D01*
X127109552Y-122839076D01*
X127157171Y-122886695D01*
X127252409Y-122934314D01*
X127490504Y-122934314D01*
X127585742Y-122886695D01*
X127633361Y-122839076D01*
X127680980Y-122743838D01*
X127680980Y-122505742D01*
X127633361Y-122410504D01*
X127585742Y-122362885D01*
G04 #@! TO.C,R4*
X133421380Y-121626333D02*
X132945190Y-121293000D01*
X133421380Y-121054904D02*
X132421380Y-121054904D01*
X132421380Y-121435857D01*
X132469000Y-121531095D01*
X132516619Y-121578714D01*
X132611857Y-121626333D01*
X132754714Y-121626333D01*
X132849952Y-121578714D01*
X132897571Y-121531095D01*
X132945190Y-121435857D01*
X132945190Y-121054904D01*
X132754714Y-122483476D02*
X133421380Y-122483476D01*
X132373761Y-122245380D02*
X133088047Y-122007285D01*
X133088047Y-122626333D01*
G04 #@! TO.C,R1*
X156071866Y-123032780D02*
X156405200Y-122556590D01*
X156643295Y-123032780D02*
X156643295Y-122032780D01*
X156262342Y-122032780D01*
X156167104Y-122080400D01*
X156119485Y-122128019D01*
X156071866Y-122223257D01*
X156071866Y-122366114D01*
X156119485Y-122461352D01*
X156167104Y-122508971D01*
X156262342Y-122556590D01*
X156643295Y-122556590D01*
X155119485Y-123032780D02*
X155690914Y-123032780D01*
X155405200Y-123032780D02*
X155405200Y-122032780D01*
X155500438Y-122175638D01*
X155595676Y-122270876D01*
X155690914Y-122318495D01*
G04 #@! TO.C,R8*
X108935780Y-122185133D02*
X108459590Y-121851800D01*
X108935780Y-121613704D02*
X107935780Y-121613704D01*
X107935780Y-121994657D01*
X107983400Y-122089895D01*
X108031019Y-122137514D01*
X108126257Y-122185133D01*
X108269114Y-122185133D01*
X108364352Y-122137514D01*
X108411971Y-122089895D01*
X108459590Y-121994657D01*
X108459590Y-121613704D01*
X108364352Y-122756561D02*
X108316733Y-122661323D01*
X108269114Y-122613704D01*
X108173876Y-122566085D01*
X108126257Y-122566085D01*
X108031019Y-122613704D01*
X107983400Y-122661323D01*
X107935780Y-122756561D01*
X107935780Y-122947038D01*
X107983400Y-123042276D01*
X108031019Y-123089895D01*
X108126257Y-123137514D01*
X108173876Y-123137514D01*
X108269114Y-123089895D01*
X108316733Y-123042276D01*
X108364352Y-122947038D01*
X108364352Y-122756561D01*
X108411971Y-122661323D01*
X108459590Y-122613704D01*
X108554828Y-122566085D01*
X108745304Y-122566085D01*
X108840542Y-122613704D01*
X108888161Y-122661323D01*
X108935780Y-122756561D01*
X108935780Y-122947038D01*
X108888161Y-123042276D01*
X108840542Y-123089895D01*
X108745304Y-123137514D01*
X108554828Y-123137514D01*
X108459590Y-123089895D01*
X108411971Y-123042276D01*
X108364352Y-122947038D01*
G04 #@! TO.C,TP2*
X130770380Y-134018495D02*
X130770380Y-134589923D01*
X131770380Y-134304209D02*
X130770380Y-134304209D01*
X131770380Y-134923257D02*
X130770380Y-134923257D01*
X130770380Y-135304209D01*
X130818000Y-135399447D01*
X130865619Y-135447066D01*
X130960857Y-135494685D01*
X131103714Y-135494685D01*
X131198952Y-135447066D01*
X131246571Y-135399447D01*
X131294190Y-135304209D01*
X131294190Y-134923257D01*
X130865619Y-135875638D02*
X130818000Y-135923257D01*
X130770380Y-136018495D01*
X130770380Y-136256590D01*
X130818000Y-136351828D01*
X130865619Y-136399447D01*
X130960857Y-136447066D01*
X131056095Y-136447066D01*
X131198952Y-136399447D01*
X131770380Y-135828019D01*
X131770380Y-136447066D01*
G04 #@! TO.C,TP1*
X143451104Y-139812780D02*
X142879676Y-139812780D01*
X143165390Y-140812780D02*
X143165390Y-139812780D01*
X142546342Y-140812780D02*
X142546342Y-139812780D01*
X142165390Y-139812780D01*
X142070152Y-139860400D01*
X142022533Y-139908019D01*
X141974914Y-140003257D01*
X141974914Y-140146114D01*
X142022533Y-140241352D01*
X142070152Y-140288971D01*
X142165390Y-140336590D01*
X142546342Y-140336590D01*
X141022533Y-140812780D02*
X141593961Y-140812780D01*
X141308247Y-140812780D02*
X141308247Y-139812780D01*
X141403485Y-139955638D01*
X141498723Y-140050876D01*
X141593961Y-140098495D01*
G04 #@! TO.C,TP3*
X105147904Y-109855580D02*
X104576476Y-109855580D01*
X104862190Y-110855580D02*
X104862190Y-109855580D01*
X104243142Y-110855580D02*
X104243142Y-109855580D01*
X103862190Y-109855580D01*
X103766952Y-109903200D01*
X103719333Y-109950819D01*
X103671714Y-110046057D01*
X103671714Y-110188914D01*
X103719333Y-110284152D01*
X103766952Y-110331771D01*
X103862190Y-110379390D01*
X104243142Y-110379390D01*
X103338380Y-109855580D02*
X102719333Y-109855580D01*
X103052666Y-110236533D01*
X102909809Y-110236533D01*
X102814571Y-110284152D01*
X102766952Y-110331771D01*
X102719333Y-110427009D01*
X102719333Y-110665104D01*
X102766952Y-110760342D01*
X102814571Y-110807961D01*
X102909809Y-110855580D01*
X103195523Y-110855580D01*
X103290761Y-110807961D01*
X103338380Y-110760342D01*
G04 #@! TO.C,TP4*
X137913904Y-111212380D02*
X137342476Y-111212380D01*
X137628190Y-112212380D02*
X137628190Y-111212380D01*
X137009142Y-112212380D02*
X137009142Y-111212380D01*
X136628190Y-111212380D01*
X136532952Y-111260000D01*
X136485333Y-111307619D01*
X136437714Y-111402857D01*
X136437714Y-111545714D01*
X136485333Y-111640952D01*
X136532952Y-111688571D01*
X136628190Y-111736190D01*
X137009142Y-111736190D01*
X135580571Y-111545714D02*
X135580571Y-112212380D01*
X135818666Y-111164761D02*
X136056761Y-111879047D01*
X135437714Y-111879047D01*
G04 #@! TO.C,TP7*
X108316780Y-114714495D02*
X108316780Y-115285923D01*
X109316780Y-115000209D02*
X108316780Y-115000209D01*
X109316780Y-115619257D02*
X108316780Y-115619257D01*
X108316780Y-116000209D01*
X108364400Y-116095447D01*
X108412019Y-116143066D01*
X108507257Y-116190685D01*
X108650114Y-116190685D01*
X108745352Y-116143066D01*
X108792971Y-116095447D01*
X108840590Y-116000209D01*
X108840590Y-115619257D01*
X108316780Y-116524019D02*
X108316780Y-117190685D01*
X109316780Y-116762114D01*
G04 #@! TO.C,TP10*
X116292380Y-113577904D02*
X116292380Y-114149333D01*
X117292380Y-113863619D02*
X116292380Y-113863619D01*
X117292380Y-114482666D02*
X116292380Y-114482666D01*
X116292380Y-114863619D01*
X116340000Y-114958857D01*
X116387619Y-115006476D01*
X116482857Y-115054095D01*
X116625714Y-115054095D01*
X116720952Y-115006476D01*
X116768571Y-114958857D01*
X116816190Y-114863619D01*
X116816190Y-114482666D01*
X117292380Y-116006476D02*
X117292380Y-115435047D01*
X117292380Y-115720761D02*
X116292380Y-115720761D01*
X116435238Y-115625523D01*
X116530476Y-115530285D01*
X116578095Y-115435047D01*
X116292380Y-116625523D02*
X116292380Y-116720761D01*
X116340000Y-116816000D01*
X116387619Y-116863619D01*
X116482857Y-116911238D01*
X116673333Y-116958857D01*
X116911428Y-116958857D01*
X117101904Y-116911238D01*
X117197142Y-116863619D01*
X117244761Y-116816000D01*
X117292380Y-116720761D01*
X117292380Y-116625523D01*
X117244761Y-116530285D01*
X117197142Y-116482666D01*
X117101904Y-116435047D01*
X116911428Y-116387428D01*
X116673333Y-116387428D01*
X116482857Y-116435047D01*
X116387619Y-116482666D01*
X116340000Y-116530285D01*
X116292380Y-116625523D01*
G04 #@! TO.C,TP11*
X118933980Y-113577904D02*
X118933980Y-114149333D01*
X119933980Y-113863619D02*
X118933980Y-113863619D01*
X119933980Y-114482666D02*
X118933980Y-114482666D01*
X118933980Y-114863619D01*
X118981600Y-114958857D01*
X119029219Y-115006476D01*
X119124457Y-115054095D01*
X119267314Y-115054095D01*
X119362552Y-115006476D01*
X119410171Y-114958857D01*
X119457790Y-114863619D01*
X119457790Y-114482666D01*
X119933980Y-116006476D02*
X119933980Y-115435047D01*
X119933980Y-115720761D02*
X118933980Y-115720761D01*
X119076838Y-115625523D01*
X119172076Y-115530285D01*
X119219695Y-115435047D01*
X119933980Y-116958857D02*
X119933980Y-116387428D01*
X119933980Y-116673142D02*
X118933980Y-116673142D01*
X119076838Y-116577904D01*
X119172076Y-116482666D01*
X119219695Y-116387428D01*
G04 #@! TO.C,TP12*
X121270780Y-113577904D02*
X121270780Y-114149333D01*
X122270780Y-113863619D02*
X121270780Y-113863619D01*
X122270780Y-114482666D02*
X121270780Y-114482666D01*
X121270780Y-114863619D01*
X121318400Y-114958857D01*
X121366019Y-115006476D01*
X121461257Y-115054095D01*
X121604114Y-115054095D01*
X121699352Y-115006476D01*
X121746971Y-114958857D01*
X121794590Y-114863619D01*
X121794590Y-114482666D01*
X122270780Y-116006476D02*
X122270780Y-115435047D01*
X122270780Y-115720761D02*
X121270780Y-115720761D01*
X121413638Y-115625523D01*
X121508876Y-115530285D01*
X121556495Y-115435047D01*
X121366019Y-116387428D02*
X121318400Y-116435047D01*
X121270780Y-116530285D01*
X121270780Y-116768380D01*
X121318400Y-116863619D01*
X121366019Y-116911238D01*
X121461257Y-116958857D01*
X121556495Y-116958857D01*
X121699352Y-116911238D01*
X122270780Y-116339809D01*
X122270780Y-116958857D01*
G04 #@! TO.C,TP8*
X110907580Y-114612895D02*
X110907580Y-115184323D01*
X111907580Y-114898609D02*
X110907580Y-114898609D01*
X111907580Y-115517657D02*
X110907580Y-115517657D01*
X110907580Y-115898609D01*
X110955200Y-115993847D01*
X111002819Y-116041466D01*
X111098057Y-116089085D01*
X111240914Y-116089085D01*
X111336152Y-116041466D01*
X111383771Y-115993847D01*
X111431390Y-115898609D01*
X111431390Y-115517657D01*
X111336152Y-116660514D02*
X111288533Y-116565276D01*
X111240914Y-116517657D01*
X111145676Y-116470038D01*
X111098057Y-116470038D01*
X111002819Y-116517657D01*
X110955200Y-116565276D01*
X110907580Y-116660514D01*
X110907580Y-116850990D01*
X110955200Y-116946228D01*
X111002819Y-116993847D01*
X111098057Y-117041466D01*
X111145676Y-117041466D01*
X111240914Y-116993847D01*
X111288533Y-116946228D01*
X111336152Y-116850990D01*
X111336152Y-116660514D01*
X111383771Y-116565276D01*
X111431390Y-116517657D01*
X111526628Y-116470038D01*
X111717104Y-116470038D01*
X111812342Y-116517657D01*
X111859961Y-116565276D01*
X111907580Y-116660514D01*
X111907580Y-116850990D01*
X111859961Y-116946228D01*
X111812342Y-116993847D01*
X111717104Y-117041466D01*
X111526628Y-117041466D01*
X111431390Y-116993847D01*
X111383771Y-116946228D01*
X111336152Y-116850990D01*
G04 #@! TO.C,TP9*
X113650780Y-114511295D02*
X113650780Y-115082723D01*
X114650780Y-114797009D02*
X113650780Y-114797009D01*
X114650780Y-115416057D02*
X113650780Y-115416057D01*
X113650780Y-115797009D01*
X113698400Y-115892247D01*
X113746019Y-115939866D01*
X113841257Y-115987485D01*
X113984114Y-115987485D01*
X114079352Y-115939866D01*
X114126971Y-115892247D01*
X114174590Y-115797009D01*
X114174590Y-115416057D01*
X114650780Y-116463676D02*
X114650780Y-116654152D01*
X114603161Y-116749390D01*
X114555542Y-116797009D01*
X114412685Y-116892247D01*
X114222209Y-116939866D01*
X113841257Y-116939866D01*
X113746019Y-116892247D01*
X113698400Y-116844628D01*
X113650780Y-116749390D01*
X113650780Y-116558914D01*
X113698400Y-116463676D01*
X113746019Y-116416057D01*
X113841257Y-116368438D01*
X114079352Y-116368438D01*
X114174590Y-116416057D01*
X114222209Y-116463676D01*
X114269828Y-116558914D01*
X114269828Y-116749390D01*
X114222209Y-116844628D01*
X114174590Y-116892247D01*
X114079352Y-116939866D01*
G04 #@! TO.C,TP13*
X137932895Y-131851980D02*
X137361466Y-131851980D01*
X137647180Y-132851980D02*
X137647180Y-131851980D01*
X137028133Y-132851980D02*
X137028133Y-131851980D01*
X136647180Y-131851980D01*
X136551942Y-131899600D01*
X136504323Y-131947219D01*
X136456704Y-132042457D01*
X136456704Y-132185314D01*
X136504323Y-132280552D01*
X136551942Y-132328171D01*
X136647180Y-132375790D01*
X137028133Y-132375790D01*
X135504323Y-132851980D02*
X136075752Y-132851980D01*
X135790038Y-132851980D02*
X135790038Y-131851980D01*
X135885276Y-131994838D01*
X135980514Y-132090076D01*
X136075752Y-132137695D01*
X135170990Y-131851980D02*
X134551942Y-131851980D01*
X134885276Y-132232933D01*
X134742419Y-132232933D01*
X134647180Y-132280552D01*
X134599561Y-132328171D01*
X134551942Y-132423409D01*
X134551942Y-132661504D01*
X134599561Y-132756742D01*
X134647180Y-132804361D01*
X134742419Y-132851980D01*
X135028133Y-132851980D01*
X135123371Y-132804361D01*
X135170990Y-132756742D01*
G04 #@! TO.C,TP14*
X143927295Y-79832780D02*
X143355866Y-79832780D01*
X143641580Y-80832780D02*
X143641580Y-79832780D01*
X143022533Y-80832780D02*
X143022533Y-79832780D01*
X142641580Y-79832780D01*
X142546342Y-79880400D01*
X142498723Y-79928019D01*
X142451104Y-80023257D01*
X142451104Y-80166114D01*
X142498723Y-80261352D01*
X142546342Y-80308971D01*
X142641580Y-80356590D01*
X143022533Y-80356590D01*
X141498723Y-80832780D02*
X142070152Y-80832780D01*
X141784438Y-80832780D02*
X141784438Y-79832780D01*
X141879676Y-79975638D01*
X141974914Y-80070876D01*
X142070152Y-80118495D01*
X140641580Y-80166114D02*
X140641580Y-80832780D01*
X140879676Y-79785161D02*
X141117771Y-80499447D01*
X140498723Y-80499447D01*
G04 #@! TO.C,D11*
X147061085Y-153360380D02*
X147061085Y-152360380D01*
X146822990Y-152360380D01*
X146680133Y-152408000D01*
X146584895Y-152503238D01*
X146537276Y-152598476D01*
X146489657Y-152788952D01*
X146489657Y-152931809D01*
X146537276Y-153122285D01*
X146584895Y-153217523D01*
X146680133Y-153312761D01*
X146822990Y-153360380D01*
X147061085Y-153360380D01*
X145537276Y-153360380D02*
X146108704Y-153360380D01*
X145822990Y-153360380D02*
X145822990Y-152360380D01*
X145918228Y-152503238D01*
X146013466Y-152598476D01*
X146108704Y-152646095D01*
X144584895Y-153360380D02*
X145156323Y-153360380D01*
X144870609Y-153360380D02*
X144870609Y-152360380D01*
X144965847Y-152503238D01*
X145061085Y-152598476D01*
X145156323Y-152646095D01*
G04 #@! TO.C,D14*
X172867580Y-153370114D02*
X171867580Y-153370114D01*
X171867580Y-153608209D01*
X171915200Y-153751066D01*
X172010438Y-153846304D01*
X172105676Y-153893923D01*
X172296152Y-153941542D01*
X172439009Y-153941542D01*
X172629485Y-153893923D01*
X172724723Y-153846304D01*
X172819961Y-153751066D01*
X172867580Y-153608209D01*
X172867580Y-153370114D01*
X172867580Y-154893923D02*
X172867580Y-154322495D01*
X172867580Y-154608209D02*
X171867580Y-154608209D01*
X172010438Y-154512971D01*
X172105676Y-154417733D01*
X172153295Y-154322495D01*
X172200914Y-155751066D02*
X172867580Y-155751066D01*
X171819961Y-155512971D02*
X172534247Y-155274876D01*
X172534247Y-155893923D01*
G04 #@! TD*
M02*
