G04 #@! TF.GenerationSoftware,KiCad,Pcbnew,5.0.2-bee76a0~70~ubuntu18.04.1*
G04 #@! TF.CreationDate,2019-02-28T13:46:31+03:00*
G04 #@! TF.ProjectId,sensor-node,73656e73-6f72-42d6-9e6f-64652e6b6963,1*
G04 #@! TF.SameCoordinates,Original*
G04 #@! TF.FileFunction,Paste,Bot*
G04 #@! TF.FilePolarity,Positive*
%FSLAX46Y46*%
G04 Gerber Fmt 4.6, Leading zero omitted, Abs format (unit mm)*
G04 Created by KiCad (PCBNEW 5.0.2-bee76a0~70~ubuntu18.04.1) date Thu 28 Feb 2019 13:46:31 EAT*
%MOMM*%
%LPD*%
G01*
G04 APERTURE LIST*
%ADD10C,0.100000*%
%ADD11C,1.150000*%
%ADD12R,2.540000X5.080000*%
%ADD13R,0.650000X1.560000*%
%ADD14R,2.500000X2.300000*%
%ADD15C,1.500000*%
%ADD16R,1.500000X2.800000*%
%ADD17R,0.700000X1.500000*%
%ADD18R,1.000000X1.500000*%
%ADD19R,0.450000X1.380000*%
%ADD20R,1.475000X2.100000*%
%ADD21R,2.375000X1.900000*%
%ADD22R,1.175000X1.900000*%
%ADD23R,3.500000X1.800000*%
%ADD24R,0.600000X1.500000*%
%ADD25R,3.800000X2.000000*%
%ADD26R,1.500000X2.000000*%
%ADD27R,0.800000X0.900000*%
%ADD28R,1.800000X3.400000*%
%ADD29R,3.400000X1.800000*%
G04 APERTURE END LIST*
D10*
G04 #@! TO.C,C19*
G36*
X104182705Y-111906404D02*
X104206973Y-111910004D01*
X104230772Y-111915965D01*
X104253871Y-111924230D01*
X104276050Y-111934720D01*
X104297093Y-111947332D01*
X104316799Y-111961947D01*
X104334977Y-111978423D01*
X104351453Y-111996601D01*
X104366068Y-112016307D01*
X104378680Y-112037350D01*
X104389170Y-112059529D01*
X104397435Y-112082628D01*
X104403396Y-112106427D01*
X104406996Y-112130695D01*
X104408200Y-112155199D01*
X104408200Y-112805201D01*
X104406996Y-112829705D01*
X104403396Y-112853973D01*
X104397435Y-112877772D01*
X104389170Y-112900871D01*
X104378680Y-112923050D01*
X104366068Y-112944093D01*
X104351453Y-112963799D01*
X104334977Y-112981977D01*
X104316799Y-112998453D01*
X104297093Y-113013068D01*
X104276050Y-113025680D01*
X104253871Y-113036170D01*
X104230772Y-113044435D01*
X104206973Y-113050396D01*
X104182705Y-113053996D01*
X104158201Y-113055200D01*
X103258199Y-113055200D01*
X103233695Y-113053996D01*
X103209427Y-113050396D01*
X103185628Y-113044435D01*
X103162529Y-113036170D01*
X103140350Y-113025680D01*
X103119307Y-113013068D01*
X103099601Y-112998453D01*
X103081423Y-112981977D01*
X103064947Y-112963799D01*
X103050332Y-112944093D01*
X103037720Y-112923050D01*
X103027230Y-112900871D01*
X103018965Y-112877772D01*
X103013004Y-112853973D01*
X103009404Y-112829705D01*
X103008200Y-112805201D01*
X103008200Y-112155199D01*
X103009404Y-112130695D01*
X103013004Y-112106427D01*
X103018965Y-112082628D01*
X103027230Y-112059529D01*
X103037720Y-112037350D01*
X103050332Y-112016307D01*
X103064947Y-111996601D01*
X103081423Y-111978423D01*
X103099601Y-111961947D01*
X103119307Y-111947332D01*
X103140350Y-111934720D01*
X103162529Y-111924230D01*
X103185628Y-111915965D01*
X103209427Y-111910004D01*
X103233695Y-111906404D01*
X103258199Y-111905200D01*
X104158201Y-111905200D01*
X104182705Y-111906404D01*
X104182705Y-111906404D01*
G37*
D11*
X103708200Y-112480200D03*
D10*
G36*
X104182705Y-109856404D02*
X104206973Y-109860004D01*
X104230772Y-109865965D01*
X104253871Y-109874230D01*
X104276050Y-109884720D01*
X104297093Y-109897332D01*
X104316799Y-109911947D01*
X104334977Y-109928423D01*
X104351453Y-109946601D01*
X104366068Y-109966307D01*
X104378680Y-109987350D01*
X104389170Y-110009529D01*
X104397435Y-110032628D01*
X104403396Y-110056427D01*
X104406996Y-110080695D01*
X104408200Y-110105199D01*
X104408200Y-110755201D01*
X104406996Y-110779705D01*
X104403396Y-110803973D01*
X104397435Y-110827772D01*
X104389170Y-110850871D01*
X104378680Y-110873050D01*
X104366068Y-110894093D01*
X104351453Y-110913799D01*
X104334977Y-110931977D01*
X104316799Y-110948453D01*
X104297093Y-110963068D01*
X104276050Y-110975680D01*
X104253871Y-110986170D01*
X104230772Y-110994435D01*
X104206973Y-111000396D01*
X104182705Y-111003996D01*
X104158201Y-111005200D01*
X103258199Y-111005200D01*
X103233695Y-111003996D01*
X103209427Y-111000396D01*
X103185628Y-110994435D01*
X103162529Y-110986170D01*
X103140350Y-110975680D01*
X103119307Y-110963068D01*
X103099601Y-110948453D01*
X103081423Y-110931977D01*
X103064947Y-110913799D01*
X103050332Y-110894093D01*
X103037720Y-110873050D01*
X103027230Y-110850871D01*
X103018965Y-110827772D01*
X103013004Y-110803973D01*
X103009404Y-110779705D01*
X103008200Y-110755201D01*
X103008200Y-110105199D01*
X103009404Y-110080695D01*
X103013004Y-110056427D01*
X103018965Y-110032628D01*
X103027230Y-110009529D01*
X103037720Y-109987350D01*
X103050332Y-109966307D01*
X103064947Y-109946601D01*
X103081423Y-109928423D01*
X103099601Y-109911947D01*
X103119307Y-109897332D01*
X103140350Y-109884720D01*
X103162529Y-109874230D01*
X103185628Y-109865965D01*
X103209427Y-109860004D01*
X103233695Y-109856404D01*
X103258199Y-109855200D01*
X104158201Y-109855200D01*
X104182705Y-109856404D01*
X104182705Y-109856404D01*
G37*
D11*
X103708200Y-110430200D03*
G04 #@! TD*
D12*
G04 #@! TO.C,BT1*
X146100800Y-146761200D03*
X168960800Y-146761200D03*
G04 #@! TD*
D13*
G04 #@! TO.C,U7*
X104582000Y-116970800D03*
X103632000Y-116970800D03*
X102682000Y-116970800D03*
X102682000Y-114270800D03*
X104582000Y-114270800D03*
X103632000Y-114270800D03*
G04 #@! TD*
D10*
G04 #@! TO.C,R29*
G36*
X107408505Y-113735204D02*
X107432773Y-113738804D01*
X107456572Y-113744765D01*
X107479671Y-113753030D01*
X107501850Y-113763520D01*
X107522893Y-113776132D01*
X107542599Y-113790747D01*
X107560777Y-113807223D01*
X107577253Y-113825401D01*
X107591868Y-113845107D01*
X107604480Y-113866150D01*
X107614970Y-113888329D01*
X107623235Y-113911428D01*
X107629196Y-113935227D01*
X107632796Y-113959495D01*
X107634000Y-113983999D01*
X107634000Y-114634001D01*
X107632796Y-114658505D01*
X107629196Y-114682773D01*
X107623235Y-114706572D01*
X107614970Y-114729671D01*
X107604480Y-114751850D01*
X107591868Y-114772893D01*
X107577253Y-114792599D01*
X107560777Y-114810777D01*
X107542599Y-114827253D01*
X107522893Y-114841868D01*
X107501850Y-114854480D01*
X107479671Y-114864970D01*
X107456572Y-114873235D01*
X107432773Y-114879196D01*
X107408505Y-114882796D01*
X107384001Y-114884000D01*
X106483999Y-114884000D01*
X106459495Y-114882796D01*
X106435227Y-114879196D01*
X106411428Y-114873235D01*
X106388329Y-114864970D01*
X106366150Y-114854480D01*
X106345107Y-114841868D01*
X106325401Y-114827253D01*
X106307223Y-114810777D01*
X106290747Y-114792599D01*
X106276132Y-114772893D01*
X106263520Y-114751850D01*
X106253030Y-114729671D01*
X106244765Y-114706572D01*
X106238804Y-114682773D01*
X106235204Y-114658505D01*
X106234000Y-114634001D01*
X106234000Y-113983999D01*
X106235204Y-113959495D01*
X106238804Y-113935227D01*
X106244765Y-113911428D01*
X106253030Y-113888329D01*
X106263520Y-113866150D01*
X106276132Y-113845107D01*
X106290747Y-113825401D01*
X106307223Y-113807223D01*
X106325401Y-113790747D01*
X106345107Y-113776132D01*
X106366150Y-113763520D01*
X106388329Y-113753030D01*
X106411428Y-113744765D01*
X106435227Y-113738804D01*
X106459495Y-113735204D01*
X106483999Y-113734000D01*
X107384001Y-113734000D01*
X107408505Y-113735204D01*
X107408505Y-113735204D01*
G37*
D11*
X106934000Y-114309000D03*
D10*
G36*
X107408505Y-111685204D02*
X107432773Y-111688804D01*
X107456572Y-111694765D01*
X107479671Y-111703030D01*
X107501850Y-111713520D01*
X107522893Y-111726132D01*
X107542599Y-111740747D01*
X107560777Y-111757223D01*
X107577253Y-111775401D01*
X107591868Y-111795107D01*
X107604480Y-111816150D01*
X107614970Y-111838329D01*
X107623235Y-111861428D01*
X107629196Y-111885227D01*
X107632796Y-111909495D01*
X107634000Y-111933999D01*
X107634000Y-112584001D01*
X107632796Y-112608505D01*
X107629196Y-112632773D01*
X107623235Y-112656572D01*
X107614970Y-112679671D01*
X107604480Y-112701850D01*
X107591868Y-112722893D01*
X107577253Y-112742599D01*
X107560777Y-112760777D01*
X107542599Y-112777253D01*
X107522893Y-112791868D01*
X107501850Y-112804480D01*
X107479671Y-112814970D01*
X107456572Y-112823235D01*
X107432773Y-112829196D01*
X107408505Y-112832796D01*
X107384001Y-112834000D01*
X106483999Y-112834000D01*
X106459495Y-112832796D01*
X106435227Y-112829196D01*
X106411428Y-112823235D01*
X106388329Y-112814970D01*
X106366150Y-112804480D01*
X106345107Y-112791868D01*
X106325401Y-112777253D01*
X106307223Y-112760777D01*
X106290747Y-112742599D01*
X106276132Y-112722893D01*
X106263520Y-112701850D01*
X106253030Y-112679671D01*
X106244765Y-112656572D01*
X106238804Y-112632773D01*
X106235204Y-112608505D01*
X106234000Y-112584001D01*
X106234000Y-111933999D01*
X106235204Y-111909495D01*
X106238804Y-111885227D01*
X106244765Y-111861428D01*
X106253030Y-111838329D01*
X106263520Y-111816150D01*
X106276132Y-111795107D01*
X106290747Y-111775401D01*
X106307223Y-111757223D01*
X106325401Y-111740747D01*
X106345107Y-111726132D01*
X106366150Y-111713520D01*
X106388329Y-111703030D01*
X106411428Y-111694765D01*
X106435227Y-111688804D01*
X106459495Y-111685204D01*
X106483999Y-111684000D01*
X107384001Y-111684000D01*
X107408505Y-111685204D01*
X107408505Y-111685204D01*
G37*
D11*
X106934000Y-112259000D03*
G04 #@! TD*
D14*
G04 #@! TO.C,D9*
X143187200Y-136042400D03*
X138887200Y-136042400D03*
G04 #@! TD*
D10*
G04 #@! TO.C,C12*
G36*
X153520505Y-123456404D02*
X153544773Y-123460004D01*
X153568572Y-123465965D01*
X153591671Y-123474230D01*
X153613850Y-123484720D01*
X153634893Y-123497332D01*
X153654599Y-123511947D01*
X153672777Y-123528423D01*
X153689253Y-123546601D01*
X153703868Y-123566307D01*
X153716480Y-123587350D01*
X153726970Y-123609529D01*
X153735235Y-123632628D01*
X153741196Y-123656427D01*
X153744796Y-123680695D01*
X153746000Y-123705199D01*
X153746000Y-124605201D01*
X153744796Y-124629705D01*
X153741196Y-124653973D01*
X153735235Y-124677772D01*
X153726970Y-124700871D01*
X153716480Y-124723050D01*
X153703868Y-124744093D01*
X153689253Y-124763799D01*
X153672777Y-124781977D01*
X153654599Y-124798453D01*
X153634893Y-124813068D01*
X153613850Y-124825680D01*
X153591671Y-124836170D01*
X153568572Y-124844435D01*
X153544773Y-124850396D01*
X153520505Y-124853996D01*
X153496001Y-124855200D01*
X152845999Y-124855200D01*
X152821495Y-124853996D01*
X152797227Y-124850396D01*
X152773428Y-124844435D01*
X152750329Y-124836170D01*
X152728150Y-124825680D01*
X152707107Y-124813068D01*
X152687401Y-124798453D01*
X152669223Y-124781977D01*
X152652747Y-124763799D01*
X152638132Y-124744093D01*
X152625520Y-124723050D01*
X152615030Y-124700871D01*
X152606765Y-124677772D01*
X152600804Y-124653973D01*
X152597204Y-124629705D01*
X152596000Y-124605201D01*
X152596000Y-123705199D01*
X152597204Y-123680695D01*
X152600804Y-123656427D01*
X152606765Y-123632628D01*
X152615030Y-123609529D01*
X152625520Y-123587350D01*
X152638132Y-123566307D01*
X152652747Y-123546601D01*
X152669223Y-123528423D01*
X152687401Y-123511947D01*
X152707107Y-123497332D01*
X152728150Y-123484720D01*
X152750329Y-123474230D01*
X152773428Y-123465965D01*
X152797227Y-123460004D01*
X152821495Y-123456404D01*
X152845999Y-123455200D01*
X153496001Y-123455200D01*
X153520505Y-123456404D01*
X153520505Y-123456404D01*
G37*
D11*
X153171000Y-124155200D03*
D10*
G36*
X151470505Y-123456404D02*
X151494773Y-123460004D01*
X151518572Y-123465965D01*
X151541671Y-123474230D01*
X151563850Y-123484720D01*
X151584893Y-123497332D01*
X151604599Y-123511947D01*
X151622777Y-123528423D01*
X151639253Y-123546601D01*
X151653868Y-123566307D01*
X151666480Y-123587350D01*
X151676970Y-123609529D01*
X151685235Y-123632628D01*
X151691196Y-123656427D01*
X151694796Y-123680695D01*
X151696000Y-123705199D01*
X151696000Y-124605201D01*
X151694796Y-124629705D01*
X151691196Y-124653973D01*
X151685235Y-124677772D01*
X151676970Y-124700871D01*
X151666480Y-124723050D01*
X151653868Y-124744093D01*
X151639253Y-124763799D01*
X151622777Y-124781977D01*
X151604599Y-124798453D01*
X151584893Y-124813068D01*
X151563850Y-124825680D01*
X151541671Y-124836170D01*
X151518572Y-124844435D01*
X151494773Y-124850396D01*
X151470505Y-124853996D01*
X151446001Y-124855200D01*
X150795999Y-124855200D01*
X150771495Y-124853996D01*
X150747227Y-124850396D01*
X150723428Y-124844435D01*
X150700329Y-124836170D01*
X150678150Y-124825680D01*
X150657107Y-124813068D01*
X150637401Y-124798453D01*
X150619223Y-124781977D01*
X150602747Y-124763799D01*
X150588132Y-124744093D01*
X150575520Y-124723050D01*
X150565030Y-124700871D01*
X150556765Y-124677772D01*
X150550804Y-124653973D01*
X150547204Y-124629705D01*
X150546000Y-124605201D01*
X150546000Y-123705199D01*
X150547204Y-123680695D01*
X150550804Y-123656427D01*
X150556765Y-123632628D01*
X150565030Y-123609529D01*
X150575520Y-123587350D01*
X150588132Y-123566307D01*
X150602747Y-123546601D01*
X150619223Y-123528423D01*
X150637401Y-123511947D01*
X150657107Y-123497332D01*
X150678150Y-123484720D01*
X150700329Y-123474230D01*
X150723428Y-123465965D01*
X150747227Y-123460004D01*
X150771495Y-123456404D01*
X150795999Y-123455200D01*
X151446001Y-123455200D01*
X151470505Y-123456404D01*
X151470505Y-123456404D01*
G37*
D11*
X151121000Y-124155200D03*
G04 #@! TD*
D10*
G04 #@! TO.C,C7*
G36*
X115402505Y-127444204D02*
X115426773Y-127447804D01*
X115450572Y-127453765D01*
X115473671Y-127462030D01*
X115495850Y-127472520D01*
X115516893Y-127485132D01*
X115536599Y-127499747D01*
X115554777Y-127516223D01*
X115571253Y-127534401D01*
X115585868Y-127554107D01*
X115598480Y-127575150D01*
X115608970Y-127597329D01*
X115617235Y-127620428D01*
X115623196Y-127644227D01*
X115626796Y-127668495D01*
X115628000Y-127692999D01*
X115628000Y-128593001D01*
X115626796Y-128617505D01*
X115623196Y-128641773D01*
X115617235Y-128665572D01*
X115608970Y-128688671D01*
X115598480Y-128710850D01*
X115585868Y-128731893D01*
X115571253Y-128751599D01*
X115554777Y-128769777D01*
X115536599Y-128786253D01*
X115516893Y-128800868D01*
X115495850Y-128813480D01*
X115473671Y-128823970D01*
X115450572Y-128832235D01*
X115426773Y-128838196D01*
X115402505Y-128841796D01*
X115378001Y-128843000D01*
X114727999Y-128843000D01*
X114703495Y-128841796D01*
X114679227Y-128838196D01*
X114655428Y-128832235D01*
X114632329Y-128823970D01*
X114610150Y-128813480D01*
X114589107Y-128800868D01*
X114569401Y-128786253D01*
X114551223Y-128769777D01*
X114534747Y-128751599D01*
X114520132Y-128731893D01*
X114507520Y-128710850D01*
X114497030Y-128688671D01*
X114488765Y-128665572D01*
X114482804Y-128641773D01*
X114479204Y-128617505D01*
X114478000Y-128593001D01*
X114478000Y-127692999D01*
X114479204Y-127668495D01*
X114482804Y-127644227D01*
X114488765Y-127620428D01*
X114497030Y-127597329D01*
X114507520Y-127575150D01*
X114520132Y-127554107D01*
X114534747Y-127534401D01*
X114551223Y-127516223D01*
X114569401Y-127499747D01*
X114589107Y-127485132D01*
X114610150Y-127472520D01*
X114632329Y-127462030D01*
X114655428Y-127453765D01*
X114679227Y-127447804D01*
X114703495Y-127444204D01*
X114727999Y-127443000D01*
X115378001Y-127443000D01*
X115402505Y-127444204D01*
X115402505Y-127444204D01*
G37*
D11*
X115053000Y-128143000D03*
D10*
G36*
X117452505Y-127444204D02*
X117476773Y-127447804D01*
X117500572Y-127453765D01*
X117523671Y-127462030D01*
X117545850Y-127472520D01*
X117566893Y-127485132D01*
X117586599Y-127499747D01*
X117604777Y-127516223D01*
X117621253Y-127534401D01*
X117635868Y-127554107D01*
X117648480Y-127575150D01*
X117658970Y-127597329D01*
X117667235Y-127620428D01*
X117673196Y-127644227D01*
X117676796Y-127668495D01*
X117678000Y-127692999D01*
X117678000Y-128593001D01*
X117676796Y-128617505D01*
X117673196Y-128641773D01*
X117667235Y-128665572D01*
X117658970Y-128688671D01*
X117648480Y-128710850D01*
X117635868Y-128731893D01*
X117621253Y-128751599D01*
X117604777Y-128769777D01*
X117586599Y-128786253D01*
X117566893Y-128800868D01*
X117545850Y-128813480D01*
X117523671Y-128823970D01*
X117500572Y-128832235D01*
X117476773Y-128838196D01*
X117452505Y-128841796D01*
X117428001Y-128843000D01*
X116777999Y-128843000D01*
X116753495Y-128841796D01*
X116729227Y-128838196D01*
X116705428Y-128832235D01*
X116682329Y-128823970D01*
X116660150Y-128813480D01*
X116639107Y-128800868D01*
X116619401Y-128786253D01*
X116601223Y-128769777D01*
X116584747Y-128751599D01*
X116570132Y-128731893D01*
X116557520Y-128710850D01*
X116547030Y-128688671D01*
X116538765Y-128665572D01*
X116532804Y-128641773D01*
X116529204Y-128617505D01*
X116528000Y-128593001D01*
X116528000Y-127692999D01*
X116529204Y-127668495D01*
X116532804Y-127644227D01*
X116538765Y-127620428D01*
X116547030Y-127597329D01*
X116557520Y-127575150D01*
X116570132Y-127554107D01*
X116584747Y-127534401D01*
X116601223Y-127516223D01*
X116619401Y-127499747D01*
X116639107Y-127485132D01*
X116660150Y-127472520D01*
X116682329Y-127462030D01*
X116705428Y-127453765D01*
X116729227Y-127447804D01*
X116753495Y-127444204D01*
X116777999Y-127443000D01*
X117428001Y-127443000D01*
X117452505Y-127444204D01*
X117452505Y-127444204D01*
G37*
D11*
X117103000Y-128143000D03*
G04 #@! TD*
D10*
G04 #@! TO.C,C9*
G36*
X123766105Y-113786004D02*
X123790373Y-113789604D01*
X123814172Y-113795565D01*
X123837271Y-113803830D01*
X123859450Y-113814320D01*
X123880493Y-113826932D01*
X123900199Y-113841547D01*
X123918377Y-113858023D01*
X123934853Y-113876201D01*
X123949468Y-113895907D01*
X123962080Y-113916950D01*
X123972570Y-113939129D01*
X123980835Y-113962228D01*
X123986796Y-113986027D01*
X123990396Y-114010295D01*
X123991600Y-114034799D01*
X123991600Y-114684801D01*
X123990396Y-114709305D01*
X123986796Y-114733573D01*
X123980835Y-114757372D01*
X123972570Y-114780471D01*
X123962080Y-114802650D01*
X123949468Y-114823693D01*
X123934853Y-114843399D01*
X123918377Y-114861577D01*
X123900199Y-114878053D01*
X123880493Y-114892668D01*
X123859450Y-114905280D01*
X123837271Y-114915770D01*
X123814172Y-114924035D01*
X123790373Y-114929996D01*
X123766105Y-114933596D01*
X123741601Y-114934800D01*
X122841599Y-114934800D01*
X122817095Y-114933596D01*
X122792827Y-114929996D01*
X122769028Y-114924035D01*
X122745929Y-114915770D01*
X122723750Y-114905280D01*
X122702707Y-114892668D01*
X122683001Y-114878053D01*
X122664823Y-114861577D01*
X122648347Y-114843399D01*
X122633732Y-114823693D01*
X122621120Y-114802650D01*
X122610630Y-114780471D01*
X122602365Y-114757372D01*
X122596404Y-114733573D01*
X122592804Y-114709305D01*
X122591600Y-114684801D01*
X122591600Y-114034799D01*
X122592804Y-114010295D01*
X122596404Y-113986027D01*
X122602365Y-113962228D01*
X122610630Y-113939129D01*
X122621120Y-113916950D01*
X122633732Y-113895907D01*
X122648347Y-113876201D01*
X122664823Y-113858023D01*
X122683001Y-113841547D01*
X122702707Y-113826932D01*
X122723750Y-113814320D01*
X122745929Y-113803830D01*
X122769028Y-113795565D01*
X122792827Y-113789604D01*
X122817095Y-113786004D01*
X122841599Y-113784800D01*
X123741601Y-113784800D01*
X123766105Y-113786004D01*
X123766105Y-113786004D01*
G37*
D11*
X123291600Y-114359800D03*
D10*
G36*
X123766105Y-111736004D02*
X123790373Y-111739604D01*
X123814172Y-111745565D01*
X123837271Y-111753830D01*
X123859450Y-111764320D01*
X123880493Y-111776932D01*
X123900199Y-111791547D01*
X123918377Y-111808023D01*
X123934853Y-111826201D01*
X123949468Y-111845907D01*
X123962080Y-111866950D01*
X123972570Y-111889129D01*
X123980835Y-111912228D01*
X123986796Y-111936027D01*
X123990396Y-111960295D01*
X123991600Y-111984799D01*
X123991600Y-112634801D01*
X123990396Y-112659305D01*
X123986796Y-112683573D01*
X123980835Y-112707372D01*
X123972570Y-112730471D01*
X123962080Y-112752650D01*
X123949468Y-112773693D01*
X123934853Y-112793399D01*
X123918377Y-112811577D01*
X123900199Y-112828053D01*
X123880493Y-112842668D01*
X123859450Y-112855280D01*
X123837271Y-112865770D01*
X123814172Y-112874035D01*
X123790373Y-112879996D01*
X123766105Y-112883596D01*
X123741601Y-112884800D01*
X122841599Y-112884800D01*
X122817095Y-112883596D01*
X122792827Y-112879996D01*
X122769028Y-112874035D01*
X122745929Y-112865770D01*
X122723750Y-112855280D01*
X122702707Y-112842668D01*
X122683001Y-112828053D01*
X122664823Y-112811577D01*
X122648347Y-112793399D01*
X122633732Y-112773693D01*
X122621120Y-112752650D01*
X122610630Y-112730471D01*
X122602365Y-112707372D01*
X122596404Y-112683573D01*
X122592804Y-112659305D01*
X122591600Y-112634801D01*
X122591600Y-111984799D01*
X122592804Y-111960295D01*
X122596404Y-111936027D01*
X122602365Y-111912228D01*
X122610630Y-111889129D01*
X122621120Y-111866950D01*
X122633732Y-111845907D01*
X122648347Y-111826201D01*
X122664823Y-111808023D01*
X122683001Y-111791547D01*
X122702707Y-111776932D01*
X122723750Y-111764320D01*
X122745929Y-111753830D01*
X122769028Y-111745565D01*
X122792827Y-111739604D01*
X122817095Y-111736004D01*
X122841599Y-111734800D01*
X123741601Y-111734800D01*
X123766105Y-111736004D01*
X123766105Y-111736004D01*
G37*
D11*
X123291600Y-112309800D03*
G04 #@! TD*
D10*
G04 #@! TO.C,C10*
G36*
X130254105Y-115988804D02*
X130278373Y-115992404D01*
X130302172Y-115998365D01*
X130325271Y-116006630D01*
X130347450Y-116017120D01*
X130368493Y-116029732D01*
X130388199Y-116044347D01*
X130406377Y-116060823D01*
X130422853Y-116079001D01*
X130437468Y-116098707D01*
X130450080Y-116119750D01*
X130460570Y-116141929D01*
X130468835Y-116165028D01*
X130474796Y-116188827D01*
X130478396Y-116213095D01*
X130479600Y-116237599D01*
X130479600Y-117137601D01*
X130478396Y-117162105D01*
X130474796Y-117186373D01*
X130468835Y-117210172D01*
X130460570Y-117233271D01*
X130450080Y-117255450D01*
X130437468Y-117276493D01*
X130422853Y-117296199D01*
X130406377Y-117314377D01*
X130388199Y-117330853D01*
X130368493Y-117345468D01*
X130347450Y-117358080D01*
X130325271Y-117368570D01*
X130302172Y-117376835D01*
X130278373Y-117382796D01*
X130254105Y-117386396D01*
X130229601Y-117387600D01*
X129579599Y-117387600D01*
X129555095Y-117386396D01*
X129530827Y-117382796D01*
X129507028Y-117376835D01*
X129483929Y-117368570D01*
X129461750Y-117358080D01*
X129440707Y-117345468D01*
X129421001Y-117330853D01*
X129402823Y-117314377D01*
X129386347Y-117296199D01*
X129371732Y-117276493D01*
X129359120Y-117255450D01*
X129348630Y-117233271D01*
X129340365Y-117210172D01*
X129334404Y-117186373D01*
X129330804Y-117162105D01*
X129329600Y-117137601D01*
X129329600Y-116237599D01*
X129330804Y-116213095D01*
X129334404Y-116188827D01*
X129340365Y-116165028D01*
X129348630Y-116141929D01*
X129359120Y-116119750D01*
X129371732Y-116098707D01*
X129386347Y-116079001D01*
X129402823Y-116060823D01*
X129421001Y-116044347D01*
X129440707Y-116029732D01*
X129461750Y-116017120D01*
X129483929Y-116006630D01*
X129507028Y-115998365D01*
X129530827Y-115992404D01*
X129555095Y-115988804D01*
X129579599Y-115987600D01*
X130229601Y-115987600D01*
X130254105Y-115988804D01*
X130254105Y-115988804D01*
G37*
D11*
X129904600Y-116687600D03*
D10*
G36*
X128204105Y-115988804D02*
X128228373Y-115992404D01*
X128252172Y-115998365D01*
X128275271Y-116006630D01*
X128297450Y-116017120D01*
X128318493Y-116029732D01*
X128338199Y-116044347D01*
X128356377Y-116060823D01*
X128372853Y-116079001D01*
X128387468Y-116098707D01*
X128400080Y-116119750D01*
X128410570Y-116141929D01*
X128418835Y-116165028D01*
X128424796Y-116188827D01*
X128428396Y-116213095D01*
X128429600Y-116237599D01*
X128429600Y-117137601D01*
X128428396Y-117162105D01*
X128424796Y-117186373D01*
X128418835Y-117210172D01*
X128410570Y-117233271D01*
X128400080Y-117255450D01*
X128387468Y-117276493D01*
X128372853Y-117296199D01*
X128356377Y-117314377D01*
X128338199Y-117330853D01*
X128318493Y-117345468D01*
X128297450Y-117358080D01*
X128275271Y-117368570D01*
X128252172Y-117376835D01*
X128228373Y-117382796D01*
X128204105Y-117386396D01*
X128179601Y-117387600D01*
X127529599Y-117387600D01*
X127505095Y-117386396D01*
X127480827Y-117382796D01*
X127457028Y-117376835D01*
X127433929Y-117368570D01*
X127411750Y-117358080D01*
X127390707Y-117345468D01*
X127371001Y-117330853D01*
X127352823Y-117314377D01*
X127336347Y-117296199D01*
X127321732Y-117276493D01*
X127309120Y-117255450D01*
X127298630Y-117233271D01*
X127290365Y-117210172D01*
X127284404Y-117186373D01*
X127280804Y-117162105D01*
X127279600Y-117137601D01*
X127279600Y-116237599D01*
X127280804Y-116213095D01*
X127284404Y-116188827D01*
X127290365Y-116165028D01*
X127298630Y-116141929D01*
X127309120Y-116119750D01*
X127321732Y-116098707D01*
X127336347Y-116079001D01*
X127352823Y-116060823D01*
X127371001Y-116044347D01*
X127390707Y-116029732D01*
X127411750Y-116017120D01*
X127433929Y-116006630D01*
X127457028Y-115998365D01*
X127480827Y-115992404D01*
X127505095Y-115988804D01*
X127529599Y-115987600D01*
X128179601Y-115987600D01*
X128204105Y-115988804D01*
X128204105Y-115988804D01*
G37*
D11*
X127854600Y-116687600D03*
G04 #@! TD*
D10*
G04 #@! TO.C,C8*
G36*
X141036704Y-121051004D02*
X141060973Y-121054604D01*
X141084771Y-121060565D01*
X141107871Y-121068830D01*
X141130049Y-121079320D01*
X141151093Y-121091933D01*
X141170798Y-121106547D01*
X141188977Y-121123023D01*
X141205453Y-121141202D01*
X141220067Y-121160907D01*
X141232680Y-121181951D01*
X141243170Y-121204129D01*
X141251435Y-121227229D01*
X141257396Y-121251027D01*
X141260996Y-121275296D01*
X141262200Y-121299800D01*
X141262200Y-123149800D01*
X141260996Y-123174304D01*
X141257396Y-123198573D01*
X141251435Y-123222371D01*
X141243170Y-123245471D01*
X141232680Y-123267649D01*
X141220067Y-123288693D01*
X141205453Y-123308398D01*
X141188977Y-123326577D01*
X141170798Y-123343053D01*
X141151093Y-123357667D01*
X141130049Y-123370280D01*
X141107871Y-123380770D01*
X141084771Y-123389035D01*
X141060973Y-123394996D01*
X141036704Y-123398596D01*
X141012200Y-123399800D01*
X140012200Y-123399800D01*
X139987696Y-123398596D01*
X139963427Y-123394996D01*
X139939629Y-123389035D01*
X139916529Y-123380770D01*
X139894351Y-123370280D01*
X139873307Y-123357667D01*
X139853602Y-123343053D01*
X139835423Y-123326577D01*
X139818947Y-123308398D01*
X139804333Y-123288693D01*
X139791720Y-123267649D01*
X139781230Y-123245471D01*
X139772965Y-123222371D01*
X139767004Y-123198573D01*
X139763404Y-123174304D01*
X139762200Y-123149800D01*
X139762200Y-121299800D01*
X139763404Y-121275296D01*
X139767004Y-121251027D01*
X139772965Y-121227229D01*
X139781230Y-121204129D01*
X139791720Y-121181951D01*
X139804333Y-121160907D01*
X139818947Y-121141202D01*
X139835423Y-121123023D01*
X139853602Y-121106547D01*
X139873307Y-121091933D01*
X139894351Y-121079320D01*
X139916529Y-121068830D01*
X139939629Y-121060565D01*
X139963427Y-121054604D01*
X139987696Y-121051004D01*
X140012200Y-121049800D01*
X141012200Y-121049800D01*
X141036704Y-121051004D01*
X141036704Y-121051004D01*
G37*
D15*
X140512200Y-122224800D03*
D10*
G36*
X137786704Y-121051004D02*
X137810973Y-121054604D01*
X137834771Y-121060565D01*
X137857871Y-121068830D01*
X137880049Y-121079320D01*
X137901093Y-121091933D01*
X137920798Y-121106547D01*
X137938977Y-121123023D01*
X137955453Y-121141202D01*
X137970067Y-121160907D01*
X137982680Y-121181951D01*
X137993170Y-121204129D01*
X138001435Y-121227229D01*
X138007396Y-121251027D01*
X138010996Y-121275296D01*
X138012200Y-121299800D01*
X138012200Y-123149800D01*
X138010996Y-123174304D01*
X138007396Y-123198573D01*
X138001435Y-123222371D01*
X137993170Y-123245471D01*
X137982680Y-123267649D01*
X137970067Y-123288693D01*
X137955453Y-123308398D01*
X137938977Y-123326577D01*
X137920798Y-123343053D01*
X137901093Y-123357667D01*
X137880049Y-123370280D01*
X137857871Y-123380770D01*
X137834771Y-123389035D01*
X137810973Y-123394996D01*
X137786704Y-123398596D01*
X137762200Y-123399800D01*
X136762200Y-123399800D01*
X136737696Y-123398596D01*
X136713427Y-123394996D01*
X136689629Y-123389035D01*
X136666529Y-123380770D01*
X136644351Y-123370280D01*
X136623307Y-123357667D01*
X136603602Y-123343053D01*
X136585423Y-123326577D01*
X136568947Y-123308398D01*
X136554333Y-123288693D01*
X136541720Y-123267649D01*
X136531230Y-123245471D01*
X136522965Y-123222371D01*
X136517004Y-123198573D01*
X136513404Y-123174304D01*
X136512200Y-123149800D01*
X136512200Y-121299800D01*
X136513404Y-121275296D01*
X136517004Y-121251027D01*
X136522965Y-121227229D01*
X136531230Y-121204129D01*
X136541720Y-121181951D01*
X136554333Y-121160907D01*
X136568947Y-121141202D01*
X136585423Y-121123023D01*
X136603602Y-121106547D01*
X136623307Y-121091933D01*
X136644351Y-121079320D01*
X136666529Y-121068830D01*
X136689629Y-121060565D01*
X136713427Y-121054604D01*
X136737696Y-121051004D01*
X136762200Y-121049800D01*
X137762200Y-121049800D01*
X137786704Y-121051004D01*
X137786704Y-121051004D01*
G37*
D15*
X137262200Y-122224800D03*
G04 #@! TD*
D16*
G04 #@! TO.C,J2*
X130490000Y-132035000D03*
X130490000Y-153535000D03*
X103190000Y-153535000D03*
X105390000Y-132035000D03*
D17*
X129095000Y-130235000D03*
X127895000Y-130235000D03*
D18*
X107465000Y-130235000D03*
X126595000Y-130235000D03*
X124895000Y-130235000D03*
X122465000Y-130235000D03*
X119965000Y-130235000D03*
X117465000Y-130235000D03*
X114965000Y-130235000D03*
X112465000Y-130235000D03*
X109965000Y-130235000D03*
G04 #@! TD*
D19*
G04 #@! TO.C,J1*
X138714000Y-151398000D03*
X138064000Y-151398000D03*
X137414000Y-151398000D03*
X136764000Y-151398000D03*
X136114000Y-151398000D03*
D20*
X139876500Y-151758000D03*
X134951500Y-151758000D03*
D21*
X140324000Y-154058000D03*
X134504000Y-154058000D03*
D22*
X138254000Y-154058000D03*
X136574000Y-154058000D03*
G04 #@! TD*
D23*
G04 #@! TO.C,D19*
X111698400Y-80365600D03*
X116698400Y-80365600D03*
G04 #@! TD*
G04 #@! TO.C,D2*
X138796400Y-143611600D03*
X133796400Y-143611600D03*
G04 #@! TD*
G04 #@! TO.C,D1*
X138644000Y-147320000D03*
X133644000Y-147320000D03*
G04 #@! TD*
D24*
G04 #@! TO.C,U1*
X154355800Y-126312400D03*
X155625800Y-126312400D03*
X156895800Y-126312400D03*
X158165800Y-126312400D03*
X159435800Y-126312400D03*
X160705800Y-126312400D03*
X161975800Y-126312400D03*
X163245800Y-126312400D03*
X163245800Y-135612400D03*
X161975800Y-135612400D03*
X160705800Y-135612400D03*
X159435800Y-135612400D03*
X158165800Y-135612400D03*
X156895800Y-135612400D03*
X155625800Y-135612400D03*
X154355800Y-135612400D03*
G04 #@! TD*
D25*
G04 #@! TO.C,U5*
X127863600Y-107898800D03*
D26*
X127863600Y-114198800D03*
X125563600Y-114198800D03*
X130163600Y-114198800D03*
G04 #@! TD*
D27*
G04 #@! TO.C,D8*
X126304000Y-78654400D03*
X128204000Y-78654400D03*
X127254000Y-80654400D03*
G04 #@! TD*
G04 #@! TO.C,D4*
X114808000Y-124476000D03*
X113858000Y-126476000D03*
X115758000Y-126476000D03*
G04 #@! TD*
G04 #@! TO.C,Q3*
X137109200Y-125695200D03*
X136159200Y-127695200D03*
X138059200Y-127695200D03*
G04 #@! TD*
G04 #@! TO.C,Q4*
X142529600Y-130641600D03*
X140629600Y-130641600D03*
X141579600Y-128641600D03*
G04 #@! TD*
G04 #@! TO.C,D3*
X130175000Y-123968000D03*
X129225000Y-125968000D03*
X131125000Y-125968000D03*
G04 #@! TD*
G04 #@! TO.C,D5*
X105791000Y-124222000D03*
X104841000Y-126222000D03*
X106741000Y-126222000D03*
G04 #@! TD*
G04 #@! TO.C,D7*
X122555000Y-124222000D03*
X121605000Y-126222000D03*
X123505000Y-126222000D03*
G04 #@! TD*
G04 #@! TO.C,D6*
X121224000Y-78654400D03*
X123124000Y-78654400D03*
X122174000Y-80654400D03*
G04 #@! TD*
D10*
G04 #@! TO.C,R10*
G36*
X103471505Y-123623204D02*
X103495773Y-123626804D01*
X103519572Y-123632765D01*
X103542671Y-123641030D01*
X103564850Y-123651520D01*
X103585893Y-123664132D01*
X103605599Y-123678747D01*
X103623777Y-123695223D01*
X103640253Y-123713401D01*
X103654868Y-123733107D01*
X103667480Y-123754150D01*
X103677970Y-123776329D01*
X103686235Y-123799428D01*
X103692196Y-123823227D01*
X103695796Y-123847495D01*
X103697000Y-123871999D01*
X103697000Y-124522001D01*
X103695796Y-124546505D01*
X103692196Y-124570773D01*
X103686235Y-124594572D01*
X103677970Y-124617671D01*
X103667480Y-124639850D01*
X103654868Y-124660893D01*
X103640253Y-124680599D01*
X103623777Y-124698777D01*
X103605599Y-124715253D01*
X103585893Y-124729868D01*
X103564850Y-124742480D01*
X103542671Y-124752970D01*
X103519572Y-124761235D01*
X103495773Y-124767196D01*
X103471505Y-124770796D01*
X103447001Y-124772000D01*
X102546999Y-124772000D01*
X102522495Y-124770796D01*
X102498227Y-124767196D01*
X102474428Y-124761235D01*
X102451329Y-124752970D01*
X102429150Y-124742480D01*
X102408107Y-124729868D01*
X102388401Y-124715253D01*
X102370223Y-124698777D01*
X102353747Y-124680599D01*
X102339132Y-124660893D01*
X102326520Y-124639850D01*
X102316030Y-124617671D01*
X102307765Y-124594572D01*
X102301804Y-124570773D01*
X102298204Y-124546505D01*
X102297000Y-124522001D01*
X102297000Y-123871999D01*
X102298204Y-123847495D01*
X102301804Y-123823227D01*
X102307765Y-123799428D01*
X102316030Y-123776329D01*
X102326520Y-123754150D01*
X102339132Y-123733107D01*
X102353747Y-123713401D01*
X102370223Y-123695223D01*
X102388401Y-123678747D01*
X102408107Y-123664132D01*
X102429150Y-123651520D01*
X102451329Y-123641030D01*
X102474428Y-123632765D01*
X102498227Y-123626804D01*
X102522495Y-123623204D01*
X102546999Y-123622000D01*
X103447001Y-123622000D01*
X103471505Y-123623204D01*
X103471505Y-123623204D01*
G37*
D11*
X102997000Y-124197000D03*
D10*
G36*
X103471505Y-125673204D02*
X103495773Y-125676804D01*
X103519572Y-125682765D01*
X103542671Y-125691030D01*
X103564850Y-125701520D01*
X103585893Y-125714132D01*
X103605599Y-125728747D01*
X103623777Y-125745223D01*
X103640253Y-125763401D01*
X103654868Y-125783107D01*
X103667480Y-125804150D01*
X103677970Y-125826329D01*
X103686235Y-125849428D01*
X103692196Y-125873227D01*
X103695796Y-125897495D01*
X103697000Y-125921999D01*
X103697000Y-126572001D01*
X103695796Y-126596505D01*
X103692196Y-126620773D01*
X103686235Y-126644572D01*
X103677970Y-126667671D01*
X103667480Y-126689850D01*
X103654868Y-126710893D01*
X103640253Y-126730599D01*
X103623777Y-126748777D01*
X103605599Y-126765253D01*
X103585893Y-126779868D01*
X103564850Y-126792480D01*
X103542671Y-126802970D01*
X103519572Y-126811235D01*
X103495773Y-126817196D01*
X103471505Y-126820796D01*
X103447001Y-126822000D01*
X102546999Y-126822000D01*
X102522495Y-126820796D01*
X102498227Y-126817196D01*
X102474428Y-126811235D01*
X102451329Y-126802970D01*
X102429150Y-126792480D01*
X102408107Y-126779868D01*
X102388401Y-126765253D01*
X102370223Y-126748777D01*
X102353747Y-126730599D01*
X102339132Y-126710893D01*
X102326520Y-126689850D01*
X102316030Y-126667671D01*
X102307765Y-126644572D01*
X102301804Y-126620773D01*
X102298204Y-126596505D01*
X102297000Y-126572001D01*
X102297000Y-125921999D01*
X102298204Y-125897495D01*
X102301804Y-125873227D01*
X102307765Y-125849428D01*
X102316030Y-125826329D01*
X102326520Y-125804150D01*
X102339132Y-125783107D01*
X102353747Y-125763401D01*
X102370223Y-125745223D01*
X102388401Y-125728747D01*
X102408107Y-125714132D01*
X102429150Y-125701520D01*
X102451329Y-125691030D01*
X102474428Y-125682765D01*
X102498227Y-125676804D01*
X102522495Y-125673204D01*
X102546999Y-125672000D01*
X103447001Y-125672000D01*
X103471505Y-125673204D01*
X103471505Y-125673204D01*
G37*
D11*
X102997000Y-126247000D03*
G04 #@! TD*
D10*
G04 #@! TO.C,R18*
G36*
X141513705Y-124980404D02*
X141537973Y-124984004D01*
X141561772Y-124989965D01*
X141584871Y-124998230D01*
X141607050Y-125008720D01*
X141628093Y-125021332D01*
X141647799Y-125035947D01*
X141665977Y-125052423D01*
X141682453Y-125070601D01*
X141697068Y-125090307D01*
X141709680Y-125111350D01*
X141720170Y-125133529D01*
X141728435Y-125156628D01*
X141734396Y-125180427D01*
X141737996Y-125204695D01*
X141739200Y-125229199D01*
X141739200Y-126129201D01*
X141737996Y-126153705D01*
X141734396Y-126177973D01*
X141728435Y-126201772D01*
X141720170Y-126224871D01*
X141709680Y-126247050D01*
X141697068Y-126268093D01*
X141682453Y-126287799D01*
X141665977Y-126305977D01*
X141647799Y-126322453D01*
X141628093Y-126337068D01*
X141607050Y-126349680D01*
X141584871Y-126360170D01*
X141561772Y-126368435D01*
X141537973Y-126374396D01*
X141513705Y-126377996D01*
X141489201Y-126379200D01*
X140839199Y-126379200D01*
X140814695Y-126377996D01*
X140790427Y-126374396D01*
X140766628Y-126368435D01*
X140743529Y-126360170D01*
X140721350Y-126349680D01*
X140700307Y-126337068D01*
X140680601Y-126322453D01*
X140662423Y-126305977D01*
X140645947Y-126287799D01*
X140631332Y-126268093D01*
X140618720Y-126247050D01*
X140608230Y-126224871D01*
X140599965Y-126201772D01*
X140594004Y-126177973D01*
X140590404Y-126153705D01*
X140589200Y-126129201D01*
X140589200Y-125229199D01*
X140590404Y-125204695D01*
X140594004Y-125180427D01*
X140599965Y-125156628D01*
X140608230Y-125133529D01*
X140618720Y-125111350D01*
X140631332Y-125090307D01*
X140645947Y-125070601D01*
X140662423Y-125052423D01*
X140680601Y-125035947D01*
X140700307Y-125021332D01*
X140721350Y-125008720D01*
X140743529Y-124998230D01*
X140766628Y-124989965D01*
X140790427Y-124984004D01*
X140814695Y-124980404D01*
X140839199Y-124979200D01*
X141489201Y-124979200D01*
X141513705Y-124980404D01*
X141513705Y-124980404D01*
G37*
D11*
X141164200Y-125679200D03*
D10*
G36*
X143563705Y-124980404D02*
X143587973Y-124984004D01*
X143611772Y-124989965D01*
X143634871Y-124998230D01*
X143657050Y-125008720D01*
X143678093Y-125021332D01*
X143697799Y-125035947D01*
X143715977Y-125052423D01*
X143732453Y-125070601D01*
X143747068Y-125090307D01*
X143759680Y-125111350D01*
X143770170Y-125133529D01*
X143778435Y-125156628D01*
X143784396Y-125180427D01*
X143787996Y-125204695D01*
X143789200Y-125229199D01*
X143789200Y-126129201D01*
X143787996Y-126153705D01*
X143784396Y-126177973D01*
X143778435Y-126201772D01*
X143770170Y-126224871D01*
X143759680Y-126247050D01*
X143747068Y-126268093D01*
X143732453Y-126287799D01*
X143715977Y-126305977D01*
X143697799Y-126322453D01*
X143678093Y-126337068D01*
X143657050Y-126349680D01*
X143634871Y-126360170D01*
X143611772Y-126368435D01*
X143587973Y-126374396D01*
X143563705Y-126377996D01*
X143539201Y-126379200D01*
X142889199Y-126379200D01*
X142864695Y-126377996D01*
X142840427Y-126374396D01*
X142816628Y-126368435D01*
X142793529Y-126360170D01*
X142771350Y-126349680D01*
X142750307Y-126337068D01*
X142730601Y-126322453D01*
X142712423Y-126305977D01*
X142695947Y-126287799D01*
X142681332Y-126268093D01*
X142668720Y-126247050D01*
X142658230Y-126224871D01*
X142649965Y-126201772D01*
X142644004Y-126177973D01*
X142640404Y-126153705D01*
X142639200Y-126129201D01*
X142639200Y-125229199D01*
X142640404Y-125204695D01*
X142644004Y-125180427D01*
X142649965Y-125156628D01*
X142658230Y-125133529D01*
X142668720Y-125111350D01*
X142681332Y-125090307D01*
X142695947Y-125070601D01*
X142712423Y-125052423D01*
X142730601Y-125035947D01*
X142750307Y-125021332D01*
X142771350Y-125008720D01*
X142793529Y-124998230D01*
X142816628Y-124989965D01*
X142840427Y-124984004D01*
X142864695Y-124980404D01*
X142889199Y-124979200D01*
X143539201Y-124979200D01*
X143563705Y-124980404D01*
X143563705Y-124980404D01*
G37*
D11*
X143214200Y-125679200D03*
G04 #@! TD*
D10*
G04 #@! TO.C,R17*
G36*
X142954105Y-131990804D02*
X142978373Y-131994404D01*
X143002172Y-132000365D01*
X143025271Y-132008630D01*
X143047450Y-132019120D01*
X143068493Y-132031732D01*
X143088199Y-132046347D01*
X143106377Y-132062823D01*
X143122853Y-132081001D01*
X143137468Y-132100707D01*
X143150080Y-132121750D01*
X143160570Y-132143929D01*
X143168835Y-132167028D01*
X143174796Y-132190827D01*
X143178396Y-132215095D01*
X143179600Y-132239599D01*
X143179600Y-133139601D01*
X143178396Y-133164105D01*
X143174796Y-133188373D01*
X143168835Y-133212172D01*
X143160570Y-133235271D01*
X143150080Y-133257450D01*
X143137468Y-133278493D01*
X143122853Y-133298199D01*
X143106377Y-133316377D01*
X143088199Y-133332853D01*
X143068493Y-133347468D01*
X143047450Y-133360080D01*
X143025271Y-133370570D01*
X143002172Y-133378835D01*
X142978373Y-133384796D01*
X142954105Y-133388396D01*
X142929601Y-133389600D01*
X142279599Y-133389600D01*
X142255095Y-133388396D01*
X142230827Y-133384796D01*
X142207028Y-133378835D01*
X142183929Y-133370570D01*
X142161750Y-133360080D01*
X142140707Y-133347468D01*
X142121001Y-133332853D01*
X142102823Y-133316377D01*
X142086347Y-133298199D01*
X142071732Y-133278493D01*
X142059120Y-133257450D01*
X142048630Y-133235271D01*
X142040365Y-133212172D01*
X142034404Y-133188373D01*
X142030804Y-133164105D01*
X142029600Y-133139601D01*
X142029600Y-132239599D01*
X142030804Y-132215095D01*
X142034404Y-132190827D01*
X142040365Y-132167028D01*
X142048630Y-132143929D01*
X142059120Y-132121750D01*
X142071732Y-132100707D01*
X142086347Y-132081001D01*
X142102823Y-132062823D01*
X142121001Y-132046347D01*
X142140707Y-132031732D01*
X142161750Y-132019120D01*
X142183929Y-132008630D01*
X142207028Y-132000365D01*
X142230827Y-131994404D01*
X142255095Y-131990804D01*
X142279599Y-131989600D01*
X142929601Y-131989600D01*
X142954105Y-131990804D01*
X142954105Y-131990804D01*
G37*
D11*
X142604600Y-132689600D03*
D10*
G36*
X140904105Y-131990804D02*
X140928373Y-131994404D01*
X140952172Y-132000365D01*
X140975271Y-132008630D01*
X140997450Y-132019120D01*
X141018493Y-132031732D01*
X141038199Y-132046347D01*
X141056377Y-132062823D01*
X141072853Y-132081001D01*
X141087468Y-132100707D01*
X141100080Y-132121750D01*
X141110570Y-132143929D01*
X141118835Y-132167028D01*
X141124796Y-132190827D01*
X141128396Y-132215095D01*
X141129600Y-132239599D01*
X141129600Y-133139601D01*
X141128396Y-133164105D01*
X141124796Y-133188373D01*
X141118835Y-133212172D01*
X141110570Y-133235271D01*
X141100080Y-133257450D01*
X141087468Y-133278493D01*
X141072853Y-133298199D01*
X141056377Y-133316377D01*
X141038199Y-133332853D01*
X141018493Y-133347468D01*
X140997450Y-133360080D01*
X140975271Y-133370570D01*
X140952172Y-133378835D01*
X140928373Y-133384796D01*
X140904105Y-133388396D01*
X140879601Y-133389600D01*
X140229599Y-133389600D01*
X140205095Y-133388396D01*
X140180827Y-133384796D01*
X140157028Y-133378835D01*
X140133929Y-133370570D01*
X140111750Y-133360080D01*
X140090707Y-133347468D01*
X140071001Y-133332853D01*
X140052823Y-133316377D01*
X140036347Y-133298199D01*
X140021732Y-133278493D01*
X140009120Y-133257450D01*
X139998630Y-133235271D01*
X139990365Y-133212172D01*
X139984404Y-133188373D01*
X139980804Y-133164105D01*
X139979600Y-133139601D01*
X139979600Y-132239599D01*
X139980804Y-132215095D01*
X139984404Y-132190827D01*
X139990365Y-132167028D01*
X139998630Y-132143929D01*
X140009120Y-132121750D01*
X140021732Y-132100707D01*
X140036347Y-132081001D01*
X140052823Y-132062823D01*
X140071001Y-132046347D01*
X140090707Y-132031732D01*
X140111750Y-132019120D01*
X140133929Y-132008630D01*
X140157028Y-132000365D01*
X140180827Y-131994404D01*
X140205095Y-131990804D01*
X140229599Y-131989600D01*
X140879601Y-131989600D01*
X140904105Y-131990804D01*
X140904105Y-131990804D01*
G37*
D11*
X140554600Y-132689600D03*
G04 #@! TD*
D10*
G04 #@! TO.C,R16*
G36*
X97654905Y-106724804D02*
X97679173Y-106728404D01*
X97702972Y-106734365D01*
X97726071Y-106742630D01*
X97748250Y-106753120D01*
X97769293Y-106765732D01*
X97788999Y-106780347D01*
X97807177Y-106796823D01*
X97823653Y-106815001D01*
X97838268Y-106834707D01*
X97850880Y-106855750D01*
X97861370Y-106877929D01*
X97869635Y-106901028D01*
X97875596Y-106924827D01*
X97879196Y-106949095D01*
X97880400Y-106973599D01*
X97880400Y-107623601D01*
X97879196Y-107648105D01*
X97875596Y-107672373D01*
X97869635Y-107696172D01*
X97861370Y-107719271D01*
X97850880Y-107741450D01*
X97838268Y-107762493D01*
X97823653Y-107782199D01*
X97807177Y-107800377D01*
X97788999Y-107816853D01*
X97769293Y-107831468D01*
X97748250Y-107844080D01*
X97726071Y-107854570D01*
X97702972Y-107862835D01*
X97679173Y-107868796D01*
X97654905Y-107872396D01*
X97630401Y-107873600D01*
X96730399Y-107873600D01*
X96705895Y-107872396D01*
X96681627Y-107868796D01*
X96657828Y-107862835D01*
X96634729Y-107854570D01*
X96612550Y-107844080D01*
X96591507Y-107831468D01*
X96571801Y-107816853D01*
X96553623Y-107800377D01*
X96537147Y-107782199D01*
X96522532Y-107762493D01*
X96509920Y-107741450D01*
X96499430Y-107719271D01*
X96491165Y-107696172D01*
X96485204Y-107672373D01*
X96481604Y-107648105D01*
X96480400Y-107623601D01*
X96480400Y-106973599D01*
X96481604Y-106949095D01*
X96485204Y-106924827D01*
X96491165Y-106901028D01*
X96499430Y-106877929D01*
X96509920Y-106855750D01*
X96522532Y-106834707D01*
X96537147Y-106815001D01*
X96553623Y-106796823D01*
X96571801Y-106780347D01*
X96591507Y-106765732D01*
X96612550Y-106753120D01*
X96634729Y-106742630D01*
X96657828Y-106734365D01*
X96681627Y-106728404D01*
X96705895Y-106724804D01*
X96730399Y-106723600D01*
X97630401Y-106723600D01*
X97654905Y-106724804D01*
X97654905Y-106724804D01*
G37*
D11*
X97180400Y-107298600D03*
D10*
G36*
X97654905Y-104674804D02*
X97679173Y-104678404D01*
X97702972Y-104684365D01*
X97726071Y-104692630D01*
X97748250Y-104703120D01*
X97769293Y-104715732D01*
X97788999Y-104730347D01*
X97807177Y-104746823D01*
X97823653Y-104765001D01*
X97838268Y-104784707D01*
X97850880Y-104805750D01*
X97861370Y-104827929D01*
X97869635Y-104851028D01*
X97875596Y-104874827D01*
X97879196Y-104899095D01*
X97880400Y-104923599D01*
X97880400Y-105573601D01*
X97879196Y-105598105D01*
X97875596Y-105622373D01*
X97869635Y-105646172D01*
X97861370Y-105669271D01*
X97850880Y-105691450D01*
X97838268Y-105712493D01*
X97823653Y-105732199D01*
X97807177Y-105750377D01*
X97788999Y-105766853D01*
X97769293Y-105781468D01*
X97748250Y-105794080D01*
X97726071Y-105804570D01*
X97702972Y-105812835D01*
X97679173Y-105818796D01*
X97654905Y-105822396D01*
X97630401Y-105823600D01*
X96730399Y-105823600D01*
X96705895Y-105822396D01*
X96681627Y-105818796D01*
X96657828Y-105812835D01*
X96634729Y-105804570D01*
X96612550Y-105794080D01*
X96591507Y-105781468D01*
X96571801Y-105766853D01*
X96553623Y-105750377D01*
X96537147Y-105732199D01*
X96522532Y-105712493D01*
X96509920Y-105691450D01*
X96499430Y-105669271D01*
X96491165Y-105646172D01*
X96485204Y-105622373D01*
X96481604Y-105598105D01*
X96480400Y-105573601D01*
X96480400Y-104923599D01*
X96481604Y-104899095D01*
X96485204Y-104874827D01*
X96491165Y-104851028D01*
X96499430Y-104827929D01*
X96509920Y-104805750D01*
X96522532Y-104784707D01*
X96537147Y-104765001D01*
X96553623Y-104746823D01*
X96571801Y-104730347D01*
X96591507Y-104715732D01*
X96612550Y-104703120D01*
X96634729Y-104692630D01*
X96657828Y-104684365D01*
X96681627Y-104678404D01*
X96705895Y-104674804D01*
X96730399Y-104673600D01*
X97630401Y-104673600D01*
X97654905Y-104674804D01*
X97654905Y-104674804D01*
G37*
D11*
X97180400Y-105248600D03*
G04 #@! TD*
D10*
G04 #@! TO.C,R15*
G36*
X97705705Y-108637204D02*
X97729973Y-108640804D01*
X97753772Y-108646765D01*
X97776871Y-108655030D01*
X97799050Y-108665520D01*
X97820093Y-108678132D01*
X97839799Y-108692747D01*
X97857977Y-108709223D01*
X97874453Y-108727401D01*
X97889068Y-108747107D01*
X97901680Y-108768150D01*
X97912170Y-108790329D01*
X97920435Y-108813428D01*
X97926396Y-108837227D01*
X97929996Y-108861495D01*
X97931200Y-108885999D01*
X97931200Y-109536001D01*
X97929996Y-109560505D01*
X97926396Y-109584773D01*
X97920435Y-109608572D01*
X97912170Y-109631671D01*
X97901680Y-109653850D01*
X97889068Y-109674893D01*
X97874453Y-109694599D01*
X97857977Y-109712777D01*
X97839799Y-109729253D01*
X97820093Y-109743868D01*
X97799050Y-109756480D01*
X97776871Y-109766970D01*
X97753772Y-109775235D01*
X97729973Y-109781196D01*
X97705705Y-109784796D01*
X97681201Y-109786000D01*
X96781199Y-109786000D01*
X96756695Y-109784796D01*
X96732427Y-109781196D01*
X96708628Y-109775235D01*
X96685529Y-109766970D01*
X96663350Y-109756480D01*
X96642307Y-109743868D01*
X96622601Y-109729253D01*
X96604423Y-109712777D01*
X96587947Y-109694599D01*
X96573332Y-109674893D01*
X96560720Y-109653850D01*
X96550230Y-109631671D01*
X96541965Y-109608572D01*
X96536004Y-109584773D01*
X96532404Y-109560505D01*
X96531200Y-109536001D01*
X96531200Y-108885999D01*
X96532404Y-108861495D01*
X96536004Y-108837227D01*
X96541965Y-108813428D01*
X96550230Y-108790329D01*
X96560720Y-108768150D01*
X96573332Y-108747107D01*
X96587947Y-108727401D01*
X96604423Y-108709223D01*
X96622601Y-108692747D01*
X96642307Y-108678132D01*
X96663350Y-108665520D01*
X96685529Y-108655030D01*
X96708628Y-108646765D01*
X96732427Y-108640804D01*
X96756695Y-108637204D01*
X96781199Y-108636000D01*
X97681201Y-108636000D01*
X97705705Y-108637204D01*
X97705705Y-108637204D01*
G37*
D11*
X97231200Y-109211000D03*
D10*
G36*
X97705705Y-110687204D02*
X97729973Y-110690804D01*
X97753772Y-110696765D01*
X97776871Y-110705030D01*
X97799050Y-110715520D01*
X97820093Y-110728132D01*
X97839799Y-110742747D01*
X97857977Y-110759223D01*
X97874453Y-110777401D01*
X97889068Y-110797107D01*
X97901680Y-110818150D01*
X97912170Y-110840329D01*
X97920435Y-110863428D01*
X97926396Y-110887227D01*
X97929996Y-110911495D01*
X97931200Y-110935999D01*
X97931200Y-111586001D01*
X97929996Y-111610505D01*
X97926396Y-111634773D01*
X97920435Y-111658572D01*
X97912170Y-111681671D01*
X97901680Y-111703850D01*
X97889068Y-111724893D01*
X97874453Y-111744599D01*
X97857977Y-111762777D01*
X97839799Y-111779253D01*
X97820093Y-111793868D01*
X97799050Y-111806480D01*
X97776871Y-111816970D01*
X97753772Y-111825235D01*
X97729973Y-111831196D01*
X97705705Y-111834796D01*
X97681201Y-111836000D01*
X96781199Y-111836000D01*
X96756695Y-111834796D01*
X96732427Y-111831196D01*
X96708628Y-111825235D01*
X96685529Y-111816970D01*
X96663350Y-111806480D01*
X96642307Y-111793868D01*
X96622601Y-111779253D01*
X96604423Y-111762777D01*
X96587947Y-111744599D01*
X96573332Y-111724893D01*
X96560720Y-111703850D01*
X96550230Y-111681671D01*
X96541965Y-111658572D01*
X96536004Y-111634773D01*
X96532404Y-111610505D01*
X96531200Y-111586001D01*
X96531200Y-110935999D01*
X96532404Y-110911495D01*
X96536004Y-110887227D01*
X96541965Y-110863428D01*
X96550230Y-110840329D01*
X96560720Y-110818150D01*
X96573332Y-110797107D01*
X96587947Y-110777401D01*
X96604423Y-110759223D01*
X96622601Y-110742747D01*
X96642307Y-110728132D01*
X96663350Y-110715520D01*
X96685529Y-110705030D01*
X96708628Y-110696765D01*
X96732427Y-110690804D01*
X96756695Y-110687204D01*
X96781199Y-110686000D01*
X97681201Y-110686000D01*
X97705705Y-110687204D01*
X97705705Y-110687204D01*
G37*
D11*
X97231200Y-111261000D03*
G04 #@! TD*
D10*
G04 #@! TO.C,R14*
G36*
X120235505Y-125800204D02*
X120259773Y-125803804D01*
X120283572Y-125809765D01*
X120306671Y-125818030D01*
X120328850Y-125828520D01*
X120349893Y-125841132D01*
X120369599Y-125855747D01*
X120387777Y-125872223D01*
X120404253Y-125890401D01*
X120418868Y-125910107D01*
X120431480Y-125931150D01*
X120441970Y-125953329D01*
X120450235Y-125976428D01*
X120456196Y-126000227D01*
X120459796Y-126024495D01*
X120461000Y-126048999D01*
X120461000Y-126699001D01*
X120459796Y-126723505D01*
X120456196Y-126747773D01*
X120450235Y-126771572D01*
X120441970Y-126794671D01*
X120431480Y-126816850D01*
X120418868Y-126837893D01*
X120404253Y-126857599D01*
X120387777Y-126875777D01*
X120369599Y-126892253D01*
X120349893Y-126906868D01*
X120328850Y-126919480D01*
X120306671Y-126929970D01*
X120283572Y-126938235D01*
X120259773Y-126944196D01*
X120235505Y-126947796D01*
X120211001Y-126949000D01*
X119310999Y-126949000D01*
X119286495Y-126947796D01*
X119262227Y-126944196D01*
X119238428Y-126938235D01*
X119215329Y-126929970D01*
X119193150Y-126919480D01*
X119172107Y-126906868D01*
X119152401Y-126892253D01*
X119134223Y-126875777D01*
X119117747Y-126857599D01*
X119103132Y-126837893D01*
X119090520Y-126816850D01*
X119080030Y-126794671D01*
X119071765Y-126771572D01*
X119065804Y-126747773D01*
X119062204Y-126723505D01*
X119061000Y-126699001D01*
X119061000Y-126048999D01*
X119062204Y-126024495D01*
X119065804Y-126000227D01*
X119071765Y-125976428D01*
X119080030Y-125953329D01*
X119090520Y-125931150D01*
X119103132Y-125910107D01*
X119117747Y-125890401D01*
X119134223Y-125872223D01*
X119152401Y-125855747D01*
X119172107Y-125841132D01*
X119193150Y-125828520D01*
X119215329Y-125818030D01*
X119238428Y-125809765D01*
X119262227Y-125803804D01*
X119286495Y-125800204D01*
X119310999Y-125799000D01*
X120211001Y-125799000D01*
X120235505Y-125800204D01*
X120235505Y-125800204D01*
G37*
D11*
X119761000Y-126374000D03*
D10*
G36*
X120235505Y-123750204D02*
X120259773Y-123753804D01*
X120283572Y-123759765D01*
X120306671Y-123768030D01*
X120328850Y-123778520D01*
X120349893Y-123791132D01*
X120369599Y-123805747D01*
X120387777Y-123822223D01*
X120404253Y-123840401D01*
X120418868Y-123860107D01*
X120431480Y-123881150D01*
X120441970Y-123903329D01*
X120450235Y-123926428D01*
X120456196Y-123950227D01*
X120459796Y-123974495D01*
X120461000Y-123998999D01*
X120461000Y-124649001D01*
X120459796Y-124673505D01*
X120456196Y-124697773D01*
X120450235Y-124721572D01*
X120441970Y-124744671D01*
X120431480Y-124766850D01*
X120418868Y-124787893D01*
X120404253Y-124807599D01*
X120387777Y-124825777D01*
X120369599Y-124842253D01*
X120349893Y-124856868D01*
X120328850Y-124869480D01*
X120306671Y-124879970D01*
X120283572Y-124888235D01*
X120259773Y-124894196D01*
X120235505Y-124897796D01*
X120211001Y-124899000D01*
X119310999Y-124899000D01*
X119286495Y-124897796D01*
X119262227Y-124894196D01*
X119238428Y-124888235D01*
X119215329Y-124879970D01*
X119193150Y-124869480D01*
X119172107Y-124856868D01*
X119152401Y-124842253D01*
X119134223Y-124825777D01*
X119117747Y-124807599D01*
X119103132Y-124787893D01*
X119090520Y-124766850D01*
X119080030Y-124744671D01*
X119071765Y-124721572D01*
X119065804Y-124697773D01*
X119062204Y-124673505D01*
X119061000Y-124649001D01*
X119061000Y-123998999D01*
X119062204Y-123974495D01*
X119065804Y-123950227D01*
X119071765Y-123926428D01*
X119080030Y-123903329D01*
X119090520Y-123881150D01*
X119103132Y-123860107D01*
X119117747Y-123840401D01*
X119134223Y-123822223D01*
X119152401Y-123805747D01*
X119172107Y-123791132D01*
X119193150Y-123778520D01*
X119215329Y-123768030D01*
X119238428Y-123759765D01*
X119262227Y-123753804D01*
X119286495Y-123750204D01*
X119310999Y-123749000D01*
X120211001Y-123749000D01*
X120235505Y-123750204D01*
X120235505Y-123750204D01*
G37*
D11*
X119761000Y-124324000D03*
G04 #@! TD*
D10*
G04 #@! TO.C,R11*
G36*
X125823505Y-123496204D02*
X125847773Y-123499804D01*
X125871572Y-123505765D01*
X125894671Y-123514030D01*
X125916850Y-123524520D01*
X125937893Y-123537132D01*
X125957599Y-123551747D01*
X125975777Y-123568223D01*
X125992253Y-123586401D01*
X126006868Y-123606107D01*
X126019480Y-123627150D01*
X126029970Y-123649329D01*
X126038235Y-123672428D01*
X126044196Y-123696227D01*
X126047796Y-123720495D01*
X126049000Y-123744999D01*
X126049000Y-124395001D01*
X126047796Y-124419505D01*
X126044196Y-124443773D01*
X126038235Y-124467572D01*
X126029970Y-124490671D01*
X126019480Y-124512850D01*
X126006868Y-124533893D01*
X125992253Y-124553599D01*
X125975777Y-124571777D01*
X125957599Y-124588253D01*
X125937893Y-124602868D01*
X125916850Y-124615480D01*
X125894671Y-124625970D01*
X125871572Y-124634235D01*
X125847773Y-124640196D01*
X125823505Y-124643796D01*
X125799001Y-124645000D01*
X124898999Y-124645000D01*
X124874495Y-124643796D01*
X124850227Y-124640196D01*
X124826428Y-124634235D01*
X124803329Y-124625970D01*
X124781150Y-124615480D01*
X124760107Y-124602868D01*
X124740401Y-124588253D01*
X124722223Y-124571777D01*
X124705747Y-124553599D01*
X124691132Y-124533893D01*
X124678520Y-124512850D01*
X124668030Y-124490671D01*
X124659765Y-124467572D01*
X124653804Y-124443773D01*
X124650204Y-124419505D01*
X124649000Y-124395001D01*
X124649000Y-123744999D01*
X124650204Y-123720495D01*
X124653804Y-123696227D01*
X124659765Y-123672428D01*
X124668030Y-123649329D01*
X124678520Y-123627150D01*
X124691132Y-123606107D01*
X124705747Y-123586401D01*
X124722223Y-123568223D01*
X124740401Y-123551747D01*
X124760107Y-123537132D01*
X124781150Y-123524520D01*
X124803329Y-123514030D01*
X124826428Y-123505765D01*
X124850227Y-123499804D01*
X124874495Y-123496204D01*
X124898999Y-123495000D01*
X125799001Y-123495000D01*
X125823505Y-123496204D01*
X125823505Y-123496204D01*
G37*
D11*
X125349000Y-124070000D03*
D10*
G36*
X125823505Y-125546204D02*
X125847773Y-125549804D01*
X125871572Y-125555765D01*
X125894671Y-125564030D01*
X125916850Y-125574520D01*
X125937893Y-125587132D01*
X125957599Y-125601747D01*
X125975777Y-125618223D01*
X125992253Y-125636401D01*
X126006868Y-125656107D01*
X126019480Y-125677150D01*
X126029970Y-125699329D01*
X126038235Y-125722428D01*
X126044196Y-125746227D01*
X126047796Y-125770495D01*
X126049000Y-125794999D01*
X126049000Y-126445001D01*
X126047796Y-126469505D01*
X126044196Y-126493773D01*
X126038235Y-126517572D01*
X126029970Y-126540671D01*
X126019480Y-126562850D01*
X126006868Y-126583893D01*
X125992253Y-126603599D01*
X125975777Y-126621777D01*
X125957599Y-126638253D01*
X125937893Y-126652868D01*
X125916850Y-126665480D01*
X125894671Y-126675970D01*
X125871572Y-126684235D01*
X125847773Y-126690196D01*
X125823505Y-126693796D01*
X125799001Y-126695000D01*
X124898999Y-126695000D01*
X124874495Y-126693796D01*
X124850227Y-126690196D01*
X124826428Y-126684235D01*
X124803329Y-126675970D01*
X124781150Y-126665480D01*
X124760107Y-126652868D01*
X124740401Y-126638253D01*
X124722223Y-126621777D01*
X124705747Y-126603599D01*
X124691132Y-126583893D01*
X124678520Y-126562850D01*
X124668030Y-126540671D01*
X124659765Y-126517572D01*
X124653804Y-126493773D01*
X124650204Y-126469505D01*
X124649000Y-126445001D01*
X124649000Y-125794999D01*
X124650204Y-125770495D01*
X124653804Y-125746227D01*
X124659765Y-125722428D01*
X124668030Y-125699329D01*
X124678520Y-125677150D01*
X124691132Y-125656107D01*
X124705747Y-125636401D01*
X124722223Y-125618223D01*
X124740401Y-125601747D01*
X124760107Y-125587132D01*
X124781150Y-125574520D01*
X124803329Y-125564030D01*
X124826428Y-125555765D01*
X124850227Y-125549804D01*
X124874495Y-125546204D01*
X124898999Y-125545000D01*
X125799001Y-125545000D01*
X125823505Y-125546204D01*
X125823505Y-125546204D01*
G37*
D11*
X125349000Y-126120000D03*
G04 #@! TD*
D10*
G04 #@! TO.C,R7*
G36*
X112488505Y-123623204D02*
X112512773Y-123626804D01*
X112536572Y-123632765D01*
X112559671Y-123641030D01*
X112581850Y-123651520D01*
X112602893Y-123664132D01*
X112622599Y-123678747D01*
X112640777Y-123695223D01*
X112657253Y-123713401D01*
X112671868Y-123733107D01*
X112684480Y-123754150D01*
X112694970Y-123776329D01*
X112703235Y-123799428D01*
X112709196Y-123823227D01*
X112712796Y-123847495D01*
X112714000Y-123871999D01*
X112714000Y-124522001D01*
X112712796Y-124546505D01*
X112709196Y-124570773D01*
X112703235Y-124594572D01*
X112694970Y-124617671D01*
X112684480Y-124639850D01*
X112671868Y-124660893D01*
X112657253Y-124680599D01*
X112640777Y-124698777D01*
X112622599Y-124715253D01*
X112602893Y-124729868D01*
X112581850Y-124742480D01*
X112559671Y-124752970D01*
X112536572Y-124761235D01*
X112512773Y-124767196D01*
X112488505Y-124770796D01*
X112464001Y-124772000D01*
X111563999Y-124772000D01*
X111539495Y-124770796D01*
X111515227Y-124767196D01*
X111491428Y-124761235D01*
X111468329Y-124752970D01*
X111446150Y-124742480D01*
X111425107Y-124729868D01*
X111405401Y-124715253D01*
X111387223Y-124698777D01*
X111370747Y-124680599D01*
X111356132Y-124660893D01*
X111343520Y-124639850D01*
X111333030Y-124617671D01*
X111324765Y-124594572D01*
X111318804Y-124570773D01*
X111315204Y-124546505D01*
X111314000Y-124522001D01*
X111314000Y-123871999D01*
X111315204Y-123847495D01*
X111318804Y-123823227D01*
X111324765Y-123799428D01*
X111333030Y-123776329D01*
X111343520Y-123754150D01*
X111356132Y-123733107D01*
X111370747Y-123713401D01*
X111387223Y-123695223D01*
X111405401Y-123678747D01*
X111425107Y-123664132D01*
X111446150Y-123651520D01*
X111468329Y-123641030D01*
X111491428Y-123632765D01*
X111515227Y-123626804D01*
X111539495Y-123623204D01*
X111563999Y-123622000D01*
X112464001Y-123622000D01*
X112488505Y-123623204D01*
X112488505Y-123623204D01*
G37*
D11*
X112014000Y-124197000D03*
D10*
G36*
X112488505Y-125673204D02*
X112512773Y-125676804D01*
X112536572Y-125682765D01*
X112559671Y-125691030D01*
X112581850Y-125701520D01*
X112602893Y-125714132D01*
X112622599Y-125728747D01*
X112640777Y-125745223D01*
X112657253Y-125763401D01*
X112671868Y-125783107D01*
X112684480Y-125804150D01*
X112694970Y-125826329D01*
X112703235Y-125849428D01*
X112709196Y-125873227D01*
X112712796Y-125897495D01*
X112714000Y-125921999D01*
X112714000Y-126572001D01*
X112712796Y-126596505D01*
X112709196Y-126620773D01*
X112703235Y-126644572D01*
X112694970Y-126667671D01*
X112684480Y-126689850D01*
X112671868Y-126710893D01*
X112657253Y-126730599D01*
X112640777Y-126748777D01*
X112622599Y-126765253D01*
X112602893Y-126779868D01*
X112581850Y-126792480D01*
X112559671Y-126802970D01*
X112536572Y-126811235D01*
X112512773Y-126817196D01*
X112488505Y-126820796D01*
X112464001Y-126822000D01*
X111563999Y-126822000D01*
X111539495Y-126820796D01*
X111515227Y-126817196D01*
X111491428Y-126811235D01*
X111468329Y-126802970D01*
X111446150Y-126792480D01*
X111425107Y-126779868D01*
X111405401Y-126765253D01*
X111387223Y-126748777D01*
X111370747Y-126730599D01*
X111356132Y-126710893D01*
X111343520Y-126689850D01*
X111333030Y-126667671D01*
X111324765Y-126644572D01*
X111318804Y-126620773D01*
X111315204Y-126596505D01*
X111314000Y-126572001D01*
X111314000Y-125921999D01*
X111315204Y-125897495D01*
X111318804Y-125873227D01*
X111324765Y-125849428D01*
X111333030Y-125826329D01*
X111343520Y-125804150D01*
X111356132Y-125783107D01*
X111370747Y-125763401D01*
X111387223Y-125745223D01*
X111405401Y-125728747D01*
X111425107Y-125714132D01*
X111446150Y-125701520D01*
X111468329Y-125691030D01*
X111491428Y-125682765D01*
X111515227Y-125676804D01*
X111539495Y-125673204D01*
X111563999Y-125672000D01*
X112464001Y-125672000D01*
X112488505Y-125673204D01*
X112488505Y-125673204D01*
G37*
D11*
X112014000Y-126247000D03*
G04 #@! TD*
D10*
G04 #@! TO.C,R6*
G36*
X118203505Y-125800204D02*
X118227773Y-125803804D01*
X118251572Y-125809765D01*
X118274671Y-125818030D01*
X118296850Y-125828520D01*
X118317893Y-125841132D01*
X118337599Y-125855747D01*
X118355777Y-125872223D01*
X118372253Y-125890401D01*
X118386868Y-125910107D01*
X118399480Y-125931150D01*
X118409970Y-125953329D01*
X118418235Y-125976428D01*
X118424196Y-126000227D01*
X118427796Y-126024495D01*
X118429000Y-126048999D01*
X118429000Y-126699001D01*
X118427796Y-126723505D01*
X118424196Y-126747773D01*
X118418235Y-126771572D01*
X118409970Y-126794671D01*
X118399480Y-126816850D01*
X118386868Y-126837893D01*
X118372253Y-126857599D01*
X118355777Y-126875777D01*
X118337599Y-126892253D01*
X118317893Y-126906868D01*
X118296850Y-126919480D01*
X118274671Y-126929970D01*
X118251572Y-126938235D01*
X118227773Y-126944196D01*
X118203505Y-126947796D01*
X118179001Y-126949000D01*
X117278999Y-126949000D01*
X117254495Y-126947796D01*
X117230227Y-126944196D01*
X117206428Y-126938235D01*
X117183329Y-126929970D01*
X117161150Y-126919480D01*
X117140107Y-126906868D01*
X117120401Y-126892253D01*
X117102223Y-126875777D01*
X117085747Y-126857599D01*
X117071132Y-126837893D01*
X117058520Y-126816850D01*
X117048030Y-126794671D01*
X117039765Y-126771572D01*
X117033804Y-126747773D01*
X117030204Y-126723505D01*
X117029000Y-126699001D01*
X117029000Y-126048999D01*
X117030204Y-126024495D01*
X117033804Y-126000227D01*
X117039765Y-125976428D01*
X117048030Y-125953329D01*
X117058520Y-125931150D01*
X117071132Y-125910107D01*
X117085747Y-125890401D01*
X117102223Y-125872223D01*
X117120401Y-125855747D01*
X117140107Y-125841132D01*
X117161150Y-125828520D01*
X117183329Y-125818030D01*
X117206428Y-125809765D01*
X117230227Y-125803804D01*
X117254495Y-125800204D01*
X117278999Y-125799000D01*
X118179001Y-125799000D01*
X118203505Y-125800204D01*
X118203505Y-125800204D01*
G37*
D11*
X117729000Y-126374000D03*
D10*
G36*
X118203505Y-123750204D02*
X118227773Y-123753804D01*
X118251572Y-123759765D01*
X118274671Y-123768030D01*
X118296850Y-123778520D01*
X118317893Y-123791132D01*
X118337599Y-123805747D01*
X118355777Y-123822223D01*
X118372253Y-123840401D01*
X118386868Y-123860107D01*
X118399480Y-123881150D01*
X118409970Y-123903329D01*
X118418235Y-123926428D01*
X118424196Y-123950227D01*
X118427796Y-123974495D01*
X118429000Y-123998999D01*
X118429000Y-124649001D01*
X118427796Y-124673505D01*
X118424196Y-124697773D01*
X118418235Y-124721572D01*
X118409970Y-124744671D01*
X118399480Y-124766850D01*
X118386868Y-124787893D01*
X118372253Y-124807599D01*
X118355777Y-124825777D01*
X118337599Y-124842253D01*
X118317893Y-124856868D01*
X118296850Y-124869480D01*
X118274671Y-124879970D01*
X118251572Y-124888235D01*
X118227773Y-124894196D01*
X118203505Y-124897796D01*
X118179001Y-124899000D01*
X117278999Y-124899000D01*
X117254495Y-124897796D01*
X117230227Y-124894196D01*
X117206428Y-124888235D01*
X117183329Y-124879970D01*
X117161150Y-124869480D01*
X117140107Y-124856868D01*
X117120401Y-124842253D01*
X117102223Y-124825777D01*
X117085747Y-124807599D01*
X117071132Y-124787893D01*
X117058520Y-124766850D01*
X117048030Y-124744671D01*
X117039765Y-124721572D01*
X117033804Y-124697773D01*
X117030204Y-124673505D01*
X117029000Y-124649001D01*
X117029000Y-123998999D01*
X117030204Y-123974495D01*
X117033804Y-123950227D01*
X117039765Y-123926428D01*
X117048030Y-123903329D01*
X117058520Y-123881150D01*
X117071132Y-123860107D01*
X117085747Y-123840401D01*
X117102223Y-123822223D01*
X117120401Y-123805747D01*
X117140107Y-123791132D01*
X117161150Y-123778520D01*
X117183329Y-123768030D01*
X117206428Y-123759765D01*
X117230227Y-123753804D01*
X117254495Y-123750204D01*
X117278999Y-123749000D01*
X118179001Y-123749000D01*
X118203505Y-123750204D01*
X118203505Y-123750204D01*
G37*
D11*
X117729000Y-124324000D03*
G04 #@! TD*
D10*
G04 #@! TO.C,R5*
G36*
X127855505Y-123496204D02*
X127879773Y-123499804D01*
X127903572Y-123505765D01*
X127926671Y-123514030D01*
X127948850Y-123524520D01*
X127969893Y-123537132D01*
X127989599Y-123551747D01*
X128007777Y-123568223D01*
X128024253Y-123586401D01*
X128038868Y-123606107D01*
X128051480Y-123627150D01*
X128061970Y-123649329D01*
X128070235Y-123672428D01*
X128076196Y-123696227D01*
X128079796Y-123720495D01*
X128081000Y-123744999D01*
X128081000Y-124395001D01*
X128079796Y-124419505D01*
X128076196Y-124443773D01*
X128070235Y-124467572D01*
X128061970Y-124490671D01*
X128051480Y-124512850D01*
X128038868Y-124533893D01*
X128024253Y-124553599D01*
X128007777Y-124571777D01*
X127989599Y-124588253D01*
X127969893Y-124602868D01*
X127948850Y-124615480D01*
X127926671Y-124625970D01*
X127903572Y-124634235D01*
X127879773Y-124640196D01*
X127855505Y-124643796D01*
X127831001Y-124645000D01*
X126930999Y-124645000D01*
X126906495Y-124643796D01*
X126882227Y-124640196D01*
X126858428Y-124634235D01*
X126835329Y-124625970D01*
X126813150Y-124615480D01*
X126792107Y-124602868D01*
X126772401Y-124588253D01*
X126754223Y-124571777D01*
X126737747Y-124553599D01*
X126723132Y-124533893D01*
X126710520Y-124512850D01*
X126700030Y-124490671D01*
X126691765Y-124467572D01*
X126685804Y-124443773D01*
X126682204Y-124419505D01*
X126681000Y-124395001D01*
X126681000Y-123744999D01*
X126682204Y-123720495D01*
X126685804Y-123696227D01*
X126691765Y-123672428D01*
X126700030Y-123649329D01*
X126710520Y-123627150D01*
X126723132Y-123606107D01*
X126737747Y-123586401D01*
X126754223Y-123568223D01*
X126772401Y-123551747D01*
X126792107Y-123537132D01*
X126813150Y-123524520D01*
X126835329Y-123514030D01*
X126858428Y-123505765D01*
X126882227Y-123499804D01*
X126906495Y-123496204D01*
X126930999Y-123495000D01*
X127831001Y-123495000D01*
X127855505Y-123496204D01*
X127855505Y-123496204D01*
G37*
D11*
X127381000Y-124070000D03*
D10*
G36*
X127855505Y-125546204D02*
X127879773Y-125549804D01*
X127903572Y-125555765D01*
X127926671Y-125564030D01*
X127948850Y-125574520D01*
X127969893Y-125587132D01*
X127989599Y-125601747D01*
X128007777Y-125618223D01*
X128024253Y-125636401D01*
X128038868Y-125656107D01*
X128051480Y-125677150D01*
X128061970Y-125699329D01*
X128070235Y-125722428D01*
X128076196Y-125746227D01*
X128079796Y-125770495D01*
X128081000Y-125794999D01*
X128081000Y-126445001D01*
X128079796Y-126469505D01*
X128076196Y-126493773D01*
X128070235Y-126517572D01*
X128061970Y-126540671D01*
X128051480Y-126562850D01*
X128038868Y-126583893D01*
X128024253Y-126603599D01*
X128007777Y-126621777D01*
X127989599Y-126638253D01*
X127969893Y-126652868D01*
X127948850Y-126665480D01*
X127926671Y-126675970D01*
X127903572Y-126684235D01*
X127879773Y-126690196D01*
X127855505Y-126693796D01*
X127831001Y-126695000D01*
X126930999Y-126695000D01*
X126906495Y-126693796D01*
X126882227Y-126690196D01*
X126858428Y-126684235D01*
X126835329Y-126675970D01*
X126813150Y-126665480D01*
X126792107Y-126652868D01*
X126772401Y-126638253D01*
X126754223Y-126621777D01*
X126737747Y-126603599D01*
X126723132Y-126583893D01*
X126710520Y-126562850D01*
X126700030Y-126540671D01*
X126691765Y-126517572D01*
X126685804Y-126493773D01*
X126682204Y-126469505D01*
X126681000Y-126445001D01*
X126681000Y-125794999D01*
X126682204Y-125770495D01*
X126685804Y-125746227D01*
X126691765Y-125722428D01*
X126700030Y-125699329D01*
X126710520Y-125677150D01*
X126723132Y-125656107D01*
X126737747Y-125636401D01*
X126754223Y-125618223D01*
X126772401Y-125601747D01*
X126792107Y-125587132D01*
X126813150Y-125574520D01*
X126835329Y-125564030D01*
X126858428Y-125555765D01*
X126882227Y-125549804D01*
X126906495Y-125546204D01*
X126930999Y-125545000D01*
X127831001Y-125545000D01*
X127855505Y-125546204D01*
X127855505Y-125546204D01*
G37*
D11*
X127381000Y-126120000D03*
G04 #@! TD*
D10*
G04 #@! TO.C,R4*
G36*
X133443505Y-125165204D02*
X133467773Y-125168804D01*
X133491572Y-125174765D01*
X133514671Y-125183030D01*
X133536850Y-125193520D01*
X133557893Y-125206132D01*
X133577599Y-125220747D01*
X133595777Y-125237223D01*
X133612253Y-125255401D01*
X133626868Y-125275107D01*
X133639480Y-125296150D01*
X133649970Y-125318329D01*
X133658235Y-125341428D01*
X133664196Y-125365227D01*
X133667796Y-125389495D01*
X133669000Y-125413999D01*
X133669000Y-126064001D01*
X133667796Y-126088505D01*
X133664196Y-126112773D01*
X133658235Y-126136572D01*
X133649970Y-126159671D01*
X133639480Y-126181850D01*
X133626868Y-126202893D01*
X133612253Y-126222599D01*
X133595777Y-126240777D01*
X133577599Y-126257253D01*
X133557893Y-126271868D01*
X133536850Y-126284480D01*
X133514671Y-126294970D01*
X133491572Y-126303235D01*
X133467773Y-126309196D01*
X133443505Y-126312796D01*
X133419001Y-126314000D01*
X132518999Y-126314000D01*
X132494495Y-126312796D01*
X132470227Y-126309196D01*
X132446428Y-126303235D01*
X132423329Y-126294970D01*
X132401150Y-126284480D01*
X132380107Y-126271868D01*
X132360401Y-126257253D01*
X132342223Y-126240777D01*
X132325747Y-126222599D01*
X132311132Y-126202893D01*
X132298520Y-126181850D01*
X132288030Y-126159671D01*
X132279765Y-126136572D01*
X132273804Y-126112773D01*
X132270204Y-126088505D01*
X132269000Y-126064001D01*
X132269000Y-125413999D01*
X132270204Y-125389495D01*
X132273804Y-125365227D01*
X132279765Y-125341428D01*
X132288030Y-125318329D01*
X132298520Y-125296150D01*
X132311132Y-125275107D01*
X132325747Y-125255401D01*
X132342223Y-125237223D01*
X132360401Y-125220747D01*
X132380107Y-125206132D01*
X132401150Y-125193520D01*
X132423329Y-125183030D01*
X132446428Y-125174765D01*
X132470227Y-125168804D01*
X132494495Y-125165204D01*
X132518999Y-125164000D01*
X133419001Y-125164000D01*
X133443505Y-125165204D01*
X133443505Y-125165204D01*
G37*
D11*
X132969000Y-125739000D03*
D10*
G36*
X133443505Y-123115204D02*
X133467773Y-123118804D01*
X133491572Y-123124765D01*
X133514671Y-123133030D01*
X133536850Y-123143520D01*
X133557893Y-123156132D01*
X133577599Y-123170747D01*
X133595777Y-123187223D01*
X133612253Y-123205401D01*
X133626868Y-123225107D01*
X133639480Y-123246150D01*
X133649970Y-123268329D01*
X133658235Y-123291428D01*
X133664196Y-123315227D01*
X133667796Y-123339495D01*
X133669000Y-123363999D01*
X133669000Y-124014001D01*
X133667796Y-124038505D01*
X133664196Y-124062773D01*
X133658235Y-124086572D01*
X133649970Y-124109671D01*
X133639480Y-124131850D01*
X133626868Y-124152893D01*
X133612253Y-124172599D01*
X133595777Y-124190777D01*
X133577599Y-124207253D01*
X133557893Y-124221868D01*
X133536850Y-124234480D01*
X133514671Y-124244970D01*
X133491572Y-124253235D01*
X133467773Y-124259196D01*
X133443505Y-124262796D01*
X133419001Y-124264000D01*
X132518999Y-124264000D01*
X132494495Y-124262796D01*
X132470227Y-124259196D01*
X132446428Y-124253235D01*
X132423329Y-124244970D01*
X132401150Y-124234480D01*
X132380107Y-124221868D01*
X132360401Y-124207253D01*
X132342223Y-124190777D01*
X132325747Y-124172599D01*
X132311132Y-124152893D01*
X132298520Y-124131850D01*
X132288030Y-124109671D01*
X132279765Y-124086572D01*
X132273804Y-124062773D01*
X132270204Y-124038505D01*
X132269000Y-124014001D01*
X132269000Y-123363999D01*
X132270204Y-123339495D01*
X132273804Y-123315227D01*
X132279765Y-123291428D01*
X132288030Y-123268329D01*
X132298520Y-123246150D01*
X132311132Y-123225107D01*
X132325747Y-123205401D01*
X132342223Y-123187223D01*
X132360401Y-123170747D01*
X132380107Y-123156132D01*
X132401150Y-123143520D01*
X132423329Y-123133030D01*
X132446428Y-123124765D01*
X132470227Y-123118804D01*
X132494495Y-123115204D01*
X132518999Y-123114000D01*
X133419001Y-123114000D01*
X133443505Y-123115204D01*
X133443505Y-123115204D01*
G37*
D11*
X132969000Y-123689000D03*
G04 #@! TD*
D10*
G04 #@! TO.C,R1*
G36*
X155229705Y-123456404D02*
X155253973Y-123460004D01*
X155277772Y-123465965D01*
X155300871Y-123474230D01*
X155323050Y-123484720D01*
X155344093Y-123497332D01*
X155363799Y-123511947D01*
X155381977Y-123528423D01*
X155398453Y-123546601D01*
X155413068Y-123566307D01*
X155425680Y-123587350D01*
X155436170Y-123609529D01*
X155444435Y-123632628D01*
X155450396Y-123656427D01*
X155453996Y-123680695D01*
X155455200Y-123705199D01*
X155455200Y-124605201D01*
X155453996Y-124629705D01*
X155450396Y-124653973D01*
X155444435Y-124677772D01*
X155436170Y-124700871D01*
X155425680Y-124723050D01*
X155413068Y-124744093D01*
X155398453Y-124763799D01*
X155381977Y-124781977D01*
X155363799Y-124798453D01*
X155344093Y-124813068D01*
X155323050Y-124825680D01*
X155300871Y-124836170D01*
X155277772Y-124844435D01*
X155253973Y-124850396D01*
X155229705Y-124853996D01*
X155205201Y-124855200D01*
X154555199Y-124855200D01*
X154530695Y-124853996D01*
X154506427Y-124850396D01*
X154482628Y-124844435D01*
X154459529Y-124836170D01*
X154437350Y-124825680D01*
X154416307Y-124813068D01*
X154396601Y-124798453D01*
X154378423Y-124781977D01*
X154361947Y-124763799D01*
X154347332Y-124744093D01*
X154334720Y-124723050D01*
X154324230Y-124700871D01*
X154315965Y-124677772D01*
X154310004Y-124653973D01*
X154306404Y-124629705D01*
X154305200Y-124605201D01*
X154305200Y-123705199D01*
X154306404Y-123680695D01*
X154310004Y-123656427D01*
X154315965Y-123632628D01*
X154324230Y-123609529D01*
X154334720Y-123587350D01*
X154347332Y-123566307D01*
X154361947Y-123546601D01*
X154378423Y-123528423D01*
X154396601Y-123511947D01*
X154416307Y-123497332D01*
X154437350Y-123484720D01*
X154459529Y-123474230D01*
X154482628Y-123465965D01*
X154506427Y-123460004D01*
X154530695Y-123456404D01*
X154555199Y-123455200D01*
X155205201Y-123455200D01*
X155229705Y-123456404D01*
X155229705Y-123456404D01*
G37*
D11*
X154880200Y-124155200D03*
D10*
G36*
X157279705Y-123456404D02*
X157303973Y-123460004D01*
X157327772Y-123465965D01*
X157350871Y-123474230D01*
X157373050Y-123484720D01*
X157394093Y-123497332D01*
X157413799Y-123511947D01*
X157431977Y-123528423D01*
X157448453Y-123546601D01*
X157463068Y-123566307D01*
X157475680Y-123587350D01*
X157486170Y-123609529D01*
X157494435Y-123632628D01*
X157500396Y-123656427D01*
X157503996Y-123680695D01*
X157505200Y-123705199D01*
X157505200Y-124605201D01*
X157503996Y-124629705D01*
X157500396Y-124653973D01*
X157494435Y-124677772D01*
X157486170Y-124700871D01*
X157475680Y-124723050D01*
X157463068Y-124744093D01*
X157448453Y-124763799D01*
X157431977Y-124781977D01*
X157413799Y-124798453D01*
X157394093Y-124813068D01*
X157373050Y-124825680D01*
X157350871Y-124836170D01*
X157327772Y-124844435D01*
X157303973Y-124850396D01*
X157279705Y-124853996D01*
X157255201Y-124855200D01*
X156605199Y-124855200D01*
X156580695Y-124853996D01*
X156556427Y-124850396D01*
X156532628Y-124844435D01*
X156509529Y-124836170D01*
X156487350Y-124825680D01*
X156466307Y-124813068D01*
X156446601Y-124798453D01*
X156428423Y-124781977D01*
X156411947Y-124763799D01*
X156397332Y-124744093D01*
X156384720Y-124723050D01*
X156374230Y-124700871D01*
X156365965Y-124677772D01*
X156360004Y-124653973D01*
X156356404Y-124629705D01*
X156355200Y-124605201D01*
X156355200Y-123705199D01*
X156356404Y-123680695D01*
X156360004Y-123656427D01*
X156365965Y-123632628D01*
X156374230Y-123609529D01*
X156384720Y-123587350D01*
X156397332Y-123566307D01*
X156411947Y-123546601D01*
X156428423Y-123528423D01*
X156446601Y-123511947D01*
X156466307Y-123497332D01*
X156487350Y-123484720D01*
X156509529Y-123474230D01*
X156532628Y-123465965D01*
X156556427Y-123460004D01*
X156580695Y-123456404D01*
X156605199Y-123455200D01*
X157255201Y-123455200D01*
X157279705Y-123456404D01*
X157279705Y-123456404D01*
G37*
D11*
X156930200Y-124155200D03*
G04 #@! TD*
D10*
G04 #@! TO.C,R8*
G36*
X109059505Y-125546204D02*
X109083773Y-125549804D01*
X109107572Y-125555765D01*
X109130671Y-125564030D01*
X109152850Y-125574520D01*
X109173893Y-125587132D01*
X109193599Y-125601747D01*
X109211777Y-125618223D01*
X109228253Y-125636401D01*
X109242868Y-125656107D01*
X109255480Y-125677150D01*
X109265970Y-125699329D01*
X109274235Y-125722428D01*
X109280196Y-125746227D01*
X109283796Y-125770495D01*
X109285000Y-125794999D01*
X109285000Y-126445001D01*
X109283796Y-126469505D01*
X109280196Y-126493773D01*
X109274235Y-126517572D01*
X109265970Y-126540671D01*
X109255480Y-126562850D01*
X109242868Y-126583893D01*
X109228253Y-126603599D01*
X109211777Y-126621777D01*
X109193599Y-126638253D01*
X109173893Y-126652868D01*
X109152850Y-126665480D01*
X109130671Y-126675970D01*
X109107572Y-126684235D01*
X109083773Y-126690196D01*
X109059505Y-126693796D01*
X109035001Y-126695000D01*
X108134999Y-126695000D01*
X108110495Y-126693796D01*
X108086227Y-126690196D01*
X108062428Y-126684235D01*
X108039329Y-126675970D01*
X108017150Y-126665480D01*
X107996107Y-126652868D01*
X107976401Y-126638253D01*
X107958223Y-126621777D01*
X107941747Y-126603599D01*
X107927132Y-126583893D01*
X107914520Y-126562850D01*
X107904030Y-126540671D01*
X107895765Y-126517572D01*
X107889804Y-126493773D01*
X107886204Y-126469505D01*
X107885000Y-126445001D01*
X107885000Y-125794999D01*
X107886204Y-125770495D01*
X107889804Y-125746227D01*
X107895765Y-125722428D01*
X107904030Y-125699329D01*
X107914520Y-125677150D01*
X107927132Y-125656107D01*
X107941747Y-125636401D01*
X107958223Y-125618223D01*
X107976401Y-125601747D01*
X107996107Y-125587132D01*
X108017150Y-125574520D01*
X108039329Y-125564030D01*
X108062428Y-125555765D01*
X108086227Y-125549804D01*
X108110495Y-125546204D01*
X108134999Y-125545000D01*
X109035001Y-125545000D01*
X109059505Y-125546204D01*
X109059505Y-125546204D01*
G37*
D11*
X108585000Y-126120000D03*
D10*
G36*
X109059505Y-123496204D02*
X109083773Y-123499804D01*
X109107572Y-123505765D01*
X109130671Y-123514030D01*
X109152850Y-123524520D01*
X109173893Y-123537132D01*
X109193599Y-123551747D01*
X109211777Y-123568223D01*
X109228253Y-123586401D01*
X109242868Y-123606107D01*
X109255480Y-123627150D01*
X109265970Y-123649329D01*
X109274235Y-123672428D01*
X109280196Y-123696227D01*
X109283796Y-123720495D01*
X109285000Y-123744999D01*
X109285000Y-124395001D01*
X109283796Y-124419505D01*
X109280196Y-124443773D01*
X109274235Y-124467572D01*
X109265970Y-124490671D01*
X109255480Y-124512850D01*
X109242868Y-124533893D01*
X109228253Y-124553599D01*
X109211777Y-124571777D01*
X109193599Y-124588253D01*
X109173893Y-124602868D01*
X109152850Y-124615480D01*
X109130671Y-124625970D01*
X109107572Y-124634235D01*
X109083773Y-124640196D01*
X109059505Y-124643796D01*
X109035001Y-124645000D01*
X108134999Y-124645000D01*
X108110495Y-124643796D01*
X108086227Y-124640196D01*
X108062428Y-124634235D01*
X108039329Y-124625970D01*
X108017150Y-124615480D01*
X107996107Y-124602868D01*
X107976401Y-124588253D01*
X107958223Y-124571777D01*
X107941747Y-124553599D01*
X107927132Y-124533893D01*
X107914520Y-124512850D01*
X107904030Y-124490671D01*
X107895765Y-124467572D01*
X107889804Y-124443773D01*
X107886204Y-124419505D01*
X107885000Y-124395001D01*
X107885000Y-123744999D01*
X107886204Y-123720495D01*
X107889804Y-123696227D01*
X107895765Y-123672428D01*
X107904030Y-123649329D01*
X107914520Y-123627150D01*
X107927132Y-123606107D01*
X107941747Y-123586401D01*
X107958223Y-123568223D01*
X107976401Y-123551747D01*
X107996107Y-123537132D01*
X108017150Y-123524520D01*
X108039329Y-123514030D01*
X108062428Y-123505765D01*
X108086227Y-123499804D01*
X108110495Y-123496204D01*
X108134999Y-123495000D01*
X109035001Y-123495000D01*
X109059505Y-123496204D01*
X109059505Y-123496204D01*
G37*
D11*
X108585000Y-124070000D03*
G04 #@! TD*
D28*
G04 #@! TO.C,TP2*
X133299200Y-135077200D03*
G04 #@! TD*
D29*
G04 #@! TO.C,TP1*
X138684000Y-140360400D03*
G04 #@! TD*
G04 #@! TO.C,TP3*
X103886000Y-108153200D03*
G04 #@! TD*
G04 #@! TO.C,TP4*
X133756400Y-113792000D03*
G04 #@! TD*
D28*
G04 #@! TO.C,TP7*
X108712000Y-119227600D03*
G04 #@! TD*
G04 #@! TO.C,TP10*
X116789200Y-119227600D03*
G04 #@! TD*
G04 #@! TO.C,TP11*
X119481600Y-119227600D03*
G04 #@! TD*
G04 #@! TO.C,TP12*
X122174000Y-119227600D03*
G04 #@! TD*
G04 #@! TO.C,TP8*
X111404400Y-119227600D03*
G04 #@! TD*
G04 #@! TO.C,TP9*
X114096800Y-119227600D03*
G04 #@! TD*
D29*
G04 #@! TO.C,TP13*
X136194800Y-130149600D03*
G04 #@! TD*
G04 #@! TO.C,TP14*
X142189200Y-78130400D03*
G04 #@! TD*
D18*
G04 #@! TO.C,D11*
X144496000Y-154635200D03*
X147096000Y-154635200D03*
G04 #@! TD*
G04 #@! TO.C,D14*
X167864000Y-154635200D03*
X170464000Y-154635200D03*
G04 #@! TD*
M02*
