G04 #@! TF.GenerationSoftware,KiCad,Pcbnew,5.0.2-bee76a0~70~ubuntu18.04.1*
G04 #@! TF.CreationDate,2019-02-28T13:49:10+03:00*
G04 #@! TF.ProjectId,FIR-sensor-addon,4649522d-7365-46e7-936f-722d6164646f,rev?*
G04 #@! TF.SameCoordinates,Original*
G04 #@! TF.FileFunction,Legend,Top*
G04 #@! TF.FilePolarity,Positive*
%FSLAX46Y46*%
G04 Gerber Fmt 4.6, Leading zero omitted, Abs format (unit mm)*
G04 Created by KiCad (PCBNEW 5.0.2-bee76a0~70~ubuntu18.04.1) date Thu 28 Feb 2019 13:49:10 EAT*
%MOMM*%
%LPD*%
G01*
G04 APERTURE LIST*
%ADD10C,0.120000*%
%ADD11C,0.150000*%
G04 APERTURE END LIST*
D10*
G04 #@! TO.C,C2*
X148692800Y-89667448D02*
X148692800Y-90189952D01*
X150112800Y-89667448D02*
X150112800Y-90189952D01*
G04 #@! TO.C,C1*
X147941100Y-89680148D02*
X147941100Y-90202652D01*
X146521100Y-89680148D02*
X146521100Y-90202652D01*
D11*
G04 #@! TO.C,U1*
X145712700Y-91549200D02*
G75*
G03X145712700Y-91549200I-4570000J0D01*
G01*
X137332700Y-94089200D02*
X136824700Y-94597200D01*
X136824700Y-94597200D02*
X137383500Y-95257600D01*
X137383500Y-95257600D02*
X137891500Y-94800400D01*
G04 #@! TO.C,H3*
X133880795Y-81342380D02*
X133880795Y-80342380D01*
X133880795Y-80818571D02*
X134452223Y-80818571D01*
X134452223Y-81342380D02*
X134452223Y-80342380D01*
X134833176Y-80342380D02*
X135452223Y-80342380D01*
X135118890Y-80723333D01*
X135261747Y-80723333D01*
X135356985Y-80770952D01*
X135404604Y-80818571D01*
X135452223Y-80913809D01*
X135452223Y-81151904D01*
X135404604Y-81247142D01*
X135356985Y-81294761D01*
X135261747Y-81342380D01*
X134976033Y-81342380D01*
X134880795Y-81294761D01*
X134833176Y-81247142D01*
G04 #@! TO.C,H2*
X146880795Y-81301580D02*
X146880795Y-80301580D01*
X146880795Y-80777771D02*
X147452223Y-80777771D01*
X147452223Y-81301580D02*
X147452223Y-80301580D01*
X147880795Y-80396819D02*
X147928414Y-80349200D01*
X148023652Y-80301580D01*
X148261747Y-80301580D01*
X148356985Y-80349200D01*
X148404604Y-80396819D01*
X148452223Y-80492057D01*
X148452223Y-80587295D01*
X148404604Y-80730152D01*
X147833176Y-81301580D01*
X148452223Y-81301580D01*
G04 #@! TO.C,H1*
X146880795Y-94301580D02*
X146880795Y-93301580D01*
X146880795Y-93777771D02*
X147452223Y-93777771D01*
X147452223Y-94301580D02*
X147452223Y-93301580D01*
X148452223Y-94301580D02*
X147880795Y-94301580D01*
X148166509Y-94301580D02*
X148166509Y-93301580D01*
X148071271Y-93444438D01*
X147976033Y-93539676D01*
X147880795Y-93587295D01*
G04 #@! TO.C,C2*
X149185333Y-87733142D02*
X149137714Y-87780761D01*
X148994857Y-87828380D01*
X148899619Y-87828380D01*
X148756761Y-87780761D01*
X148661523Y-87685523D01*
X148613904Y-87590285D01*
X148566285Y-87399809D01*
X148566285Y-87256952D01*
X148613904Y-87066476D01*
X148661523Y-86971238D01*
X148756761Y-86876000D01*
X148899619Y-86828380D01*
X148994857Y-86828380D01*
X149137714Y-86876000D01*
X149185333Y-86923619D01*
X149566285Y-86923619D02*
X149613904Y-86876000D01*
X149709142Y-86828380D01*
X149947238Y-86828380D01*
X150042476Y-86876000D01*
X150090095Y-86923619D01*
X150137714Y-87018857D01*
X150137714Y-87114095D01*
X150090095Y-87256952D01*
X149518666Y-87828380D01*
X150137714Y-87828380D01*
G04 #@! TO.C,C1*
X147039033Y-87720442D02*
X146991414Y-87768061D01*
X146848557Y-87815680D01*
X146753319Y-87815680D01*
X146610461Y-87768061D01*
X146515223Y-87672823D01*
X146467604Y-87577585D01*
X146419985Y-87387109D01*
X146419985Y-87244252D01*
X146467604Y-87053776D01*
X146515223Y-86958538D01*
X146610461Y-86863300D01*
X146753319Y-86815680D01*
X146848557Y-86815680D01*
X146991414Y-86863300D01*
X147039033Y-86910919D01*
X147991414Y-87815680D02*
X147419985Y-87815680D01*
X147705700Y-87815680D02*
X147705700Y-86815680D01*
X147610461Y-86958538D01*
X147515223Y-87053776D01*
X147419985Y-87101395D01*
G04 #@! TO.C,U1*
X140380795Y-96589580D02*
X140380795Y-97399104D01*
X140428414Y-97494342D01*
X140476033Y-97541961D01*
X140571271Y-97589580D01*
X140761747Y-97589580D01*
X140856985Y-97541961D01*
X140904604Y-97494342D01*
X140952223Y-97399104D01*
X140952223Y-96589580D01*
X141952223Y-97589580D02*
X141380795Y-97589580D01*
X141666509Y-97589580D02*
X141666509Y-96589580D01*
X141571271Y-96732438D01*
X141476033Y-96827676D01*
X141380795Y-96875295D01*
G04 #@! TD*
M02*
