M48
INCH,TZ
T1C0.0157
T2C0.0197
T3C0.0300
T4C0.0394
T5C0.0512
T6C0.1063
%
G90
G05
T1
X38000Y-32100
X38000Y-33200
X38000Y-34200
X38000Y-35100
X38100Y-53100
X38100Y-55069
X38100Y-57037
X38100Y-59006
X38180Y-39760
X38200Y-38800
X38200Y-49200
X38200Y-51200
X38240Y-36800
X38260Y-37694
X39181Y-37148
X39181Y-37648
X39181Y-39148
X39237Y-31590
X39300Y-36600
X39800Y-45800
X39920Y-43320
X39980Y-49690
X40000Y-36600
X40000Y-37100
X40069Y-53100
X40069Y-55069
X40069Y-57037
X40069Y-59006
X40100Y-51200
X40180Y-47700
X40200Y-38700
X40200Y-39600
X40600Y-48900
X40700Y-36600
X40700Y-37100
X40800Y-38700
X40800Y-39600
X40820Y-44270
X41164Y-46120
X41300Y-36600
X41300Y-37100
X41304Y-29920
X41363Y-30590
X41500Y-39100
X41500Y-39600
X41500Y-40200
X41600Y-49300
X41660Y-47600
X41900Y-36600
X41900Y-37100
X41980Y-46750
X42037Y-57037
X42037Y-59006
X42037Y-60974
X42100Y-39100
X42100Y-39600
X42100Y-40200
X42240Y-48440
X42300Y-51300
X42350Y-45550
X42500Y-36600
X42500Y-37100
X42700Y-39100
X42700Y-39600
X42700Y-40200
X42800Y-48800
X43000Y-44100
X43100Y-36600
X43100Y-37100
X43200Y-52400
X43210Y-32590
X43220Y-32940
X43300Y-51300
X43360Y-30584
X43500Y-38700
X43500Y-39600
X43600Y-40400
X43630Y-32930
X43640Y-32590
X43700Y-36600
X43700Y-37100
X43700Y-44600
X43900Y-45300
X44006Y-57037
X44006Y-59006
X44006Y-60974
X44060Y-32590
X44060Y-32930
X44200Y-45800
X44300Y-26900
X44300Y-28900
X44300Y-36600
X44300Y-37100
X44300Y-38700
X44300Y-39600
X44300Y-40400
X44300Y-44600
X44300Y-51300
X44387Y-45313
X44840Y-49760
X44900Y-36600
X44900Y-45800
X44910Y-47900
X45020Y-41900
X45090Y-41370
X45100Y-38700
X45100Y-42420
X45130Y-45230
X45200Y-49006
X45296Y-50450
X45400Y-52400
X45500Y-39300
X45574Y-49794
X45974Y-57037
X45974Y-59006
X45974Y-60974
X46020Y-47950
X46100Y-26900
X46100Y-28900
X46100Y-43144
X46119Y-37148
X46119Y-37648
X46119Y-43648
X46120Y-41120
X46130Y-40630
X46246Y-51285
X46400Y-48900
X46625Y-31794
X46640Y-39590
X46660Y-42230
X46950Y-44790
X47000Y-45750
X47100Y-32710
X47101Y-40323
X47200Y-38800
X47200Y-40845
X47200Y-48900
X47250Y-51300
X47400Y-45100
X47511Y-42470
X47560Y-34700
X47625Y-32306
X47700Y-44100
X47943Y-57037
X47943Y-59006
X47943Y-60974
X47980Y-33040
X48000Y-26900
X48000Y-28800
X48000Y-36300
X48000Y-38600
X48000Y-42000
X48000Y-44500
X48150Y-48410
X48200Y-51300
X48208Y-48900
X48250Y-32700
X48400Y-42200
X48430Y-42940
X48500Y-33940
X48600Y-52400
X48624Y-49694
X48650Y-33510
X48700Y-44200
X48750Y-41409
X48949Y-38948
X49100Y-39900
X49200Y-35050
X49200Y-51300
X49210Y-40850
X49434Y-44610
X49434Y-44960
X49800Y-42700
X49850Y-51300
X49911Y-57037
X49911Y-59006
X49911Y-60974
X49990Y-47830
X50000Y-26900
X50000Y-28800
X50100Y-48900
X50300Y-42300
X50300Y-42700
X50300Y-45000
X50320Y-39570
X50370Y-35020
X50740Y-47680
X50876Y-49594
X50900Y-42300
X50900Y-42700
X51198Y-48802
X51300Y-45000
X51450Y-35340
X51500Y-38200
X51700Y-45900
X51800Y-38600
X51880Y-53100
X51880Y-55069
X51880Y-58900
X51900Y-51100
X52000Y-48000
X52086Y-39367
X52100Y-33260
X52100Y-45600
X52100Y-61000
X52200Y-36100
X52200Y-44800
X52300Y-48700
X52350Y-49504
X52500Y-52700
X52500Y-53216
X52500Y-53700
X52600Y-44800
X52771Y-36115
X52782Y-34699
X52839Y-37475
X52990Y-38430
X53100Y-44800
X53188Y-36635
X53410Y-37429
X53442Y-38014
X53606Y-50274
X53620Y-51240
X53830Y-39860
X53848Y-58900
X53848Y-60974
X53884Y-37009
X53980Y-49486
X53991Y-36473
X54100Y-48900
X54200Y-43890
X54260Y-28304
X54309Y-35293
X54410Y-44730
X54500Y-45270
X54600Y-48900
X54974Y-29380
X55110Y-39960
X55300Y-47900
X55300Y-48300
X55338Y-36400
X55340Y-42060
X55440Y-34990
X55500Y-58900
X55516Y-37200
X55576Y-49480
X55600Y-32000
X55600Y-34300
X55600Y-57300
X55680Y-43750
X55786Y-37740
X55817Y-55069
X55817Y-60974
X56100Y-36400
X56100Y-44520
X56144Y-52257
X56200Y-47000
X56200Y-47500
X56590Y-40970
X56600Y-50700
X56670Y-36820
X56888Y-60880
X56932Y-46544
X57100Y-50500
X57150Y-44210
X57210Y-38510
X57500Y-27300
X57500Y-29269
X57500Y-31237
X57500Y-33206
X57850Y-52390
X57900Y-61000
X58000Y-49200
X58320Y-56810
X58460Y-55990
X58500Y-43400
X59200Y-41200
X59200Y-42000
X59200Y-42700
X59200Y-43400
X59469Y-27300
X59469Y-29269
X59469Y-31237
X59469Y-33206
X59590Y-45120
X59600Y-44716
X59600Y-46300
X59600Y-46684
X59600Y-54200
X59610Y-47070
X59620Y-44250
X59710Y-53250
X60000Y-42000
X60000Y-42800
X60000Y-43400
X60300Y-48900
X60770Y-53391
X60780Y-40430
X60800Y-42800
X60800Y-43400
X61000Y-48900
X61006Y-44126
X61020Y-44860
X61200Y-47300
X61300Y-58100
X61335Y-50430
X61437Y-27300
X61437Y-29269
X61437Y-31237
X61437Y-33206
X61437Y-35174
X61500Y-45700
X61784Y-48880
X61800Y-59900
X61800Y-60500
X61800Y-61000
X62000Y-56500
X62000Y-57100
X62000Y-57700
X62200Y-52200
X62200Y-54500
X62260Y-50600
X62290Y-48200
X62300Y-53400
X62300Y-59400
X62300Y-59900
X62300Y-60500
X62300Y-61000
X62716Y-45500
X62734Y-47353
X62800Y-56500
X62800Y-57100
X62800Y-57700
X62848Y-50261
X63000Y-49050
X63100Y-44800
X63297Y-52689
X63400Y-37300
X63406Y-27300
X63406Y-29269
X63406Y-31237
X63406Y-33206
X63406Y-35174
X63450Y-47325
X63495Y-53896
X63510Y-46487
X63700Y-56500
X63700Y-57100
X63700Y-57700
X63700Y-59100
X63700Y-59700
X63700Y-60200
X64090Y-48850
X64100Y-60000
X64200Y-59100
X64200Y-59500
X64500Y-56500
X64500Y-57100
X64500Y-57700
X64530Y-47870
X64580Y-48840
X64600Y-45500
X64600Y-46000
X64610Y-49180
X64630Y-52430
X64640Y-60880
X64700Y-59100
X65000Y-45500
X65000Y-46000
X65000Y-56500
X65010Y-48840
X65010Y-49160
X65010Y-49480
X65100Y-57100
X65100Y-57700
X65270Y-55280
X65374Y-27300
X65374Y-29269
X65374Y-31237
X65374Y-33206
X65374Y-35174
X65400Y-37300
X65400Y-39700
X65400Y-60100
X65460Y-59305
X65490Y-48035
X65720Y-41480
X65720Y-56240
X65720Y-58540
X65840Y-53360
X65970Y-48470
X65980Y-53760
X66060Y-54900
X66508Y-57768
X66710Y-56330
X67112Y-60880
X67160Y-49640
T2
X58753Y-50630
X58986Y-50066
X58986Y-51194
X59550Y-49833
X59550Y-51427
X60114Y-50066
X60114Y-51194
X60347Y-50630
T3
X57820Y-41544
X57820Y-43544
X57820Y-45544
X57820Y-47544
X57980Y-40544
X57980Y-42544
X57980Y-44544
X57980Y-46544
X66820Y-41544
X66820Y-43544
X66820Y-45544
X66820Y-47544
X66908Y-40544
X66980Y-42544
X66980Y-44544
X66980Y-46544
T4
X40014Y-27200
X41786Y-27200
X65500Y-50420
X65500Y-51420
X65500Y-52420
X66500Y-50420
X66500Y-51420
X66500Y-52420
X51900Y-41800
X54459Y-41800
X55980Y-27320
X55980Y-28320
X55980Y-29320
X44600Y-30008
X45600Y-30008
X46600Y-30008
X47600Y-30008
X48600Y-30008
X49600Y-30008
X50600Y-30008
T5
X39522Y-28184
X42278Y-28184
T6
X59550Y-50630
T0
M30
