G04 #@! TF.GenerationSoftware,KiCad,Pcbnew,5.0.2-bee76a0~70~ubuntu18.04.1*
G04 #@! TF.CreationDate,2019-02-28T13:46:31+03:00*
G04 #@! TF.ProjectId,sensor-node,73656e73-6f72-42d6-9e6f-64652e6b6963,1*
G04 #@! TF.SameCoordinates,Original*
G04 #@! TF.FileFunction,Soldermask,Top*
G04 #@! TF.FilePolarity,Negative*
%FSLAX46Y46*%
G04 Gerber Fmt 4.6, Leading zero omitted, Abs format (unit mm)*
G04 Created by KiCad (PCBNEW 5.0.2-bee76a0~70~ubuntu18.04.1) date Thu 28 Feb 2019 13:46:31 EAT*
%MOMM*%
%LPD*%
G01*
G04 APERTURE LIST*
%ADD10C,0.100000*%
G04 APERTURE END LIST*
D10*
G36*
X150093077Y-154318465D02*
X150130764Y-154329898D01*
X150165503Y-154348466D01*
X150195948Y-154373452D01*
X150220934Y-154403897D01*
X150239502Y-154438636D01*
X150250935Y-154476323D01*
X150255400Y-154521661D01*
X150255400Y-155358339D01*
X150250935Y-155403677D01*
X150239502Y-155441364D01*
X150220934Y-155476103D01*
X150195948Y-155506548D01*
X150165503Y-155531534D01*
X150130764Y-155550102D01*
X150093077Y-155561535D01*
X150047739Y-155566000D01*
X148961061Y-155566000D01*
X148915723Y-155561535D01*
X148878036Y-155550102D01*
X148843297Y-155531534D01*
X148812852Y-155506548D01*
X148787866Y-155476103D01*
X148769298Y-155441364D01*
X148757865Y-155403677D01*
X148753400Y-155358339D01*
X148753400Y-154521661D01*
X148757865Y-154476323D01*
X148769298Y-154438636D01*
X148787866Y-154403897D01*
X148812852Y-154373452D01*
X148843297Y-154348466D01*
X148878036Y-154329898D01*
X148915723Y-154318465D01*
X148961061Y-154314000D01*
X150047739Y-154314000D01*
X150093077Y-154318465D01*
X150093077Y-154318465D01*
G37*
G36*
X96382080Y-150989931D02*
X96666301Y-151046466D01*
X96835910Y-151116720D01*
X97075774Y-151216075D01*
X97094188Y-151228379D01*
X97444292Y-151462311D01*
X97757689Y-151775708D01*
X97852364Y-151917400D01*
X98003925Y-152144226D01*
X98086557Y-152343718D01*
X98173534Y-152553699D01*
X98188910Y-152631000D01*
X98255315Y-152964838D01*
X98260000Y-152988394D01*
X98260000Y-153431606D01*
X98173534Y-153866301D01*
X98161495Y-153895365D01*
X98003925Y-154275774D01*
X97947734Y-154359869D01*
X97757689Y-154644292D01*
X97444292Y-154957689D01*
X97233646Y-155098438D01*
X97075774Y-155203925D01*
X96858730Y-155293827D01*
X96666301Y-155373534D01*
X96231607Y-155460000D01*
X95788393Y-155460000D01*
X95353699Y-155373534D01*
X95161270Y-155293827D01*
X94944226Y-155203925D01*
X94786354Y-155098438D01*
X94575708Y-154957689D01*
X94262311Y-154644292D01*
X94072266Y-154359869D01*
X94016075Y-154275774D01*
X93858505Y-153895365D01*
X93846466Y-153866301D01*
X93760000Y-153431606D01*
X93760000Y-152988394D01*
X93764686Y-152964838D01*
X93831090Y-152631000D01*
X93846466Y-152553699D01*
X93933443Y-152343718D01*
X94016075Y-152144226D01*
X94167636Y-151917400D01*
X94262311Y-151775708D01*
X94575708Y-151462311D01*
X94925812Y-151228379D01*
X94944226Y-151216075D01*
X95184090Y-151116720D01*
X95353699Y-151046466D01*
X95637920Y-150989931D01*
X95788393Y-150960000D01*
X96231607Y-150960000D01*
X96382080Y-150989931D01*
X96382080Y-150989931D01*
G37*
G36*
X163141000Y-155436200D02*
X162039000Y-155436200D01*
X162039000Y-153834200D01*
X163141000Y-153834200D01*
X163141000Y-155436200D01*
X163141000Y-155436200D01*
G37*
G36*
X155267000Y-155436200D02*
X154165000Y-155436200D01*
X154165000Y-153834200D01*
X155267000Y-153834200D01*
X155267000Y-155436200D01*
X155267000Y-155436200D01*
G37*
G36*
X152667000Y-155436200D02*
X151565000Y-155436200D01*
X151565000Y-153834200D01*
X152667000Y-153834200D01*
X152667000Y-155436200D01*
X152667000Y-155436200D01*
G37*
G36*
X160541000Y-155436200D02*
X159439000Y-155436200D01*
X159439000Y-153834200D01*
X160541000Y-153834200D01*
X160541000Y-155436200D01*
X160541000Y-155436200D01*
G37*
G36*
X166603077Y-153971865D02*
X166640764Y-153983298D01*
X166675503Y-154001866D01*
X166705948Y-154026852D01*
X166730934Y-154057297D01*
X166749502Y-154092036D01*
X166760935Y-154129723D01*
X166765400Y-154175061D01*
X166765400Y-155011739D01*
X166760935Y-155057077D01*
X166749502Y-155094764D01*
X166730934Y-155129503D01*
X166705948Y-155159948D01*
X166675503Y-155184934D01*
X166640764Y-155203502D01*
X166603077Y-155214935D01*
X166557739Y-155219400D01*
X165471061Y-155219400D01*
X165425723Y-155214935D01*
X165388036Y-155203502D01*
X165353297Y-155184934D01*
X165322852Y-155159948D01*
X165297866Y-155129503D01*
X165279298Y-155094764D01*
X165267865Y-155057077D01*
X165263400Y-155011739D01*
X165263400Y-154175061D01*
X165267865Y-154129723D01*
X165279298Y-154092036D01*
X165297866Y-154057297D01*
X165322852Y-154026852D01*
X165353297Y-154001866D01*
X165388036Y-153983298D01*
X165425723Y-153971865D01*
X165471061Y-153967400D01*
X166557739Y-153967400D01*
X166603077Y-153971865D01*
X166603077Y-153971865D01*
G37*
G36*
X101044734Y-152675232D02*
X101254202Y-152761996D01*
X101442723Y-152887962D01*
X101603038Y-153048277D01*
X101729004Y-153236798D01*
X101815768Y-153446266D01*
X101860000Y-153668635D01*
X101860000Y-153895365D01*
X101815768Y-154117734D01*
X101729004Y-154327202D01*
X101603038Y-154515723D01*
X101442723Y-154676038D01*
X101254202Y-154802004D01*
X101044734Y-154888768D01*
X100822365Y-154933000D01*
X100595635Y-154933000D01*
X100373266Y-154888768D01*
X100163798Y-154802004D01*
X99975277Y-154676038D01*
X99814962Y-154515723D01*
X99688996Y-154327202D01*
X99602232Y-154117734D01*
X99558000Y-153895365D01*
X99558000Y-153668635D01*
X99602232Y-153446266D01*
X99688996Y-153236798D01*
X99814962Y-153048277D01*
X99975277Y-152887962D01*
X100163798Y-152761996D01*
X100373266Y-152675232D01*
X100595635Y-152631000D01*
X100822365Y-152631000D01*
X101044734Y-152675232D01*
X101044734Y-152675232D01*
G37*
G36*
X150093077Y-152268465D02*
X150130764Y-152279898D01*
X150165503Y-152298466D01*
X150195948Y-152323452D01*
X150220934Y-152353897D01*
X150239502Y-152388636D01*
X150250935Y-152426323D01*
X150255400Y-152471661D01*
X150255400Y-153308339D01*
X150250935Y-153353677D01*
X150239502Y-153391364D01*
X150220934Y-153426103D01*
X150195948Y-153456548D01*
X150165503Y-153481534D01*
X150130764Y-153500102D01*
X150093077Y-153511535D01*
X150047739Y-153516000D01*
X148961061Y-153516000D01*
X148915723Y-153511535D01*
X148878036Y-153500102D01*
X148843297Y-153481534D01*
X148812852Y-153456548D01*
X148787866Y-153426103D01*
X148769298Y-153391364D01*
X148757865Y-153353677D01*
X148753400Y-153308339D01*
X148753400Y-152471661D01*
X148757865Y-152426323D01*
X148769298Y-152388636D01*
X148787866Y-152353897D01*
X148812852Y-152323452D01*
X148843297Y-152298466D01*
X148878036Y-152279898D01*
X148915723Y-152268465D01*
X148961061Y-152264000D01*
X150047739Y-152264000D01*
X150093077Y-152268465D01*
X150093077Y-152268465D01*
G37*
G36*
X169990433Y-150526893D02*
X170080657Y-150544839D01*
X170186267Y-150588585D01*
X170335621Y-150650449D01*
X170565089Y-150803774D01*
X170760226Y-150998911D01*
X170913551Y-151228379D01*
X171019161Y-151483344D01*
X171073000Y-151754012D01*
X171073000Y-152029988D01*
X171050277Y-152144225D01*
X171019161Y-152300657D01*
X170975415Y-152406267D01*
X170913551Y-152555621D01*
X170760226Y-152785089D01*
X170565089Y-152980226D01*
X170335621Y-153133551D01*
X170186267Y-153195415D01*
X170080657Y-153239161D01*
X169990433Y-153257107D01*
X169809988Y-153293000D01*
X169534012Y-153293000D01*
X169353567Y-153257107D01*
X169263343Y-153239161D01*
X169157733Y-153195415D01*
X169008379Y-153133551D01*
X168778911Y-152980226D01*
X168583774Y-152785089D01*
X168430449Y-152555621D01*
X168368585Y-152406267D01*
X168324839Y-152300657D01*
X168293723Y-152144225D01*
X168271000Y-152029988D01*
X168271000Y-151754012D01*
X168324839Y-151483344D01*
X168430449Y-151228379D01*
X168583774Y-150998911D01*
X168778911Y-150803774D01*
X169008379Y-150650449D01*
X169157733Y-150588585D01*
X169263343Y-150544839D01*
X169353567Y-150526893D01*
X169534012Y-150491000D01*
X169809988Y-150491000D01*
X169990433Y-150526893D01*
X169990433Y-150526893D01*
G37*
G36*
X166603077Y-151921865D02*
X166640764Y-151933298D01*
X166675503Y-151951866D01*
X166705948Y-151976852D01*
X166730934Y-152007297D01*
X166749502Y-152042036D01*
X166760935Y-152079723D01*
X166765400Y-152125061D01*
X166765400Y-152961739D01*
X166760935Y-153007077D01*
X166749502Y-153044764D01*
X166730934Y-153079503D01*
X166705948Y-153109948D01*
X166675503Y-153134934D01*
X166640764Y-153153502D01*
X166603077Y-153164935D01*
X166557739Y-153169400D01*
X165471061Y-153169400D01*
X165425723Y-153164935D01*
X165388036Y-153153502D01*
X165353297Y-153134934D01*
X165322852Y-153109948D01*
X165297866Y-153079503D01*
X165279298Y-153044764D01*
X165267865Y-153007077D01*
X165263400Y-152961739D01*
X165263400Y-152125061D01*
X165267865Y-152079723D01*
X165279298Y-152042036D01*
X165297866Y-152007297D01*
X165322852Y-151976852D01*
X165353297Y-151951866D01*
X165388036Y-151933298D01*
X165425723Y-151921865D01*
X165471061Y-151917400D01*
X166557739Y-151917400D01*
X166603077Y-151921865D01*
X166603077Y-151921865D01*
G37*
G36*
X160599677Y-151838265D02*
X160637364Y-151849698D01*
X160672103Y-151868266D01*
X160702548Y-151893252D01*
X160727534Y-151923697D01*
X160746102Y-151958436D01*
X160757535Y-151996123D01*
X160762000Y-152041461D01*
X160762000Y-152878139D01*
X160757535Y-152923477D01*
X160746102Y-152961164D01*
X160727534Y-152995903D01*
X160702548Y-153026348D01*
X160672103Y-153051334D01*
X160637364Y-153069902D01*
X160599677Y-153081335D01*
X160554339Y-153085800D01*
X159467661Y-153085800D01*
X159422323Y-153081335D01*
X159384636Y-153069902D01*
X159349897Y-153051334D01*
X159319452Y-153026348D01*
X159294466Y-152995903D01*
X159275898Y-152961164D01*
X159264465Y-152923477D01*
X159260000Y-152878139D01*
X159260000Y-152041461D01*
X159264465Y-151996123D01*
X159275898Y-151958436D01*
X159294466Y-151923697D01*
X159319452Y-151893252D01*
X159349897Y-151868266D01*
X159384636Y-151849698D01*
X159422323Y-151838265D01*
X159467661Y-151833800D01*
X160554339Y-151833800D01*
X160599677Y-151838265D01*
X160599677Y-151838265D01*
G37*
G36*
X155173077Y-151838265D02*
X155210764Y-151849698D01*
X155245503Y-151868266D01*
X155275948Y-151893252D01*
X155300934Y-151923697D01*
X155319502Y-151958436D01*
X155330935Y-151996123D01*
X155335400Y-152041461D01*
X155335400Y-152878139D01*
X155330935Y-152923477D01*
X155319502Y-152961164D01*
X155300934Y-152995903D01*
X155275948Y-153026348D01*
X155245503Y-153051334D01*
X155210764Y-153069902D01*
X155173077Y-153081335D01*
X155127739Y-153085800D01*
X154041061Y-153085800D01*
X153995723Y-153081335D01*
X153958036Y-153069902D01*
X153923297Y-153051334D01*
X153892852Y-153026348D01*
X153867866Y-152995903D01*
X153849298Y-152961164D01*
X153837865Y-152923477D01*
X153833400Y-152878139D01*
X153833400Y-152041461D01*
X153837865Y-151996123D01*
X153849298Y-151958436D01*
X153867866Y-151923697D01*
X153892852Y-151893252D01*
X153923297Y-151868266D01*
X153958036Y-151849698D01*
X153995723Y-151838265D01*
X154041061Y-151833800D01*
X155127739Y-151833800D01*
X155173077Y-151838265D01*
X155173077Y-151838265D01*
G37*
G36*
X160599677Y-149788265D02*
X160637364Y-149799698D01*
X160672103Y-149818266D01*
X160702548Y-149843252D01*
X160727534Y-149873697D01*
X160746102Y-149908436D01*
X160757535Y-149946123D01*
X160762000Y-149991461D01*
X160762000Y-150828139D01*
X160757535Y-150873477D01*
X160746102Y-150911164D01*
X160727534Y-150945903D01*
X160702548Y-150976348D01*
X160672103Y-151001334D01*
X160637364Y-151019902D01*
X160599677Y-151031335D01*
X160554339Y-151035800D01*
X159467661Y-151035800D01*
X159422323Y-151031335D01*
X159384636Y-151019902D01*
X159349897Y-151001334D01*
X159319452Y-150976348D01*
X159294466Y-150945903D01*
X159275898Y-150911164D01*
X159264465Y-150873477D01*
X159260000Y-150828139D01*
X159260000Y-149991461D01*
X159264465Y-149946123D01*
X159275898Y-149908436D01*
X159294466Y-149873697D01*
X159319452Y-149843252D01*
X159349897Y-149818266D01*
X159384636Y-149799698D01*
X159422323Y-149788265D01*
X159467661Y-149783800D01*
X160554339Y-149783800D01*
X160599677Y-149788265D01*
X160599677Y-149788265D01*
G37*
G36*
X155173077Y-149788265D02*
X155210764Y-149799698D01*
X155245503Y-149818266D01*
X155275948Y-149843252D01*
X155300934Y-149873697D01*
X155319502Y-149908436D01*
X155330935Y-149946123D01*
X155335400Y-149991461D01*
X155335400Y-150828139D01*
X155330935Y-150873477D01*
X155319502Y-150911164D01*
X155300934Y-150945903D01*
X155275948Y-150976348D01*
X155245503Y-151001334D01*
X155210764Y-151019902D01*
X155173077Y-151031335D01*
X155127739Y-151035800D01*
X154041061Y-151035800D01*
X153995723Y-151031335D01*
X153958036Y-151019902D01*
X153923297Y-151001334D01*
X153892852Y-150976348D01*
X153867866Y-150945903D01*
X153849298Y-150911164D01*
X153837865Y-150873477D01*
X153833400Y-150828139D01*
X153833400Y-149991461D01*
X153837865Y-149946123D01*
X153849298Y-149908436D01*
X153867866Y-149873697D01*
X153892852Y-149843252D01*
X153923297Y-149818266D01*
X153958036Y-149799698D01*
X153995723Y-149788265D01*
X154041061Y-149783800D01*
X155127739Y-149783800D01*
X155173077Y-149788265D01*
X155173077Y-149788265D01*
G37*
G36*
X151428600Y-149938600D02*
X150526600Y-149938600D01*
X150526600Y-148936600D01*
X151428600Y-148936600D01*
X151428600Y-149938600D01*
X151428600Y-149938600D01*
G37*
G36*
X156073077Y-146929065D02*
X156110764Y-146940498D01*
X156145503Y-146959066D01*
X156175948Y-146984052D01*
X156200934Y-147014497D01*
X156219502Y-147049236D01*
X156230935Y-147086923D01*
X156235400Y-147132261D01*
X156235400Y-148218939D01*
X156230935Y-148264277D01*
X156219502Y-148301964D01*
X156200934Y-148336703D01*
X156175948Y-148367148D01*
X156145503Y-148392134D01*
X156110764Y-148410702D01*
X156073077Y-148422135D01*
X156027739Y-148426600D01*
X155191061Y-148426600D01*
X155145723Y-148422135D01*
X155108036Y-148410702D01*
X155073297Y-148392134D01*
X155042852Y-148367148D01*
X155017866Y-148336703D01*
X154999298Y-148301964D01*
X154987865Y-148264277D01*
X154983400Y-148218939D01*
X154983400Y-147132261D01*
X154987865Y-147086923D01*
X154999298Y-147049236D01*
X155017866Y-147014497D01*
X155042852Y-146984052D01*
X155073297Y-146959066D01*
X155108036Y-146940498D01*
X155145723Y-146929065D01*
X155191061Y-146924600D01*
X156027739Y-146924600D01*
X156073077Y-146929065D01*
X156073077Y-146929065D01*
G37*
G36*
X154023077Y-146929065D02*
X154060764Y-146940498D01*
X154095503Y-146959066D01*
X154125948Y-146984052D01*
X154150934Y-147014497D01*
X154169502Y-147049236D01*
X154180935Y-147086923D01*
X154185400Y-147132261D01*
X154185400Y-148218939D01*
X154180935Y-148264277D01*
X154169502Y-148301964D01*
X154150934Y-148336703D01*
X154125948Y-148367148D01*
X154095503Y-148392134D01*
X154060764Y-148410702D01*
X154023077Y-148422135D01*
X153977739Y-148426600D01*
X153141061Y-148426600D01*
X153095723Y-148422135D01*
X153058036Y-148410702D01*
X153023297Y-148392134D01*
X152992852Y-148367148D01*
X152967866Y-148336703D01*
X152949298Y-148301964D01*
X152937865Y-148264277D01*
X152933400Y-148218939D01*
X152933400Y-147132261D01*
X152937865Y-147086923D01*
X152949298Y-147049236D01*
X152967866Y-147014497D01*
X152992852Y-146984052D01*
X153023297Y-146959066D01*
X153058036Y-146940498D01*
X153095723Y-146929065D01*
X153141061Y-146924600D01*
X153977739Y-146924600D01*
X154023077Y-146929065D01*
X154023077Y-146929065D01*
G37*
G36*
X150478600Y-147938600D02*
X149576600Y-147938600D01*
X149576600Y-146936600D01*
X150478600Y-146936600D01*
X150478600Y-147938600D01*
X150478600Y-147938600D01*
G37*
G36*
X152378600Y-147938600D02*
X151476600Y-147938600D01*
X151476600Y-146936600D01*
X152378600Y-146936600D01*
X152378600Y-147938600D01*
X152378600Y-147938600D01*
G37*
G36*
X156308200Y-145625400D02*
X153706200Y-145625400D01*
X153706200Y-143223400D01*
X156308200Y-143223400D01*
X156308200Y-145625400D01*
X156308200Y-145625400D01*
G37*
G36*
X152008200Y-145625400D02*
X149406200Y-145625400D01*
X149406200Y-143223400D01*
X152008200Y-143223400D01*
X152008200Y-145625400D01*
X152008200Y-145625400D01*
G37*
G36*
X158332633Y-136943686D02*
X158372481Y-136955774D01*
X158409201Y-136975401D01*
X158441386Y-137001814D01*
X158467799Y-137033999D01*
X158487426Y-137070719D01*
X158499514Y-137110567D01*
X158504200Y-137158141D01*
X158504200Y-140321859D01*
X158499514Y-140369433D01*
X158487426Y-140409281D01*
X158467799Y-140446001D01*
X158441386Y-140478186D01*
X158409201Y-140504599D01*
X158372481Y-140524226D01*
X158332633Y-140536314D01*
X158285059Y-140541000D01*
X157621341Y-140541000D01*
X157573767Y-140536314D01*
X157533919Y-140524226D01*
X157497199Y-140504599D01*
X157465014Y-140478186D01*
X157438601Y-140446001D01*
X157418974Y-140409281D01*
X157406886Y-140369433D01*
X157402200Y-140321859D01*
X157402200Y-137158141D01*
X157406886Y-137110567D01*
X157418974Y-137070719D01*
X157438601Y-137033999D01*
X157465014Y-137001814D01*
X157497199Y-136975401D01*
X157533919Y-136955774D01*
X157573767Y-136943686D01*
X157621341Y-136939000D01*
X158285059Y-136939000D01*
X158332633Y-136943686D01*
X158332633Y-136943686D01*
G37*
G36*
X160332633Y-136943686D02*
X160372481Y-136955774D01*
X160409201Y-136975401D01*
X160441386Y-137001814D01*
X160467799Y-137033999D01*
X160487426Y-137070719D01*
X160499514Y-137110567D01*
X160504200Y-137158141D01*
X160504200Y-140321859D01*
X160499514Y-140369433D01*
X160487426Y-140409281D01*
X160467799Y-140446001D01*
X160441386Y-140478186D01*
X160409201Y-140504599D01*
X160372481Y-140524226D01*
X160332633Y-140536314D01*
X160285059Y-140541000D01*
X159621341Y-140541000D01*
X159573767Y-140536314D01*
X159533919Y-140524226D01*
X159497199Y-140504599D01*
X159465014Y-140478186D01*
X159438601Y-140446001D01*
X159418974Y-140409281D01*
X159406886Y-140369433D01*
X159402200Y-140321859D01*
X159402200Y-137158141D01*
X159406886Y-137110567D01*
X159418974Y-137070719D01*
X159438601Y-137033999D01*
X159465014Y-137001814D01*
X159497199Y-136975401D01*
X159533919Y-136955774D01*
X159573767Y-136943686D01*
X159621341Y-136939000D01*
X160285059Y-136939000D01*
X160332633Y-136943686D01*
X160332633Y-136943686D01*
G37*
G36*
X162956243Y-131243122D02*
X162990590Y-131253541D01*
X163022235Y-131270456D01*
X163049977Y-131293223D01*
X163072744Y-131320965D01*
X163089659Y-131352610D01*
X163100078Y-131386957D01*
X163104200Y-131428807D01*
X163104200Y-134551193D01*
X163100078Y-134593043D01*
X163089659Y-134627390D01*
X163072744Y-134659035D01*
X163049977Y-134686777D01*
X163022235Y-134709544D01*
X162990590Y-134726459D01*
X162956243Y-134736878D01*
X162914393Y-134741000D01*
X161692007Y-134741000D01*
X161650157Y-134736878D01*
X161615810Y-134726459D01*
X161584165Y-134709544D01*
X161556423Y-134686777D01*
X161533656Y-134659035D01*
X161516741Y-134627390D01*
X161506322Y-134593043D01*
X161502200Y-134551193D01*
X161502200Y-131428807D01*
X161506322Y-131386957D01*
X161516741Y-131352610D01*
X161533656Y-131320965D01*
X161556423Y-131293223D01*
X161584165Y-131270456D01*
X161615810Y-131253541D01*
X161650157Y-131243122D01*
X161692007Y-131239000D01*
X162914393Y-131239000D01*
X162956243Y-131243122D01*
X162956243Y-131243122D01*
G37*
G36*
X156256243Y-131243122D02*
X156290590Y-131253541D01*
X156322235Y-131270456D01*
X156349977Y-131293223D01*
X156372744Y-131320965D01*
X156389659Y-131352610D01*
X156400078Y-131386957D01*
X156404200Y-131428807D01*
X156404200Y-134551193D01*
X156400078Y-134593043D01*
X156389659Y-134627390D01*
X156372744Y-134659035D01*
X156349977Y-134686777D01*
X156322235Y-134709544D01*
X156290590Y-134726459D01*
X156256243Y-134736878D01*
X156214393Y-134741000D01*
X154992007Y-134741000D01*
X154950157Y-134736878D01*
X154915810Y-134726459D01*
X154884165Y-134709544D01*
X154856423Y-134686777D01*
X154833656Y-134659035D01*
X154816741Y-134627390D01*
X154806322Y-134593043D01*
X154802200Y-134551193D01*
X154802200Y-131428807D01*
X154806322Y-131386957D01*
X154816741Y-131352610D01*
X154833656Y-131320965D01*
X154856423Y-131293223D01*
X154884165Y-131270456D01*
X154915810Y-131253541D01*
X154950157Y-131243122D01*
X154992007Y-131239000D01*
X156214393Y-131239000D01*
X156256243Y-131243122D01*
X156256243Y-131243122D01*
G37*
G36*
X169020443Y-132252319D02*
X169086627Y-132258837D01*
X169159207Y-132280854D01*
X169256467Y-132310357D01*
X169375505Y-132373985D01*
X169412991Y-132394022D01*
X169448729Y-132423352D01*
X169550186Y-132506614D01*
X169633448Y-132608071D01*
X169662778Y-132643809D01*
X169662779Y-132643811D01*
X169746443Y-132800333D01*
X169746443Y-132800334D01*
X169797963Y-132970173D01*
X169815359Y-133146800D01*
X169797963Y-133323427D01*
X169769240Y-133418115D01*
X169746443Y-133493267D01*
X169701429Y-133577481D01*
X169662778Y-133649791D01*
X169633448Y-133685529D01*
X169550186Y-133786986D01*
X169448729Y-133870248D01*
X169412991Y-133899578D01*
X169412989Y-133899579D01*
X169256467Y-133983243D01*
X169199853Y-134000416D01*
X169086627Y-134034763D01*
X169020442Y-134041282D01*
X168954260Y-134047800D01*
X168865740Y-134047800D01*
X168799558Y-134041282D01*
X168733373Y-134034763D01*
X168620147Y-134000416D01*
X168563533Y-133983243D01*
X168407011Y-133899579D01*
X168407009Y-133899578D01*
X168371271Y-133870248D01*
X168269814Y-133786986D01*
X168186552Y-133685529D01*
X168157222Y-133649791D01*
X168118571Y-133577481D01*
X168073557Y-133493267D01*
X168050760Y-133418115D01*
X168022037Y-133323427D01*
X168004641Y-133146800D01*
X168022037Y-132970173D01*
X168073557Y-132800334D01*
X168073557Y-132800333D01*
X168157221Y-132643811D01*
X168157222Y-132643809D01*
X168186552Y-132608071D01*
X168269814Y-132506614D01*
X168371271Y-132423352D01*
X168407009Y-132394022D01*
X168444495Y-132373985D01*
X168563533Y-132310357D01*
X168660793Y-132280854D01*
X168733373Y-132258837D01*
X168799557Y-132252319D01*
X168865740Y-132245800D01*
X168954260Y-132245800D01*
X169020443Y-132252319D01*
X169020443Y-132252319D01*
G37*
G36*
X166480443Y-132252319D02*
X166546627Y-132258837D01*
X166619207Y-132280854D01*
X166716467Y-132310357D01*
X166835505Y-132373985D01*
X166872991Y-132394022D01*
X166908729Y-132423352D01*
X167010186Y-132506614D01*
X167093448Y-132608071D01*
X167122778Y-132643809D01*
X167122779Y-132643811D01*
X167206443Y-132800333D01*
X167206443Y-132800334D01*
X167257963Y-132970173D01*
X167275359Y-133146800D01*
X167257963Y-133323427D01*
X167229240Y-133418115D01*
X167206443Y-133493267D01*
X167161429Y-133577481D01*
X167122778Y-133649791D01*
X167093448Y-133685529D01*
X167010186Y-133786986D01*
X166908729Y-133870248D01*
X166872991Y-133899578D01*
X166872989Y-133899579D01*
X166716467Y-133983243D01*
X166659853Y-134000416D01*
X166546627Y-134034763D01*
X166480442Y-134041282D01*
X166414260Y-134047800D01*
X166325740Y-134047800D01*
X166259558Y-134041282D01*
X166193373Y-134034763D01*
X166080147Y-134000416D01*
X166023533Y-133983243D01*
X165867011Y-133899579D01*
X165867009Y-133899578D01*
X165831271Y-133870248D01*
X165729814Y-133786986D01*
X165646552Y-133685529D01*
X165617222Y-133649791D01*
X165578571Y-133577481D01*
X165533557Y-133493267D01*
X165510760Y-133418115D01*
X165482037Y-133323427D01*
X165464641Y-133146800D01*
X165482037Y-132970173D01*
X165533557Y-132800334D01*
X165533557Y-132800333D01*
X165617221Y-132643811D01*
X165617222Y-132643809D01*
X165646552Y-132608071D01*
X165729814Y-132506614D01*
X165831271Y-132423352D01*
X165867009Y-132394022D01*
X165904495Y-132373985D01*
X166023533Y-132310357D01*
X166120793Y-132280854D01*
X166193373Y-132258837D01*
X166259557Y-132252319D01*
X166325740Y-132245800D01*
X166414260Y-132245800D01*
X166480443Y-132252319D01*
X166480443Y-132252319D01*
G37*
G36*
X107588228Y-132216703D02*
X107743100Y-132280853D01*
X107882481Y-132373985D01*
X108001015Y-132492519D01*
X108094147Y-132631900D01*
X108158297Y-132786772D01*
X108191000Y-132951184D01*
X108191000Y-133118816D01*
X108158297Y-133283228D01*
X108094147Y-133438100D01*
X108001015Y-133577481D01*
X107882481Y-133696015D01*
X107743100Y-133789147D01*
X107588228Y-133853297D01*
X107423816Y-133886000D01*
X107256184Y-133886000D01*
X107091772Y-133853297D01*
X106936900Y-133789147D01*
X106797519Y-133696015D01*
X106678985Y-133577481D01*
X106585853Y-133438100D01*
X106521703Y-133283228D01*
X106489000Y-133118816D01*
X106489000Y-132951184D01*
X106521703Y-132786772D01*
X106585853Y-132631900D01*
X106678985Y-132492519D01*
X106797519Y-132373985D01*
X106936900Y-132280853D01*
X107091772Y-132216703D01*
X107256184Y-132184000D01*
X107423816Y-132184000D01*
X107588228Y-132216703D01*
X107588228Y-132216703D01*
G37*
G36*
X128515305Y-132457096D02*
X128624680Y-132502400D01*
X128723118Y-132568175D01*
X128806825Y-132651882D01*
X128872600Y-132750320D01*
X128917904Y-132859695D01*
X128941000Y-132975806D01*
X128941000Y-133094194D01*
X128917904Y-133210305D01*
X128872600Y-133319680D01*
X128806825Y-133418118D01*
X128723118Y-133501825D01*
X128624680Y-133567600D01*
X128515305Y-133612904D01*
X128399194Y-133636000D01*
X128280806Y-133636000D01*
X128164695Y-133612904D01*
X128055320Y-133567600D01*
X127956882Y-133501825D01*
X127873175Y-133418118D01*
X127807400Y-133319680D01*
X127762096Y-133210305D01*
X127739000Y-133094194D01*
X127739000Y-132975806D01*
X127762096Y-132859695D01*
X127807400Y-132750320D01*
X127873175Y-132651882D01*
X127956882Y-132568175D01*
X128055320Y-132502400D01*
X128164695Y-132457096D01*
X128280806Y-132434000D01*
X128399194Y-132434000D01*
X128515305Y-132457096D01*
X128515305Y-132457096D01*
G37*
G36*
X166480442Y-129712318D02*
X166546627Y-129718837D01*
X166659853Y-129753184D01*
X166716467Y-129770357D01*
X166855087Y-129844452D01*
X166872991Y-129854022D01*
X166908729Y-129883352D01*
X167010186Y-129966614D01*
X167093448Y-130068071D01*
X167122778Y-130103809D01*
X167122779Y-130103811D01*
X167206443Y-130260333D01*
X167223616Y-130316947D01*
X167257963Y-130430173D01*
X167275359Y-130606800D01*
X167257963Y-130783427D01*
X167241157Y-130838829D01*
X167206443Y-130953267D01*
X167168169Y-131024871D01*
X167122778Y-131109791D01*
X167093448Y-131145529D01*
X167010186Y-131246986D01*
X166924626Y-131317202D01*
X166872991Y-131359578D01*
X166872989Y-131359579D01*
X166716467Y-131443243D01*
X166659853Y-131460416D01*
X166546627Y-131494763D01*
X166480443Y-131501281D01*
X166414260Y-131507800D01*
X166325740Y-131507800D01*
X166259557Y-131501281D01*
X166193373Y-131494763D01*
X166080147Y-131460416D01*
X166023533Y-131443243D01*
X165867011Y-131359579D01*
X165867009Y-131359578D01*
X165815374Y-131317202D01*
X165729814Y-131246986D01*
X165646552Y-131145529D01*
X165617222Y-131109791D01*
X165571831Y-131024871D01*
X165533557Y-130953267D01*
X165498843Y-130838829D01*
X165482037Y-130783427D01*
X165464641Y-130606800D01*
X165482037Y-130430173D01*
X165516384Y-130316947D01*
X165533557Y-130260333D01*
X165617221Y-130103811D01*
X165617222Y-130103809D01*
X165646552Y-130068071D01*
X165729814Y-129966614D01*
X165831271Y-129883352D01*
X165867009Y-129854022D01*
X165884913Y-129844452D01*
X166023533Y-129770357D01*
X166080147Y-129753184D01*
X166193373Y-129718837D01*
X166259558Y-129712318D01*
X166325740Y-129705800D01*
X166414260Y-129705800D01*
X166480442Y-129712318D01*
X166480442Y-129712318D01*
G37*
G36*
X169020442Y-129712318D02*
X169086627Y-129718837D01*
X169199853Y-129753184D01*
X169256467Y-129770357D01*
X169395087Y-129844452D01*
X169412991Y-129854022D01*
X169448729Y-129883352D01*
X169550186Y-129966614D01*
X169633448Y-130068071D01*
X169662778Y-130103809D01*
X169662779Y-130103811D01*
X169746443Y-130260333D01*
X169763616Y-130316947D01*
X169797963Y-130430173D01*
X169815359Y-130606800D01*
X169797963Y-130783427D01*
X169781157Y-130838829D01*
X169746443Y-130953267D01*
X169708169Y-131024871D01*
X169662778Y-131109791D01*
X169633448Y-131145529D01*
X169550186Y-131246986D01*
X169464626Y-131317202D01*
X169412991Y-131359578D01*
X169412989Y-131359579D01*
X169256467Y-131443243D01*
X169199853Y-131460416D01*
X169086627Y-131494763D01*
X169020443Y-131501281D01*
X168954260Y-131507800D01*
X168865740Y-131507800D01*
X168799557Y-131501281D01*
X168733373Y-131494763D01*
X168620147Y-131460416D01*
X168563533Y-131443243D01*
X168407011Y-131359579D01*
X168407009Y-131359578D01*
X168355374Y-131317202D01*
X168269814Y-131246986D01*
X168186552Y-131145529D01*
X168157222Y-131109791D01*
X168111831Y-131024871D01*
X168073557Y-130953267D01*
X168038843Y-130838829D01*
X168022037Y-130783427D01*
X168004641Y-130606800D01*
X168022037Y-130430173D01*
X168056384Y-130316947D01*
X168073557Y-130260333D01*
X168157221Y-130103811D01*
X168157222Y-130103809D01*
X168186552Y-130068071D01*
X168269814Y-129966614D01*
X168371271Y-129883352D01*
X168407009Y-129854022D01*
X168424913Y-129844452D01*
X168563533Y-129770357D01*
X168620147Y-129753184D01*
X168733373Y-129718837D01*
X168799558Y-129712318D01*
X168865740Y-129705800D01*
X168954260Y-129705800D01*
X169020442Y-129712318D01*
X169020442Y-129712318D01*
G37*
G36*
X151793694Y-125902060D02*
X152059437Y-125954919D01*
X152560087Y-126162295D01*
X152747774Y-126287704D01*
X153010663Y-126463361D01*
X153393839Y-126846537D01*
X153393841Y-126846540D01*
X153694905Y-127297113D01*
X153902281Y-127797763D01*
X153902281Y-127797764D01*
X154008000Y-128329249D01*
X154008000Y-128871151D01*
X153972186Y-129051200D01*
X153902281Y-129402637D01*
X153694905Y-129903287D01*
X153404636Y-130337704D01*
X153393839Y-130353863D01*
X153010663Y-130737039D01*
X153010660Y-130737041D01*
X152560087Y-131038105D01*
X152059437Y-131245481D01*
X151865798Y-131283998D01*
X151527951Y-131351200D01*
X150986049Y-131351200D01*
X150648202Y-131283998D01*
X150454563Y-131245481D01*
X149953913Y-131038105D01*
X149503340Y-130737041D01*
X149503337Y-130737039D01*
X149120161Y-130353863D01*
X149109364Y-130337704D01*
X148819095Y-129903287D01*
X148611719Y-129402637D01*
X148541814Y-129051200D01*
X148506000Y-128871151D01*
X148506000Y-128329249D01*
X148611719Y-127797764D01*
X148611719Y-127797763D01*
X148819095Y-127297113D01*
X149120159Y-126846540D01*
X149120161Y-126846537D01*
X149503337Y-126463361D01*
X149766226Y-126287704D01*
X149953913Y-126162295D01*
X150454563Y-125954919D01*
X150720306Y-125902060D01*
X150986049Y-125849200D01*
X151527951Y-125849200D01*
X151793694Y-125902060D01*
X151793694Y-125902060D01*
G37*
G36*
X167271000Y-128967800D02*
X165469000Y-128967800D01*
X165469000Y-127165800D01*
X167271000Y-127165800D01*
X167271000Y-128967800D01*
X167271000Y-128967800D01*
G37*
G36*
X169020443Y-127172319D02*
X169086627Y-127178837D01*
X169198354Y-127212729D01*
X169256467Y-127230357D01*
X169381357Y-127297113D01*
X169412991Y-127314022D01*
X169448729Y-127343352D01*
X169550186Y-127426614D01*
X169625695Y-127518623D01*
X169662778Y-127563809D01*
X169662779Y-127563811D01*
X169746443Y-127720333D01*
X169746443Y-127720334D01*
X169797963Y-127890173D01*
X169815359Y-128066800D01*
X169797963Y-128243427D01*
X169776948Y-128312704D01*
X169746443Y-128413267D01*
X169672348Y-128551887D01*
X169662778Y-128569791D01*
X169633448Y-128605529D01*
X169550186Y-128706986D01*
X169448729Y-128790248D01*
X169412991Y-128819578D01*
X169412989Y-128819579D01*
X169256467Y-128903243D01*
X169199853Y-128920416D01*
X169086627Y-128954763D01*
X169020443Y-128961281D01*
X168954260Y-128967800D01*
X168865740Y-128967800D01*
X168799557Y-128961281D01*
X168733373Y-128954763D01*
X168620147Y-128920416D01*
X168563533Y-128903243D01*
X168407011Y-128819579D01*
X168407009Y-128819578D01*
X168371271Y-128790248D01*
X168269814Y-128706986D01*
X168186552Y-128605529D01*
X168157222Y-128569791D01*
X168147652Y-128551887D01*
X168073557Y-128413267D01*
X168043052Y-128312704D01*
X168022037Y-128243427D01*
X168004641Y-128066800D01*
X168022037Y-127890173D01*
X168073557Y-127720334D01*
X168073557Y-127720333D01*
X168157221Y-127563811D01*
X168157222Y-127563809D01*
X168194305Y-127518623D01*
X168269814Y-127426614D01*
X168371271Y-127343352D01*
X168407009Y-127314022D01*
X168438643Y-127297113D01*
X168563533Y-127230357D01*
X168621646Y-127212729D01*
X168733373Y-127178837D01*
X168799557Y-127172319D01*
X168865740Y-127165800D01*
X168954260Y-127165800D01*
X169020443Y-127172319D01*
X169020443Y-127172319D01*
G37*
G36*
X146044734Y-125235232D02*
X146254202Y-125321996D01*
X146442723Y-125447962D01*
X146603038Y-125608277D01*
X146729004Y-125796798D01*
X146815768Y-126006266D01*
X146860000Y-126228635D01*
X146860000Y-126455365D01*
X146815768Y-126677734D01*
X146729004Y-126887202D01*
X146603038Y-127075723D01*
X146442723Y-127236038D01*
X146254202Y-127362004D01*
X146044734Y-127448768D01*
X145822365Y-127493000D01*
X145595635Y-127493000D01*
X145373266Y-127448768D01*
X145163798Y-127362004D01*
X144975277Y-127236038D01*
X144814962Y-127075723D01*
X144688996Y-126887202D01*
X144602232Y-126677734D01*
X144558000Y-126455365D01*
X144558000Y-126228635D01*
X144602232Y-126006266D01*
X144688996Y-125796798D01*
X144814962Y-125608277D01*
X144975277Y-125447962D01*
X145163798Y-125321996D01*
X145373266Y-125235232D01*
X145595635Y-125191000D01*
X145822365Y-125191000D01*
X146044734Y-125235232D01*
X146044734Y-125235232D01*
G37*
G36*
X134660877Y-121122665D02*
X134698564Y-121134098D01*
X134733303Y-121152666D01*
X134763748Y-121177652D01*
X134788734Y-121208097D01*
X134807302Y-121242836D01*
X134818735Y-121280523D01*
X134823200Y-121325861D01*
X134823200Y-122412539D01*
X134818735Y-122457877D01*
X134807302Y-122495564D01*
X134788734Y-122530303D01*
X134763748Y-122560748D01*
X134733303Y-122585734D01*
X134698564Y-122604302D01*
X134660877Y-122615735D01*
X134615539Y-122620200D01*
X133778861Y-122620200D01*
X133733523Y-122615735D01*
X133695836Y-122604302D01*
X133661097Y-122585734D01*
X133630652Y-122560748D01*
X133605666Y-122530303D01*
X133587098Y-122495564D01*
X133575665Y-122457877D01*
X133571200Y-122412539D01*
X133571200Y-121325861D01*
X133575665Y-121280523D01*
X133587098Y-121242836D01*
X133605666Y-121208097D01*
X133630652Y-121177652D01*
X133661097Y-121152666D01*
X133695836Y-121134098D01*
X133733523Y-121122665D01*
X133778861Y-121118200D01*
X134615539Y-121118200D01*
X134660877Y-121122665D01*
X134660877Y-121122665D01*
G37*
G36*
X132610877Y-121122665D02*
X132648564Y-121134098D01*
X132683303Y-121152666D01*
X132713748Y-121177652D01*
X132738734Y-121208097D01*
X132757302Y-121242836D01*
X132768735Y-121280523D01*
X132773200Y-121325861D01*
X132773200Y-122412539D01*
X132768735Y-122457877D01*
X132757302Y-122495564D01*
X132738734Y-122530303D01*
X132713748Y-122560748D01*
X132683303Y-122585734D01*
X132648564Y-122604302D01*
X132610877Y-122615735D01*
X132565539Y-122620200D01*
X131728861Y-122620200D01*
X131683523Y-122615735D01*
X131645836Y-122604302D01*
X131611097Y-122585734D01*
X131580652Y-122560748D01*
X131555666Y-122530303D01*
X131537098Y-122495564D01*
X131525665Y-122457877D01*
X131521200Y-122412539D01*
X131521200Y-121325861D01*
X131525665Y-121280523D01*
X131537098Y-121242836D01*
X131555666Y-121208097D01*
X131580652Y-121177652D01*
X131611097Y-121152666D01*
X131645836Y-121134098D01*
X131683523Y-121122665D01*
X131728861Y-121118200D01*
X132565539Y-121118200D01*
X132610877Y-121122665D01*
X132610877Y-121122665D01*
G37*
G36*
X169959942Y-119980242D02*
X170107902Y-120041530D01*
X170174930Y-120086317D01*
X170241057Y-120130501D01*
X170354299Y-120243743D01*
X170398483Y-120309870D01*
X170443270Y-120376898D01*
X170504558Y-120524858D01*
X170535800Y-120681925D01*
X170535800Y-120842075D01*
X170504558Y-120999142D01*
X170457154Y-121113583D01*
X170443271Y-121147100D01*
X170381758Y-121239162D01*
X170354298Y-121280258D01*
X170241058Y-121393498D01*
X170107902Y-121482470D01*
X169959942Y-121543758D01*
X169802875Y-121575000D01*
X169642725Y-121575000D01*
X169485658Y-121543758D01*
X169337698Y-121482470D01*
X169204542Y-121393498D01*
X169091302Y-121280258D01*
X169063843Y-121239162D01*
X169002329Y-121147100D01*
X168988446Y-121113583D01*
X168941042Y-120999142D01*
X168909800Y-120842075D01*
X168909800Y-120681925D01*
X168941042Y-120524858D01*
X169002330Y-120376898D01*
X169047117Y-120309870D01*
X169091301Y-120243743D01*
X169204543Y-120130501D01*
X169270670Y-120086317D01*
X169337698Y-120041530D01*
X169485658Y-119980242D01*
X169642725Y-119949000D01*
X169802875Y-119949000D01*
X169959942Y-119980242D01*
X169959942Y-119980242D01*
G37*
G36*
X147099942Y-119980242D02*
X147247902Y-120041530D01*
X147314930Y-120086317D01*
X147381057Y-120130501D01*
X147494299Y-120243743D01*
X147538483Y-120309870D01*
X147583270Y-120376898D01*
X147644558Y-120524858D01*
X147675800Y-120681925D01*
X147675800Y-120842075D01*
X147644558Y-120999142D01*
X147597154Y-121113583D01*
X147583271Y-121147100D01*
X147521758Y-121239162D01*
X147494298Y-121280258D01*
X147381058Y-121393498D01*
X147247902Y-121482470D01*
X147099942Y-121543758D01*
X146942875Y-121575000D01*
X146782725Y-121575000D01*
X146625658Y-121543758D01*
X146477698Y-121482470D01*
X146344542Y-121393498D01*
X146231302Y-121280258D01*
X146203843Y-121239162D01*
X146142329Y-121147100D01*
X146128446Y-121113583D01*
X146081042Y-120999142D01*
X146049800Y-120842075D01*
X146049800Y-120681925D01*
X146081042Y-120524858D01*
X146142330Y-120376898D01*
X146187117Y-120309870D01*
X146231301Y-120243743D01*
X146344543Y-120130501D01*
X146410670Y-120086317D01*
X146477698Y-120041530D01*
X146625658Y-119980242D01*
X146782725Y-119949000D01*
X146942875Y-119949000D01*
X147099942Y-119980242D01*
X147099942Y-119980242D01*
G37*
G36*
X145114677Y-119732665D02*
X145152364Y-119744098D01*
X145187103Y-119762666D01*
X145217548Y-119787652D01*
X145242534Y-119818097D01*
X145261102Y-119852836D01*
X145272535Y-119890523D01*
X145277000Y-119935861D01*
X145277000Y-120772539D01*
X145272535Y-120817877D01*
X145261102Y-120855564D01*
X145242534Y-120890303D01*
X145217548Y-120920748D01*
X145187103Y-120945734D01*
X145152364Y-120964302D01*
X145114677Y-120975735D01*
X145069339Y-120980200D01*
X143982661Y-120980200D01*
X143937323Y-120975735D01*
X143899636Y-120964302D01*
X143864897Y-120945734D01*
X143834452Y-120920748D01*
X143809466Y-120890303D01*
X143790898Y-120855564D01*
X143779465Y-120817877D01*
X143775000Y-120772539D01*
X143775000Y-119935861D01*
X143779465Y-119890523D01*
X143790898Y-119852836D01*
X143809466Y-119818097D01*
X143834452Y-119787652D01*
X143864897Y-119762666D01*
X143899636Y-119744098D01*
X143937323Y-119732665D01*
X143982661Y-119728200D01*
X145069339Y-119728200D01*
X145114677Y-119732665D01*
X145114677Y-119732665D01*
G37*
G36*
X168203277Y-119732665D02*
X168240964Y-119744098D01*
X168275703Y-119762666D01*
X168306148Y-119787652D01*
X168331134Y-119818097D01*
X168349702Y-119852836D01*
X168361135Y-119890523D01*
X168365600Y-119935861D01*
X168365600Y-120772539D01*
X168361135Y-120817877D01*
X168349702Y-120855564D01*
X168331134Y-120890303D01*
X168306148Y-120920748D01*
X168275703Y-120945734D01*
X168240964Y-120964302D01*
X168203277Y-120975735D01*
X168157939Y-120980200D01*
X167071261Y-120980200D01*
X167025923Y-120975735D01*
X166988236Y-120964302D01*
X166953497Y-120945734D01*
X166923052Y-120920748D01*
X166898066Y-120890303D01*
X166879498Y-120855564D01*
X166868065Y-120817877D01*
X166863600Y-120772539D01*
X166863600Y-119935861D01*
X166868065Y-119890523D01*
X166879498Y-119852836D01*
X166898066Y-119818097D01*
X166923052Y-119787652D01*
X166953497Y-119762666D01*
X166988236Y-119744098D01*
X167025923Y-119732665D01*
X167071261Y-119728200D01*
X168157939Y-119728200D01*
X168203277Y-119732665D01*
X168203277Y-119732665D01*
G37*
G36*
X166018877Y-119707265D02*
X166056564Y-119718698D01*
X166091303Y-119737266D01*
X166121748Y-119762252D01*
X166146734Y-119792697D01*
X166165302Y-119827436D01*
X166176735Y-119865123D01*
X166181200Y-119910461D01*
X166181200Y-120747139D01*
X166176735Y-120792477D01*
X166165302Y-120830164D01*
X166146734Y-120864903D01*
X166121748Y-120895348D01*
X166091303Y-120920334D01*
X166056564Y-120938902D01*
X166018877Y-120950335D01*
X165973539Y-120954800D01*
X164886861Y-120954800D01*
X164841523Y-120950335D01*
X164803836Y-120938902D01*
X164769097Y-120920334D01*
X164738652Y-120895348D01*
X164713666Y-120864903D01*
X164695098Y-120830164D01*
X164683665Y-120792477D01*
X164679200Y-120747139D01*
X164679200Y-119910461D01*
X164683665Y-119865123D01*
X164695098Y-119827436D01*
X164713666Y-119792697D01*
X164738652Y-119762252D01*
X164769097Y-119737266D01*
X164803836Y-119718698D01*
X164841523Y-119707265D01*
X164886861Y-119702800D01*
X165973539Y-119702800D01*
X166018877Y-119707265D01*
X166018877Y-119707265D01*
G37*
G36*
X159720400Y-120857800D02*
X157068400Y-120857800D01*
X157068400Y-119695800D01*
X159720400Y-119695800D01*
X159720400Y-120857800D01*
X159720400Y-120857800D01*
G37*
G36*
X155985877Y-119580265D02*
X156023564Y-119591698D01*
X156058303Y-119610266D01*
X156088748Y-119635252D01*
X156113734Y-119665697D01*
X156132302Y-119700436D01*
X156143735Y-119738123D01*
X156148200Y-119783461D01*
X156148200Y-120620139D01*
X156143735Y-120665477D01*
X156132302Y-120703164D01*
X156113734Y-120737903D01*
X156088748Y-120768348D01*
X156058303Y-120793334D01*
X156023564Y-120811902D01*
X155985877Y-120823335D01*
X155940539Y-120827800D01*
X154853861Y-120827800D01*
X154808523Y-120823335D01*
X154770836Y-120811902D01*
X154736097Y-120793334D01*
X154705652Y-120768348D01*
X154680666Y-120737903D01*
X154662098Y-120703164D01*
X154650665Y-120665477D01*
X154646200Y-120620139D01*
X154646200Y-119783461D01*
X154650665Y-119738123D01*
X154662098Y-119700436D01*
X154680666Y-119665697D01*
X154705652Y-119635252D01*
X154736097Y-119610266D01*
X154770836Y-119591698D01*
X154808523Y-119580265D01*
X154853861Y-119575800D01*
X155940539Y-119575800D01*
X155985877Y-119580265D01*
X155985877Y-119580265D01*
G37*
G36*
X161929477Y-119478665D02*
X161967164Y-119490098D01*
X162001903Y-119508666D01*
X162032348Y-119533652D01*
X162057334Y-119564097D01*
X162075902Y-119598836D01*
X162087335Y-119636523D01*
X162091800Y-119681861D01*
X162091800Y-120518539D01*
X162087335Y-120563877D01*
X162075902Y-120601564D01*
X162057334Y-120636303D01*
X162032348Y-120666748D01*
X162001903Y-120691734D01*
X161967164Y-120710302D01*
X161929477Y-120721735D01*
X161884139Y-120726200D01*
X160797461Y-120726200D01*
X160752123Y-120721735D01*
X160714436Y-120710302D01*
X160679697Y-120691734D01*
X160649252Y-120666748D01*
X160624266Y-120636303D01*
X160605698Y-120601564D01*
X160594265Y-120563877D01*
X160589800Y-120518539D01*
X160589800Y-119681861D01*
X160594265Y-119636523D01*
X160605698Y-119598836D01*
X160624266Y-119564097D01*
X160649252Y-119533652D01*
X160679697Y-119508666D01*
X160714436Y-119490098D01*
X160752123Y-119478665D01*
X160797461Y-119474200D01*
X161884139Y-119474200D01*
X161929477Y-119478665D01*
X161929477Y-119478665D01*
G37*
G36*
X152335000Y-120379000D02*
X150433000Y-120379000D01*
X150433000Y-116777000D01*
X152335000Y-116777000D01*
X152335000Y-120379000D01*
X152335000Y-120379000D01*
G37*
G36*
X138064683Y-118916725D02*
X138095144Y-118925966D01*
X138123223Y-118940975D01*
X138147831Y-118961169D01*
X138168025Y-118985777D01*
X138183034Y-119013856D01*
X138192275Y-119044317D01*
X138196000Y-119082140D01*
X138196000Y-120145860D01*
X138192275Y-120183683D01*
X138183034Y-120214144D01*
X138168025Y-120242223D01*
X138147831Y-120266831D01*
X138123223Y-120287025D01*
X138095144Y-120302034D01*
X138064683Y-120311275D01*
X138026860Y-120315000D01*
X137463140Y-120315000D01*
X137425317Y-120311275D01*
X137394856Y-120302034D01*
X137366777Y-120287025D01*
X137342169Y-120266831D01*
X137321975Y-120242223D01*
X137306966Y-120214144D01*
X137297725Y-120183683D01*
X137294000Y-120145860D01*
X137294000Y-119082140D01*
X137297725Y-119044317D01*
X137306966Y-119013856D01*
X137321975Y-118985777D01*
X137342169Y-118961169D01*
X137366777Y-118940975D01*
X137394856Y-118925966D01*
X137425317Y-118916725D01*
X137463140Y-118913000D01*
X138026860Y-118913000D01*
X138064683Y-118916725D01*
X138064683Y-118916725D01*
G37*
G36*
X136814683Y-118916725D02*
X136845144Y-118925966D01*
X136873223Y-118940975D01*
X136897831Y-118961169D01*
X136918025Y-118985777D01*
X136933034Y-119013856D01*
X136942275Y-119044317D01*
X136946000Y-119082140D01*
X136946000Y-120145860D01*
X136942275Y-120183683D01*
X136933034Y-120214144D01*
X136918025Y-120242223D01*
X136897831Y-120266831D01*
X136873223Y-120287025D01*
X136845144Y-120302034D01*
X136814683Y-120311275D01*
X136776860Y-120315000D01*
X136213140Y-120315000D01*
X136175317Y-120311275D01*
X136144856Y-120302034D01*
X136116777Y-120287025D01*
X136092169Y-120266831D01*
X136071975Y-120242223D01*
X136056966Y-120214144D01*
X136047725Y-120183683D01*
X136044000Y-120145860D01*
X136044000Y-119082140D01*
X136047725Y-119044317D01*
X136056966Y-119013856D01*
X136071975Y-118985777D01*
X136092169Y-118961169D01*
X136116777Y-118940975D01*
X136144856Y-118925966D01*
X136175317Y-118916725D01*
X136213140Y-118913000D01*
X136776860Y-118913000D01*
X136814683Y-118916725D01*
X136814683Y-118916725D01*
G37*
G36*
X135564683Y-118916725D02*
X135595144Y-118925966D01*
X135623223Y-118940975D01*
X135647831Y-118961169D01*
X135668025Y-118985777D01*
X135683034Y-119013856D01*
X135692275Y-119044317D01*
X135696000Y-119082140D01*
X135696000Y-120145860D01*
X135692275Y-120183683D01*
X135683034Y-120214144D01*
X135668025Y-120242223D01*
X135647831Y-120266831D01*
X135623223Y-120287025D01*
X135595144Y-120302034D01*
X135564683Y-120311275D01*
X135526860Y-120315000D01*
X134963140Y-120315000D01*
X134925317Y-120311275D01*
X134894856Y-120302034D01*
X134866777Y-120287025D01*
X134842169Y-120266831D01*
X134821975Y-120242223D01*
X134806966Y-120214144D01*
X134797725Y-120183683D01*
X134794000Y-120145860D01*
X134794000Y-119082140D01*
X134797725Y-119044317D01*
X134806966Y-119013856D01*
X134821975Y-118985777D01*
X134842169Y-118961169D01*
X134866777Y-118940975D01*
X134894856Y-118925966D01*
X134925317Y-118916725D01*
X134963140Y-118913000D01*
X135526860Y-118913000D01*
X135564683Y-118916725D01*
X135564683Y-118916725D01*
G37*
G36*
X134314683Y-118916725D02*
X134345144Y-118925966D01*
X134373223Y-118940975D01*
X134397831Y-118961169D01*
X134418025Y-118985777D01*
X134433034Y-119013856D01*
X134442275Y-119044317D01*
X134446000Y-119082140D01*
X134446000Y-120145860D01*
X134442275Y-120183683D01*
X134433034Y-120214144D01*
X134418025Y-120242223D01*
X134397831Y-120266831D01*
X134373223Y-120287025D01*
X134345144Y-120302034D01*
X134314683Y-120311275D01*
X134276860Y-120315000D01*
X133713140Y-120315000D01*
X133675317Y-120311275D01*
X133644856Y-120302034D01*
X133616777Y-120287025D01*
X133592169Y-120266831D01*
X133571975Y-120242223D01*
X133556966Y-120214144D01*
X133547725Y-120183683D01*
X133544000Y-120145860D01*
X133544000Y-119082140D01*
X133547725Y-119044317D01*
X133556966Y-119013856D01*
X133571975Y-118985777D01*
X133592169Y-118961169D01*
X133616777Y-118940975D01*
X133644856Y-118925966D01*
X133675317Y-118916725D01*
X133713140Y-118913000D01*
X134276860Y-118913000D01*
X134314683Y-118916725D01*
X134314683Y-118916725D01*
G37*
G36*
X133064683Y-118916725D02*
X133095144Y-118925966D01*
X133123223Y-118940975D01*
X133147831Y-118961169D01*
X133168025Y-118985777D01*
X133183034Y-119013856D01*
X133192275Y-119044317D01*
X133196000Y-119082140D01*
X133196000Y-120145860D01*
X133192275Y-120183683D01*
X133183034Y-120214144D01*
X133168025Y-120242223D01*
X133147831Y-120266831D01*
X133123223Y-120287025D01*
X133095144Y-120302034D01*
X133064683Y-120311275D01*
X133026860Y-120315000D01*
X132463140Y-120315000D01*
X132425317Y-120311275D01*
X132394856Y-120302034D01*
X132366777Y-120287025D01*
X132342169Y-120266831D01*
X132321975Y-120242223D01*
X132306966Y-120214144D01*
X132297725Y-120183683D01*
X132294000Y-120145860D01*
X132294000Y-119082140D01*
X132297725Y-119044317D01*
X132306966Y-119013856D01*
X132321975Y-118985777D01*
X132342169Y-118961169D01*
X132366777Y-118940975D01*
X132394856Y-118925966D01*
X132425317Y-118916725D01*
X132463140Y-118913000D01*
X133026860Y-118913000D01*
X133064683Y-118916725D01*
X133064683Y-118916725D01*
G37*
G36*
X139314683Y-118916725D02*
X139345144Y-118925966D01*
X139373223Y-118940975D01*
X139397831Y-118961169D01*
X139418025Y-118985777D01*
X139433034Y-119013856D01*
X139442275Y-119044317D01*
X139446000Y-119082140D01*
X139446000Y-120145860D01*
X139442275Y-120183683D01*
X139433034Y-120214144D01*
X139418025Y-120242223D01*
X139397831Y-120266831D01*
X139373223Y-120287025D01*
X139345144Y-120302034D01*
X139314683Y-120311275D01*
X139276860Y-120315000D01*
X138713140Y-120315000D01*
X138675317Y-120311275D01*
X138644856Y-120302034D01*
X138616777Y-120287025D01*
X138592169Y-120266831D01*
X138571975Y-120242223D01*
X138556966Y-120214144D01*
X138547725Y-120183683D01*
X138544000Y-120145860D01*
X138544000Y-119082140D01*
X138547725Y-119044317D01*
X138556966Y-119013856D01*
X138571975Y-118985777D01*
X138592169Y-118961169D01*
X138616777Y-118940975D01*
X138644856Y-118925966D01*
X138675317Y-118916725D01*
X138713140Y-118913000D01*
X139276860Y-118913000D01*
X139314683Y-118916725D01*
X139314683Y-118916725D01*
G37*
G36*
X131814683Y-118916725D02*
X131845144Y-118925966D01*
X131873223Y-118940975D01*
X131897831Y-118961169D01*
X131918025Y-118985777D01*
X131933034Y-119013856D01*
X131942275Y-119044317D01*
X131946000Y-119082140D01*
X131946000Y-120145860D01*
X131942275Y-120183683D01*
X131933034Y-120214144D01*
X131918025Y-120242223D01*
X131897831Y-120266831D01*
X131873223Y-120287025D01*
X131845144Y-120302034D01*
X131814683Y-120311275D01*
X131776860Y-120315000D01*
X131213140Y-120315000D01*
X131175317Y-120311275D01*
X131144856Y-120302034D01*
X131116777Y-120287025D01*
X131092169Y-120266831D01*
X131071975Y-120242223D01*
X131056966Y-120214144D01*
X131047725Y-120183683D01*
X131044000Y-120145860D01*
X131044000Y-119082140D01*
X131047725Y-119044317D01*
X131056966Y-119013856D01*
X131071975Y-118985777D01*
X131092169Y-118961169D01*
X131116777Y-118940975D01*
X131144856Y-118925966D01*
X131175317Y-118916725D01*
X131213140Y-118913000D01*
X131776860Y-118913000D01*
X131814683Y-118916725D01*
X131814683Y-118916725D01*
G37*
G36*
X130564683Y-118916725D02*
X130595144Y-118925966D01*
X130623223Y-118940975D01*
X130647831Y-118961169D01*
X130668025Y-118985777D01*
X130683034Y-119013856D01*
X130692275Y-119044317D01*
X130696000Y-119082140D01*
X130696000Y-120145860D01*
X130692275Y-120183683D01*
X130683034Y-120214144D01*
X130668025Y-120242223D01*
X130647831Y-120266831D01*
X130623223Y-120287025D01*
X130595144Y-120302034D01*
X130564683Y-120311275D01*
X130526860Y-120315000D01*
X129963140Y-120315000D01*
X129925317Y-120311275D01*
X129894856Y-120302034D01*
X129866777Y-120287025D01*
X129842169Y-120266831D01*
X129821975Y-120242223D01*
X129806966Y-120214144D01*
X129797725Y-120183683D01*
X129794000Y-120145860D01*
X129794000Y-119082140D01*
X129797725Y-119044317D01*
X129806966Y-119013856D01*
X129821975Y-118985777D01*
X129842169Y-118961169D01*
X129866777Y-118940975D01*
X129894856Y-118925966D01*
X129925317Y-118916725D01*
X129963140Y-118913000D01*
X130526860Y-118913000D01*
X130564683Y-118916725D01*
X130564683Y-118916725D01*
G37*
G36*
X147506342Y-117440242D02*
X147654302Y-117501530D01*
X147697307Y-117530265D01*
X147759273Y-117571669D01*
X147787458Y-117590502D01*
X147900698Y-117703742D01*
X147989670Y-117836898D01*
X148050958Y-117984858D01*
X148082200Y-118141925D01*
X148082200Y-118302075D01*
X148050958Y-118459142D01*
X147989670Y-118607102D01*
X147956437Y-118656838D01*
X147912538Y-118722539D01*
X147900698Y-118740258D01*
X147787458Y-118853498D01*
X147654302Y-118942470D01*
X147654301Y-118942471D01*
X147654300Y-118942471D01*
X147620783Y-118956354D01*
X147506342Y-119003758D01*
X147349275Y-119035000D01*
X147189125Y-119035000D01*
X147032058Y-119003758D01*
X146917617Y-118956354D01*
X146884100Y-118942471D01*
X146884099Y-118942471D01*
X146884098Y-118942470D01*
X146750942Y-118853498D01*
X146637702Y-118740258D01*
X146625863Y-118722539D01*
X146581963Y-118656838D01*
X146548730Y-118607102D01*
X146487442Y-118459142D01*
X146456200Y-118302075D01*
X146456200Y-118141925D01*
X146487442Y-117984858D01*
X146548730Y-117836898D01*
X146637702Y-117703742D01*
X146750942Y-117590502D01*
X146779128Y-117571669D01*
X146841093Y-117530265D01*
X146884098Y-117501530D01*
X147032058Y-117440242D01*
X147189125Y-117409000D01*
X147349275Y-117409000D01*
X147506342Y-117440242D01*
X147506342Y-117440242D01*
G37*
G36*
X170366342Y-117440242D02*
X170514302Y-117501530D01*
X170557307Y-117530265D01*
X170619273Y-117571669D01*
X170647458Y-117590502D01*
X170760698Y-117703742D01*
X170849670Y-117836898D01*
X170910958Y-117984858D01*
X170942200Y-118141925D01*
X170942200Y-118302075D01*
X170910958Y-118459142D01*
X170849670Y-118607102D01*
X170816437Y-118656838D01*
X170772538Y-118722539D01*
X170760698Y-118740258D01*
X170647458Y-118853498D01*
X170514302Y-118942470D01*
X170514301Y-118942471D01*
X170514300Y-118942471D01*
X170480783Y-118956354D01*
X170366342Y-119003758D01*
X170209275Y-119035000D01*
X170049125Y-119035000D01*
X169892058Y-119003758D01*
X169777617Y-118956354D01*
X169744100Y-118942471D01*
X169744099Y-118942471D01*
X169744098Y-118942470D01*
X169610942Y-118853498D01*
X169497702Y-118740258D01*
X169485863Y-118722539D01*
X169441963Y-118656838D01*
X169408730Y-118607102D01*
X169347442Y-118459142D01*
X169316200Y-118302075D01*
X169316200Y-118141925D01*
X169347442Y-117984858D01*
X169408730Y-117836898D01*
X169497702Y-117703742D01*
X169610942Y-117590502D01*
X169639128Y-117571669D01*
X169701093Y-117530265D01*
X169744098Y-117501530D01*
X169892058Y-117440242D01*
X170049125Y-117409000D01*
X170209275Y-117409000D01*
X170366342Y-117440242D01*
X170366342Y-117440242D01*
G37*
G36*
X145114677Y-117682665D02*
X145152364Y-117694098D01*
X145187103Y-117712666D01*
X145217548Y-117737652D01*
X145242534Y-117768097D01*
X145261102Y-117802836D01*
X145272535Y-117840523D01*
X145277000Y-117885861D01*
X145277000Y-118722539D01*
X145272535Y-118767877D01*
X145261102Y-118805564D01*
X145242534Y-118840303D01*
X145217548Y-118870748D01*
X145187103Y-118895734D01*
X145152364Y-118914302D01*
X145114677Y-118925735D01*
X145069339Y-118930200D01*
X143982661Y-118930200D01*
X143937323Y-118925735D01*
X143899636Y-118914302D01*
X143864897Y-118895734D01*
X143834452Y-118870748D01*
X143809466Y-118840303D01*
X143790898Y-118805564D01*
X143779465Y-118767877D01*
X143775000Y-118722539D01*
X143775000Y-117885861D01*
X143779465Y-117840523D01*
X143790898Y-117802836D01*
X143809466Y-117768097D01*
X143834452Y-117737652D01*
X143864897Y-117712666D01*
X143899636Y-117694098D01*
X143937323Y-117682665D01*
X143982661Y-117678200D01*
X145069339Y-117678200D01*
X145114677Y-117682665D01*
X145114677Y-117682665D01*
G37*
G36*
X168203277Y-117682665D02*
X168240964Y-117694098D01*
X168275703Y-117712666D01*
X168306148Y-117737652D01*
X168331134Y-117768097D01*
X168349702Y-117802836D01*
X168361135Y-117840523D01*
X168365600Y-117885861D01*
X168365600Y-118722539D01*
X168361135Y-118767877D01*
X168349702Y-118805564D01*
X168331134Y-118840303D01*
X168306148Y-118870748D01*
X168275703Y-118895734D01*
X168240964Y-118914302D01*
X168203277Y-118925735D01*
X168157939Y-118930200D01*
X167071261Y-118930200D01*
X167025923Y-118925735D01*
X166988236Y-118914302D01*
X166953497Y-118895734D01*
X166923052Y-118870748D01*
X166898066Y-118840303D01*
X166879498Y-118805564D01*
X166868065Y-118767877D01*
X166863600Y-118722539D01*
X166863600Y-117885861D01*
X166868065Y-117840523D01*
X166879498Y-117802836D01*
X166898066Y-117768097D01*
X166923052Y-117737652D01*
X166953497Y-117712666D01*
X166988236Y-117694098D01*
X167025923Y-117682665D01*
X167071261Y-117678200D01*
X168157939Y-117678200D01*
X168203277Y-117682665D01*
X168203277Y-117682665D01*
G37*
G36*
X166018877Y-117657265D02*
X166056564Y-117668698D01*
X166091303Y-117687266D01*
X166121748Y-117712252D01*
X166146734Y-117742697D01*
X166165302Y-117777436D01*
X166176735Y-117815123D01*
X166181200Y-117860461D01*
X166181200Y-118697139D01*
X166176735Y-118742477D01*
X166165302Y-118780164D01*
X166146734Y-118814903D01*
X166121748Y-118845348D01*
X166091303Y-118870334D01*
X166056564Y-118888902D01*
X166018877Y-118900335D01*
X165973539Y-118904800D01*
X164886861Y-118904800D01*
X164841523Y-118900335D01*
X164803836Y-118888902D01*
X164769097Y-118870334D01*
X164738652Y-118845348D01*
X164713666Y-118814903D01*
X164695098Y-118780164D01*
X164683665Y-118742477D01*
X164679200Y-118697139D01*
X164679200Y-117860461D01*
X164683665Y-117815123D01*
X164695098Y-117777436D01*
X164713666Y-117742697D01*
X164738652Y-117712252D01*
X164769097Y-117687266D01*
X164803836Y-117668698D01*
X164841523Y-117657265D01*
X164886861Y-117652800D01*
X165973539Y-117652800D01*
X166018877Y-117657265D01*
X166018877Y-117657265D01*
G37*
G36*
X155985877Y-117530265D02*
X156023564Y-117541698D01*
X156058303Y-117560266D01*
X156088748Y-117585252D01*
X156113734Y-117615697D01*
X156132302Y-117650436D01*
X156143735Y-117688123D01*
X156148200Y-117733461D01*
X156148200Y-118570139D01*
X156143735Y-118615477D01*
X156132302Y-118653164D01*
X156113734Y-118687903D01*
X156088748Y-118718348D01*
X156058303Y-118743334D01*
X156023564Y-118761902D01*
X155985877Y-118773335D01*
X155940539Y-118777800D01*
X154853861Y-118777800D01*
X154808523Y-118773335D01*
X154770836Y-118761902D01*
X154736097Y-118743334D01*
X154705652Y-118718348D01*
X154680666Y-118687903D01*
X154662098Y-118653164D01*
X154650665Y-118615477D01*
X154646200Y-118570139D01*
X154646200Y-117733461D01*
X154650665Y-117688123D01*
X154662098Y-117650436D01*
X154680666Y-117615697D01*
X154705652Y-117585252D01*
X154736097Y-117560266D01*
X154770836Y-117541698D01*
X154808523Y-117530265D01*
X154853861Y-117525800D01*
X155940539Y-117525800D01*
X155985877Y-117530265D01*
X155985877Y-117530265D01*
G37*
G36*
X161929477Y-117428665D02*
X161967164Y-117440098D01*
X162001903Y-117458666D01*
X162032348Y-117483652D01*
X162057334Y-117514097D01*
X162075902Y-117548836D01*
X162087335Y-117586523D01*
X162091800Y-117631861D01*
X162091800Y-118468539D01*
X162087335Y-118513877D01*
X162075902Y-118551564D01*
X162057334Y-118586303D01*
X162032348Y-118616748D01*
X162001903Y-118641734D01*
X161967164Y-118660302D01*
X161929477Y-118671735D01*
X161884139Y-118676200D01*
X160797461Y-118676200D01*
X160752123Y-118671735D01*
X160714436Y-118660302D01*
X160679697Y-118641734D01*
X160649252Y-118616748D01*
X160624266Y-118586303D01*
X160605698Y-118551564D01*
X160594265Y-118513877D01*
X160589800Y-118468539D01*
X160589800Y-117631861D01*
X160594265Y-117586523D01*
X160605698Y-117548836D01*
X160624266Y-117514097D01*
X160649252Y-117483652D01*
X160679697Y-117458666D01*
X160714436Y-117440098D01*
X160752123Y-117428665D01*
X160797461Y-117424200D01*
X161884139Y-117424200D01*
X161929477Y-117428665D01*
X161929477Y-117428665D01*
G37*
G36*
X159720400Y-118657800D02*
X158968400Y-118657800D01*
X158968400Y-117495800D01*
X159720400Y-117495800D01*
X159720400Y-118657800D01*
X159720400Y-118657800D01*
G37*
G36*
X157820400Y-118657800D02*
X157068400Y-118657800D01*
X157068400Y-117495800D01*
X157820400Y-117495800D01*
X157820400Y-118657800D01*
X157820400Y-118657800D01*
G37*
G36*
X142511535Y-115316800D02*
X142542740Y-115326266D01*
X142571487Y-115341631D01*
X142596687Y-115362313D01*
X142617369Y-115387513D01*
X142632734Y-115416260D01*
X142642200Y-115447465D01*
X142646000Y-115486045D01*
X142646000Y-118241955D01*
X142642200Y-118280535D01*
X142632734Y-118311740D01*
X142617369Y-118340487D01*
X142596687Y-118365687D01*
X142571487Y-118386369D01*
X142542740Y-118401734D01*
X142511535Y-118411200D01*
X142472955Y-118415000D01*
X140617045Y-118415000D01*
X140578465Y-118411200D01*
X140547260Y-118401734D01*
X140518513Y-118386369D01*
X140493313Y-118365687D01*
X140472631Y-118340487D01*
X140457266Y-118311740D01*
X140447800Y-118280535D01*
X140444000Y-118241955D01*
X140444000Y-115486045D01*
X140447800Y-115447465D01*
X140457266Y-115416260D01*
X140472631Y-115387513D01*
X140493313Y-115362313D01*
X140518513Y-115341631D01*
X140547260Y-115326266D01*
X140578465Y-115316800D01*
X140617045Y-115313000D01*
X142472955Y-115313000D01*
X142511535Y-115316800D01*
X142511535Y-115316800D01*
G37*
G36*
X128661535Y-115316800D02*
X128692740Y-115326266D01*
X128721487Y-115341631D01*
X128746687Y-115362313D01*
X128767369Y-115387513D01*
X128782734Y-115416260D01*
X128792200Y-115447465D01*
X128796000Y-115486045D01*
X128796000Y-118241955D01*
X128792200Y-118280535D01*
X128782734Y-118311740D01*
X128767369Y-118340487D01*
X128746687Y-118365687D01*
X128721487Y-118386369D01*
X128692740Y-118401734D01*
X128661535Y-118411200D01*
X128622955Y-118415000D01*
X126767045Y-118415000D01*
X126728465Y-118411200D01*
X126697260Y-118401734D01*
X126668513Y-118386369D01*
X126643313Y-118365687D01*
X126622631Y-118340487D01*
X126607266Y-118311740D01*
X126597800Y-118280535D01*
X126594000Y-118241955D01*
X126594000Y-115486045D01*
X126597800Y-115447465D01*
X126607266Y-115416260D01*
X126622631Y-115387513D01*
X126643313Y-115362313D01*
X126668513Y-115341631D01*
X126697260Y-115326266D01*
X126728465Y-115316800D01*
X126767045Y-115313000D01*
X128622955Y-115313000D01*
X128661535Y-115316800D01*
X128661535Y-115316800D01*
G37*
G36*
X147099942Y-114900242D02*
X147247902Y-114961530D01*
X147277524Y-114981323D01*
X147381057Y-115050501D01*
X147494299Y-115163743D01*
X147538483Y-115229870D01*
X147583270Y-115296898D01*
X147644558Y-115444858D01*
X147675800Y-115601925D01*
X147675800Y-115762075D01*
X147644558Y-115919142D01*
X147597154Y-116033583D01*
X147583271Y-116067100D01*
X147494299Y-116200257D01*
X147381057Y-116313499D01*
X147314930Y-116357683D01*
X147247902Y-116402470D01*
X147099942Y-116463758D01*
X146942875Y-116495000D01*
X146782725Y-116495000D01*
X146625658Y-116463758D01*
X146477698Y-116402470D01*
X146410670Y-116357683D01*
X146344543Y-116313499D01*
X146231301Y-116200257D01*
X146142329Y-116067100D01*
X146128446Y-116033583D01*
X146081042Y-115919142D01*
X146049800Y-115762075D01*
X146049800Y-115601925D01*
X146081042Y-115444858D01*
X146142330Y-115296898D01*
X146187117Y-115229870D01*
X146231301Y-115163743D01*
X146344543Y-115050501D01*
X146448076Y-114981323D01*
X146477698Y-114961530D01*
X146625658Y-114900242D01*
X146782725Y-114869000D01*
X146942875Y-114869000D01*
X147099942Y-114900242D01*
X147099942Y-114900242D01*
G37*
G36*
X169959942Y-114900242D02*
X170107902Y-114961530D01*
X170137524Y-114981323D01*
X170241057Y-115050501D01*
X170354299Y-115163743D01*
X170398483Y-115229870D01*
X170443270Y-115296898D01*
X170504558Y-115444858D01*
X170535800Y-115601925D01*
X170535800Y-115762075D01*
X170504558Y-115919142D01*
X170457154Y-116033583D01*
X170443271Y-116067100D01*
X170354299Y-116200257D01*
X170241057Y-116313499D01*
X170174930Y-116357683D01*
X170107902Y-116402470D01*
X169959942Y-116463758D01*
X169802875Y-116495000D01*
X169642725Y-116495000D01*
X169485658Y-116463758D01*
X169337698Y-116402470D01*
X169270670Y-116357683D01*
X169204543Y-116313499D01*
X169091301Y-116200257D01*
X169002329Y-116067100D01*
X168988446Y-116033583D01*
X168941042Y-115919142D01*
X168909800Y-115762075D01*
X168909800Y-115601925D01*
X168941042Y-115444858D01*
X169002330Y-115296898D01*
X169047117Y-115229870D01*
X169091301Y-115163743D01*
X169204543Y-115050501D01*
X169308076Y-114981323D01*
X169337698Y-114961530D01*
X169485658Y-114900242D01*
X169642725Y-114869000D01*
X169802875Y-114869000D01*
X169959942Y-114900242D01*
X169959942Y-114900242D01*
G37*
G36*
X100297000Y-116462000D02*
X98745000Y-116462000D01*
X98745000Y-92570000D01*
X100297000Y-92570000D01*
X100297000Y-116462000D01*
X100297000Y-116462000D01*
G37*
G36*
X117917000Y-116462000D02*
X116365000Y-116462000D01*
X116365000Y-92570000D01*
X117917000Y-92570000D01*
X117917000Y-116462000D01*
X117917000Y-116462000D01*
G37*
G36*
X161813477Y-114823465D02*
X161851164Y-114834898D01*
X161885903Y-114853466D01*
X161916348Y-114878452D01*
X161941334Y-114908897D01*
X161959902Y-114943636D01*
X161971335Y-114981323D01*
X161975800Y-115026661D01*
X161975800Y-116113339D01*
X161971335Y-116158677D01*
X161959902Y-116196364D01*
X161941334Y-116231103D01*
X161916348Y-116261548D01*
X161885903Y-116286534D01*
X161851164Y-116305102D01*
X161813477Y-116316535D01*
X161768139Y-116321000D01*
X160931461Y-116321000D01*
X160886123Y-116316535D01*
X160848436Y-116305102D01*
X160813697Y-116286534D01*
X160783252Y-116261548D01*
X160758266Y-116231103D01*
X160739698Y-116196364D01*
X160728265Y-116158677D01*
X160723800Y-116113339D01*
X160723800Y-115026661D01*
X160728265Y-114981323D01*
X160739698Y-114943636D01*
X160758266Y-114908897D01*
X160783252Y-114878452D01*
X160813697Y-114853466D01*
X160848436Y-114834898D01*
X160886123Y-114823465D01*
X160931461Y-114819000D01*
X161768139Y-114819000D01*
X161813477Y-114823465D01*
X161813477Y-114823465D01*
G37*
G36*
X159763477Y-114823465D02*
X159801164Y-114834898D01*
X159835903Y-114853466D01*
X159866348Y-114878452D01*
X159891334Y-114908897D01*
X159909902Y-114943636D01*
X159921335Y-114981323D01*
X159925800Y-115026661D01*
X159925800Y-116113339D01*
X159921335Y-116158677D01*
X159909902Y-116196364D01*
X159891334Y-116231103D01*
X159866348Y-116261548D01*
X159835903Y-116286534D01*
X159801164Y-116305102D01*
X159763477Y-116316535D01*
X159718139Y-116321000D01*
X158881461Y-116321000D01*
X158836123Y-116316535D01*
X158798436Y-116305102D01*
X158763697Y-116286534D01*
X158733252Y-116261548D01*
X158708266Y-116231103D01*
X158689698Y-116196364D01*
X158678265Y-116158677D01*
X158673800Y-116113339D01*
X158673800Y-115026661D01*
X158678265Y-114981323D01*
X158689698Y-114943636D01*
X158708266Y-114908897D01*
X158733252Y-114878452D01*
X158763697Y-114853466D01*
X158798436Y-114834898D01*
X158836123Y-114823465D01*
X158881461Y-114819000D01*
X159718139Y-114819000D01*
X159763477Y-114823465D01*
X159763477Y-114823465D01*
G37*
G36*
X152335000Y-115379000D02*
X150433000Y-115379000D01*
X150433000Y-111777000D01*
X152335000Y-111777000D01*
X152335000Y-115379000D01*
X152335000Y-115379000D01*
G37*
G36*
X155457000Y-114431000D02*
X154455000Y-114431000D01*
X154455000Y-113529000D01*
X155457000Y-113529000D01*
X155457000Y-114431000D01*
X155457000Y-114431000D01*
G37*
G36*
X170366342Y-112360242D02*
X170514302Y-112421530D01*
X170581330Y-112466317D01*
X170647457Y-112510501D01*
X170760699Y-112623743D01*
X170784216Y-112658939D01*
X170849670Y-112756898D01*
X170910958Y-112904858D01*
X170942200Y-113061925D01*
X170942200Y-113222075D01*
X170910958Y-113379142D01*
X170849670Y-113527102D01*
X170760698Y-113660258D01*
X170647458Y-113773498D01*
X170514302Y-113862470D01*
X170366342Y-113923758D01*
X170209275Y-113955000D01*
X170049125Y-113955000D01*
X169892058Y-113923758D01*
X169744098Y-113862470D01*
X169610942Y-113773498D01*
X169497702Y-113660258D01*
X169408730Y-113527102D01*
X169347442Y-113379142D01*
X169316200Y-113222075D01*
X169316200Y-113061925D01*
X169347442Y-112904858D01*
X169408730Y-112756898D01*
X169474184Y-112658939D01*
X169497701Y-112623743D01*
X169610943Y-112510501D01*
X169677070Y-112466317D01*
X169744098Y-112421530D01*
X169892058Y-112360242D01*
X170049125Y-112329000D01*
X170209275Y-112329000D01*
X170366342Y-112360242D01*
X170366342Y-112360242D01*
G37*
G36*
X147506342Y-112360242D02*
X147654302Y-112421530D01*
X147721330Y-112466317D01*
X147787457Y-112510501D01*
X147900699Y-112623743D01*
X147924216Y-112658939D01*
X147989670Y-112756898D01*
X148050958Y-112904858D01*
X148082200Y-113061925D01*
X148082200Y-113222075D01*
X148050958Y-113379142D01*
X147989670Y-113527102D01*
X147900698Y-113660258D01*
X147787458Y-113773498D01*
X147654302Y-113862470D01*
X147506342Y-113923758D01*
X147349275Y-113955000D01*
X147189125Y-113955000D01*
X147032058Y-113923758D01*
X146884098Y-113862470D01*
X146750942Y-113773498D01*
X146637702Y-113660258D01*
X146548730Y-113527102D01*
X146487442Y-113379142D01*
X146456200Y-113222075D01*
X146456200Y-113061925D01*
X146487442Y-112904858D01*
X146548730Y-112756898D01*
X146614184Y-112658939D01*
X146637701Y-112623743D01*
X146750943Y-112510501D01*
X146817070Y-112466317D01*
X146884098Y-112421530D01*
X147032058Y-112360242D01*
X147189125Y-112329000D01*
X147349275Y-112329000D01*
X147506342Y-112360242D01*
X147506342Y-112360242D01*
G37*
G36*
X157457000Y-113481000D02*
X156455000Y-113481000D01*
X156455000Y-112579000D01*
X157457000Y-112579000D01*
X157457000Y-113481000D01*
X157457000Y-113481000D01*
G37*
G36*
X159763477Y-111369065D02*
X159801164Y-111380498D01*
X159835903Y-111399066D01*
X159866348Y-111424052D01*
X159891334Y-111454497D01*
X159909902Y-111489236D01*
X159921335Y-111526923D01*
X159925800Y-111572261D01*
X159925800Y-112658939D01*
X159921335Y-112704277D01*
X159909902Y-112741964D01*
X159891334Y-112776703D01*
X159866348Y-112807148D01*
X159835903Y-112832134D01*
X159801164Y-112850702D01*
X159763477Y-112862135D01*
X159718139Y-112866600D01*
X158881461Y-112866600D01*
X158836123Y-112862135D01*
X158798436Y-112850702D01*
X158763697Y-112832134D01*
X158733252Y-112807148D01*
X158708266Y-112776703D01*
X158689698Y-112741964D01*
X158678265Y-112704277D01*
X158673800Y-112658939D01*
X158673800Y-111572261D01*
X158678265Y-111526923D01*
X158689698Y-111489236D01*
X158708266Y-111454497D01*
X158733252Y-111424052D01*
X158763697Y-111399066D01*
X158798436Y-111380498D01*
X158836123Y-111369065D01*
X158881461Y-111364600D01*
X159718139Y-111364600D01*
X159763477Y-111369065D01*
X159763477Y-111369065D01*
G37*
G36*
X161813477Y-111369065D02*
X161851164Y-111380498D01*
X161885903Y-111399066D01*
X161916348Y-111424052D01*
X161941334Y-111454497D01*
X161959902Y-111489236D01*
X161971335Y-111526923D01*
X161975800Y-111572261D01*
X161975800Y-112658939D01*
X161971335Y-112704277D01*
X161959902Y-112741964D01*
X161941334Y-112776703D01*
X161916348Y-112807148D01*
X161885903Y-112832134D01*
X161851164Y-112850702D01*
X161813477Y-112862135D01*
X161768139Y-112866600D01*
X160931461Y-112866600D01*
X160886123Y-112862135D01*
X160848436Y-112850702D01*
X160813697Y-112832134D01*
X160783252Y-112807148D01*
X160758266Y-112776703D01*
X160739698Y-112741964D01*
X160728265Y-112704277D01*
X160723800Y-112658939D01*
X160723800Y-111572261D01*
X160728265Y-111526923D01*
X160739698Y-111489236D01*
X160758266Y-111454497D01*
X160783252Y-111424052D01*
X160813697Y-111399066D01*
X160848436Y-111380498D01*
X160886123Y-111369065D01*
X160931461Y-111364600D01*
X161768139Y-111364600D01*
X161813477Y-111369065D01*
X161813477Y-111369065D01*
G37*
G36*
X155457000Y-112531000D02*
X154455000Y-112531000D01*
X154455000Y-111629000D01*
X155457000Y-111629000D01*
X155457000Y-112531000D01*
X155457000Y-112531000D01*
G37*
G36*
X147099942Y-109820242D02*
X147247902Y-109881530D01*
X147314930Y-109926317D01*
X147381057Y-109970501D01*
X147494299Y-110083743D01*
X147538483Y-110149870D01*
X147583270Y-110216898D01*
X147644558Y-110364858D01*
X147675800Y-110521925D01*
X147675800Y-110682075D01*
X147644558Y-110839142D01*
X147583270Y-110987102D01*
X147494298Y-111120258D01*
X147381058Y-111233498D01*
X147247902Y-111322470D01*
X147099942Y-111383758D01*
X146942875Y-111415000D01*
X146782725Y-111415000D01*
X146625658Y-111383758D01*
X146477698Y-111322470D01*
X146344542Y-111233498D01*
X146231302Y-111120258D01*
X146142330Y-110987102D01*
X146081042Y-110839142D01*
X146049800Y-110682075D01*
X146049800Y-110521925D01*
X146081042Y-110364858D01*
X146142330Y-110216898D01*
X146187117Y-110149870D01*
X146231301Y-110083743D01*
X146344543Y-109970501D01*
X146410670Y-109926317D01*
X146477698Y-109881530D01*
X146625658Y-109820242D01*
X146782725Y-109789000D01*
X146942875Y-109789000D01*
X147099942Y-109820242D01*
X147099942Y-109820242D01*
G37*
G36*
X169959942Y-109820242D02*
X170107902Y-109881530D01*
X170174930Y-109926317D01*
X170241057Y-109970501D01*
X170354299Y-110083743D01*
X170398483Y-110149870D01*
X170443270Y-110216898D01*
X170504558Y-110364858D01*
X170535800Y-110521925D01*
X170535800Y-110682075D01*
X170504558Y-110839142D01*
X170443270Y-110987102D01*
X170354298Y-111120258D01*
X170241058Y-111233498D01*
X170107902Y-111322470D01*
X169959942Y-111383758D01*
X169802875Y-111415000D01*
X169642725Y-111415000D01*
X169485658Y-111383758D01*
X169337698Y-111322470D01*
X169204542Y-111233498D01*
X169091302Y-111120258D01*
X169002330Y-110987102D01*
X168941042Y-110839142D01*
X168909800Y-110682075D01*
X168909800Y-110521925D01*
X168941042Y-110364858D01*
X169002330Y-110216898D01*
X169047117Y-110149870D01*
X169091301Y-110083743D01*
X169204543Y-109970501D01*
X169270670Y-109926317D01*
X169337698Y-109881530D01*
X169485658Y-109820242D01*
X169642725Y-109789000D01*
X169802875Y-109789000D01*
X169959942Y-109820242D01*
X169959942Y-109820242D01*
G37*
G36*
X147506342Y-107280242D02*
X147654302Y-107341530D01*
X147721330Y-107386317D01*
X147787457Y-107430501D01*
X147900699Y-107543743D01*
X147944883Y-107609870D01*
X147989670Y-107676898D01*
X148050958Y-107824858D01*
X148082200Y-107981925D01*
X148082200Y-108142075D01*
X148050958Y-108299142D01*
X147989670Y-108447102D01*
X147900698Y-108580258D01*
X147787458Y-108693498D01*
X147654302Y-108782470D01*
X147506342Y-108843758D01*
X147349275Y-108875000D01*
X147189125Y-108875000D01*
X147032058Y-108843758D01*
X146884098Y-108782470D01*
X146750942Y-108693498D01*
X146637702Y-108580258D01*
X146548730Y-108447102D01*
X146487442Y-108299142D01*
X146456200Y-108142075D01*
X146456200Y-107981925D01*
X146487442Y-107824858D01*
X146548730Y-107676898D01*
X146593517Y-107609870D01*
X146637701Y-107543743D01*
X146750943Y-107430501D01*
X146817070Y-107386317D01*
X146884098Y-107341530D01*
X147032058Y-107280242D01*
X147189125Y-107249000D01*
X147349275Y-107249000D01*
X147506342Y-107280242D01*
X147506342Y-107280242D01*
G37*
G36*
X170366342Y-107280242D02*
X170514302Y-107341530D01*
X170581330Y-107386317D01*
X170647457Y-107430501D01*
X170760699Y-107543743D01*
X170804883Y-107609870D01*
X170849670Y-107676898D01*
X170910958Y-107824858D01*
X170942200Y-107981925D01*
X170942200Y-108142075D01*
X170910958Y-108299142D01*
X170849670Y-108447102D01*
X170760698Y-108580258D01*
X170647458Y-108693498D01*
X170514302Y-108782470D01*
X170366342Y-108843758D01*
X170209275Y-108875000D01*
X170049125Y-108875000D01*
X169892058Y-108843758D01*
X169744098Y-108782470D01*
X169610942Y-108693498D01*
X169497702Y-108580258D01*
X169408730Y-108447102D01*
X169347442Y-108299142D01*
X169316200Y-108142075D01*
X169316200Y-107981925D01*
X169347442Y-107824858D01*
X169408730Y-107676898D01*
X169453517Y-107609870D01*
X169497701Y-107543743D01*
X169610943Y-107430501D01*
X169677070Y-107386317D01*
X169744098Y-107341530D01*
X169892058Y-107280242D01*
X170049125Y-107249000D01*
X170209275Y-107249000D01*
X170366342Y-107280242D01*
X170366342Y-107280242D01*
G37*
G36*
X123629000Y-108480000D02*
X121227000Y-108480000D01*
X121227000Y-105878000D01*
X123629000Y-105878000D01*
X123629000Y-108480000D01*
X123629000Y-108480000D01*
G37*
G36*
X138632565Y-105161389D02*
X138823834Y-105240615D01*
X138995976Y-105355637D01*
X139142363Y-105502024D01*
X139257385Y-105674166D01*
X139336611Y-105865435D01*
X139377000Y-106068484D01*
X139377000Y-106275516D01*
X139336611Y-106478565D01*
X139257385Y-106669834D01*
X139142363Y-106841976D01*
X138995976Y-106988363D01*
X138823834Y-107103385D01*
X138632565Y-107182611D01*
X138429516Y-107223000D01*
X138222484Y-107223000D01*
X138019435Y-107182611D01*
X137828166Y-107103385D01*
X137656024Y-106988363D01*
X137509637Y-106841976D01*
X137394615Y-106669834D01*
X137315389Y-106478565D01*
X137275000Y-106275516D01*
X137275000Y-106068484D01*
X137315389Y-105865435D01*
X137394615Y-105674166D01*
X137509637Y-105502024D01*
X137656024Y-105355637D01*
X137828166Y-105240615D01*
X138019435Y-105161389D01*
X138222484Y-105121000D01*
X138429516Y-105121000D01*
X138632565Y-105161389D01*
X138632565Y-105161389D01*
G37*
G36*
X132877000Y-107223000D02*
X130775000Y-107223000D01*
X130775000Y-105121000D01*
X132877000Y-105121000D01*
X132877000Y-107223000D01*
X132877000Y-107223000D01*
G37*
G36*
X126628000Y-107065000D02*
X125626000Y-107065000D01*
X125626000Y-106163000D01*
X126628000Y-106163000D01*
X126628000Y-107065000D01*
X126628000Y-107065000D01*
G37*
G36*
X169959942Y-104740242D02*
X170107902Y-104801530D01*
X170174930Y-104846317D01*
X170241057Y-104890501D01*
X170354299Y-105003743D01*
X170398483Y-105069870D01*
X170443270Y-105136898D01*
X170504558Y-105284858D01*
X170535800Y-105441925D01*
X170535800Y-105602075D01*
X170504558Y-105759142D01*
X170460529Y-105865435D01*
X170443271Y-105907100D01*
X170354299Y-106040257D01*
X170241057Y-106153499D01*
X170174930Y-106197683D01*
X170107902Y-106242470D01*
X169959942Y-106303758D01*
X169802875Y-106335000D01*
X169642725Y-106335000D01*
X169485658Y-106303758D01*
X169337698Y-106242470D01*
X169270670Y-106197683D01*
X169204543Y-106153499D01*
X169091301Y-106040257D01*
X169002329Y-105907100D01*
X168985071Y-105865435D01*
X168941042Y-105759142D01*
X168909800Y-105602075D01*
X168909800Y-105441925D01*
X168941042Y-105284858D01*
X169002330Y-105136898D01*
X169047117Y-105069870D01*
X169091301Y-105003743D01*
X169204543Y-104890501D01*
X169270670Y-104846317D01*
X169337698Y-104801530D01*
X169485658Y-104740242D01*
X169642725Y-104709000D01*
X169802875Y-104709000D01*
X169959942Y-104740242D01*
X169959942Y-104740242D01*
G37*
G36*
X147099942Y-104740242D02*
X147247902Y-104801530D01*
X147314930Y-104846317D01*
X147381057Y-104890501D01*
X147494299Y-105003743D01*
X147538483Y-105069870D01*
X147583270Y-105136898D01*
X147644558Y-105284858D01*
X147675800Y-105441925D01*
X147675800Y-105602075D01*
X147644558Y-105759142D01*
X147600529Y-105865435D01*
X147583271Y-105907100D01*
X147494299Y-106040257D01*
X147381057Y-106153499D01*
X147314930Y-106197683D01*
X147247902Y-106242470D01*
X147099942Y-106303758D01*
X146942875Y-106335000D01*
X146782725Y-106335000D01*
X146625658Y-106303758D01*
X146477698Y-106242470D01*
X146410670Y-106197683D01*
X146344543Y-106153499D01*
X146231301Y-106040257D01*
X146142329Y-105907100D01*
X146125071Y-105865435D01*
X146081042Y-105759142D01*
X146049800Y-105602075D01*
X146049800Y-105441925D01*
X146081042Y-105284858D01*
X146142330Y-105136898D01*
X146187117Y-105069870D01*
X146231301Y-105003743D01*
X146344543Y-104890501D01*
X146410670Y-104846317D01*
X146477698Y-104801530D01*
X146625658Y-104740242D01*
X146782725Y-104709000D01*
X146942875Y-104709000D01*
X147099942Y-104740242D01*
X147099942Y-104740242D01*
G37*
G36*
X128628000Y-106115000D02*
X127626000Y-106115000D01*
X127626000Y-105213000D01*
X128628000Y-105213000D01*
X128628000Y-106115000D01*
X128628000Y-106115000D01*
G37*
G36*
X126628000Y-105165000D02*
X125626000Y-105165000D01*
X125626000Y-104263000D01*
X126628000Y-104263000D01*
X126628000Y-105165000D01*
X126628000Y-105165000D01*
G37*
G36*
X123629000Y-104180000D02*
X121227000Y-104180000D01*
X121227000Y-101578000D01*
X123629000Y-101578000D01*
X123629000Y-104180000D01*
X123629000Y-104180000D01*
G37*
G36*
X170183462Y-102200242D02*
X170331422Y-102261530D01*
X170398450Y-102306317D01*
X170464577Y-102350501D01*
X170577819Y-102463743D01*
X170622003Y-102529870D01*
X170666790Y-102596898D01*
X170728078Y-102744858D01*
X170759320Y-102901925D01*
X170759320Y-103062075D01*
X170728078Y-103219142D01*
X170666790Y-103367102D01*
X170577818Y-103500258D01*
X170464578Y-103613498D01*
X170331422Y-103702470D01*
X170183462Y-103763758D01*
X170026395Y-103795000D01*
X169866245Y-103795000D01*
X169709178Y-103763758D01*
X169561218Y-103702470D01*
X169428062Y-103613498D01*
X169314822Y-103500258D01*
X169225850Y-103367102D01*
X169164562Y-103219142D01*
X169133320Y-103062075D01*
X169133320Y-102901925D01*
X169164562Y-102744858D01*
X169225850Y-102596898D01*
X169270637Y-102529870D01*
X169314821Y-102463743D01*
X169428063Y-102350501D01*
X169494190Y-102306317D01*
X169561218Y-102261530D01*
X169709178Y-102200242D01*
X169866245Y-102169000D01*
X170026395Y-102169000D01*
X170183462Y-102200242D01*
X170183462Y-102200242D01*
G37*
G36*
X147506342Y-102200242D02*
X147654302Y-102261530D01*
X147721330Y-102306317D01*
X147787457Y-102350501D01*
X147900699Y-102463743D01*
X147944883Y-102529870D01*
X147989670Y-102596898D01*
X148050958Y-102744858D01*
X148082200Y-102901925D01*
X148082200Y-103062075D01*
X148050958Y-103219142D01*
X147989670Y-103367102D01*
X147900698Y-103500258D01*
X147787458Y-103613498D01*
X147654302Y-103702470D01*
X147506342Y-103763758D01*
X147349275Y-103795000D01*
X147189125Y-103795000D01*
X147032058Y-103763758D01*
X146884098Y-103702470D01*
X146750942Y-103613498D01*
X146637702Y-103500258D01*
X146548730Y-103367102D01*
X146487442Y-103219142D01*
X146456200Y-103062075D01*
X146456200Y-102901925D01*
X146487442Y-102744858D01*
X146548730Y-102596898D01*
X146593517Y-102529870D01*
X146637701Y-102463743D01*
X146750943Y-102350501D01*
X146817070Y-102306317D01*
X146884098Y-102261530D01*
X147032058Y-102200242D01*
X147189125Y-102169000D01*
X147349275Y-102169000D01*
X147506342Y-102200242D01*
X147506342Y-102200242D01*
G37*
G36*
X126445677Y-102003465D02*
X126483364Y-102014898D01*
X126518103Y-102033466D01*
X126548548Y-102058452D01*
X126573534Y-102088897D01*
X126592102Y-102123636D01*
X126603535Y-102161323D01*
X126608000Y-102206661D01*
X126608000Y-103043339D01*
X126603535Y-103088677D01*
X126592102Y-103126364D01*
X126573534Y-103161103D01*
X126548548Y-103191548D01*
X126518103Y-103216534D01*
X126483364Y-103235102D01*
X126445677Y-103246535D01*
X126400339Y-103251000D01*
X125313661Y-103251000D01*
X125268323Y-103246535D01*
X125230636Y-103235102D01*
X125195897Y-103216534D01*
X125165452Y-103191548D01*
X125140466Y-103161103D01*
X125121898Y-103126364D01*
X125110465Y-103088677D01*
X125106000Y-103043339D01*
X125106000Y-102206661D01*
X125110465Y-102161323D01*
X125121898Y-102123636D01*
X125140466Y-102088897D01*
X125165452Y-102058452D01*
X125195897Y-102033466D01*
X125230636Y-102014898D01*
X125268323Y-102003465D01*
X125313661Y-101999000D01*
X126400339Y-101999000D01*
X126445677Y-102003465D01*
X126445677Y-102003465D01*
G37*
G36*
X109002000Y-102927000D02*
X104900000Y-102927000D01*
X104900000Y-98825000D01*
X109002000Y-98825000D01*
X109002000Y-102927000D01*
X109002000Y-102927000D01*
G37*
G36*
X126445677Y-99953465D02*
X126483364Y-99964898D01*
X126518103Y-99983466D01*
X126548548Y-100008452D01*
X126573534Y-100038897D01*
X126592102Y-100073636D01*
X126603535Y-100111323D01*
X126608000Y-100156661D01*
X126608000Y-100993339D01*
X126603535Y-101038677D01*
X126592102Y-101076364D01*
X126573534Y-101111103D01*
X126548548Y-101141548D01*
X126518103Y-101166534D01*
X126483364Y-101185102D01*
X126445677Y-101196535D01*
X126400339Y-101201000D01*
X125313661Y-101201000D01*
X125268323Y-101196535D01*
X125230636Y-101185102D01*
X125195897Y-101166534D01*
X125165452Y-101141548D01*
X125140466Y-101111103D01*
X125121898Y-101076364D01*
X125110465Y-101038677D01*
X125106000Y-100993339D01*
X125106000Y-100156661D01*
X125110465Y-100111323D01*
X125121898Y-100073636D01*
X125140466Y-100038897D01*
X125165452Y-100008452D01*
X125195897Y-99983466D01*
X125230636Y-99964898D01*
X125268323Y-99953465D01*
X125313661Y-99949000D01*
X126400339Y-99949000D01*
X126445677Y-99953465D01*
X126445677Y-99953465D01*
G37*
G36*
X97955962Y-97959381D02*
X97990877Y-97969973D01*
X98023065Y-97987178D01*
X98051273Y-98010327D01*
X98074422Y-98038535D01*
X98091627Y-98070723D01*
X98102219Y-98105638D01*
X98106400Y-98148095D01*
X98106400Y-99289305D01*
X98102219Y-99331762D01*
X98091627Y-99366677D01*
X98074422Y-99398865D01*
X98051273Y-99427073D01*
X98023065Y-99450222D01*
X97990877Y-99467427D01*
X97955962Y-99478019D01*
X97913505Y-99482200D01*
X96447295Y-99482200D01*
X96404838Y-99478019D01*
X96369923Y-99467427D01*
X96337735Y-99450222D01*
X96309527Y-99427073D01*
X96286378Y-99398865D01*
X96269173Y-99366677D01*
X96258581Y-99331762D01*
X96254400Y-99289305D01*
X96254400Y-98148095D01*
X96258581Y-98105638D01*
X96269173Y-98070723D01*
X96286378Y-98038535D01*
X96309527Y-98010327D01*
X96337735Y-97987178D01*
X96369923Y-97969973D01*
X96404838Y-97959381D01*
X96447295Y-97955200D01*
X97913505Y-97955200D01*
X97955962Y-97959381D01*
X97955962Y-97959381D01*
G37*
G36*
X122457877Y-97482265D02*
X122495564Y-97493698D01*
X122530303Y-97512266D01*
X122560748Y-97537252D01*
X122585734Y-97567697D01*
X122604302Y-97602436D01*
X122615735Y-97640123D01*
X122620200Y-97685461D01*
X122620200Y-98522139D01*
X122615735Y-98567477D01*
X122604302Y-98605164D01*
X122585734Y-98639903D01*
X122560748Y-98670348D01*
X122530303Y-98695334D01*
X122495564Y-98713902D01*
X122457877Y-98725335D01*
X122412539Y-98729800D01*
X121325861Y-98729800D01*
X121280523Y-98725335D01*
X121242836Y-98713902D01*
X121208097Y-98695334D01*
X121177652Y-98670348D01*
X121152666Y-98639903D01*
X121134098Y-98605164D01*
X121122665Y-98567477D01*
X121118200Y-98522139D01*
X121118200Y-97685461D01*
X121122665Y-97640123D01*
X121134098Y-97602436D01*
X121152666Y-97567697D01*
X121177652Y-97537252D01*
X121208097Y-97512266D01*
X121242836Y-97493698D01*
X121280523Y-97482265D01*
X121325861Y-97477800D01*
X122412539Y-97477800D01*
X122457877Y-97482265D01*
X122457877Y-97482265D01*
G37*
G36*
X128039800Y-97521800D02*
X124537800Y-97521800D01*
X124537800Y-95619800D01*
X128039800Y-95619800D01*
X128039800Y-97521800D01*
X128039800Y-97521800D01*
G37*
G36*
X139285400Y-97191400D02*
X137683400Y-97191400D01*
X137683400Y-92089400D01*
X139285400Y-92089400D01*
X139285400Y-97191400D01*
X139285400Y-97191400D01*
G37*
G36*
X133385400Y-97191400D02*
X131783400Y-97191400D01*
X131783400Y-92089400D01*
X133385400Y-92089400D01*
X133385400Y-97191400D01*
X133385400Y-97191400D01*
G37*
G36*
X122457877Y-95432265D02*
X122495564Y-95443698D01*
X122530303Y-95462266D01*
X122560748Y-95487252D01*
X122585734Y-95517697D01*
X122604302Y-95552436D01*
X122615735Y-95590123D01*
X122620200Y-95635461D01*
X122620200Y-96472139D01*
X122615735Y-96517477D01*
X122604302Y-96555164D01*
X122585734Y-96589903D01*
X122560748Y-96620348D01*
X122530303Y-96645334D01*
X122495564Y-96663902D01*
X122457877Y-96675335D01*
X122412539Y-96679800D01*
X121325861Y-96679800D01*
X121280523Y-96675335D01*
X121242836Y-96663902D01*
X121208097Y-96645334D01*
X121177652Y-96620348D01*
X121152666Y-96589903D01*
X121134098Y-96555164D01*
X121122665Y-96517477D01*
X121118200Y-96472139D01*
X121118200Y-95635461D01*
X121122665Y-95590123D01*
X121134098Y-95552436D01*
X121152666Y-95517697D01*
X121177652Y-95487252D01*
X121208097Y-95462266D01*
X121242836Y-95443698D01*
X121280523Y-95432265D01*
X121325861Y-95427800D01*
X122412539Y-95427800D01*
X122457877Y-95432265D01*
X122457877Y-95432265D01*
G37*
G36*
X97955962Y-94984381D02*
X97990877Y-94994973D01*
X98023065Y-95012178D01*
X98051273Y-95035327D01*
X98074422Y-95063535D01*
X98091627Y-95095723D01*
X98102219Y-95130638D01*
X98106400Y-95173095D01*
X98106400Y-96314305D01*
X98102219Y-96356762D01*
X98091627Y-96391677D01*
X98074422Y-96423865D01*
X98051273Y-96452073D01*
X98023065Y-96475222D01*
X97990877Y-96492427D01*
X97955962Y-96503019D01*
X97913505Y-96507200D01*
X96447295Y-96507200D01*
X96404838Y-96503019D01*
X96369923Y-96492427D01*
X96337735Y-96475222D01*
X96309527Y-96452073D01*
X96286378Y-96423865D01*
X96269173Y-96391677D01*
X96258581Y-96356762D01*
X96254400Y-96314305D01*
X96254400Y-95173095D01*
X96258581Y-95130638D01*
X96269173Y-95095723D01*
X96286378Y-95063535D01*
X96309527Y-95035327D01*
X96337735Y-95012178D01*
X96369923Y-94994973D01*
X96404838Y-94984381D01*
X96447295Y-94980200D01*
X97913505Y-94980200D01*
X97955962Y-94984381D01*
X97955962Y-94984381D01*
G37*
G36*
X140916677Y-93741465D02*
X140954364Y-93752898D01*
X140989103Y-93771466D01*
X141019548Y-93796452D01*
X141044534Y-93826897D01*
X141063102Y-93861636D01*
X141074535Y-93899323D01*
X141079000Y-93944661D01*
X141079000Y-95031339D01*
X141074535Y-95076677D01*
X141063102Y-95114364D01*
X141044534Y-95149103D01*
X141019548Y-95179548D01*
X140989103Y-95204534D01*
X140954364Y-95223102D01*
X140916677Y-95234535D01*
X140871339Y-95239000D01*
X140034661Y-95239000D01*
X139989323Y-95234535D01*
X139951636Y-95223102D01*
X139916897Y-95204534D01*
X139886452Y-95179548D01*
X139861466Y-95149103D01*
X139842898Y-95114364D01*
X139831465Y-95076677D01*
X139827000Y-95031339D01*
X139827000Y-93944661D01*
X139831465Y-93899323D01*
X139842898Y-93861636D01*
X139861466Y-93826897D01*
X139886452Y-93796452D01*
X139916897Y-93771466D01*
X139951636Y-93752898D01*
X139989323Y-93741465D01*
X140034661Y-93737000D01*
X140871339Y-93737000D01*
X140916677Y-93741465D01*
X140916677Y-93741465D01*
G37*
G36*
X142966677Y-93741465D02*
X143004364Y-93752898D01*
X143039103Y-93771466D01*
X143069548Y-93796452D01*
X143094534Y-93826897D01*
X143113102Y-93861636D01*
X143124535Y-93899323D01*
X143129000Y-93944661D01*
X143129000Y-95031339D01*
X143124535Y-95076677D01*
X143113102Y-95114364D01*
X143094534Y-95149103D01*
X143069548Y-95179548D01*
X143039103Y-95204534D01*
X143004364Y-95223102D01*
X142966677Y-95234535D01*
X142921339Y-95239000D01*
X142084661Y-95239000D01*
X142039323Y-95234535D01*
X142001636Y-95223102D01*
X141966897Y-95204534D01*
X141936452Y-95179548D01*
X141911466Y-95149103D01*
X141892898Y-95114364D01*
X141881465Y-95076677D01*
X141877000Y-95031339D01*
X141877000Y-93944661D01*
X141881465Y-93899323D01*
X141892898Y-93861636D01*
X141911466Y-93826897D01*
X141936452Y-93796452D01*
X141966897Y-93771466D01*
X142001636Y-93752898D01*
X142039323Y-93741465D01*
X142084661Y-93737000D01*
X142921339Y-93737000D01*
X142966677Y-93741465D01*
X142966677Y-93741465D01*
G37*
G36*
X122457877Y-93621465D02*
X122495564Y-93632898D01*
X122530303Y-93651466D01*
X122560748Y-93676452D01*
X122585734Y-93706897D01*
X122604302Y-93741636D01*
X122615735Y-93779323D01*
X122620200Y-93824661D01*
X122620200Y-94661339D01*
X122615735Y-94706677D01*
X122604302Y-94744364D01*
X122585734Y-94779103D01*
X122560748Y-94809548D01*
X122530303Y-94834534D01*
X122495564Y-94853102D01*
X122457877Y-94864535D01*
X122412539Y-94869000D01*
X121325861Y-94869000D01*
X121280523Y-94864535D01*
X121242836Y-94853102D01*
X121208097Y-94834534D01*
X121177652Y-94809548D01*
X121152666Y-94779103D01*
X121134098Y-94744364D01*
X121122665Y-94706677D01*
X121118200Y-94661339D01*
X121118200Y-93824661D01*
X121122665Y-93779323D01*
X121134098Y-93741636D01*
X121152666Y-93706897D01*
X121177652Y-93676452D01*
X121208097Y-93651466D01*
X121242836Y-93632898D01*
X121280523Y-93621465D01*
X121325861Y-93617000D01*
X122412539Y-93617000D01*
X122457877Y-93621465D01*
X122457877Y-93621465D01*
G37*
G36*
X128039800Y-94524600D02*
X124537800Y-94524600D01*
X124537800Y-92622600D01*
X128039800Y-92622600D01*
X128039800Y-94524600D01*
X128039800Y-94524600D01*
G37*
G36*
X97718277Y-92808665D02*
X97755964Y-92820098D01*
X97790703Y-92838666D01*
X97821148Y-92863652D01*
X97846134Y-92894097D01*
X97864702Y-92928836D01*
X97876135Y-92966523D01*
X97880600Y-93011861D01*
X97880600Y-93848539D01*
X97876135Y-93893877D01*
X97864702Y-93931564D01*
X97846134Y-93966303D01*
X97821148Y-93996748D01*
X97790703Y-94021734D01*
X97755964Y-94040302D01*
X97718277Y-94051735D01*
X97672939Y-94056200D01*
X96586261Y-94056200D01*
X96540923Y-94051735D01*
X96503236Y-94040302D01*
X96468497Y-94021734D01*
X96438052Y-93996748D01*
X96413066Y-93966303D01*
X96394498Y-93931564D01*
X96383065Y-93893877D01*
X96378600Y-93848539D01*
X96378600Y-93011861D01*
X96383065Y-92966523D01*
X96394498Y-92928836D01*
X96413066Y-92894097D01*
X96438052Y-92863652D01*
X96468497Y-92838666D01*
X96503236Y-92820098D01*
X96540923Y-92808665D01*
X96586261Y-92804200D01*
X97672939Y-92804200D01*
X97718277Y-92808665D01*
X97718277Y-92808665D01*
G37*
G36*
X142966677Y-91760265D02*
X143004364Y-91771698D01*
X143039103Y-91790266D01*
X143069548Y-91815252D01*
X143094534Y-91845697D01*
X143113102Y-91880436D01*
X143124535Y-91918123D01*
X143129000Y-91963461D01*
X143129000Y-93050139D01*
X143124535Y-93095477D01*
X143113102Y-93133164D01*
X143094534Y-93167903D01*
X143069548Y-93198348D01*
X143039103Y-93223334D01*
X143004364Y-93241902D01*
X142966677Y-93253335D01*
X142921339Y-93257800D01*
X142084661Y-93257800D01*
X142039323Y-93253335D01*
X142001636Y-93241902D01*
X141966897Y-93223334D01*
X141936452Y-93198348D01*
X141911466Y-93167903D01*
X141892898Y-93133164D01*
X141881465Y-93095477D01*
X141877000Y-93050139D01*
X141877000Y-91963461D01*
X141881465Y-91918123D01*
X141892898Y-91880436D01*
X141911466Y-91845697D01*
X141936452Y-91815252D01*
X141966897Y-91790266D01*
X142001636Y-91771698D01*
X142039323Y-91760265D01*
X142084661Y-91755800D01*
X142921339Y-91755800D01*
X142966677Y-91760265D01*
X142966677Y-91760265D01*
G37*
G36*
X140916677Y-91760265D02*
X140954364Y-91771698D01*
X140989103Y-91790266D01*
X141019548Y-91815252D01*
X141044534Y-91845697D01*
X141063102Y-91880436D01*
X141074535Y-91918123D01*
X141079000Y-91963461D01*
X141079000Y-93050139D01*
X141074535Y-93095477D01*
X141063102Y-93133164D01*
X141044534Y-93167903D01*
X141019548Y-93198348D01*
X140989103Y-93223334D01*
X140954364Y-93241902D01*
X140916677Y-93253335D01*
X140871339Y-93257800D01*
X140034661Y-93257800D01*
X139989323Y-93253335D01*
X139951636Y-93241902D01*
X139916897Y-93223334D01*
X139886452Y-93198348D01*
X139861466Y-93167903D01*
X139842898Y-93133164D01*
X139831465Y-93095477D01*
X139827000Y-93050139D01*
X139827000Y-91963461D01*
X139831465Y-91918123D01*
X139842898Y-91880436D01*
X139861466Y-91845697D01*
X139886452Y-91815252D01*
X139916897Y-91790266D01*
X139951636Y-91771698D01*
X139989323Y-91760265D01*
X140034661Y-91755800D01*
X140871339Y-91755800D01*
X140916677Y-91760265D01*
X140916677Y-91760265D01*
G37*
G36*
X122457877Y-91571465D02*
X122495564Y-91582898D01*
X122530303Y-91601466D01*
X122560748Y-91626452D01*
X122585734Y-91656897D01*
X122604302Y-91691636D01*
X122615735Y-91729323D01*
X122620200Y-91774661D01*
X122620200Y-92611339D01*
X122615735Y-92656677D01*
X122604302Y-92694364D01*
X122585734Y-92729103D01*
X122560748Y-92759548D01*
X122530303Y-92784534D01*
X122495564Y-92803102D01*
X122457877Y-92814535D01*
X122412539Y-92819000D01*
X121325861Y-92819000D01*
X121280523Y-92814535D01*
X121242836Y-92803102D01*
X121208097Y-92784534D01*
X121177652Y-92759548D01*
X121152666Y-92729103D01*
X121134098Y-92694364D01*
X121122665Y-92656677D01*
X121118200Y-92611339D01*
X121118200Y-91774661D01*
X121122665Y-91729323D01*
X121134098Y-91691636D01*
X121152666Y-91656897D01*
X121177652Y-91626452D01*
X121208097Y-91601466D01*
X121242836Y-91582898D01*
X121280523Y-91571465D01*
X121325861Y-91567000D01*
X122412539Y-91567000D01*
X122457877Y-91571465D01*
X122457877Y-91571465D01*
G37*
G36*
X97718277Y-90758665D02*
X97755964Y-90770098D01*
X97790703Y-90788666D01*
X97821148Y-90813652D01*
X97846134Y-90844097D01*
X97864702Y-90878836D01*
X97876135Y-90916523D01*
X97880600Y-90961861D01*
X97880600Y-91798539D01*
X97876135Y-91843877D01*
X97864702Y-91881564D01*
X97846134Y-91916303D01*
X97821148Y-91946748D01*
X97790703Y-91971734D01*
X97755964Y-91990302D01*
X97718277Y-92001735D01*
X97672939Y-92006200D01*
X96586261Y-92006200D01*
X96540923Y-92001735D01*
X96503236Y-91990302D01*
X96468497Y-91971734D01*
X96438052Y-91946748D01*
X96413066Y-91916303D01*
X96394498Y-91881564D01*
X96383065Y-91843877D01*
X96378600Y-91798539D01*
X96378600Y-90961861D01*
X96383065Y-90916523D01*
X96394498Y-90878836D01*
X96413066Y-90844097D01*
X96438052Y-90813652D01*
X96468497Y-90788666D01*
X96503236Y-90770098D01*
X96540923Y-90758665D01*
X96586261Y-90754200D01*
X97672939Y-90754200D01*
X97718277Y-90758665D01*
X97718277Y-90758665D01*
G37*
G36*
X136915000Y-88726200D02*
X135913000Y-88726200D01*
X135913000Y-87824200D01*
X136915000Y-87824200D01*
X136915000Y-88726200D01*
X136915000Y-88726200D01*
G37*
G36*
X138915000Y-87776200D02*
X137913000Y-87776200D01*
X137913000Y-86874200D01*
X138915000Y-86874200D01*
X138915000Y-87776200D01*
X138915000Y-87776200D01*
G37*
G36*
X141812677Y-86509465D02*
X141850364Y-86520898D01*
X141885103Y-86539466D01*
X141915548Y-86564452D01*
X141940534Y-86594897D01*
X141959102Y-86629636D01*
X141970535Y-86667323D01*
X141975000Y-86712661D01*
X141975000Y-87549339D01*
X141970535Y-87594677D01*
X141959102Y-87632364D01*
X141940534Y-87667103D01*
X141915548Y-87697548D01*
X141885103Y-87722534D01*
X141850364Y-87741102D01*
X141812677Y-87752535D01*
X141767339Y-87757000D01*
X140680661Y-87757000D01*
X140635323Y-87752535D01*
X140597636Y-87741102D01*
X140562897Y-87722534D01*
X140532452Y-87697548D01*
X140507466Y-87667103D01*
X140488898Y-87632364D01*
X140477465Y-87594677D01*
X140473000Y-87549339D01*
X140473000Y-86712661D01*
X140477465Y-86667323D01*
X140488898Y-86629636D01*
X140507466Y-86594897D01*
X140532452Y-86564452D01*
X140562897Y-86539466D01*
X140597636Y-86520898D01*
X140635323Y-86509465D01*
X140680661Y-86505000D01*
X141767339Y-86505000D01*
X141812677Y-86509465D01*
X141812677Y-86509465D01*
G37*
G36*
X132737877Y-85613465D02*
X132775564Y-85624898D01*
X132810303Y-85643466D01*
X132840748Y-85668452D01*
X132865734Y-85698897D01*
X132884302Y-85733636D01*
X132895735Y-85771323D01*
X132900200Y-85816661D01*
X132900200Y-86903339D01*
X132895735Y-86948677D01*
X132884302Y-86986364D01*
X132865734Y-87021103D01*
X132840748Y-87051548D01*
X132810303Y-87076534D01*
X132775564Y-87095102D01*
X132737877Y-87106535D01*
X132692539Y-87111000D01*
X131855861Y-87111000D01*
X131810523Y-87106535D01*
X131772836Y-87095102D01*
X131738097Y-87076534D01*
X131707652Y-87051548D01*
X131682666Y-87021103D01*
X131664098Y-86986364D01*
X131652665Y-86948677D01*
X131648200Y-86903339D01*
X131648200Y-85816661D01*
X131652665Y-85771323D01*
X131664098Y-85733636D01*
X131682666Y-85698897D01*
X131707652Y-85668452D01*
X131738097Y-85643466D01*
X131772836Y-85624898D01*
X131810523Y-85613465D01*
X131855861Y-85609000D01*
X132692539Y-85609000D01*
X132737877Y-85613465D01*
X132737877Y-85613465D01*
G37*
G36*
X134787877Y-85613465D02*
X134825564Y-85624898D01*
X134860303Y-85643466D01*
X134890748Y-85668452D01*
X134915734Y-85698897D01*
X134934302Y-85733636D01*
X134945735Y-85771323D01*
X134950200Y-85816661D01*
X134950200Y-86903339D01*
X134945735Y-86948677D01*
X134934302Y-86986364D01*
X134915734Y-87021103D01*
X134890748Y-87051548D01*
X134860303Y-87076534D01*
X134825564Y-87095102D01*
X134787877Y-87106535D01*
X134742539Y-87111000D01*
X133905861Y-87111000D01*
X133860523Y-87106535D01*
X133822836Y-87095102D01*
X133788097Y-87076534D01*
X133757652Y-87051548D01*
X133732666Y-87021103D01*
X133714098Y-86986364D01*
X133702665Y-86948677D01*
X133698200Y-86903339D01*
X133698200Y-85816661D01*
X133702665Y-85771323D01*
X133714098Y-85733636D01*
X133732666Y-85698897D01*
X133757652Y-85668452D01*
X133788097Y-85643466D01*
X133822836Y-85624898D01*
X133860523Y-85613465D01*
X133905861Y-85609000D01*
X134742539Y-85609000D01*
X134787877Y-85613465D01*
X134787877Y-85613465D01*
G37*
G36*
X136915000Y-86826200D02*
X135913000Y-86826200D01*
X135913000Y-85924200D01*
X136915000Y-85924200D01*
X136915000Y-86826200D01*
X136915000Y-86826200D01*
G37*
G36*
X141812677Y-84459465D02*
X141850364Y-84470898D01*
X141885103Y-84489466D01*
X141915548Y-84514452D01*
X141940534Y-84544897D01*
X141959102Y-84579636D01*
X141970535Y-84617323D01*
X141975000Y-84662661D01*
X141975000Y-85499339D01*
X141970535Y-85544677D01*
X141959102Y-85582364D01*
X141940534Y-85617103D01*
X141915548Y-85647548D01*
X141885103Y-85672534D01*
X141850364Y-85691102D01*
X141812677Y-85702535D01*
X141767339Y-85707000D01*
X140680661Y-85707000D01*
X140635323Y-85702535D01*
X140597636Y-85691102D01*
X140562897Y-85672534D01*
X140532452Y-85647548D01*
X140507466Y-85617103D01*
X140488898Y-85582364D01*
X140477465Y-85544677D01*
X140473000Y-85499339D01*
X140473000Y-84662661D01*
X140477465Y-84617323D01*
X140488898Y-84579636D01*
X140507466Y-84544897D01*
X140532452Y-84514452D01*
X140562897Y-84489466D01*
X140597636Y-84470898D01*
X140635323Y-84459465D01*
X140680661Y-84455000D01*
X141767339Y-84455000D01*
X141812677Y-84459465D01*
X141812677Y-84459465D01*
G37*
G36*
X137016600Y-84509800D02*
X136014600Y-84509800D01*
X136014600Y-83607800D01*
X137016600Y-83607800D01*
X137016600Y-84509800D01*
X137016600Y-84509800D01*
G37*
G36*
X118689698Y-80206954D02*
X118701950Y-80207556D01*
X118720369Y-80207556D01*
X118742649Y-80209750D01*
X118826736Y-80226476D01*
X118848155Y-80232974D01*
X118927371Y-80265785D01*
X118947107Y-80276335D01*
X119018397Y-80323969D01*
X119035708Y-80338176D01*
X119096324Y-80398792D01*
X119110531Y-80416103D01*
X119158165Y-80487393D01*
X119168715Y-80507129D01*
X119201526Y-80586345D01*
X119208024Y-80607764D01*
X119224750Y-80691851D01*
X119226944Y-80714131D01*
X119226944Y-80732550D01*
X119227546Y-80744802D01*
X119229352Y-80763140D01*
X119229352Y-81250860D01*
X119227763Y-81266999D01*
X119224847Y-81276611D01*
X119220112Y-81285469D01*
X119213737Y-81293237D01*
X119201298Y-81303446D01*
X119190932Y-81310372D01*
X119173605Y-81327698D01*
X119159990Y-81348073D01*
X119150612Y-81370711D01*
X119145831Y-81394745D01*
X119145831Y-81419249D01*
X119150611Y-81443283D01*
X119159987Y-81465922D01*
X119173601Y-81486297D01*
X119190927Y-81503624D01*
X119201296Y-81510552D01*
X119213737Y-81520763D01*
X119220112Y-81528531D01*
X119224847Y-81537389D01*
X119227763Y-81547001D01*
X119229352Y-81563140D01*
X119229352Y-82050861D01*
X119227546Y-82069198D01*
X119226944Y-82081450D01*
X119226944Y-82099869D01*
X119224750Y-82122149D01*
X119208024Y-82206236D01*
X119201526Y-82227655D01*
X119168715Y-82306871D01*
X119158165Y-82326607D01*
X119110531Y-82397897D01*
X119096324Y-82415208D01*
X119035708Y-82475824D01*
X119018397Y-82490031D01*
X118947107Y-82537665D01*
X118927371Y-82548215D01*
X118848155Y-82581026D01*
X118826736Y-82587524D01*
X118742649Y-82604250D01*
X118720369Y-82606444D01*
X118701950Y-82606444D01*
X118689698Y-82607046D01*
X118671361Y-82608852D01*
X118183639Y-82608852D01*
X118165302Y-82607046D01*
X118153050Y-82606444D01*
X118134631Y-82606444D01*
X118112351Y-82604250D01*
X118028264Y-82587524D01*
X118006845Y-82581026D01*
X117927629Y-82548215D01*
X117907893Y-82537665D01*
X117836603Y-82490031D01*
X117819292Y-82475824D01*
X117758678Y-82415210D01*
X117755826Y-82411735D01*
X117738498Y-82394408D01*
X117718124Y-82380794D01*
X117695485Y-82371417D01*
X117671451Y-82366637D01*
X117646947Y-82366637D01*
X117622913Y-82371418D01*
X117600274Y-82380795D01*
X117579900Y-82394409D01*
X117562573Y-82411737D01*
X117548959Y-82432111D01*
X117539582Y-82454750D01*
X117534200Y-82491035D01*
X117534200Y-84110600D01*
X113932200Y-84110600D01*
X113932200Y-82208600D01*
X117503056Y-82208600D01*
X117527442Y-82206198D01*
X117550891Y-82199085D01*
X117572502Y-82187534D01*
X117591444Y-82171988D01*
X117606990Y-82153046D01*
X117618541Y-82131435D01*
X117625654Y-82107986D01*
X117628056Y-82083600D01*
X117628056Y-82081450D01*
X117627454Y-82069198D01*
X117625648Y-82050861D01*
X117625648Y-81563140D01*
X117627237Y-81547001D01*
X117630153Y-81537389D01*
X117634888Y-81528531D01*
X117641263Y-81520763D01*
X117653702Y-81510554D01*
X117664068Y-81503628D01*
X117681395Y-81486302D01*
X117695010Y-81465927D01*
X117704388Y-81443289D01*
X117709169Y-81419255D01*
X117709169Y-81394751D01*
X117704389Y-81370717D01*
X117695013Y-81348078D01*
X117681399Y-81327703D01*
X117664073Y-81310376D01*
X117653704Y-81303448D01*
X117641263Y-81293237D01*
X117634888Y-81285469D01*
X117630153Y-81276611D01*
X117627237Y-81266999D01*
X117625648Y-81250860D01*
X117625648Y-80763140D01*
X117627454Y-80744802D01*
X117628056Y-80732550D01*
X117628056Y-80714131D01*
X117630250Y-80691851D01*
X117646976Y-80607764D01*
X117653474Y-80586345D01*
X117686285Y-80507129D01*
X117696835Y-80487393D01*
X117744469Y-80416103D01*
X117758676Y-80398792D01*
X117819292Y-80338176D01*
X117836603Y-80323969D01*
X117907893Y-80276335D01*
X117927629Y-80265785D01*
X118006845Y-80232974D01*
X118028264Y-80226476D01*
X118112351Y-80209750D01*
X118134631Y-80207556D01*
X118153050Y-80207556D01*
X118165302Y-80206954D01*
X118183640Y-80205148D01*
X118671360Y-80205148D01*
X118689698Y-80206954D01*
X118689698Y-80206954D01*
G37*
G36*
X112534200Y-84110600D02*
X108932200Y-84110600D01*
X108932200Y-82208600D01*
X112534200Y-82208600D01*
X112534200Y-84110600D01*
X112534200Y-84110600D01*
G37*
G36*
X141812677Y-82648665D02*
X141850364Y-82660098D01*
X141885103Y-82678666D01*
X141915548Y-82703652D01*
X141940534Y-82734097D01*
X141959102Y-82768836D01*
X141970535Y-82806523D01*
X141975000Y-82851861D01*
X141975000Y-83688539D01*
X141970535Y-83733877D01*
X141959102Y-83771564D01*
X141940534Y-83806303D01*
X141915548Y-83836748D01*
X141885103Y-83861734D01*
X141850364Y-83880302D01*
X141812677Y-83891735D01*
X141767339Y-83896200D01*
X140680661Y-83896200D01*
X140635323Y-83891735D01*
X140597636Y-83880302D01*
X140562897Y-83861734D01*
X140532452Y-83836748D01*
X140507466Y-83806303D01*
X140488898Y-83771564D01*
X140477465Y-83733877D01*
X140473000Y-83688539D01*
X140473000Y-82851861D01*
X140477465Y-82806523D01*
X140488898Y-82768836D01*
X140507466Y-82734097D01*
X140532452Y-82703652D01*
X140562897Y-82678666D01*
X140597636Y-82660098D01*
X140635323Y-82648665D01*
X140680661Y-82644200D01*
X141767339Y-82644200D01*
X141812677Y-82648665D01*
X141812677Y-82648665D01*
G37*
G36*
X139016600Y-83559800D02*
X138014600Y-83559800D01*
X138014600Y-82657800D01*
X139016600Y-82657800D01*
X139016600Y-83559800D01*
X139016600Y-83559800D01*
G37*
G36*
X134787877Y-81397065D02*
X134825564Y-81408498D01*
X134860303Y-81427066D01*
X134890748Y-81452052D01*
X134915734Y-81482497D01*
X134934302Y-81517236D01*
X134945735Y-81554923D01*
X134950200Y-81600261D01*
X134950200Y-82686939D01*
X134945735Y-82732277D01*
X134934302Y-82769964D01*
X134915734Y-82804703D01*
X134890748Y-82835148D01*
X134860303Y-82860134D01*
X134825564Y-82878702D01*
X134787877Y-82890135D01*
X134742539Y-82894600D01*
X133905861Y-82894600D01*
X133860523Y-82890135D01*
X133822836Y-82878702D01*
X133788097Y-82860134D01*
X133757652Y-82835148D01*
X133732666Y-82804703D01*
X133714098Y-82769964D01*
X133702665Y-82732277D01*
X133698200Y-82686939D01*
X133698200Y-81600261D01*
X133702665Y-81554923D01*
X133714098Y-81517236D01*
X133732666Y-81482497D01*
X133757652Y-81452052D01*
X133788097Y-81427066D01*
X133822836Y-81408498D01*
X133860523Y-81397065D01*
X133905861Y-81392600D01*
X134742539Y-81392600D01*
X134787877Y-81397065D01*
X134787877Y-81397065D01*
G37*
G36*
X132737877Y-81397065D02*
X132775564Y-81408498D01*
X132810303Y-81427066D01*
X132840748Y-81452052D01*
X132865734Y-81482497D01*
X132884302Y-81517236D01*
X132895735Y-81554923D01*
X132900200Y-81600261D01*
X132900200Y-82686939D01*
X132895735Y-82732277D01*
X132884302Y-82769964D01*
X132865734Y-82804703D01*
X132840748Y-82835148D01*
X132810303Y-82860134D01*
X132775564Y-82878702D01*
X132737877Y-82890135D01*
X132692539Y-82894600D01*
X131855861Y-82894600D01*
X131810523Y-82890135D01*
X131772836Y-82878702D01*
X131738097Y-82860134D01*
X131707652Y-82835148D01*
X131682666Y-82804703D01*
X131664098Y-82769964D01*
X131652665Y-82732277D01*
X131648200Y-82686939D01*
X131648200Y-81600261D01*
X131652665Y-81554923D01*
X131664098Y-81517236D01*
X131682666Y-81482497D01*
X131707652Y-81452052D01*
X131738097Y-81427066D01*
X131772836Y-81408498D01*
X131810523Y-81397065D01*
X131855861Y-81392600D01*
X132692539Y-81392600D01*
X132737877Y-81397065D01*
X132737877Y-81397065D01*
G37*
G36*
X137016600Y-82609800D02*
X136014600Y-82609800D01*
X136014600Y-81707800D01*
X137016600Y-81707800D01*
X137016600Y-82609800D01*
X137016600Y-82609800D01*
G37*
G36*
X128786198Y-80206954D02*
X128798450Y-80207556D01*
X128816869Y-80207556D01*
X128839149Y-80209750D01*
X128923236Y-80226476D01*
X128944655Y-80232974D01*
X129023871Y-80265785D01*
X129043607Y-80276335D01*
X129114897Y-80323969D01*
X129132208Y-80338176D01*
X129192824Y-80398792D01*
X129207031Y-80416103D01*
X129254665Y-80487393D01*
X129265215Y-80507129D01*
X129298026Y-80586345D01*
X129304524Y-80607764D01*
X129321250Y-80691851D01*
X129323444Y-80714131D01*
X129323444Y-80732550D01*
X129324046Y-80744802D01*
X129325852Y-80763140D01*
X129325852Y-81250860D01*
X129324263Y-81266999D01*
X129321347Y-81276611D01*
X129316612Y-81285469D01*
X129310237Y-81293237D01*
X129297798Y-81303446D01*
X129287432Y-81310372D01*
X129270105Y-81327698D01*
X129256490Y-81348073D01*
X129247112Y-81370711D01*
X129242331Y-81394745D01*
X129242331Y-81419249D01*
X129247111Y-81443283D01*
X129256487Y-81465922D01*
X129270101Y-81486297D01*
X129287427Y-81503624D01*
X129297796Y-81510552D01*
X129310237Y-81520763D01*
X129316612Y-81528531D01*
X129321347Y-81537389D01*
X129324263Y-81547001D01*
X129325852Y-81563140D01*
X129325852Y-82050861D01*
X129324046Y-82069198D01*
X129323444Y-82081450D01*
X129323444Y-82099869D01*
X129321250Y-82122149D01*
X129304524Y-82206236D01*
X129298026Y-82227655D01*
X129265215Y-82306871D01*
X129254665Y-82326607D01*
X129207031Y-82397897D01*
X129192824Y-82415208D01*
X129132208Y-82475824D01*
X129114897Y-82490031D01*
X129043607Y-82537665D01*
X129023871Y-82548215D01*
X128944655Y-82581026D01*
X128923236Y-82587524D01*
X128839149Y-82604250D01*
X128816869Y-82606444D01*
X128798450Y-82606444D01*
X128786198Y-82607046D01*
X128767861Y-82608852D01*
X128280139Y-82608852D01*
X128261802Y-82607046D01*
X128249550Y-82606444D01*
X128231131Y-82606444D01*
X128208851Y-82604250D01*
X128124764Y-82587524D01*
X128103345Y-82581026D01*
X128024129Y-82548215D01*
X128004393Y-82537665D01*
X127933103Y-82490031D01*
X127915792Y-82475824D01*
X127855176Y-82415208D01*
X127840969Y-82397897D01*
X127793335Y-82326607D01*
X127782785Y-82306871D01*
X127749974Y-82227655D01*
X127743476Y-82206236D01*
X127726750Y-82122149D01*
X127724556Y-82099869D01*
X127724556Y-82081450D01*
X127723954Y-82069198D01*
X127722148Y-82050861D01*
X127722148Y-81563140D01*
X127723737Y-81547001D01*
X127726653Y-81537389D01*
X127731388Y-81528531D01*
X127737763Y-81520763D01*
X127750202Y-81510554D01*
X127760568Y-81503628D01*
X127777895Y-81486302D01*
X127791510Y-81465927D01*
X127800888Y-81443289D01*
X127805669Y-81419255D01*
X127805669Y-81394751D01*
X127800889Y-81370717D01*
X127791513Y-81348078D01*
X127777899Y-81327703D01*
X127760573Y-81310376D01*
X127750204Y-81303448D01*
X127737763Y-81293237D01*
X127731388Y-81285469D01*
X127726653Y-81276611D01*
X127723737Y-81266999D01*
X127722148Y-81250860D01*
X127722148Y-80763140D01*
X127723954Y-80744802D01*
X127724556Y-80732550D01*
X127724556Y-80714131D01*
X127726750Y-80691851D01*
X127743476Y-80607764D01*
X127749974Y-80586345D01*
X127782785Y-80507129D01*
X127793335Y-80487393D01*
X127840969Y-80416103D01*
X127855176Y-80398792D01*
X127915792Y-80338176D01*
X127933103Y-80323969D01*
X128004393Y-80276335D01*
X128024129Y-80265785D01*
X128103345Y-80232974D01*
X128124764Y-80226476D01*
X128208851Y-80209750D01*
X128231131Y-80207556D01*
X128249550Y-80207556D01*
X128261802Y-80206954D01*
X128280140Y-80205148D01*
X128767860Y-80205148D01*
X128786198Y-80206954D01*
X128786198Y-80206954D01*
G37*
G36*
X121229698Y-80206954D02*
X121241950Y-80207556D01*
X121260369Y-80207556D01*
X121282649Y-80209750D01*
X121366736Y-80226476D01*
X121388155Y-80232974D01*
X121467371Y-80265785D01*
X121487107Y-80276335D01*
X121558397Y-80323969D01*
X121575708Y-80338176D01*
X121636324Y-80398792D01*
X121650531Y-80416103D01*
X121698165Y-80487393D01*
X121708715Y-80507129D01*
X121741526Y-80586345D01*
X121748024Y-80607764D01*
X121764750Y-80691851D01*
X121766944Y-80714131D01*
X121766944Y-80732550D01*
X121767546Y-80744802D01*
X121769352Y-80763140D01*
X121769352Y-81250860D01*
X121767763Y-81266999D01*
X121764847Y-81276611D01*
X121760112Y-81285469D01*
X121753737Y-81293237D01*
X121741298Y-81303446D01*
X121730932Y-81310372D01*
X121713605Y-81327698D01*
X121699990Y-81348073D01*
X121690612Y-81370711D01*
X121685831Y-81394745D01*
X121685831Y-81419249D01*
X121690611Y-81443283D01*
X121699987Y-81465922D01*
X121713601Y-81486297D01*
X121730927Y-81503624D01*
X121741296Y-81510552D01*
X121753737Y-81520763D01*
X121760112Y-81528531D01*
X121764847Y-81537389D01*
X121767763Y-81547001D01*
X121769352Y-81563140D01*
X121769352Y-82050861D01*
X121767546Y-82069198D01*
X121766944Y-82081450D01*
X121766944Y-82099869D01*
X121764750Y-82122149D01*
X121748024Y-82206236D01*
X121741526Y-82227655D01*
X121708715Y-82306871D01*
X121698165Y-82326607D01*
X121650531Y-82397897D01*
X121636324Y-82415208D01*
X121575708Y-82475824D01*
X121558397Y-82490031D01*
X121487107Y-82537665D01*
X121467371Y-82548215D01*
X121388155Y-82581026D01*
X121366736Y-82587524D01*
X121282649Y-82604250D01*
X121260369Y-82606444D01*
X121241950Y-82606444D01*
X121229698Y-82607046D01*
X121211361Y-82608852D01*
X120723639Y-82608852D01*
X120705302Y-82607046D01*
X120693050Y-82606444D01*
X120674631Y-82606444D01*
X120652351Y-82604250D01*
X120568264Y-82587524D01*
X120546845Y-82581026D01*
X120467629Y-82548215D01*
X120447893Y-82537665D01*
X120376603Y-82490031D01*
X120359292Y-82475824D01*
X120298676Y-82415208D01*
X120284469Y-82397897D01*
X120236835Y-82326607D01*
X120226285Y-82306871D01*
X120193474Y-82227655D01*
X120186976Y-82206236D01*
X120170250Y-82122149D01*
X120168056Y-82099869D01*
X120168056Y-82081450D01*
X120167454Y-82069198D01*
X120165648Y-82050861D01*
X120165648Y-81563140D01*
X120167237Y-81547001D01*
X120170153Y-81537389D01*
X120174888Y-81528531D01*
X120181263Y-81520763D01*
X120193702Y-81510554D01*
X120204068Y-81503628D01*
X120221395Y-81486302D01*
X120235010Y-81465927D01*
X120244388Y-81443289D01*
X120249169Y-81419255D01*
X120249169Y-81394751D01*
X120244389Y-81370717D01*
X120235013Y-81348078D01*
X120221399Y-81327703D01*
X120204073Y-81310376D01*
X120193704Y-81303448D01*
X120181263Y-81293237D01*
X120174888Y-81285469D01*
X120170153Y-81276611D01*
X120167237Y-81266999D01*
X120165648Y-81250860D01*
X120165648Y-80763140D01*
X120167454Y-80744802D01*
X120168056Y-80732550D01*
X120168056Y-80714131D01*
X120170250Y-80691851D01*
X120186976Y-80607764D01*
X120193474Y-80586345D01*
X120226285Y-80507129D01*
X120236835Y-80487393D01*
X120284469Y-80416103D01*
X120298676Y-80398792D01*
X120359292Y-80338176D01*
X120376603Y-80323969D01*
X120447893Y-80276335D01*
X120467629Y-80265785D01*
X120546845Y-80232974D01*
X120568264Y-80226476D01*
X120652351Y-80209750D01*
X120674631Y-80207556D01*
X120693050Y-80207556D01*
X120705302Y-80206954D01*
X120723640Y-80205148D01*
X121211360Y-80205148D01*
X121229698Y-80206954D01*
X121229698Y-80206954D01*
G37*
G36*
X123769698Y-80206954D02*
X123781950Y-80207556D01*
X123800369Y-80207556D01*
X123822649Y-80209750D01*
X123906736Y-80226476D01*
X123928155Y-80232974D01*
X124007371Y-80265785D01*
X124027107Y-80276335D01*
X124098397Y-80323969D01*
X124115708Y-80338176D01*
X124176324Y-80398792D01*
X124190531Y-80416103D01*
X124238165Y-80487393D01*
X124248715Y-80507129D01*
X124281526Y-80586345D01*
X124288024Y-80607764D01*
X124304750Y-80691851D01*
X124306944Y-80714131D01*
X124306944Y-80732550D01*
X124307546Y-80744802D01*
X124309352Y-80763140D01*
X124309352Y-81250860D01*
X124307763Y-81266999D01*
X124304847Y-81276611D01*
X124300112Y-81285469D01*
X124293737Y-81293237D01*
X124281298Y-81303446D01*
X124270932Y-81310372D01*
X124253605Y-81327698D01*
X124239990Y-81348073D01*
X124230612Y-81370711D01*
X124225831Y-81394745D01*
X124225831Y-81419249D01*
X124230611Y-81443283D01*
X124239987Y-81465922D01*
X124253601Y-81486297D01*
X124270927Y-81503624D01*
X124281296Y-81510552D01*
X124293737Y-81520763D01*
X124300112Y-81528531D01*
X124304847Y-81537389D01*
X124307763Y-81547001D01*
X124309352Y-81563140D01*
X124309352Y-82050861D01*
X124307546Y-82069198D01*
X124306944Y-82081450D01*
X124306944Y-82099869D01*
X124304750Y-82122149D01*
X124288024Y-82206236D01*
X124281526Y-82227655D01*
X124248715Y-82306871D01*
X124238165Y-82326607D01*
X124190531Y-82397897D01*
X124176324Y-82415208D01*
X124115708Y-82475824D01*
X124098397Y-82490031D01*
X124027107Y-82537665D01*
X124007371Y-82548215D01*
X123928155Y-82581026D01*
X123906736Y-82587524D01*
X123822649Y-82604250D01*
X123800369Y-82606444D01*
X123781950Y-82606444D01*
X123769698Y-82607046D01*
X123751361Y-82608852D01*
X123263639Y-82608852D01*
X123245302Y-82607046D01*
X123233050Y-82606444D01*
X123214631Y-82606444D01*
X123192351Y-82604250D01*
X123108264Y-82587524D01*
X123086845Y-82581026D01*
X123007629Y-82548215D01*
X122987893Y-82537665D01*
X122916603Y-82490031D01*
X122899292Y-82475824D01*
X122838676Y-82415208D01*
X122824469Y-82397897D01*
X122776835Y-82326607D01*
X122766285Y-82306871D01*
X122733474Y-82227655D01*
X122726976Y-82206236D01*
X122710250Y-82122149D01*
X122708056Y-82099869D01*
X122708056Y-82081450D01*
X122707454Y-82069198D01*
X122705648Y-82050861D01*
X122705648Y-81563140D01*
X122707237Y-81547001D01*
X122710153Y-81537389D01*
X122714888Y-81528531D01*
X122721263Y-81520763D01*
X122733702Y-81510554D01*
X122744068Y-81503628D01*
X122761395Y-81486302D01*
X122775010Y-81465927D01*
X122784388Y-81443289D01*
X122789169Y-81419255D01*
X122789169Y-81394751D01*
X122784389Y-81370717D01*
X122775013Y-81348078D01*
X122761399Y-81327703D01*
X122744073Y-81310376D01*
X122733704Y-81303448D01*
X122721263Y-81293237D01*
X122714888Y-81285469D01*
X122710153Y-81276611D01*
X122707237Y-81266999D01*
X122705648Y-81250860D01*
X122705648Y-80763140D01*
X122707454Y-80744802D01*
X122708056Y-80732550D01*
X122708056Y-80714131D01*
X122710250Y-80691851D01*
X122726976Y-80607764D01*
X122733474Y-80586345D01*
X122766285Y-80507129D01*
X122776835Y-80487393D01*
X122824469Y-80416103D01*
X122838676Y-80398792D01*
X122899292Y-80338176D01*
X122916603Y-80323969D01*
X122987893Y-80276335D01*
X123007629Y-80265785D01*
X123086845Y-80232974D01*
X123108264Y-80226476D01*
X123192351Y-80209750D01*
X123214631Y-80207556D01*
X123233050Y-80207556D01*
X123245302Y-80206954D01*
X123263640Y-80205148D01*
X123751360Y-80205148D01*
X123769698Y-80206954D01*
X123769698Y-80206954D01*
G37*
G36*
X126246198Y-80206954D02*
X126258450Y-80207556D01*
X126276869Y-80207556D01*
X126299149Y-80209750D01*
X126383236Y-80226476D01*
X126404655Y-80232974D01*
X126483871Y-80265785D01*
X126503607Y-80276335D01*
X126574897Y-80323969D01*
X126592208Y-80338176D01*
X126652824Y-80398792D01*
X126667031Y-80416103D01*
X126714665Y-80487393D01*
X126725215Y-80507129D01*
X126758026Y-80586345D01*
X126764524Y-80607764D01*
X126781250Y-80691851D01*
X126783444Y-80714131D01*
X126783444Y-80732550D01*
X126784046Y-80744802D01*
X126785852Y-80763140D01*
X126785852Y-81250860D01*
X126784263Y-81266999D01*
X126781347Y-81276611D01*
X126776612Y-81285469D01*
X126770237Y-81293237D01*
X126757798Y-81303446D01*
X126747432Y-81310372D01*
X126730105Y-81327698D01*
X126716490Y-81348073D01*
X126707112Y-81370711D01*
X126702331Y-81394745D01*
X126702331Y-81419249D01*
X126707111Y-81443283D01*
X126716487Y-81465922D01*
X126730101Y-81486297D01*
X126747427Y-81503624D01*
X126757796Y-81510552D01*
X126770237Y-81520763D01*
X126776612Y-81528531D01*
X126781347Y-81537389D01*
X126784263Y-81547001D01*
X126785852Y-81563140D01*
X126785852Y-82050861D01*
X126784046Y-82069198D01*
X126783444Y-82081450D01*
X126783444Y-82099869D01*
X126781250Y-82122149D01*
X126764524Y-82206236D01*
X126758026Y-82227655D01*
X126725215Y-82306871D01*
X126714665Y-82326607D01*
X126667031Y-82397897D01*
X126652824Y-82415208D01*
X126592208Y-82475824D01*
X126574897Y-82490031D01*
X126503607Y-82537665D01*
X126483871Y-82548215D01*
X126404655Y-82581026D01*
X126383236Y-82587524D01*
X126299149Y-82604250D01*
X126276869Y-82606444D01*
X126258450Y-82606444D01*
X126246198Y-82607046D01*
X126227861Y-82608852D01*
X125740139Y-82608852D01*
X125721802Y-82607046D01*
X125709550Y-82606444D01*
X125691131Y-82606444D01*
X125668851Y-82604250D01*
X125584764Y-82587524D01*
X125563345Y-82581026D01*
X125484129Y-82548215D01*
X125464393Y-82537665D01*
X125393103Y-82490031D01*
X125375792Y-82475824D01*
X125315176Y-82415208D01*
X125300969Y-82397897D01*
X125253335Y-82326607D01*
X125242785Y-82306871D01*
X125209974Y-82227655D01*
X125203476Y-82206236D01*
X125186750Y-82122149D01*
X125184556Y-82099869D01*
X125184556Y-82081450D01*
X125183954Y-82069198D01*
X125182148Y-82050861D01*
X125182148Y-81563140D01*
X125183737Y-81547001D01*
X125186653Y-81537389D01*
X125191388Y-81528531D01*
X125197763Y-81520763D01*
X125210202Y-81510554D01*
X125220568Y-81503628D01*
X125237895Y-81486302D01*
X125251510Y-81465927D01*
X125260888Y-81443289D01*
X125265669Y-81419255D01*
X125265669Y-81394751D01*
X125260889Y-81370717D01*
X125251513Y-81348078D01*
X125237899Y-81327703D01*
X125220573Y-81310376D01*
X125210204Y-81303448D01*
X125197763Y-81293237D01*
X125191388Y-81285469D01*
X125186653Y-81276611D01*
X125183737Y-81266999D01*
X125182148Y-81250860D01*
X125182148Y-80763140D01*
X125183954Y-80744802D01*
X125184556Y-80732550D01*
X125184556Y-80714131D01*
X125186750Y-80691851D01*
X125203476Y-80607764D01*
X125209974Y-80586345D01*
X125242785Y-80507129D01*
X125253335Y-80487393D01*
X125300969Y-80416103D01*
X125315176Y-80398792D01*
X125375792Y-80338176D01*
X125393103Y-80323969D01*
X125464393Y-80276335D01*
X125484129Y-80265785D01*
X125563345Y-80232974D01*
X125584764Y-80226476D01*
X125668851Y-80209750D01*
X125691131Y-80207556D01*
X125709550Y-80207556D01*
X125721802Y-80206954D01*
X125740140Y-80205148D01*
X126227860Y-80205148D01*
X126246198Y-80206954D01*
X126246198Y-80206954D01*
G37*
G36*
X105888000Y-81859600D02*
X104236000Y-81859600D01*
X104236000Y-81157600D01*
X105888000Y-81157600D01*
X105888000Y-81859600D01*
X105888000Y-81859600D01*
G37*
G36*
X100488000Y-81859600D02*
X98836000Y-81859600D01*
X98836000Y-81157600D01*
X100488000Y-81157600D01*
X100488000Y-81859600D01*
X100488000Y-81859600D01*
G37*
G36*
X141812677Y-80598665D02*
X141850364Y-80610098D01*
X141885103Y-80628666D01*
X141915548Y-80653652D01*
X141940534Y-80684097D01*
X141959102Y-80718836D01*
X141970535Y-80756523D01*
X141975000Y-80801861D01*
X141975000Y-81638539D01*
X141970535Y-81683877D01*
X141959102Y-81721564D01*
X141940534Y-81756303D01*
X141915548Y-81786748D01*
X141885103Y-81811734D01*
X141850364Y-81830302D01*
X141812677Y-81841735D01*
X141767339Y-81846200D01*
X140680661Y-81846200D01*
X140635323Y-81841735D01*
X140597636Y-81830302D01*
X140562897Y-81811734D01*
X140532452Y-81786748D01*
X140507466Y-81756303D01*
X140488898Y-81721564D01*
X140477465Y-81683877D01*
X140473000Y-81638539D01*
X140473000Y-80801861D01*
X140477465Y-80756523D01*
X140488898Y-80718836D01*
X140507466Y-80684097D01*
X140532452Y-80653652D01*
X140562897Y-80628666D01*
X140597636Y-80610098D01*
X140635323Y-80598665D01*
X140680661Y-80594200D01*
X141767339Y-80594200D01*
X141812677Y-80598665D01*
X141812677Y-80598665D01*
G37*
G36*
X100488000Y-80589600D02*
X98836000Y-80589600D01*
X98836000Y-79887600D01*
X100488000Y-79887600D01*
X100488000Y-80589600D01*
X100488000Y-80589600D01*
G37*
G36*
X105888000Y-80589600D02*
X104236000Y-80589600D01*
X104236000Y-79887600D01*
X105888000Y-79887600D01*
X105888000Y-80589600D01*
X105888000Y-80589600D01*
G37*
G36*
X105888000Y-79319600D02*
X104236000Y-79319600D01*
X104236000Y-78617600D01*
X105888000Y-78617600D01*
X105888000Y-79319600D01*
X105888000Y-79319600D01*
G37*
G36*
X100488000Y-79319600D02*
X98836000Y-79319600D01*
X98836000Y-78617600D01*
X100488000Y-78617600D01*
X100488000Y-79319600D01*
X100488000Y-79319600D01*
G37*
G36*
X110723077Y-77060665D02*
X110760764Y-77072098D01*
X110795503Y-77090666D01*
X110825948Y-77115652D01*
X110850934Y-77146097D01*
X110869502Y-77180836D01*
X110880935Y-77218523D01*
X110885400Y-77263861D01*
X110885400Y-78100539D01*
X110880935Y-78145877D01*
X110869502Y-78183564D01*
X110850934Y-78218303D01*
X110825948Y-78248748D01*
X110795503Y-78273734D01*
X110760764Y-78292302D01*
X110723077Y-78303735D01*
X110677739Y-78308200D01*
X109591061Y-78308200D01*
X109545723Y-78303735D01*
X109508036Y-78292302D01*
X109473297Y-78273734D01*
X109442852Y-78248748D01*
X109417866Y-78218303D01*
X109399298Y-78183564D01*
X109387865Y-78145877D01*
X109383400Y-78100539D01*
X109383400Y-77263861D01*
X109387865Y-77218523D01*
X109399298Y-77180836D01*
X109417866Y-77146097D01*
X109442852Y-77115652D01*
X109473297Y-77090666D01*
X109508036Y-77072098D01*
X109545723Y-77060665D01*
X109591061Y-77056200D01*
X110677739Y-77056200D01*
X110723077Y-77060665D01*
X110723077Y-77060665D01*
G37*
G36*
X100488000Y-78049600D02*
X98836000Y-78049600D01*
X98836000Y-77347600D01*
X100488000Y-77347600D01*
X100488000Y-78049600D01*
X100488000Y-78049600D01*
G37*
G36*
X105888000Y-78049600D02*
X104236000Y-78049600D01*
X104236000Y-77347600D01*
X105888000Y-77347600D01*
X105888000Y-78049600D01*
X105888000Y-78049600D01*
G37*
G36*
X123554442Y-75325518D02*
X123620627Y-75332037D01*
X123715324Y-75360763D01*
X123790467Y-75383557D01*
X123921246Y-75453461D01*
X123946991Y-75467222D01*
X123982729Y-75496552D01*
X124084186Y-75579814D01*
X124167448Y-75681271D01*
X124196778Y-75717009D01*
X124196779Y-75717011D01*
X124280443Y-75873533D01*
X124280443Y-75873534D01*
X124331963Y-76043373D01*
X124349359Y-76220000D01*
X124331963Y-76396627D01*
X124297616Y-76509853D01*
X124280443Y-76566467D01*
X124231569Y-76657903D01*
X124196778Y-76722991D01*
X124167448Y-76758729D01*
X124084186Y-76860186D01*
X123982729Y-76943448D01*
X123946991Y-76972778D01*
X123946989Y-76972779D01*
X123790467Y-77056443D01*
X123738858Y-77072098D01*
X123620627Y-77107963D01*
X123554442Y-77114482D01*
X123488260Y-77121000D01*
X123399740Y-77121000D01*
X123333558Y-77114482D01*
X123267373Y-77107963D01*
X123149142Y-77072098D01*
X123097533Y-77056443D01*
X122941011Y-76972779D01*
X122941009Y-76972778D01*
X122905271Y-76943448D01*
X122803814Y-76860186D01*
X122720552Y-76758729D01*
X122691222Y-76722991D01*
X122656431Y-76657903D01*
X122607557Y-76566467D01*
X122590384Y-76509853D01*
X122556037Y-76396627D01*
X122538641Y-76220000D01*
X122556037Y-76043373D01*
X122607557Y-75873534D01*
X122607557Y-75873533D01*
X122691221Y-75717011D01*
X122691222Y-75717009D01*
X122720552Y-75681271D01*
X122803814Y-75579814D01*
X122905271Y-75496552D01*
X122941009Y-75467222D01*
X122966754Y-75453461D01*
X123097533Y-75383557D01*
X123172676Y-75360763D01*
X123267373Y-75332037D01*
X123333558Y-75325518D01*
X123399740Y-75319000D01*
X123488260Y-75319000D01*
X123554442Y-75325518D01*
X123554442Y-75325518D01*
G37*
G36*
X129425000Y-77121000D02*
X127623000Y-77121000D01*
X127623000Y-75319000D01*
X129425000Y-75319000D01*
X129425000Y-77121000D01*
X129425000Y-77121000D01*
G37*
G36*
X126094442Y-75325518D02*
X126160627Y-75332037D01*
X126255324Y-75360763D01*
X126330467Y-75383557D01*
X126461246Y-75453461D01*
X126486991Y-75467222D01*
X126522729Y-75496552D01*
X126624186Y-75579814D01*
X126707448Y-75681271D01*
X126736778Y-75717009D01*
X126736779Y-75717011D01*
X126820443Y-75873533D01*
X126820443Y-75873534D01*
X126871963Y-76043373D01*
X126889359Y-76220000D01*
X126871963Y-76396627D01*
X126837616Y-76509853D01*
X126820443Y-76566467D01*
X126771569Y-76657903D01*
X126736778Y-76722991D01*
X126707448Y-76758729D01*
X126624186Y-76860186D01*
X126522729Y-76943448D01*
X126486991Y-76972778D01*
X126486989Y-76972779D01*
X126330467Y-77056443D01*
X126278858Y-77072098D01*
X126160627Y-77107963D01*
X126094442Y-77114482D01*
X126028260Y-77121000D01*
X125939740Y-77121000D01*
X125873558Y-77114482D01*
X125807373Y-77107963D01*
X125689142Y-77072098D01*
X125637533Y-77056443D01*
X125481011Y-76972779D01*
X125481009Y-76972778D01*
X125445271Y-76943448D01*
X125343814Y-76860186D01*
X125260552Y-76758729D01*
X125231222Y-76722991D01*
X125196431Y-76657903D01*
X125147557Y-76566467D01*
X125130384Y-76509853D01*
X125096037Y-76396627D01*
X125078641Y-76220000D01*
X125096037Y-76043373D01*
X125147557Y-75873534D01*
X125147557Y-75873533D01*
X125231221Y-75717011D01*
X125231222Y-75717009D01*
X125260552Y-75681271D01*
X125343814Y-75579814D01*
X125445271Y-75496552D01*
X125481009Y-75467222D01*
X125506754Y-75453461D01*
X125637533Y-75383557D01*
X125712676Y-75360763D01*
X125807373Y-75332037D01*
X125873558Y-75325518D01*
X125939740Y-75319000D01*
X126028260Y-75319000D01*
X126094442Y-75325518D01*
X126094442Y-75325518D01*
G37*
G36*
X121014442Y-75325518D02*
X121080627Y-75332037D01*
X121175324Y-75360763D01*
X121250467Y-75383557D01*
X121381246Y-75453461D01*
X121406991Y-75467222D01*
X121442729Y-75496552D01*
X121544186Y-75579814D01*
X121627448Y-75681271D01*
X121656778Y-75717009D01*
X121656779Y-75717011D01*
X121740443Y-75873533D01*
X121740443Y-75873534D01*
X121791963Y-76043373D01*
X121809359Y-76220000D01*
X121791963Y-76396627D01*
X121757616Y-76509853D01*
X121740443Y-76566467D01*
X121691569Y-76657903D01*
X121656778Y-76722991D01*
X121627448Y-76758729D01*
X121544186Y-76860186D01*
X121442729Y-76943448D01*
X121406991Y-76972778D01*
X121406989Y-76972779D01*
X121250467Y-77056443D01*
X121198858Y-77072098D01*
X121080627Y-77107963D01*
X121014442Y-77114482D01*
X120948260Y-77121000D01*
X120859740Y-77121000D01*
X120793558Y-77114482D01*
X120727373Y-77107963D01*
X120609142Y-77072098D01*
X120557533Y-77056443D01*
X120401011Y-76972779D01*
X120401009Y-76972778D01*
X120365271Y-76943448D01*
X120263814Y-76860186D01*
X120180552Y-76758729D01*
X120151222Y-76722991D01*
X120116431Y-76657903D01*
X120067557Y-76566467D01*
X120050384Y-76509853D01*
X120016037Y-76396627D01*
X119998641Y-76220000D01*
X120016037Y-76043373D01*
X120067557Y-75873534D01*
X120067557Y-75873533D01*
X120151221Y-75717011D01*
X120151222Y-75717009D01*
X120180552Y-75681271D01*
X120263814Y-75579814D01*
X120365271Y-75496552D01*
X120401009Y-75467222D01*
X120426754Y-75453461D01*
X120557533Y-75383557D01*
X120632676Y-75360763D01*
X120727373Y-75332037D01*
X120793558Y-75325518D01*
X120859740Y-75319000D01*
X120948260Y-75319000D01*
X121014442Y-75325518D01*
X121014442Y-75325518D01*
G37*
G36*
X118474442Y-75325518D02*
X118540627Y-75332037D01*
X118635324Y-75360763D01*
X118710467Y-75383557D01*
X118841246Y-75453461D01*
X118866991Y-75467222D01*
X118902729Y-75496552D01*
X119004186Y-75579814D01*
X119087448Y-75681271D01*
X119116778Y-75717009D01*
X119116779Y-75717011D01*
X119200443Y-75873533D01*
X119200443Y-75873534D01*
X119251963Y-76043373D01*
X119269359Y-76220000D01*
X119251963Y-76396627D01*
X119217616Y-76509853D01*
X119200443Y-76566467D01*
X119151569Y-76657903D01*
X119116778Y-76722991D01*
X119087448Y-76758729D01*
X119004186Y-76860186D01*
X118902729Y-76943448D01*
X118866991Y-76972778D01*
X118866989Y-76972779D01*
X118710467Y-77056443D01*
X118658858Y-77072098D01*
X118540627Y-77107963D01*
X118474442Y-77114482D01*
X118408260Y-77121000D01*
X118319740Y-77121000D01*
X118253558Y-77114482D01*
X118187373Y-77107963D01*
X118069142Y-77072098D01*
X118017533Y-77056443D01*
X117861011Y-76972779D01*
X117861009Y-76972778D01*
X117825271Y-76943448D01*
X117723814Y-76860186D01*
X117640552Y-76758729D01*
X117611222Y-76722991D01*
X117576431Y-76657903D01*
X117527557Y-76566467D01*
X117510384Y-76509853D01*
X117476037Y-76396627D01*
X117458641Y-76220000D01*
X117476037Y-76043373D01*
X117527557Y-75873534D01*
X117527557Y-75873533D01*
X117611221Y-75717011D01*
X117611222Y-75717009D01*
X117640552Y-75681271D01*
X117723814Y-75579814D01*
X117825271Y-75496552D01*
X117861009Y-75467222D01*
X117886754Y-75453461D01*
X118017533Y-75383557D01*
X118092676Y-75360763D01*
X118187373Y-75332037D01*
X118253558Y-75325518D01*
X118319740Y-75319000D01*
X118408260Y-75319000D01*
X118474442Y-75325518D01*
X118474442Y-75325518D01*
G37*
G36*
X115934442Y-75325518D02*
X116000627Y-75332037D01*
X116095324Y-75360763D01*
X116170467Y-75383557D01*
X116301246Y-75453461D01*
X116326991Y-75467222D01*
X116362729Y-75496552D01*
X116464186Y-75579814D01*
X116547448Y-75681271D01*
X116576778Y-75717009D01*
X116576779Y-75717011D01*
X116660443Y-75873533D01*
X116660443Y-75873534D01*
X116711963Y-76043373D01*
X116729359Y-76220000D01*
X116711963Y-76396627D01*
X116677616Y-76509853D01*
X116660443Y-76566467D01*
X116611569Y-76657903D01*
X116576778Y-76722991D01*
X116547448Y-76758729D01*
X116464186Y-76860186D01*
X116362729Y-76943448D01*
X116326991Y-76972778D01*
X116326989Y-76972779D01*
X116170467Y-77056443D01*
X116118858Y-77072098D01*
X116000627Y-77107963D01*
X115934442Y-77114482D01*
X115868260Y-77121000D01*
X115779740Y-77121000D01*
X115713558Y-77114482D01*
X115647373Y-77107963D01*
X115529142Y-77072098D01*
X115477533Y-77056443D01*
X115321011Y-76972779D01*
X115321009Y-76972778D01*
X115285271Y-76943448D01*
X115183814Y-76860186D01*
X115100552Y-76758729D01*
X115071222Y-76722991D01*
X115036431Y-76657903D01*
X114987557Y-76566467D01*
X114970384Y-76509853D01*
X114936037Y-76396627D01*
X114918641Y-76220000D01*
X114936037Y-76043373D01*
X114987557Y-75873534D01*
X114987557Y-75873533D01*
X115071221Y-75717011D01*
X115071222Y-75717009D01*
X115100552Y-75681271D01*
X115183814Y-75579814D01*
X115285271Y-75496552D01*
X115321009Y-75467222D01*
X115346754Y-75453461D01*
X115477533Y-75383557D01*
X115552676Y-75360763D01*
X115647373Y-75332037D01*
X115713558Y-75325518D01*
X115779740Y-75319000D01*
X115868260Y-75319000D01*
X115934442Y-75325518D01*
X115934442Y-75325518D01*
G37*
G36*
X113394442Y-75325518D02*
X113460627Y-75332037D01*
X113555324Y-75360763D01*
X113630467Y-75383557D01*
X113761246Y-75453461D01*
X113786991Y-75467222D01*
X113822729Y-75496552D01*
X113924186Y-75579814D01*
X114007448Y-75681271D01*
X114036778Y-75717009D01*
X114036779Y-75717011D01*
X114120443Y-75873533D01*
X114120443Y-75873534D01*
X114171963Y-76043373D01*
X114189359Y-76220000D01*
X114171963Y-76396627D01*
X114137616Y-76509853D01*
X114120443Y-76566467D01*
X114071569Y-76657903D01*
X114036778Y-76722991D01*
X114007448Y-76758729D01*
X113924186Y-76860186D01*
X113822729Y-76943448D01*
X113786991Y-76972778D01*
X113786989Y-76972779D01*
X113630467Y-77056443D01*
X113578858Y-77072098D01*
X113460627Y-77107963D01*
X113394442Y-77114482D01*
X113328260Y-77121000D01*
X113239740Y-77121000D01*
X113173558Y-77114482D01*
X113107373Y-77107963D01*
X112989142Y-77072098D01*
X112937533Y-77056443D01*
X112781011Y-76972779D01*
X112781009Y-76972778D01*
X112745271Y-76943448D01*
X112643814Y-76860186D01*
X112560552Y-76758729D01*
X112531222Y-76722991D01*
X112496431Y-76657903D01*
X112447557Y-76566467D01*
X112430384Y-76509853D01*
X112396037Y-76396627D01*
X112378641Y-76220000D01*
X112396037Y-76043373D01*
X112447557Y-75873534D01*
X112447557Y-75873533D01*
X112531221Y-75717011D01*
X112531222Y-75717009D01*
X112560552Y-75681271D01*
X112643814Y-75579814D01*
X112745271Y-75496552D01*
X112781009Y-75467222D01*
X112806754Y-75453461D01*
X112937533Y-75383557D01*
X113012676Y-75360763D01*
X113107373Y-75332037D01*
X113173558Y-75325518D01*
X113239740Y-75319000D01*
X113328260Y-75319000D01*
X113394442Y-75325518D01*
X113394442Y-75325518D01*
G37*
G36*
X105374677Y-75250265D02*
X105412364Y-75261698D01*
X105447103Y-75280266D01*
X105477548Y-75305252D01*
X105502534Y-75335697D01*
X105521102Y-75370436D01*
X105532535Y-75408123D01*
X105537000Y-75453461D01*
X105537000Y-76540139D01*
X105532535Y-76585477D01*
X105521102Y-76623164D01*
X105502534Y-76657903D01*
X105477548Y-76688348D01*
X105447103Y-76713334D01*
X105412364Y-76731902D01*
X105374677Y-76743335D01*
X105329339Y-76747800D01*
X104492661Y-76747800D01*
X104447323Y-76743335D01*
X104409636Y-76731902D01*
X104374897Y-76713334D01*
X104344452Y-76688348D01*
X104319466Y-76657903D01*
X104300898Y-76623164D01*
X104289465Y-76585477D01*
X104285000Y-76540139D01*
X104285000Y-75453461D01*
X104289465Y-75408123D01*
X104300898Y-75370436D01*
X104319466Y-75335697D01*
X104344452Y-75305252D01*
X104374897Y-75280266D01*
X104409636Y-75261698D01*
X104447323Y-75250265D01*
X104492661Y-75245800D01*
X105329339Y-75245800D01*
X105374677Y-75250265D01*
X105374677Y-75250265D01*
G37*
G36*
X103324677Y-75250265D02*
X103362364Y-75261698D01*
X103397103Y-75280266D01*
X103427548Y-75305252D01*
X103452534Y-75335697D01*
X103471102Y-75370436D01*
X103482535Y-75408123D01*
X103487000Y-75453461D01*
X103487000Y-76540139D01*
X103482535Y-76585477D01*
X103471102Y-76623164D01*
X103452534Y-76657903D01*
X103427548Y-76688348D01*
X103397103Y-76713334D01*
X103362364Y-76731902D01*
X103324677Y-76743335D01*
X103279339Y-76747800D01*
X102442661Y-76747800D01*
X102397323Y-76743335D01*
X102359636Y-76731902D01*
X102324897Y-76713334D01*
X102294452Y-76688348D01*
X102269466Y-76657903D01*
X102250898Y-76623164D01*
X102239465Y-76585477D01*
X102235000Y-76540139D01*
X102235000Y-75453461D01*
X102239465Y-75408123D01*
X102250898Y-75370436D01*
X102269466Y-75335697D01*
X102294452Y-75305252D01*
X102324897Y-75280266D01*
X102359636Y-75261698D01*
X102397323Y-75250265D01*
X102442661Y-75245800D01*
X103279339Y-75245800D01*
X103324677Y-75250265D01*
X103324677Y-75250265D01*
G37*
G36*
X98032477Y-75250265D02*
X98070164Y-75261698D01*
X98104903Y-75280266D01*
X98135348Y-75305252D01*
X98160334Y-75335697D01*
X98178902Y-75370436D01*
X98190335Y-75408123D01*
X98194800Y-75453461D01*
X98194800Y-76540139D01*
X98190335Y-76585477D01*
X98178902Y-76623164D01*
X98160334Y-76657903D01*
X98135348Y-76688348D01*
X98104903Y-76713334D01*
X98070164Y-76731902D01*
X98032477Y-76743335D01*
X97987139Y-76747800D01*
X97150461Y-76747800D01*
X97105123Y-76743335D01*
X97067436Y-76731902D01*
X97032697Y-76713334D01*
X97002252Y-76688348D01*
X96977266Y-76657903D01*
X96958698Y-76623164D01*
X96947265Y-76585477D01*
X96942800Y-76540139D01*
X96942800Y-75453461D01*
X96947265Y-75408123D01*
X96958698Y-75370436D01*
X96977266Y-75335697D01*
X97002252Y-75305252D01*
X97032697Y-75280266D01*
X97067436Y-75261698D01*
X97105123Y-75250265D01*
X97150461Y-75245800D01*
X97987139Y-75245800D01*
X98032477Y-75250265D01*
X98032477Y-75250265D01*
G37*
G36*
X100082477Y-75250265D02*
X100120164Y-75261698D01*
X100154903Y-75280266D01*
X100185348Y-75305252D01*
X100210334Y-75335697D01*
X100228902Y-75370436D01*
X100240335Y-75408123D01*
X100244800Y-75453461D01*
X100244800Y-76540139D01*
X100240335Y-76585477D01*
X100228902Y-76623164D01*
X100210334Y-76657903D01*
X100185348Y-76688348D01*
X100154903Y-76713334D01*
X100120164Y-76731902D01*
X100082477Y-76743335D01*
X100037139Y-76747800D01*
X99200461Y-76747800D01*
X99155123Y-76743335D01*
X99117436Y-76731902D01*
X99082697Y-76713334D01*
X99052252Y-76688348D01*
X99027266Y-76657903D01*
X99008698Y-76623164D01*
X98997265Y-76585477D01*
X98992800Y-76540139D01*
X98992800Y-75453461D01*
X98997265Y-75408123D01*
X99008698Y-75370436D01*
X99027266Y-75335697D01*
X99052252Y-75305252D01*
X99082697Y-75280266D01*
X99117436Y-75261698D01*
X99155123Y-75250265D01*
X99200461Y-75245800D01*
X100037139Y-75245800D01*
X100082477Y-75250265D01*
X100082477Y-75250265D01*
G37*
G36*
X135821000Y-76349000D02*
X133419000Y-76349000D01*
X133419000Y-73747000D01*
X135821000Y-73747000D01*
X135821000Y-76349000D01*
X135821000Y-76349000D01*
G37*
G36*
X110723077Y-75010665D02*
X110760764Y-75022098D01*
X110795503Y-75040666D01*
X110825948Y-75065652D01*
X110850934Y-75096097D01*
X110869502Y-75130836D01*
X110880935Y-75168523D01*
X110885400Y-75213861D01*
X110885400Y-76050539D01*
X110880935Y-76095877D01*
X110869502Y-76133564D01*
X110850934Y-76168303D01*
X110825948Y-76198748D01*
X110795503Y-76223734D01*
X110760764Y-76242302D01*
X110723077Y-76253735D01*
X110677739Y-76258200D01*
X109591061Y-76258200D01*
X109545723Y-76253735D01*
X109508036Y-76242302D01*
X109473297Y-76223734D01*
X109442852Y-76198748D01*
X109417866Y-76168303D01*
X109399298Y-76133564D01*
X109387865Y-76095877D01*
X109383400Y-76050539D01*
X109383400Y-75213861D01*
X109387865Y-75168523D01*
X109399298Y-75130836D01*
X109417866Y-75096097D01*
X109442852Y-75065652D01*
X109473297Y-75040666D01*
X109508036Y-75022098D01*
X109545723Y-75010665D01*
X109591061Y-75006200D01*
X110677739Y-75006200D01*
X110723077Y-75010665D01*
X110723077Y-75010665D01*
G37*
G36*
X138134200Y-76026200D02*
X137132200Y-76026200D01*
X137132200Y-75124200D01*
X138134200Y-75124200D01*
X138134200Y-76026200D01*
X138134200Y-76026200D01*
G37*
G36*
X142299642Y-73578318D02*
X142365827Y-73584837D01*
X142479053Y-73619184D01*
X142535667Y-73636357D01*
X142674287Y-73710452D01*
X142692191Y-73720022D01*
X142727929Y-73749352D01*
X142829386Y-73832614D01*
X142912648Y-73934071D01*
X142941978Y-73969809D01*
X142941979Y-73969811D01*
X143025643Y-74126333D01*
X143025643Y-74126334D01*
X143077163Y-74296173D01*
X143094559Y-74472800D01*
X143077163Y-74649427D01*
X143042816Y-74762653D01*
X143025643Y-74819267D01*
X142951548Y-74957887D01*
X142941978Y-74975791D01*
X142917022Y-75006200D01*
X142829386Y-75112986D01*
X142727929Y-75196248D01*
X142692191Y-75225578D01*
X142692189Y-75225579D01*
X142535667Y-75309243D01*
X142482014Y-75325518D01*
X142365827Y-75360763D01*
X142304917Y-75366762D01*
X142233460Y-75373800D01*
X142144940Y-75373800D01*
X142073483Y-75366762D01*
X142012573Y-75360763D01*
X141896386Y-75325518D01*
X141842733Y-75309243D01*
X141686211Y-75225579D01*
X141686209Y-75225578D01*
X141650471Y-75196248D01*
X141549014Y-75112986D01*
X141461378Y-75006200D01*
X141436422Y-74975791D01*
X141426852Y-74957887D01*
X141352757Y-74819267D01*
X141335584Y-74762653D01*
X141301237Y-74649427D01*
X141283841Y-74472800D01*
X141301237Y-74296173D01*
X141352757Y-74126334D01*
X141352757Y-74126333D01*
X141436421Y-73969811D01*
X141436422Y-73969809D01*
X141465752Y-73934071D01*
X141549014Y-73832614D01*
X141650471Y-73749352D01*
X141686209Y-73720022D01*
X141704113Y-73710452D01*
X141842733Y-73636357D01*
X141899347Y-73619184D01*
X142012573Y-73584837D01*
X142078758Y-73578318D01*
X142144940Y-73571800D01*
X142233460Y-73571800D01*
X142299642Y-73578318D01*
X142299642Y-73578318D01*
G37*
G36*
X140134200Y-75076200D02*
X139132200Y-75076200D01*
X139132200Y-74174200D01*
X140134200Y-74174200D01*
X140134200Y-75076200D01*
X140134200Y-75076200D01*
G37*
G36*
X138134200Y-74126200D02*
X137132200Y-74126200D01*
X137132200Y-73224200D01*
X138134200Y-73224200D01*
X138134200Y-74126200D01*
X138134200Y-74126200D01*
G37*
G36*
X110824677Y-71879065D02*
X110862364Y-71890498D01*
X110897103Y-71909066D01*
X110927548Y-71934052D01*
X110952534Y-71964497D01*
X110971102Y-71999236D01*
X110982535Y-72036923D01*
X110987000Y-72082261D01*
X110987000Y-72918939D01*
X110982535Y-72964277D01*
X110971102Y-73001964D01*
X110952534Y-73036703D01*
X110927548Y-73067148D01*
X110897103Y-73092134D01*
X110862364Y-73110702D01*
X110824677Y-73122135D01*
X110779339Y-73126600D01*
X109692661Y-73126600D01*
X109647323Y-73122135D01*
X109609636Y-73110702D01*
X109574897Y-73092134D01*
X109544452Y-73067148D01*
X109519466Y-73036703D01*
X109500898Y-73001964D01*
X109489465Y-72964277D01*
X109485000Y-72918939D01*
X109485000Y-72082261D01*
X109489465Y-72036923D01*
X109500898Y-71999236D01*
X109519466Y-71964497D01*
X109544452Y-71934052D01*
X109574897Y-71909066D01*
X109609636Y-71890498D01*
X109647323Y-71879065D01*
X109692661Y-71874600D01*
X110779339Y-71874600D01*
X110824677Y-71879065D01*
X110824677Y-71879065D01*
G37*
G36*
X142299643Y-71038319D02*
X142365827Y-71044837D01*
X142470536Y-71076600D01*
X142535667Y-71096357D01*
X142674287Y-71170452D01*
X142692191Y-71180022D01*
X142721315Y-71203924D01*
X142829386Y-71292614D01*
X142909009Y-71389636D01*
X142941978Y-71429809D01*
X142941979Y-71429811D01*
X143025643Y-71586333D01*
X143025643Y-71586334D01*
X143077163Y-71756173D01*
X143094559Y-71932800D01*
X143077163Y-72109427D01*
X143065834Y-72146773D01*
X143025643Y-72279267D01*
X143009569Y-72309339D01*
X142941978Y-72435791D01*
X142940754Y-72437282D01*
X142829386Y-72572986D01*
X142727929Y-72656248D01*
X142692191Y-72685578D01*
X142692189Y-72685579D01*
X142535667Y-72769243D01*
X142479053Y-72786416D01*
X142365827Y-72820763D01*
X142299643Y-72827281D01*
X142233460Y-72833800D01*
X142144940Y-72833800D01*
X142078757Y-72827281D01*
X142012573Y-72820763D01*
X141899347Y-72786416D01*
X141842733Y-72769243D01*
X141686211Y-72685579D01*
X141686209Y-72685578D01*
X141650471Y-72656248D01*
X141549014Y-72572986D01*
X141437646Y-72437282D01*
X141436422Y-72435791D01*
X141368831Y-72309339D01*
X141352757Y-72279267D01*
X141312566Y-72146773D01*
X141301237Y-72109427D01*
X141283841Y-71932800D01*
X141301237Y-71756173D01*
X141352757Y-71586334D01*
X141352757Y-71586333D01*
X141436421Y-71429811D01*
X141436422Y-71429809D01*
X141469391Y-71389636D01*
X141549014Y-71292614D01*
X141657085Y-71203924D01*
X141686209Y-71180022D01*
X141704113Y-71170452D01*
X141842733Y-71096357D01*
X141907864Y-71076600D01*
X142012573Y-71044837D01*
X142078757Y-71038319D01*
X142144940Y-71031800D01*
X142233460Y-71031800D01*
X142299643Y-71038319D01*
X142299643Y-71038319D01*
G37*
G36*
X107692565Y-70577389D02*
X107883834Y-70656615D01*
X108055976Y-70771637D01*
X108202363Y-70918024D01*
X108317385Y-71090166D01*
X108396611Y-71281435D01*
X108437000Y-71484484D01*
X108437000Y-71691516D01*
X108396611Y-71894565D01*
X108317385Y-72085834D01*
X108202363Y-72257976D01*
X108055976Y-72404363D01*
X107883834Y-72519385D01*
X107692565Y-72598611D01*
X107489516Y-72639000D01*
X107282484Y-72639000D01*
X107079435Y-72598611D01*
X106888166Y-72519385D01*
X106716024Y-72404363D01*
X106569637Y-72257976D01*
X106454615Y-72085834D01*
X106375389Y-71894565D01*
X106335000Y-71691516D01*
X106335000Y-71484484D01*
X106375389Y-71281435D01*
X106454615Y-71090166D01*
X106569637Y-70918024D01*
X106716024Y-70771637D01*
X106888166Y-70656615D01*
X107079435Y-70577389D01*
X107282484Y-70537000D01*
X107489516Y-70537000D01*
X107692565Y-70577389D01*
X107692565Y-70577389D01*
G37*
G36*
X100692565Y-70577389D02*
X100883834Y-70656615D01*
X101055976Y-70771637D01*
X101202363Y-70918024D01*
X101317385Y-71090166D01*
X101396611Y-71281435D01*
X101437000Y-71484484D01*
X101437000Y-71691516D01*
X101396611Y-71894565D01*
X101317385Y-72085834D01*
X101202363Y-72257976D01*
X101055976Y-72404363D01*
X100883834Y-72519385D01*
X100692565Y-72598611D01*
X100489516Y-72639000D01*
X100282484Y-72639000D01*
X100079435Y-72598611D01*
X99888166Y-72519385D01*
X99716024Y-72404363D01*
X99569637Y-72257976D01*
X99454615Y-72085834D01*
X99375389Y-71894565D01*
X99335000Y-71691516D01*
X99335000Y-71484484D01*
X99375389Y-71281435D01*
X99454615Y-71090166D01*
X99569637Y-70918024D01*
X99716024Y-70771637D01*
X99888166Y-70656615D01*
X100079435Y-70577389D01*
X100282484Y-70537000D01*
X100489516Y-70537000D01*
X100692565Y-70577389D01*
X100692565Y-70577389D01*
G37*
G36*
X138409077Y-71269465D02*
X138446764Y-71280898D01*
X138481503Y-71299466D01*
X138511948Y-71324452D01*
X138536934Y-71354897D01*
X138555502Y-71389636D01*
X138566935Y-71427323D01*
X138571400Y-71472661D01*
X138571400Y-72309339D01*
X138566935Y-72354677D01*
X138555502Y-72392364D01*
X138536934Y-72427103D01*
X138511948Y-72457548D01*
X138481503Y-72482534D01*
X138446764Y-72501102D01*
X138409077Y-72512535D01*
X138363739Y-72517000D01*
X137277061Y-72517000D01*
X137231723Y-72512535D01*
X137194036Y-72501102D01*
X137159297Y-72482534D01*
X137128852Y-72457548D01*
X137103866Y-72427103D01*
X137085298Y-72392364D01*
X137073865Y-72354677D01*
X137069400Y-72309339D01*
X137069400Y-71472661D01*
X137073865Y-71427323D01*
X137085298Y-71389636D01*
X137103866Y-71354897D01*
X137128852Y-71324452D01*
X137159297Y-71299466D01*
X137194036Y-71280898D01*
X137231723Y-71269465D01*
X137277061Y-71265000D01*
X138363739Y-71265000D01*
X138409077Y-71269465D01*
X138409077Y-71269465D01*
G37*
G36*
X135821000Y-72049000D02*
X133419000Y-72049000D01*
X133419000Y-69447000D01*
X135821000Y-69447000D01*
X135821000Y-72049000D01*
X135821000Y-72049000D01*
G37*
G36*
X96666301Y-67046466D02*
X96835910Y-67116720D01*
X97075774Y-67216075D01*
X97075775Y-67216076D01*
X97444292Y-67462311D01*
X97757689Y-67775708D01*
X97921846Y-68021386D01*
X98003925Y-68144226D01*
X98064117Y-68289544D01*
X98173534Y-68553699D01*
X98260000Y-68988394D01*
X98260000Y-69431606D01*
X98173534Y-69866301D01*
X98140703Y-69945562D01*
X98003925Y-70275774D01*
X97959431Y-70342364D01*
X97757689Y-70644292D01*
X97444292Y-70957689D01*
X97198614Y-71121846D01*
X97075774Y-71203925D01*
X96845117Y-71299466D01*
X96666301Y-71373534D01*
X96448953Y-71416767D01*
X96231607Y-71460000D01*
X95788393Y-71460000D01*
X95571047Y-71416767D01*
X95353699Y-71373534D01*
X95174883Y-71299466D01*
X94944226Y-71203925D01*
X94821386Y-71121846D01*
X94575708Y-70957689D01*
X94262311Y-70644292D01*
X94060569Y-70342364D01*
X94016075Y-70275774D01*
X93879297Y-69945562D01*
X93846466Y-69866301D01*
X93760000Y-69431606D01*
X93760000Y-68988394D01*
X93846466Y-68553699D01*
X93955883Y-68289544D01*
X94016075Y-68144226D01*
X94098154Y-68021386D01*
X94262311Y-67775708D01*
X94575708Y-67462311D01*
X94944225Y-67216076D01*
X94944226Y-67216075D01*
X95184090Y-67116720D01*
X95353699Y-67046466D01*
X95788393Y-66960000D01*
X96231607Y-66960000D01*
X96666301Y-67046466D01*
X96666301Y-67046466D01*
G37*
G36*
X171866301Y-67046466D02*
X172035910Y-67116720D01*
X172275774Y-67216075D01*
X172275775Y-67216076D01*
X172644292Y-67462311D01*
X172957689Y-67775708D01*
X173121846Y-68021386D01*
X173203925Y-68144226D01*
X173264117Y-68289544D01*
X173373534Y-68553699D01*
X173460000Y-68988394D01*
X173460000Y-69431606D01*
X173373534Y-69866301D01*
X173340703Y-69945562D01*
X173203925Y-70275774D01*
X173159431Y-70342364D01*
X172957689Y-70644292D01*
X172644292Y-70957689D01*
X172398614Y-71121846D01*
X172275774Y-71203925D01*
X172045117Y-71299466D01*
X171866301Y-71373534D01*
X171648953Y-71416767D01*
X171431607Y-71460000D01*
X170988393Y-71460000D01*
X170771047Y-71416767D01*
X170553699Y-71373534D01*
X170374883Y-71299466D01*
X170144226Y-71203925D01*
X170021386Y-71121846D01*
X169775708Y-70957689D01*
X169462311Y-70644292D01*
X169260569Y-70342364D01*
X169216075Y-70275774D01*
X169079297Y-69945562D01*
X169046466Y-69866301D01*
X168960000Y-69431606D01*
X168960000Y-68988394D01*
X169046466Y-68553699D01*
X169155883Y-68289544D01*
X169216075Y-68144226D01*
X169298154Y-68021386D01*
X169462311Y-67775708D01*
X169775708Y-67462311D01*
X170144225Y-67216076D01*
X170144226Y-67216075D01*
X170384090Y-67116720D01*
X170553699Y-67046466D01*
X170988393Y-66960000D01*
X171431607Y-66960000D01*
X171866301Y-67046466D01*
X171866301Y-67046466D01*
G37*
G36*
X110824677Y-69829065D02*
X110862364Y-69840498D01*
X110897103Y-69859066D01*
X110927548Y-69884052D01*
X110952534Y-69914497D01*
X110971102Y-69949236D01*
X110982535Y-69986923D01*
X110987000Y-70032261D01*
X110987000Y-70868939D01*
X110982535Y-70914277D01*
X110971102Y-70951964D01*
X110952534Y-70986703D01*
X110927548Y-71017148D01*
X110897103Y-71042134D01*
X110862364Y-71060702D01*
X110824677Y-71072135D01*
X110779339Y-71076600D01*
X109692661Y-71076600D01*
X109647323Y-71072135D01*
X109609636Y-71060702D01*
X109574897Y-71042134D01*
X109544452Y-71017148D01*
X109519466Y-70986703D01*
X109500898Y-70951964D01*
X109489465Y-70914277D01*
X109485000Y-70868939D01*
X109485000Y-70032261D01*
X109489465Y-69986923D01*
X109500898Y-69949236D01*
X109519466Y-69914497D01*
X109544452Y-69884052D01*
X109574897Y-69859066D01*
X109609636Y-69840498D01*
X109647323Y-69829065D01*
X109692661Y-69824600D01*
X110779339Y-69824600D01*
X110824677Y-69829065D01*
X110824677Y-69829065D01*
G37*
G36*
X138409077Y-69219465D02*
X138446764Y-69230898D01*
X138481503Y-69249466D01*
X138511948Y-69274452D01*
X138536934Y-69304897D01*
X138555502Y-69339636D01*
X138566935Y-69377323D01*
X138571400Y-69422661D01*
X138571400Y-70259339D01*
X138566935Y-70304677D01*
X138555502Y-70342364D01*
X138536934Y-70377103D01*
X138511948Y-70407548D01*
X138481503Y-70432534D01*
X138446764Y-70451102D01*
X138409077Y-70462535D01*
X138363739Y-70467000D01*
X137277061Y-70467000D01*
X137231723Y-70462535D01*
X137194036Y-70451102D01*
X137159297Y-70432534D01*
X137128852Y-70407548D01*
X137103866Y-70377103D01*
X137085298Y-70342364D01*
X137073865Y-70304677D01*
X137069400Y-70259339D01*
X137069400Y-69422661D01*
X137073865Y-69377323D01*
X137085298Y-69339636D01*
X137103866Y-69304897D01*
X137128852Y-69274452D01*
X137159297Y-69249466D01*
X137194036Y-69230898D01*
X137231723Y-69219465D01*
X137277061Y-69215000D01*
X138363739Y-69215000D01*
X138409077Y-69219465D01*
X138409077Y-69219465D01*
G37*
G36*
X143090200Y-70293800D02*
X141288200Y-70293800D01*
X141288200Y-68491800D01*
X143090200Y-68491800D01*
X143090200Y-70293800D01*
X143090200Y-70293800D01*
G37*
G36*
X106398812Y-68221624D02*
X106562784Y-68289544D01*
X106710354Y-68388147D01*
X106835853Y-68513646D01*
X106934456Y-68661216D01*
X107002376Y-68825188D01*
X107037000Y-68999259D01*
X107037000Y-69176741D01*
X107002376Y-69350812D01*
X106934456Y-69514784D01*
X106835853Y-69662354D01*
X106710354Y-69787853D01*
X106562784Y-69886456D01*
X106398812Y-69954376D01*
X106224741Y-69989000D01*
X106047259Y-69989000D01*
X105873188Y-69954376D01*
X105709216Y-69886456D01*
X105561646Y-69787853D01*
X105436147Y-69662354D01*
X105337544Y-69514784D01*
X105269624Y-69350812D01*
X105235000Y-69176741D01*
X105235000Y-68999259D01*
X105269624Y-68825188D01*
X105337544Y-68661216D01*
X105436147Y-68513646D01*
X105561646Y-68388147D01*
X105709216Y-68289544D01*
X105873188Y-68221624D01*
X106047259Y-68187000D01*
X106224741Y-68187000D01*
X106398812Y-68221624D01*
X106398812Y-68221624D01*
G37*
G36*
X101898812Y-68221624D02*
X102062784Y-68289544D01*
X102210354Y-68388147D01*
X102335853Y-68513646D01*
X102434456Y-68661216D01*
X102502376Y-68825188D01*
X102537000Y-68999259D01*
X102537000Y-69176741D01*
X102502376Y-69350812D01*
X102434456Y-69514784D01*
X102335853Y-69662354D01*
X102210354Y-69787853D01*
X102062784Y-69886456D01*
X101898812Y-69954376D01*
X101724741Y-69989000D01*
X101547259Y-69989000D01*
X101373188Y-69954376D01*
X101209216Y-69886456D01*
X101061646Y-69787853D01*
X100936147Y-69662354D01*
X100837544Y-69514784D01*
X100769624Y-69350812D01*
X100735000Y-69176741D01*
X100735000Y-68999259D01*
X100769624Y-68825188D01*
X100837544Y-68661216D01*
X100936147Y-68513646D01*
X101061646Y-68388147D01*
X101209216Y-68289544D01*
X101373188Y-68221624D01*
X101547259Y-68187000D01*
X101724741Y-68187000D01*
X101898812Y-68221624D01*
X101898812Y-68221624D01*
G37*
M02*
