G04 #@! TF.GenerationSoftware,KiCad,Pcbnew,5.0.2-bee76a0~70~ubuntu18.04.1*
G04 #@! TF.CreationDate,2019-02-28T13:46:31+03:00*
G04 #@! TF.ProjectId,sensor-node,73656e73-6f72-42d6-9e6f-64652e6b6963,1*
G04 #@! TF.SameCoordinates,Original*
G04 #@! TF.FileFunction,Paste,Top*
G04 #@! TF.FilePolarity,Positive*
%FSLAX46Y46*%
G04 Gerber Fmt 4.6, Leading zero omitted, Abs format (unit mm)*
G04 Created by KiCad (PCBNEW 5.0.2-bee76a0~70~ubuntu18.04.1) date Thu 28 Feb 2019 13:46:31 EAT*
%MOMM*%
%LPD*%
G01*
G04 APERTURE LIST*
%ADD10C,0.100000*%
%ADD11R,1.800000X3.500000*%
%ADD12R,0.900000X0.800000*%
%ADD13C,1.150000*%
%ADD14R,1.550000X0.600000*%
%ADD15C,1.500000*%
%ADD16C,1.000000*%
%ADD17R,0.650000X1.060000*%
%ADD18R,2.300000X2.500000*%
%ADD19R,2.500000X2.300000*%
%ADD20C,1.425000*%
%ADD21C,2.100000*%
%ADD22C,0.800000*%
%ADD23R,3.500000X1.800000*%
%ADD24R,1.450000X0.930000*%
%ADD25R,4.000000X4.000000*%
%ADD26R,1.500000X0.450000*%
%ADD27R,0.800000X0.900000*%
%ADD28R,3.400000X1.800000*%
%ADD29R,1.000000X1.500000*%
G04 APERTURE END LIST*
D10*
G04 #@! TO.C,U3*
G36*
X105682530Y-99611000D02*
X108216000Y-99611000D01*
X108216000Y-102142044D01*
X105682530Y-102142044D01*
X105682530Y-99611000D01*
G37*
G04 #@! TD*
D11*
G04 #@! TO.C,D17*
X151384000Y-118578000D03*
X151384000Y-113578000D03*
G04 #@! TD*
D12*
G04 #@! TO.C,Q9*
X154956000Y-112080000D03*
X154956000Y-113980000D03*
X156956000Y-113030000D03*
G04 #@! TD*
D10*
G04 #@! TO.C,C18*
G36*
X99968305Y-75298004D02*
X99992573Y-75301604D01*
X100016372Y-75307565D01*
X100039471Y-75315830D01*
X100061650Y-75326320D01*
X100082693Y-75338932D01*
X100102399Y-75353547D01*
X100120577Y-75370023D01*
X100137053Y-75388201D01*
X100151668Y-75407907D01*
X100164280Y-75428950D01*
X100174770Y-75451129D01*
X100183035Y-75474228D01*
X100188996Y-75498027D01*
X100192596Y-75522295D01*
X100193800Y-75546799D01*
X100193800Y-76446801D01*
X100192596Y-76471305D01*
X100188996Y-76495573D01*
X100183035Y-76519372D01*
X100174770Y-76542471D01*
X100164280Y-76564650D01*
X100151668Y-76585693D01*
X100137053Y-76605399D01*
X100120577Y-76623577D01*
X100102399Y-76640053D01*
X100082693Y-76654668D01*
X100061650Y-76667280D01*
X100039471Y-76677770D01*
X100016372Y-76686035D01*
X99992573Y-76691996D01*
X99968305Y-76695596D01*
X99943801Y-76696800D01*
X99293799Y-76696800D01*
X99269295Y-76695596D01*
X99245027Y-76691996D01*
X99221228Y-76686035D01*
X99198129Y-76677770D01*
X99175950Y-76667280D01*
X99154907Y-76654668D01*
X99135201Y-76640053D01*
X99117023Y-76623577D01*
X99100547Y-76605399D01*
X99085932Y-76585693D01*
X99073320Y-76564650D01*
X99062830Y-76542471D01*
X99054565Y-76519372D01*
X99048604Y-76495573D01*
X99045004Y-76471305D01*
X99043800Y-76446801D01*
X99043800Y-75546799D01*
X99045004Y-75522295D01*
X99048604Y-75498027D01*
X99054565Y-75474228D01*
X99062830Y-75451129D01*
X99073320Y-75428950D01*
X99085932Y-75407907D01*
X99100547Y-75388201D01*
X99117023Y-75370023D01*
X99135201Y-75353547D01*
X99154907Y-75338932D01*
X99175950Y-75326320D01*
X99198129Y-75315830D01*
X99221228Y-75307565D01*
X99245027Y-75301604D01*
X99269295Y-75298004D01*
X99293799Y-75296800D01*
X99943801Y-75296800D01*
X99968305Y-75298004D01*
X99968305Y-75298004D01*
G37*
D13*
X99618800Y-75996800D03*
D10*
G36*
X97918305Y-75298004D02*
X97942573Y-75301604D01*
X97966372Y-75307565D01*
X97989471Y-75315830D01*
X98011650Y-75326320D01*
X98032693Y-75338932D01*
X98052399Y-75353547D01*
X98070577Y-75370023D01*
X98087053Y-75388201D01*
X98101668Y-75407907D01*
X98114280Y-75428950D01*
X98124770Y-75451129D01*
X98133035Y-75474228D01*
X98138996Y-75498027D01*
X98142596Y-75522295D01*
X98143800Y-75546799D01*
X98143800Y-76446801D01*
X98142596Y-76471305D01*
X98138996Y-76495573D01*
X98133035Y-76519372D01*
X98124770Y-76542471D01*
X98114280Y-76564650D01*
X98101668Y-76585693D01*
X98087053Y-76605399D01*
X98070577Y-76623577D01*
X98052399Y-76640053D01*
X98032693Y-76654668D01*
X98011650Y-76667280D01*
X97989471Y-76677770D01*
X97966372Y-76686035D01*
X97942573Y-76691996D01*
X97918305Y-76695596D01*
X97893801Y-76696800D01*
X97243799Y-76696800D01*
X97219295Y-76695596D01*
X97195027Y-76691996D01*
X97171228Y-76686035D01*
X97148129Y-76677770D01*
X97125950Y-76667280D01*
X97104907Y-76654668D01*
X97085201Y-76640053D01*
X97067023Y-76623577D01*
X97050547Y-76605399D01*
X97035932Y-76585693D01*
X97023320Y-76564650D01*
X97012830Y-76542471D01*
X97004565Y-76519372D01*
X96998604Y-76495573D01*
X96995004Y-76471305D01*
X96993800Y-76446801D01*
X96993800Y-75546799D01*
X96995004Y-75522295D01*
X96998604Y-75498027D01*
X97004565Y-75474228D01*
X97012830Y-75451129D01*
X97023320Y-75428950D01*
X97035932Y-75407907D01*
X97050547Y-75388201D01*
X97067023Y-75370023D01*
X97085201Y-75353547D01*
X97104907Y-75338932D01*
X97125950Y-75326320D01*
X97148129Y-75315830D01*
X97171228Y-75307565D01*
X97195027Y-75301604D01*
X97219295Y-75298004D01*
X97243799Y-75296800D01*
X97893801Y-75296800D01*
X97918305Y-75298004D01*
X97918305Y-75298004D01*
G37*
D13*
X97568800Y-75996800D03*
G04 #@! TD*
D10*
G04 #@! TO.C,C17*
G36*
X103210505Y-75298004D02*
X103234773Y-75301604D01*
X103258572Y-75307565D01*
X103281671Y-75315830D01*
X103303850Y-75326320D01*
X103324893Y-75338932D01*
X103344599Y-75353547D01*
X103362777Y-75370023D01*
X103379253Y-75388201D01*
X103393868Y-75407907D01*
X103406480Y-75428950D01*
X103416970Y-75451129D01*
X103425235Y-75474228D01*
X103431196Y-75498027D01*
X103434796Y-75522295D01*
X103436000Y-75546799D01*
X103436000Y-76446801D01*
X103434796Y-76471305D01*
X103431196Y-76495573D01*
X103425235Y-76519372D01*
X103416970Y-76542471D01*
X103406480Y-76564650D01*
X103393868Y-76585693D01*
X103379253Y-76605399D01*
X103362777Y-76623577D01*
X103344599Y-76640053D01*
X103324893Y-76654668D01*
X103303850Y-76667280D01*
X103281671Y-76677770D01*
X103258572Y-76686035D01*
X103234773Y-76691996D01*
X103210505Y-76695596D01*
X103186001Y-76696800D01*
X102535999Y-76696800D01*
X102511495Y-76695596D01*
X102487227Y-76691996D01*
X102463428Y-76686035D01*
X102440329Y-76677770D01*
X102418150Y-76667280D01*
X102397107Y-76654668D01*
X102377401Y-76640053D01*
X102359223Y-76623577D01*
X102342747Y-76605399D01*
X102328132Y-76585693D01*
X102315520Y-76564650D01*
X102305030Y-76542471D01*
X102296765Y-76519372D01*
X102290804Y-76495573D01*
X102287204Y-76471305D01*
X102286000Y-76446801D01*
X102286000Y-75546799D01*
X102287204Y-75522295D01*
X102290804Y-75498027D01*
X102296765Y-75474228D01*
X102305030Y-75451129D01*
X102315520Y-75428950D01*
X102328132Y-75407907D01*
X102342747Y-75388201D01*
X102359223Y-75370023D01*
X102377401Y-75353547D01*
X102397107Y-75338932D01*
X102418150Y-75326320D01*
X102440329Y-75315830D01*
X102463428Y-75307565D01*
X102487227Y-75301604D01*
X102511495Y-75298004D01*
X102535999Y-75296800D01*
X103186001Y-75296800D01*
X103210505Y-75298004D01*
X103210505Y-75298004D01*
G37*
D13*
X102861000Y-75996800D03*
D10*
G36*
X105260505Y-75298004D02*
X105284773Y-75301604D01*
X105308572Y-75307565D01*
X105331671Y-75315830D01*
X105353850Y-75326320D01*
X105374893Y-75338932D01*
X105394599Y-75353547D01*
X105412777Y-75370023D01*
X105429253Y-75388201D01*
X105443868Y-75407907D01*
X105456480Y-75428950D01*
X105466970Y-75451129D01*
X105475235Y-75474228D01*
X105481196Y-75498027D01*
X105484796Y-75522295D01*
X105486000Y-75546799D01*
X105486000Y-76446801D01*
X105484796Y-76471305D01*
X105481196Y-76495573D01*
X105475235Y-76519372D01*
X105466970Y-76542471D01*
X105456480Y-76564650D01*
X105443868Y-76585693D01*
X105429253Y-76605399D01*
X105412777Y-76623577D01*
X105394599Y-76640053D01*
X105374893Y-76654668D01*
X105353850Y-76667280D01*
X105331671Y-76677770D01*
X105308572Y-76686035D01*
X105284773Y-76691996D01*
X105260505Y-76695596D01*
X105236001Y-76696800D01*
X104585999Y-76696800D01*
X104561495Y-76695596D01*
X104537227Y-76691996D01*
X104513428Y-76686035D01*
X104490329Y-76677770D01*
X104468150Y-76667280D01*
X104447107Y-76654668D01*
X104427401Y-76640053D01*
X104409223Y-76623577D01*
X104392747Y-76605399D01*
X104378132Y-76585693D01*
X104365520Y-76564650D01*
X104355030Y-76542471D01*
X104346765Y-76519372D01*
X104340804Y-76495573D01*
X104337204Y-76471305D01*
X104336000Y-76446801D01*
X104336000Y-75546799D01*
X104337204Y-75522295D01*
X104340804Y-75498027D01*
X104346765Y-75474228D01*
X104355030Y-75451129D01*
X104365520Y-75428950D01*
X104378132Y-75407907D01*
X104392747Y-75388201D01*
X104409223Y-75370023D01*
X104427401Y-75353547D01*
X104447107Y-75338932D01*
X104468150Y-75326320D01*
X104490329Y-75315830D01*
X104513428Y-75307565D01*
X104537227Y-75301604D01*
X104561495Y-75298004D01*
X104585999Y-75296800D01*
X105236001Y-75296800D01*
X105260505Y-75298004D01*
X105260505Y-75298004D01*
G37*
D13*
X104911000Y-75996800D03*
G04 #@! TD*
D14*
G04 #@! TO.C,U9*
X99662000Y-77698600D03*
X99662000Y-78968600D03*
X99662000Y-80238600D03*
X99662000Y-81508600D03*
X105062000Y-81508600D03*
X105062000Y-80238600D03*
X105062000Y-78968600D03*
X105062000Y-77698600D03*
G04 #@! TD*
D10*
G04 #@! TO.C,C14*
G36*
X110710505Y-71926804D02*
X110734773Y-71930404D01*
X110758572Y-71936365D01*
X110781671Y-71944630D01*
X110803850Y-71955120D01*
X110824893Y-71967732D01*
X110844599Y-71982347D01*
X110862777Y-71998823D01*
X110879253Y-72017001D01*
X110893868Y-72036707D01*
X110906480Y-72057750D01*
X110916970Y-72079929D01*
X110925235Y-72103028D01*
X110931196Y-72126827D01*
X110934796Y-72151095D01*
X110936000Y-72175599D01*
X110936000Y-72825601D01*
X110934796Y-72850105D01*
X110931196Y-72874373D01*
X110925235Y-72898172D01*
X110916970Y-72921271D01*
X110906480Y-72943450D01*
X110893868Y-72964493D01*
X110879253Y-72984199D01*
X110862777Y-73002377D01*
X110844599Y-73018853D01*
X110824893Y-73033468D01*
X110803850Y-73046080D01*
X110781671Y-73056570D01*
X110758572Y-73064835D01*
X110734773Y-73070796D01*
X110710505Y-73074396D01*
X110686001Y-73075600D01*
X109785999Y-73075600D01*
X109761495Y-73074396D01*
X109737227Y-73070796D01*
X109713428Y-73064835D01*
X109690329Y-73056570D01*
X109668150Y-73046080D01*
X109647107Y-73033468D01*
X109627401Y-73018853D01*
X109609223Y-73002377D01*
X109592747Y-72984199D01*
X109578132Y-72964493D01*
X109565520Y-72943450D01*
X109555030Y-72921271D01*
X109546765Y-72898172D01*
X109540804Y-72874373D01*
X109537204Y-72850105D01*
X109536000Y-72825601D01*
X109536000Y-72175599D01*
X109537204Y-72151095D01*
X109540804Y-72126827D01*
X109546765Y-72103028D01*
X109555030Y-72079929D01*
X109565520Y-72057750D01*
X109578132Y-72036707D01*
X109592747Y-72017001D01*
X109609223Y-71998823D01*
X109627401Y-71982347D01*
X109647107Y-71967732D01*
X109668150Y-71955120D01*
X109690329Y-71944630D01*
X109713428Y-71936365D01*
X109737227Y-71930404D01*
X109761495Y-71926804D01*
X109785999Y-71925600D01*
X110686001Y-71925600D01*
X110710505Y-71926804D01*
X110710505Y-71926804D01*
G37*
D13*
X110236000Y-72500600D03*
D10*
G36*
X110710505Y-69876804D02*
X110734773Y-69880404D01*
X110758572Y-69886365D01*
X110781671Y-69894630D01*
X110803850Y-69905120D01*
X110824893Y-69917732D01*
X110844599Y-69932347D01*
X110862777Y-69948823D01*
X110879253Y-69967001D01*
X110893868Y-69986707D01*
X110906480Y-70007750D01*
X110916970Y-70029929D01*
X110925235Y-70053028D01*
X110931196Y-70076827D01*
X110934796Y-70101095D01*
X110936000Y-70125599D01*
X110936000Y-70775601D01*
X110934796Y-70800105D01*
X110931196Y-70824373D01*
X110925235Y-70848172D01*
X110916970Y-70871271D01*
X110906480Y-70893450D01*
X110893868Y-70914493D01*
X110879253Y-70934199D01*
X110862777Y-70952377D01*
X110844599Y-70968853D01*
X110824893Y-70983468D01*
X110803850Y-70996080D01*
X110781671Y-71006570D01*
X110758572Y-71014835D01*
X110734773Y-71020796D01*
X110710505Y-71024396D01*
X110686001Y-71025600D01*
X109785999Y-71025600D01*
X109761495Y-71024396D01*
X109737227Y-71020796D01*
X109713428Y-71014835D01*
X109690329Y-71006570D01*
X109668150Y-70996080D01*
X109647107Y-70983468D01*
X109627401Y-70968853D01*
X109609223Y-70952377D01*
X109592747Y-70934199D01*
X109578132Y-70914493D01*
X109565520Y-70893450D01*
X109555030Y-70871271D01*
X109546765Y-70848172D01*
X109540804Y-70824373D01*
X109537204Y-70800105D01*
X109536000Y-70775601D01*
X109536000Y-70125599D01*
X109537204Y-70101095D01*
X109540804Y-70076827D01*
X109546765Y-70053028D01*
X109555030Y-70029929D01*
X109565520Y-70007750D01*
X109578132Y-69986707D01*
X109592747Y-69967001D01*
X109609223Y-69948823D01*
X109627401Y-69932347D01*
X109647107Y-69917732D01*
X109668150Y-69905120D01*
X109690329Y-69894630D01*
X109713428Y-69886365D01*
X109737227Y-69880404D01*
X109761495Y-69876804D01*
X109785999Y-69875600D01*
X110686001Y-69875600D01*
X110710505Y-69876804D01*
X110710505Y-69876804D01*
G37*
D13*
X110236000Y-70450600D03*
G04 #@! TD*
D10*
G04 #@! TO.C,C15*
G36*
X161815305Y-119526404D02*
X161839573Y-119530004D01*
X161863372Y-119535965D01*
X161886471Y-119544230D01*
X161908650Y-119554720D01*
X161929693Y-119567332D01*
X161949399Y-119581947D01*
X161967577Y-119598423D01*
X161984053Y-119616601D01*
X161998668Y-119636307D01*
X162011280Y-119657350D01*
X162021770Y-119679529D01*
X162030035Y-119702628D01*
X162035996Y-119726427D01*
X162039596Y-119750695D01*
X162040800Y-119775199D01*
X162040800Y-120425201D01*
X162039596Y-120449705D01*
X162035996Y-120473973D01*
X162030035Y-120497772D01*
X162021770Y-120520871D01*
X162011280Y-120543050D01*
X161998668Y-120564093D01*
X161984053Y-120583799D01*
X161967577Y-120601977D01*
X161949399Y-120618453D01*
X161929693Y-120633068D01*
X161908650Y-120645680D01*
X161886471Y-120656170D01*
X161863372Y-120664435D01*
X161839573Y-120670396D01*
X161815305Y-120673996D01*
X161790801Y-120675200D01*
X160890799Y-120675200D01*
X160866295Y-120673996D01*
X160842027Y-120670396D01*
X160818228Y-120664435D01*
X160795129Y-120656170D01*
X160772950Y-120645680D01*
X160751907Y-120633068D01*
X160732201Y-120618453D01*
X160714023Y-120601977D01*
X160697547Y-120583799D01*
X160682932Y-120564093D01*
X160670320Y-120543050D01*
X160659830Y-120520871D01*
X160651565Y-120497772D01*
X160645604Y-120473973D01*
X160642004Y-120449705D01*
X160640800Y-120425201D01*
X160640800Y-119775199D01*
X160642004Y-119750695D01*
X160645604Y-119726427D01*
X160651565Y-119702628D01*
X160659830Y-119679529D01*
X160670320Y-119657350D01*
X160682932Y-119636307D01*
X160697547Y-119616601D01*
X160714023Y-119598423D01*
X160732201Y-119581947D01*
X160751907Y-119567332D01*
X160772950Y-119554720D01*
X160795129Y-119544230D01*
X160818228Y-119535965D01*
X160842027Y-119530004D01*
X160866295Y-119526404D01*
X160890799Y-119525200D01*
X161790801Y-119525200D01*
X161815305Y-119526404D01*
X161815305Y-119526404D01*
G37*
D13*
X161340800Y-120100200D03*
D10*
G36*
X161815305Y-117476404D02*
X161839573Y-117480004D01*
X161863372Y-117485965D01*
X161886471Y-117494230D01*
X161908650Y-117504720D01*
X161929693Y-117517332D01*
X161949399Y-117531947D01*
X161967577Y-117548423D01*
X161984053Y-117566601D01*
X161998668Y-117586307D01*
X162011280Y-117607350D01*
X162021770Y-117629529D01*
X162030035Y-117652628D01*
X162035996Y-117676427D01*
X162039596Y-117700695D01*
X162040800Y-117725199D01*
X162040800Y-118375201D01*
X162039596Y-118399705D01*
X162035996Y-118423973D01*
X162030035Y-118447772D01*
X162021770Y-118470871D01*
X162011280Y-118493050D01*
X161998668Y-118514093D01*
X161984053Y-118533799D01*
X161967577Y-118551977D01*
X161949399Y-118568453D01*
X161929693Y-118583068D01*
X161908650Y-118595680D01*
X161886471Y-118606170D01*
X161863372Y-118614435D01*
X161839573Y-118620396D01*
X161815305Y-118623996D01*
X161790801Y-118625200D01*
X160890799Y-118625200D01*
X160866295Y-118623996D01*
X160842027Y-118620396D01*
X160818228Y-118614435D01*
X160795129Y-118606170D01*
X160772950Y-118595680D01*
X160751907Y-118583068D01*
X160732201Y-118568453D01*
X160714023Y-118551977D01*
X160697547Y-118533799D01*
X160682932Y-118514093D01*
X160670320Y-118493050D01*
X160659830Y-118470871D01*
X160651565Y-118447772D01*
X160645604Y-118423973D01*
X160642004Y-118399705D01*
X160640800Y-118375201D01*
X160640800Y-117725199D01*
X160642004Y-117700695D01*
X160645604Y-117676427D01*
X160651565Y-117652628D01*
X160659830Y-117629529D01*
X160670320Y-117607350D01*
X160682932Y-117586307D01*
X160697547Y-117566601D01*
X160714023Y-117548423D01*
X160732201Y-117531947D01*
X160751907Y-117517332D01*
X160772950Y-117504720D01*
X160795129Y-117494230D01*
X160818228Y-117485965D01*
X160842027Y-117480004D01*
X160866295Y-117476404D01*
X160890799Y-117475200D01*
X161790801Y-117475200D01*
X161815305Y-117476404D01*
X161815305Y-117476404D01*
G37*
D13*
X161340800Y-118050200D03*
G04 #@! TD*
D10*
G04 #@! TO.C,C16*
G36*
X159649305Y-114871204D02*
X159673573Y-114874804D01*
X159697372Y-114880765D01*
X159720471Y-114889030D01*
X159742650Y-114899520D01*
X159763693Y-114912132D01*
X159783399Y-114926747D01*
X159801577Y-114943223D01*
X159818053Y-114961401D01*
X159832668Y-114981107D01*
X159845280Y-115002150D01*
X159855770Y-115024329D01*
X159864035Y-115047428D01*
X159869996Y-115071227D01*
X159873596Y-115095495D01*
X159874800Y-115119999D01*
X159874800Y-116020001D01*
X159873596Y-116044505D01*
X159869996Y-116068773D01*
X159864035Y-116092572D01*
X159855770Y-116115671D01*
X159845280Y-116137850D01*
X159832668Y-116158893D01*
X159818053Y-116178599D01*
X159801577Y-116196777D01*
X159783399Y-116213253D01*
X159763693Y-116227868D01*
X159742650Y-116240480D01*
X159720471Y-116250970D01*
X159697372Y-116259235D01*
X159673573Y-116265196D01*
X159649305Y-116268796D01*
X159624801Y-116270000D01*
X158974799Y-116270000D01*
X158950295Y-116268796D01*
X158926027Y-116265196D01*
X158902228Y-116259235D01*
X158879129Y-116250970D01*
X158856950Y-116240480D01*
X158835907Y-116227868D01*
X158816201Y-116213253D01*
X158798023Y-116196777D01*
X158781547Y-116178599D01*
X158766932Y-116158893D01*
X158754320Y-116137850D01*
X158743830Y-116115671D01*
X158735565Y-116092572D01*
X158729604Y-116068773D01*
X158726004Y-116044505D01*
X158724800Y-116020001D01*
X158724800Y-115119999D01*
X158726004Y-115095495D01*
X158729604Y-115071227D01*
X158735565Y-115047428D01*
X158743830Y-115024329D01*
X158754320Y-115002150D01*
X158766932Y-114981107D01*
X158781547Y-114961401D01*
X158798023Y-114943223D01*
X158816201Y-114926747D01*
X158835907Y-114912132D01*
X158856950Y-114899520D01*
X158879129Y-114889030D01*
X158902228Y-114880765D01*
X158926027Y-114874804D01*
X158950295Y-114871204D01*
X158974799Y-114870000D01*
X159624801Y-114870000D01*
X159649305Y-114871204D01*
X159649305Y-114871204D01*
G37*
D13*
X159299800Y-115570000D03*
D10*
G36*
X161699305Y-114871204D02*
X161723573Y-114874804D01*
X161747372Y-114880765D01*
X161770471Y-114889030D01*
X161792650Y-114899520D01*
X161813693Y-114912132D01*
X161833399Y-114926747D01*
X161851577Y-114943223D01*
X161868053Y-114961401D01*
X161882668Y-114981107D01*
X161895280Y-115002150D01*
X161905770Y-115024329D01*
X161914035Y-115047428D01*
X161919996Y-115071227D01*
X161923596Y-115095495D01*
X161924800Y-115119999D01*
X161924800Y-116020001D01*
X161923596Y-116044505D01*
X161919996Y-116068773D01*
X161914035Y-116092572D01*
X161905770Y-116115671D01*
X161895280Y-116137850D01*
X161882668Y-116158893D01*
X161868053Y-116178599D01*
X161851577Y-116196777D01*
X161833399Y-116213253D01*
X161813693Y-116227868D01*
X161792650Y-116240480D01*
X161770471Y-116250970D01*
X161747372Y-116259235D01*
X161723573Y-116265196D01*
X161699305Y-116268796D01*
X161674801Y-116270000D01*
X161024799Y-116270000D01*
X161000295Y-116268796D01*
X160976027Y-116265196D01*
X160952228Y-116259235D01*
X160929129Y-116250970D01*
X160906950Y-116240480D01*
X160885907Y-116227868D01*
X160866201Y-116213253D01*
X160848023Y-116196777D01*
X160831547Y-116178599D01*
X160816932Y-116158893D01*
X160804320Y-116137850D01*
X160793830Y-116115671D01*
X160785565Y-116092572D01*
X160779604Y-116068773D01*
X160776004Y-116044505D01*
X160774800Y-116020001D01*
X160774800Y-115119999D01*
X160776004Y-115095495D01*
X160779604Y-115071227D01*
X160785565Y-115047428D01*
X160793830Y-115024329D01*
X160804320Y-115002150D01*
X160816932Y-114981107D01*
X160831547Y-114961401D01*
X160848023Y-114943223D01*
X160866201Y-114926747D01*
X160885907Y-114912132D01*
X160906950Y-114899520D01*
X160929129Y-114889030D01*
X160952228Y-114880765D01*
X160976027Y-114874804D01*
X161000295Y-114871204D01*
X161024799Y-114870000D01*
X161674801Y-114870000D01*
X161699305Y-114871204D01*
X161699305Y-114871204D01*
G37*
D13*
X161349800Y-115570000D03*
G04 #@! TD*
D10*
G04 #@! TO.C,BT2*
G36*
X156127704Y-131291204D02*
X156151973Y-131294804D01*
X156175771Y-131300765D01*
X156198871Y-131309030D01*
X156221049Y-131319520D01*
X156242093Y-131332133D01*
X156261798Y-131346747D01*
X156279977Y-131363223D01*
X156296453Y-131381402D01*
X156311067Y-131401107D01*
X156323680Y-131422151D01*
X156334170Y-131444329D01*
X156342435Y-131467429D01*
X156348396Y-131491227D01*
X156351996Y-131515496D01*
X156353200Y-131540000D01*
X156353200Y-134440000D01*
X156351996Y-134464504D01*
X156348396Y-134488773D01*
X156342435Y-134512571D01*
X156334170Y-134535671D01*
X156323680Y-134557849D01*
X156311067Y-134578893D01*
X156296453Y-134598598D01*
X156279977Y-134616777D01*
X156261798Y-134633253D01*
X156242093Y-134647867D01*
X156221049Y-134660480D01*
X156198871Y-134670970D01*
X156175771Y-134679235D01*
X156151973Y-134685196D01*
X156127704Y-134688796D01*
X156103200Y-134690000D01*
X155103200Y-134690000D01*
X155078696Y-134688796D01*
X155054427Y-134685196D01*
X155030629Y-134679235D01*
X155007529Y-134670970D01*
X154985351Y-134660480D01*
X154964307Y-134647867D01*
X154944602Y-134633253D01*
X154926423Y-134616777D01*
X154909947Y-134598598D01*
X154895333Y-134578893D01*
X154882720Y-134557849D01*
X154872230Y-134535671D01*
X154863965Y-134512571D01*
X154858004Y-134488773D01*
X154854404Y-134464504D01*
X154853200Y-134440000D01*
X154853200Y-131540000D01*
X154854404Y-131515496D01*
X154858004Y-131491227D01*
X154863965Y-131467429D01*
X154872230Y-131444329D01*
X154882720Y-131422151D01*
X154895333Y-131401107D01*
X154909947Y-131381402D01*
X154926423Y-131363223D01*
X154944602Y-131346747D01*
X154964307Y-131332133D01*
X154985351Y-131319520D01*
X155007529Y-131309030D01*
X155030629Y-131300765D01*
X155054427Y-131294804D01*
X155078696Y-131291204D01*
X155103200Y-131290000D01*
X156103200Y-131290000D01*
X156127704Y-131291204D01*
X156127704Y-131291204D01*
G37*
D15*
X155603200Y-132990000D03*
D10*
G36*
X162827704Y-131291204D02*
X162851973Y-131294804D01*
X162875771Y-131300765D01*
X162898871Y-131309030D01*
X162921049Y-131319520D01*
X162942093Y-131332133D01*
X162961798Y-131346747D01*
X162979977Y-131363223D01*
X162996453Y-131381402D01*
X163011067Y-131401107D01*
X163023680Y-131422151D01*
X163034170Y-131444329D01*
X163042435Y-131467429D01*
X163048396Y-131491227D01*
X163051996Y-131515496D01*
X163053200Y-131540000D01*
X163053200Y-134440000D01*
X163051996Y-134464504D01*
X163048396Y-134488773D01*
X163042435Y-134512571D01*
X163034170Y-134535671D01*
X163023680Y-134557849D01*
X163011067Y-134578893D01*
X162996453Y-134598598D01*
X162979977Y-134616777D01*
X162961798Y-134633253D01*
X162942093Y-134647867D01*
X162921049Y-134660480D01*
X162898871Y-134670970D01*
X162875771Y-134679235D01*
X162851973Y-134685196D01*
X162827704Y-134688796D01*
X162803200Y-134690000D01*
X161803200Y-134690000D01*
X161778696Y-134688796D01*
X161754427Y-134685196D01*
X161730629Y-134679235D01*
X161707529Y-134670970D01*
X161685351Y-134660480D01*
X161664307Y-134647867D01*
X161644602Y-134633253D01*
X161626423Y-134616777D01*
X161609947Y-134598598D01*
X161595333Y-134578893D01*
X161582720Y-134557849D01*
X161572230Y-134535671D01*
X161563965Y-134512571D01*
X161558004Y-134488773D01*
X161554404Y-134464504D01*
X161553200Y-134440000D01*
X161553200Y-131540000D01*
X161554404Y-131515496D01*
X161558004Y-131491227D01*
X161563965Y-131467429D01*
X161572230Y-131444329D01*
X161582720Y-131422151D01*
X161595333Y-131401107D01*
X161609947Y-131381402D01*
X161626423Y-131363223D01*
X161644602Y-131346747D01*
X161664307Y-131332133D01*
X161685351Y-131319520D01*
X161707529Y-131309030D01*
X161730629Y-131300765D01*
X161754427Y-131294804D01*
X161778696Y-131291204D01*
X161803200Y-131290000D01*
X162803200Y-131290000D01*
X162827704Y-131291204D01*
X162827704Y-131291204D01*
G37*
D15*
X162303200Y-132990000D03*
D10*
G36*
X158227704Y-136991204D02*
X158251973Y-136994804D01*
X158275771Y-137000765D01*
X158298871Y-137009030D01*
X158321049Y-137019520D01*
X158342093Y-137032133D01*
X158361798Y-137046747D01*
X158379977Y-137063223D01*
X158396453Y-137081402D01*
X158411067Y-137101107D01*
X158423680Y-137122151D01*
X158434170Y-137144329D01*
X158442435Y-137167429D01*
X158448396Y-137191227D01*
X158451996Y-137215496D01*
X158453200Y-137240000D01*
X158453200Y-140240000D01*
X158451996Y-140264504D01*
X158448396Y-140288773D01*
X158442435Y-140312571D01*
X158434170Y-140335671D01*
X158423680Y-140357849D01*
X158411067Y-140378893D01*
X158396453Y-140398598D01*
X158379977Y-140416777D01*
X158361798Y-140433253D01*
X158342093Y-140447867D01*
X158321049Y-140460480D01*
X158298871Y-140470970D01*
X158275771Y-140479235D01*
X158251973Y-140485196D01*
X158227704Y-140488796D01*
X158203200Y-140490000D01*
X157703200Y-140490000D01*
X157678696Y-140488796D01*
X157654427Y-140485196D01*
X157630629Y-140479235D01*
X157607529Y-140470970D01*
X157585351Y-140460480D01*
X157564307Y-140447867D01*
X157544602Y-140433253D01*
X157526423Y-140416777D01*
X157509947Y-140398598D01*
X157495333Y-140378893D01*
X157482720Y-140357849D01*
X157472230Y-140335671D01*
X157463965Y-140312571D01*
X157458004Y-140288773D01*
X157454404Y-140264504D01*
X157453200Y-140240000D01*
X157453200Y-137240000D01*
X157454404Y-137215496D01*
X157458004Y-137191227D01*
X157463965Y-137167429D01*
X157472230Y-137144329D01*
X157482720Y-137122151D01*
X157495333Y-137101107D01*
X157509947Y-137081402D01*
X157526423Y-137063223D01*
X157544602Y-137046747D01*
X157564307Y-137032133D01*
X157585351Y-137019520D01*
X157607529Y-137009030D01*
X157630629Y-137000765D01*
X157654427Y-136994804D01*
X157678696Y-136991204D01*
X157703200Y-136990000D01*
X158203200Y-136990000D01*
X158227704Y-136991204D01*
X158227704Y-136991204D01*
G37*
D16*
X157953200Y-138740000D03*
D10*
G36*
X160227704Y-136991204D02*
X160251973Y-136994804D01*
X160275771Y-137000765D01*
X160298871Y-137009030D01*
X160321049Y-137019520D01*
X160342093Y-137032133D01*
X160361798Y-137046747D01*
X160379977Y-137063223D01*
X160396453Y-137081402D01*
X160411067Y-137101107D01*
X160423680Y-137122151D01*
X160434170Y-137144329D01*
X160442435Y-137167429D01*
X160448396Y-137191227D01*
X160451996Y-137215496D01*
X160453200Y-137240000D01*
X160453200Y-140240000D01*
X160451996Y-140264504D01*
X160448396Y-140288773D01*
X160442435Y-140312571D01*
X160434170Y-140335671D01*
X160423680Y-140357849D01*
X160411067Y-140378893D01*
X160396453Y-140398598D01*
X160379977Y-140416777D01*
X160361798Y-140433253D01*
X160342093Y-140447867D01*
X160321049Y-140460480D01*
X160298871Y-140470970D01*
X160275771Y-140479235D01*
X160251973Y-140485196D01*
X160227704Y-140488796D01*
X160203200Y-140490000D01*
X159703200Y-140490000D01*
X159678696Y-140488796D01*
X159654427Y-140485196D01*
X159630629Y-140479235D01*
X159607529Y-140470970D01*
X159585351Y-140460480D01*
X159564307Y-140447867D01*
X159544602Y-140433253D01*
X159526423Y-140416777D01*
X159509947Y-140398598D01*
X159495333Y-140378893D01*
X159482720Y-140357849D01*
X159472230Y-140335671D01*
X159463965Y-140312571D01*
X159458004Y-140288773D01*
X159454404Y-140264504D01*
X159453200Y-140240000D01*
X159453200Y-137240000D01*
X159454404Y-137215496D01*
X159458004Y-137191227D01*
X159463965Y-137167429D01*
X159472230Y-137144329D01*
X159482720Y-137122151D01*
X159495333Y-137101107D01*
X159509947Y-137081402D01*
X159526423Y-137063223D01*
X159544602Y-137046747D01*
X159564307Y-137032133D01*
X159585351Y-137019520D01*
X159607529Y-137009030D01*
X159630629Y-137000765D01*
X159654427Y-136994804D01*
X159678696Y-136991204D01*
X159703200Y-136990000D01*
X160203200Y-136990000D01*
X160227704Y-136991204D01*
X160227704Y-136991204D01*
G37*
D16*
X159953200Y-138740000D03*
G04 #@! TD*
D17*
G04 #@! TO.C,U8*
X157444400Y-120276800D03*
X158394400Y-120276800D03*
X159344400Y-120276800D03*
X159344400Y-118076800D03*
X157444400Y-118076800D03*
G04 #@! TD*
D10*
G04 #@! TO.C,R28*
G36*
X110608905Y-75058404D02*
X110633173Y-75062004D01*
X110656972Y-75067965D01*
X110680071Y-75076230D01*
X110702250Y-75086720D01*
X110723293Y-75099332D01*
X110742999Y-75113947D01*
X110761177Y-75130423D01*
X110777653Y-75148601D01*
X110792268Y-75168307D01*
X110804880Y-75189350D01*
X110815370Y-75211529D01*
X110823635Y-75234628D01*
X110829596Y-75258427D01*
X110833196Y-75282695D01*
X110834400Y-75307199D01*
X110834400Y-75957201D01*
X110833196Y-75981705D01*
X110829596Y-76005973D01*
X110823635Y-76029772D01*
X110815370Y-76052871D01*
X110804880Y-76075050D01*
X110792268Y-76096093D01*
X110777653Y-76115799D01*
X110761177Y-76133977D01*
X110742999Y-76150453D01*
X110723293Y-76165068D01*
X110702250Y-76177680D01*
X110680071Y-76188170D01*
X110656972Y-76196435D01*
X110633173Y-76202396D01*
X110608905Y-76205996D01*
X110584401Y-76207200D01*
X109684399Y-76207200D01*
X109659895Y-76205996D01*
X109635627Y-76202396D01*
X109611828Y-76196435D01*
X109588729Y-76188170D01*
X109566550Y-76177680D01*
X109545507Y-76165068D01*
X109525801Y-76150453D01*
X109507623Y-76133977D01*
X109491147Y-76115799D01*
X109476532Y-76096093D01*
X109463920Y-76075050D01*
X109453430Y-76052871D01*
X109445165Y-76029772D01*
X109439204Y-76005973D01*
X109435604Y-75981705D01*
X109434400Y-75957201D01*
X109434400Y-75307199D01*
X109435604Y-75282695D01*
X109439204Y-75258427D01*
X109445165Y-75234628D01*
X109453430Y-75211529D01*
X109463920Y-75189350D01*
X109476532Y-75168307D01*
X109491147Y-75148601D01*
X109507623Y-75130423D01*
X109525801Y-75113947D01*
X109545507Y-75099332D01*
X109566550Y-75086720D01*
X109588729Y-75076230D01*
X109611828Y-75067965D01*
X109635627Y-75062004D01*
X109659895Y-75058404D01*
X109684399Y-75057200D01*
X110584401Y-75057200D01*
X110608905Y-75058404D01*
X110608905Y-75058404D01*
G37*
D13*
X110134400Y-75632200D03*
D10*
G36*
X110608905Y-77108404D02*
X110633173Y-77112004D01*
X110656972Y-77117965D01*
X110680071Y-77126230D01*
X110702250Y-77136720D01*
X110723293Y-77149332D01*
X110742999Y-77163947D01*
X110761177Y-77180423D01*
X110777653Y-77198601D01*
X110792268Y-77218307D01*
X110804880Y-77239350D01*
X110815370Y-77261529D01*
X110823635Y-77284628D01*
X110829596Y-77308427D01*
X110833196Y-77332695D01*
X110834400Y-77357199D01*
X110834400Y-78007201D01*
X110833196Y-78031705D01*
X110829596Y-78055973D01*
X110823635Y-78079772D01*
X110815370Y-78102871D01*
X110804880Y-78125050D01*
X110792268Y-78146093D01*
X110777653Y-78165799D01*
X110761177Y-78183977D01*
X110742999Y-78200453D01*
X110723293Y-78215068D01*
X110702250Y-78227680D01*
X110680071Y-78238170D01*
X110656972Y-78246435D01*
X110633173Y-78252396D01*
X110608905Y-78255996D01*
X110584401Y-78257200D01*
X109684399Y-78257200D01*
X109659895Y-78255996D01*
X109635627Y-78252396D01*
X109611828Y-78246435D01*
X109588729Y-78238170D01*
X109566550Y-78227680D01*
X109545507Y-78215068D01*
X109525801Y-78200453D01*
X109507623Y-78183977D01*
X109491147Y-78165799D01*
X109476532Y-78146093D01*
X109463920Y-78125050D01*
X109453430Y-78102871D01*
X109445165Y-78079772D01*
X109439204Y-78055973D01*
X109435604Y-78031705D01*
X109434400Y-78007201D01*
X109434400Y-77357199D01*
X109435604Y-77332695D01*
X109439204Y-77308427D01*
X109445165Y-77284628D01*
X109453430Y-77261529D01*
X109463920Y-77239350D01*
X109476532Y-77218307D01*
X109491147Y-77198601D01*
X109507623Y-77180423D01*
X109525801Y-77163947D01*
X109545507Y-77149332D01*
X109566550Y-77136720D01*
X109588729Y-77126230D01*
X109611828Y-77117965D01*
X109635627Y-77112004D01*
X109659895Y-77108404D01*
X109684399Y-77107200D01*
X110584401Y-77107200D01*
X110608905Y-77108404D01*
X110608905Y-77108404D01*
G37*
D13*
X110134400Y-77682200D03*
G04 #@! TD*
D10*
G04 #@! TO.C,R30*
G36*
X155871705Y-119628004D02*
X155895973Y-119631604D01*
X155919772Y-119637565D01*
X155942871Y-119645830D01*
X155965050Y-119656320D01*
X155986093Y-119668932D01*
X156005799Y-119683547D01*
X156023977Y-119700023D01*
X156040453Y-119718201D01*
X156055068Y-119737907D01*
X156067680Y-119758950D01*
X156078170Y-119781129D01*
X156086435Y-119804228D01*
X156092396Y-119828027D01*
X156095996Y-119852295D01*
X156097200Y-119876799D01*
X156097200Y-120526801D01*
X156095996Y-120551305D01*
X156092396Y-120575573D01*
X156086435Y-120599372D01*
X156078170Y-120622471D01*
X156067680Y-120644650D01*
X156055068Y-120665693D01*
X156040453Y-120685399D01*
X156023977Y-120703577D01*
X156005799Y-120720053D01*
X155986093Y-120734668D01*
X155965050Y-120747280D01*
X155942871Y-120757770D01*
X155919772Y-120766035D01*
X155895973Y-120771996D01*
X155871705Y-120775596D01*
X155847201Y-120776800D01*
X154947199Y-120776800D01*
X154922695Y-120775596D01*
X154898427Y-120771996D01*
X154874628Y-120766035D01*
X154851529Y-120757770D01*
X154829350Y-120747280D01*
X154808307Y-120734668D01*
X154788601Y-120720053D01*
X154770423Y-120703577D01*
X154753947Y-120685399D01*
X154739332Y-120665693D01*
X154726720Y-120644650D01*
X154716230Y-120622471D01*
X154707965Y-120599372D01*
X154702004Y-120575573D01*
X154698404Y-120551305D01*
X154697200Y-120526801D01*
X154697200Y-119876799D01*
X154698404Y-119852295D01*
X154702004Y-119828027D01*
X154707965Y-119804228D01*
X154716230Y-119781129D01*
X154726720Y-119758950D01*
X154739332Y-119737907D01*
X154753947Y-119718201D01*
X154770423Y-119700023D01*
X154788601Y-119683547D01*
X154808307Y-119668932D01*
X154829350Y-119656320D01*
X154851529Y-119645830D01*
X154874628Y-119637565D01*
X154898427Y-119631604D01*
X154922695Y-119628004D01*
X154947199Y-119626800D01*
X155847201Y-119626800D01*
X155871705Y-119628004D01*
X155871705Y-119628004D01*
G37*
D13*
X155397200Y-120201800D03*
D10*
G36*
X155871705Y-117578004D02*
X155895973Y-117581604D01*
X155919772Y-117587565D01*
X155942871Y-117595830D01*
X155965050Y-117606320D01*
X155986093Y-117618932D01*
X156005799Y-117633547D01*
X156023977Y-117650023D01*
X156040453Y-117668201D01*
X156055068Y-117687907D01*
X156067680Y-117708950D01*
X156078170Y-117731129D01*
X156086435Y-117754228D01*
X156092396Y-117778027D01*
X156095996Y-117802295D01*
X156097200Y-117826799D01*
X156097200Y-118476801D01*
X156095996Y-118501305D01*
X156092396Y-118525573D01*
X156086435Y-118549372D01*
X156078170Y-118572471D01*
X156067680Y-118594650D01*
X156055068Y-118615693D01*
X156040453Y-118635399D01*
X156023977Y-118653577D01*
X156005799Y-118670053D01*
X155986093Y-118684668D01*
X155965050Y-118697280D01*
X155942871Y-118707770D01*
X155919772Y-118716035D01*
X155895973Y-118721996D01*
X155871705Y-118725596D01*
X155847201Y-118726800D01*
X154947199Y-118726800D01*
X154922695Y-118725596D01*
X154898427Y-118721996D01*
X154874628Y-118716035D01*
X154851529Y-118707770D01*
X154829350Y-118697280D01*
X154808307Y-118684668D01*
X154788601Y-118670053D01*
X154770423Y-118653577D01*
X154753947Y-118635399D01*
X154739332Y-118615693D01*
X154726720Y-118594650D01*
X154716230Y-118572471D01*
X154707965Y-118549372D01*
X154702004Y-118525573D01*
X154698404Y-118501305D01*
X154697200Y-118476801D01*
X154697200Y-117826799D01*
X154698404Y-117802295D01*
X154702004Y-117778027D01*
X154707965Y-117754228D01*
X154716230Y-117731129D01*
X154726720Y-117708950D01*
X154739332Y-117687907D01*
X154753947Y-117668201D01*
X154770423Y-117650023D01*
X154788601Y-117633547D01*
X154808307Y-117618932D01*
X154829350Y-117606320D01*
X154851529Y-117595830D01*
X154874628Y-117587565D01*
X154898427Y-117581604D01*
X154922695Y-117578004D01*
X154947199Y-117576800D01*
X155847201Y-117576800D01*
X155871705Y-117578004D01*
X155871705Y-117578004D01*
G37*
D13*
X155397200Y-118151800D03*
G04 #@! TD*
D10*
G04 #@! TO.C,R31*
G36*
X159649305Y-111416804D02*
X159673573Y-111420404D01*
X159697372Y-111426365D01*
X159720471Y-111434630D01*
X159742650Y-111445120D01*
X159763693Y-111457732D01*
X159783399Y-111472347D01*
X159801577Y-111488823D01*
X159818053Y-111507001D01*
X159832668Y-111526707D01*
X159845280Y-111547750D01*
X159855770Y-111569929D01*
X159864035Y-111593028D01*
X159869996Y-111616827D01*
X159873596Y-111641095D01*
X159874800Y-111665599D01*
X159874800Y-112565601D01*
X159873596Y-112590105D01*
X159869996Y-112614373D01*
X159864035Y-112638172D01*
X159855770Y-112661271D01*
X159845280Y-112683450D01*
X159832668Y-112704493D01*
X159818053Y-112724199D01*
X159801577Y-112742377D01*
X159783399Y-112758853D01*
X159763693Y-112773468D01*
X159742650Y-112786080D01*
X159720471Y-112796570D01*
X159697372Y-112804835D01*
X159673573Y-112810796D01*
X159649305Y-112814396D01*
X159624801Y-112815600D01*
X158974799Y-112815600D01*
X158950295Y-112814396D01*
X158926027Y-112810796D01*
X158902228Y-112804835D01*
X158879129Y-112796570D01*
X158856950Y-112786080D01*
X158835907Y-112773468D01*
X158816201Y-112758853D01*
X158798023Y-112742377D01*
X158781547Y-112724199D01*
X158766932Y-112704493D01*
X158754320Y-112683450D01*
X158743830Y-112661271D01*
X158735565Y-112638172D01*
X158729604Y-112614373D01*
X158726004Y-112590105D01*
X158724800Y-112565601D01*
X158724800Y-111665599D01*
X158726004Y-111641095D01*
X158729604Y-111616827D01*
X158735565Y-111593028D01*
X158743830Y-111569929D01*
X158754320Y-111547750D01*
X158766932Y-111526707D01*
X158781547Y-111507001D01*
X158798023Y-111488823D01*
X158816201Y-111472347D01*
X158835907Y-111457732D01*
X158856950Y-111445120D01*
X158879129Y-111434630D01*
X158902228Y-111426365D01*
X158926027Y-111420404D01*
X158950295Y-111416804D01*
X158974799Y-111415600D01*
X159624801Y-111415600D01*
X159649305Y-111416804D01*
X159649305Y-111416804D01*
G37*
D13*
X159299800Y-112115600D03*
D10*
G36*
X161699305Y-111416804D02*
X161723573Y-111420404D01*
X161747372Y-111426365D01*
X161770471Y-111434630D01*
X161792650Y-111445120D01*
X161813693Y-111457732D01*
X161833399Y-111472347D01*
X161851577Y-111488823D01*
X161868053Y-111507001D01*
X161882668Y-111526707D01*
X161895280Y-111547750D01*
X161905770Y-111569929D01*
X161914035Y-111593028D01*
X161919996Y-111616827D01*
X161923596Y-111641095D01*
X161924800Y-111665599D01*
X161924800Y-112565601D01*
X161923596Y-112590105D01*
X161919996Y-112614373D01*
X161914035Y-112638172D01*
X161905770Y-112661271D01*
X161895280Y-112683450D01*
X161882668Y-112704493D01*
X161868053Y-112724199D01*
X161851577Y-112742377D01*
X161833399Y-112758853D01*
X161813693Y-112773468D01*
X161792650Y-112786080D01*
X161770471Y-112796570D01*
X161747372Y-112804835D01*
X161723573Y-112810796D01*
X161699305Y-112814396D01*
X161674801Y-112815600D01*
X161024799Y-112815600D01*
X161000295Y-112814396D01*
X160976027Y-112810796D01*
X160952228Y-112804835D01*
X160929129Y-112796570D01*
X160906950Y-112786080D01*
X160885907Y-112773468D01*
X160866201Y-112758853D01*
X160848023Y-112742377D01*
X160831547Y-112724199D01*
X160816932Y-112704493D01*
X160804320Y-112683450D01*
X160793830Y-112661271D01*
X160785565Y-112638172D01*
X160779604Y-112614373D01*
X160776004Y-112590105D01*
X160774800Y-112565601D01*
X160774800Y-111665599D01*
X160776004Y-111641095D01*
X160779604Y-111616827D01*
X160785565Y-111593028D01*
X160793830Y-111569929D01*
X160804320Y-111547750D01*
X160816932Y-111526707D01*
X160831547Y-111507001D01*
X160848023Y-111488823D01*
X160866201Y-111472347D01*
X160885907Y-111457732D01*
X160906950Y-111445120D01*
X160929129Y-111434630D01*
X160952228Y-111426365D01*
X160976027Y-111420404D01*
X161000295Y-111416804D01*
X161024799Y-111415600D01*
X161674801Y-111415600D01*
X161699305Y-111416804D01*
X161699305Y-111416804D01*
G37*
D13*
X161349800Y-112115600D03*
G04 #@! TD*
D18*
G04 #@! TO.C,D10*
X134620000Y-75048000D03*
X134620000Y-70748000D03*
G04 #@! TD*
G04 #@! TO.C,D15*
X122428000Y-102879000D03*
X122428000Y-107179000D03*
G04 #@! TD*
D19*
G04 #@! TO.C,D16*
X150707200Y-144424400D03*
X155007200Y-144424400D03*
G04 #@! TD*
D10*
G04 #@! TO.C,C13*
G36*
X142852505Y-91808004D02*
X142876773Y-91811604D01*
X142900572Y-91817565D01*
X142923671Y-91825830D01*
X142945850Y-91836320D01*
X142966893Y-91848932D01*
X142986599Y-91863547D01*
X143004777Y-91880023D01*
X143021253Y-91898201D01*
X143035868Y-91917907D01*
X143048480Y-91938950D01*
X143058970Y-91961129D01*
X143067235Y-91984228D01*
X143073196Y-92008027D01*
X143076796Y-92032295D01*
X143078000Y-92056799D01*
X143078000Y-92956801D01*
X143076796Y-92981305D01*
X143073196Y-93005573D01*
X143067235Y-93029372D01*
X143058970Y-93052471D01*
X143048480Y-93074650D01*
X143035868Y-93095693D01*
X143021253Y-93115399D01*
X143004777Y-93133577D01*
X142986599Y-93150053D01*
X142966893Y-93164668D01*
X142945850Y-93177280D01*
X142923671Y-93187770D01*
X142900572Y-93196035D01*
X142876773Y-93201996D01*
X142852505Y-93205596D01*
X142828001Y-93206800D01*
X142177999Y-93206800D01*
X142153495Y-93205596D01*
X142129227Y-93201996D01*
X142105428Y-93196035D01*
X142082329Y-93187770D01*
X142060150Y-93177280D01*
X142039107Y-93164668D01*
X142019401Y-93150053D01*
X142001223Y-93133577D01*
X141984747Y-93115399D01*
X141970132Y-93095693D01*
X141957520Y-93074650D01*
X141947030Y-93052471D01*
X141938765Y-93029372D01*
X141932804Y-93005573D01*
X141929204Y-92981305D01*
X141928000Y-92956801D01*
X141928000Y-92056799D01*
X141929204Y-92032295D01*
X141932804Y-92008027D01*
X141938765Y-91984228D01*
X141947030Y-91961129D01*
X141957520Y-91938950D01*
X141970132Y-91917907D01*
X141984747Y-91898201D01*
X142001223Y-91880023D01*
X142019401Y-91863547D01*
X142039107Y-91848932D01*
X142060150Y-91836320D01*
X142082329Y-91825830D01*
X142105428Y-91817565D01*
X142129227Y-91811604D01*
X142153495Y-91808004D01*
X142177999Y-91806800D01*
X142828001Y-91806800D01*
X142852505Y-91808004D01*
X142852505Y-91808004D01*
G37*
D13*
X142503000Y-92506800D03*
D10*
G36*
X140802505Y-91808004D02*
X140826773Y-91811604D01*
X140850572Y-91817565D01*
X140873671Y-91825830D01*
X140895850Y-91836320D01*
X140916893Y-91848932D01*
X140936599Y-91863547D01*
X140954777Y-91880023D01*
X140971253Y-91898201D01*
X140985868Y-91917907D01*
X140998480Y-91938950D01*
X141008970Y-91961129D01*
X141017235Y-91984228D01*
X141023196Y-92008027D01*
X141026796Y-92032295D01*
X141028000Y-92056799D01*
X141028000Y-92956801D01*
X141026796Y-92981305D01*
X141023196Y-93005573D01*
X141017235Y-93029372D01*
X141008970Y-93052471D01*
X140998480Y-93074650D01*
X140985868Y-93095693D01*
X140971253Y-93115399D01*
X140954777Y-93133577D01*
X140936599Y-93150053D01*
X140916893Y-93164668D01*
X140895850Y-93177280D01*
X140873671Y-93187770D01*
X140850572Y-93196035D01*
X140826773Y-93201996D01*
X140802505Y-93205596D01*
X140778001Y-93206800D01*
X140127999Y-93206800D01*
X140103495Y-93205596D01*
X140079227Y-93201996D01*
X140055428Y-93196035D01*
X140032329Y-93187770D01*
X140010150Y-93177280D01*
X139989107Y-93164668D01*
X139969401Y-93150053D01*
X139951223Y-93133577D01*
X139934747Y-93115399D01*
X139920132Y-93095693D01*
X139907520Y-93074650D01*
X139897030Y-93052471D01*
X139888765Y-93029372D01*
X139882804Y-93005573D01*
X139879204Y-92981305D01*
X139878000Y-92956801D01*
X139878000Y-92056799D01*
X139879204Y-92032295D01*
X139882804Y-92008027D01*
X139888765Y-91984228D01*
X139897030Y-91961129D01*
X139907520Y-91938950D01*
X139920132Y-91917907D01*
X139934747Y-91898201D01*
X139951223Y-91880023D01*
X139969401Y-91863547D01*
X139989107Y-91848932D01*
X140010150Y-91836320D01*
X140032329Y-91825830D01*
X140055428Y-91817565D01*
X140079227Y-91811604D01*
X140103495Y-91808004D01*
X140127999Y-91806800D01*
X140778001Y-91806800D01*
X140802505Y-91808004D01*
X140802505Y-91808004D01*
G37*
D13*
X140453000Y-92506800D03*
G04 #@! TD*
D10*
G04 #@! TO.C,C1*
G36*
X145000505Y-117730404D02*
X145024773Y-117734004D01*
X145048572Y-117739965D01*
X145071671Y-117748230D01*
X145093850Y-117758720D01*
X145114893Y-117771332D01*
X145134599Y-117785947D01*
X145152777Y-117802423D01*
X145169253Y-117820601D01*
X145183868Y-117840307D01*
X145196480Y-117861350D01*
X145206970Y-117883529D01*
X145215235Y-117906628D01*
X145221196Y-117930427D01*
X145224796Y-117954695D01*
X145226000Y-117979199D01*
X145226000Y-118629201D01*
X145224796Y-118653705D01*
X145221196Y-118677973D01*
X145215235Y-118701772D01*
X145206970Y-118724871D01*
X145196480Y-118747050D01*
X145183868Y-118768093D01*
X145169253Y-118787799D01*
X145152777Y-118805977D01*
X145134599Y-118822453D01*
X145114893Y-118837068D01*
X145093850Y-118849680D01*
X145071671Y-118860170D01*
X145048572Y-118868435D01*
X145024773Y-118874396D01*
X145000505Y-118877996D01*
X144976001Y-118879200D01*
X144075999Y-118879200D01*
X144051495Y-118877996D01*
X144027227Y-118874396D01*
X144003428Y-118868435D01*
X143980329Y-118860170D01*
X143958150Y-118849680D01*
X143937107Y-118837068D01*
X143917401Y-118822453D01*
X143899223Y-118805977D01*
X143882747Y-118787799D01*
X143868132Y-118768093D01*
X143855520Y-118747050D01*
X143845030Y-118724871D01*
X143836765Y-118701772D01*
X143830804Y-118677973D01*
X143827204Y-118653705D01*
X143826000Y-118629201D01*
X143826000Y-117979199D01*
X143827204Y-117954695D01*
X143830804Y-117930427D01*
X143836765Y-117906628D01*
X143845030Y-117883529D01*
X143855520Y-117861350D01*
X143868132Y-117840307D01*
X143882747Y-117820601D01*
X143899223Y-117802423D01*
X143917401Y-117785947D01*
X143937107Y-117771332D01*
X143958150Y-117758720D01*
X143980329Y-117748230D01*
X144003428Y-117739965D01*
X144027227Y-117734004D01*
X144051495Y-117730404D01*
X144075999Y-117729200D01*
X144976001Y-117729200D01*
X145000505Y-117730404D01*
X145000505Y-117730404D01*
G37*
D13*
X144526000Y-118304200D03*
D10*
G36*
X145000505Y-119780404D02*
X145024773Y-119784004D01*
X145048572Y-119789965D01*
X145071671Y-119798230D01*
X145093850Y-119808720D01*
X145114893Y-119821332D01*
X145134599Y-119835947D01*
X145152777Y-119852423D01*
X145169253Y-119870601D01*
X145183868Y-119890307D01*
X145196480Y-119911350D01*
X145206970Y-119933529D01*
X145215235Y-119956628D01*
X145221196Y-119980427D01*
X145224796Y-120004695D01*
X145226000Y-120029199D01*
X145226000Y-120679201D01*
X145224796Y-120703705D01*
X145221196Y-120727973D01*
X145215235Y-120751772D01*
X145206970Y-120774871D01*
X145196480Y-120797050D01*
X145183868Y-120818093D01*
X145169253Y-120837799D01*
X145152777Y-120855977D01*
X145134599Y-120872453D01*
X145114893Y-120887068D01*
X145093850Y-120899680D01*
X145071671Y-120910170D01*
X145048572Y-120918435D01*
X145024773Y-120924396D01*
X145000505Y-120927996D01*
X144976001Y-120929200D01*
X144075999Y-120929200D01*
X144051495Y-120927996D01*
X144027227Y-120924396D01*
X144003428Y-120918435D01*
X143980329Y-120910170D01*
X143958150Y-120899680D01*
X143937107Y-120887068D01*
X143917401Y-120872453D01*
X143899223Y-120855977D01*
X143882747Y-120837799D01*
X143868132Y-120818093D01*
X143855520Y-120797050D01*
X143845030Y-120774871D01*
X143836765Y-120751772D01*
X143830804Y-120727973D01*
X143827204Y-120703705D01*
X143826000Y-120679201D01*
X143826000Y-120029199D01*
X143827204Y-120004695D01*
X143830804Y-119980427D01*
X143836765Y-119956628D01*
X143845030Y-119933529D01*
X143855520Y-119911350D01*
X143868132Y-119890307D01*
X143882747Y-119870601D01*
X143899223Y-119852423D01*
X143917401Y-119835947D01*
X143937107Y-119821332D01*
X143958150Y-119808720D01*
X143980329Y-119798230D01*
X144003428Y-119789965D01*
X144027227Y-119784004D01*
X144051495Y-119780404D01*
X144075999Y-119779200D01*
X144976001Y-119779200D01*
X145000505Y-119780404D01*
X145000505Y-119780404D01*
G37*
D13*
X144526000Y-120354200D03*
G04 #@! TD*
D10*
G04 #@! TO.C,C2*
G36*
X141698505Y-86557204D02*
X141722773Y-86560804D01*
X141746572Y-86566765D01*
X141769671Y-86575030D01*
X141791850Y-86585520D01*
X141812893Y-86598132D01*
X141832599Y-86612747D01*
X141850777Y-86629223D01*
X141867253Y-86647401D01*
X141881868Y-86667107D01*
X141894480Y-86688150D01*
X141904970Y-86710329D01*
X141913235Y-86733428D01*
X141919196Y-86757227D01*
X141922796Y-86781495D01*
X141924000Y-86805999D01*
X141924000Y-87456001D01*
X141922796Y-87480505D01*
X141919196Y-87504773D01*
X141913235Y-87528572D01*
X141904970Y-87551671D01*
X141894480Y-87573850D01*
X141881868Y-87594893D01*
X141867253Y-87614599D01*
X141850777Y-87632777D01*
X141832599Y-87649253D01*
X141812893Y-87663868D01*
X141791850Y-87676480D01*
X141769671Y-87686970D01*
X141746572Y-87695235D01*
X141722773Y-87701196D01*
X141698505Y-87704796D01*
X141674001Y-87706000D01*
X140773999Y-87706000D01*
X140749495Y-87704796D01*
X140725227Y-87701196D01*
X140701428Y-87695235D01*
X140678329Y-87686970D01*
X140656150Y-87676480D01*
X140635107Y-87663868D01*
X140615401Y-87649253D01*
X140597223Y-87632777D01*
X140580747Y-87614599D01*
X140566132Y-87594893D01*
X140553520Y-87573850D01*
X140543030Y-87551671D01*
X140534765Y-87528572D01*
X140528804Y-87504773D01*
X140525204Y-87480505D01*
X140524000Y-87456001D01*
X140524000Y-86805999D01*
X140525204Y-86781495D01*
X140528804Y-86757227D01*
X140534765Y-86733428D01*
X140543030Y-86710329D01*
X140553520Y-86688150D01*
X140566132Y-86667107D01*
X140580747Y-86647401D01*
X140597223Y-86629223D01*
X140615401Y-86612747D01*
X140635107Y-86598132D01*
X140656150Y-86585520D01*
X140678329Y-86575030D01*
X140701428Y-86566765D01*
X140725227Y-86560804D01*
X140749495Y-86557204D01*
X140773999Y-86556000D01*
X141674001Y-86556000D01*
X141698505Y-86557204D01*
X141698505Y-86557204D01*
G37*
D13*
X141224000Y-87131000D03*
D10*
G36*
X141698505Y-84507204D02*
X141722773Y-84510804D01*
X141746572Y-84516765D01*
X141769671Y-84525030D01*
X141791850Y-84535520D01*
X141812893Y-84548132D01*
X141832599Y-84562747D01*
X141850777Y-84579223D01*
X141867253Y-84597401D01*
X141881868Y-84617107D01*
X141894480Y-84638150D01*
X141904970Y-84660329D01*
X141913235Y-84683428D01*
X141919196Y-84707227D01*
X141922796Y-84731495D01*
X141924000Y-84755999D01*
X141924000Y-85406001D01*
X141922796Y-85430505D01*
X141919196Y-85454773D01*
X141913235Y-85478572D01*
X141904970Y-85501671D01*
X141894480Y-85523850D01*
X141881868Y-85544893D01*
X141867253Y-85564599D01*
X141850777Y-85582777D01*
X141832599Y-85599253D01*
X141812893Y-85613868D01*
X141791850Y-85626480D01*
X141769671Y-85636970D01*
X141746572Y-85645235D01*
X141722773Y-85651196D01*
X141698505Y-85654796D01*
X141674001Y-85656000D01*
X140773999Y-85656000D01*
X140749495Y-85654796D01*
X140725227Y-85651196D01*
X140701428Y-85645235D01*
X140678329Y-85636970D01*
X140656150Y-85626480D01*
X140635107Y-85613868D01*
X140615401Y-85599253D01*
X140597223Y-85582777D01*
X140580747Y-85564599D01*
X140566132Y-85544893D01*
X140553520Y-85523850D01*
X140543030Y-85501671D01*
X140534765Y-85478572D01*
X140528804Y-85454773D01*
X140525204Y-85430505D01*
X140524000Y-85406001D01*
X140524000Y-84755999D01*
X140525204Y-84731495D01*
X140528804Y-84707227D01*
X140534765Y-84683428D01*
X140543030Y-84660329D01*
X140553520Y-84638150D01*
X140566132Y-84617107D01*
X140580747Y-84597401D01*
X140597223Y-84579223D01*
X140615401Y-84562747D01*
X140635107Y-84548132D01*
X140656150Y-84535520D01*
X140678329Y-84525030D01*
X140701428Y-84516765D01*
X140725227Y-84510804D01*
X140749495Y-84507204D01*
X140773999Y-84506000D01*
X141674001Y-84506000D01*
X141698505Y-84507204D01*
X141698505Y-84507204D01*
G37*
D13*
X141224000Y-85081000D03*
G04 #@! TD*
D10*
G04 #@! TO.C,C4*
G36*
X97604105Y-92856404D02*
X97628373Y-92860004D01*
X97652172Y-92865965D01*
X97675271Y-92874230D01*
X97697450Y-92884720D01*
X97718493Y-92897332D01*
X97738199Y-92911947D01*
X97756377Y-92928423D01*
X97772853Y-92946601D01*
X97787468Y-92966307D01*
X97800080Y-92987350D01*
X97810570Y-93009529D01*
X97818835Y-93032628D01*
X97824796Y-93056427D01*
X97828396Y-93080695D01*
X97829600Y-93105199D01*
X97829600Y-93755201D01*
X97828396Y-93779705D01*
X97824796Y-93803973D01*
X97818835Y-93827772D01*
X97810570Y-93850871D01*
X97800080Y-93873050D01*
X97787468Y-93894093D01*
X97772853Y-93913799D01*
X97756377Y-93931977D01*
X97738199Y-93948453D01*
X97718493Y-93963068D01*
X97697450Y-93975680D01*
X97675271Y-93986170D01*
X97652172Y-93994435D01*
X97628373Y-94000396D01*
X97604105Y-94003996D01*
X97579601Y-94005200D01*
X96679599Y-94005200D01*
X96655095Y-94003996D01*
X96630827Y-94000396D01*
X96607028Y-93994435D01*
X96583929Y-93986170D01*
X96561750Y-93975680D01*
X96540707Y-93963068D01*
X96521001Y-93948453D01*
X96502823Y-93931977D01*
X96486347Y-93913799D01*
X96471732Y-93894093D01*
X96459120Y-93873050D01*
X96448630Y-93850871D01*
X96440365Y-93827772D01*
X96434404Y-93803973D01*
X96430804Y-93779705D01*
X96429600Y-93755201D01*
X96429600Y-93105199D01*
X96430804Y-93080695D01*
X96434404Y-93056427D01*
X96440365Y-93032628D01*
X96448630Y-93009529D01*
X96459120Y-92987350D01*
X96471732Y-92966307D01*
X96486347Y-92946601D01*
X96502823Y-92928423D01*
X96521001Y-92911947D01*
X96540707Y-92897332D01*
X96561750Y-92884720D01*
X96583929Y-92874230D01*
X96607028Y-92865965D01*
X96630827Y-92860004D01*
X96655095Y-92856404D01*
X96679599Y-92855200D01*
X97579601Y-92855200D01*
X97604105Y-92856404D01*
X97604105Y-92856404D01*
G37*
D13*
X97129600Y-93430200D03*
D10*
G36*
X97604105Y-90806404D02*
X97628373Y-90810004D01*
X97652172Y-90815965D01*
X97675271Y-90824230D01*
X97697450Y-90834720D01*
X97718493Y-90847332D01*
X97738199Y-90861947D01*
X97756377Y-90878423D01*
X97772853Y-90896601D01*
X97787468Y-90916307D01*
X97800080Y-90937350D01*
X97810570Y-90959529D01*
X97818835Y-90982628D01*
X97824796Y-91006427D01*
X97828396Y-91030695D01*
X97829600Y-91055199D01*
X97829600Y-91705201D01*
X97828396Y-91729705D01*
X97824796Y-91753973D01*
X97818835Y-91777772D01*
X97810570Y-91800871D01*
X97800080Y-91823050D01*
X97787468Y-91844093D01*
X97772853Y-91863799D01*
X97756377Y-91881977D01*
X97738199Y-91898453D01*
X97718493Y-91913068D01*
X97697450Y-91925680D01*
X97675271Y-91936170D01*
X97652172Y-91944435D01*
X97628373Y-91950396D01*
X97604105Y-91953996D01*
X97579601Y-91955200D01*
X96679599Y-91955200D01*
X96655095Y-91953996D01*
X96630827Y-91950396D01*
X96607028Y-91944435D01*
X96583929Y-91936170D01*
X96561750Y-91925680D01*
X96540707Y-91913068D01*
X96521001Y-91898453D01*
X96502823Y-91881977D01*
X96486347Y-91863799D01*
X96471732Y-91844093D01*
X96459120Y-91823050D01*
X96448630Y-91800871D01*
X96440365Y-91777772D01*
X96434404Y-91753973D01*
X96430804Y-91729705D01*
X96429600Y-91705201D01*
X96429600Y-91055199D01*
X96430804Y-91030695D01*
X96434404Y-91006427D01*
X96440365Y-90982628D01*
X96448630Y-90959529D01*
X96459120Y-90937350D01*
X96471732Y-90916307D01*
X96486347Y-90896601D01*
X96502823Y-90878423D01*
X96521001Y-90861947D01*
X96540707Y-90847332D01*
X96561750Y-90834720D01*
X96583929Y-90824230D01*
X96607028Y-90815965D01*
X96630827Y-90810004D01*
X96655095Y-90806404D01*
X96679599Y-90805200D01*
X97579601Y-90805200D01*
X97604105Y-90806404D01*
X97604105Y-90806404D01*
G37*
D13*
X97129600Y-91380200D03*
G04 #@! TD*
D10*
G04 #@! TO.C,C5*
G36*
X165904705Y-119755004D02*
X165928973Y-119758604D01*
X165952772Y-119764565D01*
X165975871Y-119772830D01*
X165998050Y-119783320D01*
X166019093Y-119795932D01*
X166038799Y-119810547D01*
X166056977Y-119827023D01*
X166073453Y-119845201D01*
X166088068Y-119864907D01*
X166100680Y-119885950D01*
X166111170Y-119908129D01*
X166119435Y-119931228D01*
X166125396Y-119955027D01*
X166128996Y-119979295D01*
X166130200Y-120003799D01*
X166130200Y-120653801D01*
X166128996Y-120678305D01*
X166125396Y-120702573D01*
X166119435Y-120726372D01*
X166111170Y-120749471D01*
X166100680Y-120771650D01*
X166088068Y-120792693D01*
X166073453Y-120812399D01*
X166056977Y-120830577D01*
X166038799Y-120847053D01*
X166019093Y-120861668D01*
X165998050Y-120874280D01*
X165975871Y-120884770D01*
X165952772Y-120893035D01*
X165928973Y-120898996D01*
X165904705Y-120902596D01*
X165880201Y-120903800D01*
X164980199Y-120903800D01*
X164955695Y-120902596D01*
X164931427Y-120898996D01*
X164907628Y-120893035D01*
X164884529Y-120884770D01*
X164862350Y-120874280D01*
X164841307Y-120861668D01*
X164821601Y-120847053D01*
X164803423Y-120830577D01*
X164786947Y-120812399D01*
X164772332Y-120792693D01*
X164759720Y-120771650D01*
X164749230Y-120749471D01*
X164740965Y-120726372D01*
X164735004Y-120702573D01*
X164731404Y-120678305D01*
X164730200Y-120653801D01*
X164730200Y-120003799D01*
X164731404Y-119979295D01*
X164735004Y-119955027D01*
X164740965Y-119931228D01*
X164749230Y-119908129D01*
X164759720Y-119885950D01*
X164772332Y-119864907D01*
X164786947Y-119845201D01*
X164803423Y-119827023D01*
X164821601Y-119810547D01*
X164841307Y-119795932D01*
X164862350Y-119783320D01*
X164884529Y-119772830D01*
X164907628Y-119764565D01*
X164931427Y-119758604D01*
X164955695Y-119755004D01*
X164980199Y-119753800D01*
X165880201Y-119753800D01*
X165904705Y-119755004D01*
X165904705Y-119755004D01*
G37*
D13*
X165430200Y-120328800D03*
D10*
G36*
X165904705Y-117705004D02*
X165928973Y-117708604D01*
X165952772Y-117714565D01*
X165975871Y-117722830D01*
X165998050Y-117733320D01*
X166019093Y-117745932D01*
X166038799Y-117760547D01*
X166056977Y-117777023D01*
X166073453Y-117795201D01*
X166088068Y-117814907D01*
X166100680Y-117835950D01*
X166111170Y-117858129D01*
X166119435Y-117881228D01*
X166125396Y-117905027D01*
X166128996Y-117929295D01*
X166130200Y-117953799D01*
X166130200Y-118603801D01*
X166128996Y-118628305D01*
X166125396Y-118652573D01*
X166119435Y-118676372D01*
X166111170Y-118699471D01*
X166100680Y-118721650D01*
X166088068Y-118742693D01*
X166073453Y-118762399D01*
X166056977Y-118780577D01*
X166038799Y-118797053D01*
X166019093Y-118811668D01*
X165998050Y-118824280D01*
X165975871Y-118834770D01*
X165952772Y-118843035D01*
X165928973Y-118848996D01*
X165904705Y-118852596D01*
X165880201Y-118853800D01*
X164980199Y-118853800D01*
X164955695Y-118852596D01*
X164931427Y-118848996D01*
X164907628Y-118843035D01*
X164884529Y-118834770D01*
X164862350Y-118824280D01*
X164841307Y-118811668D01*
X164821601Y-118797053D01*
X164803423Y-118780577D01*
X164786947Y-118762399D01*
X164772332Y-118742693D01*
X164759720Y-118721650D01*
X164749230Y-118699471D01*
X164740965Y-118676372D01*
X164735004Y-118652573D01*
X164731404Y-118628305D01*
X164730200Y-118603801D01*
X164730200Y-117953799D01*
X164731404Y-117929295D01*
X164735004Y-117905027D01*
X164740965Y-117881228D01*
X164749230Y-117858129D01*
X164759720Y-117835950D01*
X164772332Y-117814907D01*
X164786947Y-117795201D01*
X164803423Y-117777023D01*
X164821601Y-117760547D01*
X164841307Y-117745932D01*
X164862350Y-117733320D01*
X164884529Y-117722830D01*
X164907628Y-117714565D01*
X164931427Y-117708604D01*
X164955695Y-117705004D01*
X164980199Y-117703800D01*
X165880201Y-117703800D01*
X165904705Y-117705004D01*
X165904705Y-117705004D01*
G37*
D13*
X165430200Y-118278800D03*
G04 #@! TD*
D10*
G04 #@! TO.C,C6*
G36*
X168089105Y-117730404D02*
X168113373Y-117734004D01*
X168137172Y-117739965D01*
X168160271Y-117748230D01*
X168182450Y-117758720D01*
X168203493Y-117771332D01*
X168223199Y-117785947D01*
X168241377Y-117802423D01*
X168257853Y-117820601D01*
X168272468Y-117840307D01*
X168285080Y-117861350D01*
X168295570Y-117883529D01*
X168303835Y-117906628D01*
X168309796Y-117930427D01*
X168313396Y-117954695D01*
X168314600Y-117979199D01*
X168314600Y-118629201D01*
X168313396Y-118653705D01*
X168309796Y-118677973D01*
X168303835Y-118701772D01*
X168295570Y-118724871D01*
X168285080Y-118747050D01*
X168272468Y-118768093D01*
X168257853Y-118787799D01*
X168241377Y-118805977D01*
X168223199Y-118822453D01*
X168203493Y-118837068D01*
X168182450Y-118849680D01*
X168160271Y-118860170D01*
X168137172Y-118868435D01*
X168113373Y-118874396D01*
X168089105Y-118877996D01*
X168064601Y-118879200D01*
X167164599Y-118879200D01*
X167140095Y-118877996D01*
X167115827Y-118874396D01*
X167092028Y-118868435D01*
X167068929Y-118860170D01*
X167046750Y-118849680D01*
X167025707Y-118837068D01*
X167006001Y-118822453D01*
X166987823Y-118805977D01*
X166971347Y-118787799D01*
X166956732Y-118768093D01*
X166944120Y-118747050D01*
X166933630Y-118724871D01*
X166925365Y-118701772D01*
X166919404Y-118677973D01*
X166915804Y-118653705D01*
X166914600Y-118629201D01*
X166914600Y-117979199D01*
X166915804Y-117954695D01*
X166919404Y-117930427D01*
X166925365Y-117906628D01*
X166933630Y-117883529D01*
X166944120Y-117861350D01*
X166956732Y-117840307D01*
X166971347Y-117820601D01*
X166987823Y-117802423D01*
X167006001Y-117785947D01*
X167025707Y-117771332D01*
X167046750Y-117758720D01*
X167068929Y-117748230D01*
X167092028Y-117739965D01*
X167115827Y-117734004D01*
X167140095Y-117730404D01*
X167164599Y-117729200D01*
X168064601Y-117729200D01*
X168089105Y-117730404D01*
X168089105Y-117730404D01*
G37*
D13*
X167614600Y-118304200D03*
D10*
G36*
X168089105Y-119780404D02*
X168113373Y-119784004D01*
X168137172Y-119789965D01*
X168160271Y-119798230D01*
X168182450Y-119808720D01*
X168203493Y-119821332D01*
X168223199Y-119835947D01*
X168241377Y-119852423D01*
X168257853Y-119870601D01*
X168272468Y-119890307D01*
X168285080Y-119911350D01*
X168295570Y-119933529D01*
X168303835Y-119956628D01*
X168309796Y-119980427D01*
X168313396Y-120004695D01*
X168314600Y-120029199D01*
X168314600Y-120679201D01*
X168313396Y-120703705D01*
X168309796Y-120727973D01*
X168303835Y-120751772D01*
X168295570Y-120774871D01*
X168285080Y-120797050D01*
X168272468Y-120818093D01*
X168257853Y-120837799D01*
X168241377Y-120855977D01*
X168223199Y-120872453D01*
X168203493Y-120887068D01*
X168182450Y-120899680D01*
X168160271Y-120910170D01*
X168137172Y-120918435D01*
X168113373Y-120924396D01*
X168089105Y-120927996D01*
X168064601Y-120929200D01*
X167164599Y-120929200D01*
X167140095Y-120927996D01*
X167115827Y-120924396D01*
X167092028Y-120918435D01*
X167068929Y-120910170D01*
X167046750Y-120899680D01*
X167025707Y-120887068D01*
X167006001Y-120872453D01*
X166987823Y-120855977D01*
X166971347Y-120837799D01*
X166956732Y-120818093D01*
X166944120Y-120797050D01*
X166933630Y-120774871D01*
X166925365Y-120751772D01*
X166919404Y-120727973D01*
X166915804Y-120703705D01*
X166914600Y-120679201D01*
X166914600Y-120029199D01*
X166915804Y-120004695D01*
X166919404Y-119980427D01*
X166925365Y-119956628D01*
X166933630Y-119933529D01*
X166944120Y-119911350D01*
X166956732Y-119890307D01*
X166971347Y-119870601D01*
X166987823Y-119852423D01*
X167006001Y-119835947D01*
X167025707Y-119821332D01*
X167046750Y-119808720D01*
X167068929Y-119798230D01*
X167092028Y-119789965D01*
X167115827Y-119784004D01*
X167140095Y-119780404D01*
X167164599Y-119779200D01*
X168064601Y-119779200D01*
X168089105Y-119780404D01*
X168089105Y-119780404D01*
G37*
D13*
X167614600Y-120354200D03*
G04 #@! TD*
D10*
G04 #@! TO.C,C11*
G36*
X134546705Y-121170404D02*
X134570973Y-121174004D01*
X134594772Y-121179965D01*
X134617871Y-121188230D01*
X134640050Y-121198720D01*
X134661093Y-121211332D01*
X134680799Y-121225947D01*
X134698977Y-121242423D01*
X134715453Y-121260601D01*
X134730068Y-121280307D01*
X134742680Y-121301350D01*
X134753170Y-121323529D01*
X134761435Y-121346628D01*
X134767396Y-121370427D01*
X134770996Y-121394695D01*
X134772200Y-121419199D01*
X134772200Y-122319201D01*
X134770996Y-122343705D01*
X134767396Y-122367973D01*
X134761435Y-122391772D01*
X134753170Y-122414871D01*
X134742680Y-122437050D01*
X134730068Y-122458093D01*
X134715453Y-122477799D01*
X134698977Y-122495977D01*
X134680799Y-122512453D01*
X134661093Y-122527068D01*
X134640050Y-122539680D01*
X134617871Y-122550170D01*
X134594772Y-122558435D01*
X134570973Y-122564396D01*
X134546705Y-122567996D01*
X134522201Y-122569200D01*
X133872199Y-122569200D01*
X133847695Y-122567996D01*
X133823427Y-122564396D01*
X133799628Y-122558435D01*
X133776529Y-122550170D01*
X133754350Y-122539680D01*
X133733307Y-122527068D01*
X133713601Y-122512453D01*
X133695423Y-122495977D01*
X133678947Y-122477799D01*
X133664332Y-122458093D01*
X133651720Y-122437050D01*
X133641230Y-122414871D01*
X133632965Y-122391772D01*
X133627004Y-122367973D01*
X133623404Y-122343705D01*
X133622200Y-122319201D01*
X133622200Y-121419199D01*
X133623404Y-121394695D01*
X133627004Y-121370427D01*
X133632965Y-121346628D01*
X133641230Y-121323529D01*
X133651720Y-121301350D01*
X133664332Y-121280307D01*
X133678947Y-121260601D01*
X133695423Y-121242423D01*
X133713601Y-121225947D01*
X133733307Y-121211332D01*
X133754350Y-121198720D01*
X133776529Y-121188230D01*
X133799628Y-121179965D01*
X133823427Y-121174004D01*
X133847695Y-121170404D01*
X133872199Y-121169200D01*
X134522201Y-121169200D01*
X134546705Y-121170404D01*
X134546705Y-121170404D01*
G37*
D13*
X134197200Y-121869200D03*
D10*
G36*
X132496705Y-121170404D02*
X132520973Y-121174004D01*
X132544772Y-121179965D01*
X132567871Y-121188230D01*
X132590050Y-121198720D01*
X132611093Y-121211332D01*
X132630799Y-121225947D01*
X132648977Y-121242423D01*
X132665453Y-121260601D01*
X132680068Y-121280307D01*
X132692680Y-121301350D01*
X132703170Y-121323529D01*
X132711435Y-121346628D01*
X132717396Y-121370427D01*
X132720996Y-121394695D01*
X132722200Y-121419199D01*
X132722200Y-122319201D01*
X132720996Y-122343705D01*
X132717396Y-122367973D01*
X132711435Y-122391772D01*
X132703170Y-122414871D01*
X132692680Y-122437050D01*
X132680068Y-122458093D01*
X132665453Y-122477799D01*
X132648977Y-122495977D01*
X132630799Y-122512453D01*
X132611093Y-122527068D01*
X132590050Y-122539680D01*
X132567871Y-122550170D01*
X132544772Y-122558435D01*
X132520973Y-122564396D01*
X132496705Y-122567996D01*
X132472201Y-122569200D01*
X131822199Y-122569200D01*
X131797695Y-122567996D01*
X131773427Y-122564396D01*
X131749628Y-122558435D01*
X131726529Y-122550170D01*
X131704350Y-122539680D01*
X131683307Y-122527068D01*
X131663601Y-122512453D01*
X131645423Y-122495977D01*
X131628947Y-122477799D01*
X131614332Y-122458093D01*
X131601720Y-122437050D01*
X131591230Y-122414871D01*
X131582965Y-122391772D01*
X131577004Y-122367973D01*
X131573404Y-122343705D01*
X131572200Y-122319201D01*
X131572200Y-121419199D01*
X131573404Y-121394695D01*
X131577004Y-121370427D01*
X131582965Y-121346628D01*
X131591230Y-121323529D01*
X131601720Y-121301350D01*
X131614332Y-121280307D01*
X131628947Y-121260601D01*
X131645423Y-121242423D01*
X131663601Y-121225947D01*
X131683307Y-121211332D01*
X131704350Y-121198720D01*
X131726529Y-121188230D01*
X131749628Y-121179965D01*
X131773427Y-121174004D01*
X131797695Y-121170404D01*
X131822199Y-121169200D01*
X132472201Y-121169200D01*
X132496705Y-121170404D01*
X132496705Y-121170404D01*
G37*
D13*
X132147200Y-121869200D03*
G04 #@! TD*
D10*
G04 #@! TO.C,C3*
G36*
X97829904Y-95032404D02*
X97854173Y-95036004D01*
X97877971Y-95041965D01*
X97901071Y-95050230D01*
X97923249Y-95060720D01*
X97944293Y-95073333D01*
X97963998Y-95087947D01*
X97982177Y-95104423D01*
X97998653Y-95122602D01*
X98013267Y-95142307D01*
X98025880Y-95163351D01*
X98036370Y-95185529D01*
X98044635Y-95208629D01*
X98050596Y-95232427D01*
X98054196Y-95256696D01*
X98055400Y-95281200D01*
X98055400Y-96206200D01*
X98054196Y-96230704D01*
X98050596Y-96254973D01*
X98044635Y-96278771D01*
X98036370Y-96301871D01*
X98025880Y-96324049D01*
X98013267Y-96345093D01*
X97998653Y-96364798D01*
X97982177Y-96382977D01*
X97963998Y-96399453D01*
X97944293Y-96414067D01*
X97923249Y-96426680D01*
X97901071Y-96437170D01*
X97877971Y-96445435D01*
X97854173Y-96451396D01*
X97829904Y-96454996D01*
X97805400Y-96456200D01*
X96555400Y-96456200D01*
X96530896Y-96454996D01*
X96506627Y-96451396D01*
X96482829Y-96445435D01*
X96459729Y-96437170D01*
X96437551Y-96426680D01*
X96416507Y-96414067D01*
X96396802Y-96399453D01*
X96378623Y-96382977D01*
X96362147Y-96364798D01*
X96347533Y-96345093D01*
X96334920Y-96324049D01*
X96324430Y-96301871D01*
X96316165Y-96278771D01*
X96310204Y-96254973D01*
X96306604Y-96230704D01*
X96305400Y-96206200D01*
X96305400Y-95281200D01*
X96306604Y-95256696D01*
X96310204Y-95232427D01*
X96316165Y-95208629D01*
X96324430Y-95185529D01*
X96334920Y-95163351D01*
X96347533Y-95142307D01*
X96362147Y-95122602D01*
X96378623Y-95104423D01*
X96396802Y-95087947D01*
X96416507Y-95073333D01*
X96437551Y-95060720D01*
X96459729Y-95050230D01*
X96482829Y-95041965D01*
X96506627Y-95036004D01*
X96530896Y-95032404D01*
X96555400Y-95031200D01*
X97805400Y-95031200D01*
X97829904Y-95032404D01*
X97829904Y-95032404D01*
G37*
D20*
X97180400Y-95743700D03*
D10*
G36*
X97829904Y-98007404D02*
X97854173Y-98011004D01*
X97877971Y-98016965D01*
X97901071Y-98025230D01*
X97923249Y-98035720D01*
X97944293Y-98048333D01*
X97963998Y-98062947D01*
X97982177Y-98079423D01*
X97998653Y-98097602D01*
X98013267Y-98117307D01*
X98025880Y-98138351D01*
X98036370Y-98160529D01*
X98044635Y-98183629D01*
X98050596Y-98207427D01*
X98054196Y-98231696D01*
X98055400Y-98256200D01*
X98055400Y-99181200D01*
X98054196Y-99205704D01*
X98050596Y-99229973D01*
X98044635Y-99253771D01*
X98036370Y-99276871D01*
X98025880Y-99299049D01*
X98013267Y-99320093D01*
X97998653Y-99339798D01*
X97982177Y-99357977D01*
X97963998Y-99374453D01*
X97944293Y-99389067D01*
X97923249Y-99401680D01*
X97901071Y-99412170D01*
X97877971Y-99420435D01*
X97854173Y-99426396D01*
X97829904Y-99429996D01*
X97805400Y-99431200D01*
X96555400Y-99431200D01*
X96530896Y-99429996D01*
X96506627Y-99426396D01*
X96482829Y-99420435D01*
X96459729Y-99412170D01*
X96437551Y-99401680D01*
X96416507Y-99389067D01*
X96396802Y-99374453D01*
X96378623Y-99357977D01*
X96362147Y-99339798D01*
X96347533Y-99320093D01*
X96334920Y-99299049D01*
X96324430Y-99276871D01*
X96316165Y-99253771D01*
X96310204Y-99229973D01*
X96306604Y-99205704D01*
X96305400Y-99181200D01*
X96305400Y-98256200D01*
X96306604Y-98231696D01*
X96310204Y-98207427D01*
X96316165Y-98183629D01*
X96324430Y-98160529D01*
X96334920Y-98138351D01*
X96347533Y-98117307D01*
X96362147Y-98097602D01*
X96378623Y-98079423D01*
X96396802Y-98062947D01*
X96416507Y-98048333D01*
X96437551Y-98035720D01*
X96459729Y-98025230D01*
X96482829Y-98016965D01*
X96506627Y-98011004D01*
X96530896Y-98007404D01*
X96555400Y-98006200D01*
X97805400Y-98006200D01*
X97829904Y-98007404D01*
X97829904Y-98007404D01*
G37*
D20*
X97180400Y-98718700D03*
G04 #@! TD*
D10*
G04 #@! TO.C,J6*
G36*
X128519504Y-115365204D02*
X128543773Y-115368804D01*
X128567571Y-115374765D01*
X128590671Y-115383030D01*
X128612849Y-115393520D01*
X128633893Y-115406133D01*
X128653598Y-115420747D01*
X128671777Y-115437223D01*
X128688253Y-115455402D01*
X128702867Y-115475107D01*
X128715480Y-115496151D01*
X128725970Y-115518329D01*
X128734235Y-115541429D01*
X128740196Y-115565227D01*
X128743796Y-115589496D01*
X128745000Y-115614000D01*
X128745000Y-118114000D01*
X128743796Y-118138504D01*
X128740196Y-118162773D01*
X128734235Y-118186571D01*
X128725970Y-118209671D01*
X128715480Y-118231849D01*
X128702867Y-118252893D01*
X128688253Y-118272598D01*
X128671777Y-118290777D01*
X128653598Y-118307253D01*
X128633893Y-118321867D01*
X128612849Y-118334480D01*
X128590671Y-118344970D01*
X128567571Y-118353235D01*
X128543773Y-118359196D01*
X128519504Y-118362796D01*
X128495000Y-118364000D01*
X126895000Y-118364000D01*
X126870496Y-118362796D01*
X126846227Y-118359196D01*
X126822429Y-118353235D01*
X126799329Y-118344970D01*
X126777151Y-118334480D01*
X126756107Y-118321867D01*
X126736402Y-118307253D01*
X126718223Y-118290777D01*
X126701747Y-118272598D01*
X126687133Y-118252893D01*
X126674520Y-118231849D01*
X126664030Y-118209671D01*
X126655765Y-118186571D01*
X126649804Y-118162773D01*
X126646204Y-118138504D01*
X126645000Y-118114000D01*
X126645000Y-115614000D01*
X126646204Y-115589496D01*
X126649804Y-115565227D01*
X126655765Y-115541429D01*
X126664030Y-115518329D01*
X126674520Y-115496151D01*
X126687133Y-115475107D01*
X126701747Y-115455402D01*
X126718223Y-115437223D01*
X126736402Y-115420747D01*
X126756107Y-115406133D01*
X126777151Y-115393520D01*
X126799329Y-115383030D01*
X126822429Y-115374765D01*
X126846227Y-115368804D01*
X126870496Y-115365204D01*
X126895000Y-115364000D01*
X128495000Y-115364000D01*
X128519504Y-115365204D01*
X128519504Y-115365204D01*
G37*
D21*
X127695000Y-116864000D03*
D10*
G36*
X142369504Y-115365204D02*
X142393773Y-115368804D01*
X142417571Y-115374765D01*
X142440671Y-115383030D01*
X142462849Y-115393520D01*
X142483893Y-115406133D01*
X142503598Y-115420747D01*
X142521777Y-115437223D01*
X142538253Y-115455402D01*
X142552867Y-115475107D01*
X142565480Y-115496151D01*
X142575970Y-115518329D01*
X142584235Y-115541429D01*
X142590196Y-115565227D01*
X142593796Y-115589496D01*
X142595000Y-115614000D01*
X142595000Y-118114000D01*
X142593796Y-118138504D01*
X142590196Y-118162773D01*
X142584235Y-118186571D01*
X142575970Y-118209671D01*
X142565480Y-118231849D01*
X142552867Y-118252893D01*
X142538253Y-118272598D01*
X142521777Y-118290777D01*
X142503598Y-118307253D01*
X142483893Y-118321867D01*
X142462849Y-118334480D01*
X142440671Y-118344970D01*
X142417571Y-118353235D01*
X142393773Y-118359196D01*
X142369504Y-118362796D01*
X142345000Y-118364000D01*
X140745000Y-118364000D01*
X140720496Y-118362796D01*
X140696227Y-118359196D01*
X140672429Y-118353235D01*
X140649329Y-118344970D01*
X140627151Y-118334480D01*
X140606107Y-118321867D01*
X140586402Y-118307253D01*
X140568223Y-118290777D01*
X140551747Y-118272598D01*
X140537133Y-118252893D01*
X140524520Y-118231849D01*
X140514030Y-118209671D01*
X140505765Y-118186571D01*
X140499804Y-118162773D01*
X140496204Y-118138504D01*
X140495000Y-118114000D01*
X140495000Y-115614000D01*
X140496204Y-115589496D01*
X140499804Y-115565227D01*
X140505765Y-115541429D01*
X140514030Y-115518329D01*
X140524520Y-115496151D01*
X140537133Y-115475107D01*
X140551747Y-115455402D01*
X140568223Y-115437223D01*
X140586402Y-115420747D01*
X140606107Y-115406133D01*
X140627151Y-115393520D01*
X140649329Y-115383030D01*
X140672429Y-115374765D01*
X140696227Y-115368804D01*
X140720496Y-115365204D01*
X140745000Y-115364000D01*
X142345000Y-115364000D01*
X142369504Y-115365204D01*
X142369504Y-115365204D01*
G37*
D21*
X141545000Y-116864000D03*
D10*
G36*
X130464603Y-118964963D02*
X130484018Y-118967843D01*
X130503057Y-118972612D01*
X130521537Y-118979224D01*
X130539279Y-118987616D01*
X130556114Y-118997706D01*
X130571879Y-119009398D01*
X130586421Y-119022579D01*
X130599602Y-119037121D01*
X130611294Y-119052886D01*
X130621384Y-119069721D01*
X130629776Y-119087463D01*
X130636388Y-119105943D01*
X130641157Y-119124982D01*
X130644037Y-119144397D01*
X130645000Y-119164000D01*
X130645000Y-120064000D01*
X130644037Y-120083603D01*
X130641157Y-120103018D01*
X130636388Y-120122057D01*
X130629776Y-120140537D01*
X130621384Y-120158279D01*
X130611294Y-120175114D01*
X130599602Y-120190879D01*
X130586421Y-120205421D01*
X130571879Y-120218602D01*
X130556114Y-120230294D01*
X130539279Y-120240384D01*
X130521537Y-120248776D01*
X130503057Y-120255388D01*
X130484018Y-120260157D01*
X130464603Y-120263037D01*
X130445000Y-120264000D01*
X130045000Y-120264000D01*
X130025397Y-120263037D01*
X130005982Y-120260157D01*
X129986943Y-120255388D01*
X129968463Y-120248776D01*
X129950721Y-120240384D01*
X129933886Y-120230294D01*
X129918121Y-120218602D01*
X129903579Y-120205421D01*
X129890398Y-120190879D01*
X129878706Y-120175114D01*
X129868616Y-120158279D01*
X129860224Y-120140537D01*
X129853612Y-120122057D01*
X129848843Y-120103018D01*
X129845963Y-120083603D01*
X129845000Y-120064000D01*
X129845000Y-119164000D01*
X129845963Y-119144397D01*
X129848843Y-119124982D01*
X129853612Y-119105943D01*
X129860224Y-119087463D01*
X129868616Y-119069721D01*
X129878706Y-119052886D01*
X129890398Y-119037121D01*
X129903579Y-119022579D01*
X129918121Y-119009398D01*
X129933886Y-118997706D01*
X129950721Y-118987616D01*
X129968463Y-118979224D01*
X129986943Y-118972612D01*
X130005982Y-118967843D01*
X130025397Y-118964963D01*
X130045000Y-118964000D01*
X130445000Y-118964000D01*
X130464603Y-118964963D01*
X130464603Y-118964963D01*
G37*
D22*
X130245000Y-119614000D03*
D10*
G36*
X131714603Y-118964963D02*
X131734018Y-118967843D01*
X131753057Y-118972612D01*
X131771537Y-118979224D01*
X131789279Y-118987616D01*
X131806114Y-118997706D01*
X131821879Y-119009398D01*
X131836421Y-119022579D01*
X131849602Y-119037121D01*
X131861294Y-119052886D01*
X131871384Y-119069721D01*
X131879776Y-119087463D01*
X131886388Y-119105943D01*
X131891157Y-119124982D01*
X131894037Y-119144397D01*
X131895000Y-119164000D01*
X131895000Y-120064000D01*
X131894037Y-120083603D01*
X131891157Y-120103018D01*
X131886388Y-120122057D01*
X131879776Y-120140537D01*
X131871384Y-120158279D01*
X131861294Y-120175114D01*
X131849602Y-120190879D01*
X131836421Y-120205421D01*
X131821879Y-120218602D01*
X131806114Y-120230294D01*
X131789279Y-120240384D01*
X131771537Y-120248776D01*
X131753057Y-120255388D01*
X131734018Y-120260157D01*
X131714603Y-120263037D01*
X131695000Y-120264000D01*
X131295000Y-120264000D01*
X131275397Y-120263037D01*
X131255982Y-120260157D01*
X131236943Y-120255388D01*
X131218463Y-120248776D01*
X131200721Y-120240384D01*
X131183886Y-120230294D01*
X131168121Y-120218602D01*
X131153579Y-120205421D01*
X131140398Y-120190879D01*
X131128706Y-120175114D01*
X131118616Y-120158279D01*
X131110224Y-120140537D01*
X131103612Y-120122057D01*
X131098843Y-120103018D01*
X131095963Y-120083603D01*
X131095000Y-120064000D01*
X131095000Y-119164000D01*
X131095963Y-119144397D01*
X131098843Y-119124982D01*
X131103612Y-119105943D01*
X131110224Y-119087463D01*
X131118616Y-119069721D01*
X131128706Y-119052886D01*
X131140398Y-119037121D01*
X131153579Y-119022579D01*
X131168121Y-119009398D01*
X131183886Y-118997706D01*
X131200721Y-118987616D01*
X131218463Y-118979224D01*
X131236943Y-118972612D01*
X131255982Y-118967843D01*
X131275397Y-118964963D01*
X131295000Y-118964000D01*
X131695000Y-118964000D01*
X131714603Y-118964963D01*
X131714603Y-118964963D01*
G37*
D22*
X131495000Y-119614000D03*
D10*
G36*
X132964603Y-118964963D02*
X132984018Y-118967843D01*
X133003057Y-118972612D01*
X133021537Y-118979224D01*
X133039279Y-118987616D01*
X133056114Y-118997706D01*
X133071879Y-119009398D01*
X133086421Y-119022579D01*
X133099602Y-119037121D01*
X133111294Y-119052886D01*
X133121384Y-119069721D01*
X133129776Y-119087463D01*
X133136388Y-119105943D01*
X133141157Y-119124982D01*
X133144037Y-119144397D01*
X133145000Y-119164000D01*
X133145000Y-120064000D01*
X133144037Y-120083603D01*
X133141157Y-120103018D01*
X133136388Y-120122057D01*
X133129776Y-120140537D01*
X133121384Y-120158279D01*
X133111294Y-120175114D01*
X133099602Y-120190879D01*
X133086421Y-120205421D01*
X133071879Y-120218602D01*
X133056114Y-120230294D01*
X133039279Y-120240384D01*
X133021537Y-120248776D01*
X133003057Y-120255388D01*
X132984018Y-120260157D01*
X132964603Y-120263037D01*
X132945000Y-120264000D01*
X132545000Y-120264000D01*
X132525397Y-120263037D01*
X132505982Y-120260157D01*
X132486943Y-120255388D01*
X132468463Y-120248776D01*
X132450721Y-120240384D01*
X132433886Y-120230294D01*
X132418121Y-120218602D01*
X132403579Y-120205421D01*
X132390398Y-120190879D01*
X132378706Y-120175114D01*
X132368616Y-120158279D01*
X132360224Y-120140537D01*
X132353612Y-120122057D01*
X132348843Y-120103018D01*
X132345963Y-120083603D01*
X132345000Y-120064000D01*
X132345000Y-119164000D01*
X132345963Y-119144397D01*
X132348843Y-119124982D01*
X132353612Y-119105943D01*
X132360224Y-119087463D01*
X132368616Y-119069721D01*
X132378706Y-119052886D01*
X132390398Y-119037121D01*
X132403579Y-119022579D01*
X132418121Y-119009398D01*
X132433886Y-118997706D01*
X132450721Y-118987616D01*
X132468463Y-118979224D01*
X132486943Y-118972612D01*
X132505982Y-118967843D01*
X132525397Y-118964963D01*
X132545000Y-118964000D01*
X132945000Y-118964000D01*
X132964603Y-118964963D01*
X132964603Y-118964963D01*
G37*
D22*
X132745000Y-119614000D03*
D10*
G36*
X134214603Y-118964963D02*
X134234018Y-118967843D01*
X134253057Y-118972612D01*
X134271537Y-118979224D01*
X134289279Y-118987616D01*
X134306114Y-118997706D01*
X134321879Y-119009398D01*
X134336421Y-119022579D01*
X134349602Y-119037121D01*
X134361294Y-119052886D01*
X134371384Y-119069721D01*
X134379776Y-119087463D01*
X134386388Y-119105943D01*
X134391157Y-119124982D01*
X134394037Y-119144397D01*
X134395000Y-119164000D01*
X134395000Y-120064000D01*
X134394037Y-120083603D01*
X134391157Y-120103018D01*
X134386388Y-120122057D01*
X134379776Y-120140537D01*
X134371384Y-120158279D01*
X134361294Y-120175114D01*
X134349602Y-120190879D01*
X134336421Y-120205421D01*
X134321879Y-120218602D01*
X134306114Y-120230294D01*
X134289279Y-120240384D01*
X134271537Y-120248776D01*
X134253057Y-120255388D01*
X134234018Y-120260157D01*
X134214603Y-120263037D01*
X134195000Y-120264000D01*
X133795000Y-120264000D01*
X133775397Y-120263037D01*
X133755982Y-120260157D01*
X133736943Y-120255388D01*
X133718463Y-120248776D01*
X133700721Y-120240384D01*
X133683886Y-120230294D01*
X133668121Y-120218602D01*
X133653579Y-120205421D01*
X133640398Y-120190879D01*
X133628706Y-120175114D01*
X133618616Y-120158279D01*
X133610224Y-120140537D01*
X133603612Y-120122057D01*
X133598843Y-120103018D01*
X133595963Y-120083603D01*
X133595000Y-120064000D01*
X133595000Y-119164000D01*
X133595963Y-119144397D01*
X133598843Y-119124982D01*
X133603612Y-119105943D01*
X133610224Y-119087463D01*
X133618616Y-119069721D01*
X133628706Y-119052886D01*
X133640398Y-119037121D01*
X133653579Y-119022579D01*
X133668121Y-119009398D01*
X133683886Y-118997706D01*
X133700721Y-118987616D01*
X133718463Y-118979224D01*
X133736943Y-118972612D01*
X133755982Y-118967843D01*
X133775397Y-118964963D01*
X133795000Y-118964000D01*
X134195000Y-118964000D01*
X134214603Y-118964963D01*
X134214603Y-118964963D01*
G37*
D22*
X133995000Y-119614000D03*
D10*
G36*
X135464603Y-118964963D02*
X135484018Y-118967843D01*
X135503057Y-118972612D01*
X135521537Y-118979224D01*
X135539279Y-118987616D01*
X135556114Y-118997706D01*
X135571879Y-119009398D01*
X135586421Y-119022579D01*
X135599602Y-119037121D01*
X135611294Y-119052886D01*
X135621384Y-119069721D01*
X135629776Y-119087463D01*
X135636388Y-119105943D01*
X135641157Y-119124982D01*
X135644037Y-119144397D01*
X135645000Y-119164000D01*
X135645000Y-120064000D01*
X135644037Y-120083603D01*
X135641157Y-120103018D01*
X135636388Y-120122057D01*
X135629776Y-120140537D01*
X135621384Y-120158279D01*
X135611294Y-120175114D01*
X135599602Y-120190879D01*
X135586421Y-120205421D01*
X135571879Y-120218602D01*
X135556114Y-120230294D01*
X135539279Y-120240384D01*
X135521537Y-120248776D01*
X135503057Y-120255388D01*
X135484018Y-120260157D01*
X135464603Y-120263037D01*
X135445000Y-120264000D01*
X135045000Y-120264000D01*
X135025397Y-120263037D01*
X135005982Y-120260157D01*
X134986943Y-120255388D01*
X134968463Y-120248776D01*
X134950721Y-120240384D01*
X134933886Y-120230294D01*
X134918121Y-120218602D01*
X134903579Y-120205421D01*
X134890398Y-120190879D01*
X134878706Y-120175114D01*
X134868616Y-120158279D01*
X134860224Y-120140537D01*
X134853612Y-120122057D01*
X134848843Y-120103018D01*
X134845963Y-120083603D01*
X134845000Y-120064000D01*
X134845000Y-119164000D01*
X134845963Y-119144397D01*
X134848843Y-119124982D01*
X134853612Y-119105943D01*
X134860224Y-119087463D01*
X134868616Y-119069721D01*
X134878706Y-119052886D01*
X134890398Y-119037121D01*
X134903579Y-119022579D01*
X134918121Y-119009398D01*
X134933886Y-118997706D01*
X134950721Y-118987616D01*
X134968463Y-118979224D01*
X134986943Y-118972612D01*
X135005982Y-118967843D01*
X135025397Y-118964963D01*
X135045000Y-118964000D01*
X135445000Y-118964000D01*
X135464603Y-118964963D01*
X135464603Y-118964963D01*
G37*
D22*
X135245000Y-119614000D03*
D10*
G36*
X136714603Y-118964963D02*
X136734018Y-118967843D01*
X136753057Y-118972612D01*
X136771537Y-118979224D01*
X136789279Y-118987616D01*
X136806114Y-118997706D01*
X136821879Y-119009398D01*
X136836421Y-119022579D01*
X136849602Y-119037121D01*
X136861294Y-119052886D01*
X136871384Y-119069721D01*
X136879776Y-119087463D01*
X136886388Y-119105943D01*
X136891157Y-119124982D01*
X136894037Y-119144397D01*
X136895000Y-119164000D01*
X136895000Y-120064000D01*
X136894037Y-120083603D01*
X136891157Y-120103018D01*
X136886388Y-120122057D01*
X136879776Y-120140537D01*
X136871384Y-120158279D01*
X136861294Y-120175114D01*
X136849602Y-120190879D01*
X136836421Y-120205421D01*
X136821879Y-120218602D01*
X136806114Y-120230294D01*
X136789279Y-120240384D01*
X136771537Y-120248776D01*
X136753057Y-120255388D01*
X136734018Y-120260157D01*
X136714603Y-120263037D01*
X136695000Y-120264000D01*
X136295000Y-120264000D01*
X136275397Y-120263037D01*
X136255982Y-120260157D01*
X136236943Y-120255388D01*
X136218463Y-120248776D01*
X136200721Y-120240384D01*
X136183886Y-120230294D01*
X136168121Y-120218602D01*
X136153579Y-120205421D01*
X136140398Y-120190879D01*
X136128706Y-120175114D01*
X136118616Y-120158279D01*
X136110224Y-120140537D01*
X136103612Y-120122057D01*
X136098843Y-120103018D01*
X136095963Y-120083603D01*
X136095000Y-120064000D01*
X136095000Y-119164000D01*
X136095963Y-119144397D01*
X136098843Y-119124982D01*
X136103612Y-119105943D01*
X136110224Y-119087463D01*
X136118616Y-119069721D01*
X136128706Y-119052886D01*
X136140398Y-119037121D01*
X136153579Y-119022579D01*
X136168121Y-119009398D01*
X136183886Y-118997706D01*
X136200721Y-118987616D01*
X136218463Y-118979224D01*
X136236943Y-118972612D01*
X136255982Y-118967843D01*
X136275397Y-118964963D01*
X136295000Y-118964000D01*
X136695000Y-118964000D01*
X136714603Y-118964963D01*
X136714603Y-118964963D01*
G37*
D22*
X136495000Y-119614000D03*
D10*
G36*
X137964603Y-118964963D02*
X137984018Y-118967843D01*
X138003057Y-118972612D01*
X138021537Y-118979224D01*
X138039279Y-118987616D01*
X138056114Y-118997706D01*
X138071879Y-119009398D01*
X138086421Y-119022579D01*
X138099602Y-119037121D01*
X138111294Y-119052886D01*
X138121384Y-119069721D01*
X138129776Y-119087463D01*
X138136388Y-119105943D01*
X138141157Y-119124982D01*
X138144037Y-119144397D01*
X138145000Y-119164000D01*
X138145000Y-120064000D01*
X138144037Y-120083603D01*
X138141157Y-120103018D01*
X138136388Y-120122057D01*
X138129776Y-120140537D01*
X138121384Y-120158279D01*
X138111294Y-120175114D01*
X138099602Y-120190879D01*
X138086421Y-120205421D01*
X138071879Y-120218602D01*
X138056114Y-120230294D01*
X138039279Y-120240384D01*
X138021537Y-120248776D01*
X138003057Y-120255388D01*
X137984018Y-120260157D01*
X137964603Y-120263037D01*
X137945000Y-120264000D01*
X137545000Y-120264000D01*
X137525397Y-120263037D01*
X137505982Y-120260157D01*
X137486943Y-120255388D01*
X137468463Y-120248776D01*
X137450721Y-120240384D01*
X137433886Y-120230294D01*
X137418121Y-120218602D01*
X137403579Y-120205421D01*
X137390398Y-120190879D01*
X137378706Y-120175114D01*
X137368616Y-120158279D01*
X137360224Y-120140537D01*
X137353612Y-120122057D01*
X137348843Y-120103018D01*
X137345963Y-120083603D01*
X137345000Y-120064000D01*
X137345000Y-119164000D01*
X137345963Y-119144397D01*
X137348843Y-119124982D01*
X137353612Y-119105943D01*
X137360224Y-119087463D01*
X137368616Y-119069721D01*
X137378706Y-119052886D01*
X137390398Y-119037121D01*
X137403579Y-119022579D01*
X137418121Y-119009398D01*
X137433886Y-118997706D01*
X137450721Y-118987616D01*
X137468463Y-118979224D01*
X137486943Y-118972612D01*
X137505982Y-118967843D01*
X137525397Y-118964963D01*
X137545000Y-118964000D01*
X137945000Y-118964000D01*
X137964603Y-118964963D01*
X137964603Y-118964963D01*
G37*
D22*
X137745000Y-119614000D03*
D10*
G36*
X139214603Y-118964963D02*
X139234018Y-118967843D01*
X139253057Y-118972612D01*
X139271537Y-118979224D01*
X139289279Y-118987616D01*
X139306114Y-118997706D01*
X139321879Y-119009398D01*
X139336421Y-119022579D01*
X139349602Y-119037121D01*
X139361294Y-119052886D01*
X139371384Y-119069721D01*
X139379776Y-119087463D01*
X139386388Y-119105943D01*
X139391157Y-119124982D01*
X139394037Y-119144397D01*
X139395000Y-119164000D01*
X139395000Y-120064000D01*
X139394037Y-120083603D01*
X139391157Y-120103018D01*
X139386388Y-120122057D01*
X139379776Y-120140537D01*
X139371384Y-120158279D01*
X139361294Y-120175114D01*
X139349602Y-120190879D01*
X139336421Y-120205421D01*
X139321879Y-120218602D01*
X139306114Y-120230294D01*
X139289279Y-120240384D01*
X139271537Y-120248776D01*
X139253057Y-120255388D01*
X139234018Y-120260157D01*
X139214603Y-120263037D01*
X139195000Y-120264000D01*
X138795000Y-120264000D01*
X138775397Y-120263037D01*
X138755982Y-120260157D01*
X138736943Y-120255388D01*
X138718463Y-120248776D01*
X138700721Y-120240384D01*
X138683886Y-120230294D01*
X138668121Y-120218602D01*
X138653579Y-120205421D01*
X138640398Y-120190879D01*
X138628706Y-120175114D01*
X138618616Y-120158279D01*
X138610224Y-120140537D01*
X138603612Y-120122057D01*
X138598843Y-120103018D01*
X138595963Y-120083603D01*
X138595000Y-120064000D01*
X138595000Y-119164000D01*
X138595963Y-119144397D01*
X138598843Y-119124982D01*
X138603612Y-119105943D01*
X138610224Y-119087463D01*
X138618616Y-119069721D01*
X138628706Y-119052886D01*
X138640398Y-119037121D01*
X138653579Y-119022579D01*
X138668121Y-119009398D01*
X138683886Y-118997706D01*
X138700721Y-118987616D01*
X138718463Y-118979224D01*
X138736943Y-118972612D01*
X138755982Y-118967843D01*
X138775397Y-118964963D01*
X138795000Y-118964000D01*
X139195000Y-118964000D01*
X139214603Y-118964963D01*
X139214603Y-118964963D01*
G37*
D22*
X138995000Y-119614000D03*
G04 #@! TD*
D23*
G04 #@! TO.C,D12*
X110733200Y-83159600D03*
X115733200Y-83159600D03*
G04 #@! TD*
D24*
G04 #@! TO.C,U3*
X99521000Y-93086000D03*
X99521000Y-94356000D03*
X99521000Y-95626000D03*
X99521000Y-96896000D03*
X99521000Y-98166000D03*
X99521000Y-99436000D03*
X99521000Y-100706000D03*
X99521000Y-101976000D03*
X99521000Y-103246000D03*
X99521000Y-104516000D03*
X99521000Y-105786000D03*
X99521000Y-107056000D03*
X99521000Y-108326000D03*
X99521000Y-109596000D03*
X99521000Y-110866000D03*
X99521000Y-112136000D03*
X99521000Y-113406000D03*
X99521000Y-114676000D03*
X99521000Y-115946000D03*
X117141000Y-115946000D03*
X117141000Y-114676000D03*
X117141000Y-113406000D03*
X117141000Y-112136000D03*
X117141000Y-110866000D03*
X117141000Y-109596000D03*
X117141000Y-108326000D03*
X117141000Y-107056000D03*
X117141000Y-105786000D03*
X117141000Y-104516000D03*
X117141000Y-103246000D03*
X117141000Y-101976000D03*
X117141000Y-100706000D03*
X117141000Y-99436000D03*
X117141000Y-98166000D03*
X117141000Y-96896000D03*
X117141000Y-95626000D03*
X117141000Y-94356000D03*
X117141000Y-93086000D03*
D25*
X106951000Y-100876000D03*
G04 #@! TD*
D26*
G04 #@! TO.C,U4*
X132584400Y-92365400D03*
X132584400Y-93015400D03*
X132584400Y-93665400D03*
X132584400Y-94315400D03*
X132584400Y-94965400D03*
X132584400Y-95615400D03*
X132584400Y-96265400D03*
X132584400Y-96915400D03*
X138484400Y-96915400D03*
X138484400Y-96265400D03*
X138484400Y-95615400D03*
X138484400Y-94965400D03*
X138484400Y-94315400D03*
X138484400Y-93665400D03*
X138484400Y-93015400D03*
X138484400Y-92365400D03*
G04 #@! TD*
D12*
G04 #@! TO.C,Q2*
X136414000Y-86375200D03*
X136414000Y-88275200D03*
X138414000Y-87325200D03*
G04 #@! TD*
G04 #@! TO.C,Q5*
X128127000Y-105664000D03*
X126127000Y-106614000D03*
X126127000Y-104714000D03*
G04 #@! TD*
D27*
G04 #@! TO.C,Q6*
X151927600Y-147437600D03*
X150027600Y-147437600D03*
X150977600Y-149437600D03*
G04 #@! TD*
D12*
G04 #@! TO.C,Q8*
X137633200Y-73675200D03*
X137633200Y-75575200D03*
X139633200Y-74625200D03*
G04 #@! TD*
G04 #@! TO.C,Q1*
X136515600Y-82158800D03*
X136515600Y-84058800D03*
X138515600Y-83108800D03*
G04 #@! TD*
D10*
G04 #@! TO.C,R23*
G36*
X166488905Y-154019604D02*
X166513173Y-154023204D01*
X166536972Y-154029165D01*
X166560071Y-154037430D01*
X166582250Y-154047920D01*
X166603293Y-154060532D01*
X166622999Y-154075147D01*
X166641177Y-154091623D01*
X166657653Y-154109801D01*
X166672268Y-154129507D01*
X166684880Y-154150550D01*
X166695370Y-154172729D01*
X166703635Y-154195828D01*
X166709596Y-154219627D01*
X166713196Y-154243895D01*
X166714400Y-154268399D01*
X166714400Y-154918401D01*
X166713196Y-154942905D01*
X166709596Y-154967173D01*
X166703635Y-154990972D01*
X166695370Y-155014071D01*
X166684880Y-155036250D01*
X166672268Y-155057293D01*
X166657653Y-155076999D01*
X166641177Y-155095177D01*
X166622999Y-155111653D01*
X166603293Y-155126268D01*
X166582250Y-155138880D01*
X166560071Y-155149370D01*
X166536972Y-155157635D01*
X166513173Y-155163596D01*
X166488905Y-155167196D01*
X166464401Y-155168400D01*
X165564399Y-155168400D01*
X165539895Y-155167196D01*
X165515627Y-155163596D01*
X165491828Y-155157635D01*
X165468729Y-155149370D01*
X165446550Y-155138880D01*
X165425507Y-155126268D01*
X165405801Y-155111653D01*
X165387623Y-155095177D01*
X165371147Y-155076999D01*
X165356532Y-155057293D01*
X165343920Y-155036250D01*
X165333430Y-155014071D01*
X165325165Y-154990972D01*
X165319204Y-154967173D01*
X165315604Y-154942905D01*
X165314400Y-154918401D01*
X165314400Y-154268399D01*
X165315604Y-154243895D01*
X165319204Y-154219627D01*
X165325165Y-154195828D01*
X165333430Y-154172729D01*
X165343920Y-154150550D01*
X165356532Y-154129507D01*
X165371147Y-154109801D01*
X165387623Y-154091623D01*
X165405801Y-154075147D01*
X165425507Y-154060532D01*
X165446550Y-154047920D01*
X165468729Y-154037430D01*
X165491828Y-154029165D01*
X165515627Y-154023204D01*
X165539895Y-154019604D01*
X165564399Y-154018400D01*
X166464401Y-154018400D01*
X166488905Y-154019604D01*
X166488905Y-154019604D01*
G37*
D13*
X166014400Y-154593400D03*
D10*
G36*
X166488905Y-151969604D02*
X166513173Y-151973204D01*
X166536972Y-151979165D01*
X166560071Y-151987430D01*
X166582250Y-151997920D01*
X166603293Y-152010532D01*
X166622999Y-152025147D01*
X166641177Y-152041623D01*
X166657653Y-152059801D01*
X166672268Y-152079507D01*
X166684880Y-152100550D01*
X166695370Y-152122729D01*
X166703635Y-152145828D01*
X166709596Y-152169627D01*
X166713196Y-152193895D01*
X166714400Y-152218399D01*
X166714400Y-152868401D01*
X166713196Y-152892905D01*
X166709596Y-152917173D01*
X166703635Y-152940972D01*
X166695370Y-152964071D01*
X166684880Y-152986250D01*
X166672268Y-153007293D01*
X166657653Y-153026999D01*
X166641177Y-153045177D01*
X166622999Y-153061653D01*
X166603293Y-153076268D01*
X166582250Y-153088880D01*
X166560071Y-153099370D01*
X166536972Y-153107635D01*
X166513173Y-153113596D01*
X166488905Y-153117196D01*
X166464401Y-153118400D01*
X165564399Y-153118400D01*
X165539895Y-153117196D01*
X165515627Y-153113596D01*
X165491828Y-153107635D01*
X165468729Y-153099370D01*
X165446550Y-153088880D01*
X165425507Y-153076268D01*
X165405801Y-153061653D01*
X165387623Y-153045177D01*
X165371147Y-153026999D01*
X165356532Y-153007293D01*
X165343920Y-152986250D01*
X165333430Y-152964071D01*
X165325165Y-152940972D01*
X165319204Y-152917173D01*
X165315604Y-152892905D01*
X165314400Y-152868401D01*
X165314400Y-152218399D01*
X165315604Y-152193895D01*
X165319204Y-152169627D01*
X165325165Y-152145828D01*
X165333430Y-152122729D01*
X165343920Y-152100550D01*
X165356532Y-152079507D01*
X165371147Y-152059801D01*
X165387623Y-152041623D01*
X165405801Y-152025147D01*
X165425507Y-152010532D01*
X165446550Y-151997920D01*
X165468729Y-151987430D01*
X165491828Y-151979165D01*
X165515627Y-151973204D01*
X165539895Y-151969604D01*
X165564399Y-151968400D01*
X166464401Y-151968400D01*
X166488905Y-151969604D01*
X166488905Y-151969604D01*
G37*
D13*
X166014400Y-152543400D03*
G04 #@! TD*
D10*
G04 #@! TO.C,R13*
G36*
X132623705Y-85661204D02*
X132647973Y-85664804D01*
X132671772Y-85670765D01*
X132694871Y-85679030D01*
X132717050Y-85689520D01*
X132738093Y-85702132D01*
X132757799Y-85716747D01*
X132775977Y-85733223D01*
X132792453Y-85751401D01*
X132807068Y-85771107D01*
X132819680Y-85792150D01*
X132830170Y-85814329D01*
X132838435Y-85837428D01*
X132844396Y-85861227D01*
X132847996Y-85885495D01*
X132849200Y-85909999D01*
X132849200Y-86810001D01*
X132847996Y-86834505D01*
X132844396Y-86858773D01*
X132838435Y-86882572D01*
X132830170Y-86905671D01*
X132819680Y-86927850D01*
X132807068Y-86948893D01*
X132792453Y-86968599D01*
X132775977Y-86986777D01*
X132757799Y-87003253D01*
X132738093Y-87017868D01*
X132717050Y-87030480D01*
X132694871Y-87040970D01*
X132671772Y-87049235D01*
X132647973Y-87055196D01*
X132623705Y-87058796D01*
X132599201Y-87060000D01*
X131949199Y-87060000D01*
X131924695Y-87058796D01*
X131900427Y-87055196D01*
X131876628Y-87049235D01*
X131853529Y-87040970D01*
X131831350Y-87030480D01*
X131810307Y-87017868D01*
X131790601Y-87003253D01*
X131772423Y-86986777D01*
X131755947Y-86968599D01*
X131741332Y-86948893D01*
X131728720Y-86927850D01*
X131718230Y-86905671D01*
X131709965Y-86882572D01*
X131704004Y-86858773D01*
X131700404Y-86834505D01*
X131699200Y-86810001D01*
X131699200Y-85909999D01*
X131700404Y-85885495D01*
X131704004Y-85861227D01*
X131709965Y-85837428D01*
X131718230Y-85814329D01*
X131728720Y-85792150D01*
X131741332Y-85771107D01*
X131755947Y-85751401D01*
X131772423Y-85733223D01*
X131790601Y-85716747D01*
X131810307Y-85702132D01*
X131831350Y-85689520D01*
X131853529Y-85679030D01*
X131876628Y-85670765D01*
X131900427Y-85664804D01*
X131924695Y-85661204D01*
X131949199Y-85660000D01*
X132599201Y-85660000D01*
X132623705Y-85661204D01*
X132623705Y-85661204D01*
G37*
D13*
X132274200Y-86360000D03*
D10*
G36*
X134673705Y-85661204D02*
X134697973Y-85664804D01*
X134721772Y-85670765D01*
X134744871Y-85679030D01*
X134767050Y-85689520D01*
X134788093Y-85702132D01*
X134807799Y-85716747D01*
X134825977Y-85733223D01*
X134842453Y-85751401D01*
X134857068Y-85771107D01*
X134869680Y-85792150D01*
X134880170Y-85814329D01*
X134888435Y-85837428D01*
X134894396Y-85861227D01*
X134897996Y-85885495D01*
X134899200Y-85909999D01*
X134899200Y-86810001D01*
X134897996Y-86834505D01*
X134894396Y-86858773D01*
X134888435Y-86882572D01*
X134880170Y-86905671D01*
X134869680Y-86927850D01*
X134857068Y-86948893D01*
X134842453Y-86968599D01*
X134825977Y-86986777D01*
X134807799Y-87003253D01*
X134788093Y-87017868D01*
X134767050Y-87030480D01*
X134744871Y-87040970D01*
X134721772Y-87049235D01*
X134697973Y-87055196D01*
X134673705Y-87058796D01*
X134649201Y-87060000D01*
X133999199Y-87060000D01*
X133974695Y-87058796D01*
X133950427Y-87055196D01*
X133926628Y-87049235D01*
X133903529Y-87040970D01*
X133881350Y-87030480D01*
X133860307Y-87017868D01*
X133840601Y-87003253D01*
X133822423Y-86986777D01*
X133805947Y-86968599D01*
X133791332Y-86948893D01*
X133778720Y-86927850D01*
X133768230Y-86905671D01*
X133759965Y-86882572D01*
X133754004Y-86858773D01*
X133750404Y-86834505D01*
X133749200Y-86810001D01*
X133749200Y-85909999D01*
X133750404Y-85885495D01*
X133754004Y-85861227D01*
X133759965Y-85837428D01*
X133768230Y-85814329D01*
X133778720Y-85792150D01*
X133791332Y-85771107D01*
X133805947Y-85751401D01*
X133822423Y-85733223D01*
X133840601Y-85716747D01*
X133860307Y-85702132D01*
X133881350Y-85689520D01*
X133903529Y-85679030D01*
X133926628Y-85670765D01*
X133950427Y-85664804D01*
X133974695Y-85661204D01*
X133999199Y-85660000D01*
X134649201Y-85660000D01*
X134673705Y-85661204D01*
X134673705Y-85661204D01*
G37*
D13*
X134324200Y-86360000D03*
G04 #@! TD*
D10*
G04 #@! TO.C,R21*
G36*
X122343705Y-93669204D02*
X122367973Y-93672804D01*
X122391772Y-93678765D01*
X122414871Y-93687030D01*
X122437050Y-93697520D01*
X122458093Y-93710132D01*
X122477799Y-93724747D01*
X122495977Y-93741223D01*
X122512453Y-93759401D01*
X122527068Y-93779107D01*
X122539680Y-93800150D01*
X122550170Y-93822329D01*
X122558435Y-93845428D01*
X122564396Y-93869227D01*
X122567996Y-93893495D01*
X122569200Y-93917999D01*
X122569200Y-94568001D01*
X122567996Y-94592505D01*
X122564396Y-94616773D01*
X122558435Y-94640572D01*
X122550170Y-94663671D01*
X122539680Y-94685850D01*
X122527068Y-94706893D01*
X122512453Y-94726599D01*
X122495977Y-94744777D01*
X122477799Y-94761253D01*
X122458093Y-94775868D01*
X122437050Y-94788480D01*
X122414871Y-94798970D01*
X122391772Y-94807235D01*
X122367973Y-94813196D01*
X122343705Y-94816796D01*
X122319201Y-94818000D01*
X121419199Y-94818000D01*
X121394695Y-94816796D01*
X121370427Y-94813196D01*
X121346628Y-94807235D01*
X121323529Y-94798970D01*
X121301350Y-94788480D01*
X121280307Y-94775868D01*
X121260601Y-94761253D01*
X121242423Y-94744777D01*
X121225947Y-94726599D01*
X121211332Y-94706893D01*
X121198720Y-94685850D01*
X121188230Y-94663671D01*
X121179965Y-94640572D01*
X121174004Y-94616773D01*
X121170404Y-94592505D01*
X121169200Y-94568001D01*
X121169200Y-93917999D01*
X121170404Y-93893495D01*
X121174004Y-93869227D01*
X121179965Y-93845428D01*
X121188230Y-93822329D01*
X121198720Y-93800150D01*
X121211332Y-93779107D01*
X121225947Y-93759401D01*
X121242423Y-93741223D01*
X121260601Y-93724747D01*
X121280307Y-93710132D01*
X121301350Y-93697520D01*
X121323529Y-93687030D01*
X121346628Y-93678765D01*
X121370427Y-93672804D01*
X121394695Y-93669204D01*
X121419199Y-93668000D01*
X122319201Y-93668000D01*
X122343705Y-93669204D01*
X122343705Y-93669204D01*
G37*
D13*
X121869200Y-94243000D03*
D10*
G36*
X122343705Y-91619204D02*
X122367973Y-91622804D01*
X122391772Y-91628765D01*
X122414871Y-91637030D01*
X122437050Y-91647520D01*
X122458093Y-91660132D01*
X122477799Y-91674747D01*
X122495977Y-91691223D01*
X122512453Y-91709401D01*
X122527068Y-91729107D01*
X122539680Y-91750150D01*
X122550170Y-91772329D01*
X122558435Y-91795428D01*
X122564396Y-91819227D01*
X122567996Y-91843495D01*
X122569200Y-91867999D01*
X122569200Y-92518001D01*
X122567996Y-92542505D01*
X122564396Y-92566773D01*
X122558435Y-92590572D01*
X122550170Y-92613671D01*
X122539680Y-92635850D01*
X122527068Y-92656893D01*
X122512453Y-92676599D01*
X122495977Y-92694777D01*
X122477799Y-92711253D01*
X122458093Y-92725868D01*
X122437050Y-92738480D01*
X122414871Y-92748970D01*
X122391772Y-92757235D01*
X122367973Y-92763196D01*
X122343705Y-92766796D01*
X122319201Y-92768000D01*
X121419199Y-92768000D01*
X121394695Y-92766796D01*
X121370427Y-92763196D01*
X121346628Y-92757235D01*
X121323529Y-92748970D01*
X121301350Y-92738480D01*
X121280307Y-92725868D01*
X121260601Y-92711253D01*
X121242423Y-92694777D01*
X121225947Y-92676599D01*
X121211332Y-92656893D01*
X121198720Y-92635850D01*
X121188230Y-92613671D01*
X121179965Y-92590572D01*
X121174004Y-92566773D01*
X121170404Y-92542505D01*
X121169200Y-92518001D01*
X121169200Y-91867999D01*
X121170404Y-91843495D01*
X121174004Y-91819227D01*
X121179965Y-91795428D01*
X121188230Y-91772329D01*
X121198720Y-91750150D01*
X121211332Y-91729107D01*
X121225947Y-91709401D01*
X121242423Y-91691223D01*
X121260601Y-91674747D01*
X121280307Y-91660132D01*
X121301350Y-91647520D01*
X121323529Y-91637030D01*
X121346628Y-91628765D01*
X121370427Y-91622804D01*
X121394695Y-91619204D01*
X121419199Y-91618000D01*
X122319201Y-91618000D01*
X122343705Y-91619204D01*
X122343705Y-91619204D01*
G37*
D13*
X121869200Y-92193000D03*
G04 #@! TD*
D10*
G04 #@! TO.C,R20*
G36*
X155058905Y-151886004D02*
X155083173Y-151889604D01*
X155106972Y-151895565D01*
X155130071Y-151903830D01*
X155152250Y-151914320D01*
X155173293Y-151926932D01*
X155192999Y-151941547D01*
X155211177Y-151958023D01*
X155227653Y-151976201D01*
X155242268Y-151995907D01*
X155254880Y-152016950D01*
X155265370Y-152039129D01*
X155273635Y-152062228D01*
X155279596Y-152086027D01*
X155283196Y-152110295D01*
X155284400Y-152134799D01*
X155284400Y-152784801D01*
X155283196Y-152809305D01*
X155279596Y-152833573D01*
X155273635Y-152857372D01*
X155265370Y-152880471D01*
X155254880Y-152902650D01*
X155242268Y-152923693D01*
X155227653Y-152943399D01*
X155211177Y-152961577D01*
X155192999Y-152978053D01*
X155173293Y-152992668D01*
X155152250Y-153005280D01*
X155130071Y-153015770D01*
X155106972Y-153024035D01*
X155083173Y-153029996D01*
X155058905Y-153033596D01*
X155034401Y-153034800D01*
X154134399Y-153034800D01*
X154109895Y-153033596D01*
X154085627Y-153029996D01*
X154061828Y-153024035D01*
X154038729Y-153015770D01*
X154016550Y-153005280D01*
X153995507Y-152992668D01*
X153975801Y-152978053D01*
X153957623Y-152961577D01*
X153941147Y-152943399D01*
X153926532Y-152923693D01*
X153913920Y-152902650D01*
X153903430Y-152880471D01*
X153895165Y-152857372D01*
X153889204Y-152833573D01*
X153885604Y-152809305D01*
X153884400Y-152784801D01*
X153884400Y-152134799D01*
X153885604Y-152110295D01*
X153889204Y-152086027D01*
X153895165Y-152062228D01*
X153903430Y-152039129D01*
X153913920Y-152016950D01*
X153926532Y-151995907D01*
X153941147Y-151976201D01*
X153957623Y-151958023D01*
X153975801Y-151941547D01*
X153995507Y-151926932D01*
X154016550Y-151914320D01*
X154038729Y-151903830D01*
X154061828Y-151895565D01*
X154085627Y-151889604D01*
X154109895Y-151886004D01*
X154134399Y-151884800D01*
X155034401Y-151884800D01*
X155058905Y-151886004D01*
X155058905Y-151886004D01*
G37*
D13*
X154584400Y-152459800D03*
D10*
G36*
X155058905Y-149836004D02*
X155083173Y-149839604D01*
X155106972Y-149845565D01*
X155130071Y-149853830D01*
X155152250Y-149864320D01*
X155173293Y-149876932D01*
X155192999Y-149891547D01*
X155211177Y-149908023D01*
X155227653Y-149926201D01*
X155242268Y-149945907D01*
X155254880Y-149966950D01*
X155265370Y-149989129D01*
X155273635Y-150012228D01*
X155279596Y-150036027D01*
X155283196Y-150060295D01*
X155284400Y-150084799D01*
X155284400Y-150734801D01*
X155283196Y-150759305D01*
X155279596Y-150783573D01*
X155273635Y-150807372D01*
X155265370Y-150830471D01*
X155254880Y-150852650D01*
X155242268Y-150873693D01*
X155227653Y-150893399D01*
X155211177Y-150911577D01*
X155192999Y-150928053D01*
X155173293Y-150942668D01*
X155152250Y-150955280D01*
X155130071Y-150965770D01*
X155106972Y-150974035D01*
X155083173Y-150979996D01*
X155058905Y-150983596D01*
X155034401Y-150984800D01*
X154134399Y-150984800D01*
X154109895Y-150983596D01*
X154085627Y-150979996D01*
X154061828Y-150974035D01*
X154038729Y-150965770D01*
X154016550Y-150955280D01*
X153995507Y-150942668D01*
X153975801Y-150928053D01*
X153957623Y-150911577D01*
X153941147Y-150893399D01*
X153926532Y-150873693D01*
X153913920Y-150852650D01*
X153903430Y-150830471D01*
X153895165Y-150807372D01*
X153889204Y-150783573D01*
X153885604Y-150759305D01*
X153884400Y-150734801D01*
X153884400Y-150084799D01*
X153885604Y-150060295D01*
X153889204Y-150036027D01*
X153895165Y-150012228D01*
X153903430Y-149989129D01*
X153913920Y-149966950D01*
X153926532Y-149945907D01*
X153941147Y-149926201D01*
X153957623Y-149908023D01*
X153975801Y-149891547D01*
X153995507Y-149876932D01*
X154016550Y-149864320D01*
X154038729Y-149853830D01*
X154061828Y-149845565D01*
X154085627Y-149839604D01*
X154109895Y-149836004D01*
X154134399Y-149834800D01*
X155034401Y-149834800D01*
X155058905Y-149836004D01*
X155058905Y-149836004D01*
G37*
D13*
X154584400Y-150409800D03*
G04 #@! TD*
D10*
G04 #@! TO.C,R19*
G36*
X149978905Y-152316204D02*
X150003173Y-152319804D01*
X150026972Y-152325765D01*
X150050071Y-152334030D01*
X150072250Y-152344520D01*
X150093293Y-152357132D01*
X150112999Y-152371747D01*
X150131177Y-152388223D01*
X150147653Y-152406401D01*
X150162268Y-152426107D01*
X150174880Y-152447150D01*
X150185370Y-152469329D01*
X150193635Y-152492428D01*
X150199596Y-152516227D01*
X150203196Y-152540495D01*
X150204400Y-152564999D01*
X150204400Y-153215001D01*
X150203196Y-153239505D01*
X150199596Y-153263773D01*
X150193635Y-153287572D01*
X150185370Y-153310671D01*
X150174880Y-153332850D01*
X150162268Y-153353893D01*
X150147653Y-153373599D01*
X150131177Y-153391777D01*
X150112999Y-153408253D01*
X150093293Y-153422868D01*
X150072250Y-153435480D01*
X150050071Y-153445970D01*
X150026972Y-153454235D01*
X150003173Y-153460196D01*
X149978905Y-153463796D01*
X149954401Y-153465000D01*
X149054399Y-153465000D01*
X149029895Y-153463796D01*
X149005627Y-153460196D01*
X148981828Y-153454235D01*
X148958729Y-153445970D01*
X148936550Y-153435480D01*
X148915507Y-153422868D01*
X148895801Y-153408253D01*
X148877623Y-153391777D01*
X148861147Y-153373599D01*
X148846532Y-153353893D01*
X148833920Y-153332850D01*
X148823430Y-153310671D01*
X148815165Y-153287572D01*
X148809204Y-153263773D01*
X148805604Y-153239505D01*
X148804400Y-153215001D01*
X148804400Y-152564999D01*
X148805604Y-152540495D01*
X148809204Y-152516227D01*
X148815165Y-152492428D01*
X148823430Y-152469329D01*
X148833920Y-152447150D01*
X148846532Y-152426107D01*
X148861147Y-152406401D01*
X148877623Y-152388223D01*
X148895801Y-152371747D01*
X148915507Y-152357132D01*
X148936550Y-152344520D01*
X148958729Y-152334030D01*
X148981828Y-152325765D01*
X149005627Y-152319804D01*
X149029895Y-152316204D01*
X149054399Y-152315000D01*
X149954401Y-152315000D01*
X149978905Y-152316204D01*
X149978905Y-152316204D01*
G37*
D13*
X149504400Y-152890000D03*
D10*
G36*
X149978905Y-154366204D02*
X150003173Y-154369804D01*
X150026972Y-154375765D01*
X150050071Y-154384030D01*
X150072250Y-154394520D01*
X150093293Y-154407132D01*
X150112999Y-154421747D01*
X150131177Y-154438223D01*
X150147653Y-154456401D01*
X150162268Y-154476107D01*
X150174880Y-154497150D01*
X150185370Y-154519329D01*
X150193635Y-154542428D01*
X150199596Y-154566227D01*
X150203196Y-154590495D01*
X150204400Y-154614999D01*
X150204400Y-155265001D01*
X150203196Y-155289505D01*
X150199596Y-155313773D01*
X150193635Y-155337572D01*
X150185370Y-155360671D01*
X150174880Y-155382850D01*
X150162268Y-155403893D01*
X150147653Y-155423599D01*
X150131177Y-155441777D01*
X150112999Y-155458253D01*
X150093293Y-155472868D01*
X150072250Y-155485480D01*
X150050071Y-155495970D01*
X150026972Y-155504235D01*
X150003173Y-155510196D01*
X149978905Y-155513796D01*
X149954401Y-155515000D01*
X149054399Y-155515000D01*
X149029895Y-155513796D01*
X149005627Y-155510196D01*
X148981828Y-155504235D01*
X148958729Y-155495970D01*
X148936550Y-155485480D01*
X148915507Y-155472868D01*
X148895801Y-155458253D01*
X148877623Y-155441777D01*
X148861147Y-155423599D01*
X148846532Y-155403893D01*
X148833920Y-155382850D01*
X148823430Y-155360671D01*
X148815165Y-155337572D01*
X148809204Y-155313773D01*
X148805604Y-155289505D01*
X148804400Y-155265001D01*
X148804400Y-154614999D01*
X148805604Y-154590495D01*
X148809204Y-154566227D01*
X148815165Y-154542428D01*
X148823430Y-154519329D01*
X148833920Y-154497150D01*
X148846532Y-154476107D01*
X148861147Y-154456401D01*
X148877623Y-154438223D01*
X148895801Y-154421747D01*
X148915507Y-154407132D01*
X148936550Y-154394520D01*
X148958729Y-154384030D01*
X148981828Y-154375765D01*
X149005627Y-154369804D01*
X149029895Y-154366204D01*
X149054399Y-154365000D01*
X149954401Y-154365000D01*
X149978905Y-154366204D01*
X149978905Y-154366204D01*
G37*
D13*
X149504400Y-154940000D03*
G04 #@! TD*
D10*
G04 #@! TO.C,R12*
G36*
X134673705Y-81444804D02*
X134697973Y-81448404D01*
X134721772Y-81454365D01*
X134744871Y-81462630D01*
X134767050Y-81473120D01*
X134788093Y-81485732D01*
X134807799Y-81500347D01*
X134825977Y-81516823D01*
X134842453Y-81535001D01*
X134857068Y-81554707D01*
X134869680Y-81575750D01*
X134880170Y-81597929D01*
X134888435Y-81621028D01*
X134894396Y-81644827D01*
X134897996Y-81669095D01*
X134899200Y-81693599D01*
X134899200Y-82593601D01*
X134897996Y-82618105D01*
X134894396Y-82642373D01*
X134888435Y-82666172D01*
X134880170Y-82689271D01*
X134869680Y-82711450D01*
X134857068Y-82732493D01*
X134842453Y-82752199D01*
X134825977Y-82770377D01*
X134807799Y-82786853D01*
X134788093Y-82801468D01*
X134767050Y-82814080D01*
X134744871Y-82824570D01*
X134721772Y-82832835D01*
X134697973Y-82838796D01*
X134673705Y-82842396D01*
X134649201Y-82843600D01*
X133999199Y-82843600D01*
X133974695Y-82842396D01*
X133950427Y-82838796D01*
X133926628Y-82832835D01*
X133903529Y-82824570D01*
X133881350Y-82814080D01*
X133860307Y-82801468D01*
X133840601Y-82786853D01*
X133822423Y-82770377D01*
X133805947Y-82752199D01*
X133791332Y-82732493D01*
X133778720Y-82711450D01*
X133768230Y-82689271D01*
X133759965Y-82666172D01*
X133754004Y-82642373D01*
X133750404Y-82618105D01*
X133749200Y-82593601D01*
X133749200Y-81693599D01*
X133750404Y-81669095D01*
X133754004Y-81644827D01*
X133759965Y-81621028D01*
X133768230Y-81597929D01*
X133778720Y-81575750D01*
X133791332Y-81554707D01*
X133805947Y-81535001D01*
X133822423Y-81516823D01*
X133840601Y-81500347D01*
X133860307Y-81485732D01*
X133881350Y-81473120D01*
X133903529Y-81462630D01*
X133926628Y-81454365D01*
X133950427Y-81448404D01*
X133974695Y-81444804D01*
X133999199Y-81443600D01*
X134649201Y-81443600D01*
X134673705Y-81444804D01*
X134673705Y-81444804D01*
G37*
D13*
X134324200Y-82143600D03*
D10*
G36*
X132623705Y-81444804D02*
X132647973Y-81448404D01*
X132671772Y-81454365D01*
X132694871Y-81462630D01*
X132717050Y-81473120D01*
X132738093Y-81485732D01*
X132757799Y-81500347D01*
X132775977Y-81516823D01*
X132792453Y-81535001D01*
X132807068Y-81554707D01*
X132819680Y-81575750D01*
X132830170Y-81597929D01*
X132838435Y-81621028D01*
X132844396Y-81644827D01*
X132847996Y-81669095D01*
X132849200Y-81693599D01*
X132849200Y-82593601D01*
X132847996Y-82618105D01*
X132844396Y-82642373D01*
X132838435Y-82666172D01*
X132830170Y-82689271D01*
X132819680Y-82711450D01*
X132807068Y-82732493D01*
X132792453Y-82752199D01*
X132775977Y-82770377D01*
X132757799Y-82786853D01*
X132738093Y-82801468D01*
X132717050Y-82814080D01*
X132694871Y-82824570D01*
X132671772Y-82832835D01*
X132647973Y-82838796D01*
X132623705Y-82842396D01*
X132599201Y-82843600D01*
X131949199Y-82843600D01*
X131924695Y-82842396D01*
X131900427Y-82838796D01*
X131876628Y-82832835D01*
X131853529Y-82824570D01*
X131831350Y-82814080D01*
X131810307Y-82801468D01*
X131790601Y-82786853D01*
X131772423Y-82770377D01*
X131755947Y-82752199D01*
X131741332Y-82732493D01*
X131728720Y-82711450D01*
X131718230Y-82689271D01*
X131709965Y-82666172D01*
X131704004Y-82642373D01*
X131700404Y-82618105D01*
X131699200Y-82593601D01*
X131699200Y-81693599D01*
X131700404Y-81669095D01*
X131704004Y-81644827D01*
X131709965Y-81621028D01*
X131718230Y-81597929D01*
X131728720Y-81575750D01*
X131741332Y-81554707D01*
X131755947Y-81535001D01*
X131772423Y-81516823D01*
X131790601Y-81500347D01*
X131810307Y-81485732D01*
X131831350Y-81473120D01*
X131853529Y-81462630D01*
X131876628Y-81454365D01*
X131900427Y-81448404D01*
X131924695Y-81444804D01*
X131949199Y-81443600D01*
X132599201Y-81443600D01*
X132623705Y-81444804D01*
X132623705Y-81444804D01*
G37*
D13*
X132274200Y-82143600D03*
G04 #@! TD*
D10*
G04 #@! TO.C,R22*
G36*
X122343705Y-95480004D02*
X122367973Y-95483604D01*
X122391772Y-95489565D01*
X122414871Y-95497830D01*
X122437050Y-95508320D01*
X122458093Y-95520932D01*
X122477799Y-95535547D01*
X122495977Y-95552023D01*
X122512453Y-95570201D01*
X122527068Y-95589907D01*
X122539680Y-95610950D01*
X122550170Y-95633129D01*
X122558435Y-95656228D01*
X122564396Y-95680027D01*
X122567996Y-95704295D01*
X122569200Y-95728799D01*
X122569200Y-96378801D01*
X122567996Y-96403305D01*
X122564396Y-96427573D01*
X122558435Y-96451372D01*
X122550170Y-96474471D01*
X122539680Y-96496650D01*
X122527068Y-96517693D01*
X122512453Y-96537399D01*
X122495977Y-96555577D01*
X122477799Y-96572053D01*
X122458093Y-96586668D01*
X122437050Y-96599280D01*
X122414871Y-96609770D01*
X122391772Y-96618035D01*
X122367973Y-96623996D01*
X122343705Y-96627596D01*
X122319201Y-96628800D01*
X121419199Y-96628800D01*
X121394695Y-96627596D01*
X121370427Y-96623996D01*
X121346628Y-96618035D01*
X121323529Y-96609770D01*
X121301350Y-96599280D01*
X121280307Y-96586668D01*
X121260601Y-96572053D01*
X121242423Y-96555577D01*
X121225947Y-96537399D01*
X121211332Y-96517693D01*
X121198720Y-96496650D01*
X121188230Y-96474471D01*
X121179965Y-96451372D01*
X121174004Y-96427573D01*
X121170404Y-96403305D01*
X121169200Y-96378801D01*
X121169200Y-95728799D01*
X121170404Y-95704295D01*
X121174004Y-95680027D01*
X121179965Y-95656228D01*
X121188230Y-95633129D01*
X121198720Y-95610950D01*
X121211332Y-95589907D01*
X121225947Y-95570201D01*
X121242423Y-95552023D01*
X121260601Y-95535547D01*
X121280307Y-95520932D01*
X121301350Y-95508320D01*
X121323529Y-95497830D01*
X121346628Y-95489565D01*
X121370427Y-95483604D01*
X121394695Y-95480004D01*
X121419199Y-95478800D01*
X122319201Y-95478800D01*
X122343705Y-95480004D01*
X122343705Y-95480004D01*
G37*
D13*
X121869200Y-96053800D03*
D10*
G36*
X122343705Y-97530004D02*
X122367973Y-97533604D01*
X122391772Y-97539565D01*
X122414871Y-97547830D01*
X122437050Y-97558320D01*
X122458093Y-97570932D01*
X122477799Y-97585547D01*
X122495977Y-97602023D01*
X122512453Y-97620201D01*
X122527068Y-97639907D01*
X122539680Y-97660950D01*
X122550170Y-97683129D01*
X122558435Y-97706228D01*
X122564396Y-97730027D01*
X122567996Y-97754295D01*
X122569200Y-97778799D01*
X122569200Y-98428801D01*
X122567996Y-98453305D01*
X122564396Y-98477573D01*
X122558435Y-98501372D01*
X122550170Y-98524471D01*
X122539680Y-98546650D01*
X122527068Y-98567693D01*
X122512453Y-98587399D01*
X122495977Y-98605577D01*
X122477799Y-98622053D01*
X122458093Y-98636668D01*
X122437050Y-98649280D01*
X122414871Y-98659770D01*
X122391772Y-98668035D01*
X122367973Y-98673996D01*
X122343705Y-98677596D01*
X122319201Y-98678800D01*
X121419199Y-98678800D01*
X121394695Y-98677596D01*
X121370427Y-98673996D01*
X121346628Y-98668035D01*
X121323529Y-98659770D01*
X121301350Y-98649280D01*
X121280307Y-98636668D01*
X121260601Y-98622053D01*
X121242423Y-98605577D01*
X121225947Y-98587399D01*
X121211332Y-98567693D01*
X121198720Y-98546650D01*
X121188230Y-98524471D01*
X121179965Y-98501372D01*
X121174004Y-98477573D01*
X121170404Y-98453305D01*
X121169200Y-98428801D01*
X121169200Y-97778799D01*
X121170404Y-97754295D01*
X121174004Y-97730027D01*
X121179965Y-97706228D01*
X121188230Y-97683129D01*
X121198720Y-97660950D01*
X121211332Y-97639907D01*
X121225947Y-97620201D01*
X121242423Y-97602023D01*
X121260601Y-97585547D01*
X121280307Y-97570932D01*
X121301350Y-97558320D01*
X121323529Y-97547830D01*
X121346628Y-97539565D01*
X121370427Y-97533604D01*
X121394695Y-97530004D01*
X121419199Y-97528800D01*
X122319201Y-97528800D01*
X122343705Y-97530004D01*
X122343705Y-97530004D01*
G37*
D13*
X121869200Y-98103800D03*
G04 #@! TD*
D10*
G04 #@! TO.C,R24*
G36*
X126331505Y-102051204D02*
X126355773Y-102054804D01*
X126379572Y-102060765D01*
X126402671Y-102069030D01*
X126424850Y-102079520D01*
X126445893Y-102092132D01*
X126465599Y-102106747D01*
X126483777Y-102123223D01*
X126500253Y-102141401D01*
X126514868Y-102161107D01*
X126527480Y-102182150D01*
X126537970Y-102204329D01*
X126546235Y-102227428D01*
X126552196Y-102251227D01*
X126555796Y-102275495D01*
X126557000Y-102299999D01*
X126557000Y-102950001D01*
X126555796Y-102974505D01*
X126552196Y-102998773D01*
X126546235Y-103022572D01*
X126537970Y-103045671D01*
X126527480Y-103067850D01*
X126514868Y-103088893D01*
X126500253Y-103108599D01*
X126483777Y-103126777D01*
X126465599Y-103143253D01*
X126445893Y-103157868D01*
X126424850Y-103170480D01*
X126402671Y-103180970D01*
X126379572Y-103189235D01*
X126355773Y-103195196D01*
X126331505Y-103198796D01*
X126307001Y-103200000D01*
X125406999Y-103200000D01*
X125382495Y-103198796D01*
X125358227Y-103195196D01*
X125334428Y-103189235D01*
X125311329Y-103180970D01*
X125289150Y-103170480D01*
X125268107Y-103157868D01*
X125248401Y-103143253D01*
X125230223Y-103126777D01*
X125213747Y-103108599D01*
X125199132Y-103088893D01*
X125186520Y-103067850D01*
X125176030Y-103045671D01*
X125167765Y-103022572D01*
X125161804Y-102998773D01*
X125158204Y-102974505D01*
X125157000Y-102950001D01*
X125157000Y-102299999D01*
X125158204Y-102275495D01*
X125161804Y-102251227D01*
X125167765Y-102227428D01*
X125176030Y-102204329D01*
X125186520Y-102182150D01*
X125199132Y-102161107D01*
X125213747Y-102141401D01*
X125230223Y-102123223D01*
X125248401Y-102106747D01*
X125268107Y-102092132D01*
X125289150Y-102079520D01*
X125311329Y-102069030D01*
X125334428Y-102060765D01*
X125358227Y-102054804D01*
X125382495Y-102051204D01*
X125406999Y-102050000D01*
X126307001Y-102050000D01*
X126331505Y-102051204D01*
X126331505Y-102051204D01*
G37*
D13*
X125857000Y-102625000D03*
D10*
G36*
X126331505Y-100001204D02*
X126355773Y-100004804D01*
X126379572Y-100010765D01*
X126402671Y-100019030D01*
X126424850Y-100029520D01*
X126445893Y-100042132D01*
X126465599Y-100056747D01*
X126483777Y-100073223D01*
X126500253Y-100091401D01*
X126514868Y-100111107D01*
X126527480Y-100132150D01*
X126537970Y-100154329D01*
X126546235Y-100177428D01*
X126552196Y-100201227D01*
X126555796Y-100225495D01*
X126557000Y-100249999D01*
X126557000Y-100900001D01*
X126555796Y-100924505D01*
X126552196Y-100948773D01*
X126546235Y-100972572D01*
X126537970Y-100995671D01*
X126527480Y-101017850D01*
X126514868Y-101038893D01*
X126500253Y-101058599D01*
X126483777Y-101076777D01*
X126465599Y-101093253D01*
X126445893Y-101107868D01*
X126424850Y-101120480D01*
X126402671Y-101130970D01*
X126379572Y-101139235D01*
X126355773Y-101145196D01*
X126331505Y-101148796D01*
X126307001Y-101150000D01*
X125406999Y-101150000D01*
X125382495Y-101148796D01*
X125358227Y-101145196D01*
X125334428Y-101139235D01*
X125311329Y-101130970D01*
X125289150Y-101120480D01*
X125268107Y-101107868D01*
X125248401Y-101093253D01*
X125230223Y-101076777D01*
X125213747Y-101058599D01*
X125199132Y-101038893D01*
X125186520Y-101017850D01*
X125176030Y-100995671D01*
X125167765Y-100972572D01*
X125161804Y-100948773D01*
X125158204Y-100924505D01*
X125157000Y-100900001D01*
X125157000Y-100249999D01*
X125158204Y-100225495D01*
X125161804Y-100201227D01*
X125167765Y-100177428D01*
X125176030Y-100154329D01*
X125186520Y-100132150D01*
X125199132Y-100111107D01*
X125213747Y-100091401D01*
X125230223Y-100073223D01*
X125248401Y-100056747D01*
X125268107Y-100042132D01*
X125289150Y-100029520D01*
X125311329Y-100019030D01*
X125334428Y-100010765D01*
X125358227Y-100004804D01*
X125382495Y-100001204D01*
X125406999Y-100000000D01*
X126307001Y-100000000D01*
X126331505Y-100001204D01*
X126331505Y-100001204D01*
G37*
D13*
X125857000Y-100575000D03*
G04 #@! TD*
D10*
G04 #@! TO.C,R27*
G36*
X160485505Y-149836004D02*
X160509773Y-149839604D01*
X160533572Y-149845565D01*
X160556671Y-149853830D01*
X160578850Y-149864320D01*
X160599893Y-149876932D01*
X160619599Y-149891547D01*
X160637777Y-149908023D01*
X160654253Y-149926201D01*
X160668868Y-149945907D01*
X160681480Y-149966950D01*
X160691970Y-149989129D01*
X160700235Y-150012228D01*
X160706196Y-150036027D01*
X160709796Y-150060295D01*
X160711000Y-150084799D01*
X160711000Y-150734801D01*
X160709796Y-150759305D01*
X160706196Y-150783573D01*
X160700235Y-150807372D01*
X160691970Y-150830471D01*
X160681480Y-150852650D01*
X160668868Y-150873693D01*
X160654253Y-150893399D01*
X160637777Y-150911577D01*
X160619599Y-150928053D01*
X160599893Y-150942668D01*
X160578850Y-150955280D01*
X160556671Y-150965770D01*
X160533572Y-150974035D01*
X160509773Y-150979996D01*
X160485505Y-150983596D01*
X160461001Y-150984800D01*
X159560999Y-150984800D01*
X159536495Y-150983596D01*
X159512227Y-150979996D01*
X159488428Y-150974035D01*
X159465329Y-150965770D01*
X159443150Y-150955280D01*
X159422107Y-150942668D01*
X159402401Y-150928053D01*
X159384223Y-150911577D01*
X159367747Y-150893399D01*
X159353132Y-150873693D01*
X159340520Y-150852650D01*
X159330030Y-150830471D01*
X159321765Y-150807372D01*
X159315804Y-150783573D01*
X159312204Y-150759305D01*
X159311000Y-150734801D01*
X159311000Y-150084799D01*
X159312204Y-150060295D01*
X159315804Y-150036027D01*
X159321765Y-150012228D01*
X159330030Y-149989129D01*
X159340520Y-149966950D01*
X159353132Y-149945907D01*
X159367747Y-149926201D01*
X159384223Y-149908023D01*
X159402401Y-149891547D01*
X159422107Y-149876932D01*
X159443150Y-149864320D01*
X159465329Y-149853830D01*
X159488428Y-149845565D01*
X159512227Y-149839604D01*
X159536495Y-149836004D01*
X159560999Y-149834800D01*
X160461001Y-149834800D01*
X160485505Y-149836004D01*
X160485505Y-149836004D01*
G37*
D13*
X160011000Y-150409800D03*
D10*
G36*
X160485505Y-151886004D02*
X160509773Y-151889604D01*
X160533572Y-151895565D01*
X160556671Y-151903830D01*
X160578850Y-151914320D01*
X160599893Y-151926932D01*
X160619599Y-151941547D01*
X160637777Y-151958023D01*
X160654253Y-151976201D01*
X160668868Y-151995907D01*
X160681480Y-152016950D01*
X160691970Y-152039129D01*
X160700235Y-152062228D01*
X160706196Y-152086027D01*
X160709796Y-152110295D01*
X160711000Y-152134799D01*
X160711000Y-152784801D01*
X160709796Y-152809305D01*
X160706196Y-152833573D01*
X160700235Y-152857372D01*
X160691970Y-152880471D01*
X160681480Y-152902650D01*
X160668868Y-152923693D01*
X160654253Y-152943399D01*
X160637777Y-152961577D01*
X160619599Y-152978053D01*
X160599893Y-152992668D01*
X160578850Y-153005280D01*
X160556671Y-153015770D01*
X160533572Y-153024035D01*
X160509773Y-153029996D01*
X160485505Y-153033596D01*
X160461001Y-153034800D01*
X159560999Y-153034800D01*
X159536495Y-153033596D01*
X159512227Y-153029996D01*
X159488428Y-153024035D01*
X159465329Y-153015770D01*
X159443150Y-153005280D01*
X159422107Y-152992668D01*
X159402401Y-152978053D01*
X159384223Y-152961577D01*
X159367747Y-152943399D01*
X159353132Y-152923693D01*
X159340520Y-152902650D01*
X159330030Y-152880471D01*
X159321765Y-152857372D01*
X159315804Y-152833573D01*
X159312204Y-152809305D01*
X159311000Y-152784801D01*
X159311000Y-152134799D01*
X159312204Y-152110295D01*
X159315804Y-152086027D01*
X159321765Y-152062228D01*
X159330030Y-152039129D01*
X159340520Y-152016950D01*
X159353132Y-151995907D01*
X159367747Y-151976201D01*
X159384223Y-151958023D01*
X159402401Y-151941547D01*
X159422107Y-151926932D01*
X159443150Y-151914320D01*
X159465329Y-151903830D01*
X159488428Y-151895565D01*
X159512227Y-151889604D01*
X159536495Y-151886004D01*
X159560999Y-151884800D01*
X160461001Y-151884800D01*
X160485505Y-151886004D01*
X160485505Y-151886004D01*
G37*
D13*
X160011000Y-152459800D03*
G04 #@! TD*
D10*
G04 #@! TO.C,R25*
G36*
X155958905Y-146976804D02*
X155983173Y-146980404D01*
X156006972Y-146986365D01*
X156030071Y-146994630D01*
X156052250Y-147005120D01*
X156073293Y-147017732D01*
X156092999Y-147032347D01*
X156111177Y-147048823D01*
X156127653Y-147067001D01*
X156142268Y-147086707D01*
X156154880Y-147107750D01*
X156165370Y-147129929D01*
X156173635Y-147153028D01*
X156179596Y-147176827D01*
X156183196Y-147201095D01*
X156184400Y-147225599D01*
X156184400Y-148125601D01*
X156183196Y-148150105D01*
X156179596Y-148174373D01*
X156173635Y-148198172D01*
X156165370Y-148221271D01*
X156154880Y-148243450D01*
X156142268Y-148264493D01*
X156127653Y-148284199D01*
X156111177Y-148302377D01*
X156092999Y-148318853D01*
X156073293Y-148333468D01*
X156052250Y-148346080D01*
X156030071Y-148356570D01*
X156006972Y-148364835D01*
X155983173Y-148370796D01*
X155958905Y-148374396D01*
X155934401Y-148375600D01*
X155284399Y-148375600D01*
X155259895Y-148374396D01*
X155235627Y-148370796D01*
X155211828Y-148364835D01*
X155188729Y-148356570D01*
X155166550Y-148346080D01*
X155145507Y-148333468D01*
X155125801Y-148318853D01*
X155107623Y-148302377D01*
X155091147Y-148284199D01*
X155076532Y-148264493D01*
X155063920Y-148243450D01*
X155053430Y-148221271D01*
X155045165Y-148198172D01*
X155039204Y-148174373D01*
X155035604Y-148150105D01*
X155034400Y-148125601D01*
X155034400Y-147225599D01*
X155035604Y-147201095D01*
X155039204Y-147176827D01*
X155045165Y-147153028D01*
X155053430Y-147129929D01*
X155063920Y-147107750D01*
X155076532Y-147086707D01*
X155091147Y-147067001D01*
X155107623Y-147048823D01*
X155125801Y-147032347D01*
X155145507Y-147017732D01*
X155166550Y-147005120D01*
X155188729Y-146994630D01*
X155211828Y-146986365D01*
X155235627Y-146980404D01*
X155259895Y-146976804D01*
X155284399Y-146975600D01*
X155934401Y-146975600D01*
X155958905Y-146976804D01*
X155958905Y-146976804D01*
G37*
D13*
X155609400Y-147675600D03*
D10*
G36*
X153908905Y-146976804D02*
X153933173Y-146980404D01*
X153956972Y-146986365D01*
X153980071Y-146994630D01*
X154002250Y-147005120D01*
X154023293Y-147017732D01*
X154042999Y-147032347D01*
X154061177Y-147048823D01*
X154077653Y-147067001D01*
X154092268Y-147086707D01*
X154104880Y-147107750D01*
X154115370Y-147129929D01*
X154123635Y-147153028D01*
X154129596Y-147176827D01*
X154133196Y-147201095D01*
X154134400Y-147225599D01*
X154134400Y-148125601D01*
X154133196Y-148150105D01*
X154129596Y-148174373D01*
X154123635Y-148198172D01*
X154115370Y-148221271D01*
X154104880Y-148243450D01*
X154092268Y-148264493D01*
X154077653Y-148284199D01*
X154061177Y-148302377D01*
X154042999Y-148318853D01*
X154023293Y-148333468D01*
X154002250Y-148346080D01*
X153980071Y-148356570D01*
X153956972Y-148364835D01*
X153933173Y-148370796D01*
X153908905Y-148374396D01*
X153884401Y-148375600D01*
X153234399Y-148375600D01*
X153209895Y-148374396D01*
X153185627Y-148370796D01*
X153161828Y-148364835D01*
X153138729Y-148356570D01*
X153116550Y-148346080D01*
X153095507Y-148333468D01*
X153075801Y-148318853D01*
X153057623Y-148302377D01*
X153041147Y-148284199D01*
X153026532Y-148264493D01*
X153013920Y-148243450D01*
X153003430Y-148221271D01*
X152995165Y-148198172D01*
X152989204Y-148174373D01*
X152985604Y-148150105D01*
X152984400Y-148125601D01*
X152984400Y-147225599D01*
X152985604Y-147201095D01*
X152989204Y-147176827D01*
X152995165Y-147153028D01*
X153003430Y-147129929D01*
X153013920Y-147107750D01*
X153026532Y-147086707D01*
X153041147Y-147067001D01*
X153057623Y-147048823D01*
X153075801Y-147032347D01*
X153095507Y-147017732D01*
X153116550Y-147005120D01*
X153138729Y-146994630D01*
X153161828Y-146986365D01*
X153185627Y-146980404D01*
X153209895Y-146976804D01*
X153234399Y-146975600D01*
X153884401Y-146975600D01*
X153908905Y-146976804D01*
X153908905Y-146976804D01*
G37*
D13*
X153559400Y-147675600D03*
G04 #@! TD*
D10*
G04 #@! TO.C,R3*
G36*
X141698505Y-80646404D02*
X141722773Y-80650004D01*
X141746572Y-80655965D01*
X141769671Y-80664230D01*
X141791850Y-80674720D01*
X141812893Y-80687332D01*
X141832599Y-80701947D01*
X141850777Y-80718423D01*
X141867253Y-80736601D01*
X141881868Y-80756307D01*
X141894480Y-80777350D01*
X141904970Y-80799529D01*
X141913235Y-80822628D01*
X141919196Y-80846427D01*
X141922796Y-80870695D01*
X141924000Y-80895199D01*
X141924000Y-81545201D01*
X141922796Y-81569705D01*
X141919196Y-81593973D01*
X141913235Y-81617772D01*
X141904970Y-81640871D01*
X141894480Y-81663050D01*
X141881868Y-81684093D01*
X141867253Y-81703799D01*
X141850777Y-81721977D01*
X141832599Y-81738453D01*
X141812893Y-81753068D01*
X141791850Y-81765680D01*
X141769671Y-81776170D01*
X141746572Y-81784435D01*
X141722773Y-81790396D01*
X141698505Y-81793996D01*
X141674001Y-81795200D01*
X140773999Y-81795200D01*
X140749495Y-81793996D01*
X140725227Y-81790396D01*
X140701428Y-81784435D01*
X140678329Y-81776170D01*
X140656150Y-81765680D01*
X140635107Y-81753068D01*
X140615401Y-81738453D01*
X140597223Y-81721977D01*
X140580747Y-81703799D01*
X140566132Y-81684093D01*
X140553520Y-81663050D01*
X140543030Y-81640871D01*
X140534765Y-81617772D01*
X140528804Y-81593973D01*
X140525204Y-81569705D01*
X140524000Y-81545201D01*
X140524000Y-80895199D01*
X140525204Y-80870695D01*
X140528804Y-80846427D01*
X140534765Y-80822628D01*
X140543030Y-80799529D01*
X140553520Y-80777350D01*
X140566132Y-80756307D01*
X140580747Y-80736601D01*
X140597223Y-80718423D01*
X140615401Y-80701947D01*
X140635107Y-80687332D01*
X140656150Y-80674720D01*
X140678329Y-80664230D01*
X140701428Y-80655965D01*
X140725227Y-80650004D01*
X140749495Y-80646404D01*
X140773999Y-80645200D01*
X141674001Y-80645200D01*
X141698505Y-80646404D01*
X141698505Y-80646404D01*
G37*
D13*
X141224000Y-81220200D03*
D10*
G36*
X141698505Y-82696404D02*
X141722773Y-82700004D01*
X141746572Y-82705965D01*
X141769671Y-82714230D01*
X141791850Y-82724720D01*
X141812893Y-82737332D01*
X141832599Y-82751947D01*
X141850777Y-82768423D01*
X141867253Y-82786601D01*
X141881868Y-82806307D01*
X141894480Y-82827350D01*
X141904970Y-82849529D01*
X141913235Y-82872628D01*
X141919196Y-82896427D01*
X141922796Y-82920695D01*
X141924000Y-82945199D01*
X141924000Y-83595201D01*
X141922796Y-83619705D01*
X141919196Y-83643973D01*
X141913235Y-83667772D01*
X141904970Y-83690871D01*
X141894480Y-83713050D01*
X141881868Y-83734093D01*
X141867253Y-83753799D01*
X141850777Y-83771977D01*
X141832599Y-83788453D01*
X141812893Y-83803068D01*
X141791850Y-83815680D01*
X141769671Y-83826170D01*
X141746572Y-83834435D01*
X141722773Y-83840396D01*
X141698505Y-83843996D01*
X141674001Y-83845200D01*
X140773999Y-83845200D01*
X140749495Y-83843996D01*
X140725227Y-83840396D01*
X140701428Y-83834435D01*
X140678329Y-83826170D01*
X140656150Y-83815680D01*
X140635107Y-83803068D01*
X140615401Y-83788453D01*
X140597223Y-83771977D01*
X140580747Y-83753799D01*
X140566132Y-83734093D01*
X140553520Y-83713050D01*
X140543030Y-83690871D01*
X140534765Y-83667772D01*
X140528804Y-83643973D01*
X140525204Y-83619705D01*
X140524000Y-83595201D01*
X140524000Y-82945199D01*
X140525204Y-82920695D01*
X140528804Y-82896427D01*
X140534765Y-82872628D01*
X140543030Y-82849529D01*
X140553520Y-82827350D01*
X140566132Y-82806307D01*
X140580747Y-82786601D01*
X140597223Y-82768423D01*
X140615401Y-82751947D01*
X140635107Y-82737332D01*
X140656150Y-82724720D01*
X140678329Y-82714230D01*
X140701428Y-82705965D01*
X140725227Y-82700004D01*
X140749495Y-82696404D01*
X140773999Y-82695200D01*
X141674001Y-82695200D01*
X141698505Y-82696404D01*
X141698505Y-82696404D01*
G37*
D13*
X141224000Y-83270200D03*
G04 #@! TD*
D10*
G04 #@! TO.C,R2*
G36*
X138294905Y-71317204D02*
X138319173Y-71320804D01*
X138342972Y-71326765D01*
X138366071Y-71335030D01*
X138388250Y-71345520D01*
X138409293Y-71358132D01*
X138428999Y-71372747D01*
X138447177Y-71389223D01*
X138463653Y-71407401D01*
X138478268Y-71427107D01*
X138490880Y-71448150D01*
X138501370Y-71470329D01*
X138509635Y-71493428D01*
X138515596Y-71517227D01*
X138519196Y-71541495D01*
X138520400Y-71565999D01*
X138520400Y-72216001D01*
X138519196Y-72240505D01*
X138515596Y-72264773D01*
X138509635Y-72288572D01*
X138501370Y-72311671D01*
X138490880Y-72333850D01*
X138478268Y-72354893D01*
X138463653Y-72374599D01*
X138447177Y-72392777D01*
X138428999Y-72409253D01*
X138409293Y-72423868D01*
X138388250Y-72436480D01*
X138366071Y-72446970D01*
X138342972Y-72455235D01*
X138319173Y-72461196D01*
X138294905Y-72464796D01*
X138270401Y-72466000D01*
X137370399Y-72466000D01*
X137345895Y-72464796D01*
X137321627Y-72461196D01*
X137297828Y-72455235D01*
X137274729Y-72446970D01*
X137252550Y-72436480D01*
X137231507Y-72423868D01*
X137211801Y-72409253D01*
X137193623Y-72392777D01*
X137177147Y-72374599D01*
X137162532Y-72354893D01*
X137149920Y-72333850D01*
X137139430Y-72311671D01*
X137131165Y-72288572D01*
X137125204Y-72264773D01*
X137121604Y-72240505D01*
X137120400Y-72216001D01*
X137120400Y-71565999D01*
X137121604Y-71541495D01*
X137125204Y-71517227D01*
X137131165Y-71493428D01*
X137139430Y-71470329D01*
X137149920Y-71448150D01*
X137162532Y-71427107D01*
X137177147Y-71407401D01*
X137193623Y-71389223D01*
X137211801Y-71372747D01*
X137231507Y-71358132D01*
X137252550Y-71345520D01*
X137274729Y-71335030D01*
X137297828Y-71326765D01*
X137321627Y-71320804D01*
X137345895Y-71317204D01*
X137370399Y-71316000D01*
X138270401Y-71316000D01*
X138294905Y-71317204D01*
X138294905Y-71317204D01*
G37*
D13*
X137820400Y-71891000D03*
D10*
G36*
X138294905Y-69267204D02*
X138319173Y-69270804D01*
X138342972Y-69276765D01*
X138366071Y-69285030D01*
X138388250Y-69295520D01*
X138409293Y-69308132D01*
X138428999Y-69322747D01*
X138447177Y-69339223D01*
X138463653Y-69357401D01*
X138478268Y-69377107D01*
X138490880Y-69398150D01*
X138501370Y-69420329D01*
X138509635Y-69443428D01*
X138515596Y-69467227D01*
X138519196Y-69491495D01*
X138520400Y-69515999D01*
X138520400Y-70166001D01*
X138519196Y-70190505D01*
X138515596Y-70214773D01*
X138509635Y-70238572D01*
X138501370Y-70261671D01*
X138490880Y-70283850D01*
X138478268Y-70304893D01*
X138463653Y-70324599D01*
X138447177Y-70342777D01*
X138428999Y-70359253D01*
X138409293Y-70373868D01*
X138388250Y-70386480D01*
X138366071Y-70396970D01*
X138342972Y-70405235D01*
X138319173Y-70411196D01*
X138294905Y-70414796D01*
X138270401Y-70416000D01*
X137370399Y-70416000D01*
X137345895Y-70414796D01*
X137321627Y-70411196D01*
X137297828Y-70405235D01*
X137274729Y-70396970D01*
X137252550Y-70386480D01*
X137231507Y-70373868D01*
X137211801Y-70359253D01*
X137193623Y-70342777D01*
X137177147Y-70324599D01*
X137162532Y-70304893D01*
X137149920Y-70283850D01*
X137139430Y-70261671D01*
X137131165Y-70238572D01*
X137125204Y-70214773D01*
X137121604Y-70190505D01*
X137120400Y-70166001D01*
X137120400Y-69515999D01*
X137121604Y-69491495D01*
X137125204Y-69467227D01*
X137131165Y-69443428D01*
X137139430Y-69420329D01*
X137149920Y-69398150D01*
X137162532Y-69377107D01*
X137177147Y-69357401D01*
X137193623Y-69339223D01*
X137211801Y-69322747D01*
X137231507Y-69308132D01*
X137252550Y-69295520D01*
X137274729Y-69285030D01*
X137297828Y-69276765D01*
X137321627Y-69270804D01*
X137345895Y-69267204D01*
X137370399Y-69266000D01*
X138270401Y-69266000D01*
X138294905Y-69267204D01*
X138294905Y-69267204D01*
G37*
D13*
X137820400Y-69841000D03*
G04 #@! TD*
D10*
G04 #@! TO.C,R9*
G36*
X140802505Y-93789204D02*
X140826773Y-93792804D01*
X140850572Y-93798765D01*
X140873671Y-93807030D01*
X140895850Y-93817520D01*
X140916893Y-93830132D01*
X140936599Y-93844747D01*
X140954777Y-93861223D01*
X140971253Y-93879401D01*
X140985868Y-93899107D01*
X140998480Y-93920150D01*
X141008970Y-93942329D01*
X141017235Y-93965428D01*
X141023196Y-93989227D01*
X141026796Y-94013495D01*
X141028000Y-94037999D01*
X141028000Y-94938001D01*
X141026796Y-94962505D01*
X141023196Y-94986773D01*
X141017235Y-95010572D01*
X141008970Y-95033671D01*
X140998480Y-95055850D01*
X140985868Y-95076893D01*
X140971253Y-95096599D01*
X140954777Y-95114777D01*
X140936599Y-95131253D01*
X140916893Y-95145868D01*
X140895850Y-95158480D01*
X140873671Y-95168970D01*
X140850572Y-95177235D01*
X140826773Y-95183196D01*
X140802505Y-95186796D01*
X140778001Y-95188000D01*
X140127999Y-95188000D01*
X140103495Y-95186796D01*
X140079227Y-95183196D01*
X140055428Y-95177235D01*
X140032329Y-95168970D01*
X140010150Y-95158480D01*
X139989107Y-95145868D01*
X139969401Y-95131253D01*
X139951223Y-95114777D01*
X139934747Y-95096599D01*
X139920132Y-95076893D01*
X139907520Y-95055850D01*
X139897030Y-95033671D01*
X139888765Y-95010572D01*
X139882804Y-94986773D01*
X139879204Y-94962505D01*
X139878000Y-94938001D01*
X139878000Y-94037999D01*
X139879204Y-94013495D01*
X139882804Y-93989227D01*
X139888765Y-93965428D01*
X139897030Y-93942329D01*
X139907520Y-93920150D01*
X139920132Y-93899107D01*
X139934747Y-93879401D01*
X139951223Y-93861223D01*
X139969401Y-93844747D01*
X139989107Y-93830132D01*
X140010150Y-93817520D01*
X140032329Y-93807030D01*
X140055428Y-93798765D01*
X140079227Y-93792804D01*
X140103495Y-93789204D01*
X140127999Y-93788000D01*
X140778001Y-93788000D01*
X140802505Y-93789204D01*
X140802505Y-93789204D01*
G37*
D13*
X140453000Y-94488000D03*
D10*
G36*
X142852505Y-93789204D02*
X142876773Y-93792804D01*
X142900572Y-93798765D01*
X142923671Y-93807030D01*
X142945850Y-93817520D01*
X142966893Y-93830132D01*
X142986599Y-93844747D01*
X143004777Y-93861223D01*
X143021253Y-93879401D01*
X143035868Y-93899107D01*
X143048480Y-93920150D01*
X143058970Y-93942329D01*
X143067235Y-93965428D01*
X143073196Y-93989227D01*
X143076796Y-94013495D01*
X143078000Y-94037999D01*
X143078000Y-94938001D01*
X143076796Y-94962505D01*
X143073196Y-94986773D01*
X143067235Y-95010572D01*
X143058970Y-95033671D01*
X143048480Y-95055850D01*
X143035868Y-95076893D01*
X143021253Y-95096599D01*
X143004777Y-95114777D01*
X142986599Y-95131253D01*
X142966893Y-95145868D01*
X142945850Y-95158480D01*
X142923671Y-95168970D01*
X142900572Y-95177235D01*
X142876773Y-95183196D01*
X142852505Y-95186796D01*
X142828001Y-95188000D01*
X142177999Y-95188000D01*
X142153495Y-95186796D01*
X142129227Y-95183196D01*
X142105428Y-95177235D01*
X142082329Y-95168970D01*
X142060150Y-95158480D01*
X142039107Y-95145868D01*
X142019401Y-95131253D01*
X142001223Y-95114777D01*
X141984747Y-95096599D01*
X141970132Y-95076893D01*
X141957520Y-95055850D01*
X141947030Y-95033671D01*
X141938765Y-95010572D01*
X141932804Y-94986773D01*
X141929204Y-94962505D01*
X141928000Y-94938001D01*
X141928000Y-94037999D01*
X141929204Y-94013495D01*
X141932804Y-93989227D01*
X141938765Y-93965428D01*
X141947030Y-93942329D01*
X141957520Y-93920150D01*
X141970132Y-93899107D01*
X141984747Y-93879401D01*
X142001223Y-93861223D01*
X142019401Y-93844747D01*
X142039107Y-93830132D01*
X142060150Y-93817520D01*
X142082329Y-93807030D01*
X142105428Y-93798765D01*
X142129227Y-93792804D01*
X142153495Y-93789204D01*
X142177999Y-93788000D01*
X142828001Y-93788000D01*
X142852505Y-93789204D01*
X142852505Y-93789204D01*
G37*
D13*
X142503000Y-94488000D03*
G04 #@! TD*
D28*
G04 #@! TO.C,TP5*
X126288800Y-93573600D03*
G04 #@! TD*
G04 #@! TO.C,TP6*
X126288800Y-96570800D03*
G04 #@! TD*
D29*
G04 #@! TO.C,D13*
X152116000Y-154635200D03*
X154716000Y-154635200D03*
G04 #@! TD*
G04 #@! TO.C,D24*
X159990000Y-154635200D03*
X162590000Y-154635200D03*
G04 #@! TD*
M02*
