G04 #@! TF.GenerationSoftware,KiCad,Pcbnew,5.0.2-bee76a0~70~ubuntu18.04.1*
G04 #@! TF.CreationDate,2019-02-28T13:49:10+03:00*
G04 #@! TF.ProjectId,FIR-sensor-addon,4649522d-7365-46e7-936f-722d6164646f,rev?*
G04 #@! TF.SameCoordinates,Original*
G04 #@! TF.FileFunction,Copper,L1,Top*
G04 #@! TF.FilePolarity,Positive*
%FSLAX46Y46*%
G04 Gerber Fmt 4.6, Leading zero omitted, Abs format (unit mm)*
G04 Created by KiCad (PCBNEW 5.0.2-bee76a0~70~ubuntu18.04.1) date Thu 28 Feb 2019 13:49:10 EAT*
%MOMM*%
%LPD*%
G01*
G04 APERTURE LIST*
G04 #@! TA.AperFunction,Conductor*
%ADD10C,0.100000*%
G04 #@! TD*
G04 #@! TA.AperFunction,SMDPad,CuDef*
%ADD11C,1.150000*%
G04 #@! TD*
G04 #@! TA.AperFunction,ComponentPad*
%ADD12R,1.700000X1.700000*%
G04 #@! TD*
G04 #@! TA.AperFunction,ComponentPad*
%ADD13O,1.700000X1.700000*%
G04 #@! TD*
G04 #@! TA.AperFunction,ComponentPad*
%ADD14O,2.000000X1.524000*%
G04 #@! TD*
G04 #@! TA.AperFunction,ComponentPad*
%ADD15C,1.524000*%
G04 #@! TD*
G04 #@! TA.AperFunction,ViaPad*
%ADD16C,0.800000*%
G04 #@! TD*
G04 #@! TA.AperFunction,Conductor*
%ADD17C,0.250000*%
G04 #@! TD*
G04 #@! TA.AperFunction,Conductor*
%ADD18C,0.254000*%
G04 #@! TD*
G04 APERTURE END LIST*
D10*
G04 #@! TO.N,GNDREF*
G04 #@! TO.C,C2*
G36*
X149877305Y-90379904D02*
X149901573Y-90383504D01*
X149925372Y-90389465D01*
X149948471Y-90397730D01*
X149970650Y-90408220D01*
X149991693Y-90420832D01*
X150011399Y-90435447D01*
X150029577Y-90451923D01*
X150046053Y-90470101D01*
X150060668Y-90489807D01*
X150073280Y-90510850D01*
X150083770Y-90533029D01*
X150092035Y-90556128D01*
X150097996Y-90579927D01*
X150101596Y-90604195D01*
X150102800Y-90628699D01*
X150102800Y-91278701D01*
X150101596Y-91303205D01*
X150097996Y-91327473D01*
X150092035Y-91351272D01*
X150083770Y-91374371D01*
X150073280Y-91396550D01*
X150060668Y-91417593D01*
X150046053Y-91437299D01*
X150029577Y-91455477D01*
X150011399Y-91471953D01*
X149991693Y-91486568D01*
X149970650Y-91499180D01*
X149948471Y-91509670D01*
X149925372Y-91517935D01*
X149901573Y-91523896D01*
X149877305Y-91527496D01*
X149852801Y-91528700D01*
X148952799Y-91528700D01*
X148928295Y-91527496D01*
X148904027Y-91523896D01*
X148880228Y-91517935D01*
X148857129Y-91509670D01*
X148834950Y-91499180D01*
X148813907Y-91486568D01*
X148794201Y-91471953D01*
X148776023Y-91455477D01*
X148759547Y-91437299D01*
X148744932Y-91417593D01*
X148732320Y-91396550D01*
X148721830Y-91374371D01*
X148713565Y-91351272D01*
X148707604Y-91327473D01*
X148704004Y-91303205D01*
X148702800Y-91278701D01*
X148702800Y-90628699D01*
X148704004Y-90604195D01*
X148707604Y-90579927D01*
X148713565Y-90556128D01*
X148721830Y-90533029D01*
X148732320Y-90510850D01*
X148744932Y-90489807D01*
X148759547Y-90470101D01*
X148776023Y-90451923D01*
X148794201Y-90435447D01*
X148813907Y-90420832D01*
X148834950Y-90408220D01*
X148857129Y-90397730D01*
X148880228Y-90389465D01*
X148904027Y-90383504D01*
X148928295Y-90379904D01*
X148952799Y-90378700D01*
X149852801Y-90378700D01*
X149877305Y-90379904D01*
X149877305Y-90379904D01*
G37*
D11*
G04 #@! TD*
G04 #@! TO.P,C2,2*
G04 #@! TO.N,GNDREF*
X149402800Y-90953700D03*
D10*
G04 #@! TO.N,+3V3*
G04 #@! TO.C,C2*
G36*
X149877305Y-88329904D02*
X149901573Y-88333504D01*
X149925372Y-88339465D01*
X149948471Y-88347730D01*
X149970650Y-88358220D01*
X149991693Y-88370832D01*
X150011399Y-88385447D01*
X150029577Y-88401923D01*
X150046053Y-88420101D01*
X150060668Y-88439807D01*
X150073280Y-88460850D01*
X150083770Y-88483029D01*
X150092035Y-88506128D01*
X150097996Y-88529927D01*
X150101596Y-88554195D01*
X150102800Y-88578699D01*
X150102800Y-89228701D01*
X150101596Y-89253205D01*
X150097996Y-89277473D01*
X150092035Y-89301272D01*
X150083770Y-89324371D01*
X150073280Y-89346550D01*
X150060668Y-89367593D01*
X150046053Y-89387299D01*
X150029577Y-89405477D01*
X150011399Y-89421953D01*
X149991693Y-89436568D01*
X149970650Y-89449180D01*
X149948471Y-89459670D01*
X149925372Y-89467935D01*
X149901573Y-89473896D01*
X149877305Y-89477496D01*
X149852801Y-89478700D01*
X148952799Y-89478700D01*
X148928295Y-89477496D01*
X148904027Y-89473896D01*
X148880228Y-89467935D01*
X148857129Y-89459670D01*
X148834950Y-89449180D01*
X148813907Y-89436568D01*
X148794201Y-89421953D01*
X148776023Y-89405477D01*
X148759547Y-89387299D01*
X148744932Y-89367593D01*
X148732320Y-89346550D01*
X148721830Y-89324371D01*
X148713565Y-89301272D01*
X148707604Y-89277473D01*
X148704004Y-89253205D01*
X148702800Y-89228701D01*
X148702800Y-88578699D01*
X148704004Y-88554195D01*
X148707604Y-88529927D01*
X148713565Y-88506128D01*
X148721830Y-88483029D01*
X148732320Y-88460850D01*
X148744932Y-88439807D01*
X148759547Y-88420101D01*
X148776023Y-88401923D01*
X148794201Y-88385447D01*
X148813907Y-88370832D01*
X148834950Y-88358220D01*
X148857129Y-88347730D01*
X148880228Y-88339465D01*
X148904027Y-88333504D01*
X148928295Y-88329904D01*
X148952799Y-88328700D01*
X149852801Y-88328700D01*
X149877305Y-88329904D01*
X149877305Y-88329904D01*
G37*
D11*
G04 #@! TD*
G04 #@! TO.P,C2,1*
G04 #@! TO.N,+3V3*
X149402800Y-88903700D03*
D10*
G04 #@! TO.N,+3V3*
G04 #@! TO.C,C1*
G36*
X147705605Y-88342604D02*
X147729873Y-88346204D01*
X147753672Y-88352165D01*
X147776771Y-88360430D01*
X147798950Y-88370920D01*
X147819993Y-88383532D01*
X147839699Y-88398147D01*
X147857877Y-88414623D01*
X147874353Y-88432801D01*
X147888968Y-88452507D01*
X147901580Y-88473550D01*
X147912070Y-88495729D01*
X147920335Y-88518828D01*
X147926296Y-88542627D01*
X147929896Y-88566895D01*
X147931100Y-88591399D01*
X147931100Y-89241401D01*
X147929896Y-89265905D01*
X147926296Y-89290173D01*
X147920335Y-89313972D01*
X147912070Y-89337071D01*
X147901580Y-89359250D01*
X147888968Y-89380293D01*
X147874353Y-89399999D01*
X147857877Y-89418177D01*
X147839699Y-89434653D01*
X147819993Y-89449268D01*
X147798950Y-89461880D01*
X147776771Y-89472370D01*
X147753672Y-89480635D01*
X147729873Y-89486596D01*
X147705605Y-89490196D01*
X147681101Y-89491400D01*
X146781099Y-89491400D01*
X146756595Y-89490196D01*
X146732327Y-89486596D01*
X146708528Y-89480635D01*
X146685429Y-89472370D01*
X146663250Y-89461880D01*
X146642207Y-89449268D01*
X146622501Y-89434653D01*
X146604323Y-89418177D01*
X146587847Y-89399999D01*
X146573232Y-89380293D01*
X146560620Y-89359250D01*
X146550130Y-89337071D01*
X146541865Y-89313972D01*
X146535904Y-89290173D01*
X146532304Y-89265905D01*
X146531100Y-89241401D01*
X146531100Y-88591399D01*
X146532304Y-88566895D01*
X146535904Y-88542627D01*
X146541865Y-88518828D01*
X146550130Y-88495729D01*
X146560620Y-88473550D01*
X146573232Y-88452507D01*
X146587847Y-88432801D01*
X146604323Y-88414623D01*
X146622501Y-88398147D01*
X146642207Y-88383532D01*
X146663250Y-88370920D01*
X146685429Y-88360430D01*
X146708528Y-88352165D01*
X146732327Y-88346204D01*
X146756595Y-88342604D01*
X146781099Y-88341400D01*
X147681101Y-88341400D01*
X147705605Y-88342604D01*
X147705605Y-88342604D01*
G37*
D11*
G04 #@! TD*
G04 #@! TO.P,C1,1*
G04 #@! TO.N,+3V3*
X147231100Y-88916400D03*
D10*
G04 #@! TO.N,GNDREF*
G04 #@! TO.C,C1*
G36*
X147705605Y-90392604D02*
X147729873Y-90396204D01*
X147753672Y-90402165D01*
X147776771Y-90410430D01*
X147798950Y-90420920D01*
X147819993Y-90433532D01*
X147839699Y-90448147D01*
X147857877Y-90464623D01*
X147874353Y-90482801D01*
X147888968Y-90502507D01*
X147901580Y-90523550D01*
X147912070Y-90545729D01*
X147920335Y-90568828D01*
X147926296Y-90592627D01*
X147929896Y-90616895D01*
X147931100Y-90641399D01*
X147931100Y-91291401D01*
X147929896Y-91315905D01*
X147926296Y-91340173D01*
X147920335Y-91363972D01*
X147912070Y-91387071D01*
X147901580Y-91409250D01*
X147888968Y-91430293D01*
X147874353Y-91449999D01*
X147857877Y-91468177D01*
X147839699Y-91484653D01*
X147819993Y-91499268D01*
X147798950Y-91511880D01*
X147776771Y-91522370D01*
X147753672Y-91530635D01*
X147729873Y-91536596D01*
X147705605Y-91540196D01*
X147681101Y-91541400D01*
X146781099Y-91541400D01*
X146756595Y-91540196D01*
X146732327Y-91536596D01*
X146708528Y-91530635D01*
X146685429Y-91522370D01*
X146663250Y-91511880D01*
X146642207Y-91499268D01*
X146622501Y-91484653D01*
X146604323Y-91468177D01*
X146587847Y-91449999D01*
X146573232Y-91430293D01*
X146560620Y-91409250D01*
X146550130Y-91387071D01*
X146541865Y-91363972D01*
X146535904Y-91340173D01*
X146532304Y-91315905D01*
X146531100Y-91291401D01*
X146531100Y-90641399D01*
X146532304Y-90616895D01*
X146535904Y-90592627D01*
X146541865Y-90568828D01*
X146550130Y-90545729D01*
X146560620Y-90523550D01*
X146573232Y-90502507D01*
X146587847Y-90482801D01*
X146604323Y-90464623D01*
X146622501Y-90448147D01*
X146642207Y-90433532D01*
X146663250Y-90420920D01*
X146685429Y-90410430D01*
X146708528Y-90402165D01*
X146732327Y-90396204D01*
X146756595Y-90392604D01*
X146781099Y-90391400D01*
X147681101Y-90391400D01*
X147705605Y-90392604D01*
X147705605Y-90392604D01*
G37*
D11*
G04 #@! TD*
G04 #@! TO.P,C1,2*
G04 #@! TO.N,GNDREF*
X147231100Y-90966400D03*
D12*
G04 #@! TO.P,J1,1*
G04 #@! TO.N,/SCL*
X132918200Y-99695000D03*
D13*
G04 #@! TO.P,J1,2*
G04 #@! TO.N,/SDA*
X135458200Y-99695000D03*
G04 #@! TO.P,J1,3*
G04 #@! TO.N,+3V3*
X132918200Y-97155000D03*
G04 #@! TO.P,J1,4*
G04 #@! TO.N,Net-(J1-Pad4)*
X135458200Y-97155000D03*
G04 #@! TO.P,J1,5*
G04 #@! TO.N,Net-(J1-Pad5)*
X132918200Y-94615000D03*
G04 #@! TO.P,J1,6*
G04 #@! TO.N,GNDREF*
X135458200Y-94615000D03*
G04 #@! TD*
D14*
G04 #@! TO.P,U1,1*
G04 #@! TO.N,/SDA*
X138368430Y-92460150D03*
D15*
G04 #@! TO.P,U1,2*
G04 #@! TO.N,+3V3*
X142460260Y-88943350D03*
G04 #@! TO.P,U1,3*
G04 #@! TO.N,GNDREF*
X143916970Y-90638250D03*
G04 #@! TO.P,U1,4*
G04 #@! TO.N,/SCL*
X139825140Y-94157700D03*
G04 #@! TD*
D16*
G04 #@! TO.N,/SDA*
X138334000Y-93058000D03*
G04 #@! TO.N,+3V3*
X142334000Y-89058000D03*
G04 #@! TO.N,GNDREF*
X138334000Y-83058000D03*
X140334000Y-83058000D03*
X142334000Y-83058000D03*
X144334000Y-83058000D03*
X138334000Y-85058000D03*
X140334000Y-85058000D03*
X142334000Y-85058000D03*
X144334000Y-85058000D03*
X132334000Y-87058000D03*
X138334000Y-87058000D03*
X140334000Y-87058000D03*
X142334000Y-87058000D03*
X144334000Y-87058000D03*
X132334000Y-89058000D03*
X134334000Y-89058000D03*
X132334000Y-91058000D03*
X136334000Y-91058000D03*
X140334000Y-91058000D03*
X132334000Y-93058000D03*
X136334000Y-93058000D03*
X142334000Y-93058000D03*
X144334000Y-93058000D03*
X146334000Y-93058000D03*
X148334000Y-93058000D03*
X150334000Y-93058000D03*
X142334000Y-95058000D03*
X144334000Y-95058000D03*
X146334000Y-95058000D03*
X148334000Y-95058000D03*
X150334000Y-95058000D03*
X142334000Y-97058000D03*
X144334000Y-97058000D03*
X140334000Y-99058000D03*
X142334000Y-99058000D03*
X144334000Y-99058000D03*
G04 #@! TD*
D17*
G04 #@! TO.N,/SDA*
X135458200Y-99695000D02*
X137579100Y-99695000D01*
X138368430Y-98905670D02*
X138368430Y-92460150D01*
X137579100Y-99695000D02*
X138368430Y-98905670D01*
G04 #@! TO.N,+3V3*
X147243800Y-88903700D02*
X147231100Y-88916400D01*
X149402800Y-88903700D02*
X147243800Y-88903700D01*
X142487210Y-88916400D02*
X142460260Y-88943350D01*
X147231100Y-88916400D02*
X142487210Y-88916400D01*
X136481650Y-88943350D02*
X142460260Y-88943350D01*
X134283199Y-91141801D02*
X136481650Y-88943350D01*
X132918200Y-97155000D02*
X134283199Y-95790001D01*
X134283199Y-95790001D02*
X134283199Y-91141801D01*
G04 #@! TD*
D18*
G04 #@! TO.N,GNDREF*
G36*
X146146514Y-89875986D02*
X146147697Y-89876777D01*
X145992773Y-90031702D01*
X145896100Y-90265091D01*
X145896100Y-90680650D01*
X146054850Y-90839400D01*
X147104100Y-90839400D01*
X147104100Y-90819400D01*
X147358100Y-90819400D01*
X147358100Y-90839400D01*
X148407350Y-90839400D01*
X148420050Y-90826700D01*
X149275800Y-90826700D01*
X149275800Y-90806700D01*
X149529800Y-90806700D01*
X149529800Y-90826700D01*
X149549800Y-90826700D01*
X149549800Y-91080700D01*
X149529800Y-91080700D01*
X149529800Y-92004950D01*
X149688550Y-92163700D01*
X150229110Y-92163700D01*
X150407701Y-92089725D01*
X150407701Y-100814200D01*
X136456127Y-100814200D01*
X136528825Y-100765625D01*
X136736378Y-100455000D01*
X137504253Y-100455000D01*
X137579100Y-100469888D01*
X137653947Y-100455000D01*
X137653952Y-100455000D01*
X137875637Y-100410904D01*
X138127029Y-100242929D01*
X138169431Y-100179470D01*
X138852903Y-99495999D01*
X138916359Y-99453599D01*
X139084334Y-99202207D01*
X139128430Y-98980522D01*
X139128430Y-98980518D01*
X139143318Y-98905671D01*
X139128430Y-98830824D01*
X139128430Y-97604631D01*
X145407700Y-97604631D01*
X145407700Y-98493769D01*
X145747959Y-99315226D01*
X146376674Y-99943941D01*
X147198131Y-100284200D01*
X148087269Y-100284200D01*
X148908726Y-99943941D01*
X149537441Y-99315226D01*
X149877700Y-98493769D01*
X149877700Y-97604631D01*
X149537441Y-96783174D01*
X148908726Y-96154459D01*
X148087269Y-95814200D01*
X147198131Y-95814200D01*
X146376674Y-96154459D01*
X145747959Y-96783174D01*
X145407700Y-97604631D01*
X139128430Y-97604631D01*
X139128430Y-95381216D01*
X139547259Y-95554700D01*
X140103021Y-95554700D01*
X140616477Y-95342020D01*
X141009460Y-94949037D01*
X141222140Y-94435581D01*
X141222140Y-93879819D01*
X141009460Y-93366363D01*
X140616477Y-92973380D01*
X140103021Y-92760700D01*
X139971015Y-92760700D01*
X140030798Y-92460150D01*
X139922374Y-91915068D01*
X139724189Y-91618463D01*
X143116362Y-91618463D01*
X143185827Y-91860647D01*
X143709272Y-92047394D01*
X144264338Y-92019612D01*
X144648113Y-91860647D01*
X144717578Y-91618463D01*
X143916970Y-90817855D01*
X143116362Y-91618463D01*
X139724189Y-91618463D01*
X139613610Y-91452970D01*
X139151512Y-91144206D01*
X138744018Y-91063150D01*
X137992842Y-91063150D01*
X137585348Y-91144206D01*
X137123250Y-91452970D01*
X136814486Y-91915068D01*
X136706062Y-92460150D01*
X136814486Y-93005232D01*
X137123250Y-93467330D01*
X137585348Y-93776094D01*
X137589137Y-93776848D01*
X137608431Y-93796142D01*
X137608430Y-98590868D01*
X137264299Y-98935000D01*
X136736378Y-98935000D01*
X136528825Y-98624375D01*
X136230439Y-98425000D01*
X136528825Y-98225625D01*
X136857039Y-97734418D01*
X136972292Y-97155000D01*
X136857039Y-96575582D01*
X136528825Y-96084375D01*
X136209722Y-95871157D01*
X136339558Y-95810183D01*
X136729845Y-95381924D01*
X136899676Y-94971890D01*
X136778355Y-94742000D01*
X135585200Y-94742000D01*
X135585200Y-94762000D01*
X135331200Y-94762000D01*
X135331200Y-94742000D01*
X135311200Y-94742000D01*
X135311200Y-94488000D01*
X135331200Y-94488000D01*
X135331200Y-93294181D01*
X135585200Y-93294181D01*
X135585200Y-94488000D01*
X136778355Y-94488000D01*
X136899676Y-94258110D01*
X136729845Y-93848076D01*
X136339558Y-93419817D01*
X135815092Y-93173514D01*
X135585200Y-93294181D01*
X135331200Y-93294181D01*
X135101308Y-93173514D01*
X135043199Y-93200804D01*
X135043199Y-91456602D01*
X136796452Y-89703350D01*
X141262960Y-89703350D01*
X141275940Y-89734687D01*
X141668923Y-90127670D01*
X142182379Y-90340350D01*
X142540007Y-90340350D01*
X142507826Y-90430552D01*
X142535608Y-90985618D01*
X142694573Y-91369393D01*
X142936757Y-91438858D01*
X143737365Y-90638250D01*
X143723223Y-90624108D01*
X143902828Y-90444503D01*
X143916970Y-90458645D01*
X143931113Y-90444503D01*
X144110718Y-90624108D01*
X144096575Y-90638250D01*
X144897183Y-91438858D01*
X145139367Y-91369393D01*
X145181195Y-91252150D01*
X145896100Y-91252150D01*
X145896100Y-91667709D01*
X145992773Y-91901098D01*
X146171401Y-92079727D01*
X146404790Y-92176400D01*
X146945350Y-92176400D01*
X147104100Y-92017650D01*
X147104100Y-91093400D01*
X147358100Y-91093400D01*
X147358100Y-92017650D01*
X147516850Y-92176400D01*
X148057410Y-92176400D01*
X148290799Y-92079727D01*
X148323300Y-92047226D01*
X148343101Y-92067027D01*
X148576490Y-92163700D01*
X149117050Y-92163700D01*
X149275800Y-92004950D01*
X149275800Y-91080700D01*
X148226550Y-91080700D01*
X148213850Y-91093400D01*
X147358100Y-91093400D01*
X147104100Y-91093400D01*
X146054850Y-91093400D01*
X145896100Y-91252150D01*
X145181195Y-91252150D01*
X145326114Y-90845948D01*
X145298332Y-90290882D01*
X145139367Y-89907107D01*
X144897185Y-89837643D01*
X145012196Y-89722632D01*
X144965964Y-89676400D01*
X146013154Y-89676400D01*
X146146514Y-89875986D01*
X146146514Y-89875986D01*
G37*
X146146514Y-89875986D02*
X146147697Y-89876777D01*
X145992773Y-90031702D01*
X145896100Y-90265091D01*
X145896100Y-90680650D01*
X146054850Y-90839400D01*
X147104100Y-90839400D01*
X147104100Y-90819400D01*
X147358100Y-90819400D01*
X147358100Y-90839400D01*
X148407350Y-90839400D01*
X148420050Y-90826700D01*
X149275800Y-90826700D01*
X149275800Y-90806700D01*
X149529800Y-90806700D01*
X149529800Y-90826700D01*
X149549800Y-90826700D01*
X149549800Y-91080700D01*
X149529800Y-91080700D01*
X149529800Y-92004950D01*
X149688550Y-92163700D01*
X150229110Y-92163700D01*
X150407701Y-92089725D01*
X150407701Y-100814200D01*
X136456127Y-100814200D01*
X136528825Y-100765625D01*
X136736378Y-100455000D01*
X137504253Y-100455000D01*
X137579100Y-100469888D01*
X137653947Y-100455000D01*
X137653952Y-100455000D01*
X137875637Y-100410904D01*
X138127029Y-100242929D01*
X138169431Y-100179470D01*
X138852903Y-99495999D01*
X138916359Y-99453599D01*
X139084334Y-99202207D01*
X139128430Y-98980522D01*
X139128430Y-98980518D01*
X139143318Y-98905671D01*
X139128430Y-98830824D01*
X139128430Y-97604631D01*
X145407700Y-97604631D01*
X145407700Y-98493769D01*
X145747959Y-99315226D01*
X146376674Y-99943941D01*
X147198131Y-100284200D01*
X148087269Y-100284200D01*
X148908726Y-99943941D01*
X149537441Y-99315226D01*
X149877700Y-98493769D01*
X149877700Y-97604631D01*
X149537441Y-96783174D01*
X148908726Y-96154459D01*
X148087269Y-95814200D01*
X147198131Y-95814200D01*
X146376674Y-96154459D01*
X145747959Y-96783174D01*
X145407700Y-97604631D01*
X139128430Y-97604631D01*
X139128430Y-95381216D01*
X139547259Y-95554700D01*
X140103021Y-95554700D01*
X140616477Y-95342020D01*
X141009460Y-94949037D01*
X141222140Y-94435581D01*
X141222140Y-93879819D01*
X141009460Y-93366363D01*
X140616477Y-92973380D01*
X140103021Y-92760700D01*
X139971015Y-92760700D01*
X140030798Y-92460150D01*
X139922374Y-91915068D01*
X139724189Y-91618463D01*
X143116362Y-91618463D01*
X143185827Y-91860647D01*
X143709272Y-92047394D01*
X144264338Y-92019612D01*
X144648113Y-91860647D01*
X144717578Y-91618463D01*
X143916970Y-90817855D01*
X143116362Y-91618463D01*
X139724189Y-91618463D01*
X139613610Y-91452970D01*
X139151512Y-91144206D01*
X138744018Y-91063150D01*
X137992842Y-91063150D01*
X137585348Y-91144206D01*
X137123250Y-91452970D01*
X136814486Y-91915068D01*
X136706062Y-92460150D01*
X136814486Y-93005232D01*
X137123250Y-93467330D01*
X137585348Y-93776094D01*
X137589137Y-93776848D01*
X137608431Y-93796142D01*
X137608430Y-98590868D01*
X137264299Y-98935000D01*
X136736378Y-98935000D01*
X136528825Y-98624375D01*
X136230439Y-98425000D01*
X136528825Y-98225625D01*
X136857039Y-97734418D01*
X136972292Y-97155000D01*
X136857039Y-96575582D01*
X136528825Y-96084375D01*
X136209722Y-95871157D01*
X136339558Y-95810183D01*
X136729845Y-95381924D01*
X136899676Y-94971890D01*
X136778355Y-94742000D01*
X135585200Y-94742000D01*
X135585200Y-94762000D01*
X135331200Y-94762000D01*
X135331200Y-94742000D01*
X135311200Y-94742000D01*
X135311200Y-94488000D01*
X135331200Y-94488000D01*
X135331200Y-93294181D01*
X135585200Y-93294181D01*
X135585200Y-94488000D01*
X136778355Y-94488000D01*
X136899676Y-94258110D01*
X136729845Y-93848076D01*
X136339558Y-93419817D01*
X135815092Y-93173514D01*
X135585200Y-93294181D01*
X135331200Y-93294181D01*
X135101308Y-93173514D01*
X135043199Y-93200804D01*
X135043199Y-91456602D01*
X136796452Y-89703350D01*
X141262960Y-89703350D01*
X141275940Y-89734687D01*
X141668923Y-90127670D01*
X142182379Y-90340350D01*
X142540007Y-90340350D01*
X142507826Y-90430552D01*
X142535608Y-90985618D01*
X142694573Y-91369393D01*
X142936757Y-91438858D01*
X143737365Y-90638250D01*
X143723223Y-90624108D01*
X143902828Y-90444503D01*
X143916970Y-90458645D01*
X143931113Y-90444503D01*
X144110718Y-90624108D01*
X144096575Y-90638250D01*
X144897183Y-91438858D01*
X145139367Y-91369393D01*
X145181195Y-91252150D01*
X145896100Y-91252150D01*
X145896100Y-91667709D01*
X145992773Y-91901098D01*
X146171401Y-92079727D01*
X146404790Y-92176400D01*
X146945350Y-92176400D01*
X147104100Y-92017650D01*
X147104100Y-91093400D01*
X147358100Y-91093400D01*
X147358100Y-92017650D01*
X147516850Y-92176400D01*
X148057410Y-92176400D01*
X148290799Y-92079727D01*
X148323300Y-92047226D01*
X148343101Y-92067027D01*
X148576490Y-92163700D01*
X149117050Y-92163700D01*
X149275800Y-92004950D01*
X149275800Y-91080700D01*
X148226550Y-91080700D01*
X148213850Y-91093400D01*
X147358100Y-91093400D01*
X147104100Y-91093400D01*
X146054850Y-91093400D01*
X145896100Y-91252150D01*
X145181195Y-91252150D01*
X145326114Y-90845948D01*
X145298332Y-90290882D01*
X145139367Y-89907107D01*
X144897185Y-89837643D01*
X145012196Y-89722632D01*
X144965964Y-89676400D01*
X146013154Y-89676400D01*
X146146514Y-89875986D01*
G36*
X150407700Y-87890870D02*
X150196236Y-87749573D01*
X149852801Y-87681260D01*
X148952799Y-87681260D01*
X148609364Y-87749573D01*
X148318214Y-87944114D01*
X148311567Y-87954062D01*
X148024536Y-87762273D01*
X147681101Y-87693960D01*
X146781099Y-87693960D01*
X146437664Y-87762273D01*
X146146514Y-87956814D01*
X146013154Y-88156400D01*
X143646397Y-88156400D01*
X143644580Y-88152013D01*
X143251597Y-87759030D01*
X142738141Y-87546350D01*
X142182379Y-87546350D01*
X141668923Y-87759030D01*
X141275940Y-88152013D01*
X141262960Y-88183350D01*
X136556496Y-88183350D01*
X136481649Y-88168462D01*
X136406802Y-88183350D01*
X136406798Y-88183350D01*
X136185113Y-88227446D01*
X135933721Y-88395421D01*
X135891321Y-88458877D01*
X133798727Y-90551472D01*
X133735271Y-90593872D01*
X133692871Y-90657328D01*
X133692870Y-90657329D01*
X133567296Y-90845264D01*
X133508311Y-91141801D01*
X133523200Y-91216653D01*
X133523200Y-93233254D01*
X133497618Y-93216161D01*
X133064456Y-93130000D01*
X132771944Y-93130000D01*
X132338782Y-93216161D01*
X131877700Y-93524246D01*
X131877700Y-84645431D01*
X132407700Y-84645431D01*
X132407700Y-85534569D01*
X132747959Y-86356026D01*
X133376674Y-86984741D01*
X134198131Y-87325000D01*
X135087269Y-87325000D01*
X135908726Y-86984741D01*
X136537441Y-86356026D01*
X136877700Y-85534569D01*
X136877700Y-84645431D01*
X136860801Y-84604631D01*
X145407700Y-84604631D01*
X145407700Y-85493769D01*
X145747959Y-86315226D01*
X146376674Y-86943941D01*
X147198131Y-87284200D01*
X148087269Y-87284200D01*
X148908726Y-86943941D01*
X149537441Y-86315226D01*
X149877700Y-85493769D01*
X149877700Y-84604631D01*
X149537441Y-83783174D01*
X148908726Y-83154459D01*
X148087269Y-82814200D01*
X147198131Y-82814200D01*
X146376674Y-83154459D01*
X145747959Y-83783174D01*
X145407700Y-84604631D01*
X136860801Y-84604631D01*
X136537441Y-83823974D01*
X135908726Y-83195259D01*
X135087269Y-82855000D01*
X134198131Y-82855000D01*
X133376674Y-83195259D01*
X132747959Y-83823974D01*
X132407700Y-84645431D01*
X131877700Y-84645431D01*
X131877700Y-82284200D01*
X150407700Y-82284200D01*
X150407700Y-87890870D01*
X150407700Y-87890870D01*
G37*
X150407700Y-87890870D02*
X150196236Y-87749573D01*
X149852801Y-87681260D01*
X148952799Y-87681260D01*
X148609364Y-87749573D01*
X148318214Y-87944114D01*
X148311567Y-87954062D01*
X148024536Y-87762273D01*
X147681101Y-87693960D01*
X146781099Y-87693960D01*
X146437664Y-87762273D01*
X146146514Y-87956814D01*
X146013154Y-88156400D01*
X143646397Y-88156400D01*
X143644580Y-88152013D01*
X143251597Y-87759030D01*
X142738141Y-87546350D01*
X142182379Y-87546350D01*
X141668923Y-87759030D01*
X141275940Y-88152013D01*
X141262960Y-88183350D01*
X136556496Y-88183350D01*
X136481649Y-88168462D01*
X136406802Y-88183350D01*
X136406798Y-88183350D01*
X136185113Y-88227446D01*
X135933721Y-88395421D01*
X135891321Y-88458877D01*
X133798727Y-90551472D01*
X133735271Y-90593872D01*
X133692871Y-90657328D01*
X133692870Y-90657329D01*
X133567296Y-90845264D01*
X133508311Y-91141801D01*
X133523200Y-91216653D01*
X133523200Y-93233254D01*
X133497618Y-93216161D01*
X133064456Y-93130000D01*
X132771944Y-93130000D01*
X132338782Y-93216161D01*
X131877700Y-93524246D01*
X131877700Y-84645431D01*
X132407700Y-84645431D01*
X132407700Y-85534569D01*
X132747959Y-86356026D01*
X133376674Y-86984741D01*
X134198131Y-87325000D01*
X135087269Y-87325000D01*
X135908726Y-86984741D01*
X136537441Y-86356026D01*
X136877700Y-85534569D01*
X136877700Y-84645431D01*
X136860801Y-84604631D01*
X145407700Y-84604631D01*
X145407700Y-85493769D01*
X145747959Y-86315226D01*
X146376674Y-86943941D01*
X147198131Y-87284200D01*
X148087269Y-87284200D01*
X148908726Y-86943941D01*
X149537441Y-86315226D01*
X149877700Y-85493769D01*
X149877700Y-84604631D01*
X149537441Y-83783174D01*
X148908726Y-83154459D01*
X148087269Y-82814200D01*
X147198131Y-82814200D01*
X146376674Y-83154459D01*
X145747959Y-83783174D01*
X145407700Y-84604631D01*
X136860801Y-84604631D01*
X136537441Y-83823974D01*
X135908726Y-83195259D01*
X135087269Y-82855000D01*
X134198131Y-82855000D01*
X133376674Y-83195259D01*
X132747959Y-83823974D01*
X132407700Y-84645431D01*
X131877700Y-84645431D01*
X131877700Y-82284200D01*
X150407700Y-82284200D01*
X150407700Y-87890870D01*
G04 #@! TD*
M02*
