M48
INCH,TZ
T1C0.0157
T2C0.0300
T3C0.0394
%
G90
G05
T1
X52100Y-34275
X52100Y-35062
X52100Y-35850
X52100Y-36637
X52887Y-35062
X53675Y-35850
X53675Y-36637
X54462Y-32700
X54462Y-33487
X54462Y-34275
X54462Y-36637
X55250Y-32700
X55250Y-33487
X55250Y-34275
X55250Y-35850
X55250Y-38999
X56037Y-32700
X56037Y-33487
X56037Y-34275
X56037Y-35062
X56037Y-36637
X56037Y-37424
X56037Y-38212
X56037Y-38999
X56824Y-32700
X56824Y-33487
X56824Y-34275
X56824Y-36637
X56824Y-37424
X56824Y-38212
X56824Y-38999
X57612Y-36637
X57612Y-37424
X58399Y-36637
X58399Y-37424
X59187Y-36637
X59187Y-37424
T2
X54476Y-36402
X55049Y-37070
X56087Y-35017
X56660Y-35684
T3
X52330Y-37250
X52330Y-38250
X52330Y-39250
X53330Y-37250
X53330Y-38250
X53330Y-39250
T0
M30
