  0
SECTION
  2
HEADER
  9
$ACADVER
  1
AC1014
  9
$ACADMAINTVER
 70
     9
  9
$DWGCODEPAGE
  3
ANSI_1252
  9
$INSBASE
 10
0.0
 20
0.0
 30
0.0
  9
$EXTMIN
 10
1.000000000000000E+20
 20
1.000000000000000E+20
 30
1.000000000000000E+20
  9
$EXTMAX
 10
-1.000000000000000E+20
 20
-1.000000000000000E+20
 30
-1.000000000000000E+20
  9
$LIMMIN
 10
0.0
 20
0.0
  9
$LIMMAX
 10
420.0
 20
297.0
  9
$ORTHOMODE
 70
     0
  9
$REGENMODE
 70
     1
  9
$FILLMODE
 70
     1
  9
$QTEXTMODE
 70
     0
  9
$MIRRTEXT
 70
     1
  9
$DRAGMODE
 70
     2
  9
$LTSCALE
 40
12.7
  9
$OSMODE
 70
    23
  9
$ATTMODE
 70
     1
  9
$TEXTSIZE
 40
3.5
  9
$TRACEWID
 40
1.0
  9
$TEXTSTYLE
  7
ONSHAPE-STANDARD
  9
$CLAYER
  8
0
  9
$CELTYPE
  6
BYLAYER
  9
$CECOLOR
 62
   256
  9
$CELTSCALE
 40
1.0
  9
$DELOBJ
 70
     1
  9
$DISPSILH
 70
     0
  9
$DIMSCALE
 40
1.0
  9
$DIMASZ
 40
2.5
  9
$DIMEXO
 40
0.625
  9
$DIMDLI
 40
3.75
  9
$DIMRND
 40
0.0
  9
$DIMDLE
 40
0.0
  9
$DIMEXE
 40
1.25
  9
$DIMTP
 40
0.0
  9
$DIMTM
 40
0.0
  9
$DIMTXT
 40
3.5
  9
$DIMCEN
 40
2.5
  9
$DIMTSZ
 40
0.0
  9
$DIMTOL
 70
     0
  9
$DIMLIM
 70
     0
  9
$DIMTIH
 70
     0
  9
$DIMTOH
 70
     0
  9
$DIMSE1
 70
     0
  9
$DIMSE2
 70
     0
  9
$DIMTAD
 70
     1
  9
$DIMZIN
 70
     8
  9
$DIMBLK
  1

  9
$DIMASO
 70
     1
  9
$DIMSHO
 70
     1
  9
$DIMPOST
  1

  9
$DIMAPOST
  1

  9
$DIMALT
 70
     0
  9
$DIMALTD
 70
     3
  9
$DIMALTF
 40
0.03937
  9
$DIMLFAC
 40
1.0
  9
$DIMTOFL
 70
     1
  9
$DIMTVP
 40
0.0
  9
$DIMTIX
 70
     0
  9
$DIMSOXD
 70
     0
  9
$DIMSAH
 70
     0
  9
$DIMBLK1
  1

  9
$DIMBLK2
  1

  9
$DIMSTYLE
  2
ONSHAPE-ISO-25
  9
$DIMCLRD
 70
     7
  9
$DIMCLRE
 70
     7
  9
$DIMCLRT
 70
     7
  9
$DIMTFAC
 40
1.0
  9
$DIMGAP
 40
0.625
  9
$DIMJUST
 70
     0
  9
$DIMSD1
 70
     0
  9
$DIMSD2
 70
     0
  9
$DIMTOLJ
 70
     0
  9
$DIMTZIN
 70
     8
  9
$DIMALTZ
 70
     8
  9
$DIMALTTZ
 70
     0
  9
$DIMFIT
 70
     3
  9
$DIMUPT
 70
     1
  9
$DIMUNIT
 70
     2
  9
$DIMDEC
 70
     2
  9
$DIMTDEC
 70
     2
  9
$DIMALTU
 70
     2
  9
$DIMALTTD
 70
     3
  9
$DIMTXSTY
  7
ONSHAPE-STANDARD-DIMENSION
  9
$DIMAUNIT
 70
     0
  9
$LUNITS
 70
     2
  9
$LUPREC
 70
     4
  9
$SKETCHINC
 40
1.0
  9
$FILLETRAD
 40
10.0
  9
$AUNITS
 70
     0
  9
$AUPREC
 70
     0
  9
$MENU
  1
.
  9
$ELEVATION
 40
0.0
  9
$PELEVATION
 40
0.0
  9
$THICKNESS
 40
0.0
  9
$LIMCHECK
 70
     0
  9
$CHAMFERA
 40
0.0
  9
$CHAMFERB
 40
0.0
  9
$CHAMFERC
 40
0.0
  9
$CHAMFERD
 40
0.0
  9
$SKPOLY
 70
     0
  9
$TDCREATE
 40
2458541.95023147
  9
$TDUPDATE
 40
2458541.95023147
  9
$TDINDWG
 40
0.0
  9
$TDUSRTIMER
 40
0.0
  9
$USRTIMER
 70
     1
  9
$ANGBASE
 50
0.0
  9
$ANGDIR
 70
     0
  9
$PDMODE
 70
     0
  9
$PDSIZE
 40
0.0
  9
$PLINEWID
 40
0.0
  9
$COORDS
 70
     1
  9
$SPLFRAME
 70
     0
  9
$SPLINETYPE
 70
     6
  9
$SPLINESEGS
 70
     8
  9
$ATTDIA
 70
     0
  9
$ATTREQ
 70
     1
  9
$HANDLING
 70
     1
  9
$HANDSEED
  5
2FA
  9
$SURFTAB1
 70
     6
  9
$SURFTAB2
 70
     6
  9
$SURFTYPE
 70
     6
  9
$SURFU
 70
     6
  9
$SURFV
 70
     6
  9
$UCSNAME
  2

  9
$UCSORG
 10
0.0
 20
0.0
 30
0.0
  9
$UCSXDIR
 10
1.0
 20
0.0
 30
0.0
  9
$UCSYDIR
 10
0.0
 20
1.0
 30
0.0
  9
$PUCSNAME
  2

  9
$PUCSORG
 10
0.0
 20
0.0
 30
0.0
  9
$PUCSXDIR
 10
1.0
 20
0.0
 30
0.0
  9
$PUCSYDIR
 10
0.0
 20
1.0
 30
0.0
  9
$USERI1
 70
     0
  9
$USERI2
 70
     0
  9
$USERI3
 70
     0
  9
$USERI4
 70
     0
  9
$USERI5
 70
     0
  9
$USERR1
 40
0.0
  9
$USERR2
 40
0.0
  9
$USERR3
 40
0.0
  9
$USERR4
 40
0.0
  9
$USERR5
 40
0.0
  9
$WORLDVIEW
 70
     1
  9
$SHADEDGE
 70
     3
  9
$SHADEDIF
 70
    70
  9
$TILEMODE
 70
     1
  9
$MAXACTVP
 70
    64
  9
$PINSBASE
 10
0.0
 20
0.0
 30
0.0
  9
$PLIMCHECK
 70
     0
  9
$PEXTMIN
 10
1.000000000000000E+20
 20
1.000000000000000E+20
 30
1.000000000000000E+20
  9
$PEXTMAX
 10
-1.000000000000000E+20
 20
-1.000000000000000E+20
 30
-1.000000000000000E+20
  9
$PLIMMIN
 10
0.0
 20
0.0
  9
$PLIMMAX
 10
420.0
 20
297.0
  9
$UNITMODE
 70
     0
  9
$VISRETAIN
 70
     1
  9
$PLINEGEN
 70
     0
  9
$PSLTSCALE
 70
     1
  9
$TREEDEPTH
 70
  3020
  9
$PICKSTYLE
 70
     1
  9
$CMLSTYLE
  2
STANDARD
  9
$CMLJUST
 70
     0
  9
$CMLSCALE
 40
20.0
  9
$PROXYGRAPHICS
 70
     1
  9
$MEASUREMENT
 70
     1
  0
ENDSEC
  0
SECTION
  2
CLASSES
  0
CLASS
  1
ACDBDICTIONARYWDFLT
  2
AcDbDictionaryWithDefault
  3
ObjectDBX Classes
 90
        0
280
     0
281
     0
  0
CLASS
  1
VISUALSTYLE
  2
AcDbVisualStyle
  3
ObjectDBX Classes
 90
     4095
280
     0
281
     0
  0
CLASS
  1
MATERIAL
  2
AcDbMaterial
  3
ObjectDBX Classes
 90
     1153
280
     0
281
     0
  0
CLASS
  1
SCALE
  2
AcDbScale
  3
ObjectDBX Classes
 90
     1153
280
     0
281
     0
  0
CLASS
  1
SUN
  2
AcDbSun
  3
SCENEOE
 90
     1153
280
     0
281
     0
  0
CLASS
  1
TABLESTYLE
  2
AcDbTableStyle
  3
ObjectDBX Classes
 90
     4095
280
     0
281
     0
  0
CLASS
  1
DICTIONARYVAR
  2
AcDbDictionaryVar
  3
ObjectDBX Classes
 90
        0
280
     0
281
     0
  0
CLASS
  1
FIELD
  2
AcDbField
  3
ObjectDBX Classes
 90
     1152
280
     0
281
     0
  0
CLASS
  1
DIMASSOC
  2
AcDbDimAssoc
  3
"AcDbDimAssoc|Product Desc:     AcDim ARX App For Dimension|Company:          Autodesk, Inc.|WEB Address:      www.autodesk.com"
 90
        0
280
     0
281
     0
  0
CLASS
  1
FIELDLIST
  2
AcDbFieldList
  3
ObjectDBX Classes
 90
     1152
280
     0
281
     0
  0
CLASS
  1
XRECORD
  2
AcDbXrecord
  3
ObjectDBX Classes
 90
        0
280
     0
281
     0
  0
CLASS
  1
LWPOLYLINE
  2
AcDbPolyline
  3
ObjectDBX Classes
 90
        0
280
     0
281
     1
  0
CLASS
  1
HATCH
  2
AcDbHatch
  3
ObjectDBX Classes
 90
        0
280
     0
281
     1
  0
CLASS
  1
ACDBPLACEHOLDER
  2
AcDbPlaceHolder
  3
ObjectDBX Classes
 90
        0
280
     0
281
     0
  0
CLASS
  1
LAYOUT
  2
AcDbLayout
  3
ObjectDBX Classes
 90
        0
280
     0
281
     0
  0
ENDSEC
  0
SECTION
  2
TABLES
  0
TABLE
  2
VPORT
  5
8
330
0
100
AcDbSymbolTable
 70
     1
  0
VPORT
  5
29
330
8
100
AcDbSymbolTableRecord
100
AcDbViewportTableRecord
  2
*ACTIVE
 70
     0
 10
0.0
 20
0.0
 11
1.0
 21
1.0
 12
159.194944
 22
105.0
 13
0.0
 23
0.0
 14
10.0
 24
10.0
 15
10.0
 25
10.0
 16
0.0
 26
0.0
 36
1.0
 17
0.0
 27
0.0
 37
0.0
 40
193.8
 41
1.465209936842105
 42
50.0
 43
0.0
 44
0.0
 50
0.0
 51
0.0
 71
     0
 72
   100
 73
     1
 74
     3
 75
     0
 76
     0
 77
     0
 78
     0
  0
ENDTAB
  0
TABLE
  2
LTYPE
  5
5
330
0
100
AcDbSymbolTable
 70
     2
  0
LTYPE
  5
14
330
5
100
AcDbSymbolTableRecord
100
AcDbLinetypeTableRecord
  2
BYBLOCK
 70
     0
  3

 72
    65
 73
     0
 40
0.0
  0
LTYPE
  5
15
330
5
100
AcDbSymbolTableRecord
100
AcDbLinetypeTableRecord
  2
BYLAYER
 70
     0
  3

 72
    65
 73
     0
 40
0.0
  0
LTYPE
  5
16
330
5
100
AcDbSymbolTableRecord
100
AcDbLinetypeTableRecord
  2
CONTINUOUS
 70
     0
  3
Solid line
 72
    65
 73
     0
 40
0.0
  0
LTYPE
  5
268
330
5
100
AcDbSymbolTableRecord
100
AcDbLinetypeTableRecord
  2
CENTER
 70
     0
  3
Center line ____ _ ____ _ ____ _
 72
    65
 73
     4
 40
0.7874015748031495
 49
0.4921259842519685
 74
     0
 49
-0.0984251968503937
 74
     0
 49
0.0984251968503937
 74
     0
 49
-0.0984251968503937
 74
     0
  0
ENDTAB
  0
TABLE
  2
LAYER
  5
2
330
0
100
AcDbSymbolTable
 70
     9
  0
LAYER
  5
10
330
2
100
AcDbSymbolTableRecord
100
AcDbLayerTableRecord
  2
0
 70
     0
 62
     7
  6
CONTINUOUS
  0
LAYER
  5
6E
330
2
100
AcDbSymbolTableRecord
100
AcDbLayerTableRecord
  2
DEFPOINTS
 70
     0
 62
     7
  6
CONTINUOUS
  0
LAYER
  5
73
330
2
100
AcDbSymbolTableRecord
100
AcDbLayerTableRecord
  2
BORDER_FRAME
 70
     0
 62
     7
  6
CONTINUOUS
  0
LAYER
  5
7A
330
2
100
AcDbSymbolTableRecord
100
AcDbLayerTableRecord
  2
TITLE_BLOCK
 70
     0
 62
     7
  6
CONTINUOUS
  0
LAYER
  5
F6
330
2
100
AcDbSymbolTableRecord
100
AcDbLayerTableRecord
  2
ANNOTATION_TEXT
 70
     0
 62
     7
  6
CONTINUOUS
  0
LAYER
  5
266
330
2
100
AcDbSymbolTableRecord
100
AcDbLayerTableRecord
  2
ANNOTATION_LINES
 70
     0
 62
     7
  6
CONTINUOUS
  0
LAYER
  5
267
330
2
100
AcDbSymbolTableRecord
100
AcDbLayerTableRecord
  2
SHEETMETAL_BEND_LINES_UP
 70
     0
 62
     7
  6
CENTER
  0
LAYER
  5
26F
330
2
100
AcDbSymbolTableRecord
100
AcDbLayerTableRecord
  2
VISIBLE
 70
     0
 62
     7
  6
CONTINUOUS
  0
LAYER
  5
296
330
2
100
AcDbSymbolTableRecord
100
AcDbLayerTableRecord
  2
SKETCHED_GEOMETRY
 70
     0
 62
     7
  6
CENTER
  0
ENDTAB
  0
TABLE
  2
STYLE
  5
3
330
0
100
AcDbSymbolTable
 70
    19
  0
STYLE
  5
11
330
3
100
AcDbSymbolTableRecord
100
AcDbTextStyleTableRecord
  2
STANDARD
 70
     0
 40
0.0
 41
1.0
 50
0.0
 71
     0
 42
3.5
  3
txt
  4

  0
STYLE
  5
6F
330
3
100
AcDbSymbolTableRecord
100
AcDbTextStyleTableRecord
  2
ONSHAPE-STANDARD
 70
     0
 40
0.0
 41
1.0
 50
0.0
 71
     0
 42
3.5
  3
NotoSans-Regular.ttf
  4

1001
ACAD
1000
Noto Sans
1071
        0
  0
STYLE
  5
71
330
3
100
AcDbSymbolTableRecord
100
AcDbTextStyleTableRecord
  2
ONSHAPE-STANDARD-DIMENSION
 70
     0
 40
0.0
 41
1.0
 50
0.0
 71
     0
 42
3.5
  3

  4

1001
ACAD
1000
Noto Sans
1071
        0
  0
STYLE
  5
AB
330
3
100
AcDbSymbolTableRecord
100
AcDbTextStyleTableRecord
  2
ONSHAPE-STANDARD-FIELDS
 70
     0
 40
0.0
 41
1.0
 50
0.0
 71
     0
 42
3.5
  3

  4

1001
ACAD
1000
Noto Sans
1071
        0
  0
STYLE
  5
F7
330
3
100
AcDbSymbolTableRecord
100
AcDbTextStyleTableRecord
  2
ONSHAPE-STANDARD-VIEW-LABE
 70
     0
 40
3.5
 41
1.0
 50
0.0
 71
     0
 42
3.5
  3
NotoSans-Regular.ttf
  4

1001
ACAD
1000
Noto Sans
1071
        0
  0
STYLE
  5
29B
330
3
100
AcDbSymbolTableRecord
100
AcDbTextStyleTableRecord
  2
ONSHAPE-STANDARD-BOLD
 70
     0
 40
0.0
 41
1.0
 50
0.0
 71
     0
 42
3.5
  3
NotoSans-Bold.ttf
  4

1001
ACAD
1000
Noto Sans
1071
 33554432
  0
STYLE
  5
29C
330
3
100
AcDbSymbolTableRecord
100
AcDbTextStyleTableRecord
  2
ONSHAPE-STANDARD-TCFIELDS
 70
     0
 40
0.0
 41
1.0
 50
0.0
 71
     0
 42
3.5
  3
NotoSansTC-Regular.otf
  4

1001
ACAD
1000
Noto Sans TC
1071
        0
  0
STYLE
  5
29D
330
3
100
AcDbSymbolTableRecord
100
AcDbTextStyleTableRecord
  2
ONSHAPE-STANDARD-SCFIELDS
 70
     0
 40
0.0
 41
1.0
 50
0.0
 71
     0
 42
3.5
  3
NotoSansSC-Regular.otf
  4

1001
ACAD
1000
Noto Sans SC
1071
        0
  0
STYLE
  5
29E
330
3
100
AcDbSymbolTableRecord
100
AcDbTextStyleTableRecord
  2
ONSHAPE-STANDARD-KOREANFIE
 70
     0
 40
0.0
 41
1.0
 50
0.0
 71
     0
 42
3.5
  3
NotoSansKR-Regular.otf
  4

1001
ACAD
1000
Noto Sans KR
1071
        0
  0
STYLE
  5
29F
330
3
100
AcDbSymbolTableRecord
100
AcDbTextStyleTableRecord
  2
TTFSTYLE
 70
     0
 40
0.0
 41
1.0
 50
0.0
 71
     0
 42
3.5
  3
Verdana.ttf
  4

1001
ACAD
1000
Verdana
1071
       34
  0
STYLE
  5
2A0
330
3
100
AcDbSymbolTableRecord
100
AcDbTextStyleTableRecord
  2
ONSHAPE-STANDARD-GTOLERANC
 70
     0
 40
0.0
 41
1.0
 50
0.0
 71
     0
 42
3.5
  3

  4

1001
ACAD
1000
Noto Sans
1071
        0
  0
STYLE
  5
2A1
330
3
100
AcDbSymbolTableRecord
100
AcDbTextStyleTableRecord
  2
ONSHAPE-STANDARD-TABLE-DAT
 70
     0
 40
0.0
 41
1.0
 50
0.0
 71
     0
 42
3.5
  3
NotoSans-Regular.ttf
  4

1001
ACAD
1000
Noto Sans
1071
        0
  0
STYLE
  5
2A2
330
3
100
AcDbSymbolTableRecord
100
AcDbTextStyleTableRecord
  2
ONSHAPE-STANDARD-TABLE-TIT
 70
     0
 40
0.0
 41
1.0
 50
0.0
 71
     0
 42
3.5
  3
NotoSans-Bold.ttf
  4

1001
ACAD
1000
Noto Sans
1071
 33554432
  0
STYLE
  5
2A3
330
3
100
AcDbSymbolTableRecord
100
AcDbTextStyleTableRecord
  2
ONSHAPE-STANDARD-TABLE-HEA
 70
     0
 40
0.0
 41
1.0
 50
0.0
 71
     0
 42
3.5
  3
NotoSans-Bold.ttf
  4

1001
ACAD
1000
Noto Sans
1071
 33554432
  0
STYLE
  5
2A4
330
3
100
AcDbSymbolTableRecord
100
AcDbTextStyleTableRecord
  2
ONSHAPE-STANDARD-BOMTABLE-
 70
     0
 40
0.0
 41
1.0
 50
0.0
 71
     0
 42
3.5
  3
NotoSans-Regular.ttf
  4

1001
ACAD
1000
Noto Sans
1071
        0
  0
STYLE
  5
2A5
330
3
100
AcDbSymbolTableRecord
100
AcDbTextStyleTableRecord
  2
ONSHAPE-STANDARD-BOMTABLE0
 70
     0
 40
0.0
 41
1.0
 50
0.0
 71
     0
 42
3.5
  3
NotoSans-Bold.ttf
  4

1001
ACAD
1000
Noto Sans
1071
 33554432
  0
STYLE
  5
2A6
330
3
100
AcDbSymbolTableRecord
100
AcDbTextStyleTableRecord
  2
ONSHAPE-STANDARD-BOMTABLE1
 70
     0
 40
0.0
 41
1.0
 50
0.0
 71
     0
 42
3.5
  3
NotoSans-Bold.ttf
  4

1001
ACAD
1000
Noto Sans
1071
 33554432
  0
STYLE
  5
2A7
330
3
100
AcDbSymbolTableRecord
100
AcDbTextStyleTableRecord
  2
ONSHAPE-STANDARD-NOTESTYLE
 70
     0
 40
3.5
 41
1.0
 50
0.0
 71
     0
 42
3.5
  3
Noto Sans
  4

1001
ACAD
1000
Noto Sans
1071
        0
  0
STYLE
  5
2A8
330
3
100
AcDbSymbolTableRecord
100
AcDbTextStyleTableRecord
  2
ONSHAPE-STANDARD-HOLE-CALL
 70
     0
 40
3.5
 41
1.0
 50
0.0
 71
     0
 42
3.5
  3
Noto Sans
  4

1001
ACAD
1000
Noto Sans
1071
        0
  0
ENDTAB
  0
TABLE
  2
VIEW
  5
6
330
0
100
AcDbSymbolTable
 70
     0
  0
ENDTAB
  0
TABLE
  2
UCS
  5
7
330
0
100
AcDbSymbolTable
 70
     0
  0
ENDTAB
  0
TABLE
  2
APPID
  5
9
330
0
100
AcDbSymbolTable
 70
     5
  0
APPID
  5
12
330
9
100
AcDbSymbolTableRecord
100
AcDbRegAppTableRecord
  2
ACAD
 70
     0
  0
APPID
  5
109
330
9
100
AcDbSymbolTableRecord
100
AcDbRegAppTableRecord
  2
ACAD_DSTYLE_DIMRADIAL_EXTE
 70
     0
  0
APPID
  5
10A
330
9
100
AcDbSymbolTableRecord
100
AcDbRegAppTableRecord
  2
ACAD_DIMASSOC_CALC_DIMLFAC
 70
     0
  0
APPID
  5
10B
330
9
100
AcDbSymbolTableRecord
100
AcDbRegAppTableRecord
  2
ACAD_DIMASSOC_DIMLFAC
 70
     0
  0
APPID
  5
10C
330
9
100
AcDbSymbolTableRecord
100
AcDbRegAppTableRecord
  2
ACAD_DIMASSOC_OVERRIDDEN_D
 70
     0
  0
ENDTAB
  0
TABLE
  2
DIMSTYLE
  5
A
330
0
100
AcDbSymbolTable
 70
    16
  0
DIMSTYLE
105
27
330
A
100
AcDbSymbolTableRecord
100
AcDbDimStyleTableRecord
  2
ISO-25
 70
     0
  3

  4

  5

  6

  7

 40
1.0
 41
2.5
 42
0.625
 43
3.75
 44
1.25
 45
0.0
 46
0.0
 47
0.0
 48
0.0
140
2.5
141
2.5
142
0.0
143
0.03937007874016
144
1.0
145
0.0
146
1.0
147
0.625
 71
     0
 72
     0
 73
     0
 74
     0
 75
     0
 76
     0
 77
     1
 78
     8
170
     0
171
     3
172
     1
173
     0
174
     0
175
     0
176
     0
177
     0
178
     0
270
     2
271
     2
272
     2
273
     2
274
     3
340
11
275
     0
280
     0
281
     0
282
     0
283
     0
284
     8
285
     0
286
     0
287
     3
288
     0
  0
DIMSTYLE
105
70
330
A
100
AcDbSymbolTableRecord
100
AcDbDimStyleTableRecord
  2
ONSHAPE-ISO-25
 70
     0
  3

  4

  5

  6

  7

 40
1.0
 41
2.5
 42
0.625
 43
3.75
 44
1.25
 45
0.0
 46
0.0
 47
0.0
 48
0.0
140
3.5
141
2.5
142
0.0
143
0.03937
144
1.0
145
0.0
146
1.0
147
0.625
 71
     0
 72
     0
 73
     0
 74
     0
 75
     0
 76
     0
 77
     1
 78
     8
170
     0
171
     3
172
     1
173
     0
174
     0
175
     0
176
     7
177
     7
178
     7
179
     1
270
     2
271
     2
272
     2
273
     2
274
     3
340
71
275
     0
280
     0
281
     0
282
     0
283
     0
284
     8
285
     8
286
     0
287
     3
288
     1
  0
DIMSTYLE
105
FC
102
{ACAD_REACTORS
330
F8
330
193
330
202
330
236
330
255
102
}
330
A
100
AcDbSymbolTableRecord
100
AcDbDimStyleTableRecord
  2
ONSHAPE-ISO-25$3
 70
     0
  3

  4

  5

  6

  7

 40
1.0
 41
2.5
 42
0.625
 43
3.75
 44
1.25
 45
0.0
 46
0.0
 47
0.0
 48
0.0
140
3.5
141
0.0
142
0.0
143
0.03937
144
1.0
145
0.0
146
1.0
147
0.625
 71
     0
 72
     0
 73
     0
 74
     0
 75
     0
 76
     0
 77
     1
 78
     8
170
     0
171
     3
172
     1
173
     0
174
     0
175
     0
176
     7
177
     7
178
     7
179
     1
270
     2
271
     2
272
     2
273
     2
274
     3
340
71
275
     0
280
     0
281
     0
282
     0
283
     0
284
     8
285
     8
286
     0
287
     3
288
     1
  0
DIMSTYLE
105
112
102
{ACAD_REACTORS
330
10D
330
11F
330
130
330
143
330
153
330
163
330
173
330
183
330
1A3
330
1B3
330
1D0
330
1E0
330
1F1
330
211
330
222
330
245
102
}
330
A
100
AcDbSymbolTableRecord
100
AcDbDimStyleTableRecord
  2
ONSHAPE-ISO-25$0
 70
     0
  3

  4

  5

  6

  7

 40
1.0
 41
2.5
 42
0.625
 43
3.75
 44
1.25
 45
0.0
 46
0.0
 47
0.0
 48
0.0
140
3.5
141
2.5
142
0.0
143
0.03937
144
1.0
145
0.0
146
1.0
147
0.625
 71
     0
 72
     0
 73
     0
 74
     0
 75
     0
 76
     0
 77
     1
 78
     8
170
     0
171
     3
172
     1
173
     0
174
     0
175
     0
176
     7
177
     7
178
     7
179
     1
270
     2
271
     2
272
     2
273
     2
274
     3
340
71
275
     0
280
     0
281
     0
282
     0
283
     0
284
     8
285
     8
286
     0
287
     3
288
     1
  0
DIMSTYLE
105
1C7
102
{ACAD_REACTORS
330
1C3
102
}
330
A
100
AcDbSymbolTableRecord
100
AcDbDimStyleTableRecord
  2
ONSHAPE-ISO-25$4
 70
     0
  3

  4

  5

  6

  7

 40
1.0
 41
2.5
 42
0.625
 43
3.75
 44
1.25
 45
0.0
 46
0.0
 47
0.0
 48
0.0
140
3.5
141
0.0
142
0.0
143
0.03937
144
1.0
145
0.0
146
1.0
147
0.625
 71
     0
 72
     0
 73
     0
 74
     0
 75
     0
 76
     0
 77
     1
 78
     8
170
     0
171
     3
172
     1
173
     0
174
     0
175
     0
176
     7
177
     7
178
     7
179
     1
270
     2
271
     2
272
     2
273
     2
274
     3
340
71
275
     0
280
     0
281
     0
282
     0
283
     0
284
     8
285
     8
286
     0
287
     3
288
     1
  0
DIMSTYLE
105
269
102
{ACAD_REACTORS
330
26C
102
}
330
A
100
AcDbSymbolTableRecord
100
AcDbDimStyleTableRecord
  2
ONSHAPE-ISO-25$7
 70
     0
  3

  4

  5

  6

  7

 40
1.0
 41
2.5
 42
0.625
 43
3.75
 44
1.25
 45
0.0
 46
0.0
 47
0.0
 48
0.0
140
3.5
141
2.5
142
0.0
143
0.03937
144
1.0
145
0.0
146
1.0
147
0.625
 71
     0
 72
     0
 73
     0
 74
     0
 75
     0
 76
     0
 77
     1
 78
     8
170
     0
171
     3
172
     1
173
     0
174
     0
175
     0
176
     7
177
     7
178
     7
179
     1
270
     2
271
     2
272
     2
273
     2
274
     3
340
71
275
     0
280
     0
281
     0
282
     0
283
     0
284
     8
285
     8
286
     0
287
     3
288
     1
  0
DIMSTYLE
105
2AB
330
A
100
AcDbSymbolTableRecord
100
AcDbDimStyleTableRecord
  2
ISO
 70
     0
  3

  4
"
  5

  6

  7

 40
1.0
 41
3.5
 42
1.0
 43
10.0
 44
1.0
 45
0.0
 46
0.0
 47
0.1
 48
0.1
140
3.5
141
0.0
142
0.0
143
0.03937
144
1.0
145
0.0
146
0.71
147
1.5
 71
     0
 72
     0
 73
     0
 74
     0
 75
     0
 76
     0
 77
     1
 78
     8
170
     0
171
     3
172
     1
173
     0
174
     0
175
     0
176
     7
177
     7
178
     7
270
     2
271
     2
272
     3
273
     2
274
     3
340
11
275
     0
280
     0
281
     0
282
     0
283
     0
284
     8
285
     8
286
     0
287
     3
288
     1
  0
DIMSTYLE
105
2AC
330
A
100
AcDbSymbolTableRecord
100
AcDbDimStyleTableRecord
  2
ISO$3
 70
     0
  3

  4
"
  5

  6

  7

 40
1.0
 41
3.5
 42
1.0
 43
10.0
 44
1.0
 45
0.0
 46
0.0
 47
0.1
 48
0.1
140
3.5
141
0.0
142
0.0
143
0.03937
144
1.0
145
0.0
146
0.71
147
1.5
 71
     0
 72
     0
 73
     0
 74
     1
 75
     0
 76
     0
 77
     1
 78
     8
170
     0
171
     3
172
     0
173
     0
174
     0
175
     0
176
     7
177
     7
178
     7
270
     2
271
     2
272
     3
273
     2
274
     3
340
11
275
     0
280
     0
281
     0
282
     0
283
     0
284
     8
285
     8
286
     0
288
     1
  0
DIMSTYLE
105
2AD
330
A
100
AcDbSymbolTableRecord
100
AcDbDimStyleTableRecord
  2
ISO$4
 70
     0
  3

  4
"
  5

  6

  7

 40
1.0
 41
3.5
 42
1.0
 43
10.0
 44
1.0
 45
0.0
 46
0.0
 47
0.1
 48
0.1
140
3.5
141
0.0
142
0.0
143
0.03937
144
1.0
145
0.0
146
0.71
147
1.5
 71
     0
 72
     0
 73
     0
 74
     0
 75
     0
 76
     0
 77
     1
 78
     8
170
     0
171
     3
172
     1
173
     0
174
     0
175
     0
176
     7
177
     7
178
     7
270
     2
271
     2
272
     3
273
     2
274
     3
340
11
275
     0
280
     0
281
     0
282
     0
283
     0
284
     8
285
     8
286
     0
287
     3
288
     1
  0
DIMSTYLE
105
2AE
330
A
100
AcDbSymbolTableRecord
100
AcDbDimStyleTableRecord
  2
ISO$6
 70
     0
  3

  4
"
  5

  6

  7

 40
1.0
 41
0.5
 42
1.0
 43
10.0
 44
1.0
 45
0.0
 46
0.0
 47
0.1
 48
0.1
140
3.5
141
0.0
142
0.0
143
0.03937
144
1.0
145
0.0
146
0.71
147
1.5
 71
     0
 72
     0
 73
     0
 74
     0
 75
     0
 76
     0
 77
     0
 78
     8
170
     0
171
     3
172
     1
173
     0
174
     0
175
     0
176
     7
177
     7
178
     7
270
     2
271
     2
272
     3
273
     2
274
     3
340
11
275
     0
280
     0
281
     0
282
     0
283
     0
284
     8
285
     8
286
     0
287
     3
288
     1
  0
DIMSTYLE
105
2AF
330
A
100
AcDbSymbolTableRecord
100
AcDbDimStyleTableRecord
  2
ISO$7
 70
     0
  3

  4
"
  5

  6

  7

 40
1.0
 41
3.5
 42
1.0
 43
10.0
 44
1.0
 45
0.0
 46
0.0
 47
0.1
 48
0.1
140
3.5
141
0.0
142
0.0
143
0.03937
144
1.0
145
0.0
146
0.71
147
1.5
 71
     0
 72
     0
 73
     0
 74
     0
 75
     0
 76
     0
 77
     1
 78
     8
170
     0
171
     3
172
     1
173
     0
174
     0
175
     0
176
     7
177
     7
178
     7
270
     2
271
     2
272
     3
273
     2
274
     3
340
11
275
     0
280
     0
281
     0
282
     0
283
     0
284
     8
285
     8
286
     0
287
     3
288
     1
  0
DIMSTYLE
105
2B0
330
A
100
AcDbSymbolTableRecord
100
AcDbDimStyleTableRecord
  2
ISO$SF
 70
     0
  3

  4
"
  5

  6

  7

 40
1.0
 41
3.5
 42
1.0
 43
10.0
 44
1.0
 45
0.0
 46
0.0
 47
0.1
 48
0.1
140
3.5
141
0.0
142
0.0
143
0.03937
144
1.0
145
0.0
146
0.71
147
1.5
 71
     0
 72
     0
 73
     0
 74
     0
 75
     1
 76
     1
 77
     1
 78
     8
170
     0
171
     3
172
     1
173
     0
174
     0
175
     0
176
     7
177
     7
178
     7
270
     2
271
     2
272
     3
273
     2
274
     3
340
11
275
     0
280
     0
281
     0
282
     0
283
     0
284
     8
285
     8
286
     0
287
     3
288
     1
  0
DIMSTYLE
105
2B1
330
A
100
AcDbSymbolTableRecord
100
AcDbDimStyleTableRecord
  2
ISO$SH
 70
     0
  3

  4
"
  5

  6

  7

 40
1.0
 41
3.5
 42
1.0
 43
10.0
 44
1.0
 45
0.0
 46
0.0
 47
0.1
 48
0.1
140
3.5
141
0.0
142
0.0
143
0.03937
144
2.0
145
0.0
146
0.71
147
1.5
 71
     0
 72
     0
 73
     0
 74
     0
 75
     1
 76
     1
 77
     1
 78
     8
170
     0
171
     3
172
     1
173
     1
174
     0
175
     0
176
     7
177
     7
178
     7
270
     2
271
     2
272
     3
273
     2
274
     3
340
11
275
     0
280
     0
281
     0
282
     0
283
     0
284
     8
285
     8
286
     0
287
     3
288
     1
  0
DIMSTYLE
105
2B3
330
A
100
AcDbSymbolTableRecord
100
AcDbDimStyleTableRecord
  2
ONSHAPE-ISO-25$2
 70
     0
  3

  4

  5

  6

  7

 40
1.0
 41
2.5
 42
0.625
 43
3.75
 44
1.25
 45
0.0
 46
0.0
 47
0.0
 48
0.0
140
3.5
141
2.5
142
0.0
143
0.03937
144
1.0
145
0.0
146
1.0
147
0.625
 71
     0
 72
     0
 73
     0
 74
     0
 75
     0
 76
     0
 77
     1
 78
     8
170
     0
171
     3
172
     1
173
     0
174
     0
175
     0
176
     7
177
     7
178
     7
179
     1
270
     2
271
     2
272
     2
273
     2
274
     3
340
71
275
     0
280
     0
281
     0
282
     0
283
     0
284
     8
285
     8
286
     0
287
     3
288
     1
  0
DIMSTYLE
105
2B4
330
A
100
AcDbSymbolTableRecord
100
AcDbDimStyleTableRecord
  2
ONSHAPE-ISO-25$6
 70
     0
  3

  4

  5

  6

  7

 40
1.0
 41
0.5
 42
0.625
 43
3.75
 44
1.25
 45
0.0
 46
0.0
 47
0.0
 48
0.0
140
3.5
141
2.5
142
0.0
143
0.03937
144
1.0
145
0.0
146
1.0
147
0.625
 71
     0
 72
     0
 73
     0
 74
     0
 75
     0
 76
     0
 77
     1
 78
     8
170
     0
171
     3
172
     1
173
     0
174
     0
175
     0
176
     7
177
     7
178
     7
179
     1
270
     2
271
     2
272
     2
273
     2
274
     3
340
71
275
     0
280
     0
281
     0
282
     0
283
     0
284
     8
285
     8
286
     0
287
     3
288
     1
  0
DIMSTYLE
105
2B6
330
A
100
AcDbSymbolTableRecord
100
AcDbDimStyleTableRecord
  2
ONSHAPE-STANDARD-GTOLERANC
 70
     0
  3

  4

  5

  6

  7

 40
1.0
 41
2.5
 42
0.625
 43
3.75
 44
1.25
 45
0.0
 46
0.0
 47
0.0
 48
0.0
140
3.5
141
2.5
142
0.0
143
0.03937
144
1.0
145
0.0
146
1.0
147
0.625
 71
     0
 72
     0
 73
     0
 74
     0
 75
     0
 76
     0
 77
     1
 78
     8
170
     0
171
     3
172
     1
173
     0
174
     0
175
     0
176
     7
177
     7
178
     7
179
     1
270
     2
271
     2
272
     2
273
     2
274
     3
340
2A0
275
     0
280
     0
281
     0
282
     0
283
     0
284
     8
285
     8
286
     0
287
     3
288
     1
  0
ENDTAB
  0
TABLE
  2
BLOCK_RECORD
  5
1
330
0
100
AcDbSymbolTable
 70
    23
  0
BLOCK_RECORD
  5
1F
330
1
100
AcDbSymbolTableRecord
100
AcDbBlockTableRecord
  2
*MODEL_SPACE
  0
BLOCK_RECORD
  5
1B
330
1
100
AcDbSymbolTableRecord
100
AcDbBlockTableRecord
  2
*PAPER_SPACE
  0
BLOCK_RECORD
  5
FE
330
1
100
AcDbSymbolTableRecord
100
AcDbBlockTableRecord
  2
*D1
  0
BLOCK_RECORD
  5
113
330
1
100
AcDbSymbolTableRecord
100
AcDbBlockTableRecord
  2
*D2
  0
BLOCK_RECORD
  5
124
330
1
100
AcDbSymbolTableRecord
100
AcDbBlockTableRecord
  2
*D3
  0
BLOCK_RECORD
  5
134
330
1
100
AcDbSymbolTableRecord
100
AcDbBlockTableRecord
  2
*D4
  0
BLOCK_RECORD
  5
147
330
1
100
AcDbSymbolTableRecord
100
AcDbBlockTableRecord
  2
*D5
  0
BLOCK_RECORD
  5
157
330
1
100
AcDbSymbolTableRecord
100
AcDbBlockTableRecord
  2
*D6
  0
BLOCK_RECORD
  5
167
330
1
100
AcDbSymbolTableRecord
100
AcDbBlockTableRecord
  2
*D7
  0
BLOCK_RECORD
  5
177
330
1
100
AcDbSymbolTableRecord
100
AcDbBlockTableRecord
  2
*D8
  0
BLOCK_RECORD
  5
187
330
1
100
AcDbSymbolTableRecord
100
AcDbBlockTableRecord
  2
*D9
  0
BLOCK_RECORD
  5
197
330
1
100
AcDbSymbolTableRecord
100
AcDbBlockTableRecord
  2
*D10
  0
BLOCK_RECORD
  5
1A7
330
1
100
AcDbSymbolTableRecord
100
AcDbBlockTableRecord
  2
*D11
  0
BLOCK_RECORD
  5
1B7
330
1
100
AcDbSymbolTableRecord
100
AcDbBlockTableRecord
  2
*D12
  0
BLOCK_RECORD
  5
1C8
330
1
100
AcDbSymbolTableRecord
100
AcDbBlockTableRecord
  2
*D13
  0
BLOCK_RECORD
  5
1D4
330
1
100
AcDbSymbolTableRecord
100
AcDbBlockTableRecord
  2
*D14
  0
BLOCK_RECORD
  5
1E4
330
1
100
AcDbSymbolTableRecord
100
AcDbBlockTableRecord
  2
*D15
  0
BLOCK_RECORD
  5
1F5
330
1
100
AcDbSymbolTableRecord
100
AcDbBlockTableRecord
  2
*D16
  0
BLOCK_RECORD
  5
206
330
1
100
AcDbSymbolTableRecord
100
AcDbBlockTableRecord
  2
*D17
  0
BLOCK_RECORD
  5
216
330
1
100
AcDbSymbolTableRecord
100
AcDbBlockTableRecord
  2
*D18
  0
BLOCK_RECORD
  5
227
330
1
100
AcDbSymbolTableRecord
100
AcDbBlockTableRecord
  2
*D19
  0
BLOCK_RECORD
  5
23A
330
1
100
AcDbSymbolTableRecord
100
AcDbBlockTableRecord
  2
*D20
  0
BLOCK_RECORD
  5
249
330
1
100
AcDbSymbolTableRecord
100
AcDbBlockTableRecord
  2
*D21
  0
BLOCK_RECORD
  5
259
330
1
100
AcDbSymbolTableRecord
100
AcDbBlockTableRecord
  2
*D22
  0
ENDTAB
  0
ENDSEC
  0
SECTION
  2
BLOCKS
  0
BLOCK
  5
20
330
1F
100
AcDbEntity
  8
0
100
AcDbBlockBegin
  2
*MODEL_SPACE
 70
     0
 10
0.0
 20
0.0
 30
0.0
  3
*MODEL_SPACE
  1

  0
ENDBLK
  5
21
330
1F
100
AcDbEntity
  8
0
100
AcDbBlockEnd
  0
BLOCK
  5
1C
330
1B
100
AcDbEntity
 67
     1
  8
0
100
AcDbBlockBegin
  2
*PAPER_SPACE
 70
     0
 10
0.0
 20
0.0
 30
0.0
  3
*PAPER_SPACE
  1

  0
ENDBLK
  5
1D
330
1B
100
AcDbEntity
 67
     1
  8
0
100
AcDbBlockEnd
  0
BLOCK
  5
FF
330
FE
100
AcDbEntity
  8
0
100
AcDbBlockBegin
  2
*D1
 70
     1
 10
0.0
 20
0.0
 30
0.0
  3
*D1
  1
*D1
  0
LINE
  5
100
330
FE
100
AcDbEntity
  8
ANNOTATION_TEXT
 62
     7
100
AcDbLine
 10
115.2747028780543
 20
100.4420020208121
 30
0.0
 11
96.41675205424256
 21
91.78031279510904
 31
0.0
  0
LINE
  5
101
330
FE
100
AcDbEntity
  8
ANNOTATION_TEXT
 62
     7
100
AcDbLine
 10
121.6357958089686
 20
103.3637304004314
 30
0.0
 11
123.9076147128665
 21
104.407204821724
 31
0.0
  0
MTEXT
  5
102
330
FE
100
AcDbEntity
  8
ANNOTATION_TEXT
 62
     7
100
AcDbMText
 10
100.9750077812574
 20
97.27986707529598
 30
0.0
 40
3.5
 41
0.0
 71
     5
 72
     1
  1
4xÿ2
  7
ONSHAPE-STANDARD-DIMENSION
 11
0.9087275615591784
 21
0.4173897685170418
 31
0.0
  0
LINE
  5
103
330
FE
100
AcDbEntity
  8
ANNOTATION_TEXT
 62
     7
100
AcDbLine
 10
119.3639769050706
 20
102.3202559791388
 30
0.0
 11
117.5465217819523
 21
101.4854764421047
 31
0.0
  0
SOLID
  5
104
330
FE
100
AcDbEntity
  8
ANNOTATION_TEXT
 62
     7
100
AcDbTrace
 10
121.4618834054198
 20
103.7423668844144
 30
0.0
 11
121.8097082125173
 21
102.9850939164484
 31
0.0
 12
119.3639769050706
 22
102.3202559791388
 32
0.0
 13
119.3639769050706
 23
102.3202559791388
 33
0.0
  0
SOLID
  5
105
330
FE
100
AcDbEntity
  8
ANNOTATION_TEXT
 62
     7
100
AcDbTrace
 10
115.4486152816031
 20
100.0633655368291
 30
0.0
 11
115.1007904745055
 21
100.8206385047951
 31
0.0
 12
117.5465217819523
 22
101.4854764421047
 32
0.0
 13
117.5465217819523
 23
101.4854764421047
 33
0.0
  0
POINT
  5
106
330
FE
100
AcDbEntity
  8
DEFPOINTS
 62
     0
100
AcDbPoint
 10
117.5465217819523
 20
101.4854764421047
 30
0.0
  0
POINT
  5
107
330
FE
100
AcDbEntity
  8
DEFPOINTS
 62
     0
100
AcDbPoint
 10
119.3639769050706
 20
102.3202559791388
 30
0.0
  0
ENDBLK
  5
108
330
FE
100
AcDbEntity
  8
0
100
AcDbBlockEnd
  0
BLOCK
  5
114
330
113
100
AcDbEntity
  8
0
100
AcDbBlockBegin
  2
*D2
 70
     1
 10
0.0
 20
0.0
 30
0.0
  3
*D2
  1
*D2
  0
LINE
  5
115
330
113
100
AcDbEntity
  8
ANNOTATION_TEXT
 62
     7
100
AcDbLine
 10
199.3552493435114
 20
99.57786621062174
 30
0.0
 11
199.3552493435114
 21
67.29640962473394
 31
0.0
  0
LINE
  5
116
330
113
100
AcDbEntity
  8
ANNOTATION_TEXT
 62
     7
100
AcDbLine
 10
117.5552493435114
 20
99.57786621062174
 30
0.0
 11
117.5552493435114
 21
67.29640962473394
 31
0.0
  0
LINE
  5
117
330
113
100
AcDbEntity
  8
ANNOTATION_TEXT
 62
     7
100
AcDbLine
 10
196.8552493435114
 20
68.54640962473394
 30
0.0
 11
120.0552493435114
 21
68.54640962473394
 31
0.0
  0
SOLID
  5
118
330
113
100
AcDbEntity
  8
ANNOTATION_TEXT
 62
     7
100
AcDbTrace
 10
196.8552493435114
 20
68.12974295806727
 30
0.0
 11
196.8552493435114
 21
68.96307629140061
 31
0.0
 12
199.3552493435114
 22
68.54640962473394
 32
0.0
 13
199.3552493435114
 23
68.54640962473394
 33
0.0
  0
SOLID
  5
119
330
113
100
AcDbEntity
  8
ANNOTATION_TEXT
 62
     7
100
AcDbTrace
 10
120.0552493435114
 20
68.96307629140061
 30
0.0
 11
120.0552493435114
 21
68.12974295806727
 31
0.0
 12
117.5552493435114
 22
68.54640962473394
 32
0.0
 13
117.5552493435114
 23
68.54640962473394
 33
0.0
  0
MTEXT
  5
11A
330
113
100
AcDbEntity
  8
ANNOTATION_TEXT
 62
     7
100
AcDbMText
 10
155.3368923255583
 20
71.25400499258136
 30
0.0
 40
3.5
 41
0.0
 71
     5
 72
     1
  1
81,8
  7
ONSHAPE-STANDARD-DIMENSION
  0
POINT
  5
11B
330
113
100
AcDbEntity
  8
DEFPOINTS
 62
     0
100
AcDbPoint
 10
199.3552493435114
 20
100.2028662106217
 30
0.0
  0
POINT
  5
11C
330
113
100
AcDbEntity
  8
DEFPOINTS
 62
     0
100
AcDbPoint
 10
117.5552493435114
 20
100.2028662106217
 30
0.0
  0
POINT
  5
11D
330
113
100
AcDbEntity
  8
DEFPOINTS
 62
     0
100
AcDbPoint
 10
117.5552493435114
 20
68.54640962473394
 30
0.0
  0
ENDBLK
  5
11E
330
113
100
AcDbEntity
  8
0
100
AcDbBlockEnd
  0
BLOCK
  5
125
330
124
100
AcDbEntity
  8
0
100
AcDbBlockBegin
  2
*D3
 70
     1
 10
0.0
 20
0.0
 30
0.0
  3
*D3
  1
*D3
  0
LINE
  5
126
330
124
100
AcDbEntity
  8
ANNOTATION_TEXT
 62
     7
100
AcDbLine
 10
141.0660293435114
 20
112.2173162106217
 30
0.0
 11
141.0660293435114
 21
74.97415248386265
 31
0.0
  0
LINE
  5
127
330
124
100
AcDbEntity
  8
ANNOTATION_TEXT
 62
     7
100
AcDbLine
 10
175.8444693435114
 20
112.2173162106217
 30
0.0
 11
175.8444693435114
 21
74.97415248386265
 31
0.0
  0
LINE
  5
128
330
124
100
AcDbEntity
  8
ANNOTATION_TEXT
 62
     7
100
AcDbLine
 10
143.5660293435114
 20
76.22415248386265
 30
0.0
 11
173.3444693435114
 21
76.22415248386265
 31
0.0
  0
SOLID
  5
129
330
124
100
AcDbEntity
  8
ANNOTATION_TEXT
 62
     7
100
AcDbTrace
 10
143.5660293435114
 20
76.64081915052932
 30
0.0
 11
143.5660293435114
 21
75.80748581719598
 31
0.0
 12
141.0660293435114
 22
76.22415248386265
 32
0.0
 13
141.0660293435114
 23
76.22415248386265
 33
0.0
  0
SOLID
  5
12A
330
124
100
AcDbEntity
  8
ANNOTATION_TEXT
 62
     7
100
AcDbTrace
 10
173.3444693435114
 20
75.80748581719598
 30
0.0
 11
173.3444693435114
 21
76.64081915052932
 31
0.0
 12
175.8444693435114
 22
76.22415248386265
 32
0.0
 13
175.8444693435114
 23
76.22415248386265
 33
0.0
  0
MTEXT
  5
12B
330
124
100
AcDbEntity
  8
ANNOTATION_TEXT
 62
     7
100
AcDbMText
 10
158.4552493435114
 20
78.93174785171007
 30
0.0
 40
3.5
 41
0.0
 71
     5
 72
     1
  1
34,78
  7
ONSHAPE-STANDARD-DIMENSION
  0
POINT
  5
12C
330
124
100
AcDbEntity
  8
DEFPOINTS
 62
     0
100
AcDbPoint
 10
141.0660293435114
 20
112.8423162106217
 30
0.0
  0
POINT
  5
12D
330
124
100
AcDbEntity
  8
DEFPOINTS
 62
     0
100
AcDbPoint
 10
175.8444693435114
 20
112.8423162106217
 30
0.0
  0
POINT
  5
12E
330
124
100
AcDbEntity
  8
DEFPOINTS
 62
     0
100
AcDbPoint
 10
175.8444693435114
 20
76.22415248386265
 30
0.0
  0
ENDBLK
  5
12F
330
124
100
AcDbEntity
  8
0
100
AcDbBlockEnd
  0
BLOCK
  5
135
330
134
100
AcDbEntity
  8
0
100
AcDbBlockBegin
  2
*D4
 70
     1
 10
0.0
 20
0.0
 30
0.0
  3
*D4
  1
*D4
  0
LINE
  5
136
330
134
100
AcDbEntity
  8
ANNOTATION_TEXT
 62
     7
100
AcDbLine
 10
199.0802493435114
 20
101.9028662106217
 30
0.0
 11
208.8105052269459
 21
101.9028662106217
 31
0.0
  0
LINE
  5
137
330
134
100
AcDbEntity
  8
ANNOTATION_TEXT
 62
     7
100
AcDbLine
 10
199.9802493435114
 20
100.2028662106217
 30
0.0
 11
208.8105052269459
 21
100.2028662106217
 31
0.0
  0
LINE
  5
138
330
134
100
AcDbEntity
  8
ANNOTATION_TEXT
 62
     7
100
AcDbLine
 10
207.5605052269459
 20
101.9028662106217
 30
0.0
 11
207.5605052269459
 21
114.3732340580332
 31
0.0
  0
LINE
  5
139
330
134
100
AcDbEntity
  8
ANNOTATION_TEXT
 62
     7
100
AcDbLine
 10
207.5605052269459
 20
101.9028662106217
 30
0.0
 11
207.5605052269459
 21
100.2028662106217
 31
0.0
  0
LINE
  5
13A
330
134
100
AcDbEntity
  8
ANNOTATION_TEXT
 62
     7
100
AcDbLine
 10
207.5605052269459
 20
104.4028662106217
 30
0.0
 11
207.5605052269459
 21
106.9028662106217
 31
0.0
  0
LINE
  5
13B
330
134
100
AcDbEntity
  8
ANNOTATION_TEXT
 62
     7
100
AcDbLine
 10
207.5605052269459
 20
97.70286621062174
 30
0.0
 11
207.5605052269459
 21
95.20286621062174
 31
0.0
  0
SOLID
  5
13C
330
134
100
AcDbEntity
  8
ANNOTATION_TEXT
 62
     7
100
AcDbTrace
 10
207.1438385602792
 20
104.4028662106217
 30
0.0
 11
207.9771718936126
 21
104.4028662106217
 31
0.0
 12
207.5605052269459
 22
101.9028662106217
 32
0.0
 13
207.5605052269459
 23
101.9028662106217
 33
0.0
  0
SOLID
  5
13D
330
134
100
AcDbEntity
  8
ANNOTATION_TEXT
 62
     7
100
AcDbTrace
 10
207.9771718936126
 20
97.70286621062174
 30
0.0
 11
207.1438385602792
 21
97.70286621062174
 31
0.0
 12
207.5605052269459
 22
100.2028662106217
 32
0.0
 13
207.5605052269459
 23
100.2028662106217
 33
0.0
  0
MTEXT
  5
13E
330
134
100
AcDbEntity
  8
ANNOTATION_TEXT
 62
     7
100
AcDbMText
 10
204.8707913304881
 20
110.6380501343275
 30
0.0
 40
3.5
 41
0.0
 71
     5
 72
     1
  1
1,7
  7
ONSHAPE-STANDARD-DIMENSION
 11
0.0
 21
1.0
 31
0.0
  0
POINT
  5
13F
330
134
100
AcDbEntity
  8
DEFPOINTS
 62
     0
100
AcDbPoint
 10
198.4552493435114
 20
101.9028662106217
 30
0.0
  0
POINT
  5
140
330
134
100
AcDbEntity
  8
DEFPOINTS
 62
     0
100
AcDbPoint
 10
199.3552493435114
 20
100.2028662106217
 30
0.0
  0
POINT
  5
141
330
134
100
AcDbEntity
  8
DEFPOINTS
 62
     0
100
AcDbPoint
 10
207.5605052269459
 20
100.2028662106217
 30
0.0
  0
ENDBLK
  5
142
330
134
100
AcDbEntity
  8
0
100
AcDbBlockEnd
  0
BLOCK
  5
148
330
147
100
AcDbEntity
  8
0
100
AcDbBlockBegin
  2
*D5
 70
     1
 10
0.0
 20
0.0
 30
0.0
  3
*D5
  1
*D5
  0
LINE
  5
149
330
147
100
AcDbEntity
  8
ANNOTATION_TEXT
 62
     7
100
AcDbLine
 10
159.0802493435114
 20
100.2028662106217
 30
0.0
 11
219.3703758445149
 21
100.2028662106217
 31
0.0
  0
LINE
  5
14A
330
147
100
AcDbEntity
  8
ANNOTATION_TEXT
 62
     7
100
AcDbLine
 10
176.4694693435114
 20
112.8423162106217
 30
0.0
 11
219.3703758445149
 21
112.8423162106217
 31
0.0
  0
LINE
  5
14B
330
147
100
AcDbEntity
  8
ANNOTATION_TEXT
 62
     7
100
AcDbLine
 10
218.1203758445149
 20
102.7028662106217
 30
0.0
 11
218.1203758445149
 21
110.3423162106217
 31
0.0
  0
SOLID
  5
14C
330
147
100
AcDbEntity
  8
ANNOTATION_TEXT
 62
     7
100
AcDbTrace
 10
217.7037091778483
 20
102.7028662106217
 30
0.0
 11
218.5370425111816
 21
102.7028662106217
 31
0.0
 12
218.1203758445149
 22
100.2028662106217
 32
0.0
 13
218.1203758445149
 23
100.2028662106217
 33
0.0
  0
SOLID
  5
14D
330
147
100
AcDbEntity
  8
ANNOTATION_TEXT
 62
     7
100
AcDbTrace
 10
218.5370425111816
 20
110.3423162106217
 30
0.0
 11
217.7037091778483
 21
110.3423162106217
 31
0.0
 12
218.1203758445149
 22
112.8423162106217
 32
0.0
 13
218.1203758445149
 23
112.8423162106217
 33
0.0
  0
MTEXT
  5
14E
330
147
100
AcDbEntity
  8
ANNOTATION_TEXT
 62
     7
100
AcDbMText
 10
215.4127804766675
 20
107.4856502785245
 30
0.0
 40
3.5
 41
0.0
 71
     5
 72
     1
  1
12,64
  7
ONSHAPE-STANDARD-DIMENSION
 11
0.0
 21
1.0
 31
0.0
  0
POINT
  5
14F
330
147
100
AcDbEntity
  8
DEFPOINTS
 62
     0
100
AcDbPoint
 10
158.4552493435114
 20
100.2028662106217
 30
0.0
  0
POINT
  5
150
330
147
100
AcDbEntity
  8
DEFPOINTS
 62
     0
100
AcDbPoint
 10
175.8444693435114
 20
112.8423162106217
 30
0.0
  0
POINT
  5
151
330
147
100
AcDbEntity
  8
DEFPOINTS
 62
     0
100
AcDbPoint
 10
218.1203758445149
 20
112.8423162106217
 30
0.0
  0
ENDBLK
  5
152
330
147
100
AcDbEntity
  8
0
100
AcDbBlockEnd
  0
BLOCK
  5
158
330
157
100
AcDbEntity
  8
0
100
AcDbBlockBegin
  2
*D6
 70
     1
 10
0.0
 20
0.0
 30
0.0
  3
*D6
  1
*D6
  0
LINE
  5
159
330
157
100
AcDbEntity
  8
ANNOTATION_TEXT
 62
     7
100
AcDbLine
 10
128.6544493435114
 20
122.2431162106217
 30
0.0
 11
227.654412277263
 21
122.2431162106217
 31
0.0
  0
LINE
  5
15A
330
157
100
AcDbEntity
  8
ANNOTATION_TEXT
 62
     7
100
AcDbLine
 10
159.0802493435114
 20
100.2028662106217
 30
0.0
 11
227.654412277263
 21
100.2028662106217
 31
0.0
  0
LINE
  5
15B
330
157
100
AcDbEntity
  8
ANNOTATION_TEXT
 62
     7
100
AcDbLine
 10
226.404412277263
 20
119.7431162106217
 30
0.0
 11
226.404412277263
 21
102.7028662106217
 31
0.0
  0
SOLID
  5
15C
330
157
100
AcDbEntity
  8
ANNOTATION_TEXT
 62
     7
100
AcDbTrace
 10
226.8210789439296
 20
119.7431162106217
 30
0.0
 11
225.9877456105963
 21
119.7431162106217
 31
0.0
 12
226.404412277263
 22
122.2431162106217
 32
0.0
 13
226.404412277263
 23
122.2431162106217
 33
0.0
  0
SOLID
  5
15D
330
157
100
AcDbEntity
  8
ANNOTATION_TEXT
 62
     7
100
AcDbTrace
 10
225.9877456105963
 20
102.7028662106217
 30
0.0
 11
226.8210789439296
 21
102.7028662106217
 31
0.0
 12
226.404412277263
 22
100.2028662106217
 32
0.0
 13
226.404412277263
 23
100.2028662106217
 33
0.0
  0
MTEXT
  5
15E
330
157
100
AcDbEntity
  8
ANNOTATION_TEXT
 62
     7
100
AcDbMText
 10
223.6944327132303
 20
111.2229912106217
 30
0.0
 40
3.5
 41
0.0
 71
     5
 72
     1
  1
22,04
  7
ONSHAPE-STANDARD-DIMENSION
 11
0.0
 21
1.0
 31
0.0
  0
POINT
  5
15F
330
157
100
AcDbEntity
  8
DEFPOINTS
 62
     0
100
AcDbPoint
 10
128.0294493435114
 20
122.2431162106217
 30
0.0
  0
POINT
  5
160
330
157
100
AcDbEntity
  8
DEFPOINTS
 62
     0
100
AcDbPoint
 10
158.4552493435114
 20
100.2028662106217
 30
0.0
  0
POINT
  5
161
330
157
100
AcDbEntity
  8
DEFPOINTS
 62
     0
100
AcDbPoint
 10
226.404412277263
 20
100.2028662106217
 30
0.0
  0
ENDBLK
  5
162
330
157
100
AcDbEntity
  8
0
100
AcDbBlockEnd
  0
BLOCK
  5
168
330
167
100
AcDbEntity
  8
0
100
AcDbBlockBegin
  2
*D7
 70
     1
 10
0.0
 20
0.0
 30
0.0
  3
*D7
  1
*D7
  0
LINE
  5
169
330
167
100
AcDbEntity
  8
ANNOTATION_TEXT
 62
     7
100
AcDbLine
 10
159.0802493435114
 20
100.2028662106217
 30
0.0
 11
236.0294820774038
 21
100.2028662106217
 31
0.0
  0
LINE
  5
16A
330
167
100
AcDbEntity
  8
ANNOTATION_TEXT
 62
     7
100
AcDbLine
 10
154.5624593435114
 20
123.9728662106217
 30
0.0
 11
236.0294820774038
 21
123.9728662106217
 31
0.0
  0
LINE
  5
16B
330
167
100
AcDbEntity
  8
ANNOTATION_TEXT
 62
     7
100
AcDbLine
 10
234.7794820774038
 20
102.7028662106217
 30
0.0
 11
234.7794820774038
 21
121.4728662106217
 31
0.0
  0
SOLID
  5
16C
330
167
100
AcDbEntity
  8
ANNOTATION_TEXT
 62
     7
100
AcDbTrace
 10
234.3628154107372
 20
102.7028662106217
 30
0.0
 11
235.1961487440705
 21
102.7028662106217
 31
0.0
 12
234.7794820774038
 22
100.2028662106217
 32
0.0
 13
234.7794820774038
 23
100.2028662106217
 33
0.0
  0
SOLID
  5
16D
330
167
100
AcDbEntity
  8
ANNOTATION_TEXT
 62
     7
100
AcDbTrace
 10
235.1961487440705
 20
121.4728662106217
 30
0.0
 11
234.3628154107372
 21
121.4728662106217
 31
0.0
 12
234.7794820774038
 22
123.9728662106217
 32
0.0
 13
234.7794820774038
 23
123.9728662106217
 33
0.0
  0
MTEXT
  5
16E
330
167
100
AcDbEntity
  8
ANNOTATION_TEXT
 62
     7
100
AcDbMText
 10
232.0718867095564
 20
112.0878662106217
 30
0.0
 40
3.5
 41
0.0
 71
     5
 72
     1
  1
23,77
  7
ONSHAPE-STANDARD-DIMENSION
 11
0.0
 21
1.0
 31
0.0
  0
POINT
  5
16F
330
167
100
AcDbEntity
  8
DEFPOINTS
 62
     0
100
AcDbPoint
 10
158.4552493435114
 20
100.2028662106217
 30
0.0
  0
POINT
  5
170
330
167
100
AcDbEntity
  8
DEFPOINTS
 62
     0
100
AcDbPoint
 10
153.9374593435114
 20
123.9728662106217
 30
0.0
  0
POINT
  5
171
330
167
100
AcDbEntity
  8
DEFPOINTS
 62
     0
100
AcDbPoint
 10
234.7794820774038
 20
123.9728662106217
 30
0.0
  0
ENDBLK
  5
172
330
167
100
AcDbEntity
  8
0
100
AcDbBlockEnd
  0
BLOCK
  5
178
330
177
100
AcDbEntity
  8
0
100
AcDbBlockBegin
  2
*D8
 70
     1
 10
0.0
 20
0.0
 30
0.0
  3
*D8
  1
*D8
  0
LINE
  5
179
330
177
100
AcDbEntity
  8
ANNOTATION_TEXT
 62
     7
100
AcDbLine
 10
195.8459993435114
 20
131.5731162106218
 30
0.0
 11
244.6776519797232
 21
131.5731162106218
 31
0.0
  0
LINE
  5
17A
330
177
100
AcDbEntity
  8
ANNOTATION_TEXT
 62
     7
100
AcDbLine
 10
199.9802493435114
 20
100.2028662106217
 30
0.0
 11
244.6776519797232
 21
100.2028662106217
 31
0.0
  0
LINE
  5
17B
330
177
100
AcDbEntity
  8
ANNOTATION_TEXT
 62
     7
100
AcDbLine
 10
243.4276519797232
 20
129.0731162106218
 30
0.0
 11
243.4276519797232
 21
102.7028662106217
 31
0.0
  0
SOLID
  5
17C
330
177
100
AcDbEntity
  8
ANNOTATION_TEXT
 62
     7
100
AcDbTrace
 10
243.8443186463899
 20
129.0731162106218
 30
0.0
 11
243.0109853130566
 21
129.0731162106218
 31
0.0
 12
243.4276519797232
 22
131.5731162106218
 32
0.0
 13
243.4276519797232
 23
131.5731162106218
 33
0.0
  0
SOLID
  5
17D
330
177
100
AcDbEntity
  8
ANNOTATION_TEXT
 62
     7
100
AcDbTrace
 10
243.0109853130566
 20
102.7028662106217
 30
0.0
 11
243.8443186463899
 21
102.7028662106217
 31
0.0
 12
243.4276519797232
 22
100.2028662106217
 32
0.0
 13
243.4276519797232
 23
100.2028662106217
 33
0.0
  0
MTEXT
  5
17E
330
177
100
AcDbEntity
  8
ANNOTATION_TEXT
 62
     7
100
AcDbMText
 10
240.7200566118758
 20
115.8879912106217
 30
0.0
 40
3.5
 41
0.0
 71
     5
 72
     1
  1
31,37
  7
ONSHAPE-STANDARD-DIMENSION
 11
0.0
 21
1.0
 31
0.0
  0
POINT
  5
17F
330
177
100
AcDbEntity
  8
DEFPOINTS
 62
     0
100
AcDbPoint
 10
195.2209993435114
 20
131.5731162106218
 30
0.0
  0
POINT
  5
180
330
177
100
AcDbEntity
  8
DEFPOINTS
 62
     0
100
AcDbPoint
 10
199.3552493435114
 20
100.2028662106217
 30
0.0
  0
POINT
  5
181
330
177
100
AcDbEntity
  8
DEFPOINTS
 62
     0
100
AcDbPoint
 10
243.4276519797232
 20
100.2028662106217
 30
0.0
  0
ENDBLK
  5
182
330
177
100
AcDbEntity
  8
0
100
AcDbBlockEnd
  0
BLOCK
  5
188
330
187
100
AcDbEntity
  8
0
100
AcDbBlockBegin
  2
*D9
 70
     1
 10
0.0
 20
0.0
 30
0.0
  3
*D9
  1
*D9
  0
LINE
  5
189
330
187
100
AcDbEntity
  8
ANNOTATION_TEXT
 62
     7
100
AcDbLine
 10
199.9802493435114
 20
135.5731162106217
 30
0.0
 11
252.9616884124713
 21
135.5731162106217
 31
0.0
  0
LINE
  5
18A
330
187
100
AcDbEntity
  8
ANNOTATION_TEXT
 62
     7
100
AcDbLine
 10
199.9802493435114
 20
100.2028662106217
 30
0.0
 11
252.9616884124713
 21
100.2028662106217
 31
0.0
  0
LINE
  5
18B
330
187
100
AcDbEntity
  8
ANNOTATION_TEXT
 62
     7
100
AcDbLine
 10
251.7116884124713
 20
133.0731162106217
 30
0.0
 11
251.7116884124713
 21
102.7028662106217
 31
0.0
  0
SOLID
  5
18C
330
187
100
AcDbEntity
  8
ANNOTATION_TEXT
 62
     7
100
AcDbTrace
 10
252.1283550791379
 20
133.0731162106217
 30
0.0
 11
251.2950217458046
 21
133.0731162106217
 31
0.0
 12
251.7116884124713
 22
135.5731162106217
 32
0.0
 13
251.7116884124713
 23
135.5731162106217
 33
0.0
  0
SOLID
  5
18D
330
187
100
AcDbEntity
  8
ANNOTATION_TEXT
 62
     7
100
AcDbTrace
 10
251.2950217458046
 20
102.7028662106217
 30
0.0
 11
252.1283550791379
 21
102.7028662106217
 31
0.0
 12
251.7116884124713
 22
100.2028662106217
 32
0.0
 13
251.7116884124713
 23
100.2028662106217
 33
0.0
  0
MTEXT
  5
18E
330
187
100
AcDbEntity
  8
ANNOTATION_TEXT
 62
     7
100
AcDbMText
 10
249.0040930446239
 20
122.6882226331281
 30
0.0
 40
3.5
 41
0.0
 71
     5
 72
     1
  1
35,37
  7
ONSHAPE-STANDARD-DIMENSION
 11
0.0
 21
1.0
 31
0.0
  0
POINT
  5
18F
330
187
100
AcDbEntity
  8
DEFPOINTS
 62
     0
100
AcDbPoint
 10
199.3552493435114
 20
135.5731162106217
 30
0.0
  0
POINT
  5
190
330
187
100
AcDbEntity
  8
DEFPOINTS
 62
     0
100
AcDbPoint
 10
199.3552493435114
 20
100.2028662106217
 30
0.0
  0
POINT
  5
191
330
187
100
AcDbEntity
  8
DEFPOINTS
 62
     0
100
AcDbPoint
 10
251.7116884124713
 20
100.2028662106217
 30
0.0
  0
ENDBLK
  5
192
330
187
100
AcDbEntity
  8
0
100
AcDbBlockEnd
  0
BLOCK
  5
198
330
197
100
AcDbEntity
  8
0
100
AcDbBlockBegin
  2
*D10
 70
     1
 10
0.0
 20
0.0
 30
0.0
  3
*D10
  1
*D10
  0
LINE
  5
199
330
197
100
AcDbEntity
  8
ANNOTATION_TEXT
 62
     7
100
AcDbLine
 10
197.3039908769976
 20
133.1780316336056
 30
0.0
 11
225.6890959485165
 21
148.9967136393826
 31
0.0
  0
LINE
  5
19A
330
197
100
AcDbEntity
  8
ANNOTATION_TEXT
 62
     7
100
AcDbLine
 10
191.5442578100252
 20
129.968200787638
 30
0.0
 11
189.3604727609362
 21
128.7512033104938
 31
0.0
  0
MTEXT
  5
19B
330
197
100
AcDbEntity
  8
ANNOTATION_TEXT
 62
     7
100
AcDbMText
 10
215.6058769178763
 20
146.9206466730935
 30
0.0
 40
3.5
 41
0.0
 71
     5
 72
     1
  1
2xÿ1,59
  7
ONSHAPE-STANDARD-DIMENSION
 11
0.8735140196356158
 21
0.4867989908576525
 31
0.0
  0
LINE
  5
19C
330
197
100
AcDbEntity
  8
ANNOTATION_TEXT
 62
     7
100
AcDbLine
 10
193.7280428591143
 20
131.1851982647821
 30
0.0
 11
195.1202058279085
 21
131.9610341564615
 31
0.0
  0
SOLID
  5
19D
330
197
100
AcDbEntity
  8
ANNOTATION_TEXT
 62
     7
100
AcDbTrace
 10
191.7470907228826
 20
129.6042366127898
 30
0.0
 11
191.3414248971679
 21
130.3321649624862
 31
0.0
 12
193.7280428591143
 22
131.1851982647821
 32
0.0
 13
193.7280428591143
 23
131.1851982647821
 33
0.0
  0
SOLID
  5
19E
330
197
100
AcDbEntity
  8
ANNOTATION_TEXT
 62
     7
100
AcDbTrace
 10
197.1011579641402
 20
133.5419958084538
 30
0.0
 11
197.5068237898549
 21
132.8140674587574
 31
0.0
 12
195.1202058279085
 22
131.9610341564615
 32
0.0
 13
195.1202058279085
 23
131.9610341564615
 33
0.0
  0
ARC
  5
19F
330
197
100
AcDbEntity
  8
ANNOTATION_TEXT
 62
     7
100
AcDbCircle
 10
194.4241243435114
 20
131.5731162106218
 30
0.0
 40
0.7968749999999943
100
AcDbArc
 50
0.0
 51
44.17355289276134
  0
POINT
  5
1A0
330
197
100
AcDbEntity
  8
DEFPOINTS
 62
     0
100
AcDbPoint
 10
195.1202058279085
 20
131.9610341564615
 30
0.0
  0
POINT
  5
1A1
330
197
100
AcDbEntity
  8
DEFPOINTS
 62
     0
100
AcDbPoint
 10
193.7280428591143
 20
131.1851982647821
 30
0.0
  0
ENDBLK
  5
1A2
330
197
100
AcDbEntity
  8
0
100
AcDbBlockEnd
  0
BLOCK
  5
1A8
330
1A7
100
AcDbEntity
  8
0
100
AcDbBlockBegin
  2
*D11
 70
     1
 10
0.0
 20
0.0
 30
0.0
  3
*D11
  1
*D11
  0
LINE
  5
1A9
330
1A7
100
AcDbEntity
  8
ANNOTATION_TEXT
 62
     7
100
AcDbLine
 10
117.8171423435114
 20
133.8731162106217
 30
0.0
 11
84.88992110003174
 21
133.8731162106217
 31
0.0
  0
LINE
  5
1AA
330
1A7
100
AcDbEntity
  8
ANNOTATION_TEXT
 62
     7
100
AcDbLine
 10
117.8302493435114
 20
101.9028662106217
 30
0.0
 11
84.88992110003174
 21
101.9028662106217
 31
0.0
  0
LINE
  5
1AB
330
1A7
100
AcDbEntity
  8
ANNOTATION_TEXT
 62
     7
100
AcDbLine
 10
86.13992110003174
 20
131.3731162106217
 30
0.0
 11
86.13992110003174
 21
104.4028662106217
 31
0.0
  0
SOLID
  5
1AC
330
1A7
100
AcDbEntity
  8
ANNOTATION_TEXT
 62
     7
100
AcDbTrace
 10
86.55658776669841
 20
131.3731162106217
 30
0.0
 11
85.72325443336507
 21
131.3731162106217
 31
0.0
 12
86.13992110003174
 22
133.8731162106217
 32
0.0
 13
86.13992110003174
 23
133.8731162106217
 33
0.0
  0
SOLID
  5
1AD
330
1A7
100
AcDbEntity
  8
ANNOTATION_TEXT
 62
     7
100
AcDbTrace
 10
85.72325443336507
 20
104.4028662106217
 30
0.0
 11
86.55658776669841
 21
104.4028662106217
 31
0.0
 12
86.13992110003174
 22
101.9028662106217
 32
0.0
 13
86.13992110003174
 23
101.9028662106217
 33
0.0
  0
MTEXT
  5
1AE
330
1A7
100
AcDbEntity
  8
ANNOTATION_TEXT
 62
     7
100
AcDbMText
 10
83.43232573218432
 20
119.3907513833623
 30
0.0
 40
3.5
 41
0.0
 71
     5
 72
     1
  1
31,97
  7
ONSHAPE-STANDARD-DIMENSION
 11
0.0
 21
1.0
 31
0.0
  0
POINT
  5
1AF
330
1A7
100
AcDbEntity
  8
DEFPOINTS
 62
     0
100
AcDbPoint
 10
118.4421423435114
 20
133.8731162106217
 30
0.0
  0
POINT
  5
1B0
330
1A7
100
AcDbEntity
  8
DEFPOINTS
 62
     0
100
AcDbPoint
 10
118.4552493435114
 20
101.9028662106217
 30
0.0
  0
POINT
  5
1B1
330
1A7
100
AcDbEntity
  8
DEFPOINTS
 62
     0
100
AcDbPoint
 10
86.13992110003174
 20
101.9028662106217
 30
0.0
  0
ENDBLK
  5
1B2
330
1A7
100
AcDbEntity
  8
0
100
AcDbBlockEnd
  0
BLOCK
  5
1B8
330
1B7
100
AcDbEntity
  8
0
100
AcDbBlockBegin
  2
*D12
 70
     1
 10
0.0
 20
0.0
 30
0.0
  3
*D12
  1
*D12
  0
LINE
  5
1B9
330
1B7
100
AcDbEntity
  8
ANNOTATION_TEXT
 62
     7
100
AcDbLine
 10
122.6582493435114
 20
145.2749963847981
 30
0.0
 11
110.6692221459476
 21
145.2749963847981
 31
0.0
  0
LINE
  5
1BA
330
1B7
100
AcDbEntity
  8
ANNOTATION_TEXT
 62
     7
100
AcDbLine
 10
122.6582493435114
 20
135.6740562977099
 30
0.0
 11
110.6692221459476
 21
135.6740562977099
 31
0.0
  0
LINE
  5
1BB
330
1B7
100
AcDbEntity
  8
ANNOTATION_TEXT
 62
     7
100
AcDbLine
 10
111.9192221459476
 20
142.7749963847981
 30
0.0
 11
111.9192221459476
 21
138.1740562977099
 31
0.0
  0
SOLID
  5
1BC
330
1B7
100
AcDbEntity
  8
ANNOTATION_TEXT
 62
     7
100
AcDbTrace
 10
112.3358888126143
 20
142.7749963847981
 30
0.0
 11
111.5025554792809
 21
142.7749963847981
 31
0.0
 12
111.9192221459476
 22
145.2749963847981
 32
0.0
 13
111.9192221459476
 23
145.2749963847981
 33
0.0
  0
SOLID
  5
1BD
330
1B7
100
AcDbEntity
  8
ANNOTATION_TEXT
 62
     7
100
AcDbTrace
 10
111.5025554792809
 20
138.1740562977099
 30
0.0
 11
112.3358888126143
 21
138.1740562977099
 31
0.0
 12
111.9192221459476
 22
135.6740562977099
 32
0.0
 13
111.9192221459476
 23
135.6740562977099
 33
0.0
  0
MTEXT
  5
1BE
330
1B7
100
AcDbEntity
  8
ANNOTATION_TEXT
 62
     7
100
AcDbMText
 10
109.2116267781002
 20
140.474526341254
 30
0.0
 40
3.5
 41
0.0
 71
     5
 72
     1
  1
9,6
  7
ONSHAPE-STANDARD-DIMENSION
 11
0.0
 21
1.0
 31
0.0
  0
POINT
  5
1BF
330
1B7
100
AcDbEntity
  8
DEFPOINTS
 62
     0
100
AcDbPoint
 10
123.2832493435114
 20
145.2749963847981
 30
0.0
  0
POINT
  5
1C0
330
1B7
100
AcDbEntity
  8
DEFPOINTS
 62
     0
100
AcDbPoint
 10
123.2832493435114
 20
135.6740562977099
 30
0.0
  0
POINT
  5
1C1
330
1B7
100
AcDbEntity
  8
DEFPOINTS
 62
     0
100
AcDbPoint
 10
111.9192221459476
 20
135.6740562977099
 30
0.0
  0
ENDBLK
  5
1C2
330
1B7
100
AcDbEntity
  8
0
100
AcDbBlockEnd
  0
BLOCK
  5
1C9
330
1C8
100
AcDbEntity
  8
0
100
AcDbBlockBegin
  2
*D13
 70
     1
 10
0.0
 20
0.0
 30
0.0
  3
*D13
  1
*D13
  0
LINE
  5
1CA
330
1C8
100
AcDbEntity
  8
ANNOTATION_TEXT
 62
     7
100
AcDbLine
 10
121.2526432005938
 20
147.2760496376314
 30
0.0
 11
105.1439221228527
 21
155.2734593493792
 31
0.0
  0
MTEXT
  5
1CB
330
1C8
100
AcDbEntity
  8
ANNOTATION_TEXT
 62
     7
100
AcDbMText
 10
111.5619163666221
 20
154.7853211540791
 30
0.0
 40
3.5
 41
0.0
 71
     5
 72
     1
  1
6xR2
  7
ONSHAPE-STANDARD-DIMENSION
 11
0.8956902539816881
 21
-0.4446785006296338
 31
0.0
  0
SOLID
  5
1CC
330
1C8
100
AcDbEntity
  8
ANNOTATION_TEXT
 62
     7
100
AcDbTrace
 10
121.0673604919982
 20
146.9028453651391
 30
0.0
 11
121.4379259091895
 21
147.6492539101238
 31
0.0
 12
123.4918688355481
 22
146.1643533860574
 32
0.0
 13
123.4918688355481
 23
146.1643533860574
 33
0.0
  0
POINT
  5
1CD
330
1C8
100
AcDbEntity
  8
DEFPOINTS
 62
     0
100
AcDbPoint
 10
123.4918688355481
 20
146.1643533860574
 30
0.0
  0
POINT
  5
1CE
330
1C8
100
AcDbEntity
  8
DEFPOINTS
 62
     0
100
AcDbPoint
 10
125.2832493435114
 20
145.2749963847981
 30
0.0
  0
ENDBLK
  5
1CF
330
1C8
100
AcDbEntity
  8
0
100
AcDbBlockEnd
  0
BLOCK
  5
1D5
330
1D4
100
AcDbEntity
  8
0
100
AcDbBlockBegin
  2
*D14
 70
     1
 10
0.0
 20
0.0
 30
0.0
  3
*D14
  1
*D14
  0
LINE
  5
1D6
330
1D4
100
AcDbEntity
  8
ANNOTATION_TEXT
 62
     7
100
AcDbLine
 10
125.2832493435114
 20
147.8999963847981
 30
0.0
 11
125.2832493435114
 21
159.688457583847
 31
0.0
  0
LINE
  5
1D7
330
1D4
100
AcDbEntity
  8
ANNOTATION_TEXT
 62
     7
100
AcDbLine
 10
191.6272493435114
 20
147.8999963847981
 30
0.0
 11
191.6272493435114
 21
159.688457583847
 31
0.0
  0
LINE
  5
1D8
330
1D4
100
AcDbEntity
  8
ANNOTATION_TEXT
 62
     7
100
AcDbLine
 10
127.7832493435114
 20
158.438457583847
 30
0.0
 11
189.1272493435114
 21
158.438457583847
 31
0.0
  0
SOLID
  5
1D9
330
1D4
100
AcDbEntity
  8
ANNOTATION_TEXT
 62
     7
100
AcDbTrace
 10
127.7832493435114
 20
158.8551242505136
 30
0.0
 11
127.7832493435114
 21
158.0217909171803
 31
0.0
 12
125.2832493435114
 22
158.438457583847
 32
0.0
 13
125.2832493435114
 23
158.438457583847
 33
0.0
  0
SOLID
  5
1DA
330
1D4
100
AcDbEntity
  8
ANNOTATION_TEXT
 62
     7
100
AcDbTrace
 10
189.1272493435114
 20
158.0217909171803
 30
0.0
 11
189.1272493435114
 21
158.8551242505136
 31
0.0
 12
191.6272493435114
 22
158.438457583847
 32
0.0
 13
191.6272493435114
 23
158.438457583847
 33
0.0
  0
MTEXT
  5
1DB
330
1D4
100
AcDbEntity
  8
ANNOTATION_TEXT
 62
     7
100
AcDbMText
 10
158.4552493435114
 20
161.1460529516944
 30
0.0
 40
3.5
 41
0.0
 71
     5
 72
     1
  1
66,34
  7
ONSHAPE-STANDARD-DIMENSION
  0
POINT
  5
1DC
330
1D4
100
AcDbEntity
  8
DEFPOINTS
 62
     0
100
AcDbPoint
 10
125.2832493435114
 20
147.2749963847981
 30
0.0
  0
POINT
  5
1DD
330
1D4
100
AcDbEntity
  8
DEFPOINTS
 62
     0
100
AcDbPoint
 10
191.6272493435114
 20
147.2749963847981
 30
0.0
  0
POINT
  5
1DE
330
1D4
100
AcDbEntity
  8
DEFPOINTS
 62
     0
100
AcDbPoint
 10
191.6272493435114
 20
158.438457583847
 30
0.0
  0
ENDBLK
  5
1DF
330
1D4
100
AcDbEntity
  8
0
100
AcDbBlockEnd
  0
BLOCK
  5
1E5
330
1E4
100
AcDbEntity
  8
0
100
AcDbBlockBegin
  2
*D15
 70
     1
 10
0.0
 20
0.0
 30
0.0
  3
*D15
  1
*D15
  0
LINE
  5
1E6
330
1E4
100
AcDbEntity
  8
ANNOTATION_TEXT
 62
     7
100
AcDbLine
 10
136.1574593435114
 20
122.0778662106217
 30
0.0
 11
136.1574593435114
 21
85.53800174251988
 31
0.0
  0
LINE
  5
1E7
330
1E4
100
AcDbEntity
  8
ANNOTATION_TEXT
 62
     7
100
AcDbLine
 10
153.9374593435114
 20
122.0778662106217
 30
0.0
 11
153.9374593435114
 21
85.53800174251988
 31
0.0
  0
LINE
  5
1E8
330
1E4
100
AcDbEntity
  8
ANNOTATION_TEXT
 62
     7
100
AcDbLine
 10
153.9374593435114
 20
86.78800174251988
 30
0.0
 11
171.5152830784681
 21
86.78800174251988
 31
0.0
  0
LINE
  5
1E9
330
1E4
100
AcDbEntity
  8
ANNOTATION_TEXT
 62
     7
100
AcDbLine
 10
138.6574593435114
 20
86.78800174251988
 30
0.0
 11
151.4374593435114
 21
86.78800174251988
 31
0.0
  0
SOLID
  5
1EA
330
1E4
100
AcDbEntity
  8
ANNOTATION_TEXT
 62
     7
100
AcDbTrace
 10
138.6574593435114
 20
87.20466840918655
 30
0.0
 11
138.6574593435114
 21
86.37133507585321
 31
0.0
 12
136.1574593435114
 22
86.78800174251988
 32
0.0
 13
136.1574593435114
 23
86.78800174251988
 33
0.0
  0
SOLID
  5
1EB
330
1E4
100
AcDbEntity
  8
ANNOTATION_TEXT
 62
     7
100
AcDbTrace
 10
151.4374593435114
 20
86.37133507585321
 30
0.0
 11
151.4374593435114
 21
87.20466840918655
 31
0.0
 12
153.9374593435114
 22
86.78800174251988
 32
0.0
 13
153.9374593435114
 23
86.78800174251988
 33
0.0
  0
MTEXT
  5
1EC
330
1E4
100
AcDbEntity
  8
ANNOTATION_TEXT
 62
     7
100
AcDbMText
 10
164.9905896179777
 20
89.4955971103673
 30
0.0
 40
3.5
 41
0.0
 71
     5
 72
     1
  1
17,78
  7
ONSHAPE-STANDARD-DIMENSION
  0
POINT
  5
1ED
330
1E4
100
AcDbEntity
  8
DEFPOINTS
 62
     0
100
AcDbPoint
 10
136.1574593435114
 20
122.7028662106217
 30
0.0
  0
POINT
  5
1EE
330
1E4
100
AcDbEntity
  8
DEFPOINTS
 62
     0
100
AcDbPoint
 10
153.9374593435114
 20
122.7028662106217
 30
0.0
  0
POINT
  5
1EF
330
1E4
100
AcDbEntity
  8
DEFPOINTS
 62
     0
100
AcDbPoint
 10
153.9374593435114
 20
86.78800174251988
 30
0.0
  0
ENDBLK
  5
1F0
330
1E4
100
AcDbEntity
  8
0
100
AcDbBlockEnd
  0
BLOCK
  5
1F6
330
1F5
100
AcDbEntity
  8
0
100
AcDbBlockBegin
  2
*D16
 70
     1
 10
0.0
 20
0.0
 30
0.0
  3
*D16
  1
*D16
  0
LINE
  5
1F7
330
1F5
100
AcDbEntity
  8
ANNOTATION_TEXT
 62
     7
100
AcDbLine
 10
128.0294493435114
 20
121.6181162106217
 30
0.0
 11
128.0294493435114
 21
87.22209365332029
 31
0.0
  0
LINE
  5
1F8
330
1F5
100
AcDbEntity
  8
ANNOTATION_TEXT
 62
     7
100
AcDbLine
 10
117.5552493435114
 20
99.57786621062174
 30
0.0
 11
117.5552493435114
 21
87.22209365332029
 31
0.0
  0
LINE
  5
1F9
330
1F5
100
AcDbEntity
  8
ANNOTATION_TEXT
 62
     7
100
AcDbLine
 10
117.5552493435114
 20
88.47209365332029
 30
0.0
 11
102.0010940301599
 21
88.47209365332029
 31
0.0
  0
LINE
  5
1FA
330
1F5
100
AcDbEntity
  8
ANNOTATION_TEXT
 62
     7
100
AcDbLine
 10
125.5294493435114
 20
88.47209365332029
 30
0.0
 11
120.0552493435114
 21
88.47209365332029
 31
0.0
  0
SOLID
  5
1FB
330
1F5
100
AcDbEntity
  8
ANNOTATION_TEXT
 62
     7
100
AcDbTrace
 10
125.5294493435114
 20
88.05542698665361
 30
0.0
 11
125.5294493435114
 21
88.88876031998696
 31
0.0
 12
128.0294493435114
 22
88.47209365332029
 32
0.0
 13
128.0294493435114
 23
88.47209365332029
 33
0.0
  0
SOLID
  5
1FC
330
1F5
100
AcDbEntity
  8
ANNOTATION_TEXT
 62
     7
100
AcDbTrace
 10
120.0552493435114
 20
88.88876031998696
 30
0.0
 11
120.0552493435114
 21
88.05542698665361
 31
0.0
 12
117.5552493435114
 22
88.47209365332029
 32
0.0
 13
117.5552493435114
 23
88.47209365332029
 33
0.0
  0
MTEXT
  5
1FD
330
1F5
100
AcDbEntity
  8
ANNOTATION_TEXT
 62
     7
100
AcDbMText
 10
108.5281716868357
 20
91.18207321735298
 30
0.0
 40
3.5
 41
0.0
 71
     5
 72
     1
  1
10,47
  7
ONSHAPE-STANDARD-DIMENSION
  0
POINT
  5
1FE
330
1F5
100
AcDbEntity
  8
DEFPOINTS
 62
     0
100
AcDbPoint
 10
128.0294493435114
 20
122.2431162106217
 30
0.0
  0
POINT
  5
1FF
330
1F5
100
AcDbEntity
  8
DEFPOINTS
 62
     0
100
AcDbPoint
 10
117.5552493435114
 20
100.2028662106217
 30
0.0
  0
POINT
  5
200
330
1F5
100
AcDbEntity
  8
DEFPOINTS
 62
     0
100
AcDbPoint
 10
117.5552493435114
 20
88.47209365332029
 30
0.0
  0
ENDBLK
  5
201
330
1F5
100
AcDbEntity
  8
0
100
AcDbBlockEnd
  0
BLOCK
  5
207
330
206
100
AcDbEntity
  8
0
100
AcDbBlockBegin
  2
*D17
 70
     1
 10
0.0
 20
0.0
 30
0.0
  3
*D17
  1
*D17
  0
LINE
  5
208
330
206
100
AcDbEntity
  8
ANNOTATION_TEXT
 62
     7
100
AcDbLine
 10
180.6431293915077
 20
109.8127144638959
 30
0.0
 11
225.4047355881115
 21
81.55277544693762
 31
0.0
  0
LINE
  5
209
330
206
100
AcDbEntity
  8
ANNOTATION_TEXT
 62
     7
100
AcDbLine
 10
171.0458092955152
 20
115.8719179573476
 30
0.0
 11
168.9318621378076
 21
117.2065442774912
 31
0.0
  0
MTEXT
  5
20A
330
206
100
AcDbEntity
  8
ANNOTATION_TEXT
 62
     7
100
AcDbMText
 10
218.7648149895321
 20
89.40509136405787
 30
0.0
 40
3.5
 41
0.0
 71
     5
 72
     1
  1
2xÿ6,35
  7
ONSHAPE-STANDARD-DIMENSION
 11
0.8455788630830395
 21
-0.5338505280574277
 31
0.0
  0
LINE
  5
20B
330
206
100
AcDbEntity
  8
ANNOTATION_TEXT
 62
     7
100
AcDbLine
 10
173.1597564532228
 20
114.5372916372041
 30
0.0
 11
178.5291822338001
 21
111.1473407840394
 31
0.0
  0
SOLID
  5
20C
330
206
100
AcDbEntity
  8
ANNOTATION_TEXT
 62
     7
100
AcDbTrace
 10
170.8233715754913
 20
115.519593431063
 30
0.0
 11
171.2682470155391
 21
116.2242424836323
 31
0.0
 12
173.1597564532228
 22
114.5372916372041
 32
0.0
 13
173.1597564532228
 23
114.5372916372041
 33
0.0
  0
SOLID
  5
20D
330
206
100
AcDbEntity
  8
ANNOTATION_TEXT
 62
     7
100
AcDbTrace
 10
180.8655671115316
 20
110.1650389901805
 30
0.0
 11
180.4206916714838
 21
109.4603899376113
 31
0.0
 12
178.5291822338001
 22
111.1473407840394
 32
0.0
 13
178.5291822338001
 23
111.1473407840394
 33
0.0
  0
POINT
  5
20E
330
206
100
AcDbEntity
  8
DEFPOINTS
 62
     0
100
AcDbPoint
 10
178.5291822338001
 20
111.1473407840394
 30
0.0
  0
POINT
  5
20F
330
206
100
AcDbEntity
  8
DEFPOINTS
 62
     0
100
AcDbPoint
 10
173.1597564532228
 20
114.5372916372041
 30
0.0
  0
ENDBLK
  5
210
330
206
100
AcDbEntity
  8
0
100
AcDbBlockEnd
  0
BLOCK
  5
217
330
216
100
AcDbEntity
  8
0
100
AcDbBlockBegin
  2
*D18
 70
     1
 10
0.0
 20
0.0
 30
0.0
  3
*D18
  1
*D18
  0
LINE
  5
218
330
216
100
AcDbEntity
  8
ANNOTATION_TEXT
 62
     7
100
AcDbLine
 10
117.5552493435114
 20
99.57786621062175
 30
0.0
 11
117.5552493435114
 21
80.94502380397326
 31
0.0
  0
LINE
  5
219
330
216
100
AcDbEntity
  8
ANNOTATION_TEXT
 62
     7
100
AcDbLine
 10
136.1574593435114
 20
122.0778662106217
 30
0.0
 11
136.1574593435114
 21
80.94502380397326
 31
0.0
  0
LINE
  5
21A
330
216
100
AcDbEntity
  8
ANNOTATION_TEXT
 62
     7
100
AcDbLine
 10
120.0552493435114
 20
82.19502380397326
 30
0.0
 11
133.6574593435114
 21
82.19502380397326
 31
0.0
  0
SOLID
  5
21B
330
216
100
AcDbEntity
  8
ANNOTATION_TEXT
 62
     7
100
AcDbTrace
 10
120.0552493435114
 20
82.61169047063993
 30
0.0
 11
120.0552493435114
 21
81.77835713730659
 31
0.0
 12
117.5552493435114
 22
82.19502380397326
 32
0.0
 13
117.5552493435114
 23
82.19502380397326
 33
0.0
  0
SOLID
  5
21C
330
216
100
AcDbEntity
  8
ANNOTATION_TEXT
 62
     7
100
AcDbTrace
 10
133.6574593435114
 20
81.77835713730659
 30
0.0
 11
133.6574593435114
 21
82.61169047063993
 31
0.0
 12
136.1574593435114
 22
82.19502380397326
 32
0.0
 13
136.1574593435114
 23
82.19502380397326
 33
0.0
  0
MTEXT
  5
21D
330
216
100
AcDbEntity
  8
ANNOTATION_TEXT
 62
     7
100
AcDbMText
 10
126.8563543435114
 20
84.90261917182067
 30
0.0
 40
3.5
 41
0.0
 71
     5
 72
     1
  1
18,6
  7
ONSHAPE-STANDARD-DIMENSION
  0
POINT
  5
21E
330
216
100
AcDbEntity
  8
DEFPOINTS
 62
     0
100
AcDbPoint
 10
117.5552493435114
 20
100.2028662106217
 30
0.0
  0
POINT
  5
21F
330
216
100
AcDbEntity
  8
DEFPOINTS
 62
     0
100
AcDbPoint
 10
136.1574593435114
 20
122.7028662106217
 30
0.0
  0
POINT
  5
220
330
216
100
AcDbEntity
  8
DEFPOINTS
 62
     0
100
AcDbPoint
 10
136.1574593435114
 20
82.19502380397326
 30
0.0
  0
ENDBLK
  5
221
330
216
100
AcDbEntity
  8
0
100
AcDbBlockEnd
  0
BLOCK
  5
228
330
227
100
AcDbEntity
  8
0
100
AcDbBlockBegin
  2
*D19
 70
     1
 10
0.0
 20
0.0
 30
0.0
  3
*D19
  1
*D19
  0
LINE
  5
229
330
227
100
AcDbEntity
  8
ANNOTATION_TEXT
 62
     7
100
AcDbLine
 10
136.1574593435114
 20
122.0778662106217
 30
0.0
 11
136.1574593435114
 21
93.21733051130134
 31
0.0
  0
LINE
  5
22A
330
227
100
AcDbEntity
  8
ANNOTATION_TEXT
 62
     7
100
AcDbLine
 10
141.0660293435114
 20
112.2173162106217
 30
0.0
 11
141.0660293435114
 21
93.21733051130134
 31
0.0
  0
LINE
  5
22B
330
227
100
AcDbEntity
  8
ANNOTATION_TEXT
 62
     7
100
AcDbLine
 10
141.0660293435114
 20
94.46733051130134
 30
0.0
 11
155.8395307059093
 21
94.46733051130134
 31
0.0
  0
LINE
  5
22C
330
227
100
AcDbEntity
  8
ANNOTATION_TEXT
 62
     7
100
AcDbLine
 10
136.1574593435114
 20
94.46733051130134
 30
0.0
 11
141.0660293435114
 21
94.46733051130134
 31
0.0
  0
LINE
  5
22D
330
227
100
AcDbEntity
  8
ANNOTATION_TEXT
 62
     7
100
AcDbLine
 10
133.6574593435114
 20
94.46733051130134
 30
0.0
 11
131.1574593435114
 21
94.46733051130134
 31
0.0
  0
LINE
  5
22E
330
227
100
AcDbEntity
  8
ANNOTATION_TEXT
 62
     7
100
AcDbLine
 10
143.5660293435114
 20
94.46733051130134
 30
0.0
 11
146.0660293435114
 21
94.46733051130134
 31
0.0
  0
SOLID
  5
22F
330
227
100
AcDbEntity
  8
ANNOTATION_TEXT
 62
     7
100
AcDbTrace
 10
133.6574593435114
 20
94.05066384463467
 30
0.0
 11
133.6574593435114
 21
94.88399717796801
 31
0.0
 12
136.1574593435114
 22
94.46733051130134
 32
0.0
 13
136.1574593435114
 23
94.46733051130134
 33
0.0
  0
SOLID
  5
230
330
227
100
AcDbEntity
  8
ANNOTATION_TEXT
 62
     7
100
AcDbTrace
 10
143.5660293435114
 20
94.88399717796801
 30
0.0
 11
143.5660293435114
 21
94.05066384463467
 31
0.0
 12
141.0660293435114
 22
94.46733051130134
 32
0.0
 13
141.0660293435114
 23
94.46733051130134
 33
0.0
  0
MTEXT
  5
231
330
227
100
AcDbEntity
  8
ANNOTATION_TEXT
 62
     7
100
AcDbMText
 10
150.9527800247104
 20
97.17492587914876
 30
0.0
 40
3.5
 41
0.0
 71
     5
 72
     1
  1
4,91
  7
ONSHAPE-STANDARD-DIMENSION
  0
POINT
  5
232
330
227
100
AcDbEntity
  8
DEFPOINTS
 62
     0
100
AcDbPoint
 10
136.1574593435114
 20
122.7028662106217
 30
0.0
  0
POINT
  5
233
330
227
100
AcDbEntity
  8
DEFPOINTS
 62
     0
100
AcDbPoint
 10
141.0660293435114
 20
112.8423162106217
 30
0.0
  0
POINT
  5
234
330
227
100
AcDbEntity
  8
DEFPOINTS
 62
     0
100
AcDbPoint
 10
141.0660293435114
 20
94.46733051130134
 30
0.0
  0
ENDBLK
  5
235
330
227
100
AcDbEntity
  8
0
100
AcDbBlockEnd
  0
BLOCK
  5
23B
330
23A
100
AcDbEntity
  8
0
100
AcDbBlockBegin
  2
*D20
 70
     1
 10
0.0
 20
0.0
 30
0.0
  3
*D20
  1
*D20
  0
LINE
  5
23C
330
23A
100
AcDbEntity
  8
ANNOTATION_TEXT
 62
     7
100
AcDbLine
 10
147.1453564170235
 20
143.5138810919359
 30
0.0
 11
127.4068973175772
 21
153.822635126944
 31
0.0
  0
LINE
  5
23D
330
23A
100
AcDbEntity
  8
ANNOTATION_TEXT
 62
     7
100
AcDbLine
 10
155.6990462699994
 20
139.046567592852
 30
0.0
 11
157.9150280971952
 21
137.8892324894624
 31
0.0
  0
MTEXT
  5
23E
330
23A
100
AcDbEntity
  8
ANNOTATION_TEXT
 62
     7
100
AcDbMText
 10
137.5902528155143
 20
151.9959113612126
 30
0.0
 40
3.5
 41
0.0
 71
     5
 72
     1
  1
4xÿ4,65
  7
ONSHAPE-STANDARD-DIMENSION
 11
0.8863927308783301
 21
-0.4629340413558464
 31
0.0
  0
LINE
  5
23F
330
23A
100
AcDbEntity
  8
ANNOTATION_TEXT
 62
     7
100
AcDbLine
 10
153.4830644428035
 20
140.2039026962416
 30
0.0
 11
149.3613382442193
 21
142.3565459885463
 31
0.0
  0
SOLID
  5
240
330
23A
100
AcDbEntity
  8
ANNOTATION_TEXT
 62
     7
100
AcDbTrace
 10
155.8919354538976
 20
139.4158978973847
 30
0.0
 11
155.5061570861011
 21
138.6772372883194
 31
0.0
 12
153.4830644428035
 22
140.2039026962416
 32
0.0
 13
153.4830644428035
 23
140.2039026962416
 33
0.0
  0
SOLID
  5
241
330
23A
100
AcDbEntity
  8
ANNOTATION_TEXT
 62
     7
100
AcDbTrace
 10
146.9524672331252
 20
143.1445507874033
 30
0.0
 11
147.3382456009218
 21
143.8832113964686
 31
0.0
 12
149.3613382442193
 22
142.3565459885463
 32
0.0
 13
149.3613382442193
 23
142.3565459885463
 33
0.0
  0
POINT
  5
242
330
23A
100
AcDbEntity
  8
DEFPOINTS
 62
     0
100
AcDbPoint
 10
149.3613382442193
 20
142.3565459885463
 30
0.0
  0
POINT
  5
243
330
23A
100
AcDbEntity
  8
DEFPOINTS
 62
     0
100
AcDbPoint
 10
153.4830644428035
 20
140.2039026962416
 30
0.0
  0
ENDBLK
  5
244
330
23A
100
AcDbEntity
  8
0
100
AcDbBlockEnd
  0
BLOCK
  5
24A
330
249
100
AcDbEntity
  8
0
100
AcDbBlockBegin
  2
*D21
 70
     1
 10
0.0
 20
0.0
 30
0.0
  3
*D21
  1
*D21
  0
LINE
  5
24B
330
249
100
AcDbEntity
  8
ANNOTATION_TEXT
 62
     7
100
AcDbLine
 10
151.4222013435114
 20
141.905224342394
 30
0.0
 11
151.4222013435114
 21
151.7631488127508
 31
0.0
  0
LINE
  5
24C
330
249
100
AcDbEntity
  8
ANNOTATION_TEXT
 62
     7
100
AcDbLine
 10
165.4916773435114
 20
141.9039841675141
 30
0.0
 11
165.4916773435114
 21
151.7631488127508
 31
0.0
  0
LINE
  5
24D
330
249
100
AcDbEntity
  8
ANNOTATION_TEXT
 62
     7
100
AcDbLine
 10
153.9222013435114
 20
150.5131488127508
 30
0.0
 11
162.9916773435114
 21
150.5131488127508
 31
0.0
  0
SOLID
  5
24E
330
249
100
AcDbEntity
  8
ANNOTATION_TEXT
 62
     7
100
AcDbTrace
 10
153.9222013435114
 20
150.9298154794174
 30
0.0
 11
153.9222013435114
 21
150.0964821460841
 31
0.0
 12
151.4222013435114
 22
150.5131488127508
 32
0.0
 13
151.4222013435114
 23
150.5131488127508
 33
0.0
  0
SOLID
  5
24F
330
249
100
AcDbEntity
  8
ANNOTATION_TEXT
 62
     7
100
AcDbTrace
 10
162.9916773435114
 20
150.0964821460841
 30
0.0
 11
162.9916773435114
 21
150.9298154794174
 31
0.0
 12
165.4916773435114
 22
150.5131488127508
 32
0.0
 13
165.4916773435114
 23
150.5131488127508
 33
0.0
  0
MTEXT
  5
250
330
249
100
AcDbEntity
  8
ANNOTATION_TEXT
 62
     7
100
AcDbMText
 10
158.4569393435114
 20
153.2231283767834
 30
0.0
 40
3.5
 41
0.0
 71
     5
 72
     1
  1
3x14,07
  7
ONSHAPE-STANDARD-DIMENSION
  0
POINT
  5
251
330
249
100
AcDbEntity
  8
DEFPOINTS
 62
     0
100
AcDbPoint
 10
151.4222013435114
 20
141.280224342394
 30
0.0
  0
POINT
  5
252
330
249
100
AcDbEntity
  8
DEFPOINTS
 62
     0
100
AcDbPoint
 10
165.4916773435114
 20
141.2789841675141
 30
0.0
  0
POINT
  5
253
330
249
100
AcDbEntity
  8
DEFPOINTS
 62
     0
100
AcDbPoint
 10
165.4916773435114
 20
150.5131488127508
 30
0.0
  0
ENDBLK
  5
254
330
249
100
AcDbEntity
  8
0
100
AcDbBlockEnd
  0
BLOCK
  5
25A
330
259
100
AcDbEntity
  8
0
100
AcDbBlockBegin
  2
*D22
 70
     1
 10
0.0
 20
0.0
 30
0.0
  3
*D22
  1
*D22
  0
LINE
  5
25B
330
259
100
AcDbEntity
  8
ANNOTATION_TEXT
 62
     7
100
AcDbLine
 10
123.6802492404126
 20
122.3265336141127
 30
0.0
 11
99.06546307422221
 21
122.7986437724856
 31
0.0
  0
LINE
  5
25C
330
259
100
AcDbEntity
  8
ANNOTATION_TEXT
 62
     7
100
AcDbLine
 10
132.3786494466103
 20
122.1596988071308
 30
0.0
 11
134.8781897357475
 21
122.1117577706417
 31
0.0
  0
MTEXT
  5
25D
330
259
100
AcDbEntity
  8
ANNOTATION_TEXT
 62
     7
100
AcDbMText
 10
104.8819301487087
 20
125.7826807540259
 30
0.0
 40
3.5
 41
0.0
 71
     5
 72
     1
  1
%%c3,7
  7
ONSHAPE-STANDARD-DIMENSION
 11
0.9998161156549021
 21
-0.01917641459562833
 31
0.0
  0
LINE
  5
25E
330
259
100
AcDbEntity
  8
ANNOTATION_TEXT
 62
     7
100
AcDbLine
 10
129.879109157473
 20
122.2076398436198
 30
0.0
 11
126.1797895295499
 21
122.2785925776236
 31
0.0
  0
SOLID
  5
25F
330
259
100
AcDbEntity
  8
ANNOTATION_TEXT
 62
     7
100
AcDbTrace
 10
132.3866396193584
 20
122.5762888553203
 30
0.0
 11
132.3706592738621
 21
121.7431087589412
 31
0.0
 12
129.879109157473
 22
122.2076398436198
 32
0.0
 13
129.879109157473
 23
122.2076398436198
 33
0.0
  0
SOLID
  5
260
330
259
100
AcDbEntity
  8
ANNOTATION_TEXT
 62
     7
100
AcDbTrace
 10
123.6722590676644
 20
121.9099435659232
 30
0.0
 11
123.6882394131608
 21
122.7431236623023
 31
0.0
 12
126.1797895295499
 22
122.2785925776236
 32
0.0
 13
126.1797895295499
 23
122.2785925776236
 33
0.0
  0
POINT
  5
261
330
259
100
AcDbEntity
  8
DEFPOINTS
 62
     0
100
AcDbPoint
 10
126.1797895295499
 20
122.2785925776236
 30
0.0
  0
POINT
  5
262
330
259
100
AcDbEntity
  8
DEFPOINTS
 62
     0
100
AcDbPoint
 10
129.879109157473
 20
122.2076398436198
 30
0.0
  0
ENDBLK
  5
263
330
259
100
AcDbEntity
  8
0
100
AcDbBlockEnd
  0
ENDSEC
  0
SECTION
  2
ENTITIES
  0
LINE
  5
72
330
1F
100
AcDbEntity
  8
BORDER_FRAME
100
AcDbLine
 10
20.0
 20
10.0
 30
0.0
 11
20.0
 21
200.0
 31
0.0
  0
LINE
  5
76
330
1F
100
AcDbEntity
  8
BORDER_FRAME
100
AcDbLine
 10
20.0
 20
200.0
 30
0.0
 11
297.0
 21
200.0
 31
0.0
  0
LINE
  5
77
330
1F
100
AcDbEntity
  8
BORDER_FRAME
100
AcDbLine
 10
297.0
 20
200.0
 30
0.0
 11
297.0
 21
10.0
 31
0.0
  0
LINE
  5
78
330
1F
100
AcDbEntity
  8
BORDER_FRAME
100
AcDbLine
 10
297.0
 20
10.0
 30
0.0
 11
20.0
 21
10.0
 31
0.0
  0
LINE
  5
79
330
1F
100
AcDbEntity
  8
TITLE_BLOCK
100
AcDbLine
 10
135.075
 20
10.0
 30
0.0
 11
135.075
 21
48.09999999999999
 31
0.0
  0
LINE
  5
7B
330
1F
100
AcDbEntity
  8
TITLE_BLOCK
100
AcDbLine
 10
135.075
 20
10.0
 30
0.0
 11
165.555
 21
10.0
 31
0.0
  0
LINE
  5
7C
330
1F
100
AcDbEntity
  8
TITLE_BLOCK
100
AcDbLine
 10
135.075
 20
17.62
 30
0.0
 11
165.555
 21
17.62
 31
0.0
  0
LINE
  5
7D
330
1F
100
AcDbEntity
  8
TITLE_BLOCK
100
AcDbLine
 10
135.075
 20
20.668
 30
0.0
 11
165.555
 21
20.668
 31
0.0
  0
LINE
  5
7E
330
1F
100
AcDbEntity
  8
TITLE_BLOCK
100
AcDbLine
 10
135.075
 20
25.8496
 30
0.0
 11
165.555
 21
25.8496
 31
0.0
  0
LINE
  5
7F
330
1F
100
AcDbEntity
  8
TITLE_BLOCK
100
AcDbLine
 10
135.075
 20
30.2692
 30
0.0
 11
165.555
 21
30.2692
 31
0.0
  0
LINE
  5
80
330
1F
100
AcDbEntity
  8
TITLE_BLOCK
100
AcDbLine
 10
135.075
 20
48.09999999999999
 30
0.0
 11
165.555
 21
48.09999999999999
 31
0.0
  0
MTEXT
  5
81
330
1F
100
AcDbEntity
  8
TITLE_BLOCK
100
AcDbMText
 10
135.74556
 20
47.00272
 30
0.0
 40
1.2192
 41
30.47999999999999
 71
     1
 72
     1
  1
UNLESS OTHERWISE SPECIFIED, DIMENSIONS ARE IN MILLIMETERS
  7
ONSHAPE-STANDARD
  0
MTEXT
  5
83
330
1F
100
AcDbEntity
  8
TITLE_BLOCK
100
AcDbMText
 10
150.315
 20
28.842736
 30
0.0
 40
1.58496
 41
30.47999999999999
 71
     2
 72
     1
  1
DO NOT SCALE DRAWING
  7
ONSHAPE-STANDARD
  0
MTEXT
  5
84
330
1F
100
AcDbEntity
  8
TITLE_BLOCK
100
AcDbMText
 10
150.315
 20
24.75232
 30
0.0
 40
1.2192
 41
30.47999999999999
 71
     2
 72
     1
  1
BREAK ALL SHARP EDGES AND REMOVE BURRS
  7
ONSHAPE-STANDARD
  0
CIRCLE
  5
85
330
1F
100
AcDbEntity
  8
TITLE_BLOCK
100
AcDbCircle
 10
153.744
 20
13.77952
 30
0.0
 40
1.3716
  0
CIRCLE
  5
86
330
1F
100
AcDbEntity
  8
TITLE_BLOCK
100
AcDbCircle
 10
153.744
 20
13.77952
 30
0.0
 40
2.743199999999999
  0
LINE
  5
87
330
1F
100
AcDbEntity
  8
TITLE_BLOCK
100
AcDbLine
 10
154.4298
 20
13.77952
 30
0.0
 11
153.0582
 21
13.77952
 31
0.0
  0
LINE
  5
88
330
1F
100
AcDbEntity
  8
TITLE_BLOCK
100
AcDbLine
 10
153.744
 20
14.46532
 30
0.0
 11
153.744
 21
13.09372
 31
0.0
  0
LINE
  5
89
330
1F
100
AcDbEntity
  8
TITLE_BLOCK
100
AcDbLine
 10
155.1156
 20
13.77952
 30
0.0
 11
157.173
 21
13.77952
 31
0.0
  0
LINE
  5
8A
330
1F
100
AcDbEntity
  8
TITLE_BLOCK
100
AcDbLine
 10
153.744
 20
15.15112
 30
0.0
 11
153.744
 21
17.20852
 31
0.0
  0
LINE
  5
8B
330
1F
100
AcDbEntity
  8
TITLE_BLOCK
100
AcDbLine
 10
152.3724
 20
13.77952
 30
0.0
 11
150.315
 21
13.77952
 31
0.0
  0
LINE
  5
8C
330
1F
100
AcDbEntity
  8
TITLE_BLOCK
100
AcDbLine
 10
153.744
 20
12.40792
 30
0.0
 11
153.744
 21
10.35052
 31
0.0
  0
LINE
  5
8D
330
1F
100
AcDbEntity
  8
TITLE_BLOCK
100
AcDbLine
 10
149.6292
 20
11.03632
 30
0.0
 11
149.6292
 21
16.52272
 31
0.0
  0
LINE
  5
8E
330
1F
100
AcDbEntity
  8
TITLE_BLOCK
100
AcDbLine
 10
149.6292
 20
16.52272
 30
0.0
 11
144.1428
 21
15.15112
 31
0.0
  0
LINE
  5
8F
330
1F
100
AcDbEntity
  8
TITLE_BLOCK
100
AcDbLine
 10
144.1428
 20
15.15112
 30
0.0
 11
144.1428
 21
12.40792
 31
0.0
  0
LINE
  5
90
330
1F
100
AcDbEntity
  8
TITLE_BLOCK
100
AcDbLine
 10
144.1428
 20
12.40792
 30
0.0
 11
149.6292
 21
11.03632
 31
0.0
  0
LINE
  5
91
330
1F
100
AcDbEntity
  8
TITLE_BLOCK
100
AcDbLine
 10
147.5718
 20
13.77952
 30
0.0
 11
149.9721
 21
13.77952
 31
0.0
  0
LINE
  5
92
330
1F
100
AcDbEntity
  8
TITLE_BLOCK
100
AcDbLine
 10
147.16032
 20
13.77952
 30
0.0
 11
146.61168
 21
13.77952
 31
0.0
  0
LINE
  5
93
330
1F
100
AcDbEntity
  8
TITLE_BLOCK
100
AcDbLine
 10
146.2002
 20
13.77952
 30
0.0
 11
143.7999
 21
13.77952
 31
0.0
  0
MTEXT
  5
94
330
1F
100
AcDbEntity
  8
TITLE_BLOCK
100
AcDbMText
 10
150.315
 20
19.57072
 30
0.0
 40
1.2192
 41
30.47999999999999
 71
     2
 72
     1
  1
FIRST ANGLE PROJECTION
  7
ONSHAPE-STANDARD
  0
LINE
  5
95
330
1F
100
AcDbEntity
  8
TITLE_BLOCK
100
AcDbLine
 10
165.555
 20
10.0
 30
0.0
 11
165.555
 21
48.09999999999999
 31
0.0
  0
LINE
  5
96
330
1F
100
AcDbEntity
  8
TITLE_BLOCK
100
AcDbLine
 10
178.89
 20
20.668
 30
0.0
 11
178.89
 21
48.09999999999999
 31
0.0
  0
LINE
  5
97
330
1F
100
AcDbEntity
  8
TITLE_BLOCK
100
AcDbLine
 10
194.13
 20
20.668
 30
0.0
 11
194.13
 21
48.09999999999999
 31
0.0
  0
LINE
  5
98
330
1F
100
AcDbEntity
  8
TITLE_BLOCK
100
AcDbLine
 10
192.225
 20
10.0
 30
0.0
 11
192.225
 21
20.668
 31
0.0
  0
MTEXT
  5
99
330
1F
100
AcDbEntity
  8
TITLE_BLOCK
100
AcDbMText
 10
201.75
 20
47.00272
 30
0.0
 40
1.2192
 41
15.24000000000001
 71
     2
 72
     1
  1
SIGNATURE
  7
ONSHAPE-STANDARD
  0
LINE
  5
9A
330
1F
100
AcDbEntity
  8
TITLE_BLOCK
100
AcDbLine
 10
209.37
 20
20.668
 30
0.0
 11
209.37
 21
48.09999999999999
 31
0.0
  0
LINE
  5
9B
330
1F
100
AcDbEntity
  8
TITLE_BLOCK
100
AcDbLine
 10
165.555
 20
48.09999999999999
 30
0.0
 11
218.895
 21
48.09999999999999
 31
0.0
  0
LINE
  5
9C
330
1F
100
AcDbEntity
  8
TITLE_BLOCK
100
AcDbLine
 10
165.555
 20
43.528
 30
0.0
 11
218.895
 21
43.528
 31
0.0
  0
LINE
  5
9D
330
1F
100
AcDbEntity
  8
TITLE_BLOCK
100
AcDbLine
 10
165.555
 20
38.956
 30
0.0
 11
218.895
 21
38.956
 31
0.0
  0
LINE
  5
9E
330
1F
100
AcDbEntity
  8
TITLE_BLOCK
100
AcDbLine
 10
165.555
 20
34.384
 30
0.0
 11
218.895
 21
34.384
 31
0.0
  0
LINE
  5
9F
330
1F
100
AcDbEntity
  8
TITLE_BLOCK
100
AcDbLine
 10
165.555
 20
29.812
 30
0.0
 11
218.895
 21
29.812
 31
0.0
  0
LINE
  5
A0
330
1F
100
AcDbEntity
  8
TITLE_BLOCK
100
AcDbLine
 10
165.555
 20
25.24
 30
0.0
 11
218.895
 21
25.24
 31
0.0
  0
LINE
  5
A1
330
1F
100
AcDbEntity
  8
TITLE_BLOCK
100
AcDbLine
 10
165.555
 20
20.668
 30
0.0
 11
218.895
 21
20.668
 31
0.0
  0
MTEXT
  5
A2
330
1F
100
AcDbEntity
  8
TITLE_BLOCK
100
AcDbMText
 10
179.56056
 20
47.00272
 30
0.0
 40
1.2192
 41
15.23999999999998
 71
     1
 72
     1
  1
NAME
  7
ONSHAPE-STANDARD
  0
MTEXT
  5
A3
330
1F
100
AcDbEntity
  8
TITLE_BLOCK
100
AcDbMText
 10
214.1325
 20
47.00272
 30
0.0
 40
1.2192
 41
9.525000000000006
 71
     2
 72
     1
  1
DATE
  7
ONSHAPE-STANDARD
  0
MTEXT
  5
A4
330
1F
100
AcDbEntity
  8
TITLE_BLOCK
100
AcDbMText
 10
166.22556
 20
42.43072
 30
0.0
 40
1.2192
 41
13.33500000000001
 71
     1
 72
     1
  1
DRAWN
  7
ONSHAPE-STANDARD
  0
MTEXT
  5
A5
102
{ACAD_XDICTIONARY
360
A6
102
}
330
1F
100
AcDbEntity
  8
TITLE_BLOCK
100
AcDbMText
 10
186.51
 20
41.242
 30
0.0
 40
1.024128
 41
15.23999999999998
 71
     5
 72
     1
  1
ALOIS MBUTURA
  7
ONSHAPE-STANDARD-FIELDS
1001
ACAD
1000
ACAD_MTEXT_DEFINED_HEIGHT_BEGIN
1070
    46
1040
4.572000000000003
1000
ACAD_MTEXT_DEFINED_HEIGHT_END
  0
MTEXT
  5
AC
102
{ACAD_XDICTIONARY
360
AD
102
}
330
1F
100
AcDbEntity
  8
TITLE_BLOCK
100
AcDbMText
 10
214.1325
 20
41.242
 30
0.0
 40
1.024128
 41
9.525000000000006
 71
     5
 72
     1
  1
2019-02-26
  7
ONSHAPE-STANDARD-FIELDS
1001
ACAD
1000
ACAD_MTEXT_DEFINED_HEIGHT_BEGIN
1070
    46
1040
4.572000000000003
1000
ACAD_MTEXT_DEFINED_HEIGHT_END
  0
MTEXT
  5
B2
330
1F
100
AcDbEntity
  8
TITLE_BLOCK
100
AcDbMText
 10
166.22556
 20
37.85872
 30
0.0
 40
1.2192
 41
13.33500000000001
 71
     1
 72
     1
  1
CHECKED
  7
ONSHAPE-STANDARD
  0
MTEXT
  5
B3
330
1F
100
AcDbEntity
  8
TITLE_BLOCK
100
AcDbMText
 10
186.51
 20
36.67
 30
0.0
 40
1.024128
 41
15.23999999999998
 71
     5
 72
     1
  1
 
  7
ONSHAPE-STANDARD-FIELDS
1001
ACAD
1000
ACAD_MTEXT_DEFINED_HEIGHT_BEGIN
1070
    46
1040
4.571999999999996
1000
ACAD_MTEXT_DEFINED_HEIGHT_END
  0
MTEXT
  5
B4
330
1F
100
AcDbEntity
  8
TITLE_BLOCK
100
AcDbMText
 10
214.1325
 20
36.67
 30
0.0
 40
1.024128
 41
9.525000000000006
 71
     5
 72
     1
  1
 
  7
ONSHAPE-STANDARD-FIELDS
1001
ACAD
1000
ACAD_MTEXT_DEFINED_HEIGHT_BEGIN
1070
    46
1040
4.571999999999996
1000
ACAD_MTEXT_DEFINED_HEIGHT_END
  0
MTEXT
  5
B5
330
1F
100
AcDbEntity
  8
TITLE_BLOCK
100
AcDbMText
 10
166.22556
 20
33.28672
 30
0.0
 40
1.2192
 41
13.33500000000001
 71
     1
 72
     1
  1
APPROVED
  7
ONSHAPE-STANDARD
  0
MTEXT
  5
B6
102
{ACAD_XDICTIONARY
360
B7
102
}
330
1F
100
AcDbEntity
  8
TITLE_BLOCK
100
AcDbMText
 10
186.51
 20
32.098
 30
0.0
 40
1.024128
 41
15.23999999999998
 71
     5
 72
     1
  1
Alois Mbutura}
  7
ONSHAPE-STANDARD-FIELDS
1001
ACAD
1000
ACAD_MTEXT_DEFINED_HEIGHT_BEGIN
1070
    46
1040
1.038080697547684
1000
ACAD_MTEXT_DEFINED_HEIGHT_END
  0
MTEXT
  5
B8
102
{ACAD_XDICTIONARY
360
B9
102
}
330
1F
100
AcDbEntity
  8
TITLE_BLOCK
100
AcDbMText
 10
214.1325
 20
32.098
 30
0.0
 40
1.024128
 41
9.524999999999977
 71
     5
 72
     1
  1
2019-02-27}
  7
ONSHAPE-STANDARD-FIELDS
1001
ACAD
1000
ACAD_MTEXT_DEFINED_HEIGHT_BEGIN
1070
    46
1040
1.038080697547684
1000
ACAD_MTEXT_DEFINED_HEIGHT_END
  0
MTEXT
  5
BA
330
1F
100
AcDbEntity
  8
TITLE_BLOCK
100
AcDbMText
 10
172.2225
 20
27.526
 30
0.0
 40
1.8288
 41
13.33500000000001
 71
     5
 72
     1
  1
 
  7
ONSHAPE-STANDARD-FIELDS
1001
ACAD
1000
ACAD_MTEXT_DEFINED_HEIGHT_BEGIN
1070
    46
1040
4.571999999999999
1000
ACAD_MTEXT_DEFINED_HEIGHT_END
  0
MTEXT
  5
BB
330
1F
100
AcDbEntity
  8
TITLE_BLOCK
100
AcDbMText
 10
186.51
 20
27.526
 30
0.0
 40
1.024128
 41
15.23999999999998
 71
     5
 72
     1
  1
 
  7
ONSHAPE-STANDARD-FIELDS
1001
ACAD
1000
ACAD_MTEXT_DEFINED_HEIGHT_BEGIN
1070
    46
1040
4.571999999999999
1000
ACAD_MTEXT_DEFINED_HEIGHT_END
  0
MTEXT
  5
BC
330
1F
100
AcDbEntity
  8
TITLE_BLOCK
100
AcDbMText
 10
214.1325
 20
27.526
 30
0.0
 40
1.024128
 41
9.525000000000006
 71
     5
 72
     1
  1
 
  7
ONSHAPE-STANDARD-FIELDS
1001
ACAD
1000
ACAD_MTEXT_DEFINED_HEIGHT_BEGIN
1070
    46
1040
4.571999999999999
1000
ACAD_MTEXT_DEFINED_HEIGHT_END
  0
MTEXT
  5
BD
330
1F
100
AcDbEntity
  8
TITLE_BLOCK
100
AcDbMText
 10
172.2225
 20
22.954
 30
0.0
 40
1.8288
 41
13.33500000000001
 71
     5
 72
     1
  1
 
  7
ONSHAPE-STANDARD-FIELDS
1001
ACAD
1000
ACAD_MTEXT_DEFINED_HEIGHT_BEGIN
1070
    46
1040
4.571999999999999
1000
ACAD_MTEXT_DEFINED_HEIGHT_END
  0
MTEXT
  5
BE
330
1F
100
AcDbEntity
  8
TITLE_BLOCK
100
AcDbMText
 10
186.51
 20
22.954
 30
0.0
 40
1.024128
 41
15.23999999999998
 71
     5
 72
     1
  1
 
  7
ONSHAPE-STANDARD-FIELDS
1001
ACAD
1000
ACAD_MTEXT_DEFINED_HEIGHT_BEGIN
1070
    46
1040
4.571999999999999
1000
ACAD_MTEXT_DEFINED_HEIGHT_END
  0
MTEXT
  5
BF
330
1F
100
AcDbEntity
  8
TITLE_BLOCK
100
AcDbMText
 10
214.1325
 20
22.954
 30
0.0
 40
1.024128
 41
9.525000000000006
 71
     5
 72
     1
  1
 
  7
ONSHAPE-STANDARD-FIELDS
1001
ACAD
1000
ACAD_MTEXT_DEFINED_HEIGHT_BEGIN
1070
    46
1040
4.571999999999999
1000
ACAD_MTEXT_DEFINED_HEIGHT_END
  0
MTEXT
  5
C0
330
1F
100
AcDbEntity
  8
TITLE_BLOCK
100
AcDbMText
 10
166.22556
 20
19.57072
 30
0.0
 40
1.2192
 41
26.67000000000002
 71
     1
 72
     1
  1
MATERIAL
  7
ONSHAPE-STANDARD
  0
MTEXT
  5
C1
102
{ACAD_XDICTIONARY
360
2EC
102
}
330
1F
100
AcDbEntity
  8
TITLE_BLOCK
100
AcDbMText
 10
178.89
 20
15.334
 30
0.0
 40
1.8288
 41
26.67000000000002
 71
     5
 72
     1
  1
Aluminum }
  7
ONSHAPE-STANDARD-FIELDS
1001
ACAD
1000
ACAD_MTEXT_DEFINED_HEIGHT_BEGIN
1070
    46
1040
1.85371553133515
1000
ACAD_MTEXT_DEFINED_HEIGHT_END
  0
MTEXT
  5
C2
330
1F
100
AcDbEntity
  8
TITLE_BLOCK
100
AcDbMText
 10
192.89556
 20
19.57072
 30
0.0
 40
1.2192
 41
26.66999999999999
 71
     1
 72
     1
  1
FINISH
  7
ONSHAPE-STANDARD
  0
MTEXT
  5
C3
330
1F
100
AcDbEntity
  8
TITLE_BLOCK
100
AcDbMText
 10
205.56
 20
15.334
 30
0.0
 40
1.8288
 41
26.66999999999999
 71
     5
 72
     1
  1
 
  7
ONSHAPE-STANDARD-FIELDS
1001
ACAD
1000
ACAD_MTEXT_DEFINED_HEIGHT_BEGIN
1070
    46
1040
10.668
1000
ACAD_MTEXT_DEFINED_HEIGHT_END
  0
LINE
  5
C4
330
1F
100
AcDbEntity
  8
TITLE_BLOCK
100
AcDbLine
 10
218.895
 20
10.0
 30
0.0
 11
218.895
 21
48.09999999999999
 31
0.0
  0
LINE
  5
C5
330
1F
100
AcDbEntity
  8
TITLE_BLOCK
100
AcDbLine
 10
228.42
 20
14.953
 30
0.0
 11
228.42
 21
22.573
 31
0.0
  0
LINE
  5
C6
330
1F
100
AcDbEntity
  8
TITLE_BLOCK
100
AcDbLine
 10
235.659
 20
10.0
 30
0.0
 11
235.659
 21
14.953
 31
0.0
  0
LINE
  5
C7
330
1F
100
AcDbEntity
  8
TITLE_BLOCK
100
AcDbLine
 10
270.33
 20
10.0
 30
0.0
 11
270.33
 21
14.953
 31
0.0
  0
LINE
  5
C8
330
1F
100
AcDbEntity
  8
TITLE_BLOCK
100
AcDbLine
 10
289.38
 20
14.953
 30
0.0
 11
289.38
 21
22.573
 31
0.0
  0
LINE
  5
C9
330
1F
100
AcDbEntity
  8
TITLE_BLOCK
100
AcDbLine
 10
218.895
 20
14.953
 30
0.0
 11
297.0
 21
14.953
 31
0.0
  0
LINE
  5
CA
330
1F
100
AcDbEntity
  8
TITLE_BLOCK
100
AcDbLine
 10
218.895
 20
22.573
 30
0.0
 11
297.0
 21
22.573
 31
0.0
  0
LINE
  5
CB
330
1F
100
AcDbEntity
  8
TITLE_BLOCK
100
AcDbLine
 10
218.895
 20
38.575
 30
0.0
 11
297.0
 21
38.575
 31
0.0
  0
LINE
  5
CC
330
1F
100
AcDbEntity
  8
TITLE_BLOCK
100
AcDbLine
 10
218.895
 20
48.09999999999999
 30
0.0
 11
297.0
 21
48.09999999999999
 31
0.0
  0
MTEXT
  5
CD
330
1F
100
AcDbEntity
  8
TITLE_BLOCK
100
AcDbMText
 10
219.56556
 20
37.47772
 30
0.0
 40
1.2192
 41
9.525000000000006
 71
     1
 72
     1
  1
TITLE
  7
ONSHAPE-STANDARD
  0
MTEXT
  5
CE
102
{ACAD_XDICTIONARY
360
CF
102
}
330
1F
100
AcDbEntity
  8
TITLE_BLOCK
100
AcDbMText
 10
257.9475
 20
35.52699999999999
 30
0.0
 40
2.92608
 41
70.48499999999999
 71
     5
 72
     1
  1
Kaiote AQ}
  7
ONSHAPE-STANDARD-FIELDS
1001
ACAD
1000
ACAD_MTEXT_DEFINED_HEIGHT_BEGIN
1070
    46
1040
3.619728392370572
1000
ACAD_MTEXT_DEFINED_HEIGHT_END
  0
MTEXT
  5
D0
102
{ACAD_XDICTIONARY
360
D1
102
}
330
1F
100
AcDbEntity
  8
TITLE_BLOCK
100
AcDbMText
 10
257.9475
 20
30.7264
 30
0.0
 40
2.92608
 41
70.48500000000001
 71
     5
 72
     1
  1
Enclosure backplate}
  7
ONSHAPE-STANDARD-FIELDS
1001
ACAD
1000
ACAD_MTEXT_DEFINED_HEIGHT_BEGIN
1070
    46
1040
2.96594485013624
1000
ACAD_MTEXT_DEFINED_HEIGHT_END
  0
MTEXT
  5
D2
102
{ACAD_XDICTIONARY
360
D3
102
}
330
1F
100
AcDbEntity
  8
TITLE_BLOCK
100
AcDbMText
 10
257.9475
 20
25.9258
 30
0.0
 40
2.92608
 41
70.48499999999999
 71
     5
 72
     1
  1
----
  7
ONSHAPE-STANDARD-FIELDS
1001
ACAD
1000
ACAD_MTEXT_DEFINED_HEIGHT_BEGIN
1070
    46
1040
4.800599999999998
1000
ACAD_MTEXT_DEFINED_HEIGHT_END
  0
MTEXT
  5
D8
330
1F
100
AcDbEntity
  8
TITLE_BLOCK
100
AcDbMText
 10
219.431448
 20
21.695176
 30
0.0
 40
0.9753599999999999
 41
9.525000000000006
 71
     1
 72
     1
  1
SIZE
  7
ONSHAPE-STANDARD
  0
MTEXT
  5
D9
102
{ACAD_XDICTIONARY
360
DA
102
}
330
1F
100
AcDbEntity
  8
TITLE_BLOCK
100
AcDbMText
 10
223.6575
 20
18.763
 30
0.0
 40
3.6576
 41
9.525000000000006
 71
     5
 72
     1
  1
A4
  7
ONSHAPE-STANDARD-FIELDS
1001
ACAD
1000
ACAD_MTEXT_DEFINED_HEIGHT_BEGIN
1070
    46
1040
7.620000000000001
1000
ACAD_MTEXT_DEFINED_HEIGHT_END
  0
MTEXT
  5
DF
330
1F
100
AcDbEntity
  8
TITLE_BLOCK
100
AcDbMText
 10
228.956448
 20
21.695176
 30
0.0
 40
0.9753599999999999
 41
60.95999999999998
 71
     1
 72
     1
  1
DWG NO.
  7
ONSHAPE-STANDARD
  0
MTEXT
  5
E0
102
{ACAD_XDICTIONARY
360
E1
102
}
330
1F
100
AcDbEntity
  8
TITLE_BLOCK
100
AcDbMText
 10
258.9
 20
18.763
 30
0.0
 40
3.6576
 41
60.95999999999998
 71
     5
 72
     1
  1
2}
  7
ONSHAPE-STANDARD-FIELDS
1001
ACAD
1000
ACAD_MTEXT_DEFINED_HEIGHT_BEGIN
1070
    46
1040
3.6576
1000
ACAD_MTEXT_DEFINED_HEIGHT_END
  0
MTEXT
  5
E2
330
1F
100
AcDbEntity
  8
TITLE_BLOCK
100
AcDbMText
 10
289.916448
 20
21.695176
 30
0.0
 40
0.9753599999999999
 41
7.620000000000005
 71
     1
 72
     1
  1
REV.
  7
ONSHAPE-STANDARD
  0
MTEXT
  5
E3
102
{ACAD_XDICTIONARY
360
E4
102
}
330
1F
100
AcDbEntity
  8
TITLE_BLOCK
100
AcDbMText
 10
293.571
 20
18.763
 30
0.0
 40
3.6576
 41
6.857999999999947
 71
     5
 72
     1
  1
1}
  7
ONSHAPE-STANDARD-FIELDS
1001
ACAD
1000
ACAD_MTEXT_DEFINED_HEIGHT_BEGIN
1070
    46
1040
3.6576
1000
ACAD_MTEXT_DEFINED_HEIGHT_END
  0
MTEXT
  5
E5
330
1F
100
AcDbEntity
  8
TITLE_BLOCK
100
AcDbMText
 10
219.431448
 20
14.075176
 30
0.0
 40
0.9753599999999999
 41
16.76399999999998
 71
     1
 72
     1
  1
SCALE
  7
ONSHAPE-STANDARD
  0
MTEXT
  5
E6
102
{ACAD_XDICTIONARY
360
E7
102
}
330
1F
100
AcDbEntity
  8
TITLE_BLOCK
100
AcDbMText
 10
228.039
 20
12.4765
 30
0.0
 40
2.19456
 41
15.23999999999998
 71
     5
 72
     1
  1
1:1
  7
ONSHAPE-STANDARD-FIELDS
1001
ACAD
1000
ACAD_MTEXT_DEFINED_HEIGHT_BEGIN
1070
    46
1040
4.952999999999999
1000
ACAD_MTEXT_DEFINED_HEIGHT_END
  0
MTEXT
  5
EC
330
1F
100
AcDbEntity
  8
TITLE_BLOCK
100
AcDbMText
 10
236.195448
 20
14.075176
 30
0.0
 40
0.9753599999999999
 41
34.67099999999999
 71
     1
 72
     1
  1
WEIGHT
  7
ONSHAPE-STANDARD
  0
MTEXT
  5
ED
330
1F
100
AcDbEntity
  8
TITLE_BLOCK
100
AcDbMText
 10
252.9945
 20
12.4765
 30
0.0
 40
2.19456
 41
34.67099999999999
 71
     5
 72
     1
  1
 
  7
ONSHAPE-STANDARD-FIELDS
1001
ACAD
1000
ACAD_MTEXT_DEFINED_HEIGHT_BEGIN
1070
    46
1040
4.952999999999999
1000
ACAD_MTEXT_DEFINED_HEIGHT_END
  0
MTEXT
  5
EE
330
1F
100
AcDbEntity
  8
TITLE_BLOCK
100
AcDbMText
 10
270.866448
 20
14.075176
 30
0.0
 40
0.9753599999999999
 41
26.67000000000002
 71
     1
 72
     1
  1
SHEET
  7
ONSHAPE-STANDARD
  0
MTEXT
  5
EF
102
{ACAD_XDICTIONARY
360
F0
102
}
330
1F
100
AcDbEntity
  8
TITLE_BLOCK
100
AcDbMText
 10
284.427
 20
12.4765
 30
0.0
 40
2.19456
 41
25.14600000000002
 71
     5
 72
     1
  1
1 of 1
  7
ONSHAPE-STANDARD-FIELDS
1001
ACAD
1000
ACAD_MTEXT_DEFINED_HEIGHT_BEGIN
1070
    46
1040
4.952999999999999
1000
ACAD_MTEXT_DEFINED_HEIGHT_END
  0
MTEXT
  5
F5
330
1F
100
AcDbEntity
  8
ANNOTATION_TEXT
 62
     7
 60
     1
100
AcDbMText
 10
158.4552493435114
 20
94.16286621062173
 30
0.0
 40
3.5
 41
0.0
 71
     2
 72
     1
  1

  7
ONSHAPE-STANDARD-VIEW-LABE
1001
ACAD
1000
ACAD_MTEXT_DEFINED_HEIGHT_BEGIN
1070
    46
1040
3.5
1000
ACAD_MTEXT_DEFINED_HEIGHT_END
  0
DIMENSION
  5
F8
102
{ACAD_REACTORS
102
}
102
{ACAD_XDICTIONARY
360
F9
102
}
330
1F
100
AcDbEntity
  8
ANNOTATION_TEXT
100
AcDbDimension
  2
*D1
 10
119.3639769050706
 20
102.3202559791388
 30
0.0
 11
102.2668404878359
 21
94.46733051130134
 31
0.0
 70
   163
  3
ONSHAPE-ISO-25$3
100
AcDbDiametricDimension
 15
117.5465217819523
 25
101.4854764421047
 35
0.0
 40
0.0
1001
ACAD
1000
DSTYLE
1002
{
1070
     4
1000
<>
1070
   144
1040
1.0
1070
     3
1000
4xÿ<>
1070
   288
1070
     1
1002
}
1001
ACAD_DSTYLE_DIMRADIAL_EXTE
1070
   387
1070
     1
1070
   388
1040
0.0
1070
   390
1040
6.283185307179586
1001
ACAD_DIMASSOC_CALC_DIMLFAC
1040
-1.0
1001
ACAD_DIMASSOC_DIMLFAC
1040
-1.0
1001
ACAD_DIMASSOC_OVERRIDDEN_D
1040
0.0
  0
DIMENSION
  5
10D
102
{ACAD_REACTORS
102
}
102
{ACAD_XDICTIONARY
360
10E
102
}
330
1F
100
AcDbEntity
  8
ANNOTATION_TEXT
100
AcDbDimension
  2
*D2
 10
117.5552493435114
 20
68.54640962473394
 30
0.0
 11
155.3368923255583
 21
68.54640962473394
 31
0.0
 70
   161
  3
ONSHAPE-ISO-25$0
100
AcDbAlignedDimension
 13
199.3552493435114
 23
100.2028662106217
 33
0.0
 14
117.5552493435114
 24
100.2028662106217
 34
0.0
1001
ACAD
1000
DSTYLE
1002
{
1070
     4
1000
<>
1070
   144
1040
1.0
1070
     3
1000

1070
   288
1070
     1
1002
}
1001
ACAD_DIMASSOC_CALC_DIMLFAC
1040
-1.0
1001
ACAD_DIMASSOC_DIMLFAC
1040
-1.0
1001
ACAD_DIMASSOC_OVERRIDDEN_D
1040
0.0
  0
DIMENSION
  5
11F
102
{ACAD_REACTORS
102
}
102
{ACAD_XDICTIONARY
360
120
102
}
330
1F
100
AcDbEntity
  8
ANNOTATION_TEXT
100
AcDbDimension
  2
*D3
 10
175.8444693435114
 20
76.22415248386265
 30
0.0
 11
158.4552493435114
 21
76.22415248386265
 31
0.0
 70
   160
  3
ONSHAPE-ISO-25$0
100
AcDbAlignedDimension
 13
141.0660293435114
 23
112.8423162106217
 33
0.0
 14
175.8444693435114
 24
112.8423162106217
 34
0.0
100
AcDbRotatedDimension
1001
ACAD
1000
DSTYLE
1002
{
1070
     4
1000
<>
1070
   144
1040
1.0
1070
     3
1000

1070
   288
1070
     1
1002
}
1001
ACAD_DIMASSOC_CALC_DIMLFAC
1040
-1.0
1001
ACAD_DIMASSOC_DIMLFAC
1040
-1.0
1001
ACAD_DIMASSOC_OVERRIDDEN_D
1040
0.0
  0
DIMENSION
  5
130
102
{ACAD_REACTORS
102
}
102
{ACAD_XDICTIONARY
360
131
102
}
330
1F
100
AcDbEntity
  8
ANNOTATION_TEXT
100
AcDbDimension
  2
*D4
 10
207.5605052269459
 20
100.2028662106217
 30
0.0
 11
207.5605052269459
 21
110.6380501343275
 31
0.0
 70
   160
  3
ONSHAPE-ISO-25$0
100
AcDbAlignedDimension
 13
198.4552493435114
 23
101.9028662106217
 33
0.0
 14
199.3552493435114
 24
100.2028662106217
 34
0.0
 50
90.0
100
AcDbRotatedDimension
1001
ACAD
1000
DSTYLE
1002
{
1070
     4
1000
<>
1070
   144
1040
1.0
1070
     3
1000

1070
   288
1070
     1
1002
}
1001
ACAD_DIMASSOC_CALC_DIMLFAC
1040
-1.0
1001
ACAD_DIMASSOC_DIMLFAC
1040
-1.0
1001
ACAD_DIMASSOC_OVERRIDDEN_D
1040
0.0
  0
DIMENSION
  5
143
102
{ACAD_REACTORS
102
}
102
{ACAD_XDICTIONARY
360
144
102
}
330
1F
100
AcDbEntity
  8
ANNOTATION_TEXT
100
AcDbDimension
  2
*D5
 10
218.1203758445149
 20
112.8423162106217
 30
0.0
 11
218.1203758445149
 21
107.4856502785245
 31
0.0
 70
   160
  3
ONSHAPE-ISO-25$0
100
AcDbAlignedDimension
 13
158.4552493435114
 23
100.2028662106217
 33
0.0
 14
175.8444693435114
 24
112.8423162106217
 34
0.0
 50
90.0
100
AcDbRotatedDimension
1001
ACAD
1000
DSTYLE
1002
{
1070
     4
1000
<>
1070
   144
1040
1.0
1070
     3
1000

1070
   288
1070
     1
1002
}
1001
ACAD_DIMASSOC_CALC_DIMLFAC
1040
-1.0
1001
ACAD_DIMASSOC_DIMLFAC
1040
-1.0
1001
ACAD_DIMASSOC_OVERRIDDEN_D
1040
0.0
  0
DIMENSION
  5
153
102
{ACAD_REACTORS
102
}
102
{ACAD_XDICTIONARY
360
154
102
}
330
1F
100
AcDbEntity
  8
ANNOTATION_TEXT
100
AcDbDimension
  2
*D6
 10
226.404412277263
 20
100.2028662106217
 30
0.0
 11
226.404412277263
 21
111.2229912106217
 31
0.0
 70
   160
  3
ONSHAPE-ISO-25$0
100
AcDbAlignedDimension
 13
128.0294493435114
 23
122.2431162106217
 33
0.0
 14
158.4552493435114
 24
100.2028662106217
 34
0.0
 50
90.0
100
AcDbRotatedDimension
1001
ACAD
1000
DSTYLE
1002
{
1070
     4
1000
<>
1070
   144
1040
1.0
1070
     3
1000

1070
   288
1070
     1
1002
}
1001
ACAD_DIMASSOC_CALC_DIMLFAC
1040
-1.0
1001
ACAD_DIMASSOC_DIMLFAC
1040
-1.0
1001
ACAD_DIMASSOC_OVERRIDDEN_D
1040
0.0
  0
DIMENSION
  5
163
102
{ACAD_REACTORS
102
}
102
{ACAD_XDICTIONARY
360
164
102
}
330
1F
100
AcDbEntity
  8
ANNOTATION_TEXT
100
AcDbDimension
  2
*D7
 10
234.7794820774038
 20
123.9728662106217
 30
0.0
 11
234.7794820774038
 21
112.0878662106217
 31
0.0
 70
   160
  3
ONSHAPE-ISO-25$0
100
AcDbAlignedDimension
 13
158.4552493435114
 23
100.2028662106217
 33
0.0
 14
153.9374593435114
 24
123.9728662106217
 34
0.0
 50
90.0
100
AcDbRotatedDimension
1001
ACAD
1000
DSTYLE
1002
{
1070
     4
1000
<>
1070
   144
1040
1.0
1070
     3
1000

1070
   288
1070
     1
1002
}
1001
ACAD_DIMASSOC_CALC_DIMLFAC
1040
-1.0
1001
ACAD_DIMASSOC_DIMLFAC
1040
-1.0
1001
ACAD_DIMASSOC_OVERRIDDEN_D
1040
0.0
  0
DIMENSION
  5
173
102
{ACAD_REACTORS
102
}
102
{ACAD_XDICTIONARY
360
174
102
}
330
1F
100
AcDbEntity
  8
ANNOTATION_TEXT
100
AcDbDimension
  2
*D8
 10
243.4276519797232
 20
100.2028662106217
 30
0.0
 11
243.4276519797232
 21
115.8879912106217
 31
0.0
 70
   160
  3
ONSHAPE-ISO-25$0
100
AcDbAlignedDimension
 13
195.2209993435114
 23
131.5731162106218
 33
0.0
 14
199.3552493435114
 24
100.2028662106217
 34
0.0
 50
90.0
100
AcDbRotatedDimension
1001
ACAD
1000
DSTYLE
1002
{
1070
     4
1000
<>
1070
   144
1040
1.0
1070
     3
1000

1070
   288
1070
     1
1002
}
1001
ACAD_DIMASSOC_CALC_DIMLFAC
1040
-1.0
1001
ACAD_DIMASSOC_DIMLFAC
1040
-1.0
1001
ACAD_DIMASSOC_OVERRIDDEN_D
1040
0.0
  0
DIMENSION
  5
183
102
{ACAD_REACTORS
102
}
102
{ACAD_XDICTIONARY
360
184
102
}
330
1F
100
AcDbEntity
  8
ANNOTATION_TEXT
100
AcDbDimension
  2
*D9
 10
251.7116884124713
 20
100.2028662106217
 30
0.0
 11
251.7116884124713
 21
122.6882226331281
 31
0.0
 70
   160
  3
ONSHAPE-ISO-25$0
100
AcDbAlignedDimension
 13
199.3552493435114
 23
135.5731162106217
 33
0.0
 14
199.3552493435114
 24
100.2028662106217
 34
0.0
 50
90.0
100
AcDbRotatedDimension
1001
ACAD
1000
DSTYLE
1002
{
1070
     4
1000
<>
1070
   144
1040
1.0
1070
     3
1000

1070
   288
1070
     1
1002
}
1001
ACAD_DIMASSOC_CALC_DIMLFAC
1040
-1.0
1001
ACAD_DIMASSOC_DIMLFAC
1040
-1.0
1001
ACAD_DIMASSOC_OVERRIDDEN_D
1040
0.0
  0
DIMENSION
  5
193
102
{ACAD_REACTORS
102
}
102
{ACAD_XDICTIONARY
360
194
102
}
330
1F
100
AcDbEntity
  8
ANNOTATION_TEXT
100
AcDbDimension
  2
*D10
 10
193.7280428591143
 20
131.1851982647821
 30
0.0
 11
217.1125330588584
 21
144.2170969808494
 31
0.0
 70
   163
  3
ONSHAPE-ISO-25$3
100
AcDbDiametricDimension
 15
195.1202058279085
 25
131.9610341564615
 35
0.0
 40
0.0
1001
ACAD
1000
DSTYLE
1002
{
1070
     4
1000
<>
1070
   144
1040
1.0
1070
    44
1040
0.208621078125
1070
     3
1000
2xÿ<>
1070
   288
1070
     1
1002
}
1001
ACAD_DSTYLE_DIMRADIAL_EXTE
1070
   387
1070
     1
1070
   388
1040
3.141592653589793
1070
   390
1040
0.0
1001
ACAD_DIMASSOC_CALC_DIMLFAC
1040
-1.0
1001
ACAD_DIMASSOC_DIMLFAC
1040
-1.0
1001
ACAD_DIMASSOC_OVERRIDDEN_D
1040
0.0
  0
DIMENSION
  5
1A3
102
{ACAD_REACTORS
102
}
102
{ACAD_XDICTIONARY
360
1A4
102
}
330
1F
100
AcDbEntity
  8
ANNOTATION_TEXT
100
AcDbDimension
  2
*D11
 10
86.13992110003174
 20
101.9028662106217
 30
0.0
 11
86.13992110003174
 21
119.3907513833623
 31
0.0
 70
   160
  3
ONSHAPE-ISO-25$0
100
AcDbAlignedDimension
 13
118.4421423435114
 23
133.8731162106217
 33
0.0
 14
118.4552493435114
 24
101.9028662106217
 34
0.0
 50
90.0
100
AcDbRotatedDimension
1001
ACAD
1000
DSTYLE
1002
{
1070
     4
1000
<>
1070
   144
1040
1.0
1070
     3
1000

1070
   288
1070
     1
1002
}
1001
ACAD_DIMASSOC_CALC_DIMLFAC
1040
-1.0
1001
ACAD_DIMASSOC_DIMLFAC
1040
-1.0
1001
ACAD_DIMASSOC_OVERRIDDEN_D
1040
0.0
  0
DIMENSION
  5
1B3
102
{ACAD_REACTORS
102
}
102
{ACAD_XDICTIONARY
360
1B4
102
}
330
1F
100
AcDbEntity
  8
ANNOTATION_TEXT
100
AcDbDimension
  2
*D12
 10
111.9192221459476
 20
135.6740562977099
 30
0.0
 11
111.9192221459476
 21
140.474526341254
 31
0.0
 70
   160
  3
ONSHAPE-ISO-25$0
100
AcDbAlignedDimension
 13
123.2832493435114
 23
145.2749963847981
 33
0.0
 14
123.2832493435114
 24
135.6740562977099
 34
0.0
 50
90.0
100
AcDbRotatedDimension
1001
ACAD
1000
DSTYLE
1002
{
1070
     4
1000
<>
1070
   144
1040
1.0
1070
     3
1000

1070
   288
1070
     1
1002
}
1001
ACAD_DIMASSOC_CALC_DIMLFAC
1040
-1.0
1001
ACAD_DIMASSOC_DIMLFAC
1040
-1.0
1001
ACAD_DIMASSOC_OVERRIDDEN_D
1040
0.0
  0
DIMENSION
  5
1C3
102
{ACAD_REACTORS
102
}
102
{ACAD_XDICTIONARY
360
1C4
102
}
330
1F
100
AcDbEntity
  8
ANNOTATION_TEXT
100
AcDbDimension
  2
*D13
 10
125.2832493435114
 20
145.2749963847981
 30
0.0
 11
110.4872514138913
 21
152.6206855283546
 31
0.0
 70
   164
  3
ONSHAPE-ISO-25$4
100
AcDbRadialDimension
 15
123.4918688355481
 25
146.1643533860574
 35
0.0
 40
0.0
1001
ACAD
1000
DSTYLE
1002
{
1070
   287
1070
     0
1070
     4
1000
<>
1070
   144
1040
1.0
1070
    44
1040
0.523598
1070
   172
1070
     0
1070
   289
1070
     0
1070
     3
1000
6xR<>
1070
   288
1070
     1
1002
}
1001
ACAD_DSTYLE_DIMRADIAL_EXTE
1070
   387
1070
     0
1070
   388
1040
1.570796326794897
1070
   390
1040
3.141592653589789
1001
ACAD_DIMASSOC_CALC_DIMLFAC
1040
-1.0
1001
ACAD_DIMASSOC_DIMLFAC
1040
-1.0
1001
ACAD_DIMASSOC_OVERRIDDEN_D
1040
0.0
  0
DIMENSION
  5
1D0
102
{ACAD_REACTORS
102
}
102
{ACAD_XDICTIONARY
360
1D1
102
}
330
1F
100
AcDbEntity
  8
ANNOTATION_TEXT
100
AcDbDimension
  2
*D14
 10
191.6272493435114
 20
158.438457583847
 30
0.0
 11
158.4552493435114
 21
158.438457583847
 31
0.0
 70
   160
  3
ONSHAPE-ISO-25$0
100
AcDbAlignedDimension
 13
125.2832493435114
 23
147.2749963847981
 33
0.0
 14
191.6272493435114
 24
147.2749963847981
 34
0.0
100
AcDbRotatedDimension
1001
ACAD
1000
DSTYLE
1002
{
1070
     4
1000
<>
1070
   144
1040
1.0
1070
     3
1000

1070
   288
1070
     1
1002
}
1001
ACAD_DIMASSOC_CALC_DIMLFAC
1040
-1.0
1001
ACAD_DIMASSOC_DIMLFAC
1040
-1.0
1001
ACAD_DIMASSOC_OVERRIDDEN_D
1040
0.0
  0
DIMENSION
  5
1E0
102
{ACAD_REACTORS
102
}
102
{ACAD_XDICTIONARY
360
1E1
102
}
330
1F
100
AcDbEntity
  8
ANNOTATION_TEXT
100
AcDbDimension
  2
*D15
 10
153.9374593435114
 20
86.78800174251988
 30
0.0
 11
164.9905896179777
 21
86.78800174251988
 31
0.0
 70
   160
  3
ONSHAPE-ISO-25$0
100
AcDbAlignedDimension
 13
136.1574593435114
 23
122.7028662106217
 33
0.0
 14
153.9374593435114
 24
122.7028662106217
 34
0.0
100
AcDbRotatedDimension
1001
ACAD
1000
DSTYLE
1002
{
1070
     4
1000
<>
1070
   144
1040
1.0
1070
     3
1000

1070
   288
1070
     1
1002
}
1001
ACAD_DIMASSOC_CALC_DIMLFAC
1040
-1.0
1001
ACAD_DIMASSOC_DIMLFAC
1040
-1.0
1001
ACAD_DIMASSOC_OVERRIDDEN_D
1040
0.0
  0
DIMENSION
  5
1F1
102
{ACAD_REACTORS
102
}
102
{ACAD_XDICTIONARY
360
1F2
102
}
330
1F
100
AcDbEntity
  8
ANNOTATION_TEXT
100
AcDbDimension
  2
*D16
 10
117.5552493435114
 20
88.47209365332029
 30
0.0
 11
108.5281716868357
 21
88.47209365332029
 31
0.0
 70
   160
  3
ONSHAPE-ISO-25$0
100
AcDbAlignedDimension
 13
128.0294493435114
 23
122.2431162106217
 33
0.0
 14
117.5552493435114
 24
100.2028662106217
 34
0.0
100
AcDbRotatedDimension
1001
ACAD
1000
DSTYLE
1002
{
1070
     4
1000
<>
1070
   144
1040
1.0
1070
     3
1000

1070
   288
1070
     1
1002
}
1001
ACAD_DIMASSOC_CALC_DIMLFAC
1040
-1.0
1001
ACAD_DIMASSOC_DIMLFAC
1040
-1.0
1001
ACAD_DIMASSOC_OVERRIDDEN_D
1040
0.0
  0
DIMENSION
  5
202
102
{ACAD_REACTORS
102
}
102
{ACAD_XDICTIONARY
360
203
102
}
330
1F
100
AcDbEntity
  8
ANNOTATION_TEXT
100
AcDbDimension
  2
*D17
 10
173.1597564532228
 20
114.5372916372041
 30
0.0
 11
217.1125330588585
 21
86.78800174251985
 31
0.0
 70
   163
  3
ONSHAPE-ISO-25$3
100
AcDbDiametricDimension
 15
178.5291822338001
 25
111.1473407840394
 35
0.0
 40
0.0
1001
ACAD
1000
DSTYLE
1002
{
1070
     4
1000
<>
1070
   144
1040
1.0
1070
    44
1040
0.831211825
1070
     3
1000
2xÿ<>
1070
   288
1070
     1
1002
}
1001
ACAD_DSTYLE_DIMRADIAL_EXTE
1070
   387
1070
     1
1070
   388
1040
0.0
1070
   390
1040
6.283185307179586
1001
ACAD_DIMASSOC_CALC_DIMLFAC
1040
-1.0
1001
ACAD_DIMASSOC_DIMLFAC
1040
-1.0
1001
ACAD_DIMASSOC_OVERRIDDEN_D
1040
0.0
  0
DIMENSION
  5
211
102
{ACAD_REACTORS
102
}
102
{ACAD_XDICTIONARY
360
212
102
}
330
1F
100
AcDbEntity
  8
ANNOTATION_TEXT
100
AcDbDimension
  2
*D18
 10
136.1574593435114
 20
82.19502380397326
 30
0.0
 11
126.8563543435114
 21
82.19502380397326
 31
0.0
 70
   160
  3
ONSHAPE-ISO-25$0
100
AcDbAlignedDimension
 13
117.5552493435114
 23
100.2028662106217
 33
0.0
 14
136.1574593435114
 24
122.7028662106217
 34
0.0
100
AcDbRotatedDimension
1001
ACAD
1000
DSTYLE
1002
{
1070
     4
1000
<>
1070
   144
1040
1.0
1070
     3
1000

1070
   288
1070
     1
1002
}
1001
ACAD_DIMASSOC_CALC_DIMLFAC
1040
-1.0
1001
ACAD_DIMASSOC_DIMLFAC
1040
-1.0
1001
ACAD_DIMASSOC_OVERRIDDEN_D
1040
0.0
  0
DIMENSION
  5
222
102
{ACAD_REACTORS
102
}
102
{ACAD_XDICTIONARY
360
223
102
}
330
1F
100
AcDbEntity
  8
ANNOTATION_TEXT
100
AcDbDimension
  2
*D19
 10
141.0660293435114
 20
94.46733051130134
 30
0.0
 11
150.9527800247104
 21
94.46733051130134
 31
0.0
 70
   160
  3
ONSHAPE-ISO-25$0
100
AcDbAlignedDimension
 13
136.1574593435114
 23
122.7028662106217
 33
0.0
 14
141.0660293435114
 24
112.8423162106217
 34
0.0
100
AcDbRotatedDimension
1001
ACAD
1000
DSTYLE
1002
{
1070
     4
1000
<>
1070
   144
1040
1.0
1070
     3
1000

1070
   288
1070
     1
1002
}
1001
ACAD_DIMASSOC_CALC_DIMLFAC
1040
-1.0
1001
ACAD_DIMASSOC_DIMLFAC
1040
-1.0
1001
ACAD_DIMASSOC_OVERRIDDEN_D
1040
0.0
  0
DIMENSION
  5
236
102
{ACAD_REACTORS
102
}
102
{ACAD_XDICTIONARY
360
237
102
}
330
1F
100
AcDbEntity
  8
ANNOTATION_TEXT
100
AcDbDimension
  2
*D20
 10
153.4830644428035
 20
140.2039026962416
 30
0.0000000000000001
 11
136.1574593435114
 21
149.2525017067537
 31
0.0
 70
   163
  3
ONSHAPE-ISO-25$3
100
AcDbDiametricDimension
 15
149.3613382442193
 25
142.3565459885463
 35
-0.0000000000000001
 40
0.0
1001
ACAD
1000
DSTYLE
1002
{
1070
     4
1000
<>
1070
   144
1040
1.0
1070
    44
1040
0.608682675
1070
     3
1000
4xÿ<>
1070
   288
1070
     1
1002
}
1001
ACAD_DSTYLE_DIMRADIAL_EXTE
1070
   387
1070
     1
1070
   388
1040
0.0
1070
   390
1040
6.283185307179586
1001
ACAD_DIMASSOC_CALC_DIMLFAC
1040
-1.0
1001
ACAD_DIMASSOC_DIMLFAC
1040
-1.0
1001
ACAD_DIMASSOC_OVERRIDDEN_D
1040
0.0
  0
DIMENSION
  5
245
102
{ACAD_REACTORS
102
}
102
{ACAD_XDICTIONARY
360
246
102
}
330
1F
100
AcDbEntity
  8
ANNOTATION_TEXT
100
AcDbDimension
  2
*D21
 10
165.4916773435114
 20
150.5131488127508
 30
0.0
 11
158.4569393435114
 21
150.5131488127508
 31
0.0
 70
   160
  3
ONSHAPE-ISO-25$0
100
AcDbAlignedDimension
 13
151.4222013435114
 23
141.280224342394
 33
0.0
 14
165.4916773435114
 24
141.2789841675141
 34
0.0
100
AcDbRotatedDimension
1001
ACAD
1000
DSTYLE
1002
{
1070
     4
1000
<>
1070
   144
1040
1.0
1070
     3
1000
3x<>
1070
   288
1070
     1
1002
}
1001
ACAD_DIMASSOC_CALC_DIMLFAC
1040
-1.0
1001
ACAD_DIMASSOC_DIMLFAC
1040
-1.0
1001
ACAD_DIMASSOC_OVERRIDDEN_D
1040
0.0
  0
DIMENSION
  5
255
102
{ACAD_REACTORS
102
}
102
{ACAD_XDICTIONARY
360
256
102
}
330
1F
100
AcDbEntity
  8
ANNOTATION_TEXT
100
AcDbDimension
  2
*D22
 10
129.879109157473
 20
122.2076398436198
 30
0.0
 11
104.8225786230171
 21
122.6882226331281
 31
0.0
 70
   163
  3
ONSHAPE-ISO-25$3
100
AcDbDiametricDimension
 15
126.1797895295499
 25
122.2785925776236
 35
0.0
 40
0.0
1001
ACAD
1000
DSTYLE
1002
{
1070
     4
1000
<>
1070
   144
1040
1.0
1070
    44
1040
0.48432815
1070
     3
1000
%%c<>
1070
   288
1070
     1
1002
}
1001
ACAD_DSTYLE_DIMRADIAL_EXTE
1070
   387
1070
     1
1070
   388
1040
0.0
1070
   390
1040
6.283185307179586
1001
ACAD_DIMASSOC_CALC_DIMLFAC
1040
-1.0
1001
ACAD_DIMASSOC_DIMLFAC
1040
-1.0
1001
ACAD_DIMASSOC_OVERRIDDEN_D
1040
0.0
  0
LINE
  5
26A
330
1F
100
AcDbEntity
  8
SHEETMETAL_BEND_LINES_UP
  6
CONTINUOUS
 62
     7
100
AcDbLine
 10
201.9142332622641
 20
159.063457583847
 30
0.0
 11
227.8876665047709
 21
159.063457583847
 31
0.0
  0
MTEXT
  5
26B
330
1F
100
AcDbEntity
  8
ANNOTATION_TEXT
 62
     7
100
AcDbMText
 10
214.9009498835175
 20
162.563457583847
 30
0.0
 40
3.5
 41
0.0
 71
     2
 72
     1
  1
{\fNoto Sans;UP 90,0∞ R2}
  7
ONSHAPE-STANDARD-DIMENSION
1001
ACAD
1000
ACAD_MTEXT_DEFINED_HEIGHT_BEGIN
1070
    46
1040
4.125
1000
ACAD_MTEXT_DEFINED_HEIGHT_END
  0
LEADER
  5
26C
330
1F
100
AcDbEntity
  8
ANNOTATION_LINES
 62
     7
100
AcDbLeader
  3
ONSHAPE-ISO-25$7
 76
     2
 10
158.4552493435114
 20
135.6740562977099
 30
0.0
 10
201.9142332622641
 20
159.063457583847
 30
0.0
1001
ACAD
1000
DSTYLE
1002
{
1070
     5
1000

1070
   341
1005
0
1070
    41
1040
2.5
1070
   176
1070
     0
1002
}
  0
LINE
  5
270
330
1F
100
AcDbEntity
  8
SHEETMETAL_BEND_LINES_UP
100
AcDbLine
 10
123.2832493435114
 20
135.6740562977099
 30
0.0
 11
193.6272493435114
 21
135.6740562977099
 31
0.0
  0
CIRCLE
  5
271
330
1F
100
AcDbEntity
  8
VISIBLE
100
AcDbCircle
 10
128.0294493435114
 20
122.2431162106217
 30
0.0
 40
1.85
  0
CIRCLE
  5
272
330
1F
100
AcDbEntity
  8
VISIBLE
100
AcDbCircle
 10
198.4552493435114
 20
101.9028662106217
 30
0.0
 40
1.0
  0
CIRCLE
  5
273
330
1F
100
AcDbEntity
  8
VISIBLE
100
AcDbCircle
 10
141.0660293435114
 20
112.8423162106217
 30
0.0
 40
3.175
  0
CIRCLE
  5
274
330
1F
100
AcDbEntity
  8
VISIBLE
100
AcDbCircle
 10
118.4552493435114
 20
101.9028662106217
 30
0.0
 40
1.0
  0
CIRCLE
  5
275
330
1F
100
AcDbEntity
  8
VISIBLE
100
AcDbCircle
 10
198.4421423435114
 20
133.8731162106217
 30
0.0
 40
1.0
  0
CIRCLE
  5
276
330
1F
100
AcDbEntity
  8
VISIBLE
100
AcDbCircle
 10
118.4421423435114
 20
133.8731162106217
 30
0.0
 40
1.0
  0
CIRCLE
  5
277
330
1F
100
AcDbEntity
  8
VISIBLE
100
AcDbCircle
 10
175.8444693435114
 20
112.8423162106217
 30
0.0
 40
3.175
  0
CIRCLE
  5
278
330
1F
100
AcDbEntity
  8
VISIBLE
100
AcDbCircle
 10
179.5611533435114
 20
141.2827046921538
 30
0.0
 40
2.325
  0
CIRCLE
  5
279
330
1F
100
AcDbEntity
  8
VISIBLE
100
AcDbCircle
 10
151.4222013435114
 20
141.280224342394
 30
0.0
 40
2.325
  0
CIRCLE
  5
27A
330
1F
100
AcDbEntity
  8
VISIBLE
100
AcDbCircle
 10
165.4916773435114
 20
141.2789841675141
 30
0.0
 40
2.325
  0
CIRCLE
  5
27B
330
1F
100
AcDbEntity
  8
VISIBLE
100
AcDbCircle
 10
137.3527253435115
 20
141.2789841675141
 30
0.0
 40
2.325
  0
LINE
  5
27C
330
1F
100
AcDbEntity
  8
VISIBLE
100
AcDbLine
 10
123.2832493435114
 20
145.2749963847981
 30
0.0
 11
123.2832493435114
 21
137.7749963847981
 31
0.0
  0
LINE
  5
27D
330
1F
100
AcDbEntity
  8
VISIBLE
100
AcDbLine
 10
123.2832493435114
 20
133.5731162106217
 30
0.0
 11
123.2832493435114
 21
137.7749963847981
 31
0.0
  0
LINE
  5
27E
330
1F
100
AcDbEntity
  8
VISIBLE
100
AcDbLine
 10
121.6894993435114
 20
131.5731162106218
 30
0.0
 11
121.6894993435114
 21
135.5731162106217
 31
0.0
  0
LINE
  5
27F
330
1F
100
AcDbEntity
  8
VISIBLE
100
AcDbLine
 10
123.2832493435114
 20
133.5731162106217
 30
0.0
 11
123.2832493435114
 21
131.5731162106218
 31
0.0
  0
LINE
  5
280
330
1F
100
AcDbEntity
  8
VISIBLE
100
AcDbLine
 10
195.2209993435114
 20
131.5731162106218
 30
0.0
 11
195.2209993435114
 21
135.5731162106217
 31
0.0
  0
LINE
  5
281
330
1F
100
AcDbEntity
  8
VISIBLE
100
AcDbLine
 10
199.3552493435114
 20
100.2028662106217
 30
0.0
 11
117.5552493435114
 21
100.2028662106217
 31
0.0
  0
LINE
  5
282
330
1F
100
AcDbEntity
  8
VISIBLE
100
AcDbLine
 10
201.3552493435114
 20
102.2028662106217
 30
0.0
 11
201.3552493435114
 21
133.5731162106217
 31
0.0
  0
LINE
  5
283
330
1F
100
AcDbEntity
  8
VISIBLE
100
AcDbLine
 10
193.6272493435114
 20
137.7749963847981
 30
0.0
 11
193.6272493435114
 21
145.2749963847981
 31
0.0
  0
LINE
  5
284
330
1F
100
AcDbEntity
  8
VISIBLE
100
AcDbLine
 10
193.6272493435114
 20
137.7749963847981
 30
0.0
 11
193.6272493435114
 21
133.5731162106217
 31
0.0
  0
LINE
  5
285
330
1F
100
AcDbEntity
  8
VISIBLE
100
AcDbLine
 10
115.5552493435114
 20
102.2028662106217
 30
0.0
 11
115.5552493435114
 21
133.5731162106217
 31
0.0
  0
LINE
  5
286
330
1F
100
AcDbEntity
  8
VISIBLE
100
AcDbLine
 10
193.6272493435114
 20
133.5731162106217
 30
0.0
 11
193.6272493435114
 21
131.5731162106218
 31
0.0
  0
LINE
  5
287
330
1F
100
AcDbEntity
  8
VISIBLE
100
AcDbLine
 10
153.9374593435114
 20
125.2428662106217
 30
0.0
 11
136.1574593435114
 21
125.2428662106217
 31
0.0
  0
LINE
  5
288
330
1F
100
AcDbEntity
  8
VISIBLE
100
AcDbLine
 10
195.2209993435114
 20
135.5731162106217
 30
0.0
 11
199.3552493435114
 21
135.5731162106217
 31
0.0
  0
LINE
  5
289
330
1F
100
AcDbEntity
  8
VISIBLE
100
AcDbLine
 10
136.1574593435114
 20
122.7028662106217
 30
0.0
 11
136.1574593435114
 21
125.2428662106217
 31
0.0
  0
LINE
  5
28A
330
1F
100
AcDbEntity
  8
VISIBLE
100
AcDbLine
 10
153.9374593435114
 20
122.7028662106217
 30
0.0
 11
153.9374593435114
 21
125.2428662106217
 31
0.0
  0
LINE
  5
28B
330
1F
100
AcDbEntity
  8
VISIBLE
100
AcDbLine
 10
153.9374593435114
 20
122.7028662106217
 30
0.0
 11
136.1574593435114
 21
122.7028662106217
 31
0.0
  0
LINE
  5
28C
330
1F
100
AcDbEntity
  8
VISIBLE
100
AcDbLine
 10
191.6272493435114
 20
147.2749963847981
 30
0.0
 11
125.2832493435114
 21
147.2749963847981
 31
0.0
  0
LINE
  5
28D
330
1F
100
AcDbEntity
  8
VISIBLE
100
AcDbLine
 10
117.5552493435114
 20
135.5731162106217
 30
0.0
 11
121.6894993435114
 21
135.5731162106217
 31
0.0
  0
ARC
  5
28E
330
1F
100
AcDbEntity
  8
VISIBLE
100
AcDbCircle
 10
125.2832493435114
 20
145.2749963847981
 30
0.0000000000000001
 40
2.0
100
AcDbArc
 50
90.0
 51
180.0
  0
ARC
  5
28F
330
1F
100
AcDbEntity
  8
VISIBLE
100
AcDbCircle
 10
191.6272493435114
 20
145.2749963847981
 30
0.0000000000000001
 40
2.0
100
AcDbArc
 50
0.0
 51
90.0
  0
ARC
  5
290
330
1F
100
AcDbEntity
  8
VISIBLE
100
AcDbCircle
 10
199.3552493435114
 20
133.5731162106217
 30
0.0
 40
2.0
100
AcDbArc
 50
0.0
 51
90.0
  0
ARC
  5
291
330
1F
100
AcDbEntity
  8
VISIBLE
100
AcDbCircle
 10
-194.4241243435114
 20
131.5731162106218
 30
0.0
 40
0.796875
210
0.0
220
0.0
230
-1.0
100
AcDbArc
 50
180.0
 51
0.0
  0
ARC
  5
292
330
1F
100
AcDbEntity
  8
VISIBLE
100
AcDbCircle
 10
-122.4863743435114
 20
131.5731162106218
 30
0.0
 40
0.796875
210
0.0
220
0.0
230
-1.0
100
AcDbArc
 50
180.0
 51
0.0
  0
ARC
  5
293
330
1F
100
AcDbEntity
  8
VISIBLE
100
AcDbCircle
 10
199.3552493435114
 20
102.2028662106217
 30
0.0
 40
2.0
100
AcDbArc
 50
270.0
 51
0.0
  0
ARC
  5
294
330
1F
100
AcDbEntity
  8
VISIBLE
100
AcDbCircle
 10
117.5552493435114
 20
102.2028662106217
 30
0.0
 40
2.0
100
AcDbArc
 50
180.0
 51
270.0
  0
ARC
  5
295
330
1F
100
AcDbEntity
  8
VISIBLE
100
AcDbCircle
 10
117.5552493435114
 20
133.5731162106217
 30
0.0
 40
2.0
100
AcDbArc
 50
90.0
 51
180.0
  0
ENDSEC
  0
SECTION
  2
OBJECTS
  0
DICTIONARY
  5
C
330
0
100
AcDbDictionary
  3
ACAD_FIELDLIST
350
264
  3
ACAD_GROUP
350
D
  3
ACAD_LAYOUT
350
1A
  3
ACAD_MATERIAL
350
43
  3
ACAD_MLEADERSTYLE
350
2E3
  3
ACAD_MLINESTYLE
350
17
  3
ACAD_PLOTSETTINGS
350
19
  3
ACAD_SCALELIST
350
47
  3
ACAD_VISUALSTYLE
350
2A
  3
ACDBHEADERROUNDTRIPXREC
350
2C2
  3
ACDBVARIABLEDICTIONARY
350
6C
  3
ONSHAPE_DATA
350
265
  0
DICTIONARY
  5
A6
330
A5
100
AcDbDictionary
280
     1
  0
DICTIONARY
  5
AD
330
AC
100
AcDbDictionary
280
     1
  0
DICTIONARY
  5
B7
330
B6
100
AcDbDictionary
280
     1
  3
ACAD_MTEXT_RT
360
2EA
  0
DICTIONARY
  5
B9
330
B8
100
AcDbDictionary
280
     1
  3
ACAD_MTEXT_RT
360
2EB
  0
DICTIONARY
  5
2EC
330
C1
100
AcDbDictionary
280
     1
  3
ACAD_MTEXT_RT
360
2ED
  0
DICTIONARY
  5
CF
330
CE
100
AcDbDictionary
280
     1
  3
ACAD_MTEXT_RT
360
2EE
  0
DICTIONARY
  5
D1
330
D0
100
AcDbDictionary
280
     1
  3
ACAD_MTEXT_RT
360
2EF
  0
DICTIONARY
  5
D3
330
D2
100
AcDbDictionary
280
     1
  0
DICTIONARY
  5
DA
330
D9
100
AcDbDictionary
280
     1
  0
DICTIONARY
  5
E1
330
E0
100
AcDbDictionary
280
     1
  3
ACAD_MTEXT_RT
360
2F0
  0
DICTIONARY
  5
E4
330
E3
100
AcDbDictionary
280
     1
  3
ACAD_MTEXT_RT
360
2F1
  0
DICTIONARY
  5
E7
330
E6
100
AcDbDictionary
280
     1
  0
DICTIONARY
  5
F0
330
EF
100
AcDbDictionary
280
     1
  0
DICTIONARY
  5
F9
330
F8
100
AcDbDictionary
280
     1
  3
OS_DIM_DISPLAY_FLAG_DATA
360
FB
  0
DICTIONARY
  5
10E
330
10D
100
AcDbDictionary
280
     1
  3
OS_DIM_DISPLAY_FLAG_DATA
360
111
  0
DICTIONARY
  5
120
330
11F
100
AcDbDictionary
280
     1
  3
OS_DIM_DISPLAY_FLAG_DATA
360
123
  0
DICTIONARY
  5
131
330
130
100
AcDbDictionary
280
     1
  3
OS_DIM_DISPLAY_FLAG_DATA
360
133
  0
DICTIONARY
  5
144
330
143
100
AcDbDictionary
280
     1
  3
OS_DIM_DISPLAY_FLAG_DATA
360
146
  0
DICTIONARY
  5
154
330
153
100
AcDbDictionary
280
     1
  3
OS_DIM_DISPLAY_FLAG_DATA
360
156
  0
DICTIONARY
  5
164
330
163
100
AcDbDictionary
280
     1
  3
OS_DIM_DISPLAY_FLAG_DATA
360
166
  0
DICTIONARY
  5
174
330
173
100
AcDbDictionary
280
     1
  3
OS_DIM_DISPLAY_FLAG_DATA
360
176
  0
DICTIONARY
  5
184
330
183
100
AcDbDictionary
280
     1
  3
OS_DIM_DISPLAY_FLAG_DATA
360
186
  0
DICTIONARY
  5
194
330
193
100
AcDbDictionary
280
     1
  3
OS_DIM_DISPLAY_FLAG_DATA
360
196
  0
DICTIONARY
  5
1A4
330
1A3
100
AcDbDictionary
280
     1
  3
OS_DIM_DISPLAY_FLAG_DATA
360
1A6
  0
DICTIONARY
  5
1B4
330
1B3
100
AcDbDictionary
280
     1
  3
OS_DIM_DISPLAY_FLAG_DATA
360
1B6
  0
DICTIONARY
  5
1C4
330
1C3
100
AcDbDictionary
280
     1
  3
OS_DIM_DISPLAY_FLAG_DATA
360
1C6
  0
DICTIONARY
  5
1D1
330
1D0
100
AcDbDictionary
280
     1
  3
OS_DIM_DISPLAY_FLAG_DATA
360
1D3
  0
DICTIONARY
  5
1E1
330
1E0
100
AcDbDictionary
280
     1
  3
OS_DIM_DISPLAY_FLAG_DATA
360
1E3
  0
DICTIONARY
  5
1F2
330
1F1
100
AcDbDictionary
280
     1
  3
OS_DIM_DISPLAY_FLAG_DATA
360
1F4
  0
DICTIONARY
  5
203
330
202
100
AcDbDictionary
280
     1
  3
OS_DIM_DISPLAY_FLAG_DATA
360
205
  0
DICTIONARY
  5
212
330
211
100
AcDbDictionary
280
     1
  3
OS_DIM_DISPLAY_FLAG_DATA
360
215
  0
DICTIONARY
  5
223
330
222
100
AcDbDictionary
280
     1
  3
OS_DIM_DISPLAY_FLAG_DATA
360
226
  0
DICTIONARY
  5
237
330
236
100
AcDbDictionary
280
     1
  3
OS_DIM_DISPLAY_FLAG_DATA
360
239
  0
DICTIONARY
  5
246
330
245
100
AcDbDictionary
280
     1
  3
OS_DIM_DISPLAY_FLAG_DATA
360
248
  0
DICTIONARY
  5
256
330
255
100
AcDbDictionary
280
     1
  3
OS_DIM_DISPLAY_FLAG_DATA
360
258
  0
ACAD_PROXY_OBJECT
  5
264
102
{ACAD_REACTORS
330
C
102
}
330
C
100
AcDbProxyObject
 90
      499
 91
      509
 93
        3
310
80
  0
DICTIONARY
  5
D
102
{ACAD_REACTORS
330
C
102
}
330
C
100
AcDbDictionary
  0
DICTIONARY
  5
1A
102
{ACAD_REACTORS
330
C
102
}
330
C
100
AcDbDictionary
  0
DICTIONARY
  5
43
102
{ACAD_REACTORS
330
C
102
}
330
C
100
AcDbDictionary
  3
BYBLOCK
350
45
  3
BYLAYER
350
44
  3
GLOBAL
350
46
  0
DICTIONARY
  5
2E3
102
{ACAD_REACTORS
330
C
102
}
330
C
100
AcDbDictionary
  0
DICTIONARY
  5
17
102
{ACAD_REACTORS
330
C
102
}
330
C
100
AcDbDictionary
  3
STANDARD
350
18
  0
DICTIONARY
  5
19
102
{ACAD_REACTORS
330
C
102
}
330
C
100
AcDbDictionary
  0
DICTIONARY
  5
47
102
{ACAD_REACTORS
330
C
102
}
330
C
100
AcDbDictionary
  3
A0
350
48
  3
A1
350
49
  3
A2
350
4A
  3
A3
350
4B
  3
A4
350
4C
  3
A5
350
4D
  3
A6
350
4E
  3
A7
350
4F
  3
A8
350
50
  3
A9
350
51
  3
B0
350
52
  3
B1
350
53
  3
B2
350
54
  3
B3
350
55
  3
B4
350
56
  3
B5
350
57
  3
B6
350
58
  3
B7
350
59
  3
B8
350
5A
  3
B9
350
5B
  3
C0
350
5C
  3
C1
350
5D
  3
C2
350
5E
  3
C3
350
5F
  3
C4
350
60
  3
C5
350
61
  3
C6
350
62
  3
C7
350
63
  3
C8
350
64
  3
C9
350
65
  3
D0
350
66
  3
D1
350
67
  3
D2
350
68
  0
DICTIONARY
  5
2A
102
{ACAD_REACTORS
330
C
102
}
330
C
100
AcDbDictionary
  3
2DWIREFRAME
350
2F
  3
BASIC
350
32
  3
BRIGHTEN
350
36
  3
COLORCHANGE
350
3A
  3
CONCEPTUAL
350
34
  3
DIM
350
35
  3
EDGECOLOROFF
350
3D
  3
FACEPATTERN
350
39
  3
FLAT
350
2B
  3
FLATWITHEDGES
350
2C
  3
GOURAUD
350
2D
  3
GOURAUDWITHEDGES
350
2E
  3
HIDDEN
350
31
  3
JITTEROFF
350
3B
  3
LINEPATTERN
350
38
  3
OVERHANGOFF
350
3C
  3
REALISTIC
350
33
  3
SHADED
350
42
  3
SHADED_WITH_EDGES
350
41
  3
SHADES_OF_GRAY
350
3E
  3
SKETCHY
350
3F
  3
THICKEN
350
37
  3
WIREFRAME
350
30
  3
X-RAY
350
40
  0
DICTIONARY
  5
2C2
102
{ACAD_REACTORS
330
C
102
}
330
C
100
AcDbDictionary
  3
CEPSNTYPE
350
2CB
  3
DIMSTYLEDATA
350
2E1
  3
FINGERPRINTGUID
350
2CC
  3
HYPERLINKBASE
350
2C5
  3
INSUNITS
350
2CA
  3
LAYOUTDICT
350
2C7
  3
LWETCUNION
350
2C9
  3
PLOTSETDICT
350
2C8
  3
PSVPSCALE
350
2CE
  3
PUCSBASE
350
2D1
  3
PUCSORGBACK
350
2D7
  3
PUCSORGBOTTOM
350
2D3
  3
PUCSORGFRONT
350
2D6
  3
PUCSORGLEFT
350
2D4
  3
PUCSORGRIGHT
350
2D5
  3
PUCSORGTOP
350
2D2
  3
PUCSORTHOREF
350
2CF
  3
PUCSORTHOVIEW
350
2D0
  3
STYLESHEET
350
2C6
  3
TSTACKALIGN
350
2C3
  3
TSTACKSIZE
350
2C4
  3
UCSBASE
350
2DA
  3
UCSORGBACK
350
2E0
  3
UCSORGBOTTOM
350
2DC
  3
UCSORGFRONT
350
2DF
  3
UCSORGLEFT
350
2DD
  3
UCSORGRIGHT
350
2DE
  3
UCSORGTOP
350
2DB
  3
UCSORTHOREF
350
2D8
  3
UCSORTHOVIEW
350
2D9
  3
VERSIONGUID
350
2CD
  0
DICTIONARY
  5
6C
102
{ACAD_REACTORS
330
C
102
}
330
C
100
AcDbDictionary
  3
CANNOSCALE
350
2F2
  3
CTABLESTYLE
350
2E2
  3
DIMASSOC
350
2E8
  3
HIDETEXT
350
2E9
  3
MSLTSCALE
350
2F3
  3
OLEFRAME
350
6D
  3
PSOLHEIGHT
350
2E5
  3
PSOLWIDTH
350
2E4
  0
DICTIONARY
  5
265
102
{ACAD_REACTORS
330
C
102
}
330
C
100
AcDbDictionary
280
     1
  3
DIM_UNITS
360
297
  3
ONSHAPE_VSHARP_EXTENSION
360
299
  3
ONSHAPE_WELD_STANDARD
360
298
  0
XRECORD
  5
2EA
102
{ACAD_REACTORS
330
B7
102
}
330
B7
100
AcDbXrecord
 40
11003.0
  1
{\pxqc;Alois Mbutura}
  0
XRECORD
  5
2EB
102
{ACAD_REACTORS
330
B9
102
}
330
B9
100
AcDbXrecord
 40
4119.0
  1
{\pxqc;2019-02-27}
  0
XRECORD
  5
2ED
102
{ACAD_REACTORS
330
2EC
102
}
330
2EC
100
AcDbXrecord
 40
5482.0
  1
{\pxqc;Aluminum }
  0
XRECORD
  5
2EE
102
{ACAD_REACTORS
330
CF
102
}
330
CF
100
AcDbXrecord
 40
4937.0
  1
{\pxqc;Kaiote AQ}
  0
XRECORD
  5
2EF
102
{ACAD_REACTORS
330
D1
102
}
330
D1
100
AcDbXrecord
 40
21814.0
  1
{\pxqc;Enclosure backplate}
  0
XRECORD
  5
2F0
102
{ACAD_REACTORS
330
E1
102
}
330
E1
100
AcDbXrecord
 40
300.0
  1
{\pxqc;2}
  0
XRECORD
  5
2F1
102
{ACAD_REACTORS
330
E4
102
}
330
E4
100
AcDbXrecord
 40
299.0
  1
{\pxqc;1}
  0
XRECORD
  5
FB
102
{ACAD_REACTORS
330
F9
102
}
330
F9
100
AcDbXrecord
 90
        1
 90
        0
  0
XRECORD
  5
111
102
{ACAD_REACTORS
330
10E
102
}
330
10E
100
AcDbXrecord
 90
        1
 90
        0
  0
XRECORD
  5
123
102
{ACAD_REACTORS
330
120
102
}
330
120
100
AcDbXrecord
 90
        1
 90
        0
  0
XRECORD
  5
133
102
{ACAD_REACTORS
330
131
102
}
330
131
100
AcDbXrecord
 90
        1
 90
        0
  0
XRECORD
  5
146
102
{ACAD_REACTORS
330
144
102
}
330
144
100
AcDbXrecord
 90
        1
 90
        0
  0
XRECORD
  5
156
102
{ACAD_REACTORS
330
154
102
}
330
154
100
AcDbXrecord
 90
        1
 90
        0
  0
XRECORD
  5
166
102
{ACAD_REACTORS
330
164
102
}
330
164
100
AcDbXrecord
 90
        1
 90
        0
  0
XRECORD
  5
176
102
{ACAD_REACTORS
330
174
102
}
330
174
100
AcDbXrecord
 90
        1
 90
        0
  0
XRECORD
  5
186
102
{ACAD_REACTORS
330
184
102
}
330
184
100
AcDbXrecord
 90
        1
 90
        0
  0
XRECORD
  5
196
102
{ACAD_REACTORS
330
194
102
}
330
194
100
AcDbXrecord
 90
        1
 90
        0
  0
XRECORD
  5
1A6
102
{ACAD_REACTORS
330
1A4
102
}
330
1A4
100
AcDbXrecord
 90
        1
 90
        0
  0
XRECORD
  5
1B6
102
{ACAD_REACTORS
330
1B4
102
}
330
1B4
100
AcDbXrecord
 90
        1
 90
        0
  0
XRECORD
  5
1C6
102
{ACAD_REACTORS
330
1C4
102
}
330
1C4
100
AcDbXrecord
 90
        1
 90
        0
  0
XRECORD
  5
1D3
102
{ACAD_REACTORS
330
1D1
102
}
330
1D1
100
AcDbXrecord
 90
        1
 90
        0
  0
XRECORD
  5
1E3
102
{ACAD_REACTORS
330
1E1
102
}
330
1E1
100
AcDbXrecord
 90
        1
 90
        0
  0
XRECORD
  5
1F4
102
{ACAD_REACTORS
330
1F2
102
}
330
1F2
100
AcDbXrecord
 90
        1
 90
        0
  0
XRECORD
  5
205
102
{ACAD_REACTORS
330
203
102
}
330
203
100
AcDbXrecord
 90
        1
 90
        0
  0
XRECORD
  5
215
102
{ACAD_REACTORS
330
212
102
}
330
212
100
AcDbXrecord
 90
        1
 90
        0
  0
XRECORD
  5
226
102
{ACAD_REACTORS
330
223
102
}
330
223
100
AcDbXrecord
 90
        1
 90
        0
  0
XRECORD
  5
239
102
{ACAD_REACTORS
330
237
102
}
330
237
100
AcDbXrecord
 90
        1
 90
        0
  0
XRECORD
  5
248
102
{ACAD_REACTORS
330
246
102
}
330
246
100
AcDbXrecord
 90
        1
 90
        0
  0
XRECORD
  5
258
102
{ACAD_REACTORS
330
256
102
}
330
256
100
AcDbXrecord
 90
        1
 90
        0
  0
MATERIAL
  5
45
102
{ACAD_REACTORS
330
43
102
}
102
{ACAD_XDICTIONARY
360
2F6
102
}
330
43
100
AcDbMaterial
  1
BYBLOCK
  0
MATERIAL
  5
44
102
{ACAD_REACTORS
330
43
102
}
102
{ACAD_XDICTIONARY
360
2F4
102
}
330
43
100
AcDbMaterial
  1
BYLAYER
  0
MATERIAL
  5
46
102
{ACAD_REACTORS
330
43
102
}
102
{ACAD_XDICTIONARY
360
2F8
102
}
330
43
100
AcDbMaterial
  1
GLOBAL
  0
MLINESTYLE
  5
18
102
{ACAD_REACTORS
330
17
102
}
330
17
100
AcDbMlineStyle
  2
Standard
 70
     0
  3

 62
   256
 51
90.0
 52
90.0
 71
     2
 49
0.5
 62
   256
  6
BYLAYER
 49
-0.5
 62
   256
  6
BYLAYER
  0
ACAD_PROXY_OBJECT
  5
48
102
{ACAD_REACTORS
330
47
102
}
330
47
100
AcDbProxyObject
 90
      499
 91
      503
 93
       41
310
903313A31580
  0
ACAD_PROXY_OBJECT
  5
49
102
{ACAD_REACTORS
330
47
102
}
330
47
100
AcDbProxyObject
 90
      499
 91
      503
 93
      105
310
903313A324000000000000004000
  0
ACAD_PROXY_OBJECT
  5
4A
102
{ACAD_REACTORS
330
47
102
}
330
47
100
AcDbProxyObject
 90
      499
 91
      503
 93
      105
310
903313A344000000000000104000
  0
ACAD_PROXY_OBJECT
  5
4B
102
{ACAD_REACTORS
330
47
102
}
330
47
100
AcDbProxyObject
 90
      499
 91
      503
 93
      105
310
903313A354000000000000144000
  0
ACAD_PROXY_OBJECT
  5
4C
102
{ACAD_REACTORS
330
47
102
}
330
47
100
AcDbProxyObject
 90
      499
 91
      503
 93
      105
310
903313A384000000000000204000
  0
ACAD_PROXY_OBJECT
  5
4D
102
{ACAD_REACTORS
330
47
102
}
330
47
100
AcDbProxyObject
 90
      499
 91
      503
 93
      113
310
904313A31304000000000000244000
  0
ACAD_PROXY_OBJECT
  5
4E
102
{ACAD_REACTORS
330
47
102
}
330
47
100
AcDbProxyObject
 90
      499
 91
      503
 93
      113
310
904313A31364000000000000304000
  0
ACAD_PROXY_OBJECT
  5
4F
102
{ACAD_REACTORS
330
47
102
}
330
47
100
AcDbProxyObject
 90
      499
 91
      503
 93
      113
310
904313A32304000000000000344000
  0
ACAD_PROXY_OBJECT
  5
50
102
{ACAD_REACTORS
330
47
102
}
330
47
100
AcDbProxyObject
 90
      499
 91
      503
 93
      113
310
904313A333040000000000003E4000
  0
ACAD_PROXY_OBJECT
  5
51
102
{ACAD_REACTORS
330
47
102
}
330
47
100
AcDbProxyObject
 90
      499
 91
      503
 93
      113
310
904313A34304000000000000444000
  0
ACAD_PROXY_OBJECT
  5
52
102
{ACAD_REACTORS
330
47
102
}
330
47
100
AcDbProxyObject
 90
      499
 91
      503
 93
      113
310
904313A35304000000000000494000
  0
ACAD_PROXY_OBJECT
  5
53
102
{ACAD_REACTORS
330
47
102
}
330
47
100
AcDbProxyObject
 90
      499
 91
      503
 93
      121
310
905313A3130304000000000000594000
  0
ACAD_PROXY_OBJECT
  5
54
102
{ACAD_REACTORS
330
47
102
}
330
47
100
AcDbProxyObject
 90
      499
 91
      503
 93
      105
310
903323A310000000000000010100
  0
ACAD_PROXY_OBJECT
  5
55
102
{ACAD_REACTORS
330
47
102
}
330
47
100
AcDbProxyObject
 90
      499
 91
      503
 93
      105
310
903343A310000000000000410100
  0
ACAD_PROXY_OBJECT
  5
56
102
{ACAD_REACTORS
330
47
102
}
330
47
100
AcDbProxyObject
 90
      499
 91
      503
 93
      105
310
903383A310000000000000810100
  0
ACAD_PROXY_OBJECT
  5
57
102
{ACAD_REACTORS
330
47
102
}
330
47
100
AcDbProxyObject
 90
      499
 91
      503
 93
      113
310
90431303A310000000000000910100
  0
ACAD_PROXY_OBJECT
  5
58
102
{ACAD_REACTORS
330
47
102
}
330
47
100
AcDbProxyObject
 90
      499
 91
      503
 93
      121
310
9053130303A310000000000001650100
  0
ACAD_PROXY_OBJECT
  5
59
102
{ACAD_REACTORS
330
47
102
}
330
47
100
AcDbProxyObject
 90
      499
 91
      503
 93
      257
310
90E312F31323822203D2031272D3022000000000000200FC000000000000284000
  0
ACAD_PROXY_OBJECT
  5
5A
102
{ACAD_REACTORS
330
47
102
}
330
47
100
AcDbProxyObject
 90
      499
 91
      503
 93
      249
310
90D312F363422203D2031272D3022000000000000240FC000000000000284000
  0
ACAD_PROXY_OBJECT
  5
5B
102
{ACAD_REACTORS
330
47
102
}
330
47
100
AcDbProxyObject
 90
      499
 91
      503
 93
      249
310
90D312F333222203D2031272D3022000000000000280FC000000000000284000
  0
ACAD_PROXY_OBJECT
  5
5C
102
{ACAD_REACTORS
330
47
102
}
330
47
100
AcDbProxyObject
 90
      499
 91
      503
 93
      249
310
90D312F313622203D2031272D30220000000000002C0FC000000000000284000
  0
ACAD_PROXY_OBJECT
  5
5D
102
{ACAD_REACTORS
330
47
102
}
330
47
100
AcDbProxyObject
 90
      499
 91
      503
 93
      249
310
90D332F333222203D2031272D30220000000000002E0FC000000000000284000
  0
ACAD_PROXY_OBJECT
  5
5E
102
{ACAD_REACTORS
330
47
102
}
330
47
100
AcDbProxyObject
 90
      499
 91
      503
 93
      241
310
90C312F3822203D2031272D3022000000000000300FC000000000000284000
  0
ACAD_PROXY_OBJECT
  5
5F
102
{ACAD_REACTORS
330
47
102
}
330
47
100
AcDbProxyObject
 90
      499
 91
      503
 93
      249
310
90D332F313622203D2031272D3022000000000000320FC000000000000284000
  0
ACAD_PROXY_OBJECT
  5
60
102
{ACAD_REACTORS
330
47
102
}
330
47
100
AcDbProxyObject
 90
      499
 91
      503
 93
      241
310
90C312F3422203D2031272D3022000000000000340FC000000000000284000
  0
ACAD_PROXY_OBJECT
  5
61
102
{ACAD_REACTORS
330
47
102
}
330
47
100
AcDbProxyObject
 90
      499
 91
      503
 93
      241
310
90C332F3822203D2031272D3022000000000000360FC000000000000284000
  0
ACAD_PROXY_OBJECT
  5
62
102
{ACAD_REACTORS
330
47
102
}
330
47
100
AcDbProxyObject
 90
      499
 91
      503
 93
      241
310
90C312F3222203D2031272D3022000000000000380FC000000000000284000
  0
ACAD_PROXY_OBJECT
  5
63
102
{ACAD_REACTORS
330
47
102
}
330
47
100
AcDbProxyObject
 90
      499
 91
      503
 93
      241
310
90C332F3422203D2031272D30220000000000003A0FC000000000000284000
  0
ACAD_PROXY_OBJECT
  5
64
102
{ACAD_REACTORS
330
47
102
}
330
47
100
AcDbProxyObject
 90
      499
 91
      503
 93
      161
310
90A3122203D2031272D30224000000000000284000
  0
ACAD_PROXY_OBJECT
  5
65
102
{ACAD_REACTORS
330
47
102
}
330
47
100
AcDbProxyObject
 90
      499
 91
      503
 93
      257
310
90E312D312F3222203D2031272D30220000000000003E0FC000000000000284000
  0
ACAD_PROXY_OBJECT
  5
66
102
{ACAD_REACTORS
330
47
102
}
330
47
100
AcDbProxyObject
 90
      499
 91
      503
 93
      225
310
90A3322203D2031272D302200000000000002100000000000000284000
  0
ACAD_PROXY_OBJECT
  5
67
102
{ACAD_REACTORS
330
47
102
}
330
47
100
AcDbProxyObject
 90
      499
 91
      503
 93
      225
310
90A3622203D2031272D302200000000000006100000000000000284000
  0
ACAD_PROXY_OBJECT
  5
68
102
{ACAD_REACTORS
330
47
102
}
330
47
100
AcDbProxyObject
 90
      499
 91
      503
 93
      249
310
90D31272D3022203D2031272D30220000000000000A100000000000000284000
  0
ACAD_PROXY_OBJECT
  5
2F
102
{ACAD_REACTORS
330
2A
102
}
330
2A
100
AcDbProxyObject
 90
      499
 91
      501
 93
      436
310
42CC9915DA5C99599C985B595049028333333333333E33F0000000000000F90107901411070040501600405405064090741402480A0340
1001
ACAD
1000
AcDbSavedByObjectVersion
1070
     0
  0
ACAD_PROXY_OBJECT
  5
32
102
{ACAD_REACTORS
330
2A
102
}
330
2A
100
AcDbProxyObject
 90
      499
 91
      501
 93
      388
310
4150985CDA58D07406404333333333333E33F0000000000000F90107A41107004050150841D405064090741402480A0350
1001
ACAD
1000
AcDbSavedByObjectVersion
1070
     0
  0
ACAD_PROXY_OBJECT
  5
36
102
{ACAD_REACTORS
330
2A
102
}
330
2A
100
AcDbProxyObject
 90
      499
 91
      501
 93
      428
310
42109C9A59DA1D195B90C409028333333333333E33F0000000000000F9010790141107004050150841D405064090741402480A029950
1001
ACAD
1000
AcDbSavedByObjectVersion
1070
     0
  0
ACAD_PROXY_OBJECT
  5
3A
102
{ACAD_REACTORS
330
2A
102
}
330
2A
100
AcDbProxyObject
 90
      499
 91
      501
 93
      452
310
42D0DBDB1BDC90DA185B99D95104090240C333333333333E33F0000000000000F90108901411070040501508421405064090741402480A0350
1001
ACAD
1000
AcDbSavedByObjectVersion
1070
     0
  0
ACAD_PROXY_OBJECT
  5
34
102
{ACAD_REACTORS
330
2A
102
}
330
2A
100
AcDbProxyObject
 90
      499
 91
      501
 93
      500
310
4290DBDB98D95C1D1D585B10940D028333333333333E33F0000000000000F90107902409070040501000000000018199010841D405064090740C02480A0340
1001
ACAD
1000
AcDbSavedByObjectVersion
1070
     0
  0
ACAD_PROXY_OBJECT
  5
35
102
{ACAD_REACTORS
330
2A
102
}
330
2A
100
AcDbProxyObject
 90
      499
 91
      501
 93
      412
310
40D11A5B50B409028333333333333E33F0000000000000F9010790141107004050150841D405064090741402480A02677FFFFFD0
1001
ACAD
1000
AcDbSavedByObjectVersion
1070
     0
  0
ACAD_PROXY_OBJECT
  5
3D
102
{ACAD_REACTORS
330
2A
102
}
330
2A
100
AcDbProxyObject
 90
      499
 91
      501
 93
      452
310
43115919D950DBDB1BDC93D999916409028333333333333E33F0000000000000F9010790141107004050150841D405064090741402480A0350
1001
ACAD
1000
AcDbSavedByObjectVersion
1070
     0
  0
ACAD_PROXY_OBJECT
  5
39
102
{ACAD_REACTORS
330
2A
102
}
330
2A
100
AcDbProxyObject
 90
      499
 91
      501
 93
      444
310
42D19858D95C185D1D195C9B90F409028333333333333E33F0000000000000F9010790141107004050150841D405064090741402480A0350
1001
ACAD
1000
AcDbSavedByObjectVersion
1070
     0
  0
ACAD_PROXY_OBJECT
  5
2B
102
{ACAD_REACTORS
330
2A
102
}
330
2A
100
AcDbProxyObject
 90
      499
 91
      501
 93
      380
310
41119B185D240901404333333333333E33F0000000000000F9010740A907004050150841D405064090741402480A1B50
1001
ACAD
1000
AcDbSavedByObjectVersion
1070
     0
  0
ACAD_PROXY_OBJECT
  5
2C
102
{ACAD_REACTORS
330
2A
102
}
330
2A
100
AcDbProxyObject
 90
      499
 91
      501
 93
      468
310
43519B185D15DA5D1A115919D95CD0140901404333333333333E33F0000000000000F90107409019070040501600405405064090741402480A1B50
1001
ACAD
1000
AcDbSavedByObjectVersion
1070
     0
  0
ACAD_PROXY_OBJECT
  5
2D
102
{ACAD_REACTORS
330
2A
102
}
330
2A
100
AcDbProxyObject
 90
      499
 91
      501
 93
      404
310
41D1DBDD5C985D5910240902404333333333333E33F0000000000000F9010740A9070040501641D405064090741402480A1B50
1001
ACAD
1000
AcDbSavedByObjectVersion
1070
     0
  0
ACAD_PROXY_OBJECT
  5
2E
102
{ACAD_REACTORS
330
2A
102
}
330
2A
100
AcDbProxyObject
 90
      499
 91
      501
 93
      492
310
4411DBDD5C985D5915DA5D1A115919D95CD0340902404333333333333E33F0000000000000F90107409019070040501600405405064090741402480A1B50
1001
ACAD
1000
AcDbSavedByObjectVersion
1070
     0
  0
ACAD_PROXY_OBJECT
  5
31
102
{ACAD_REACTORS
330
2A
102
}
330
2A
100
AcDbProxyObject
 90
      499
 91
      501
 93
      476
310
41921A5919195B90640502408333333333333E33F0000000000000F901079024090700405020000000000001110200405405064090740C02480A0340
1001
ACAD
1000
AcDbSavedByObjectVersion
1070
     0
  0
ACAD_PROXY_OBJECT
  5
3B
102
{ACAD_REACTORS
330
2A
102
}
330
2A
100
AcDbProxyObject
 90
      499
 91
      501
 93
      428
310
42529A5D1D195C93D999914409028333333333333E33F0000000000000F9010790141107004050150A41D405064090741402480A0350
1001
ACAD
1000
AcDbSavedByObjectVersion
1070
     0
  0
ACAD_PROXY_OBJECT
  5
38
102
{ACAD_REACTORS
330
2A
102
}
330
2A
100
AcDbProxyObject
 90
      499
 91
      501
 93
      444
310
42D31A5B995C185D1D195C9B90E409028333333333333E33F0000000000000F9010790141107004050750841D405064090741402483A0350
1001
ACAD
1000
AcDbSavedByObjectVersion
1070
     0
  0
ACAD_PROXY_OBJECT
  5
3C
102
{ACAD_REACTORS
330
2A
102
}
330
2A
100
AcDbProxyObject
 90
      499
 91
      501
 93
      444
310
42D3DD995C9A185B99D3D999915409028333333333333E33F0000000000000F9010790141107004050150941D405064090741402480A0350
1001
ACAD
1000
AcDbSavedByObjectVersion
1070
     0
  0
ACAD_PROXY_OBJECT
  5
33
102
{ACAD_REACTORS
330
2A
102
}
330
2A
100
AcDbProxyObject
 90
      499
 91
      501
 93
      428
310
425499585B1A5CDD1A58D08409038333333333333E33F0000000000000F9010740A907004050150800405405064090740C02480A1B40
1001
ACAD
1000
AcDbSavedByObjectVersion
1070
     0
  0
ACAD_PROXY_OBJECT
  5
42
102
{ACAD_REACTORS
330
2A
102
}
330
2A
100
AcDbProxyObject
 90
      499
 91
      501
 93
      420
310
4194DA1859195911B40902404333333333333E33F0000000000000F9010740A41107004050150800405405064090840C02480A0B40
1001
ACAD
1000
AcDbSavedByObjectVersion
1070
     0
  0
ACAD_PROXY_OBJECT
  5
41
102
{ACAD_REACTORS
330
2A
102
}
330
2A
100
AcDbProxyObject
 90
      499
 91
      501
 93
      516
310
4454DA18591959081DDA5D1A08195919D95CD1A40902404333333333333E33F0000000000000F901074090142907004050250800405405064090740C02480A0B40
1001
ACAD
1000
AcDbSavedByObjectVersion
1070
     0
  0
ACAD_PROXY_OBJECT
  5
3E
102
{ACAD_REACTORS
330
2A
102
}
330
2A
100
AcDbProxyObject
 90
      499
 91
      501
 93
      532
310
4394DA1859195CC81BD98811DC985E5174090240C333333333333E33F0000000000000F901079024090741D01000000000000111010841D405064090740C02480A0340
1001
ACAD
1000
AcDbSavedByObjectVersion
1070
     0
  0
ACAD_PROXY_OBJECT
  5
3F
102
{ACAD_REACTORS
330
2A
102
}
330
2A
100
AcDbProxyObject
 90
      499
 91
      501
 93
      476
310
41D4DAD95D18DA1E51840502408333333333333E33F0000000000000F901079024090741D01000000000000111010B41D405064090741802480A0340
1001
ACAD
1000
AcDbSavedByObjectVersion
1070
     0
  0
ACAD_PROXY_OBJECT
  5
37
102
{ACAD_REACTORS
330
2A
102
}
330
2A
100
AcDbProxyObject
 90
      499
 91
      501
 93
      412
310
41D51A1A58DAD95B90D409028333333333333E33F0000000000000F9010790141107004050150C41D405064090741402480A0350
1001
ACAD
1000
AcDbSavedByObjectVersion
1070
     0
  0
ACAD_PROXY_OBJECT
  5
30
102
{ACAD_REACTORS
330
2A
102
}
330
2A
100
AcDbProxyObject
 90
      499
 91
      501
 93
      420
310
4255DA5C99599C985B595059028333333333333E33F0000000000000F90107901411070040501600405405064090740C02480A0340
1001
ACAD
1000
AcDbSavedByObjectVersion
1070
     0
  0
ACAD_PROXY_OBJECT
  5
40
102
{ACAD_REACTORS
330
2A
102
}
330
2A
100
AcDbProxyObject
 90
      499
 91
      501
 93
      404
310
41560B54985E51940902404000000000000E03F0000000000000F9010740501907004050150841D405064090740C02480A1B40
1001
ACAD
1000
AcDbSavedByObjectVersion
1070
     0
  0
XRECORD
  5
2CB
102
{ACAD_REACTORS
330
2C2
102
}
330
2C2
100
AcDbXrecord
 90
        0
  0
XRECORD
  5
2E1
102
{ACAD_REACTORS
330
2C2
102
}
330
2C2
100
AcDbXrecord
1000
DSTYLE
1002
{
1070
   179
 70
     1
1070
   143
 40
0.03937
1070
   285
 70
     8
1070
   176
 70
     7
1070
   177
 70
     7
1070
   178
 70
     7
1070
   371
 70
    13
1070
   372
 70
    13
1070
   340
340
71
1070
   140
 40
3.5
1070
   288
 70
     1
1002
}
  0
XRECORD
  5
2CC
102
{ACAD_REACTORS
330
2C2
102
}
330
2C2
100
AcDbXrecord
  1
{E25A47CD-1D0D-7800-1BCA-475D06B6F2F2}
  0
XRECORD
  5
2C5
102
{ACAD_REACTORS
330
2C2
102
}
330
2C2
100
AcDbXrecord
  1

  0
XRECORD
  5
2CA
102
{ACAD_REACTORS
330
2C2
102
}
330
2C2
100
AcDbXrecord
 90
        4
  0
XRECORD
  5
2C7
102
{ACAD_REACTORS
330
2C2
102
}
330
2C2
100
AcDbXrecord
340
1A
  0
XRECORD
  5
2C9
102
{ACAD_REACTORS
330
2C2
102
}
330
2C2
100
AcDbXrecord
 90
    10269
  0
XRECORD
  5
2C8
102
{ACAD_REACTORS
330
2C2
102
}
330
2C2
100
AcDbXrecord
340
19
  0
XRECORD
  5
2CE
102
{ACAD_REACTORS
330
2C2
102
}
330
2C2
100
AcDbXrecord
 40
0.0
  0
XRECORD
  5
2D1
102
{ACAD_REACTORS
330
2C2
102
}
330
2C2
100
AcDbXrecord
340
0
  0
XRECORD
  5
2D7
102
{ACAD_REACTORS
330
2C2
102
}
330
2C2
100
AcDbXrecord
 10
0.0
 20
0.0
 30
0.0
  0
XRECORD
  5
2D3
102
{ACAD_REACTORS
330
2C2
102
}
330
2C2
100
AcDbXrecord
 10
0.0
 20
0.0
 30
0.0
  0
XRECORD
  5
2D6
102
{ACAD_REACTORS
330
2C2
102
}
330
2C2
100
AcDbXrecord
 10
0.0
 20
0.0
 30
0.0
  0
XRECORD
  5
2D4
102
{ACAD_REACTORS
330
2C2
102
}
330
2C2
100
AcDbXrecord
 10
0.0
 20
0.0
 30
0.0
  0
XRECORD
  5
2D5
102
{ACAD_REACTORS
330
2C2
102
}
330
2C2
100
AcDbXrecord
 10
0.0
 20
0.0
 30
0.0
  0
XRECORD
  5
2D2
102
{ACAD_REACTORS
330
2C2
102
}
330
2C2
100
AcDbXrecord
 10
0.0
 20
0.0
 30
0.0
  0
XRECORD
  5
2CF
102
{ACAD_REACTORS
330
2C2
102
}
330
2C2
100
AcDbXrecord
340
0
  0
XRECORD
  5
2D0
102
{ACAD_REACTORS
330
2C2
102
}
330
2C2
100
AcDbXrecord
 70
     0
  0
XRECORD
  5
2C6
102
{ACAD_REACTORS
330
2C2
102
}
330
2C2
100
AcDbXrecord
  1

  0
XRECORD
  5
2C3
102
{ACAD_REACTORS
330
2C2
102
}
330
2C2
100
AcDbXrecord
 90
        1
  0
XRECORD
  5
2C4
102
{ACAD_REACTORS
330
2C2
102
}
330
2C2
100
AcDbXrecord
 90
       70
  0
XRECORD
  5
2DA
102
{ACAD_REACTORS
330
2C2
102
}
330
2C2
100
AcDbXrecord
340
0
  0
XRECORD
  5
2E0
102
{ACAD_REACTORS
330
2C2
102
}
330
2C2
100
AcDbXrecord
 10
0.0
 20
0.0
 30
0.0
  0
XRECORD
  5
2DC
102
{ACAD_REACTORS
330
2C2
102
}
330
2C2
100
AcDbXrecord
 10
0.0
 20
0.0
 30
0.0
  0
XRECORD
  5
2DF
102
{ACAD_REACTORS
330
2C2
102
}
330
2C2
100
AcDbXrecord
 10
0.0
 20
0.0
 30
0.0
  0
XRECORD
  5
2DD
102
{ACAD_REACTORS
330
2C2
102
}
330
2C2
100
AcDbXrecord
 10
0.0
 20
0.0
 30
0.0
  0
XRECORD
  5
2DE
102
{ACAD_REACTORS
330
2C2
102
}
330
2C2
100
AcDbXrecord
 10
0.0
 20
0.0
 30
0.0
  0
XRECORD
  5
2DB
102
{ACAD_REACTORS
330
2C2
102
}
330
2C2
100
AcDbXrecord
 10
0.0
 20
0.0
 30
0.0
  0
XRECORD
  5
2D8
102
{ACAD_REACTORS
330
2C2
102
}
330
2C2
100
AcDbXrecord
340
0
  0
XRECORD
  5
2D9
102
{ACAD_REACTORS
330
2C2
102
}
330
2C2
100
AcDbXrecord
 70
     0
  0
XRECORD
  5
2CD
102
{ACAD_REACTORS
330
2C2
102
}
330
2C2
100
AcDbXrecord
  1
{FAEB1C32-E019-11D5-929B-00C0DF256EC4}
  0
DICTIONARYVAR
  5
2F2
102
{ACAD_REACTORS
330
6C
102
}
330
6C
100
DictionaryVariables
280
     0
  1
1:1
  0
DICTIONARYVAR
  5
2E2
102
{ACAD_REACTORS
330
6C
102
}
330
6C
100
DictionaryVariables
280
     0
  1
Onshape-Standard
  0
DICTIONARYVAR
  5
2E8
102
{ACAD_REACTORS
330
6C
102
}
330
6C
100
DictionaryVariables
280
     0
  1
2
  0
DICTIONARYVAR
  5
2E9
102
{ACAD_REACTORS
330
6C
102
}
330
6C
100
DictionaryVariables
280
     0
  1
1
  0
DICTIONARYVAR
  5
2F3
102
{ACAD_REACTORS
330
6C
102
}
330
6C
100
DictionaryVariables
280
     0
  1
1
  0
DICTIONARYVAR
  5
6D
102
{ACAD_REACTORS
330
6C
102
}
330
6C
100
DictionaryVariables
280
     0
  1
0
  0
DICTIONARYVAR
  5
2E5
102
{ACAD_REACTORS
330
6C
102
}
330
6C
100
DictionaryVariables
280
     0
  1
80.000000
  0
DICTIONARYVAR
  5
2E4
102
{ACAD_REACTORS
330
6C
102
}
330
6C
100
DictionaryVariables
280
     0
  1
5.000000
  0
XRECORD
  5
297
102
{ACAD_REACTORS
330
265
102
}
330
265
100
AcDbXrecord
 70
     4
  0
XRECORD
  5
299
102
{ACAD_REACTORS
330
265
102
}
330
265
100
AcDbXrecord
 90
        0
  0
XRECORD
  5
298
102
{ACAD_REACTORS
330
265
102
}
330
265
100
AcDbXrecord
 90
        1
  0
DICTIONARY
  5
2F6
330
45
100
AcDbDictionary
280
     1
  3
ACAD_XREC_ROUNDTRIP
360
2F7
  0
DICTIONARY
  5
2F4
330
44
100
AcDbDictionary
280
     1
  3
ACAD_XREC_ROUNDTRIP
360
2F5
  0
DICTIONARY
  5
2F8
330
46
100
AcDbDictionary
280
     1
  3
ACAD_XREC_ROUNDTRIP
360
2F9
  0
XRECORD
  5
2F7
102
{ACAD_REACTORS
330
2F6
102
}
330
2F6
100
AcDbXrecord
102
MATERIAL
148
0.0
149
0.0
149
0.0
 93
        0
 94
      127
282
     0
 72
     1
 77
     1
171
     1
175
     1
179
     1
273
     0
  0
XRECORD
  5
2F5
102
{ACAD_REACTORS
330
2F4
102
}
330
2F4
100
AcDbXrecord
102
MATERIAL
148
0.0
149
0.0
149
0.0
 93
        0
 94
      127
282
     0
 72
     1
 77
     1
171
     1
175
     1
179
     1
273
     0
  0
XRECORD
  5
2F9
102
{ACAD_REACTORS
330
2F8
102
}
330
2F8
100
AcDbXrecord
102
MATERIAL
148
0.0
149
0.0
149
0.0
 93
        0
 94
      127
282
     0
 72
     1
 77
     1
171
     1
175
     1
179
     1
273
     0
  0
ENDSEC
  0
EOF
