G04 #@! TF.GenerationSoftware,KiCad,Pcbnew,5.0.2-bee76a0~70~ubuntu18.04.1*
G04 #@! TF.CreationDate,2019-02-28T13:46:31+03:00*
G04 #@! TF.ProjectId,sensor-node,73656e73-6f72-42d6-9e6f-64652e6b6963,1*
G04 #@! TF.SameCoordinates,Original*
G04 #@! TF.FileFunction,Legend,Top*
G04 #@! TF.FilePolarity,Positive*
%FSLAX46Y46*%
G04 Gerber Fmt 4.6, Leading zero omitted, Abs format (unit mm)*
G04 Created by KiCad (PCBNEW 5.0.2-bee76a0~70~ubuntu18.04.1) date Thu 28 Feb 2019 13:46:31 EAT*
%MOMM*%
%LPD*%
G01*
G04 APERTURE LIST*
%ADD10C,0.200000*%
%ADD11C,0.120000*%
%ADD12C,0.150000*%
%ADD13C,0.127000*%
%ADD14C,0.240000*%
%ADD15C,0.050000*%
G04 APERTURE END LIST*
D10*
X150920190Y-154673300D02*
G75*
G03X150920190Y-154673300I-387090J0D01*
G01*
X164125935Y-154635200D02*
G75*
G03X164125935Y-154635200I-359435J0D01*
G01*
X149542500Y-119900700D02*
G75*
G03X149542500Y-119900700I-549779J0D01*
G01*
X132308600Y-70561200D02*
G75*
G03X132308600Y-70561200I-736271J0D01*
G01*
X108300013Y-81724500D02*
G75*
G03X108300013Y-81724500I-502413J0D01*
G01*
X171645000Y-150210000D02*
X171645000Y-72210000D01*
X95775000Y-150210000D02*
X95775000Y-72210000D01*
D11*
G04 #@! TO.C,BZ1*
X141176000Y-106172000D02*
G75*
G03X141176000Y-106172000I-6100000J0D01*
G01*
G04 #@! TO.C,D17*
X149734000Y-120478000D02*
X153034000Y-120478000D01*
X153034000Y-120478000D02*
X153034000Y-113578000D01*
X149734000Y-120478000D02*
X149734000Y-113578000D01*
G04 #@! TO.C,Q9*
X156716000Y-114610000D02*
X156716000Y-113680000D01*
X156716000Y-111450000D02*
X156716000Y-112380000D01*
X156716000Y-111450000D02*
X154556000Y-111450000D01*
X156716000Y-114610000D02*
X155256000Y-114610000D01*
G04 #@! TO.C,C18*
X98332548Y-76706800D02*
X98855052Y-76706800D01*
X98332548Y-75286800D02*
X98855052Y-75286800D01*
G04 #@! TO.C,C17*
X103624748Y-75286800D02*
X104147252Y-75286800D01*
X103624748Y-76706800D02*
X104147252Y-76706800D01*
D12*
G04 #@! TO.C,U9*
X100287000Y-77028600D02*
X100287000Y-77078600D01*
X104437000Y-77028600D02*
X104437000Y-77173600D01*
X104437000Y-82178600D02*
X104437000Y-82033600D01*
X100287000Y-82178600D02*
X100287000Y-82033600D01*
X100287000Y-77028600D02*
X104437000Y-77028600D01*
X100287000Y-82178600D02*
X104437000Y-82178600D01*
X100287000Y-77078600D02*
X98887000Y-77078600D01*
D11*
G04 #@! TO.C,C14*
X109526000Y-71736852D02*
X109526000Y-71214348D01*
X110946000Y-71736852D02*
X110946000Y-71214348D01*
G04 #@! TO.C,C15*
X160630800Y-118813948D02*
X160630800Y-119336452D01*
X162050800Y-118813948D02*
X162050800Y-119336452D01*
G04 #@! TO.C,C16*
X160063548Y-114860000D02*
X160586052Y-114860000D01*
X160063548Y-116280000D02*
X160586052Y-116280000D01*
G04 #@! TO.C,BT2*
X161293200Y-131380000D02*
X156613200Y-131380000D01*
X155913200Y-137600000D02*
X157193200Y-137600000D01*
X155913200Y-139200000D02*
X155913200Y-137600000D01*
X154893200Y-139200000D02*
X155913200Y-139200000D01*
X154893200Y-134950000D02*
X154893200Y-139200000D01*
X160713200Y-137600000D02*
X160713200Y-140490000D01*
X161993200Y-137600000D02*
X160713200Y-137600000D01*
X161993200Y-139200000D02*
X161993200Y-137600000D01*
X163013200Y-139200000D02*
X161993200Y-139200000D01*
X163013200Y-134950000D02*
X163013200Y-139200000D01*
G04 #@! TO.C,U8*
X160004400Y-120076800D02*
X160004400Y-118276800D01*
X156784400Y-118276800D02*
X156784400Y-120726800D01*
G04 #@! TO.C,R28*
X110844400Y-76918452D02*
X110844400Y-76395948D01*
X109424400Y-76918452D02*
X109424400Y-76395948D01*
G04 #@! TO.C,R30*
X154687200Y-118915548D02*
X154687200Y-119438052D01*
X156107200Y-118915548D02*
X156107200Y-119438052D01*
G04 #@! TO.C,R31*
X160063548Y-111405600D02*
X160586052Y-111405600D01*
X160063548Y-112825600D02*
X160586052Y-112825600D01*
G04 #@! TO.C,D10*
X136770000Y-69348000D02*
X136770000Y-75048000D01*
X132470000Y-69348000D02*
X132470000Y-75048000D01*
X136770000Y-69348000D02*
X132470000Y-69348000D01*
G04 #@! TO.C,D15*
X124578000Y-101479000D02*
X120278000Y-101479000D01*
X120278000Y-101479000D02*
X120278000Y-107179000D01*
X124578000Y-101479000D02*
X124578000Y-107179000D01*
G04 #@! TO.C,D16*
X156407200Y-146574400D02*
X150707200Y-146574400D01*
X156407200Y-142274400D02*
X150707200Y-142274400D01*
X156407200Y-146574400D02*
X156407200Y-142274400D01*
G04 #@! TO.C,C13*
X141216748Y-93216800D02*
X141739252Y-93216800D01*
X141216748Y-91796800D02*
X141739252Y-91796800D01*
G04 #@! TO.C,C1*
X145236000Y-119067948D02*
X145236000Y-119590452D01*
X143816000Y-119067948D02*
X143816000Y-119590452D01*
G04 #@! TO.C,C2*
X140514000Y-85844748D02*
X140514000Y-86367252D01*
X141934000Y-85844748D02*
X141934000Y-86367252D01*
G04 #@! TO.C,C4*
X96419600Y-92666452D02*
X96419600Y-92143948D01*
X97839600Y-92666452D02*
X97839600Y-92143948D01*
G04 #@! TO.C,C5*
X164720200Y-119042548D02*
X164720200Y-119565052D01*
X166140200Y-119042548D02*
X166140200Y-119565052D01*
G04 #@! TO.C,C6*
X168324600Y-119067948D02*
X168324600Y-119590452D01*
X166904600Y-119067948D02*
X166904600Y-119590452D01*
G04 #@! TO.C,C11*
X133433452Y-122579200D02*
X132910948Y-122579200D01*
X133433452Y-121159200D02*
X132910948Y-121159200D01*
G04 #@! TO.C,C3*
X98090400Y-96629136D02*
X98090400Y-97833264D01*
X96270400Y-96629136D02*
X96270400Y-97833264D01*
G04 #@! TO.C,J6*
X140235000Y-115654000D02*
X129005000Y-115654000D01*
X128635000Y-119574000D02*
X129585000Y-119574000D01*
X128635000Y-118624000D02*
X128635000Y-119574000D01*
X139655000Y-119574000D02*
X139655000Y-120264000D01*
X140605000Y-119574000D02*
X139655000Y-119574000D01*
X140605000Y-118624000D02*
X140605000Y-119574000D01*
G04 #@! TO.C,J5*
X140859200Y-75802800D02*
X143519200Y-75802800D01*
X140859200Y-70662800D02*
X140859200Y-75802800D01*
X143519200Y-70662800D02*
X143519200Y-75802800D01*
X140859200Y-70662800D02*
X143519200Y-70662800D01*
X140859200Y-69392800D02*
X140859200Y-68062800D01*
X140859200Y-68062800D02*
X142189200Y-68062800D01*
G04 #@! TO.C,J3*
X165040000Y-134476800D02*
X170240000Y-134476800D01*
X165040000Y-129336800D02*
X165040000Y-134476800D01*
X170240000Y-126736800D02*
X170240000Y-134476800D01*
X165040000Y-129336800D02*
X167640000Y-129336800D01*
X167640000Y-129336800D02*
X167640000Y-126736800D01*
X167640000Y-126736800D02*
X170240000Y-126736800D01*
X165040000Y-128066800D02*
X165040000Y-126736800D01*
X165040000Y-126736800D02*
X166370000Y-126736800D01*
G04 #@! TO.C,J4*
X129734000Y-66130000D02*
X129734000Y-74760000D01*
X129615905Y-66130000D02*
X129615905Y-74760000D01*
X129497810Y-66130000D02*
X129497810Y-74760000D01*
X129379715Y-66130000D02*
X129379715Y-74760000D01*
X129261620Y-66130000D02*
X129261620Y-74760000D01*
X129143525Y-66130000D02*
X129143525Y-74760000D01*
X129025430Y-66130000D02*
X129025430Y-74760000D01*
X128907335Y-66130000D02*
X128907335Y-74760000D01*
X128789240Y-66130000D02*
X128789240Y-74760000D01*
X128671145Y-66130000D02*
X128671145Y-74760000D01*
X128553050Y-66130000D02*
X128553050Y-74760000D01*
X128434955Y-66130000D02*
X128434955Y-74760000D01*
X128316860Y-66130000D02*
X128316860Y-74760000D01*
X128198765Y-66130000D02*
X128198765Y-74760000D01*
X128080670Y-66130000D02*
X128080670Y-74760000D01*
X127962575Y-66130000D02*
X127962575Y-74760000D01*
X127844480Y-66130000D02*
X127844480Y-74760000D01*
X127726385Y-66130000D02*
X127726385Y-74760000D01*
X127608290Y-66130000D02*
X127608290Y-74760000D01*
X127490195Y-66130000D02*
X127490195Y-74760000D01*
X127372100Y-66130000D02*
X127372100Y-74760000D01*
X128884000Y-74760000D02*
X128884000Y-75110000D01*
X128164000Y-74760000D02*
X128164000Y-75110000D01*
X126344000Y-74760000D02*
X126344000Y-75170000D01*
X125624000Y-74760000D02*
X125624000Y-75170000D01*
X123804000Y-74760000D02*
X123804000Y-75170000D01*
X123084000Y-74760000D02*
X123084000Y-75170000D01*
X121264000Y-74760000D02*
X121264000Y-75170000D01*
X120544000Y-74760000D02*
X120544000Y-75170000D01*
X118724000Y-74760000D02*
X118724000Y-75170000D01*
X118004000Y-74760000D02*
X118004000Y-75170000D01*
X116184000Y-74760000D02*
X116184000Y-75170000D01*
X115464000Y-74760000D02*
X115464000Y-75170000D01*
X113644000Y-74760000D02*
X113644000Y-75170000D01*
X112924000Y-74760000D02*
X112924000Y-75170000D01*
X127254000Y-66130000D02*
X127254000Y-74760000D01*
X124714000Y-66130000D02*
X124714000Y-74760000D01*
X122174000Y-66130000D02*
X122174000Y-74760000D01*
X119634000Y-66130000D02*
X119634000Y-74760000D01*
X117094000Y-66130000D02*
X117094000Y-74760000D01*
X114554000Y-66130000D02*
X114554000Y-74760000D01*
X129854000Y-66130000D02*
X129854000Y-74760000D01*
X129854000Y-74760000D02*
X111954000Y-74760000D01*
X111954000Y-66130000D02*
X111954000Y-74760000D01*
X129854000Y-66130000D02*
X111954000Y-66130000D01*
X129854000Y-77330000D02*
X128524000Y-77330000D01*
X129854000Y-76220000D02*
X129854000Y-77330000D01*
G04 #@! TO.C,D12*
X108833200Y-81509600D02*
X108833200Y-84809600D01*
X108833200Y-84809600D02*
X115733200Y-84809600D01*
X108833200Y-81509600D02*
X115733200Y-81509600D01*
D13*
G04 #@! TO.C,U3*
X99331000Y-92396000D02*
X99331000Y-85646000D01*
X99331000Y-85646000D02*
X117331000Y-85646000D01*
X117331000Y-85646000D02*
X117331000Y-92396000D01*
X99331000Y-117046000D02*
X117331000Y-117046000D01*
X117331000Y-117046000D02*
X117331000Y-116846000D01*
X99331000Y-116896000D02*
X99331000Y-117046000D01*
D14*
X98351000Y-92946000D02*
G75*
G03X98351000Y-92946000I-120000J0D01*
G01*
D11*
G04 #@! TO.C,JP15*
X117427500Y-80707000D02*
G75*
G02X118127500Y-80007000I700000J0D01*
G01*
X118727500Y-80007000D02*
G75*
G02X119427500Y-80707000I0J-700000D01*
G01*
X119427500Y-82107000D02*
G75*
G02X118727500Y-82807000I-700000J0D01*
G01*
X118127500Y-82807000D02*
G75*
G02X117427500Y-82107000I0J700000D01*
G01*
X118727500Y-82807000D02*
X118127500Y-82807000D01*
X119427500Y-80707000D02*
X119427500Y-82107000D01*
X118127500Y-80007000D02*
X118727500Y-80007000D01*
X117427500Y-82107000D02*
X117427500Y-80707000D01*
G04 #@! TO.C,JP12*
X127524000Y-80707000D02*
G75*
G02X128224000Y-80007000I700000J0D01*
G01*
X128824000Y-80007000D02*
G75*
G02X129524000Y-80707000I0J-700000D01*
G01*
X129524000Y-82107000D02*
G75*
G02X128824000Y-82807000I-700000J0D01*
G01*
X128224000Y-82807000D02*
G75*
G02X127524000Y-82107000I0J700000D01*
G01*
X128824000Y-82807000D02*
X128224000Y-82807000D01*
X129524000Y-80707000D02*
X129524000Y-82107000D01*
X128224000Y-80007000D02*
X128824000Y-80007000D01*
X127524000Y-82107000D02*
X127524000Y-80707000D01*
G04 #@! TO.C,JP13*
X122507500Y-82107000D02*
X122507500Y-80707000D01*
X123207500Y-80007000D02*
X123807500Y-80007000D01*
X124507500Y-80707000D02*
X124507500Y-82107000D01*
X123807500Y-82807000D02*
X123207500Y-82807000D01*
X123207500Y-82807000D02*
G75*
G02X122507500Y-82107000I0J700000D01*
G01*
X124507500Y-82107000D02*
G75*
G02X123807500Y-82807000I-700000J0D01*
G01*
X123807500Y-80007000D02*
G75*
G02X124507500Y-80707000I0J-700000D01*
G01*
X122507500Y-80707000D02*
G75*
G02X123207500Y-80007000I700000J0D01*
G01*
G04 #@! TO.C,JP14*
X119967500Y-80707000D02*
G75*
G02X120667500Y-80007000I700000J0D01*
G01*
X121267500Y-80007000D02*
G75*
G02X121967500Y-80707000I0J-700000D01*
G01*
X121967500Y-82107000D02*
G75*
G02X121267500Y-82807000I-700000J0D01*
G01*
X120667500Y-82807000D02*
G75*
G02X119967500Y-82107000I0J700000D01*
G01*
X121267500Y-82807000D02*
X120667500Y-82807000D01*
X121967500Y-80707000D02*
X121967500Y-82107000D01*
X120667500Y-80007000D02*
X121267500Y-80007000D01*
X119967500Y-82107000D02*
X119967500Y-80707000D01*
G04 #@! TO.C,JP17*
X124984000Y-82107000D02*
X124984000Y-80707000D01*
X125684000Y-80007000D02*
X126284000Y-80007000D01*
X126984000Y-80707000D02*
X126984000Y-82107000D01*
X126284000Y-82807000D02*
X125684000Y-82807000D01*
X125684000Y-82807000D02*
G75*
G02X124984000Y-82107000I0J700000D01*
G01*
X126984000Y-82107000D02*
G75*
G02X126284000Y-82807000I-700000J0D01*
G01*
X126284000Y-80007000D02*
G75*
G02X126984000Y-80707000I0J-700000D01*
G01*
X124984000Y-80707000D02*
G75*
G02X125684000Y-80007000I700000J0D01*
G01*
D12*
G04 #@! TO.C,U4*
X133334400Y-97365400D02*
X137734400Y-97365400D01*
X131759400Y-91840400D02*
X137734400Y-91840400D01*
D11*
G04 #@! TO.C,Q2*
X138174000Y-88905200D02*
X138174000Y-87975200D01*
X138174000Y-85745200D02*
X138174000Y-86675200D01*
X138174000Y-85745200D02*
X136014000Y-85745200D01*
X138174000Y-88905200D02*
X136714000Y-88905200D01*
G04 #@! TO.C,Q5*
X127887000Y-107244000D02*
X126427000Y-107244000D01*
X127887000Y-104084000D02*
X125727000Y-104084000D01*
X127887000Y-104084000D02*
X127887000Y-105014000D01*
X127887000Y-107244000D02*
X127887000Y-106314000D01*
G04 #@! TO.C,Q6*
X149397600Y-149197600D02*
X150327600Y-149197600D01*
X152557600Y-149197600D02*
X151627600Y-149197600D01*
X152557600Y-149197600D02*
X152557600Y-147037600D01*
X149397600Y-149197600D02*
X149397600Y-147737600D01*
G04 #@! TO.C,Q8*
X139393200Y-76205200D02*
X139393200Y-75275200D01*
X139393200Y-73045200D02*
X139393200Y-73975200D01*
X139393200Y-73045200D02*
X137233200Y-73045200D01*
X139393200Y-76205200D02*
X137933200Y-76205200D01*
G04 #@! TO.C,Q1*
X138275600Y-84688800D02*
X138275600Y-83758800D01*
X138275600Y-81528800D02*
X138275600Y-82458800D01*
X138275600Y-81528800D02*
X136115600Y-81528800D01*
X138275600Y-84688800D02*
X136815600Y-84688800D01*
G04 #@! TO.C,R23*
X165304400Y-153829652D02*
X165304400Y-153307148D01*
X166724400Y-153829652D02*
X166724400Y-153307148D01*
G04 #@! TO.C,R13*
X133560452Y-85650000D02*
X133037948Y-85650000D01*
X133560452Y-87070000D02*
X133037948Y-87070000D01*
G04 #@! TO.C,R21*
X121159200Y-92956748D02*
X121159200Y-93479252D01*
X122579200Y-92956748D02*
X122579200Y-93479252D01*
G04 #@! TO.C,R20*
X153874400Y-151696052D02*
X153874400Y-151173548D01*
X155294400Y-151696052D02*
X155294400Y-151173548D01*
G04 #@! TO.C,R19*
X150214400Y-154176252D02*
X150214400Y-153653748D01*
X148794400Y-154176252D02*
X148794400Y-153653748D01*
G04 #@! TO.C,R12*
X133560452Y-82853600D02*
X133037948Y-82853600D01*
X133560452Y-81433600D02*
X133037948Y-81433600D01*
G04 #@! TO.C,R22*
X122579200Y-97340052D02*
X122579200Y-96817548D01*
X121159200Y-97340052D02*
X121159200Y-96817548D01*
G04 #@! TO.C,R24*
X125147000Y-101861252D02*
X125147000Y-101338748D01*
X126567000Y-101861252D02*
X126567000Y-101338748D01*
G04 #@! TO.C,R27*
X160721000Y-151696052D02*
X160721000Y-151173548D01*
X159301000Y-151696052D02*
X159301000Y-151173548D01*
G04 #@! TO.C,R25*
X154323148Y-148385600D02*
X154845652Y-148385600D01*
X154323148Y-146965600D02*
X154845652Y-146965600D01*
G04 #@! TO.C,R3*
X141934000Y-81983948D02*
X141934000Y-82506452D01*
X140514000Y-81983948D02*
X140514000Y-82506452D01*
G04 #@! TO.C,R2*
X137110400Y-70604748D02*
X137110400Y-71127252D01*
X138530400Y-70604748D02*
X138530400Y-71127252D01*
G04 #@! TO.C,R9*
X141216748Y-93778000D02*
X141739252Y-93778000D01*
X141216748Y-95198000D02*
X141739252Y-95198000D01*
D12*
G04 #@! TO.C,TP5*
X124388800Y-92473600D02*
X128188800Y-92473600D01*
X128188800Y-92473600D02*
X128188800Y-94673600D01*
X128188800Y-94673600D02*
X124388800Y-94673600D01*
X124388800Y-94673600D02*
X124388800Y-92473600D01*
G04 #@! TO.C,TP6*
X124388800Y-97670800D02*
X124388800Y-95470800D01*
X128188800Y-97670800D02*
X124388800Y-97670800D01*
X128188800Y-95470800D02*
X128188800Y-97670800D01*
X124388800Y-95470800D02*
X128188800Y-95470800D01*
G04 #@! TO.C,D13*
X155321000Y-153746200D02*
X151384000Y-153746200D01*
X151384000Y-153746200D02*
X151384000Y-155524200D01*
X151384000Y-155524200D02*
X155321000Y-155524200D01*
X155321000Y-155524200D02*
X155448000Y-155524200D01*
X155448000Y-155524200D02*
X155448000Y-153746200D01*
X155448000Y-153746200D02*
X155321000Y-153746200D01*
X151384000Y-153746200D02*
X151003000Y-153746200D01*
X151003000Y-153746200D02*
X151003000Y-155524200D01*
X151003000Y-155524200D02*
X151384000Y-155524200D01*
G04 #@! TO.C,D24*
X163195000Y-153746200D02*
X159258000Y-153746200D01*
X159258000Y-153746200D02*
X159258000Y-155524200D01*
X159258000Y-155524200D02*
X163195000Y-155524200D01*
X163195000Y-155524200D02*
X163322000Y-155524200D01*
X163322000Y-155524200D02*
X163322000Y-153746200D01*
X163322000Y-153746200D02*
X163195000Y-153746200D01*
X159258000Y-153746200D02*
X158877000Y-153746200D01*
X158877000Y-153746200D02*
X158877000Y-155524200D01*
X158877000Y-155524200D02*
X159258000Y-155524200D01*
G04 #@! TO.C,SW1*
X100886000Y-66238000D02*
X106886000Y-66238000D01*
X102136000Y-66238000D02*
X102136000Y-65238000D01*
X105636000Y-66238000D02*
X105636000Y-65238000D01*
X105636000Y-65238000D02*
X102136000Y-65238000D01*
G04 #@! TO.C,U6*
X148209000Y-150792000D02*
G75*
G02X142759000Y-156242000I-5450000J0D01*
G01*
X118209000Y-120242000D02*
X118209000Y-123842000D01*
X98209000Y-120242000D02*
X118209000Y-120242000D01*
X98209000Y-123842000D02*
X98209000Y-120242000D01*
X100709000Y-156242000D02*
G75*
G02X98209000Y-153742000I0J2500000D01*
G01*
X98209000Y-123842000D02*
X98209000Y-153782000D01*
X145669000Y-123842000D02*
X98209000Y-123842000D01*
X142759000Y-156242000D02*
X100709000Y-156242000D01*
X148209000Y-126382000D02*
X148209000Y-150792000D01*
X145669000Y-123842000D02*
G75*
G02X148209000Y-126382000I0J-2540000D01*
G01*
G04 #@! TO.C,U2*
X145796000Y-67422000D02*
X145796000Y-124572000D01*
X171196000Y-67422000D02*
X145796000Y-67422000D01*
X171196000Y-122032000D02*
X171196000Y-67422000D01*
X168656000Y-124572000D02*
X171196000Y-122032000D01*
X145796000Y-124572000D02*
X168656000Y-124572000D01*
G04 #@! TO.C,H1*
X168910095Y-148644380D02*
X168910095Y-147644380D01*
X168910095Y-148120571D02*
X169481523Y-148120571D01*
X169481523Y-148644380D02*
X169481523Y-147644380D01*
X170481523Y-148644380D02*
X169910095Y-148644380D01*
X170195809Y-148644380D02*
X170195809Y-147644380D01*
X170100571Y-147787238D01*
X170005333Y-147882476D01*
X169910095Y-147930095D01*
G04 #@! TO.C,H2*
X150495095Y-125352580D02*
X150495095Y-124352580D01*
X150495095Y-124828771D02*
X151066523Y-124828771D01*
X151066523Y-125352580D02*
X151066523Y-124352580D01*
X151495095Y-124447819D02*
X151542714Y-124400200D01*
X151637952Y-124352580D01*
X151876047Y-124352580D01*
X151971285Y-124400200D01*
X152018904Y-124447819D01*
X152066523Y-124543057D01*
X152066523Y-124638295D01*
X152018904Y-124781152D01*
X151447476Y-125352580D01*
X152066523Y-125352580D01*
G04 #@! TO.C,BZ1*
X134745047Y-98900571D02*
X134887904Y-98948190D01*
X134935523Y-98995809D01*
X134983142Y-99091047D01*
X134983142Y-99233904D01*
X134935523Y-99329142D01*
X134887904Y-99376761D01*
X134792666Y-99424380D01*
X134411714Y-99424380D01*
X134411714Y-98424380D01*
X134745047Y-98424380D01*
X134840285Y-98472000D01*
X134887904Y-98519619D01*
X134935523Y-98614857D01*
X134935523Y-98710095D01*
X134887904Y-98805333D01*
X134840285Y-98852952D01*
X134745047Y-98900571D01*
X134411714Y-98900571D01*
X135316476Y-98424380D02*
X135983142Y-98424380D01*
X135316476Y-99424380D01*
X135983142Y-99424380D01*
X136887904Y-99424380D02*
X136316476Y-99424380D01*
X136602190Y-99424380D02*
X136602190Y-98424380D01*
X136506952Y-98567238D01*
X136411714Y-98662476D01*
X136316476Y-98710095D01*
X131435047Y-103703428D02*
X132196952Y-103703428D01*
X131816000Y-104084380D02*
X131816000Y-103322476D01*
G04 #@! TO.C,D17*
X150169714Y-111450380D02*
X150169714Y-110450380D01*
X150407809Y-110450380D01*
X150550666Y-110498000D01*
X150645904Y-110593238D01*
X150693523Y-110688476D01*
X150741142Y-110878952D01*
X150741142Y-111021809D01*
X150693523Y-111212285D01*
X150645904Y-111307523D01*
X150550666Y-111402761D01*
X150407809Y-111450380D01*
X150169714Y-111450380D01*
X151693523Y-111450380D02*
X151122095Y-111450380D01*
X151407809Y-111450380D02*
X151407809Y-110450380D01*
X151312571Y-110593238D01*
X151217333Y-110688476D01*
X151122095Y-110736095D01*
X152026857Y-110450380D02*
X152693523Y-110450380D01*
X152264952Y-111450380D01*
G04 #@! TO.C,Q9*
X155860761Y-111077619D02*
X155765523Y-111030000D01*
X155670285Y-110934761D01*
X155527428Y-110791904D01*
X155432190Y-110744285D01*
X155336952Y-110744285D01*
X155384571Y-110982380D02*
X155289333Y-110934761D01*
X155194095Y-110839523D01*
X155146476Y-110649047D01*
X155146476Y-110315714D01*
X155194095Y-110125238D01*
X155289333Y-110030000D01*
X155384571Y-109982380D01*
X155575047Y-109982380D01*
X155670285Y-110030000D01*
X155765523Y-110125238D01*
X155813142Y-110315714D01*
X155813142Y-110649047D01*
X155765523Y-110839523D01*
X155670285Y-110934761D01*
X155575047Y-110982380D01*
X155384571Y-110982380D01*
X156289333Y-110982380D02*
X156479809Y-110982380D01*
X156575047Y-110934761D01*
X156622666Y-110887142D01*
X156717904Y-110744285D01*
X156765523Y-110553809D01*
X156765523Y-110172857D01*
X156717904Y-110077619D01*
X156670285Y-110030000D01*
X156575047Y-109982380D01*
X156384571Y-109982380D01*
X156289333Y-110030000D01*
X156241714Y-110077619D01*
X156194095Y-110172857D01*
X156194095Y-110410952D01*
X156241714Y-110506190D01*
X156289333Y-110553809D01*
X156384571Y-110601428D01*
X156575047Y-110601428D01*
X156670285Y-110553809D01*
X156717904Y-110506190D01*
X156765523Y-110410952D01*
G04 #@! TO.C,C18*
X97791542Y-79433657D02*
X97839161Y-79481276D01*
X97886780Y-79624133D01*
X97886780Y-79719371D01*
X97839161Y-79862228D01*
X97743923Y-79957466D01*
X97648685Y-80005085D01*
X97458209Y-80052704D01*
X97315352Y-80052704D01*
X97124876Y-80005085D01*
X97029638Y-79957466D01*
X96934400Y-79862228D01*
X96886780Y-79719371D01*
X96886780Y-79624133D01*
X96934400Y-79481276D01*
X96982019Y-79433657D01*
X97886780Y-78481276D02*
X97886780Y-79052704D01*
X97886780Y-78766990D02*
X96886780Y-78766990D01*
X97029638Y-78862228D01*
X97124876Y-78957466D01*
X97172495Y-79052704D01*
X97315352Y-77909847D02*
X97267733Y-78005085D01*
X97220114Y-78052704D01*
X97124876Y-78100323D01*
X97077257Y-78100323D01*
X96982019Y-78052704D01*
X96934400Y-78005085D01*
X96886780Y-77909847D01*
X96886780Y-77719371D01*
X96934400Y-77624133D01*
X96982019Y-77576514D01*
X97077257Y-77528895D01*
X97124876Y-77528895D01*
X97220114Y-77576514D01*
X97267733Y-77624133D01*
X97315352Y-77719371D01*
X97315352Y-77909847D01*
X97362971Y-78005085D01*
X97410590Y-78052704D01*
X97505828Y-78100323D01*
X97696304Y-78100323D01*
X97791542Y-78052704D01*
X97839161Y-78005085D01*
X97886780Y-77909847D01*
X97886780Y-77719371D01*
X97839161Y-77624133D01*
X97791542Y-77576514D01*
X97696304Y-77528895D01*
X97505828Y-77528895D01*
X97410590Y-77576514D01*
X97362971Y-77624133D01*
X97315352Y-77719371D01*
G04 #@! TO.C,C17*
X106595942Y-76455542D02*
X106548323Y-76503161D01*
X106405466Y-76550780D01*
X106310228Y-76550780D01*
X106167371Y-76503161D01*
X106072133Y-76407923D01*
X106024514Y-76312685D01*
X105976895Y-76122209D01*
X105976895Y-75979352D01*
X106024514Y-75788876D01*
X106072133Y-75693638D01*
X106167371Y-75598400D01*
X106310228Y-75550780D01*
X106405466Y-75550780D01*
X106548323Y-75598400D01*
X106595942Y-75646019D01*
X107548323Y-76550780D02*
X106976895Y-76550780D01*
X107262609Y-76550780D02*
X107262609Y-75550780D01*
X107167371Y-75693638D01*
X107072133Y-75788876D01*
X106976895Y-75836495D01*
X107881657Y-75550780D02*
X108548323Y-75550780D01*
X108119752Y-76550780D01*
G04 #@! TO.C,U9*
X101650895Y-73823580D02*
X101650895Y-74633104D01*
X101698514Y-74728342D01*
X101746133Y-74775961D01*
X101841371Y-74823580D01*
X102031847Y-74823580D01*
X102127085Y-74775961D01*
X102174704Y-74728342D01*
X102222323Y-74633104D01*
X102222323Y-73823580D01*
X102746133Y-74823580D02*
X102936609Y-74823580D01*
X103031847Y-74775961D01*
X103079466Y-74728342D01*
X103174704Y-74585485D01*
X103222323Y-74395009D01*
X103222323Y-74014057D01*
X103174704Y-73918819D01*
X103127085Y-73871200D01*
X103031847Y-73823580D01*
X102841371Y-73823580D01*
X102746133Y-73871200D01*
X102698514Y-73918819D01*
X102650895Y-74014057D01*
X102650895Y-74252152D01*
X102698514Y-74347390D01*
X102746133Y-74395009D01*
X102841371Y-74442628D01*
X103031847Y-74442628D01*
X103127085Y-74395009D01*
X103174704Y-74347390D01*
X103222323Y-74252152D01*
G04 #@! TO.C,C14*
X108983542Y-69089542D02*
X108935923Y-69137161D01*
X108793066Y-69184780D01*
X108697828Y-69184780D01*
X108554971Y-69137161D01*
X108459733Y-69041923D01*
X108412114Y-68946685D01*
X108364495Y-68756209D01*
X108364495Y-68613352D01*
X108412114Y-68422876D01*
X108459733Y-68327638D01*
X108554971Y-68232400D01*
X108697828Y-68184780D01*
X108793066Y-68184780D01*
X108935923Y-68232400D01*
X108983542Y-68280019D01*
X109935923Y-69184780D02*
X109364495Y-69184780D01*
X109650209Y-69184780D02*
X109650209Y-68184780D01*
X109554971Y-68327638D01*
X109459733Y-68422876D01*
X109364495Y-68470495D01*
X110793066Y-68518114D02*
X110793066Y-69184780D01*
X110554971Y-68137161D02*
X110316876Y-68851447D01*
X110935923Y-68851447D01*
G04 #@! TO.C,C15*
X163347942Y-119718057D02*
X163395561Y-119765676D01*
X163443180Y-119908533D01*
X163443180Y-120003771D01*
X163395561Y-120146628D01*
X163300323Y-120241866D01*
X163205085Y-120289485D01*
X163014609Y-120337104D01*
X162871752Y-120337104D01*
X162681276Y-120289485D01*
X162586038Y-120241866D01*
X162490800Y-120146628D01*
X162443180Y-120003771D01*
X162443180Y-119908533D01*
X162490800Y-119765676D01*
X162538419Y-119718057D01*
X163443180Y-118765676D02*
X163443180Y-119337104D01*
X163443180Y-119051390D02*
X162443180Y-119051390D01*
X162586038Y-119146628D01*
X162681276Y-119241866D01*
X162728895Y-119337104D01*
X162443180Y-117860914D02*
X162443180Y-118337104D01*
X162919371Y-118384723D01*
X162871752Y-118337104D01*
X162824133Y-118241866D01*
X162824133Y-118003771D01*
X162871752Y-117908533D01*
X162919371Y-117860914D01*
X163014609Y-117813295D01*
X163252704Y-117813295D01*
X163347942Y-117860914D01*
X163395561Y-117908533D01*
X163443180Y-118003771D01*
X163443180Y-118241866D01*
X163395561Y-118337104D01*
X163347942Y-118384723D01*
G04 #@! TO.C,C16*
X159681942Y-114277142D02*
X159634323Y-114324761D01*
X159491466Y-114372380D01*
X159396228Y-114372380D01*
X159253371Y-114324761D01*
X159158133Y-114229523D01*
X159110514Y-114134285D01*
X159062895Y-113943809D01*
X159062895Y-113800952D01*
X159110514Y-113610476D01*
X159158133Y-113515238D01*
X159253371Y-113420000D01*
X159396228Y-113372380D01*
X159491466Y-113372380D01*
X159634323Y-113420000D01*
X159681942Y-113467619D01*
X160634323Y-114372380D02*
X160062895Y-114372380D01*
X160348609Y-114372380D02*
X160348609Y-113372380D01*
X160253371Y-113515238D01*
X160158133Y-113610476D01*
X160062895Y-113658095D01*
X161491466Y-113372380D02*
X161300990Y-113372380D01*
X161205752Y-113420000D01*
X161158133Y-113467619D01*
X161062895Y-113610476D01*
X161015276Y-113800952D01*
X161015276Y-114181904D01*
X161062895Y-114277142D01*
X161110514Y-114324761D01*
X161205752Y-114372380D01*
X161396228Y-114372380D01*
X161491466Y-114324761D01*
X161539085Y-114277142D01*
X161586704Y-114181904D01*
X161586704Y-113943809D01*
X161539085Y-113848571D01*
X161491466Y-113800952D01*
X161396228Y-113753333D01*
X161205752Y-113753333D01*
X161110514Y-113800952D01*
X161062895Y-113848571D01*
X161015276Y-113943809D01*
G04 #@! TO.C,BT2*
X158167485Y-141618571D02*
X158310342Y-141666190D01*
X158357961Y-141713809D01*
X158405580Y-141809047D01*
X158405580Y-141951904D01*
X158357961Y-142047142D01*
X158310342Y-142094761D01*
X158215104Y-142142380D01*
X157834152Y-142142380D01*
X157834152Y-141142380D01*
X158167485Y-141142380D01*
X158262723Y-141190000D01*
X158310342Y-141237619D01*
X158357961Y-141332857D01*
X158357961Y-141428095D01*
X158310342Y-141523333D01*
X158262723Y-141570952D01*
X158167485Y-141618571D01*
X157834152Y-141618571D01*
X158691295Y-141142380D02*
X159262723Y-141142380D01*
X158977009Y-142142380D02*
X158977009Y-141142380D01*
X159548438Y-141237619D02*
X159596057Y-141190000D01*
X159691295Y-141142380D01*
X159929390Y-141142380D01*
X160024628Y-141190000D01*
X160072247Y-141237619D01*
X160119866Y-141332857D01*
X160119866Y-141428095D01*
X160072247Y-141570952D01*
X159500819Y-142142380D01*
X160119866Y-142142380D01*
G04 #@! TO.C,U8*
X156616495Y-116190780D02*
X156616495Y-117000304D01*
X156664114Y-117095542D01*
X156711733Y-117143161D01*
X156806971Y-117190780D01*
X156997447Y-117190780D01*
X157092685Y-117143161D01*
X157140304Y-117095542D01*
X157187923Y-117000304D01*
X157187923Y-116190780D01*
X157806971Y-116619352D02*
X157711733Y-116571733D01*
X157664114Y-116524114D01*
X157616495Y-116428876D01*
X157616495Y-116381257D01*
X157664114Y-116286019D01*
X157711733Y-116238400D01*
X157806971Y-116190780D01*
X157997447Y-116190780D01*
X158092685Y-116238400D01*
X158140304Y-116286019D01*
X158187923Y-116381257D01*
X158187923Y-116428876D01*
X158140304Y-116524114D01*
X158092685Y-116571733D01*
X157997447Y-116619352D01*
X157806971Y-116619352D01*
X157711733Y-116666971D01*
X157664114Y-116714590D01*
X157616495Y-116809828D01*
X157616495Y-117000304D01*
X157664114Y-117095542D01*
X157711733Y-117143161D01*
X157806971Y-117190780D01*
X157997447Y-117190780D01*
X158092685Y-117143161D01*
X158140304Y-117095542D01*
X158187923Y-117000304D01*
X158187923Y-116809828D01*
X158140304Y-116714590D01*
X158092685Y-116666971D01*
X157997447Y-116619352D01*
G04 #@! TO.C,R28*
X109085142Y-74518780D02*
X108751809Y-74042590D01*
X108513714Y-74518780D02*
X108513714Y-73518780D01*
X108894666Y-73518780D01*
X108989904Y-73566400D01*
X109037523Y-73614019D01*
X109085142Y-73709257D01*
X109085142Y-73852114D01*
X109037523Y-73947352D01*
X108989904Y-73994971D01*
X108894666Y-74042590D01*
X108513714Y-74042590D01*
X109466095Y-73614019D02*
X109513714Y-73566400D01*
X109608952Y-73518780D01*
X109847047Y-73518780D01*
X109942285Y-73566400D01*
X109989904Y-73614019D01*
X110037523Y-73709257D01*
X110037523Y-73804495D01*
X109989904Y-73947352D01*
X109418476Y-74518780D01*
X110037523Y-74518780D01*
X110608952Y-73947352D02*
X110513714Y-73899733D01*
X110466095Y-73852114D01*
X110418476Y-73756876D01*
X110418476Y-73709257D01*
X110466095Y-73614019D01*
X110513714Y-73566400D01*
X110608952Y-73518780D01*
X110799428Y-73518780D01*
X110894666Y-73566400D01*
X110942285Y-73614019D01*
X110989904Y-73709257D01*
X110989904Y-73756876D01*
X110942285Y-73852114D01*
X110894666Y-73899733D01*
X110799428Y-73947352D01*
X110608952Y-73947352D01*
X110513714Y-73994971D01*
X110466095Y-74042590D01*
X110418476Y-74137828D01*
X110418476Y-74328304D01*
X110466095Y-74423542D01*
X110513714Y-74471161D01*
X110608952Y-74518780D01*
X110799428Y-74518780D01*
X110894666Y-74471161D01*
X110942285Y-74423542D01*
X110989904Y-74328304D01*
X110989904Y-74137828D01*
X110942285Y-74042590D01*
X110894666Y-73994971D01*
X110799428Y-73947352D01*
G04 #@! TO.C,R30*
X154274780Y-119819657D02*
X153798590Y-120152990D01*
X154274780Y-120391085D02*
X153274780Y-120391085D01*
X153274780Y-120010133D01*
X153322400Y-119914895D01*
X153370019Y-119867276D01*
X153465257Y-119819657D01*
X153608114Y-119819657D01*
X153703352Y-119867276D01*
X153750971Y-119914895D01*
X153798590Y-120010133D01*
X153798590Y-120391085D01*
X153274780Y-119486323D02*
X153274780Y-118867276D01*
X153655733Y-119200609D01*
X153655733Y-119057752D01*
X153703352Y-118962514D01*
X153750971Y-118914895D01*
X153846209Y-118867276D01*
X154084304Y-118867276D01*
X154179542Y-118914895D01*
X154227161Y-118962514D01*
X154274780Y-119057752D01*
X154274780Y-119343466D01*
X154227161Y-119438704D01*
X154179542Y-119486323D01*
X153274780Y-118248228D02*
X153274780Y-118152990D01*
X153322400Y-118057752D01*
X153370019Y-118010133D01*
X153465257Y-117962514D01*
X153655733Y-117914895D01*
X153893828Y-117914895D01*
X154084304Y-117962514D01*
X154179542Y-118010133D01*
X154227161Y-118057752D01*
X154274780Y-118152990D01*
X154274780Y-118248228D01*
X154227161Y-118343466D01*
X154179542Y-118391085D01*
X154084304Y-118438704D01*
X153893828Y-118486323D01*
X153655733Y-118486323D01*
X153465257Y-118438704D01*
X153370019Y-118391085D01*
X153322400Y-118343466D01*
X153274780Y-118248228D01*
G04 #@! TO.C,R31*
X159681942Y-110917980D02*
X159348609Y-110441790D01*
X159110514Y-110917980D02*
X159110514Y-109917980D01*
X159491466Y-109917980D01*
X159586704Y-109965600D01*
X159634323Y-110013219D01*
X159681942Y-110108457D01*
X159681942Y-110251314D01*
X159634323Y-110346552D01*
X159586704Y-110394171D01*
X159491466Y-110441790D01*
X159110514Y-110441790D01*
X160015276Y-109917980D02*
X160634323Y-109917980D01*
X160300990Y-110298933D01*
X160443847Y-110298933D01*
X160539085Y-110346552D01*
X160586704Y-110394171D01*
X160634323Y-110489409D01*
X160634323Y-110727504D01*
X160586704Y-110822742D01*
X160539085Y-110870361D01*
X160443847Y-110917980D01*
X160158133Y-110917980D01*
X160062895Y-110870361D01*
X160015276Y-110822742D01*
X161586704Y-110917980D02*
X161015276Y-110917980D01*
X161300990Y-110917980D02*
X161300990Y-109917980D01*
X161205752Y-110060838D01*
X161110514Y-110156076D01*
X161015276Y-110203695D01*
G04 #@! TO.C,D10*
X133304114Y-68981580D02*
X133304114Y-67981580D01*
X133542209Y-67981580D01*
X133685066Y-68029200D01*
X133780304Y-68124438D01*
X133827923Y-68219676D01*
X133875542Y-68410152D01*
X133875542Y-68553009D01*
X133827923Y-68743485D01*
X133780304Y-68838723D01*
X133685066Y-68933961D01*
X133542209Y-68981580D01*
X133304114Y-68981580D01*
X134827923Y-68981580D02*
X134256495Y-68981580D01*
X134542209Y-68981580D02*
X134542209Y-67981580D01*
X134446971Y-68124438D01*
X134351733Y-68219676D01*
X134256495Y-68267295D01*
X135446971Y-67981580D02*
X135542209Y-67981580D01*
X135637447Y-68029200D01*
X135685066Y-68076819D01*
X135732685Y-68172057D01*
X135780304Y-68362533D01*
X135780304Y-68600628D01*
X135732685Y-68791104D01*
X135685066Y-68886342D01*
X135637447Y-68933961D01*
X135542209Y-68981580D01*
X135446971Y-68981580D01*
X135351733Y-68933961D01*
X135304114Y-68886342D01*
X135256495Y-68791104D01*
X135208876Y-68600628D01*
X135208876Y-68362533D01*
X135256495Y-68172057D01*
X135304114Y-68076819D01*
X135351733Y-68029200D01*
X135446971Y-67981580D01*
G04 #@! TO.C,D15*
X121112114Y-109824780D02*
X121112114Y-108824780D01*
X121350209Y-108824780D01*
X121493066Y-108872400D01*
X121588304Y-108967638D01*
X121635923Y-109062876D01*
X121683542Y-109253352D01*
X121683542Y-109396209D01*
X121635923Y-109586685D01*
X121588304Y-109681923D01*
X121493066Y-109777161D01*
X121350209Y-109824780D01*
X121112114Y-109824780D01*
X122635923Y-109824780D02*
X122064495Y-109824780D01*
X122350209Y-109824780D02*
X122350209Y-108824780D01*
X122254971Y-108967638D01*
X122159733Y-109062876D01*
X122064495Y-109110495D01*
X123540685Y-108824780D02*
X123064495Y-108824780D01*
X123016876Y-109300971D01*
X123064495Y-109253352D01*
X123159733Y-109205733D01*
X123397828Y-109205733D01*
X123493066Y-109253352D01*
X123540685Y-109300971D01*
X123588304Y-109396209D01*
X123588304Y-109634304D01*
X123540685Y-109729542D01*
X123493066Y-109777161D01*
X123397828Y-109824780D01*
X123159733Y-109824780D01*
X123064495Y-109777161D01*
X123016876Y-109729542D01*
G04 #@! TO.C,D16*
X151744514Y-141981180D02*
X151744514Y-140981180D01*
X151982609Y-140981180D01*
X152125466Y-141028800D01*
X152220704Y-141124038D01*
X152268323Y-141219276D01*
X152315942Y-141409752D01*
X152315942Y-141552609D01*
X152268323Y-141743085D01*
X152220704Y-141838323D01*
X152125466Y-141933561D01*
X151982609Y-141981180D01*
X151744514Y-141981180D01*
X153268323Y-141981180D02*
X152696895Y-141981180D01*
X152982609Y-141981180D02*
X152982609Y-140981180D01*
X152887371Y-141124038D01*
X152792133Y-141219276D01*
X152696895Y-141266895D01*
X154125466Y-140981180D02*
X153934990Y-140981180D01*
X153839752Y-141028800D01*
X153792133Y-141076419D01*
X153696895Y-141219276D01*
X153649276Y-141409752D01*
X153649276Y-141790704D01*
X153696895Y-141885942D01*
X153744514Y-141933561D01*
X153839752Y-141981180D01*
X154030228Y-141981180D01*
X154125466Y-141933561D01*
X154173085Y-141885942D01*
X154220704Y-141790704D01*
X154220704Y-141552609D01*
X154173085Y-141457371D01*
X154125466Y-141409752D01*
X154030228Y-141362133D01*
X153839752Y-141362133D01*
X153744514Y-141409752D01*
X153696895Y-141457371D01*
X153649276Y-141552609D01*
G04 #@! TO.C,C13*
X140631942Y-91390742D02*
X140584323Y-91438361D01*
X140441466Y-91485980D01*
X140346228Y-91485980D01*
X140203371Y-91438361D01*
X140108133Y-91343123D01*
X140060514Y-91247885D01*
X140012895Y-91057409D01*
X140012895Y-90914552D01*
X140060514Y-90724076D01*
X140108133Y-90628838D01*
X140203371Y-90533600D01*
X140346228Y-90485980D01*
X140441466Y-90485980D01*
X140584323Y-90533600D01*
X140631942Y-90581219D01*
X141584323Y-91485980D02*
X141012895Y-91485980D01*
X141298609Y-91485980D02*
X141298609Y-90485980D01*
X141203371Y-90628838D01*
X141108133Y-90724076D01*
X141012895Y-90771695D01*
X141917657Y-90485980D02*
X142536704Y-90485980D01*
X142203371Y-90866933D01*
X142346228Y-90866933D01*
X142441466Y-90914552D01*
X142489085Y-90962171D01*
X142536704Y-91057409D01*
X142536704Y-91295504D01*
X142489085Y-91390742D01*
X142441466Y-91438361D01*
X142346228Y-91485980D01*
X142060514Y-91485980D01*
X141965276Y-91438361D01*
X141917657Y-91390742D01*
G04 #@! TO.C,C1*
X144933942Y-116549466D02*
X144981561Y-116597085D01*
X145029180Y-116739942D01*
X145029180Y-116835180D01*
X144981561Y-116978038D01*
X144886323Y-117073276D01*
X144791085Y-117120895D01*
X144600609Y-117168514D01*
X144457752Y-117168514D01*
X144267276Y-117120895D01*
X144172038Y-117073276D01*
X144076800Y-116978038D01*
X144029180Y-116835180D01*
X144029180Y-116739942D01*
X144076800Y-116597085D01*
X144124419Y-116549466D01*
X145029180Y-115597085D02*
X145029180Y-116168514D01*
X145029180Y-115882800D02*
X144029180Y-115882800D01*
X144172038Y-115978038D01*
X144267276Y-116073276D01*
X144314895Y-116168514D01*
G04 #@! TO.C,C2*
X143231142Y-86272666D02*
X143278761Y-86320285D01*
X143326380Y-86463142D01*
X143326380Y-86558380D01*
X143278761Y-86701238D01*
X143183523Y-86796476D01*
X143088285Y-86844095D01*
X142897809Y-86891714D01*
X142754952Y-86891714D01*
X142564476Y-86844095D01*
X142469238Y-86796476D01*
X142374000Y-86701238D01*
X142326380Y-86558380D01*
X142326380Y-86463142D01*
X142374000Y-86320285D01*
X142421619Y-86272666D01*
X142421619Y-85891714D02*
X142374000Y-85844095D01*
X142326380Y-85748857D01*
X142326380Y-85510761D01*
X142374000Y-85415523D01*
X142421619Y-85367904D01*
X142516857Y-85320285D01*
X142612095Y-85320285D01*
X142754952Y-85367904D01*
X143326380Y-85939333D01*
X143326380Y-85320285D01*
G04 #@! TO.C,C4*
X97537542Y-89727066D02*
X97585161Y-89774685D01*
X97632780Y-89917542D01*
X97632780Y-90012780D01*
X97585161Y-90155638D01*
X97489923Y-90250876D01*
X97394685Y-90298495D01*
X97204209Y-90346114D01*
X97061352Y-90346114D01*
X96870876Y-90298495D01*
X96775638Y-90250876D01*
X96680400Y-90155638D01*
X96632780Y-90012780D01*
X96632780Y-89917542D01*
X96680400Y-89774685D01*
X96728019Y-89727066D01*
X96966114Y-88869923D02*
X97632780Y-88869923D01*
X96585161Y-89108019D02*
X97299447Y-89346114D01*
X97299447Y-88727066D01*
G04 #@! TO.C,C5*
X165161933Y-117247942D02*
X165114314Y-117295561D01*
X164971457Y-117343180D01*
X164876219Y-117343180D01*
X164733361Y-117295561D01*
X164638123Y-117200323D01*
X164590504Y-117105085D01*
X164542885Y-116914609D01*
X164542885Y-116771752D01*
X164590504Y-116581276D01*
X164638123Y-116486038D01*
X164733361Y-116390800D01*
X164876219Y-116343180D01*
X164971457Y-116343180D01*
X165114314Y-116390800D01*
X165161933Y-116438419D01*
X166066695Y-116343180D02*
X165590504Y-116343180D01*
X165542885Y-116819371D01*
X165590504Y-116771752D01*
X165685742Y-116724133D01*
X165923838Y-116724133D01*
X166019076Y-116771752D01*
X166066695Y-116819371D01*
X166114314Y-116914609D01*
X166114314Y-117152704D01*
X166066695Y-117247942D01*
X166019076Y-117295561D01*
X165923838Y-117343180D01*
X165685742Y-117343180D01*
X165590504Y-117295561D01*
X165542885Y-117247942D01*
G04 #@! TO.C,C6*
X167346333Y-117222542D02*
X167298714Y-117270161D01*
X167155857Y-117317780D01*
X167060619Y-117317780D01*
X166917761Y-117270161D01*
X166822523Y-117174923D01*
X166774904Y-117079685D01*
X166727285Y-116889209D01*
X166727285Y-116746352D01*
X166774904Y-116555876D01*
X166822523Y-116460638D01*
X166917761Y-116365400D01*
X167060619Y-116317780D01*
X167155857Y-116317780D01*
X167298714Y-116365400D01*
X167346333Y-116413019D01*
X168203476Y-116317780D02*
X168013000Y-116317780D01*
X167917761Y-116365400D01*
X167870142Y-116413019D01*
X167774904Y-116555876D01*
X167727285Y-116746352D01*
X167727285Y-117127304D01*
X167774904Y-117222542D01*
X167822523Y-117270161D01*
X167917761Y-117317780D01*
X168108238Y-117317780D01*
X168203476Y-117270161D01*
X168251095Y-117222542D01*
X168298714Y-117127304D01*
X168298714Y-116889209D01*
X168251095Y-116793971D01*
X168203476Y-116746352D01*
X168108238Y-116698733D01*
X167917761Y-116698733D01*
X167822523Y-116746352D01*
X167774904Y-116793971D01*
X167727285Y-116889209D01*
G04 #@! TO.C,C11*
X135831342Y-122226342D02*
X135783723Y-122273961D01*
X135640866Y-122321580D01*
X135545628Y-122321580D01*
X135402771Y-122273961D01*
X135307533Y-122178723D01*
X135259914Y-122083485D01*
X135212295Y-121893009D01*
X135212295Y-121750152D01*
X135259914Y-121559676D01*
X135307533Y-121464438D01*
X135402771Y-121369200D01*
X135545628Y-121321580D01*
X135640866Y-121321580D01*
X135783723Y-121369200D01*
X135831342Y-121416819D01*
X136783723Y-122321580D02*
X136212295Y-122321580D01*
X136498009Y-122321580D02*
X136498009Y-121321580D01*
X136402771Y-121464438D01*
X136307533Y-121559676D01*
X136212295Y-121607295D01*
X137736104Y-122321580D02*
X137164676Y-122321580D01*
X137450390Y-122321580D02*
X137450390Y-121321580D01*
X137355152Y-121464438D01*
X137259914Y-121559676D01*
X137164676Y-121607295D01*
G04 #@! TO.C,C3*
X97639142Y-100852266D02*
X97686761Y-100899885D01*
X97734380Y-101042742D01*
X97734380Y-101137980D01*
X97686761Y-101280838D01*
X97591523Y-101376076D01*
X97496285Y-101423695D01*
X97305809Y-101471314D01*
X97162952Y-101471314D01*
X96972476Y-101423695D01*
X96877238Y-101376076D01*
X96782000Y-101280838D01*
X96734380Y-101137980D01*
X96734380Y-101042742D01*
X96782000Y-100899885D01*
X96829619Y-100852266D01*
X96734380Y-100518933D02*
X96734380Y-99899885D01*
X97115333Y-100233219D01*
X97115333Y-100090361D01*
X97162952Y-99995123D01*
X97210571Y-99947504D01*
X97305809Y-99899885D01*
X97543904Y-99899885D01*
X97639142Y-99947504D01*
X97686761Y-99995123D01*
X97734380Y-100090361D01*
X97734380Y-100376076D01*
X97686761Y-100471314D01*
X97639142Y-100518933D01*
G04 #@! TO.C,J6*
X126920666Y-119340380D02*
X126920666Y-120054666D01*
X126873047Y-120197523D01*
X126777809Y-120292761D01*
X126634952Y-120340380D01*
X126539714Y-120340380D01*
X127825428Y-119340380D02*
X127634952Y-119340380D01*
X127539714Y-119388000D01*
X127492095Y-119435619D01*
X127396857Y-119578476D01*
X127349238Y-119768952D01*
X127349238Y-120149904D01*
X127396857Y-120245142D01*
X127444476Y-120292761D01*
X127539714Y-120340380D01*
X127730190Y-120340380D01*
X127825428Y-120292761D01*
X127873047Y-120245142D01*
X127920666Y-120149904D01*
X127920666Y-119911809D01*
X127873047Y-119816571D01*
X127825428Y-119768952D01*
X127730190Y-119721333D01*
X127539714Y-119721333D01*
X127444476Y-119768952D01*
X127396857Y-119816571D01*
X127349238Y-119911809D01*
G04 #@! TO.C,J5*
X144130780Y-71910533D02*
X144845066Y-71910533D01*
X144987923Y-71958152D01*
X145083161Y-72053390D01*
X145130780Y-72196247D01*
X145130780Y-72291485D01*
X144130780Y-70958152D02*
X144130780Y-71434342D01*
X144606971Y-71481961D01*
X144559352Y-71434342D01*
X144511733Y-71339104D01*
X144511733Y-71101009D01*
X144559352Y-71005771D01*
X144606971Y-70958152D01*
X144702209Y-70910533D01*
X144940304Y-70910533D01*
X145035542Y-70958152D01*
X145083161Y-71005771D01*
X145130780Y-71101009D01*
X145130780Y-71339104D01*
X145083161Y-71434342D01*
X145035542Y-71481961D01*
G04 #@! TO.C,J3*
X167306666Y-125189180D02*
X167306666Y-125903466D01*
X167259047Y-126046323D01*
X167163809Y-126141561D01*
X167020952Y-126189180D01*
X166925714Y-126189180D01*
X167687619Y-125189180D02*
X168306666Y-125189180D01*
X167973333Y-125570133D01*
X168116190Y-125570133D01*
X168211428Y-125617752D01*
X168259047Y-125665371D01*
X168306666Y-125760609D01*
X168306666Y-125998704D01*
X168259047Y-126093942D01*
X168211428Y-126141561D01*
X168116190Y-126189180D01*
X167830476Y-126189180D01*
X167735238Y-126141561D01*
X167687619Y-126093942D01*
G04 #@! TO.C,J4*
X130273466Y-79380780D02*
X130273466Y-80095066D01*
X130225847Y-80237923D01*
X130130609Y-80333161D01*
X129987752Y-80380780D01*
X129892514Y-80380780D01*
X131178228Y-79714114D02*
X131178228Y-80380780D01*
X130940133Y-79333161D02*
X130702038Y-80047447D01*
X131321085Y-80047447D01*
G04 #@! TO.C,D12*
X105973714Y-83713580D02*
X105973714Y-82713580D01*
X106211809Y-82713580D01*
X106354666Y-82761200D01*
X106449904Y-82856438D01*
X106497523Y-82951676D01*
X106545142Y-83142152D01*
X106545142Y-83285009D01*
X106497523Y-83475485D01*
X106449904Y-83570723D01*
X106354666Y-83665961D01*
X106211809Y-83713580D01*
X105973714Y-83713580D01*
X107497523Y-83713580D02*
X106926095Y-83713580D01*
X107211809Y-83713580D02*
X107211809Y-82713580D01*
X107116571Y-82856438D01*
X107021333Y-82951676D01*
X106926095Y-82999295D01*
X107878476Y-82808819D02*
X107926095Y-82761200D01*
X108021333Y-82713580D01*
X108259428Y-82713580D01*
X108354666Y-82761200D01*
X108402285Y-82808819D01*
X108449904Y-82904057D01*
X108449904Y-82999295D01*
X108402285Y-83142152D01*
X107830857Y-83713580D01*
X108449904Y-83713580D01*
G04 #@! TO.C,U3*
D15*
X101694288Y-83974554D02*
X101694288Y-84785891D01*
X101742014Y-84881342D01*
X101789740Y-84929068D01*
X101885191Y-84976794D01*
X102076094Y-84976794D01*
X102171545Y-84929068D01*
X102219271Y-84881342D01*
X102266997Y-84785891D01*
X102266997Y-83974554D01*
X102648802Y-83974554D02*
X103269237Y-83974554D01*
X102935157Y-84356360D01*
X103078334Y-84356360D01*
X103173785Y-84404085D01*
X103221511Y-84451811D01*
X103269237Y-84547262D01*
X103269237Y-84785891D01*
X103221511Y-84881342D01*
X103173785Y-84929068D01*
X103078334Y-84976794D01*
X102791980Y-84976794D01*
X102696528Y-84929068D01*
X102648802Y-84881342D01*
G04 #@! TO.C,FD3*
D12*
X96600971Y-74340933D02*
X96600971Y-74674266D01*
X97124780Y-74674266D02*
X96124780Y-74674266D01*
X96124780Y-74198076D01*
X97124780Y-73817123D02*
X96124780Y-73817123D01*
X96124780Y-73579028D01*
X96172400Y-73436171D01*
X96267638Y-73340933D01*
X96362876Y-73293314D01*
X96553352Y-73245695D01*
X96696209Y-73245695D01*
X96886685Y-73293314D01*
X96981923Y-73340933D01*
X97077161Y-73436171D01*
X97124780Y-73579028D01*
X97124780Y-73817123D01*
X96124780Y-72912361D02*
X96124780Y-72293314D01*
X96505733Y-72626647D01*
X96505733Y-72483790D01*
X96553352Y-72388552D01*
X96600971Y-72340933D01*
X96696209Y-72293314D01*
X96934304Y-72293314D01*
X97029542Y-72340933D01*
X97077161Y-72388552D01*
X97124780Y-72483790D01*
X97124780Y-72769504D01*
X97077161Y-72864742D01*
X97029542Y-72912361D01*
G04 #@! TO.C,FD2*
X96600971Y-149880533D02*
X96600971Y-150213866D01*
X97124780Y-150213866D02*
X96124780Y-150213866D01*
X96124780Y-149737676D01*
X97124780Y-149356723D02*
X96124780Y-149356723D01*
X96124780Y-149118628D01*
X96172400Y-148975771D01*
X96267638Y-148880533D01*
X96362876Y-148832914D01*
X96553352Y-148785295D01*
X96696209Y-148785295D01*
X96886685Y-148832914D01*
X96981923Y-148880533D01*
X97077161Y-148975771D01*
X97124780Y-149118628D01*
X97124780Y-149356723D01*
X96220019Y-148404342D02*
X96172400Y-148356723D01*
X96124780Y-148261485D01*
X96124780Y-148023390D01*
X96172400Y-147928152D01*
X96220019Y-147880533D01*
X96315257Y-147832914D01*
X96410495Y-147832914D01*
X96553352Y-147880533D01*
X97124780Y-148451961D01*
X97124780Y-147832914D01*
G04 #@! TO.C,FD1*
X170565771Y-74340933D02*
X170565771Y-74674266D01*
X171089580Y-74674266D02*
X170089580Y-74674266D01*
X170089580Y-74198076D01*
X171089580Y-73817123D02*
X170089580Y-73817123D01*
X170089580Y-73579028D01*
X170137200Y-73436171D01*
X170232438Y-73340933D01*
X170327676Y-73293314D01*
X170518152Y-73245695D01*
X170661009Y-73245695D01*
X170851485Y-73293314D01*
X170946723Y-73340933D01*
X171041961Y-73436171D01*
X171089580Y-73579028D01*
X171089580Y-73817123D01*
X171089580Y-72293314D02*
X171089580Y-72864742D01*
X171089580Y-72579028D02*
X170089580Y-72579028D01*
X170232438Y-72674266D01*
X170327676Y-72769504D01*
X170375295Y-72864742D01*
G04 #@! TO.C,JP15*
X118197380Y-86145523D02*
X118911666Y-86145523D01*
X119054523Y-86193142D01*
X119149761Y-86288380D01*
X119197380Y-86431238D01*
X119197380Y-86526476D01*
X119197380Y-85669333D02*
X118197380Y-85669333D01*
X118197380Y-85288380D01*
X118245000Y-85193142D01*
X118292619Y-85145523D01*
X118387857Y-85097904D01*
X118530714Y-85097904D01*
X118625952Y-85145523D01*
X118673571Y-85193142D01*
X118721190Y-85288380D01*
X118721190Y-85669333D01*
X119197380Y-84145523D02*
X119197380Y-84716952D01*
X119197380Y-84431238D02*
X118197380Y-84431238D01*
X118340238Y-84526476D01*
X118435476Y-84621714D01*
X118483095Y-84716952D01*
X118197380Y-83240761D02*
X118197380Y-83716952D01*
X118673571Y-83764571D01*
X118625952Y-83716952D01*
X118578333Y-83621714D01*
X118578333Y-83383619D01*
X118625952Y-83288380D01*
X118673571Y-83240761D01*
X118768809Y-83193142D01*
X119006904Y-83193142D01*
X119102142Y-83240761D01*
X119149761Y-83288380D01*
X119197380Y-83383619D01*
X119197380Y-83621714D01*
X119149761Y-83716952D01*
X119102142Y-83764571D01*
G04 #@! TO.C,JP12*
X128103380Y-86145523D02*
X128817666Y-86145523D01*
X128960523Y-86193142D01*
X129055761Y-86288380D01*
X129103380Y-86431238D01*
X129103380Y-86526476D01*
X129103380Y-85669333D02*
X128103380Y-85669333D01*
X128103380Y-85288380D01*
X128151000Y-85193142D01*
X128198619Y-85145523D01*
X128293857Y-85097904D01*
X128436714Y-85097904D01*
X128531952Y-85145523D01*
X128579571Y-85193142D01*
X128627190Y-85288380D01*
X128627190Y-85669333D01*
X129103380Y-84145523D02*
X129103380Y-84716952D01*
X129103380Y-84431238D02*
X128103380Y-84431238D01*
X128246238Y-84526476D01*
X128341476Y-84621714D01*
X128389095Y-84716952D01*
X128198619Y-83764571D02*
X128151000Y-83716952D01*
X128103380Y-83621714D01*
X128103380Y-83383619D01*
X128151000Y-83288380D01*
X128198619Y-83240761D01*
X128293857Y-83193142D01*
X128389095Y-83193142D01*
X128531952Y-83240761D01*
X129103380Y-83812190D01*
X129103380Y-83193142D01*
G04 #@! TO.C,JP13*
X123150380Y-86209023D02*
X123864666Y-86209023D01*
X124007523Y-86256642D01*
X124102761Y-86351880D01*
X124150380Y-86494738D01*
X124150380Y-86589976D01*
X124150380Y-85732833D02*
X123150380Y-85732833D01*
X123150380Y-85351880D01*
X123198000Y-85256642D01*
X123245619Y-85209023D01*
X123340857Y-85161404D01*
X123483714Y-85161404D01*
X123578952Y-85209023D01*
X123626571Y-85256642D01*
X123674190Y-85351880D01*
X123674190Y-85732833D01*
X124150380Y-84209023D02*
X124150380Y-84780452D01*
X124150380Y-84494738D02*
X123150380Y-84494738D01*
X123293238Y-84589976D01*
X123388476Y-84685214D01*
X123436095Y-84780452D01*
X123150380Y-83875690D02*
X123150380Y-83256642D01*
X123531333Y-83589976D01*
X123531333Y-83447119D01*
X123578952Y-83351880D01*
X123626571Y-83304261D01*
X123721809Y-83256642D01*
X123959904Y-83256642D01*
X124055142Y-83304261D01*
X124102761Y-83351880D01*
X124150380Y-83447119D01*
X124150380Y-83732833D01*
X124102761Y-83828071D01*
X124055142Y-83875690D01*
G04 #@! TO.C,JP14*
X120546880Y-86336023D02*
X121261166Y-86336023D01*
X121404023Y-86383642D01*
X121499261Y-86478880D01*
X121546880Y-86621738D01*
X121546880Y-86716976D01*
X121546880Y-85859833D02*
X120546880Y-85859833D01*
X120546880Y-85478880D01*
X120594500Y-85383642D01*
X120642119Y-85336023D01*
X120737357Y-85288404D01*
X120880214Y-85288404D01*
X120975452Y-85336023D01*
X121023071Y-85383642D01*
X121070690Y-85478880D01*
X121070690Y-85859833D01*
X121546880Y-84336023D02*
X121546880Y-84907452D01*
X121546880Y-84621738D02*
X120546880Y-84621738D01*
X120689738Y-84716976D01*
X120784976Y-84812214D01*
X120832595Y-84907452D01*
X120880214Y-83478880D02*
X121546880Y-83478880D01*
X120499261Y-83716976D02*
X121213547Y-83955071D01*
X121213547Y-83336023D01*
G04 #@! TO.C,JP17*
X125436380Y-86194023D02*
X126150666Y-86194023D01*
X126293523Y-86241642D01*
X126388761Y-86336880D01*
X126436380Y-86479738D01*
X126436380Y-86574976D01*
X126436380Y-85717833D02*
X125436380Y-85717833D01*
X125436380Y-85336880D01*
X125484000Y-85241642D01*
X125531619Y-85194023D01*
X125626857Y-85146404D01*
X125769714Y-85146404D01*
X125864952Y-85194023D01*
X125912571Y-85241642D01*
X125960190Y-85336880D01*
X125960190Y-85717833D01*
X126436380Y-84194023D02*
X126436380Y-84765452D01*
X126436380Y-84479738D02*
X125436380Y-84479738D01*
X125579238Y-84574976D01*
X125674476Y-84670214D01*
X125722095Y-84765452D01*
X125436380Y-83860690D02*
X125436380Y-83194023D01*
X126436380Y-83622595D01*
G04 #@! TO.C,U4*
X134772495Y-90542780D02*
X134772495Y-91352304D01*
X134820114Y-91447542D01*
X134867733Y-91495161D01*
X134962971Y-91542780D01*
X135153447Y-91542780D01*
X135248685Y-91495161D01*
X135296304Y-91447542D01*
X135343923Y-91352304D01*
X135343923Y-90542780D01*
X136248685Y-90876114D02*
X136248685Y-91542780D01*
X136010590Y-90495161D02*
X135772495Y-91209447D01*
X136391542Y-91209447D01*
G04 #@! TO.C,Q2*
X137064761Y-90311219D02*
X136969523Y-90263600D01*
X136874285Y-90168361D01*
X136731428Y-90025504D01*
X136636190Y-89977885D01*
X136540952Y-89977885D01*
X136588571Y-90215980D02*
X136493333Y-90168361D01*
X136398095Y-90073123D01*
X136350476Y-89882647D01*
X136350476Y-89549314D01*
X136398095Y-89358838D01*
X136493333Y-89263600D01*
X136588571Y-89215980D01*
X136779047Y-89215980D01*
X136874285Y-89263600D01*
X136969523Y-89358838D01*
X137017142Y-89549314D01*
X137017142Y-89882647D01*
X136969523Y-90073123D01*
X136874285Y-90168361D01*
X136779047Y-90215980D01*
X136588571Y-90215980D01*
X137398095Y-89311219D02*
X137445714Y-89263600D01*
X137540952Y-89215980D01*
X137779047Y-89215980D01*
X137874285Y-89263600D01*
X137921904Y-89311219D01*
X137969523Y-89406457D01*
X137969523Y-89501695D01*
X137921904Y-89644552D01*
X137350476Y-90215980D01*
X137969523Y-90215980D01*
G04 #@! TO.C,Q5*
X126904761Y-108751619D02*
X126809523Y-108704000D01*
X126714285Y-108608761D01*
X126571428Y-108465904D01*
X126476190Y-108418285D01*
X126380952Y-108418285D01*
X126428571Y-108656380D02*
X126333333Y-108608761D01*
X126238095Y-108513523D01*
X126190476Y-108323047D01*
X126190476Y-107989714D01*
X126238095Y-107799238D01*
X126333333Y-107704000D01*
X126428571Y-107656380D01*
X126619047Y-107656380D01*
X126714285Y-107704000D01*
X126809523Y-107799238D01*
X126857142Y-107989714D01*
X126857142Y-108323047D01*
X126809523Y-108513523D01*
X126714285Y-108608761D01*
X126619047Y-108656380D01*
X126428571Y-108656380D01*
X127761904Y-107656380D02*
X127285714Y-107656380D01*
X127238095Y-108132571D01*
X127285714Y-108084952D01*
X127380952Y-108037333D01*
X127619047Y-108037333D01*
X127714285Y-108084952D01*
X127761904Y-108132571D01*
X127809523Y-108227809D01*
X127809523Y-108465904D01*
X127761904Y-108561142D01*
X127714285Y-108608761D01*
X127619047Y-108656380D01*
X127380952Y-108656380D01*
X127285714Y-108608761D01*
X127238095Y-108561142D01*
G04 #@! TO.C,Q6*
X153625561Y-149950419D02*
X153530323Y-149902800D01*
X153435085Y-149807561D01*
X153292228Y-149664704D01*
X153196990Y-149617085D01*
X153101752Y-149617085D01*
X153149371Y-149855180D02*
X153054133Y-149807561D01*
X152958895Y-149712323D01*
X152911276Y-149521847D01*
X152911276Y-149188514D01*
X152958895Y-148998038D01*
X153054133Y-148902800D01*
X153149371Y-148855180D01*
X153339847Y-148855180D01*
X153435085Y-148902800D01*
X153530323Y-148998038D01*
X153577942Y-149188514D01*
X153577942Y-149521847D01*
X153530323Y-149712323D01*
X153435085Y-149807561D01*
X153339847Y-149855180D01*
X153149371Y-149855180D01*
X154435085Y-148855180D02*
X154244609Y-148855180D01*
X154149371Y-148902800D01*
X154101752Y-148950419D01*
X154006514Y-149093276D01*
X153958895Y-149283752D01*
X153958895Y-149664704D01*
X154006514Y-149759942D01*
X154054133Y-149807561D01*
X154149371Y-149855180D01*
X154339847Y-149855180D01*
X154435085Y-149807561D01*
X154482704Y-149759942D01*
X154530323Y-149664704D01*
X154530323Y-149426609D01*
X154482704Y-149331371D01*
X154435085Y-149283752D01*
X154339847Y-149236133D01*
X154149371Y-149236133D01*
X154054133Y-149283752D01*
X154006514Y-149331371D01*
X153958895Y-149426609D01*
G04 #@! TO.C,Q8*
X138537961Y-77763619D02*
X138442723Y-77716000D01*
X138347485Y-77620761D01*
X138204628Y-77477904D01*
X138109390Y-77430285D01*
X138014152Y-77430285D01*
X138061771Y-77668380D02*
X137966533Y-77620761D01*
X137871295Y-77525523D01*
X137823676Y-77335047D01*
X137823676Y-77001714D01*
X137871295Y-76811238D01*
X137966533Y-76716000D01*
X138061771Y-76668380D01*
X138252247Y-76668380D01*
X138347485Y-76716000D01*
X138442723Y-76811238D01*
X138490342Y-77001714D01*
X138490342Y-77335047D01*
X138442723Y-77525523D01*
X138347485Y-77620761D01*
X138252247Y-77668380D01*
X138061771Y-77668380D01*
X139061771Y-77096952D02*
X138966533Y-77049333D01*
X138918914Y-77001714D01*
X138871295Y-76906476D01*
X138871295Y-76858857D01*
X138918914Y-76763619D01*
X138966533Y-76716000D01*
X139061771Y-76668380D01*
X139252247Y-76668380D01*
X139347485Y-76716000D01*
X139395104Y-76763619D01*
X139442723Y-76858857D01*
X139442723Y-76906476D01*
X139395104Y-77001714D01*
X139347485Y-77049333D01*
X139252247Y-77096952D01*
X139061771Y-77096952D01*
X138966533Y-77144571D01*
X138918914Y-77192190D01*
X138871295Y-77287428D01*
X138871295Y-77477904D01*
X138918914Y-77573142D01*
X138966533Y-77620761D01*
X139061771Y-77668380D01*
X139252247Y-77668380D01*
X139347485Y-77620761D01*
X139395104Y-77573142D01*
X139442723Y-77477904D01*
X139442723Y-77287428D01*
X139395104Y-77192190D01*
X139347485Y-77144571D01*
X139252247Y-77096952D01*
G04 #@! TO.C,Q1*
X137420361Y-81156419D02*
X137325123Y-81108800D01*
X137229885Y-81013561D01*
X137087028Y-80870704D01*
X136991790Y-80823085D01*
X136896552Y-80823085D01*
X136944171Y-81061180D02*
X136848933Y-81013561D01*
X136753695Y-80918323D01*
X136706076Y-80727847D01*
X136706076Y-80394514D01*
X136753695Y-80204038D01*
X136848933Y-80108800D01*
X136944171Y-80061180D01*
X137134647Y-80061180D01*
X137229885Y-80108800D01*
X137325123Y-80204038D01*
X137372742Y-80394514D01*
X137372742Y-80727847D01*
X137325123Y-80918323D01*
X137229885Y-81013561D01*
X137134647Y-81061180D01*
X136944171Y-81061180D01*
X138325123Y-81061180D02*
X137753695Y-81061180D01*
X138039409Y-81061180D02*
X138039409Y-80061180D01*
X137944171Y-80204038D01*
X137848933Y-80299276D01*
X137753695Y-80346895D01*
G04 #@! TO.C,R23*
X164812742Y-151633180D02*
X164479409Y-151156990D01*
X164241314Y-151633180D02*
X164241314Y-150633180D01*
X164622266Y-150633180D01*
X164717504Y-150680800D01*
X164765123Y-150728419D01*
X164812742Y-150823657D01*
X164812742Y-150966514D01*
X164765123Y-151061752D01*
X164717504Y-151109371D01*
X164622266Y-151156990D01*
X164241314Y-151156990D01*
X165193695Y-150728419D02*
X165241314Y-150680800D01*
X165336552Y-150633180D01*
X165574647Y-150633180D01*
X165669885Y-150680800D01*
X165717504Y-150728419D01*
X165765123Y-150823657D01*
X165765123Y-150918895D01*
X165717504Y-151061752D01*
X165146076Y-151633180D01*
X165765123Y-151633180D01*
X166098457Y-150633180D02*
X166717504Y-150633180D01*
X166384171Y-151014133D01*
X166527028Y-151014133D01*
X166622266Y-151061752D01*
X166669885Y-151109371D01*
X166717504Y-151204609D01*
X166717504Y-151442704D01*
X166669885Y-151537942D01*
X166622266Y-151585561D01*
X166527028Y-151633180D01*
X166241314Y-151633180D01*
X166146076Y-151585561D01*
X166098457Y-151537942D01*
G04 #@! TO.C,R13*
X132707142Y-85085180D02*
X132373809Y-84608990D01*
X132135714Y-85085180D02*
X132135714Y-84085180D01*
X132516666Y-84085180D01*
X132611904Y-84132800D01*
X132659523Y-84180419D01*
X132707142Y-84275657D01*
X132707142Y-84418514D01*
X132659523Y-84513752D01*
X132611904Y-84561371D01*
X132516666Y-84608990D01*
X132135714Y-84608990D01*
X133659523Y-85085180D02*
X133088095Y-85085180D01*
X133373809Y-85085180D02*
X133373809Y-84085180D01*
X133278571Y-84228038D01*
X133183333Y-84323276D01*
X133088095Y-84370895D01*
X133992857Y-84085180D02*
X134611904Y-84085180D01*
X134278571Y-84466133D01*
X134421428Y-84466133D01*
X134516666Y-84513752D01*
X134564285Y-84561371D01*
X134611904Y-84656609D01*
X134611904Y-84894704D01*
X134564285Y-84989942D01*
X134516666Y-85037561D01*
X134421428Y-85085180D01*
X134135714Y-85085180D01*
X134040476Y-85037561D01*
X133992857Y-84989942D01*
G04 #@! TO.C,R21*
X121378742Y-91231980D02*
X121045409Y-90755790D01*
X120807314Y-91231980D02*
X120807314Y-90231980D01*
X121188266Y-90231980D01*
X121283504Y-90279600D01*
X121331123Y-90327219D01*
X121378742Y-90422457D01*
X121378742Y-90565314D01*
X121331123Y-90660552D01*
X121283504Y-90708171D01*
X121188266Y-90755790D01*
X120807314Y-90755790D01*
X121759695Y-90327219D02*
X121807314Y-90279600D01*
X121902552Y-90231980D01*
X122140647Y-90231980D01*
X122235885Y-90279600D01*
X122283504Y-90327219D01*
X122331123Y-90422457D01*
X122331123Y-90517695D01*
X122283504Y-90660552D01*
X121712076Y-91231980D01*
X122331123Y-91231980D01*
X123283504Y-91231980D02*
X122712076Y-91231980D01*
X122997790Y-91231980D02*
X122997790Y-90231980D01*
X122902552Y-90374838D01*
X122807314Y-90470076D01*
X122712076Y-90517695D01*
G04 #@! TO.C,R20*
X156687780Y-151950657D02*
X156211590Y-152283990D01*
X156687780Y-152522085D02*
X155687780Y-152522085D01*
X155687780Y-152141133D01*
X155735400Y-152045895D01*
X155783019Y-151998276D01*
X155878257Y-151950657D01*
X156021114Y-151950657D01*
X156116352Y-151998276D01*
X156163971Y-152045895D01*
X156211590Y-152141133D01*
X156211590Y-152522085D01*
X155783019Y-151569704D02*
X155735400Y-151522085D01*
X155687780Y-151426847D01*
X155687780Y-151188752D01*
X155735400Y-151093514D01*
X155783019Y-151045895D01*
X155878257Y-150998276D01*
X155973495Y-150998276D01*
X156116352Y-151045895D01*
X156687780Y-151617323D01*
X156687780Y-150998276D01*
X155687780Y-150379228D02*
X155687780Y-150283990D01*
X155735400Y-150188752D01*
X155783019Y-150141133D01*
X155878257Y-150093514D01*
X156068733Y-150045895D01*
X156306828Y-150045895D01*
X156497304Y-150093514D01*
X156592542Y-150141133D01*
X156640161Y-150188752D01*
X156687780Y-150283990D01*
X156687780Y-150379228D01*
X156640161Y-150474466D01*
X156592542Y-150522085D01*
X156497304Y-150569704D01*
X156306828Y-150617323D01*
X156068733Y-150617323D01*
X155878257Y-150569704D01*
X155783019Y-150522085D01*
X155735400Y-150474466D01*
X155687780Y-150379228D01*
G04 #@! TO.C,R19*
X149420342Y-151937980D02*
X149087009Y-151461790D01*
X148848914Y-151937980D02*
X148848914Y-150937980D01*
X149229866Y-150937980D01*
X149325104Y-150985600D01*
X149372723Y-151033219D01*
X149420342Y-151128457D01*
X149420342Y-151271314D01*
X149372723Y-151366552D01*
X149325104Y-151414171D01*
X149229866Y-151461790D01*
X148848914Y-151461790D01*
X150372723Y-151937980D02*
X149801295Y-151937980D01*
X150087009Y-151937980D02*
X150087009Y-150937980D01*
X149991771Y-151080838D01*
X149896533Y-151176076D01*
X149801295Y-151223695D01*
X150848914Y-151937980D02*
X151039390Y-151937980D01*
X151134628Y-151890361D01*
X151182247Y-151842742D01*
X151277485Y-151699885D01*
X151325104Y-151509409D01*
X151325104Y-151128457D01*
X151277485Y-151033219D01*
X151229866Y-150985600D01*
X151134628Y-150937980D01*
X150944152Y-150937980D01*
X150848914Y-150985600D01*
X150801295Y-151033219D01*
X150753676Y-151128457D01*
X150753676Y-151366552D01*
X150801295Y-151461790D01*
X150848914Y-151509409D01*
X150944152Y-151557028D01*
X151134628Y-151557028D01*
X151229866Y-151509409D01*
X151277485Y-151461790D01*
X151325104Y-151366552D01*
G04 #@! TO.C,R12*
X132656342Y-84245980D02*
X132323009Y-83769790D01*
X132084914Y-84245980D02*
X132084914Y-83245980D01*
X132465866Y-83245980D01*
X132561104Y-83293600D01*
X132608723Y-83341219D01*
X132656342Y-83436457D01*
X132656342Y-83579314D01*
X132608723Y-83674552D01*
X132561104Y-83722171D01*
X132465866Y-83769790D01*
X132084914Y-83769790D01*
X133608723Y-84245980D02*
X133037295Y-84245980D01*
X133323009Y-84245980D02*
X133323009Y-83245980D01*
X133227771Y-83388838D01*
X133132533Y-83484076D01*
X133037295Y-83531695D01*
X133989676Y-83341219D02*
X134037295Y-83293600D01*
X134132533Y-83245980D01*
X134370628Y-83245980D01*
X134465866Y-83293600D01*
X134513485Y-83341219D01*
X134561104Y-83436457D01*
X134561104Y-83531695D01*
X134513485Y-83674552D01*
X133942057Y-84245980D01*
X134561104Y-84245980D01*
G04 #@! TO.C,R22*
X121327942Y-100071180D02*
X120994609Y-99594990D01*
X120756514Y-100071180D02*
X120756514Y-99071180D01*
X121137466Y-99071180D01*
X121232704Y-99118800D01*
X121280323Y-99166419D01*
X121327942Y-99261657D01*
X121327942Y-99404514D01*
X121280323Y-99499752D01*
X121232704Y-99547371D01*
X121137466Y-99594990D01*
X120756514Y-99594990D01*
X121708895Y-99166419D02*
X121756514Y-99118800D01*
X121851752Y-99071180D01*
X122089847Y-99071180D01*
X122185085Y-99118800D01*
X122232704Y-99166419D01*
X122280323Y-99261657D01*
X122280323Y-99356895D01*
X122232704Y-99499752D01*
X121661276Y-100071180D01*
X122280323Y-100071180D01*
X122661276Y-99166419D02*
X122708895Y-99118800D01*
X122804133Y-99071180D01*
X123042228Y-99071180D01*
X123137466Y-99118800D01*
X123185085Y-99166419D01*
X123232704Y-99261657D01*
X123232704Y-99356895D01*
X123185085Y-99499752D01*
X122613657Y-100071180D01*
X123232704Y-100071180D01*
G04 #@! TO.C,R24*
X127500142Y-102052380D02*
X127166809Y-101576190D01*
X126928714Y-102052380D02*
X126928714Y-101052380D01*
X127309666Y-101052380D01*
X127404904Y-101100000D01*
X127452523Y-101147619D01*
X127500142Y-101242857D01*
X127500142Y-101385714D01*
X127452523Y-101480952D01*
X127404904Y-101528571D01*
X127309666Y-101576190D01*
X126928714Y-101576190D01*
X127881095Y-101147619D02*
X127928714Y-101100000D01*
X128023952Y-101052380D01*
X128262047Y-101052380D01*
X128357285Y-101100000D01*
X128404904Y-101147619D01*
X128452523Y-101242857D01*
X128452523Y-101338095D01*
X128404904Y-101480952D01*
X127833476Y-102052380D01*
X128452523Y-102052380D01*
X129309666Y-101385714D02*
X129309666Y-102052380D01*
X129071571Y-101004761D02*
X128833476Y-101719047D01*
X129452523Y-101719047D01*
G04 #@! TO.C,R27*
X158813380Y-152077657D02*
X158337190Y-152410990D01*
X158813380Y-152649085D02*
X157813380Y-152649085D01*
X157813380Y-152268133D01*
X157861000Y-152172895D01*
X157908619Y-152125276D01*
X158003857Y-152077657D01*
X158146714Y-152077657D01*
X158241952Y-152125276D01*
X158289571Y-152172895D01*
X158337190Y-152268133D01*
X158337190Y-152649085D01*
X157908619Y-151696704D02*
X157861000Y-151649085D01*
X157813380Y-151553847D01*
X157813380Y-151315752D01*
X157861000Y-151220514D01*
X157908619Y-151172895D01*
X158003857Y-151125276D01*
X158099095Y-151125276D01*
X158241952Y-151172895D01*
X158813380Y-151744323D01*
X158813380Y-151125276D01*
X157813380Y-150791942D02*
X157813380Y-150125276D01*
X158813380Y-150553847D01*
G04 #@! TO.C,R25*
X157091142Y-148178780D02*
X156757809Y-147702590D01*
X156519714Y-148178780D02*
X156519714Y-147178780D01*
X156900666Y-147178780D01*
X156995904Y-147226400D01*
X157043523Y-147274019D01*
X157091142Y-147369257D01*
X157091142Y-147512114D01*
X157043523Y-147607352D01*
X156995904Y-147654971D01*
X156900666Y-147702590D01*
X156519714Y-147702590D01*
X157472095Y-147274019D02*
X157519714Y-147226400D01*
X157614952Y-147178780D01*
X157853047Y-147178780D01*
X157948285Y-147226400D01*
X157995904Y-147274019D01*
X158043523Y-147369257D01*
X158043523Y-147464495D01*
X157995904Y-147607352D01*
X157424476Y-148178780D01*
X158043523Y-148178780D01*
X158948285Y-147178780D02*
X158472095Y-147178780D01*
X158424476Y-147654971D01*
X158472095Y-147607352D01*
X158567333Y-147559733D01*
X158805428Y-147559733D01*
X158900666Y-147607352D01*
X158948285Y-147654971D01*
X158995904Y-147750209D01*
X158995904Y-147988304D01*
X158948285Y-148083542D01*
X158900666Y-148131161D01*
X158805428Y-148178780D01*
X158567333Y-148178780D01*
X158472095Y-148131161D01*
X158424476Y-148083542D01*
G04 #@! TO.C,R3*
X143326380Y-82411866D02*
X142850190Y-82745200D01*
X143326380Y-82983295D02*
X142326380Y-82983295D01*
X142326380Y-82602342D01*
X142374000Y-82507104D01*
X142421619Y-82459485D01*
X142516857Y-82411866D01*
X142659714Y-82411866D01*
X142754952Y-82459485D01*
X142802571Y-82507104D01*
X142850190Y-82602342D01*
X142850190Y-82983295D01*
X142326380Y-82078533D02*
X142326380Y-81459485D01*
X142707333Y-81792819D01*
X142707333Y-81649961D01*
X142754952Y-81554723D01*
X142802571Y-81507104D01*
X142897809Y-81459485D01*
X143135904Y-81459485D01*
X143231142Y-81507104D01*
X143278761Y-81554723D01*
X143326380Y-81649961D01*
X143326380Y-81935676D01*
X143278761Y-82030914D01*
X143231142Y-82078533D01*
G04 #@! TO.C,R2*
X136647180Y-70990866D02*
X136170990Y-71324200D01*
X136647180Y-71562295D02*
X135647180Y-71562295D01*
X135647180Y-71181342D01*
X135694800Y-71086104D01*
X135742419Y-71038485D01*
X135837657Y-70990866D01*
X135980514Y-70990866D01*
X136075752Y-71038485D01*
X136123371Y-71086104D01*
X136170990Y-71181342D01*
X136170990Y-71562295D01*
X135742419Y-70609914D02*
X135694800Y-70562295D01*
X135647180Y-70467057D01*
X135647180Y-70228961D01*
X135694800Y-70133723D01*
X135742419Y-70086104D01*
X135837657Y-70038485D01*
X135932895Y-70038485D01*
X136075752Y-70086104D01*
X136647180Y-70657533D01*
X136647180Y-70038485D01*
G04 #@! TO.C,R9*
X141209733Y-96565980D02*
X140876400Y-96089790D01*
X140638304Y-96565980D02*
X140638304Y-95565980D01*
X141019257Y-95565980D01*
X141114495Y-95613600D01*
X141162114Y-95661219D01*
X141209733Y-95756457D01*
X141209733Y-95899314D01*
X141162114Y-95994552D01*
X141114495Y-96042171D01*
X141019257Y-96089790D01*
X140638304Y-96089790D01*
X141685923Y-96565980D02*
X141876400Y-96565980D01*
X141971638Y-96518361D01*
X142019257Y-96470742D01*
X142114495Y-96327885D01*
X142162114Y-96137409D01*
X142162114Y-95756457D01*
X142114495Y-95661219D01*
X142066876Y-95613600D01*
X141971638Y-95565980D01*
X141781161Y-95565980D01*
X141685923Y-95613600D01*
X141638304Y-95661219D01*
X141590685Y-95756457D01*
X141590685Y-95994552D01*
X141638304Y-96089790D01*
X141685923Y-96137409D01*
X141781161Y-96185028D01*
X141971638Y-96185028D01*
X142066876Y-96137409D01*
X142114495Y-96089790D01*
X142162114Y-95994552D01*
G04 #@! TO.C,TP5*
X125026895Y-90775980D02*
X125598323Y-90775980D01*
X125312609Y-91775980D02*
X125312609Y-90775980D01*
X125931657Y-91775980D02*
X125931657Y-90775980D01*
X126312609Y-90775980D01*
X126407847Y-90823600D01*
X126455466Y-90871219D01*
X126503085Y-90966457D01*
X126503085Y-91109314D01*
X126455466Y-91204552D01*
X126407847Y-91252171D01*
X126312609Y-91299790D01*
X125931657Y-91299790D01*
X127407847Y-90775980D02*
X126931657Y-90775980D01*
X126884038Y-91252171D01*
X126931657Y-91204552D01*
X127026895Y-91156933D01*
X127264990Y-91156933D01*
X127360228Y-91204552D01*
X127407847Y-91252171D01*
X127455466Y-91347409D01*
X127455466Y-91585504D01*
X127407847Y-91680742D01*
X127360228Y-91728361D01*
X127264990Y-91775980D01*
X127026895Y-91775980D01*
X126931657Y-91728361D01*
X126884038Y-91680742D01*
G04 #@! TO.C,TP6*
X125026895Y-98105980D02*
X125598323Y-98105980D01*
X125312609Y-99105980D02*
X125312609Y-98105980D01*
X125931657Y-99105980D02*
X125931657Y-98105980D01*
X126312609Y-98105980D01*
X126407847Y-98153600D01*
X126455466Y-98201219D01*
X126503085Y-98296457D01*
X126503085Y-98439314D01*
X126455466Y-98534552D01*
X126407847Y-98582171D01*
X126312609Y-98629790D01*
X125931657Y-98629790D01*
X127360228Y-98105980D02*
X127169752Y-98105980D01*
X127074514Y-98153600D01*
X127026895Y-98201219D01*
X126931657Y-98344076D01*
X126884038Y-98534552D01*
X126884038Y-98915504D01*
X126931657Y-99010742D01*
X126979276Y-99058361D01*
X127074514Y-99105980D01*
X127264990Y-99105980D01*
X127360228Y-99058361D01*
X127407847Y-99010742D01*
X127455466Y-98915504D01*
X127455466Y-98677409D01*
X127407847Y-98582171D01*
X127360228Y-98534552D01*
X127264990Y-98486933D01*
X127074514Y-98486933D01*
X126979276Y-98534552D01*
X126931657Y-98582171D01*
X126884038Y-98677409D01*
G04 #@! TO.C,D13*
X150563414Y-153411180D02*
X150563414Y-152411180D01*
X150801509Y-152411180D01*
X150944366Y-152458800D01*
X151039604Y-152554038D01*
X151087223Y-152649276D01*
X151134842Y-152839752D01*
X151134842Y-152982609D01*
X151087223Y-153173085D01*
X151039604Y-153268323D01*
X150944366Y-153363561D01*
X150801509Y-153411180D01*
X150563414Y-153411180D01*
X152087223Y-153411180D02*
X151515795Y-153411180D01*
X151801509Y-153411180D02*
X151801509Y-152411180D01*
X151706271Y-152554038D01*
X151611033Y-152649276D01*
X151515795Y-152696895D01*
X152420557Y-152411180D02*
X153039604Y-152411180D01*
X152706271Y-152792133D01*
X152849128Y-152792133D01*
X152944366Y-152839752D01*
X152991985Y-152887371D01*
X153039604Y-152982609D01*
X153039604Y-153220704D01*
X152991985Y-153315942D01*
X152944366Y-153363561D01*
X152849128Y-153411180D01*
X152563414Y-153411180D01*
X152468176Y-153363561D01*
X152420557Y-153315942D01*
G04 #@! TO.C,D24*
X161472714Y-153436580D02*
X161472714Y-152436580D01*
X161710809Y-152436580D01*
X161853666Y-152484200D01*
X161948904Y-152579438D01*
X161996523Y-152674676D01*
X162044142Y-152865152D01*
X162044142Y-153008009D01*
X161996523Y-153198485D01*
X161948904Y-153293723D01*
X161853666Y-153388961D01*
X161710809Y-153436580D01*
X161472714Y-153436580D01*
X162425095Y-152531819D02*
X162472714Y-152484200D01*
X162567952Y-152436580D01*
X162806047Y-152436580D01*
X162901285Y-152484200D01*
X162948904Y-152531819D01*
X162996523Y-152627057D01*
X162996523Y-152722295D01*
X162948904Y-152865152D01*
X162377476Y-153436580D01*
X162996523Y-153436580D01*
X163853666Y-152769914D02*
X163853666Y-153436580D01*
X163615571Y-152388961D02*
X163377476Y-153103247D01*
X163996523Y-153103247D01*
G04 #@! TO.C,SW1*
X102552666Y-72032761D02*
X102695523Y-72080380D01*
X102933619Y-72080380D01*
X103028857Y-72032761D01*
X103076476Y-71985142D01*
X103124095Y-71889904D01*
X103124095Y-71794666D01*
X103076476Y-71699428D01*
X103028857Y-71651809D01*
X102933619Y-71604190D01*
X102743142Y-71556571D01*
X102647904Y-71508952D01*
X102600285Y-71461333D01*
X102552666Y-71366095D01*
X102552666Y-71270857D01*
X102600285Y-71175619D01*
X102647904Y-71128000D01*
X102743142Y-71080380D01*
X102981238Y-71080380D01*
X103124095Y-71128000D01*
X103457428Y-71080380D02*
X103695523Y-72080380D01*
X103886000Y-71366095D01*
X104076476Y-72080380D01*
X104314571Y-71080380D01*
X105219333Y-72080380D02*
X104647904Y-72080380D01*
X104933619Y-72080380D02*
X104933619Y-71080380D01*
X104838380Y-71223238D01*
X104743142Y-71318476D01*
X104647904Y-71366095D01*
G04 #@! TO.C,U6*
X138557095Y-124564380D02*
X138557095Y-125373904D01*
X138604714Y-125469142D01*
X138652333Y-125516761D01*
X138747571Y-125564380D01*
X138938047Y-125564380D01*
X139033285Y-125516761D01*
X139080904Y-125469142D01*
X139128523Y-125373904D01*
X139128523Y-124564380D01*
X140033285Y-124564380D02*
X139842809Y-124564380D01*
X139747571Y-124612000D01*
X139699952Y-124659619D01*
X139604714Y-124802476D01*
X139557095Y-124992952D01*
X139557095Y-125373904D01*
X139604714Y-125469142D01*
X139652333Y-125516761D01*
X139747571Y-125564380D01*
X139938047Y-125564380D01*
X140033285Y-125516761D01*
X140080904Y-125469142D01*
X140128523Y-125373904D01*
X140128523Y-125135809D01*
X140080904Y-125040571D01*
X140033285Y-124992952D01*
X139938047Y-124945333D01*
X139747571Y-124945333D01*
X139652333Y-124992952D01*
X139604714Y-125040571D01*
X139557095Y-125135809D01*
G04 #@! TO.C,U2*
X148844095Y-122754380D02*
X148844095Y-123563904D01*
X148891714Y-123659142D01*
X148939333Y-123706761D01*
X149034571Y-123754380D01*
X149225047Y-123754380D01*
X149320285Y-123706761D01*
X149367904Y-123659142D01*
X149415523Y-123563904D01*
X149415523Y-122754380D01*
X149844095Y-122849619D02*
X149891714Y-122802000D01*
X149986952Y-122754380D01*
X150225047Y-122754380D01*
X150320285Y-122802000D01*
X150367904Y-122849619D01*
X150415523Y-122944857D01*
X150415523Y-123040095D01*
X150367904Y-123182952D01*
X149796476Y-123754380D01*
X150415523Y-123754380D01*
G04 #@! TD*
M02*
